  0
SECTION
  2
HEADER
  9
$ANGBASE
  50
0.0
  9
$ANGDIR
  70
  1
  9
$MEASUREMENT
  70
0
  0
ENDSEC
  0
SECTION
  2
TABLES
  0
TABLE
  2
LTYPE
  70
1
  0
LTYPE
  2
CONTINUOUS
  70
0
  3
Solid line
  72
65
  73
0
  40
0.0
  0
ENDTAB
  0
TABLE
  2
STYLE
  70
4
  0
STYLE
  2
KICAD
  70
0
  40
0
  41
1
  42
1
  50
0
  71
0
  3
isocp.shx
  0
STYLE
  2
KICADB
  70
0
  40
0
  41
1
  42
1
  50
0
  71
0
  3
isocp.shx
  0
STYLE
  2
KICADI
  70
0
  40
0
  41
1
  42
1
  50
15
  71
0
  3
isocp.shx
  0
STYLE
  2
KICADBI
  70
0
  40
0
  41
1
  42
1
  50
15
  71
0
  3
isocp.shx
  0
ENDTAB
  0
TABLE
  2
LAYER
  70
30
  0
LAYER
  2
BLACK
  70
0
  62
7
  6
CONTINUOUS
  0
LAYER
  2
GRAY1
  70
0
  62
251
  6
CONTINUOUS
  0
LAYER
  2
GRAY2
  70
0
  62
8
  6
CONTINUOUS
  0
LAYER
  2
GRAY3
  70
0
  62
9
  6
CONTINUOUS
  0
LAYER
  2
WHITE
  70
0
  62
7
  6
CONTINUOUS
  0
LAYER
  2
LYELLOW
  70
0
  62
51
  6
CONTINUOUS
  0
LAYER
  2
BLUE1
  70
0
  62
178
  6
CONTINUOUS
  0
LAYER
  2
GREEN1
  70
0
  62
98
  6
CONTINUOUS
  0
LAYER
  2
CYAN1
  70
0
  62
138
  6
CONTINUOUS
  0
LAYER
  2
RED1
  70
0
  62
18
  6
CONTINUOUS
  0
LAYER
  2
MAGENTA1
  70
0
  62
228
  6
CONTINUOUS
  0
LAYER
  2
BROWN1
  70
0
  62
58
  6
CONTINUOUS
  0
LAYER
  2
BLUE2
  70
0
  62
5
  6
CONTINUOUS
  0
LAYER
  2
GREEN2
  70
0
  62
3
  6
CONTINUOUS
  0
LAYER
  2
CYAN2
  70
0
  62
4
  6
CONTINUOUS
  0
LAYER
  2
RED2
  70
0
  62
1
  6
CONTINUOUS
  0
LAYER
  2
MAGENTA2
  70
0
  62
6
  6
CONTINUOUS
  0
LAYER
  2
BROWN2
  70
0
  62
54
  6
CONTINUOUS
  0
LAYER
  2
BLUE3
  70
0
  62
171
  6
CONTINUOUS
  0
LAYER
  2
GREEN3
  70
0
  62
91
  6
CONTINUOUS
  0
LAYER
  2
CYAN3
  70
0
  62
131
  6
CONTINUOUS
  0
LAYER
  2
RED3
  70
0
  62
11
  6
CONTINUOUS
  0
LAYER
  2
MAGENTA3
  70
0
  62
221
  6
CONTINUOUS
  0
LAYER
  2
YELLOW3
  70
0
  62
2
  6
CONTINUOUS
  0
LAYER
  2
BLUE4
  70
0
  62
5
  6
CONTINUOUS
  0
LAYER
  2
GREEN4
  70
0
  62
3
  6
CONTINUOUS
  0
LAYER
  2
CYAN4
  70
0
  62
4
  6
CONTINUOUS
  0
LAYER
  2
RED4
  70
0
  62
1
  6
CONTINUOUS
  0
LAYER
  2
MAGENTA4
  70
0
  62
6
  6
CONTINUOUS
  0
LAYER
  2
YELLOW4
  70
0
  62
2
  6
CONTINUOUS
  0
ENDTAB
  0
ENDSEC
  0
SECTION
  2
ENTITIES
0
LINE
8
Black
10
124.45
20
-106.2
11
122.05
21
-106.2
0
LINE
8
Black
10
122.05
20
-106.2
11
122.05
21
-104.3
0
LINE
8
Black
10
122.05
20
-104.3
11
124.45
21
-104.3
0
LINE
8
Black
10
124.45
20
-104.3
11
124.45
21
-106.2
0
LINE
8
Black
10
125.91
20
-104.96
11
125.29
21
-104.96
0
LINE
8
Black
10
125.29
20
-104.96
11
125.29
21
-104.34
0
LINE
8
Black
10
125.29
20
-104.34
11
125.91
21
-104.34
0
LINE
8
Black
10
125.91
20
-104.34
11
125.91
21
-104.96
0
LINE
8
Black
10
119.61
20
-104.81
11
118.99
21
-104.81
0
LINE
8
Black
10
118.99
20
-104.81
11
118.99
21
-104.19
0
LINE
8
Black
10
118.99
20
-104.19
11
119.61
21
-104.19
0
LINE
8
Black
10
119.61
20
-104.19
11
119.61
21
-104.81
0
LINE
8
Black
10
120.51
20
-104.81
11
119.89
21
-104.81
0
LINE
8
Black
10
119.89
20
-104.81
11
119.89
21
-104.19
0
LINE
8
Black
10
119.89
20
-104.19
11
120.51
21
-104.19
0
LINE
8
Black
10
120.51
20
-104.19
11
120.51
21
-104.81
0
LINE
8
Black
10
125.91
20
-104.06
11
125.29
21
-104.06
0
LINE
8
Black
10
125.29
20
-104.06
11
125.29
21
-103.44
0
LINE
8
Black
10
125.29
20
-103.44
11
125.91
21
-103.44
0
LINE
8
Black
10
125.91
20
-103.44
11
125.91
21
-104.06
0
LINE
8
Black
10
102.1
20
-103.865
11
100.8
21
-103.865
0
LINE
8
Black
10
100.8
20
-103.865
11
100.8
21
-102.89
0
LINE
8
Black
10
100.8
20
-102.89
11
102.1
21
-102.89
0
LINE
8
Black
10
102.1
20
-102.89
11
102.1
21
-103.865
0
LINE
8
Black
10
118.68
20
-103.68
11
118.32
21
-103.68
0
LINE
8
Black
10
118.32
20
-103.68
11
118.32
21
-103.07
0
LINE
8
Black
10
118.32
20
-103.07
11
118.68
21
-103.07
0
LINE
8
Black
10
118.68
20
-103.07
11
118.68
21
-103.68
0
LINE
8
Black
10
118.18
20
-103.68
11
117.82
21
-103.68
0
LINE
8
Black
10
117.82
20
-103.68
11
117.82
21
-103.07
0
LINE
8
Black
10
117.82
20
-103.07
11
118.18
21
-103.07
0
LINE
8
Black
10
118.18
20
-103.07
11
118.18
21
-103.68
0
LINE
8
Black
10
117.68
20
-103.68
11
117.32
21
-103.68
0
LINE
8
Black
10
117.32
20
-103.68
11
117.32
21
-103.07
0
LINE
8
Black
10
117.32
20
-103.07
11
117.68
21
-103.07
0
LINE
8
Black
10
117.68
20
-103.07
11
117.68
21
-103.68
0
LINE
8
Black
10
117.18
20
-103.68
11
116.82
21
-103.68
0
LINE
8
Black
10
116.82
20
-103.68
11
116.82
21
-103.07
0
LINE
8
Black
10
116.82
20
-103.07
11
117.18
21
-103.07
0
LINE
8
Black
10
117.18
20
-103.07
11
117.18
21
-103.68
0
LINE
8
Black
10
119.18
20
-103.68
11
118.82
21
-103.68
0
LINE
8
Black
10
118.82
20
-103.68
11
118.82
21
-103.07
0
LINE
8
Black
10
118.82
20
-103.07
11
119.18
21
-103.07
0
LINE
8
Black
10
119.18
20
-103.07
11
119.18
21
-103.68
0
LINE
8
Black
10
119.68
20
-103.68
11
119.32
21
-103.68
0
LINE
8
Black
10
119.32
20
-103.68
11
119.32
21
-103.07
0
LINE
8
Black
10
119.32
20
-103.07
11
119.68
21
-103.07
0
LINE
8
Black
10
119.68
20
-103.07
11
119.68
21
-103.68
0
LINE
8
Black
10
120.18
20
-103.68
11
119.82
21
-103.68
0
LINE
8
Black
10
119.82
20
-103.68
11
119.82
21
-103.07
0
LINE
8
Black
10
119.82
20
-103.07
11
120.18
21
-103.07
0
LINE
8
Black
10
120.18
20
-103.07
11
120.18
21
-103.68
0
LINE
8
Black
10
114.68
20
-103.68
11
114.32
21
-103.68
0
LINE
8
Black
10
114.32
20
-103.68
11
114.32
21
-103.07
0
LINE
8
Black
10
114.32
20
-103.07
11
114.68
21
-103.07
0
LINE
8
Black
10
114.68
20
-103.07
11
114.68
21
-103.68
0
LINE
8
Black
10
116.68
20
-103.68
11
116.32
21
-103.68
0
LINE
8
Black
10
116.32
20
-103.68
11
116.32
21
-103.07
0
LINE
8
Black
10
116.32
20
-103.07
11
116.68
21
-103.07
0
LINE
8
Black
10
116.68
20
-103.07
11
116.68
21
-103.68
0
LINE
8
Black
10
115.18
20
-103.68
11
114.82
21
-103.68
0
LINE
8
Black
10
114.82
20
-103.68
11
114.82
21
-103.07
0
LINE
8
Black
10
114.82
20
-103.07
11
115.18
21
-103.07
0
LINE
8
Black
10
115.18
20
-103.07
11
115.18
21
-103.68
0
LINE
8
Black
10
116.18
20
-103.68
11
115.82
21
-103.68
0
LINE
8
Black
10
115.82
20
-103.68
11
115.82
21
-103.07
0
LINE
8
Black
10
115.82
20
-103.07
11
116.18
21
-103.07
0
LINE
8
Black
10
116.18
20
-103.07
11
116.18
21
-103.68
0
LINE
8
Black
10
115.68
20
-103.68
11
115.32
21
-103.68
0
LINE
8
Black
10
115.32
20
-103.68
11
115.32
21
-103.07
0
LINE
8
Black
10
115.32
20
-103.07
11
115.68
21
-103.07
0
LINE
8
Black
10
115.68
20
-103.07
11
115.68
21
-103.68
0
LINE
8
Black
10
113.06
20
-103.56
11
112.44
21
-103.56
0
LINE
8
Black
10
112.44
20
-103.56
11
112.44
21
-102.94
0
LINE
8
Black
10
112.44
20
-102.94
11
113.06
21
-102.94
0
LINE
8
Black
10
113.06
20
-102.94
11
113.06
21
-103.56
0
LINE
8
Black
10
125.91
20
-102.96
11
125.29
21
-102.96
0
LINE
8
Black
10
125.29
20
-102.96
11
125.29
21
-102.34
0
LINE
8
Black
10
125.29
20
-102.34
11
125.91
21
-102.34
0
LINE
8
Black
10
125.91
20
-102.34
11
125.91
21
-102.96
0
LINE
8
Black
10
114.18
20
-102.93
11
113.57
21
-102.93
0
LINE
8
Black
10
113.57
20
-102.93
11
113.57
21
-102.57
0
LINE
8
Black
10
113.57
20
-102.57
11
114.18
21
-102.57
0
LINE
8
Black
10
114.18
20
-102.57
11
114.18
21
-102.93
0
LINE
8
Black
10
120.93
20
-102.93
11
120.32
21
-102.93
0
LINE
8
Black
10
120.32
20
-102.93
11
120.32
21
-102.57
0
LINE
8
Black
10
120.32
20
-102.57
11
120.93
21
-102.57
0
LINE
8
Black
10
120.93
20
-102.57
11
120.93
21
-102.93
0
LINE
8
Black
10
131.86
20
-102.91
11
129.07
21
-102.91
0
LINE
8
Black
10
129.07
20
-102.91
11
129.07
21
-102.17
0
LINE
8
Black
10
129.07
20
-102.17
11
131.86
21
-102.17
0
LINE
8
Black
10
131.86
20
-102.17
11
131.86
21
-102.91
0
LINE
8
Black
10
135.93
20
-102.91
11
133.14
21
-102.91
0
LINE
8
Black
10
133.14
20
-102.91
11
133.14
21
-102.17
0
LINE
8
Black
10
133.14
20
-102.17
11
135.93
21
-102.17
0
LINE
8
Black
10
135.93
20
-102.17
11
135.93
21
-102.91
0
LINE
8
Black
10
113.06
20
-102.66
11
112.44
21
-102.66
0
LINE
8
Black
10
112.44
20
-102.66
11
112.44
21
-102.04
0
LINE
8
Black
10
112.44
20
-102.04
11
113.06
21
-102.04
0
LINE
8
Black
10
113.06
20
-102.04
11
113.06
21
-102.66
0
LINE
8
Black
10
114.18
20
-102.43
11
113.57
21
-102.43
0
LINE
8
Black
10
113.57
20
-102.43
11
113.57
21
-102.07
0
LINE
8
Black
10
113.57
20
-102.07
11
114.18
21
-102.07
0
LINE
8
Black
10
114.18
20
-102.07
11
114.18
21
-102.43
0
LINE
8
Black
10
120.93
20
-102.43
11
120.32
21
-102.43
0
LINE
8
Black
10
120.32
20
-102.43
11
120.32
21
-102.07
0
LINE
8
Black
10
120.32
20
-102.07
11
120.93
21
-102.07
0
LINE
8
Black
10
120.93
20
-102.07
11
120.93
21
-102.43
0
LINE
8
Black
10
111.26
20
-102.31
11
110.64
21
-102.31
0
LINE
8
Black
10
110.64
20
-102.31
11
110.64
21
-101.69
0
LINE
8
Black
10
110.64
20
-101.69
11
111.26
21
-101.69
0
LINE
8
Black
10
111.26
20
-101.69
11
111.26
21
-102.31
0
LINE
8
Black
10
110.36
20
-102.31
11
109.74
21
-102.31
0
LINE
8
Black
10
109.74
20
-102.31
11
109.74
21
-101.69
0
LINE
8
Black
10
109.74
20
-101.69
11
110.36
21
-101.69
0
LINE
8
Black
10
110.36
20
-101.69
11
110.36
21
-102.31
0
LINE
8
Black
10
124.45
20
-102.1
11
122.05
21
-102.1
0
LINE
8
Black
10
122.05
20
-102.1
11
122.05
21
-100.2
0
LINE
8
Black
10
122.05
20
-100.2
11
124.45
21
-100.2
0
LINE
8
Black
10
124.45
20
-100.2
11
124.45
21
-102.1
0
LINE
8
Black
10
125.91
20
-102.06
11
125.29
21
-102.06
0
LINE
8
Black
10
125.29
20
-102.06
11
125.29
21
-101.44
0
LINE
8
Black
10
125.29
20
-101.44
11
125.91
21
-101.44
0
LINE
8
Black
10
125.91
20
-101.44
11
125.91
21
-102.06
0
LINE
8
Black
10
120.93
20
-101.93
11
120.32
21
-101.93
0
LINE
8
Black
10
120.32
20
-101.93
11
120.32
21
-101.57
0
LINE
8
Black
10
120.32
20
-101.57
11
120.93
21
-101.57
0
LINE
8
Black
10
120.93
20
-101.57
11
120.93
21
-101.93
0
LINE
8
Black
10
114.18
20
-101.93
11
113.57
21
-101.93
0
LINE
8
Black
10
113.57
20
-101.93
11
113.57
21
-101.57
0
LINE
8
Black
10
113.57
20
-101.57
11
114.18
21
-101.57
0
LINE
8
Black
10
114.18
20
-101.57
11
114.18
21
-101.93
0
LINE
8
Black
10
102.15
20
-101.79
11
100.75
21
-101.79
0
LINE
8
Black
10
100.75
20
-101.79
11
100.75
21
-100.49
0
LINE
8
Black
10
100.75
20
-100.49
11
102.15
21
-100.49
0
LINE
8
Black
10
102.15
20
-100.49
11
102.15
21
-101.79
0
LINE
8
Black
10
119.001
20
-101.751
11
117.999
21
-101.751
0
LINE
8
Black
10
117.999
20
-101.751
11
117.999
21
-100.749
0
LINE
8
Black
10
117.999
20
-100.749
11
119.001
21
-100.749
0
LINE
8
Black
10
119.001
20
-100.749
11
119.001
21
-101.751
0
LINE
8
Black
10
116.501
20
-101.751
11
115.499
21
-101.751
0
LINE
8
Black
10
115.499
20
-101.751
11
115.499
21
-100.749
0
LINE
8
Black
10
115.499
20
-100.749
11
116.501
21
-100.749
0
LINE
8
Black
10
116.501
20
-100.749
11
116.501
21
-101.751
0
LINE
8
Black
10
131.86
20
-101.64
11
129.07
21
-101.64
0
LINE
8
Black
10
129.07
20
-101.64
11
129.07
21
-100.9
0
LINE
8
Black
10
129.07
20
-100.9
11
131.86
21
-100.9
0
LINE
8
Black
10
131.86
20
-100.9
11
131.86
21
-101.64
0
LINE
8
Black
10
135.93
20
-101.64
11
133.14
21
-101.64
0
LINE
8
Black
10
133.14
20
-101.64
11
133.14
21
-100.9
0
LINE
8
Black
10
133.14
20
-100.9
11
135.93
21
-100.9
0
LINE
8
Black
10
135.93
20
-100.9
11
135.93
21
-101.64
0
LINE
8
Black
10
104.8
20
-101.49
11
103.45
21
-101.49
0
LINE
8
Black
10
103.45
20
-101.49
11
103.45
21
-101.09
0
LINE
8
Black
10
103.45
20
-101.09
11
104.8
21
-101.09
0
LINE
8
Black
10
104.8
20
-101.09
11
104.8
21
-101.49
0
LINE
8
Black
10
114.18
20
-101.43
11
113.57
21
-101.43
0
LINE
8
Black
10
113.57
20
-101.43
11
113.57
21
-101.07
0
LINE
8
Black
10
113.57
20
-101.07
11
114.18
21
-101.07
0
LINE
8
Black
10
114.18
20
-101.07
11
114.18
21
-101.43
0
LINE
8
Black
10
120.93
20
-101.43
11
120.32
21
-101.43
0
LINE
8
Black
10
120.32
20
-101.43
11
120.32
21
-101.07
0
LINE
8
Black
10
120.32
20
-101.07
11
120.93
21
-101.07
0
LINE
8
Black
10
120.93
20
-101.07
11
120.93
21
-101.43
0
LINE
8
Black
10
110.36
20
-101.31
11
109.74
21
-101.31
0
LINE
8
Black
10
109.74
20
-101.31
11
109.74
21
-100.69
0
LINE
8
Black
10
109.74
20
-100.69
11
110.36
21
-100.69
0
LINE
8
Black
10
110.36
20
-100.69
11
110.36
21
-101.31
0
LINE
8
Black
10
111.26
20
-101.31
11
110.64
21
-101.31
0
LINE
8
Black
10
110.64
20
-101.31
11
110.64
21
-100.69
0
LINE
8
Black
10
110.64
20
-100.69
11
111.26
21
-100.69
0
LINE
8
Black
10
111.26
20
-100.69
11
111.26
21
-101.31
0
LINE
8
Black
10
114.18
20
-100.93
11
113.57
21
-100.93
0
LINE
8
Black
10
113.57
20
-100.93
11
113.57
21
-100.57
0
LINE
8
Black
10
113.57
20
-100.57
11
114.18
21
-100.57
0
LINE
8
Black
10
114.18
20
-100.57
11
114.18
21
-100.93
0
LINE
8
Black
10
120.93
20
-100.93
11
120.32
21
-100.93
0
LINE
8
Black
10
120.32
20
-100.93
11
120.32
21
-100.57
0
LINE
8
Black
10
120.32
20
-100.57
11
120.93
21
-100.57
0
LINE
8
Black
10
120.93
20
-100.57
11
120.93
21
-100.93
0
LINE
8
Black
10
104.8
20
-100.84
11
103.45
21
-100.84
0
LINE
8
Black
10
103.45
20
-100.84
11
103.45
21
-100.44
0
LINE
8
Black
10
103.45
20
-100.44
11
104.8
21
-100.44
0
LINE
8
Black
10
104.8
20
-100.44
11
104.8
21
-100.84
0
LINE
8
Black
10
114.18
20
-100.43
11
113.57
21
-100.43
0
LINE
8
Black
10
113.57
20
-100.43
11
113.57
21
-100.07
0
LINE
8
Black
10
113.57
20
-100.07
11
114.18
21
-100.07
0
LINE
8
Black
10
114.18
20
-100.07
11
114.18
21
-100.43
0
LINE
8
Black
10
120.93
20
-100.43
11
120.32
21
-100.43
0
LINE
8
Black
10
120.32
20
-100.43
11
120.32
21
-100.07
0
LINE
8
Black
10
120.32
20
-100.07
11
120.93
21
-100.07
0
LINE
8
Black
10
120.93
20
-100.07
11
120.93
21
-100.43
0
LINE
8
Black
10
131.86
20
-100.37
11
129.07
21
-100.37
0
LINE
8
Black
10
129.07
20
-100.37
11
129.07
21
-99.63
0
LINE
8
Black
10
129.07
20
-99.63
11
131.86
21
-99.63
0
LINE
8
Black
10
131.86
20
-99.63
11
131.86
21
-100.37
0
LINE
8
Black
10
135.93
20
-100.37
11
133.14
21
-100.37
0
LINE
8
Black
10
133.14
20
-100.37
11
133.14
21
-99.63
0
LINE
8
Black
10
133.14
20
-99.63
11
135.93
21
-99.63
0
LINE
8
Black
10
135.93
20
-99.63
11
135.93
21
-100.37
0
LINE
8
Black
10
110.36
20
-100.31
11
109.74
21
-100.31
0
LINE
8
Black
10
109.74
20
-100.31
11
109.74
21
-99.69
0
LINE
8
Black
10
109.74
20
-99.69
11
110.36
21
-99.69
0
LINE
8
Black
10
110.36
20
-99.69
11
110.36
21
-100.31
0
LINE
8
Black
10
111.26
20
-100.31
11
110.64
21
-100.31
0
LINE
8
Black
10
110.64
20
-100.31
11
110.64
21
-99.69
0
LINE
8
Black
10
110.64
20
-99.69
11
111.26
21
-99.69
0
LINE
8
Black
10
111.26
20
-99.69
11
111.26
21
-100.31
0
LINE
8
Black
10
126.35
20
-100.25
11
125.35
21
-100.25
0
LINE
8
Black
10
125.35
20
-100.25
11
125.35
21
-99.65
0
LINE
8
Black
10
125.35
20
-99.65
11
126.35
21
-99.65
0
LINE
8
Black
10
126.35
20
-99.65
11
126.35
21
-100.25
0
LINE
8
Black
10
104.8
20
-100.19
11
103.45
21
-100.19
0
LINE
8
Black
10
103.45
20
-100.19
11
103.45
21
-99.79
0
LINE
8
Black
10
103.45
20
-99.79
11
104.8
21
-99.79
0
LINE
8
Black
10
104.8
20
-99.79
11
104.8
21
-100.19
0
LINE
8
Black
10
120.93
20
-99.93
11
120.32
21
-99.93
0
LINE
8
Black
10
120.32
20
-99.93
11
120.32
21
-99.57
0
LINE
8
Black
10
120.32
20
-99.57
11
120.93
21
-99.57
0
LINE
8
Black
10
120.93
20
-99.57
11
120.93
21
-99.93
0
LINE
8
Black
10
114.18
20
-99.93
11
113.57
21
-99.93
0
LINE
8
Black
10
113.57
20
-99.93
11
113.57
21
-99.57
0
LINE
8
Black
10
113.57
20
-99.57
11
114.18
21
-99.57
0
LINE
8
Black
10
114.18
20
-99.57
11
114.18
21
-99.93
0
LINE
8
Black
10
104.8
20
-99.54
11
103.45
21
-99.54
0
LINE
8
Black
10
103.45
20
-99.54
11
103.45
21
-99.14
0
LINE
8
Black
10
103.45
20
-99.14
11
104.8
21
-99.14
0
LINE
8
Black
10
104.8
20
-99.14
11
104.8
21
-99.54
0
LINE
8
Black
10
102.15
20
-99.49
11
100.75
21
-99.49
0
LINE
8
Black
10
100.75
20
-99.49
11
100.75
21
-98.19
0
LINE
8
Black
10
100.75
20
-98.19
11
102.15
21
-98.19
0
LINE
8
Black
10
102.15
20
-98.19
11
102.15
21
-99.49
0
LINE
8
Black
10
123.75
20
-99.475
11
122.75
21
-99.475
0
LINE
8
Black
10
122.75
20
-99.475
11
122.75
21
-98.525
0
LINE
8
Black
10
122.75
20
-98.525
11
123.75
21
-98.525
0
LINE
8
Black
10
123.75
20
-98.525
11
123.75
21
-99.475
0
LINE
8
Black
10
120.93
20
-99.43
11
120.32
21
-99.43
0
LINE
8
Black
10
120.32
20
-99.43
11
120.32
21
-99.07
0
LINE
8
Black
10
120.32
20
-99.07
11
120.93
21
-99.07
0
LINE
8
Black
10
120.93
20
-99.07
11
120.93
21
-99.43
0
LINE
8
Black
10
114.18
20
-99.43
11
113.57
21
-99.43
0
LINE
8
Black
10
113.57
20
-99.43
11
113.57
21
-99.07
0
LINE
8
Black
10
113.57
20
-99.07
11
114.18
21
-99.07
0
LINE
8
Black
10
114.18
20
-99.07
11
114.18
21
-99.43
0
LINE
8
Black
10
122.11
20
-99.36
11
121.49
21
-99.36
0
LINE
8
Black
10
121.49
20
-99.36
11
121.49
21
-98.74
0
LINE
8
Black
10
121.49
20
-98.74
11
122.11
21
-98.74
0
LINE
8
Black
10
122.11
20
-98.74
11
122.11
21
-99.36
0
LINE
8
Black
10
110.36
20
-99.31
11
109.74
21
-99.31
0
LINE
8
Black
10
109.74
20
-99.31
11
109.74
21
-98.69
0
LINE
8
Black
10
109.74
20
-98.69
11
110.36
21
-98.69
0
LINE
8
Black
10
110.36
20
-98.69
11
110.36
21
-99.31
0
LINE
8
Black
10
111.26
20
-99.31
11
110.64
21
-99.31
0
LINE
8
Black
10
110.64
20
-99.31
11
110.64
21
-98.69
0
LINE
8
Black
10
110.64
20
-98.69
11
111.26
21
-98.69
0
LINE
8
Black
10
111.26
20
-98.69
11
111.26
21
-99.31
0
LINE
8
Black
10
128.65
20
-99.3
11
127.65
21
-99.3
0
LINE
8
Black
10
127.65
20
-99.3
11
127.65
21
-98.7
0
LINE
8
Black
10
127.65
20
-98.7
11
128.65
21
-98.7
0
LINE
8
Black
10
128.65
20
-98.7
11
128.65
21
-99.3
0
LINE
8
Black
10
116.501
20
-99.251
11
115.499
21
-99.251
0
LINE
8
Black
10
115.499
20
-99.251
11
115.499
21
-98.249
0
LINE
8
Black
10
115.499
20
-98.249
11
116.501
21
-98.249
0
LINE
8
Black
10
116.501
20
-98.249
11
116.501
21
-99.251
0
LINE
8
Black
10
119.001
20
-99.251
11
117.999
21
-99.251
0
LINE
8
Black
10
117.999
20
-99.251
11
117.999
21
-98.249
0
LINE
8
Black
10
117.999
20
-98.249
11
119.001
21
-98.249
0
LINE
8
Black
10
119.001
20
-98.249
11
119.001
21
-99.251
0
LINE
8
Black
10
135.93
20
-99.1
11
133.14
21
-99.1
0
LINE
8
Black
10
133.14
20
-99.1
11
133.14
21
-98.36
0
LINE
8
Black
10
133.14
20
-98.36
11
135.93
21
-98.36
0
LINE
8
Black
10
135.93
20
-98.36
11
135.93
21
-99.1
0
LINE
8
Black
10
131.86
20
-99.1
11
129.07
21
-99.1
0
LINE
8
Black
10
129.07
20
-99.1
11
129.07
21
-98.36
0
LINE
8
Black
10
129.07
20
-98.36
11
131.86
21
-98.36
0
LINE
8
Black
10
131.86
20
-98.36
11
131.86
21
-99.1
0
LINE
8
Black
10
106.925
20
-99
11
105.975
21
-99
0
LINE
8
Black
10
105.975
20
-99
11
105.975
21
-98
0
LINE
8
Black
10
105.975
20
-98
11
106.925
21
-98
0
LINE
8
Black
10
106.925
20
-98
11
106.925
21
-99
0
LINE
8
Black
10
108.525
20
-99
11
107.575
21
-99
0
LINE
8
Black
10
107.575
20
-99
11
107.575
21
-98
0
LINE
8
Black
10
107.575
20
-98
11
108.525
21
-98
0
LINE
8
Black
10
108.525
20
-98
11
108.525
21
-99
0
LINE
8
Black
10
120.93
20
-98.93
11
120.32
21
-98.93
0
LINE
8
Black
10
120.32
20
-98.93
11
120.32
21
-98.57
0
LINE
8
Black
10
120.32
20
-98.57
11
120.93
21
-98.57
0
LINE
8
Black
10
120.93
20
-98.57
11
120.93
21
-98.93
0
LINE
8
Black
10
114.18
20
-98.93
11
113.57
21
-98.93
0
LINE
8
Black
10
113.57
20
-98.93
11
113.57
21
-98.57
0
LINE
8
Black
10
113.57
20
-98.57
11
114.18
21
-98.57
0
LINE
8
Black
10
114.18
20
-98.57
11
114.18
21
-98.93
0
LINE
8
Black
10
104.8
20
-98.89
11
103.45
21
-98.89
0
LINE
8
Black
10
103.45
20
-98.89
11
103.45
21
-98.49
0
LINE
8
Black
10
103.45
20
-98.49
11
104.8
21
-98.49
0
LINE
8
Black
10
104.8
20
-98.49
11
104.8
21
-98.89
0
LINE
8
Black
10
122.11
20
-98.46
11
121.49
21
-98.46
0
LINE
8
Black
10
121.49
20
-98.46
11
121.49
21
-97.84
0
LINE
8
Black
10
121.49
20
-97.84
11
122.11
21
-97.84
0
LINE
8
Black
10
122.11
20
-97.84
11
122.11
21
-98.46
0
LINE
8
Black
10
114.18
20
-98.43
11
113.57
21
-98.43
0
LINE
8
Black
10
113.57
20
-98.43
11
113.57
21
-98.07
0
LINE
8
Black
10
113.57
20
-98.07
11
114.18
21
-98.07
0
LINE
8
Black
10
114.18
20
-98.07
11
114.18
21
-98.43
0
LINE
8
Black
10
120.93
20
-98.43
11
120.32
21
-98.43
0
LINE
8
Black
10
120.32
20
-98.43
11
120.32
21
-98.07
0
LINE
8
Black
10
120.32
20
-98.07
11
120.93
21
-98.07
0
LINE
8
Black
10
120.93
20
-98.07
11
120.93
21
-98.43
0
LINE
8
Black
10
126.35
20
-98.35
11
125.35
21
-98.35
0
LINE
8
Black
10
125.35
20
-98.35
11
125.35
21
-97.75
0
LINE
8
Black
10
125.35
20
-97.75
11
126.35
21
-97.75
0
LINE
8
Black
10
126.35
20
-97.75
11
126.35
21
-98.35
0
LINE
8
Black
10
110.36
20
-98.31
11
109.74
21
-98.31
0
LINE
8
Black
10
109.74
20
-98.31
11
109.74
21
-97.69
0
LINE
8
Black
10
109.74
20
-97.69
11
110.36
21
-97.69
0
LINE
8
Black
10
110.36
20
-97.69
11
110.36
21
-98.31
0
LINE
8
Black
10
111.26
20
-98.31
11
110.64
21
-98.31
0
LINE
8
Black
10
110.64
20
-98.31
11
110.64
21
-97.69
0
LINE
8
Black
10
110.64
20
-97.69
11
111.26
21
-97.69
0
LINE
8
Black
10
111.26
20
-97.69
11
111.26
21
-98.31
0
LINE
8
Black
10
120.93
20
-97.93
11
120.32
21
-97.93
0
LINE
8
Black
10
120.32
20
-97.93
11
120.32
21
-97.57
0
LINE
8
Black
10
120.32
20
-97.57
11
120.93
21
-97.57
0
LINE
8
Black
10
120.93
20
-97.57
11
120.93
21
-97.93
0
LINE
8
Black
10
114.18
20
-97.93
11
113.57
21
-97.93
0
LINE
8
Black
10
113.57
20
-97.93
11
113.57
21
-97.57
0
LINE
8
Black
10
113.57
20
-97.57
11
114.18
21
-97.57
0
LINE
8
Black
10
114.18
20
-97.57
11
114.18
21
-97.93
0
LINE
8
Black
10
123.75
20
-97.875
11
122.75
21
-97.875
0
LINE
8
Black
10
122.75
20
-97.875
11
122.75
21
-96.925
0
LINE
8
Black
10
122.75
20
-96.925
11
123.75
21
-96.925
0
LINE
8
Black
10
123.75
20
-96.925
11
123.75
21
-97.875
0
LINE
8
Black
10
131.86
20
-97.83
11
129.07
21
-97.83
0
LINE
8
Black
10
129.07
20
-97.83
11
129.07
21
-97.09
0
LINE
8
Black
10
129.07
20
-97.09
11
131.86
21
-97.09
0
LINE
8
Black
10
131.86
20
-97.09
11
131.86
21
-97.83
0
LINE
8
Black
10
135.93
20
-97.83
11
133.14
21
-97.83
0
LINE
8
Black
10
133.14
20
-97.83
11
133.14
21
-97.09
0
LINE
8
Black
10
133.14
20
-97.09
11
135.93
21
-97.09
0
LINE
8
Black
10
135.93
20
-97.09
11
135.93
21
-97.83
0
LINE
8
Black
10
120.93
20
-97.43
11
120.32
21
-97.43
0
LINE
8
Black
10
120.32
20
-97.43
11
120.32
21
-97.07
0
LINE
8
Black
10
120.32
20
-97.07
11
120.93
21
-97.07
0
LINE
8
Black
10
120.93
20
-97.07
11
120.93
21
-97.43
0
LINE
8
Black
10
114.18
20
-97.43
11
113.57
21
-97.43
0
LINE
8
Black
10
113.57
20
-97.43
11
113.57
21
-97.07
0
LINE
8
Black
10
113.57
20
-97.07
11
114.18
21
-97.07
0
LINE
8
Black
10
114.18
20
-97.07
11
114.18
21
-97.43
0
LINE
8
Black
10
109.15
20
-97.25
11
108.15
21
-97.25
0
LINE
8
Black
10
108.15
20
-97.25
11
108.15
21
-96.65
0
LINE
8
Black
10
108.15
20
-96.65
11
109.15
21
-96.65
0
LINE
8
Black
10
109.15
20
-96.65
11
109.15
21
-97.25
0
LINE
8
Black
10
102.1
20
-97.09
11
100.8
21
-97.09
0
LINE
8
Black
10
100.8
20
-97.09
11
100.8
21
-96.115
0
LINE
8
Black
10
100.8
20
-96.115
11
102.1
21
-96.115
0
LINE
8
Black
10
102.1
20
-96.115
11
102.1
21
-97.09
0
LINE
8
Black
10
110.75
20
-97.025
11
109.75
21
-97.025
0
LINE
8
Black
10
109.75
20
-97.025
11
109.75
21
-96.075
0
LINE
8
Black
10
109.75
20
-96.075
11
110.75
21
-96.075
0
LINE
8
Black
10
110.75
20
-96.075
11
110.75
21
-97.025
0
LINE
8
Black
10
120.18
20
-96.93
11
119.82
21
-96.93
0
LINE
8
Black
10
119.82
20
-96.93
11
119.82
21
-96.32
0
LINE
8
Black
10
119.82
20
-96.32
11
120.18
21
-96.32
0
LINE
8
Black
10
120.18
20
-96.32
11
120.18
21
-96.93
0
LINE
8
Black
10
115.18
20
-96.93
11
114.82
21
-96.93
0
LINE
8
Black
10
114.82
20
-96.93
11
114.82
21
-96.32
0
LINE
8
Black
10
114.82
20
-96.32
11
115.18
21
-96.32
0
LINE
8
Black
10
115.18
20
-96.32
11
115.18
21
-96.93
0
LINE
8
Black
10
119.68
20
-96.93
11
119.32
21
-96.93
0
LINE
8
Black
10
119.32
20
-96.93
11
119.32
21
-96.32
0
LINE
8
Black
10
119.32
20
-96.32
11
119.68
21
-96.32
0
LINE
8
Black
10
119.68
20
-96.32
11
119.68
21
-96.93
0
LINE
8
Black
10
119.18
20
-96.93
11
118.82
21
-96.93
0
LINE
8
Black
10
118.82
20
-96.93
11
118.82
21
-96.32
0
LINE
8
Black
10
118.82
20
-96.32
11
119.18
21
-96.32
0
LINE
8
Black
10
119.18
20
-96.32
11
119.18
21
-96.93
0
LINE
8
Black
10
118.68
20
-96.93
11
118.32
21
-96.93
0
LINE
8
Black
10
118.32
20
-96.93
11
118.32
21
-96.32
0
LINE
8
Black
10
118.32
20
-96.32
11
118.68
21
-96.32
0
LINE
8
Black
10
118.68
20
-96.32
11
118.68
21
-96.93
0
LINE
8
Black
10
118.18
20
-96.93
11
117.82
21
-96.93
0
LINE
8
Black
10
117.82
20
-96.93
11
117.82
21
-96.32
0
LINE
8
Black
10
117.82
20
-96.32
11
118.18
21
-96.32
0
LINE
8
Black
10
118.18
20
-96.32
11
118.18
21
-96.93
0
LINE
8
Black
10
117.68
20
-96.93
11
117.32
21
-96.93
0
LINE
8
Black
10
117.32
20
-96.93
11
117.32
21
-96.32
0
LINE
8
Black
10
117.32
20
-96.32
11
117.68
21
-96.32
0
LINE
8
Black
10
117.68
20
-96.32
11
117.68
21
-96.93
0
LINE
8
Black
10
117.18
20
-96.93
11
116.82
21
-96.93
0
LINE
8
Black
10
116.82
20
-96.93
11
116.82
21
-96.32
0
LINE
8
Black
10
116.82
20
-96.32
11
117.18
21
-96.32
0
LINE
8
Black
10
117.18
20
-96.32
11
117.18
21
-96.93
0
LINE
8
Black
10
114.68
20
-96.93
11
114.32
21
-96.93
0
LINE
8
Black
10
114.32
20
-96.93
11
114.32
21
-96.32
0
LINE
8
Black
10
114.32
20
-96.32
11
114.68
21
-96.32
0
LINE
8
Black
10
114.68
20
-96.32
11
114.68
21
-96.93
0
LINE
8
Black
10
116.68
20
-96.93
11
116.32
21
-96.93
0
LINE
8
Black
10
116.32
20
-96.93
11
116.32
21
-96.32
0
LINE
8
Black
10
116.32
20
-96.32
11
116.68
21
-96.32
0
LINE
8
Black
10
116.68
20
-96.32
11
116.68
21
-96.93
0
LINE
8
Black
10
116.18
20
-96.93
11
115.82
21
-96.93
0
LINE
8
Black
10
115.82
20
-96.93
11
115.82
21
-96.32
0
LINE
8
Black
10
115.82
20
-96.32
11
116.18
21
-96.32
0
LINE
8
Black
10
116.18
20
-96.32
11
116.18
21
-96.93
0
LINE
8
Black
10
115.68
20
-96.93
11
115.32
21
-96.93
0
LINE
8
Black
10
115.32
20
-96.93
11
115.32
21
-96.32
0
LINE
8
Black
10
115.32
20
-96.32
11
115.68
21
-96.32
0
LINE
8
Black
10
115.68
20
-96.32
11
115.68
21
-96.93
0
LINE
8
Black
10
106.85
20
-96.3
11
105.85
21
-96.3
0
LINE
8
Black
10
105.85
20
-96.3
11
105.85
21
-95.7
0
LINE
8
Black
10
105.85
20
-95.7
11
106.85
21
-95.7
0
LINE
8
Black
10
106.85
20
-95.7
11
106.85
21
-96.3
0
LINE
8
Black
10
117.81
20
-95.86
11
117.19
21
-95.86
0
LINE
8
Black
10
117.19
20
-95.86
11
117.19
21
-95.24
0
LINE
8
Black
10
117.19
20
-95.24
11
117.81
21
-95.24
0
LINE
8
Black
10
117.81
20
-95.24
11
117.81
21
-95.86
0
LINE
8
Black
10
115.51
20
-95.81
11
114.89
21
-95.81
0
LINE
8
Black
10
114.89
20
-95.81
11
114.89
21
-95.19
0
LINE
8
Black
10
114.89
20
-95.19
11
115.51
21
-95.19
0
LINE
8
Black
10
115.51
20
-95.19
11
115.51
21
-95.81
0
LINE
8
Black
10
114.61
20
-95.81
11
113.99
21
-95.81
0
LINE
8
Black
10
113.99
20
-95.81
11
113.99
21
-95.19
0
LINE
8
Black
10
113.99
20
-95.19
11
114.61
21
-95.19
0
LINE
8
Black
10
114.61
20
-95.19
11
114.61
21
-95.81
0
LINE
8
Black
10
110.75
20
-95.425
11
109.75
21
-95.425
0
LINE
8
Black
10
109.75
20
-95.425
11
109.75
21
-94.475
0
LINE
8
Black
10
109.75
20
-94.475
11
110.75
21
-94.475
0
LINE
8
Black
10
110.75
20
-94.475
11
110.75
21
-95.425
0
LINE
8
Black
10
109.15
20
-95.35
11
108.15
21
-95.35
0
LINE
8
Black
10
108.15
20
-95.35
11
108.15
21
-94.75
0
LINE
8
Black
10
108.15
20
-94.75
11
109.15
21
-94.75
0
LINE
8
Black
10
109.15
20
-94.75
11
109.15
21
-95.35
0
LINE
8
Black
10
117.81
20
-94.96
11
117.19
21
-94.96
0
LINE
8
Black
10
117.19
20
-94.96
11
117.19
21
-94.34
0
LINE
8
Black
10
117.19
20
-94.34
11
117.81
21
-94.34
0
LINE
8
Black
10
117.81
20
-94.34
11
117.81
21
-94.96
0
LINE
8
Black
10
114.425
20
-94.8
11
113.475
21
-94.8
0
LINE
8
Black
10
113.475
20
-94.8
11
113.475
21
-93.8
0
LINE
8
Black
10
113.475
20
-93.8
11
114.425
21
-93.8
0
LINE
8
Black
10
114.425
20
-93.8
11
114.425
21
-94.8
0
LINE
8
Black
10
116.025
20
-94.8
11
115.075
21
-94.8
0
LINE
8
Black
10
115.075
20
-94.8
11
115.075
21
-93.8
0
LINE
8
Black
10
115.075
20
-93.8
11
116.025
21
-93.8
0
LINE
8
Black
10
116.025
20
-93.8
11
116.025
21
-94.8
0
LINE
8
Black
10
131.86
20
-94.31
11
131.24
21
-94.31
0
LINE
8
Black
10
131.24
20
-94.31
11
131.24
21
-93.69
0
LINE
8
Black
10
131.24
20
-93.69
11
131.86
21
-93.69
0
LINE
8
Black
10
131.86
20
-93.69
11
131.86
21
-94.31
0
LINE
8
Black
10
132.76
20
-94.31
11
132.14
21
-94.31
0
LINE
8
Black
10
132.14
20
-94.31
11
132.14
21
-93.69
0
LINE
8
Black
10
132.14
20
-93.69
11
132.76
21
-93.69
0
LINE
8
Black
10
132.76
20
-93.69
11
132.76
21
-94.31
0
LINE
8
Black
10
129.86
20
-94.31
11
129.24
21
-94.31
0
LINE
8
Black
10
129.24
20
-94.31
11
129.24
21
-93.69
0
LINE
8
Black
10
129.24
20
-93.69
11
129.86
21
-93.69
0
LINE
8
Black
10
129.86
20
-93.69
11
129.86
21
-94.31
0
LINE
8
Black
10
130.76
20
-94.31
11
130.14
21
-94.31
0
LINE
8
Black
10
130.14
20
-94.31
11
130.14
21
-93.69
0
LINE
8
Black
10
130.14
20
-93.69
11
130.76
21
-93.69
0
LINE
8
Black
10
130.76
20
-93.69
11
130.76
21
-94.31
  0
ENDSEC
  0
EOF
