M48
;DRILL file {KiCad 0.201512311516+6410~40~ubuntu14.04.1-stable} date Sun 03 Jan 2016 05:13:40 GMT
;FORMAT={-:-/ absolute / inch / decimal}
FMAT,2
INCH,TZ
T1C0.016
T2C0.024
T3C0.026
T4C0.059
T5C0.035
T6C0.039
T7C0.075
%
G90
G05
M72
T1
X4.3937Y-3.3898
X4.3937Y-3.4173
X4.3937Y-3.4449
X4.3937Y-3.9803
X4.3937Y-4.0079
X4.3937Y-4.0354
X4.3937Y-4.5709
X4.3937Y-4.5984
X4.3937Y-4.626
X4.4134Y-3.4724
X4.4134Y-4.063
X4.4134Y-4.6535
X4.4173Y-3.5276
X4.4173Y-3.563
X4.4173Y-4.1181
X4.4173Y-4.1535
X4.4173Y-4.7087
X4.4173Y-4.7441
X4.4603Y-3.2712
X4.4603Y-3.8617
X4.4603Y-4.4523
X4.4722Y-3.5868
X4.4722Y-4.1774
X4.4722Y-4.7679
X4.5315Y-3.2953
X4.5315Y-3.8858
X4.5315Y-4.4764
X4.5323Y-3.5029
X4.5323Y-3.5529
X4.5323Y-4.0934
X4.5323Y-4.1434
X4.5323Y-4.684
X4.5323Y-4.734
X4.5709Y-3.5551
X4.5709Y-4.1457
X4.5709Y-4.7362
X4.6102Y-3.2283
X4.6102Y-3.8189
X4.6102Y-4.4094
X4.6127Y-3.5885
X4.6127Y-4.179
X4.6127Y-4.7696
X4.626Y-3.437
X4.626Y-4.0276
X4.626Y-4.6181
X4.6417Y-3.315
X4.6417Y-3.9055
X4.6417Y-4.4961
X4.6425Y-3.4889
X4.6425Y-4.0795
X4.6425Y-4.67
X4.6614Y-3.372
X4.6614Y-3.9626
X4.6614Y-4.5531
X4.6695Y-3.3416
X4.6695Y-3.9322
X4.6695Y-4.5227
X4.689Y-3.5906
X4.689Y-4.1811
X4.689Y-4.7717
X4.7539Y-3.2677
X4.7539Y-3.3661
X4.7539Y-3.4646
X4.7539Y-3.8583
X4.7539Y-3.9567
X4.7539Y-4.0551
X4.7539Y-4.4488
X4.7539Y-4.5472
X4.7539Y-4.6457
X4.811Y-3.1734
X4.811Y-3.7639
X4.811Y-4.3545
X4.8524Y-3.2677
X4.8524Y-3.3661
X4.8524Y-3.4646
X4.8524Y-3.8583
X4.8524Y-3.9567
X4.8524Y-4.0551
X4.8524Y-4.4488
X4.8524Y-4.5472
X4.8524Y-4.6457
X4.8898Y-3.1575
X4.8898Y-3.748
X4.8898Y-4.3386
X4.8957Y-3.5315
X4.8957Y-4.122
X4.8957Y-4.7126
X4.9508Y-3.2677
X4.9508Y-3.3661
X4.9508Y-3.4646
X4.9508Y-3.8583
X4.9508Y-3.9567
X4.9508Y-4.0551
X4.9508Y-4.4488
X4.9508Y-4.5472
X4.9508Y-4.6457
X5.0051Y-3.6075
X5.0051Y-4.198
X5.0051Y-4.7886
X5.0059Y-3.4974
X5.0059Y-4.0879
X5.0059Y-4.6785
X5.0236Y-3.3606
X5.0236Y-3.9512
X5.0236Y-4.5417
X5.0315Y-3.1079
X5.0315Y-3.6984
X5.0315Y-4.289
X5.0472Y-3.2598
X5.0472Y-3.8504
X5.0472Y-4.4409
X5.1222Y-3.3174
X5.1222Y-3.908
X5.1222Y-4.4985
X5.1417Y-3.4921
X5.1417Y-4.0827
X5.1417Y-4.6732
X5.1436Y-3.3406
X5.1436Y-3.9311
X5.1436Y-4.5217
X5.1437Y-3.2569
X5.1437Y-3.8474
X5.1437Y-4.438
X5.1452Y-3.2918
X5.1452Y-3.8824
X5.1452Y-4.4729
X5.2088Y-3.6065
X5.2088Y-4.197
X5.2088Y-4.7876
X5.213Y-3.4402
X5.213Y-4.0307
X5.213Y-4.6213
X5.2425Y-3.1434
X5.2425Y-3.7339
X5.2425Y-4.3245
X5.3031Y-3.3661
X5.3031Y-3.4646
X5.3031Y-3.9567
X5.3031Y-4.0551
X5.3031Y-4.5472
X5.3031Y-4.6457
X5.3071Y-3.1142
X5.3071Y-3.7047
X5.3071Y-4.2953
X5.4449Y-3.3425
X5.4449Y-3.9331
X5.4449Y-4.5236
X5.4488Y-3.2638
X5.4488Y-3.8543
X5.4488Y-4.4449
X5.5Y-3.1299
X5.5Y-3.7205
X5.5Y-4.311
T2
X4.5866Y-3.6614
X4.5866Y-4.252
X4.626Y-3.6614
X4.626Y-4.252
X5.1181Y-3.6614
X5.1181Y-4.252
X5.1575Y-3.6614
X5.1575Y-4.252
T3
X4.3504Y-3.2785
X4.3504Y-3.4537
X4.3504Y-3.8691
X4.3504Y-4.0443
X4.3504Y-4.4596
X4.3504Y-4.6348
T4
X4.2252Y-3.2043
X4.2252Y-3.528
X4.2252Y-3.7949
X4.2252Y-4.1185
X4.2252Y-4.3854
X4.2252Y-4.7091
T5
X5.2756Y-3.1614
X5.2756Y-3.752
X5.2756Y-4.3425
T6
X4.4338Y-3.6138
X4.4338Y-4.2043
X4.4338Y-4.7949
X4.4738Y-3.4138
X4.4738Y-4.0043
X4.4738Y-4.5949
X4.5138Y-3.6138
X4.5138Y-4.2043
X4.5138Y-4.7949
T7
X5.2756Y-3.5709
X5.2756Y-4.1614
X5.2756Y-4.752
T0
M30
