G04 #@! TF.FileFunction,Soldermask,Bot*
%FSLAX46Y46*%
G04 Gerber Fmt 4.6, Leading zero omitted, Abs format (unit mm)*
G04 Created by KiCad (PCBNEW 0.201512311516+6410~40~ubuntu14.04.1-stable) date Sun 03 Jan 2016 08:23:42 GMT*
%MOMM*%
G01*
G04 APERTURE LIST*
%ADD10C,0.100000*%
%ADD11C,1.000000*%
%ADD12O,1.250000X1.000000*%
%ADD13O,1.900000X1.000000*%
%ADD14R,3.800000X1.800000*%
%ADD15C,0.900000*%
%ADD16O,0.900000X1.900000*%
%ADD17R,3.000000X1.000000*%
G04 APERTURE END LIST*
D10*
D11*
X107635000Y-101210000D03*
X106619000Y-106290000D03*
X108651000Y-106290000D03*
X107635000Y-117210000D03*
X106619000Y-122290000D03*
X108651000Y-122290000D03*
X107635000Y-133210000D03*
X106619000Y-138290000D03*
X108651000Y-138290000D03*
D12*
X104450000Y-102215000D03*
X104450000Y-97765000D03*
D13*
X101450000Y-104165000D03*
X101450000Y-95815000D03*
D12*
X104450000Y-118215000D03*
X104450000Y-113765000D03*
D13*
X101450000Y-120165000D03*
X101450000Y-111815000D03*
D12*
X104450000Y-134215000D03*
X104450000Y-129765000D03*
D13*
X101450000Y-136165000D03*
X101450000Y-127815000D03*
D14*
X131250000Y-94650000D03*
X131250000Y-105350000D03*
D15*
X128000000Y-94800000D03*
D16*
X128000000Y-105200000D03*
D17*
X126650000Y-97000000D03*
X126650000Y-99000000D03*
X126650000Y-101000000D03*
X126650000Y-103000000D03*
D14*
X131250000Y-110650000D03*
X131250000Y-121350000D03*
D15*
X128000000Y-110800000D03*
D16*
X128000000Y-121200000D03*
D17*
X126650000Y-113000000D03*
X126650000Y-115000000D03*
X126650000Y-117000000D03*
X126650000Y-119000000D03*
D14*
X131250000Y-126650000D03*
X131250000Y-137350000D03*
D15*
X128000000Y-126800000D03*
D16*
X128000000Y-137200000D03*
D17*
X126650000Y-129000000D03*
X126650000Y-131000000D03*
X126650000Y-133000000D03*
X126650000Y-135000000D03*
M02*
