G04 #@! TF.FileFunction,Profile,NP*
%FSLAX46Y46*%
G04 Gerber Fmt 4.6, Leading zero omitted, Abs format (unit mm)*
G04 Created by KiCad (PCBNEW 0.201512311516+6410~40~ubuntu14.04.1-stable) date Sun 03 Jan 2016 08:23:42 GMT*
%MOMM*%
G01*
G04 APERTURE LIST*
%ADD10C,0.100000*%
%ADD11C,0.150000*%
G04 APERTURE END LIST*
D10*
D11*
X123000000Y-125000000D02*
X123000000Y-123000000D01*
X112000000Y-125000000D02*
X123000000Y-125000000D01*
X112000000Y-123000000D02*
X112000000Y-125000000D01*
X123000000Y-123000000D02*
X112000000Y-123000000D01*
X124000000Y-125000000D02*
X136000000Y-125000000D01*
X124000000Y-123000000D02*
X124000000Y-125000000D01*
X136000000Y-123000000D02*
X124000000Y-123000000D01*
X124000000Y-109000000D02*
X136000000Y-109000000D01*
X124000000Y-107000000D02*
X124000000Y-109000000D01*
X136000000Y-107000000D02*
X124000000Y-107000000D01*
X112000000Y-109000000D02*
X112000000Y-107000000D01*
X123000000Y-109000000D02*
X112000000Y-109000000D01*
X123000000Y-107000000D02*
X123000000Y-109000000D01*
X112000000Y-107000000D02*
X123000000Y-107000000D01*
X111000000Y-125000000D02*
X101000000Y-125000000D01*
X111000000Y-123000000D02*
X111000000Y-125000000D01*
X101000000Y-123000000D02*
X111000000Y-123000000D01*
X111000000Y-109000000D02*
X101000000Y-109000000D01*
X111000000Y-107000000D02*
X111000000Y-109000000D01*
X101000000Y-107000000D02*
X111000000Y-107000000D01*
X101000000Y-93000000D02*
G75*
G03X100000000Y-94000000I0J-1000000D01*
G01*
X101000000Y-109000000D02*
G75*
G03X100000000Y-110000000I0J-1000000D01*
G01*
X101000000Y-125000000D02*
G75*
G03X100000000Y-126000000I0J-1000000D01*
G01*
X100000000Y-106000000D02*
G75*
G03X101000000Y-107000000I1000000J0D01*
G01*
X100000000Y-122000000D02*
G75*
G03X101000000Y-123000000I1000000J0D01*
G01*
X100000000Y-138000000D02*
G75*
G03X101000000Y-139000000I1000000J0D01*
G01*
X136000000Y-107000000D02*
G75*
G03X137000000Y-106000000I0J1000000D01*
G01*
X136000000Y-123000000D02*
G75*
G03X137000000Y-122000000I0J1000000D01*
G01*
X136000000Y-139000000D02*
G75*
G03X137000000Y-138000000I0J1000000D01*
G01*
X137000000Y-94000000D02*
G75*
G03X136000000Y-93000000I-1000000J0D01*
G01*
X137000000Y-110000000D02*
G75*
G03X136000000Y-109000000I-1000000J0D01*
G01*
X137000000Y-126000000D02*
G75*
G03X136000000Y-125000000I-1000000J0D01*
G01*
X100000000Y-106000000D02*
X100000000Y-94000000D01*
X100000000Y-122000000D02*
X100000000Y-110000000D01*
X100000000Y-138000000D02*
X100000000Y-126000000D01*
X136000000Y-139000000D02*
X101000000Y-139000000D01*
X137000000Y-94000000D02*
X137000000Y-106000000D01*
X137000000Y-110000000D02*
X137000000Y-122000000D01*
X137000000Y-126000000D02*
X137000000Y-138000000D01*
X101000000Y-93000000D02*
X136000000Y-93000000D01*
M02*
