G04 #@! TF.FileFunction,Copper,L2,Bot,Signal*
%FSLAX46Y46*%
G04 Gerber Fmt 4.6, Leading zero omitted, Abs format (unit mm)*
G04 Created by KiCad (PCBNEW 0.201512311516+6410~40~ubuntu14.04.1-stable) date Sun 03 Jan 2016 08:23:42 GMT*
%MOMM*%
G01*
G04 APERTURE LIST*
%ADD10C,0.100000*%
%ADD11O,1.250000X1.000000*%
%ADD12O,1.900000X1.000000*%
%ADD13R,3.800000X1.800000*%
%ADD14R,3.000000X1.000000*%
%ADD15C,0.600000*%
%ADD16C,0.300000*%
%ADD17C,0.200000*%
G04 APERTURE END LIST*
D10*
D11*
X104450000Y-102215000D03*
X104450000Y-97765000D03*
D12*
X101450000Y-104165000D03*
X101450000Y-95815000D03*
D11*
X104450000Y-118215000D03*
X104450000Y-113765000D03*
D12*
X101450000Y-120165000D03*
X101450000Y-111815000D03*
D11*
X104450000Y-134215000D03*
X104450000Y-129765000D03*
D12*
X101450000Y-136165000D03*
X101450000Y-127815000D03*
D13*
X131250000Y-94650000D03*
X131250000Y-105350000D03*
D14*
X126650000Y-97000000D03*
X126650000Y-99000000D03*
X126650000Y-101000000D03*
X126650000Y-103000000D03*
D13*
X131250000Y-110650000D03*
X131250000Y-121350000D03*
D14*
X126650000Y-113000000D03*
X126650000Y-115000000D03*
X126650000Y-117000000D03*
X126650000Y-119000000D03*
D13*
X131250000Y-126650000D03*
X131250000Y-137350000D03*
D14*
X126650000Y-129000000D03*
X126650000Y-131000000D03*
X126650000Y-133000000D03*
X126650000Y-135000000D03*
D15*
X119750000Y-102500000D03*
X119750000Y-100000000D03*
X119750000Y-97500000D03*
X117250000Y-102500000D03*
X117250000Y-100000000D03*
X117250000Y-97500000D03*
X114750000Y-102500000D03*
X114750000Y-100000000D03*
X114750000Y-97500000D03*
X119750000Y-118500000D03*
X119750000Y-116000000D03*
X119750000Y-113500000D03*
X117250000Y-118500000D03*
X117250000Y-116000000D03*
X117250000Y-113500000D03*
X114750000Y-118500000D03*
X114750000Y-116000000D03*
X114750000Y-113500000D03*
X119750000Y-134500000D03*
X119750000Y-132000000D03*
X119750000Y-129500000D03*
X117250000Y-134500000D03*
X117250000Y-132000000D03*
X117250000Y-129500000D03*
X114750000Y-134500000D03*
X114750000Y-132000000D03*
X114750000Y-129500000D03*
X124688224Y-98111776D03*
X124688224Y-114111776D03*
X124688224Y-130111776D03*
X122200000Y-97300000D03*
X122200000Y-113300000D03*
X122200000Y-129300000D03*
X121800000Y-93439989D03*
X121800000Y-109439989D03*
X121800000Y-125439989D03*
X107291735Y-97587978D03*
X107291735Y-113587978D03*
X107291735Y-129587978D03*
X110100000Y-104800000D03*
X110100000Y-120800000D03*
X110100000Y-136800000D03*
X109119645Y-103473504D03*
X109119645Y-119473504D03*
X109119645Y-135473504D03*
X106100000Y-102700000D03*
X106100000Y-118700000D03*
X106100000Y-134700000D03*
X105549045Y-101988601D03*
X105549045Y-117988601D03*
X105549045Y-133988601D03*
X105500000Y-100600000D03*
X105500000Y-116600000D03*
X105500000Y-132600000D03*
X105500000Y-101300000D03*
X105500000Y-117300000D03*
X105500000Y-133300000D03*
X132300000Y-99400000D03*
X132300000Y-115400000D03*
X132300000Y-131400000D03*
X107594458Y-105604798D03*
X107594458Y-121604798D03*
X107594458Y-137604798D03*
X124104985Y-98762235D03*
X124104985Y-114762235D03*
X124104985Y-130762235D03*
X128800000Y-93600000D03*
X128800000Y-109600000D03*
X128800000Y-125600000D03*
X128700000Y-102500000D03*
X128700000Y-118500000D03*
X128700000Y-134500000D03*
X128700000Y-100000000D03*
X128700000Y-116000000D03*
X128700000Y-132000000D03*
X124600000Y-103200000D03*
X124600000Y-119200000D03*
X124600000Y-135200000D03*
X116199990Y-95103484D03*
X116199990Y-111103484D03*
X116199990Y-127103484D03*
X118350000Y-104200000D03*
X118350000Y-120200000D03*
X118350000Y-136200000D03*
X118200000Y-94700000D03*
X118200000Y-110700000D03*
X118200000Y-126700000D03*
X109100000Y-98200000D03*
X109100000Y-114200000D03*
X109100000Y-130200000D03*
X111100000Y-96500000D03*
X111100000Y-112500000D03*
X111100000Y-128500000D03*
X111918272Y-103118272D03*
X111918272Y-119118272D03*
X111918272Y-135118272D03*
X106200000Y-105000000D03*
X106200000Y-121000000D03*
X106200000Y-137000000D03*
X121600000Y-99860002D03*
X121600000Y-115860002D03*
X121600000Y-131860002D03*
X109119645Y-104743505D03*
X109119645Y-120743505D03*
X109119645Y-136743505D03*
X121149993Y-103333019D03*
X121149993Y-119333019D03*
X121149993Y-135333019D03*
X106200000Y-104100000D03*
X106200000Y-120100000D03*
X106200000Y-136100000D03*
X127158519Y-94341481D03*
X127158519Y-110341481D03*
X127158519Y-126341481D03*
X124649998Y-97225009D03*
X124649998Y-113225009D03*
X124649998Y-129225009D03*
X111900000Y-98700000D03*
X111900000Y-114700000D03*
X111900000Y-130700000D03*
X111500000Y-101800000D03*
X111500000Y-117800000D03*
X111500000Y-133800000D03*
X124646792Y-99350833D03*
X124646792Y-115350833D03*
X124646792Y-131350833D03*
X126304272Y-106104272D03*
X126304272Y-122104272D03*
X126304272Y-138104272D03*
X121130325Y-106130325D03*
X121130325Y-122130325D03*
X121130325Y-138130325D03*
X111161921Y-105647295D03*
X111161921Y-121647295D03*
X111161921Y-137647295D03*
X112606133Y-99377001D03*
X112606133Y-115377001D03*
X112606133Y-131377001D03*
X126410002Y-101880967D03*
X126410002Y-117880967D03*
X126410002Y-133880967D03*
X113100000Y-105700000D03*
X113100000Y-121700000D03*
X113100000Y-137700000D03*
X112400000Y-100149990D03*
X112400000Y-116149990D03*
X112400000Y-132149990D03*
X132400000Y-97400000D03*
X132400000Y-113400000D03*
X132400000Y-129400000D03*
X133700000Y-94000000D03*
X133700000Y-110000000D03*
X133700000Y-126000000D03*
D16*
X125800000Y-97000000D02*
X124688224Y-98111776D01*
X125800000Y-113000000D02*
X124688224Y-114111776D01*
X125800000Y-129000000D02*
X124688224Y-130111776D01*
X121800000Y-93439989D02*
X121800000Y-96900000D01*
X121800000Y-109439989D02*
X121800000Y-112900000D01*
X121800000Y-125439989D02*
X121800000Y-128900000D01*
X121800000Y-96900000D02*
X122200000Y-97300000D01*
X121800000Y-112900000D02*
X122200000Y-113300000D01*
X121800000Y-128900000D02*
X122200000Y-129300000D01*
X126650000Y-97000000D02*
X125800000Y-97000000D01*
X126650000Y-113000000D02*
X125800000Y-113000000D01*
X126650000Y-129000000D02*
X125800000Y-129000000D01*
X109119645Y-103819645D02*
X110100000Y-104800000D01*
X109119645Y-119819645D02*
X110100000Y-120800000D01*
X109119645Y-135819645D02*
X110100000Y-136800000D01*
X109119645Y-103473504D02*
X109119645Y-103819645D01*
X109119645Y-119473504D02*
X109119645Y-119819645D01*
X109119645Y-135473504D02*
X109119645Y-135819645D01*
X108346141Y-102700000D02*
X106800000Y-102700000D01*
X108346141Y-118700000D02*
X106800000Y-118700000D01*
X108346141Y-134700000D02*
X106800000Y-134700000D01*
X106800000Y-102700000D02*
X106100000Y-102700000D01*
X106800000Y-118700000D02*
X106100000Y-118700000D01*
X106800000Y-134700000D02*
X106100000Y-134700000D01*
X106784999Y-102684999D02*
X106800000Y-102700000D01*
X106784999Y-118684999D02*
X106800000Y-118700000D01*
X106784999Y-134684999D02*
X106800000Y-134700000D01*
X107291735Y-97587978D02*
X106784999Y-98094714D01*
X107291735Y-113587978D02*
X106784999Y-114094714D01*
X107291735Y-129587978D02*
X106784999Y-130094714D01*
X106784999Y-98094714D02*
X106784999Y-102684999D01*
X106784999Y-114094714D02*
X106784999Y-118684999D01*
X106784999Y-130094714D02*
X106784999Y-134684999D01*
X109119645Y-103473504D02*
X108346141Y-102700000D01*
X109119645Y-119473504D02*
X108346141Y-118700000D01*
X109119645Y-135473504D02*
X108346141Y-134700000D01*
X126650000Y-103000000D02*
X127650000Y-103000000D01*
X126650000Y-119000000D02*
X127650000Y-119000000D01*
X126650000Y-135000000D02*
X127650000Y-135000000D01*
D17*
X121600000Y-99860002D02*
X121600000Y-102883012D01*
X121600000Y-115860002D02*
X121600000Y-118883012D01*
X121600000Y-131860002D02*
X121600000Y-134883012D01*
X121600000Y-102883012D02*
X121149993Y-103333019D01*
X121600000Y-118883012D02*
X121149993Y-119333019D01*
X121600000Y-134883012D02*
X121149993Y-135333019D01*
X108761140Y-104385000D02*
X109119645Y-104743505D01*
X108761140Y-120385000D02*
X109119645Y-120743505D01*
X108761140Y-136385000D02*
X109119645Y-136743505D01*
X107641415Y-104385000D02*
X108761140Y-104385000D01*
X107641415Y-120385000D02*
X108761140Y-120385000D01*
X107641415Y-136385000D02*
X108761140Y-136385000D01*
X106485000Y-104385000D02*
X106200000Y-104100000D01*
X106485000Y-120385000D02*
X106200000Y-120100000D01*
X106485000Y-136385000D02*
X106200000Y-136100000D01*
X107641415Y-104385000D02*
X106485000Y-104385000D01*
X107641415Y-120385000D02*
X106485000Y-120385000D01*
X107641415Y-136385000D02*
X106485000Y-136385000D01*
X127158519Y-94341481D02*
X125400000Y-96100000D01*
X127158519Y-110341481D02*
X125400000Y-112100000D01*
X127158519Y-126341481D02*
X125400000Y-128100000D01*
X125400000Y-96100000D02*
X125009998Y-96100000D01*
X125400000Y-112100000D02*
X125009998Y-112100000D01*
X125400000Y-128100000D02*
X125009998Y-128100000D01*
X124800000Y-96309998D02*
X124800000Y-97075007D01*
X124800000Y-112309998D02*
X124800000Y-113075007D01*
X124800000Y-128309998D02*
X124800000Y-129075007D01*
X124800000Y-97075007D02*
X124649998Y-97225009D01*
X124800000Y-113075007D02*
X124649998Y-113225009D01*
X124800000Y-129075007D02*
X124649998Y-129225009D01*
X125009998Y-96100000D02*
X124800000Y-96309998D01*
X125009998Y-112100000D02*
X124800000Y-112309998D01*
X125009998Y-128100000D02*
X124800000Y-128309998D01*
X111100000Y-99000000D02*
X111400000Y-98700000D01*
X111100000Y-115000000D02*
X111400000Y-114700000D01*
X111100000Y-131000000D02*
X111400000Y-130700000D01*
X111400000Y-98700000D02*
X111900000Y-98700000D01*
X111400000Y-114700000D02*
X111900000Y-114700000D01*
X111400000Y-130700000D02*
X111900000Y-130700000D01*
X111100000Y-99200000D02*
X111100000Y-99000000D01*
X111100000Y-115200000D02*
X111100000Y-115000000D01*
X111100000Y-131200000D02*
X111100000Y-131000000D01*
X111500000Y-101800000D02*
X111100000Y-101400000D01*
X111500000Y-117800000D02*
X111100000Y-117400000D01*
X111500000Y-133800000D02*
X111100000Y-133400000D01*
X111100000Y-101400000D02*
X111100000Y-99200000D01*
X111100000Y-117400000D02*
X111100000Y-115200000D01*
X111100000Y-133400000D02*
X111100000Y-131200000D01*
X126650000Y-99000000D02*
X124950000Y-99000000D01*
X126650000Y-115000000D02*
X124950000Y-115000000D01*
X126650000Y-131000000D02*
X124950000Y-131000000D01*
X124950000Y-99000000D02*
X124646792Y-99303208D01*
X124950000Y-115000000D02*
X124646792Y-115303208D01*
X124950000Y-131000000D02*
X124646792Y-131303208D01*
X124646792Y-99303208D02*
X124646792Y-99350833D01*
X124646792Y-115303208D02*
X124646792Y-115350833D01*
X124646792Y-131303208D02*
X124646792Y-131350833D01*
X126650000Y-99000000D02*
X125650000Y-99000000D01*
X126650000Y-115000000D02*
X125650000Y-115000000D01*
X126650000Y-131000000D02*
X125650000Y-131000000D01*
X121500000Y-106500000D02*
X125908544Y-106500000D01*
X121500000Y-122500000D02*
X125908544Y-122500000D01*
X121500000Y-138500000D02*
X125908544Y-138500000D01*
X125908544Y-106500000D02*
X126304272Y-106104272D01*
X125908544Y-122500000D02*
X126304272Y-122104272D01*
X125908544Y-138500000D02*
X126304272Y-138104272D01*
X121130325Y-106130325D02*
X121500000Y-106500000D01*
X121130325Y-122130325D02*
X121500000Y-122500000D01*
X121130325Y-138130325D02*
X121500000Y-138500000D01*
X112199999Y-105355527D02*
X111453689Y-105355527D01*
X112199999Y-121355527D02*
X111453689Y-121355527D01*
X112199999Y-137355527D02*
X111453689Y-137355527D01*
X111453689Y-105355527D02*
X111161921Y-105647295D01*
X111453689Y-121355527D02*
X111161921Y-121647295D01*
X111453689Y-137355527D02*
X111161921Y-137647295D01*
X112600000Y-101339952D02*
X112600000Y-104955526D01*
X112600000Y-117339952D02*
X112600000Y-120955526D01*
X112600000Y-133339952D02*
X112600000Y-136955526D01*
X112600000Y-104955526D02*
X112199999Y-105355527D01*
X112600000Y-120955526D02*
X112199999Y-121355527D01*
X112600000Y-136955526D02*
X112199999Y-137355527D01*
X112234312Y-100974264D02*
X112600000Y-101339952D01*
X112234312Y-116974264D02*
X112600000Y-117339952D01*
X112234312Y-132974264D02*
X112600000Y-133339952D01*
X112606133Y-99377001D02*
X112181869Y-99377001D01*
X112606133Y-115377001D02*
X112181869Y-115377001D01*
X112606133Y-131377001D02*
X112181869Y-131377001D01*
X111799999Y-99758871D02*
X111799999Y-100539951D01*
X111799999Y-115758871D02*
X111799999Y-116539951D01*
X111799999Y-131758871D02*
X111799999Y-132539951D01*
X112181869Y-99377001D02*
X111799999Y-99758871D01*
X112181869Y-115377001D02*
X111799999Y-115758871D01*
X112181869Y-131377001D02*
X111799999Y-131758871D01*
X111799999Y-100539951D02*
X112234312Y-100974264D01*
X111799999Y-116539951D02*
X112234312Y-116974264D01*
X111799999Y-132539951D02*
X112234312Y-132974264D01*
X126650000Y-101000000D02*
X126650000Y-101640969D01*
X126650000Y-117000000D02*
X126650000Y-117640969D01*
X126650000Y-133000000D02*
X126650000Y-133640969D01*
X126650000Y-101640969D02*
X126410002Y-101880967D01*
X126650000Y-117640969D02*
X126410002Y-117880967D01*
X126650000Y-133640969D02*
X126410002Y-133880967D01*
X113100000Y-104900000D02*
X113100000Y-105700000D01*
X113100000Y-120900000D02*
X113100000Y-121700000D01*
X113100000Y-136900000D02*
X113100000Y-137700000D01*
X113100000Y-100849990D02*
X113100000Y-104900000D01*
X113100000Y-116849990D02*
X113100000Y-120900000D01*
X113100000Y-132849990D02*
X113100000Y-136900000D01*
X112400000Y-100149990D02*
X113100000Y-100849990D01*
X112400000Y-116149990D02*
X113100000Y-116849990D01*
X112400000Y-132149990D02*
X113100000Y-132849990D01*
X132700000Y-95900000D02*
X132400000Y-96200000D01*
X132700000Y-111900000D02*
X132400000Y-112200000D01*
X132700000Y-127900000D02*
X132400000Y-128200000D01*
X132400000Y-96200000D02*
X132400000Y-97400000D01*
X132400000Y-112200000D02*
X132400000Y-113400000D01*
X132400000Y-128200000D02*
X132400000Y-129400000D01*
X133340002Y-95900000D02*
X132700000Y-95900000D01*
X133340002Y-111900000D02*
X132700000Y-111900000D01*
X133340002Y-127900000D02*
X132700000Y-127900000D01*
X133500000Y-94624264D02*
X133500000Y-95740002D01*
X133500000Y-110624264D02*
X133500000Y-111740002D01*
X133500000Y-126624264D02*
X133500000Y-127740002D01*
X133500000Y-95740002D02*
X133340002Y-95900000D01*
X133500000Y-111740002D02*
X133340002Y-111900000D01*
X133500000Y-127740002D02*
X133340002Y-127900000D01*
X133700000Y-94000000D02*
X133700000Y-94424264D01*
X133700000Y-110000000D02*
X133700000Y-110424264D01*
X133700000Y-126000000D02*
X133700000Y-126424264D01*
X133700000Y-94424264D02*
X133500000Y-94624264D01*
X133700000Y-110424264D02*
X133500000Y-110624264D01*
X133700000Y-126424264D02*
X133500000Y-126624264D01*
G36*
X121149888Y-93568715D02*
X121248636Y-93807703D01*
X121300000Y-93859157D01*
X121300000Y-96900000D01*
X121326122Y-97031324D01*
X121338060Y-97091342D01*
X121446447Y-97253553D01*
X121549950Y-97357057D01*
X121549888Y-97428726D01*
X121648636Y-97667714D01*
X121831324Y-97850722D01*
X122070140Y-97949887D01*
X122328726Y-97950112D01*
X122567714Y-97851364D01*
X122750722Y-97668676D01*
X122849887Y-97429860D01*
X122850112Y-97171274D01*
X122751364Y-96932286D01*
X122568676Y-96749278D01*
X122329860Y-96650113D01*
X122300000Y-96650087D01*
X122300000Y-93859298D01*
X122350722Y-93808665D01*
X122449887Y-93569849D01*
X122450013Y-93425000D01*
X129208719Y-93425000D01*
X129101175Y-93494203D01*
X129021259Y-93611163D01*
X128993144Y-93750000D01*
X128993144Y-95550000D01*
X129017549Y-95679702D01*
X129094203Y-95798825D01*
X129211163Y-95878741D01*
X129350000Y-95906856D01*
X132065061Y-95906856D01*
X131984254Y-96027792D01*
X131950000Y-96200000D01*
X131950000Y-96930778D01*
X131849278Y-97031324D01*
X131750113Y-97270140D01*
X131749888Y-97528726D01*
X131848636Y-97767714D01*
X132031324Y-97950722D01*
X132270140Y-98049887D01*
X132528726Y-98050112D01*
X132767714Y-97951364D01*
X132950722Y-97768676D01*
X133049887Y-97529860D01*
X133050112Y-97271274D01*
X132951364Y-97032286D01*
X132850000Y-96930744D01*
X132850000Y-96386396D01*
X132886396Y-96350000D01*
X133340002Y-96350000D01*
X133512210Y-96315746D01*
X133658200Y-96218198D01*
X133818198Y-96058200D01*
X133915746Y-95912210D01*
X133950000Y-95740002D01*
X133950000Y-94810660D01*
X134018198Y-94742462D01*
X134115746Y-94596472D01*
X134138842Y-94480361D01*
X134250722Y-94368676D01*
X134349887Y-94129860D01*
X134350112Y-93871274D01*
X134251364Y-93632286D01*
X134068676Y-93449278D01*
X134010208Y-93425000D01*
X135958140Y-93425000D01*
X136216857Y-93476462D01*
X136400698Y-93599300D01*
X136523538Y-93783144D01*
X136575000Y-94041860D01*
X136575000Y-105958140D01*
X136523538Y-106216856D01*
X136400698Y-106400700D01*
X136216857Y-106523538D01*
X135958140Y-106575000D01*
X133291281Y-106575000D01*
X133398825Y-106505797D01*
X133478741Y-106388837D01*
X133506856Y-106250000D01*
X133506856Y-104450000D01*
X133482451Y-104320298D01*
X133405797Y-104201175D01*
X133288837Y-104121259D01*
X133150000Y-104093144D01*
X129350000Y-104093144D01*
X129220298Y-104117549D01*
X129101175Y-104194203D01*
X129021259Y-104311163D01*
X128993144Y-104450000D01*
X128993144Y-106250000D01*
X129017549Y-106379702D01*
X129094203Y-106498825D01*
X129205688Y-106575000D01*
X126752763Y-106575000D01*
X126854994Y-106472948D01*
X126954159Y-106234132D01*
X126954384Y-105975546D01*
X126855636Y-105736558D01*
X126672948Y-105553550D01*
X126434132Y-105454385D01*
X126175546Y-105454160D01*
X125936558Y-105552908D01*
X125753550Y-105735596D01*
X125654385Y-105974412D01*
X125654319Y-106050000D01*
X121780395Y-106050000D01*
X121780437Y-106001599D01*
X121681689Y-105762611D01*
X121499001Y-105579603D01*
X121260185Y-105480438D01*
X121001599Y-105480213D01*
X120762611Y-105578961D01*
X120579603Y-105761649D01*
X120480438Y-106000465D01*
X120480213Y-106259051D01*
X120578961Y-106498039D01*
X120655787Y-106575000D01*
X109453024Y-106575000D01*
X109500852Y-106459817D01*
X109501147Y-106121666D01*
X109372015Y-105809143D01*
X109338951Y-105776021D01*
X110511809Y-105776021D01*
X110610557Y-106015009D01*
X110793245Y-106198017D01*
X111032061Y-106297182D01*
X111290647Y-106297407D01*
X111529635Y-106198659D01*
X111712643Y-106015971D01*
X111800027Y-105805527D01*
X112199999Y-105805527D01*
X112372207Y-105771273D01*
X112449983Y-105719304D01*
X112449888Y-105828726D01*
X112548636Y-106067714D01*
X112731324Y-106250722D01*
X112970140Y-106349887D01*
X113228726Y-106350112D01*
X113467714Y-106251364D01*
X113650722Y-106068676D01*
X113749887Y-105829860D01*
X113750112Y-105571274D01*
X113651364Y-105332286D01*
X113550000Y-105230744D01*
X113550000Y-104674531D01*
X127200000Y-104674531D01*
X127200000Y-105725469D01*
X127260896Y-106031616D01*
X127434315Y-106291154D01*
X127693853Y-106464573D01*
X128000000Y-106525469D01*
X128306147Y-106464573D01*
X128565685Y-106291154D01*
X128739104Y-106031616D01*
X128800000Y-105725469D01*
X128800000Y-104674531D01*
X128739104Y-104368384D01*
X128565685Y-104108846D01*
X128306147Y-103935427D01*
X128000000Y-103874531D01*
X127693853Y-103935427D01*
X127434315Y-104108846D01*
X127260896Y-104368384D01*
X127200000Y-104674531D01*
X113550000Y-104674531D01*
X113550000Y-103461745D01*
X120499881Y-103461745D01*
X120598629Y-103700733D01*
X120781317Y-103883741D01*
X121020133Y-103982906D01*
X121278719Y-103983131D01*
X121517707Y-103884383D01*
X121700715Y-103701695D01*
X121799880Y-103462879D01*
X121800005Y-103319403D01*
X121918198Y-103201210D01*
X121977472Y-103112500D01*
X124800000Y-103112500D01*
X124800000Y-103569619D01*
X124853284Y-103698259D01*
X124951741Y-103796715D01*
X125080380Y-103850000D01*
X126537500Y-103850000D01*
X126625000Y-103762500D01*
X126625000Y-103025000D01*
X126675000Y-103025000D01*
X126675000Y-103762500D01*
X126762500Y-103850000D01*
X128219620Y-103850000D01*
X128348259Y-103796715D01*
X128446716Y-103698259D01*
X128500000Y-103569619D01*
X128500000Y-103112500D01*
X128412500Y-103025000D01*
X126675000Y-103025000D01*
X126625000Y-103025000D01*
X124887500Y-103025000D01*
X124800000Y-103112500D01*
X121977472Y-103112500D01*
X122015746Y-103055220D01*
X122050000Y-102883012D01*
X122050000Y-100500000D01*
X124793144Y-100500000D01*
X124793144Y-101500000D01*
X124817549Y-101629702D01*
X124894203Y-101748825D01*
X125011163Y-101828741D01*
X125150000Y-101856856D01*
X125760023Y-101856856D01*
X125759890Y-102009693D01*
X125817864Y-102150000D01*
X125080380Y-102150000D01*
X124951741Y-102203285D01*
X124853284Y-102301741D01*
X124800000Y-102430381D01*
X124800000Y-102887500D01*
X124887500Y-102975000D01*
X126625000Y-102975000D01*
X126625000Y-102955000D01*
X126675000Y-102955000D01*
X126675000Y-102975000D01*
X128412500Y-102975000D01*
X128500000Y-102887500D01*
X128500000Y-102430381D01*
X128446716Y-102301741D01*
X128348259Y-102203285D01*
X128219620Y-102150000D01*
X127002099Y-102150000D01*
X127059889Y-102010827D01*
X127060023Y-101856856D01*
X128150000Y-101856856D01*
X128279702Y-101832451D01*
X128398825Y-101755797D01*
X128478741Y-101638837D01*
X128506856Y-101500000D01*
X128506856Y-100500000D01*
X128482451Y-100370298D01*
X128405797Y-100251175D01*
X128288837Y-100171259D01*
X128150000Y-100143144D01*
X125150000Y-100143144D01*
X125020298Y-100167549D01*
X124901175Y-100244203D01*
X124821259Y-100361163D01*
X124793144Y-100500000D01*
X122050000Y-100500000D01*
X122050000Y-100329224D01*
X122150722Y-100228678D01*
X122249887Y-99989862D01*
X122250112Y-99731276D01*
X122151364Y-99492288D01*
X122138658Y-99479559D01*
X123996680Y-99479559D01*
X124095428Y-99718547D01*
X124278116Y-99901555D01*
X124516932Y-100000720D01*
X124775518Y-100000945D01*
X125014506Y-99902197D01*
X125075117Y-99841692D01*
X125150000Y-99856856D01*
X128150000Y-99856856D01*
X128279702Y-99832451D01*
X128398825Y-99755797D01*
X128478741Y-99638837D01*
X128506856Y-99500000D01*
X128506856Y-98500000D01*
X128482451Y-98370298D01*
X128405797Y-98251175D01*
X128288837Y-98171259D01*
X128150000Y-98143144D01*
X125363962Y-98143144D01*
X125650251Y-97856856D01*
X128150000Y-97856856D01*
X128279702Y-97832451D01*
X128398825Y-97755797D01*
X128478741Y-97638837D01*
X128506856Y-97500000D01*
X128506856Y-96500000D01*
X128482451Y-96370298D01*
X128405797Y-96251175D01*
X128288837Y-96171259D01*
X128150000Y-96143144D01*
X125993252Y-96143144D01*
X127144927Y-94991469D01*
X127213536Y-94991529D01*
X127321397Y-95252572D01*
X127546245Y-95477812D01*
X127840172Y-95599861D01*
X128158432Y-95600139D01*
X128452572Y-95478603D01*
X128677812Y-95253755D01*
X128799861Y-94959828D01*
X128800139Y-94641568D01*
X128678603Y-94347428D01*
X128453755Y-94122188D01*
X128159828Y-94000139D01*
X127841568Y-93999861D01*
X127738296Y-94042532D01*
X127709883Y-93973767D01*
X127527195Y-93790759D01*
X127288379Y-93691594D01*
X127029793Y-93691369D01*
X126790805Y-93790117D01*
X126607797Y-93972805D01*
X126508632Y-94211621D01*
X126508507Y-94355097D01*
X125213604Y-95650000D01*
X125009998Y-95650000D01*
X124837790Y-95684254D01*
X124772630Y-95727793D01*
X124691800Y-95781802D01*
X124481802Y-95991800D01*
X124384254Y-96137790D01*
X124350000Y-96309998D01*
X124350000Y-96645665D01*
X124282284Y-96673645D01*
X124099276Y-96856333D01*
X124000111Y-97095149D01*
X123999886Y-97353735D01*
X124098634Y-97592723D01*
X124193222Y-97687477D01*
X124137502Y-97743100D01*
X124038337Y-97981916D01*
X124038112Y-98240502D01*
X124136860Y-98479490D01*
X124319548Y-98662498D01*
X124464701Y-98722771D01*
X124279078Y-98799469D01*
X124096070Y-98982157D01*
X123996905Y-99220973D01*
X123996680Y-99479559D01*
X122138658Y-99479559D01*
X121968676Y-99309280D01*
X121729860Y-99210115D01*
X121471274Y-99209890D01*
X121232286Y-99308638D01*
X121049278Y-99491326D01*
X120950113Y-99730142D01*
X120949888Y-99988728D01*
X121048636Y-100227716D01*
X121150000Y-100329258D01*
X121150000Y-102683019D01*
X121021267Y-102682907D01*
X120782279Y-102781655D01*
X120599271Y-102964343D01*
X120500106Y-103203159D01*
X120499881Y-103461745D01*
X113550000Y-103461745D01*
X113550000Y-102924045D01*
X114361310Y-102924045D01*
X114380957Y-103050476D01*
X114619707Y-103149800D01*
X114878293Y-103150198D01*
X115117347Y-103051609D01*
X115119043Y-103050476D01*
X115138690Y-102924045D01*
X116861310Y-102924045D01*
X116880957Y-103050476D01*
X117119707Y-103149800D01*
X117378293Y-103150198D01*
X117617347Y-103051609D01*
X117619043Y-103050476D01*
X117638690Y-102924045D01*
X119361310Y-102924045D01*
X119380957Y-103050476D01*
X119619707Y-103149800D01*
X119878293Y-103150198D01*
X120117347Y-103051609D01*
X120119043Y-103050476D01*
X120138690Y-102924045D01*
X119750000Y-102535355D01*
X119361310Y-102924045D01*
X117638690Y-102924045D01*
X117250000Y-102535355D01*
X116861310Y-102924045D01*
X115138690Y-102924045D01*
X114750000Y-102535355D01*
X114361310Y-102924045D01*
X113550000Y-102924045D01*
X113550000Y-102628293D01*
X114099802Y-102628293D01*
X114198391Y-102867347D01*
X114199524Y-102869043D01*
X114325955Y-102888690D01*
X114714645Y-102500000D01*
X114785355Y-102500000D01*
X115174045Y-102888690D01*
X115300476Y-102869043D01*
X115399800Y-102630293D01*
X115399803Y-102628293D01*
X116599802Y-102628293D01*
X116698391Y-102867347D01*
X116699524Y-102869043D01*
X116825955Y-102888690D01*
X117214645Y-102500000D01*
X117285355Y-102500000D01*
X117674045Y-102888690D01*
X117800476Y-102869043D01*
X117899800Y-102630293D01*
X117899803Y-102628293D01*
X119099802Y-102628293D01*
X119198391Y-102867347D01*
X119199524Y-102869043D01*
X119325955Y-102888690D01*
X119714645Y-102500000D01*
X119785355Y-102500000D01*
X120174045Y-102888690D01*
X120300476Y-102869043D01*
X120399800Y-102630293D01*
X120400198Y-102371707D01*
X120301609Y-102132653D01*
X120300476Y-102130957D01*
X120174045Y-102111310D01*
X119785355Y-102500000D01*
X119714645Y-102500000D01*
X119325955Y-102111310D01*
X119199524Y-102130957D01*
X119100200Y-102369707D01*
X119099802Y-102628293D01*
X117899803Y-102628293D01*
X117900198Y-102371707D01*
X117801609Y-102132653D01*
X117800476Y-102130957D01*
X117674045Y-102111310D01*
X117285355Y-102500000D01*
X117214645Y-102500000D01*
X116825955Y-102111310D01*
X116699524Y-102130957D01*
X116600200Y-102369707D01*
X116599802Y-102628293D01*
X115399803Y-102628293D01*
X115400198Y-102371707D01*
X115301609Y-102132653D01*
X115300476Y-102130957D01*
X115174045Y-102111310D01*
X114785355Y-102500000D01*
X114714645Y-102500000D01*
X114325955Y-102111310D01*
X114199524Y-102130957D01*
X114100200Y-102369707D01*
X114099802Y-102628293D01*
X113550000Y-102628293D01*
X113550000Y-102075955D01*
X114361310Y-102075955D01*
X114750000Y-102464645D01*
X115138690Y-102075955D01*
X116861310Y-102075955D01*
X117250000Y-102464645D01*
X117638690Y-102075955D01*
X119361310Y-102075955D01*
X119750000Y-102464645D01*
X120138690Y-102075955D01*
X120119043Y-101949524D01*
X119880293Y-101850200D01*
X119621707Y-101849802D01*
X119382653Y-101948391D01*
X119380957Y-101949524D01*
X119361310Y-102075955D01*
X117638690Y-102075955D01*
X117619043Y-101949524D01*
X117380293Y-101850200D01*
X117121707Y-101849802D01*
X116882653Y-101948391D01*
X116880957Y-101949524D01*
X116861310Y-102075955D01*
X115138690Y-102075955D01*
X115119043Y-101949524D01*
X114880293Y-101850200D01*
X114621707Y-101849802D01*
X114382653Y-101948391D01*
X114380957Y-101949524D01*
X114361310Y-102075955D01*
X113550000Y-102075955D01*
X113550000Y-100849990D01*
X113515746Y-100677782D01*
X113418198Y-100531792D01*
X113310451Y-100424045D01*
X114361310Y-100424045D01*
X114380957Y-100550476D01*
X114619707Y-100649800D01*
X114878293Y-100650198D01*
X115117347Y-100551609D01*
X115119043Y-100550476D01*
X115138690Y-100424045D01*
X116861310Y-100424045D01*
X116880957Y-100550476D01*
X117119707Y-100649800D01*
X117378293Y-100650198D01*
X117617347Y-100551609D01*
X117619043Y-100550476D01*
X117638690Y-100424045D01*
X119361310Y-100424045D01*
X119380957Y-100550476D01*
X119619707Y-100649800D01*
X119878293Y-100650198D01*
X120117347Y-100551609D01*
X120119043Y-100550476D01*
X120138690Y-100424045D01*
X119750000Y-100035355D01*
X119361310Y-100424045D01*
X117638690Y-100424045D01*
X117250000Y-100035355D01*
X116861310Y-100424045D01*
X115138690Y-100424045D01*
X114750000Y-100035355D01*
X114361310Y-100424045D01*
X113310451Y-100424045D01*
X113049988Y-100163582D01*
X113050018Y-100128293D01*
X114099802Y-100128293D01*
X114198391Y-100367347D01*
X114199524Y-100369043D01*
X114325955Y-100388690D01*
X114714645Y-100000000D01*
X114785355Y-100000000D01*
X115174045Y-100388690D01*
X115300476Y-100369043D01*
X115399800Y-100130293D01*
X115399803Y-100128293D01*
X116599802Y-100128293D01*
X116698391Y-100367347D01*
X116699524Y-100369043D01*
X116825955Y-100388690D01*
X117214645Y-100000000D01*
X117285355Y-100000000D01*
X117674045Y-100388690D01*
X117800476Y-100369043D01*
X117899800Y-100130293D01*
X117899803Y-100128293D01*
X119099802Y-100128293D01*
X119198391Y-100367347D01*
X119199524Y-100369043D01*
X119325955Y-100388690D01*
X119714645Y-100000000D01*
X119785355Y-100000000D01*
X120174045Y-100388690D01*
X120300476Y-100369043D01*
X120399800Y-100130293D01*
X120400198Y-99871707D01*
X120301609Y-99632653D01*
X120300476Y-99630957D01*
X120174045Y-99611310D01*
X119785355Y-100000000D01*
X119714645Y-100000000D01*
X119325955Y-99611310D01*
X119199524Y-99630957D01*
X119100200Y-99869707D01*
X119099802Y-100128293D01*
X117899803Y-100128293D01*
X117900198Y-99871707D01*
X117801609Y-99632653D01*
X117800476Y-99630957D01*
X117674045Y-99611310D01*
X117285355Y-100000000D01*
X117214645Y-100000000D01*
X116825955Y-99611310D01*
X116699524Y-99630957D01*
X116600200Y-99869707D01*
X116599802Y-100128293D01*
X115399803Y-100128293D01*
X115400198Y-99871707D01*
X115301609Y-99632653D01*
X115300476Y-99630957D01*
X115174045Y-99611310D01*
X114785355Y-100000000D01*
X114714645Y-100000000D01*
X114325955Y-99611310D01*
X114199524Y-99630957D01*
X114100200Y-99869707D01*
X114099802Y-100128293D01*
X113050018Y-100128293D01*
X113050112Y-100021264D01*
X113000665Y-99901594D01*
X113156855Y-99745677D01*
X113227329Y-99575955D01*
X114361310Y-99575955D01*
X114750000Y-99964645D01*
X115138690Y-99575955D01*
X116861310Y-99575955D01*
X117250000Y-99964645D01*
X117638690Y-99575955D01*
X119361310Y-99575955D01*
X119750000Y-99964645D01*
X120138690Y-99575955D01*
X120119043Y-99449524D01*
X119880293Y-99350200D01*
X119621707Y-99349802D01*
X119382653Y-99448391D01*
X119380957Y-99449524D01*
X119361310Y-99575955D01*
X117638690Y-99575955D01*
X117619043Y-99449524D01*
X117380293Y-99350200D01*
X117121707Y-99349802D01*
X116882653Y-99448391D01*
X116880957Y-99449524D01*
X116861310Y-99575955D01*
X115138690Y-99575955D01*
X115119043Y-99449524D01*
X114880293Y-99350200D01*
X114621707Y-99349802D01*
X114382653Y-99448391D01*
X114380957Y-99449524D01*
X114361310Y-99575955D01*
X113227329Y-99575955D01*
X113256020Y-99506861D01*
X113256245Y-99248275D01*
X113157497Y-99009287D01*
X112974809Y-98826279D01*
X112735993Y-98727114D01*
X112549977Y-98726952D01*
X112550112Y-98571274D01*
X112451364Y-98332286D01*
X112268676Y-98149278D01*
X112029860Y-98050113D01*
X111771274Y-98049888D01*
X111532286Y-98148636D01*
X111430744Y-98250000D01*
X111400000Y-98250000D01*
X111227792Y-98284254D01*
X111112690Y-98361163D01*
X111081802Y-98381802D01*
X110781802Y-98681802D01*
X110684254Y-98827792D01*
X110650000Y-99000000D01*
X110650000Y-101400000D01*
X110684254Y-101572208D01*
X110750448Y-101671274D01*
X110781802Y-101718198D01*
X110850012Y-101786408D01*
X110849888Y-101928726D01*
X110948636Y-102167714D01*
X111131324Y-102350722D01*
X111370140Y-102449887D01*
X111628726Y-102450112D01*
X111867714Y-102351364D01*
X112050722Y-102168676D01*
X112149887Y-101929860D01*
X112150000Y-101799992D01*
X112150000Y-104769130D01*
X112013603Y-104905527D01*
X111453689Y-104905527D01*
X111281481Y-104939781D01*
X111195362Y-104997324D01*
X111033195Y-104997183D01*
X110794207Y-105095931D01*
X110611199Y-105278619D01*
X110512034Y-105517435D01*
X110511809Y-105776021D01*
X109338951Y-105776021D01*
X109133115Y-105569826D01*
X108820817Y-105440148D01*
X108482666Y-105439853D01*
X108170143Y-105568985D01*
X107930826Y-105807885D01*
X107801148Y-106120183D01*
X107800853Y-106458334D01*
X107849058Y-106575000D01*
X107421024Y-106575000D01*
X107468852Y-106459817D01*
X107469147Y-106121666D01*
X107340015Y-105809143D01*
X107101115Y-105569826D01*
X106788817Y-105440148D01*
X106450666Y-105439853D01*
X106138143Y-105568985D01*
X105898826Y-105807885D01*
X105769148Y-106120183D01*
X105768853Y-106458334D01*
X105817058Y-106575000D01*
X101041860Y-106575000D01*
X100783144Y-106523538D01*
X100599300Y-106400698D01*
X100476462Y-106216857D01*
X100425000Y-105958140D01*
X100425000Y-104800459D01*
X100649250Y-104950298D01*
X100974531Y-105015000D01*
X101925469Y-105015000D01*
X102250750Y-104950298D01*
X102526510Y-104766041D01*
X102710767Y-104490281D01*
X102775469Y-104165000D01*
X102710767Y-103839719D01*
X102526510Y-103563959D01*
X102250750Y-103379702D01*
X101925469Y-103315000D01*
X100974531Y-103315000D01*
X100649250Y-103379702D01*
X100425000Y-103529541D01*
X100425000Y-102215000D01*
X103455899Y-102215000D01*
X103520601Y-102540281D01*
X103704858Y-102816041D01*
X103980618Y-103000298D01*
X104305899Y-103065000D01*
X104594101Y-103065000D01*
X104919382Y-103000298D01*
X105176157Y-102828726D01*
X105449888Y-102828726D01*
X105548636Y-103067714D01*
X105731324Y-103250722D01*
X105970140Y-103349887D01*
X106228726Y-103350112D01*
X106467714Y-103251364D01*
X106519168Y-103200000D01*
X108139035Y-103200000D01*
X108469595Y-103530560D01*
X108469533Y-103602230D01*
X108568281Y-103841218D01*
X108637786Y-103910844D01*
X108642590Y-103935000D01*
X106835124Y-103935000D01*
X106751364Y-103732286D01*
X106568676Y-103549278D01*
X106329860Y-103450113D01*
X106071274Y-103449888D01*
X105832286Y-103548636D01*
X105649278Y-103731324D01*
X105550113Y-103970140D01*
X105549888Y-104228726D01*
X105648636Y-104467714D01*
X105831324Y-104650722D01*
X106070140Y-104749887D01*
X106236894Y-104750032D01*
X106312792Y-104800746D01*
X106485000Y-104835000D01*
X108469565Y-104835000D01*
X108469533Y-104872231D01*
X108568281Y-105111219D01*
X108750969Y-105294227D01*
X108989785Y-105393392D01*
X109248371Y-105393617D01*
X109487359Y-105294869D01*
X109581629Y-105200764D01*
X109731324Y-105350722D01*
X109970140Y-105449887D01*
X110228726Y-105450112D01*
X110467714Y-105351364D01*
X110650722Y-105168676D01*
X110749887Y-104929860D01*
X110750112Y-104671274D01*
X110651364Y-104432286D01*
X110468676Y-104249278D01*
X110229860Y-104150113D01*
X110157156Y-104150050D01*
X109722863Y-103715756D01*
X109769532Y-103603364D01*
X109769757Y-103344778D01*
X109671009Y-103105790D01*
X109488321Y-102922782D01*
X109249505Y-102823617D01*
X109176801Y-102823554D01*
X108699694Y-102346447D01*
X108537483Y-102238060D01*
X108534668Y-102237500D01*
X108346141Y-102200000D01*
X107284999Y-102200000D01*
X107284999Y-101985033D01*
X107465183Y-102059852D01*
X107803334Y-102060147D01*
X108115857Y-101931015D01*
X108355174Y-101692115D01*
X108484852Y-101379817D01*
X108485147Y-101041666D01*
X108356015Y-100729143D01*
X108117115Y-100489826D01*
X107804817Y-100360148D01*
X107466666Y-100359853D01*
X107284999Y-100434916D01*
X107284999Y-98301820D01*
X107348791Y-98238028D01*
X107420461Y-98238090D01*
X107659449Y-98139342D01*
X107842457Y-97956654D01*
X107855997Y-97924045D01*
X114361310Y-97924045D01*
X114380957Y-98050476D01*
X114619707Y-98149800D01*
X114878293Y-98150198D01*
X115117347Y-98051609D01*
X115119043Y-98050476D01*
X115138690Y-97924045D01*
X116861310Y-97924045D01*
X116880957Y-98050476D01*
X117119707Y-98149800D01*
X117378293Y-98150198D01*
X117617347Y-98051609D01*
X117619043Y-98050476D01*
X117638690Y-97924045D01*
X119361310Y-97924045D01*
X119380957Y-98050476D01*
X119619707Y-98149800D01*
X119878293Y-98150198D01*
X120117347Y-98051609D01*
X120119043Y-98050476D01*
X120138690Y-97924045D01*
X119750000Y-97535355D01*
X119361310Y-97924045D01*
X117638690Y-97924045D01*
X117250000Y-97535355D01*
X116861310Y-97924045D01*
X115138690Y-97924045D01*
X114750000Y-97535355D01*
X114361310Y-97924045D01*
X107855997Y-97924045D01*
X107941622Y-97717838D01*
X107941699Y-97628293D01*
X114099802Y-97628293D01*
X114198391Y-97867347D01*
X114199524Y-97869043D01*
X114325955Y-97888690D01*
X114714645Y-97500000D01*
X114785355Y-97500000D01*
X115174045Y-97888690D01*
X115300476Y-97869043D01*
X115399800Y-97630293D01*
X115399803Y-97628293D01*
X116599802Y-97628293D01*
X116698391Y-97867347D01*
X116699524Y-97869043D01*
X116825955Y-97888690D01*
X117214645Y-97500000D01*
X117285355Y-97500000D01*
X117674045Y-97888690D01*
X117800476Y-97869043D01*
X117899800Y-97630293D01*
X117899803Y-97628293D01*
X119099802Y-97628293D01*
X119198391Y-97867347D01*
X119199524Y-97869043D01*
X119325955Y-97888690D01*
X119714645Y-97500000D01*
X119785355Y-97500000D01*
X120174045Y-97888690D01*
X120300476Y-97869043D01*
X120399800Y-97630293D01*
X120400198Y-97371707D01*
X120301609Y-97132653D01*
X120300476Y-97130957D01*
X120174045Y-97111310D01*
X119785355Y-97500000D01*
X119714645Y-97500000D01*
X119325955Y-97111310D01*
X119199524Y-97130957D01*
X119100200Y-97369707D01*
X119099802Y-97628293D01*
X117899803Y-97628293D01*
X117900198Y-97371707D01*
X117801609Y-97132653D01*
X117800476Y-97130957D01*
X117674045Y-97111310D01*
X117285355Y-97500000D01*
X117214645Y-97500000D01*
X116825955Y-97111310D01*
X116699524Y-97130957D01*
X116600200Y-97369707D01*
X116599802Y-97628293D01*
X115399803Y-97628293D01*
X115400198Y-97371707D01*
X115301609Y-97132653D01*
X115300476Y-97130957D01*
X115174045Y-97111310D01*
X114785355Y-97500000D01*
X114714645Y-97500000D01*
X114325955Y-97111310D01*
X114199524Y-97130957D01*
X114100200Y-97369707D01*
X114099802Y-97628293D01*
X107941699Y-97628293D01*
X107941847Y-97459252D01*
X107843099Y-97220264D01*
X107699043Y-97075955D01*
X114361310Y-97075955D01*
X114750000Y-97464645D01*
X115138690Y-97075955D01*
X116861310Y-97075955D01*
X117250000Y-97464645D01*
X117638690Y-97075955D01*
X119361310Y-97075955D01*
X119750000Y-97464645D01*
X120138690Y-97075955D01*
X120119043Y-96949524D01*
X119880293Y-96850200D01*
X119621707Y-96849802D01*
X119382653Y-96948391D01*
X119380957Y-96949524D01*
X119361310Y-97075955D01*
X117638690Y-97075955D01*
X117619043Y-96949524D01*
X117380293Y-96850200D01*
X117121707Y-96849802D01*
X116882653Y-96948391D01*
X116880957Y-96949524D01*
X116861310Y-97075955D01*
X115138690Y-97075955D01*
X115119043Y-96949524D01*
X114880293Y-96850200D01*
X114621707Y-96849802D01*
X114382653Y-96948391D01*
X114380957Y-96949524D01*
X114361310Y-97075955D01*
X107699043Y-97075955D01*
X107660411Y-97037256D01*
X107421595Y-96938091D01*
X107163009Y-96937866D01*
X106924021Y-97036614D01*
X106741013Y-97219302D01*
X106641848Y-97458118D01*
X106641785Y-97530822D01*
X106431446Y-97741161D01*
X106323059Y-97903372D01*
X106284999Y-98094714D01*
X106284999Y-102073009D01*
X106229860Y-102050113D01*
X105971274Y-102049888D01*
X105732286Y-102148636D01*
X105549278Y-102331324D01*
X105450113Y-102570140D01*
X105449888Y-102828726D01*
X105176157Y-102828726D01*
X105195142Y-102816041D01*
X105379399Y-102540281D01*
X105444101Y-102215000D01*
X105379399Y-101889719D01*
X105195142Y-101613959D01*
X104919382Y-101429702D01*
X104594101Y-101365000D01*
X104305899Y-101365000D01*
X103980618Y-101429702D01*
X103704858Y-101613959D01*
X103520601Y-101889719D01*
X103455899Y-102215000D01*
X100425000Y-102215000D01*
X100425000Y-97765000D01*
X103455899Y-97765000D01*
X103520601Y-98090281D01*
X103704858Y-98366041D01*
X103980618Y-98550298D01*
X104305899Y-98615000D01*
X104594101Y-98615000D01*
X104919382Y-98550298D01*
X105195142Y-98366041D01*
X105379399Y-98090281D01*
X105444101Y-97765000D01*
X105379399Y-97439719D01*
X105195142Y-97163959D01*
X104919382Y-96979702D01*
X104594101Y-96915000D01*
X104305899Y-96915000D01*
X103980618Y-96979702D01*
X103704858Y-97163959D01*
X103520601Y-97439719D01*
X103455899Y-97765000D01*
X100425000Y-97765000D01*
X100425000Y-96450459D01*
X100649250Y-96600298D01*
X100974531Y-96665000D01*
X101925469Y-96665000D01*
X102250750Y-96600298D01*
X102526510Y-96416041D01*
X102710767Y-96140281D01*
X102775469Y-95815000D01*
X102710767Y-95489719D01*
X102526510Y-95213959D01*
X102250750Y-95029702D01*
X101925469Y-94965000D01*
X100974531Y-94965000D01*
X100649250Y-95029702D01*
X100425000Y-95179541D01*
X100425000Y-94041860D01*
X100476462Y-93783143D01*
X100599300Y-93599302D01*
X100783144Y-93476462D01*
X101041860Y-93425000D01*
X121150013Y-93425000D01*
X121149888Y-93568715D01*
X121149888Y-93568715D01*
G37*
X121149888Y-93568715D02*
X121248636Y-93807703D01*
X121300000Y-93859157D01*
X121300000Y-96900000D01*
X121326122Y-97031324D01*
X121338060Y-97091342D01*
X121446447Y-97253553D01*
X121549950Y-97357057D01*
X121549888Y-97428726D01*
X121648636Y-97667714D01*
X121831324Y-97850722D01*
X122070140Y-97949887D01*
X122328726Y-97950112D01*
X122567714Y-97851364D01*
X122750722Y-97668676D01*
X122849887Y-97429860D01*
X122850112Y-97171274D01*
X122751364Y-96932286D01*
X122568676Y-96749278D01*
X122329860Y-96650113D01*
X122300000Y-96650087D01*
X122300000Y-93859298D01*
X122350722Y-93808665D01*
X122449887Y-93569849D01*
X122450013Y-93425000D01*
X129208719Y-93425000D01*
X129101175Y-93494203D01*
X129021259Y-93611163D01*
X128993144Y-93750000D01*
X128993144Y-95550000D01*
X129017549Y-95679702D01*
X129094203Y-95798825D01*
X129211163Y-95878741D01*
X129350000Y-95906856D01*
X132065061Y-95906856D01*
X131984254Y-96027792D01*
X131950000Y-96200000D01*
X131950000Y-96930778D01*
X131849278Y-97031324D01*
X131750113Y-97270140D01*
X131749888Y-97528726D01*
X131848636Y-97767714D01*
X132031324Y-97950722D01*
X132270140Y-98049887D01*
X132528726Y-98050112D01*
X132767714Y-97951364D01*
X132950722Y-97768676D01*
X133049887Y-97529860D01*
X133050112Y-97271274D01*
X132951364Y-97032286D01*
X132850000Y-96930744D01*
X132850000Y-96386396D01*
X132886396Y-96350000D01*
X133340002Y-96350000D01*
X133512210Y-96315746D01*
X133658200Y-96218198D01*
X133818198Y-96058200D01*
X133915746Y-95912210D01*
X133950000Y-95740002D01*
X133950000Y-94810660D01*
X134018198Y-94742462D01*
X134115746Y-94596472D01*
X134138842Y-94480361D01*
X134250722Y-94368676D01*
X134349887Y-94129860D01*
X134350112Y-93871274D01*
X134251364Y-93632286D01*
X134068676Y-93449278D01*
X134010208Y-93425000D01*
X135958140Y-93425000D01*
X136216857Y-93476462D01*
X136400698Y-93599300D01*
X136523538Y-93783144D01*
X136575000Y-94041860D01*
X136575000Y-105958140D01*
X136523538Y-106216856D01*
X136400698Y-106400700D01*
X136216857Y-106523538D01*
X135958140Y-106575000D01*
X133291281Y-106575000D01*
X133398825Y-106505797D01*
X133478741Y-106388837D01*
X133506856Y-106250000D01*
X133506856Y-104450000D01*
X133482451Y-104320298D01*
X133405797Y-104201175D01*
X133288837Y-104121259D01*
X133150000Y-104093144D01*
X129350000Y-104093144D01*
X129220298Y-104117549D01*
X129101175Y-104194203D01*
X129021259Y-104311163D01*
X128993144Y-104450000D01*
X128993144Y-106250000D01*
X129017549Y-106379702D01*
X129094203Y-106498825D01*
X129205688Y-106575000D01*
X126752763Y-106575000D01*
X126854994Y-106472948D01*
X126954159Y-106234132D01*
X126954384Y-105975546D01*
X126855636Y-105736558D01*
X126672948Y-105553550D01*
X126434132Y-105454385D01*
X126175546Y-105454160D01*
X125936558Y-105552908D01*
X125753550Y-105735596D01*
X125654385Y-105974412D01*
X125654319Y-106050000D01*
X121780395Y-106050000D01*
X121780437Y-106001599D01*
X121681689Y-105762611D01*
X121499001Y-105579603D01*
X121260185Y-105480438D01*
X121001599Y-105480213D01*
X120762611Y-105578961D01*
X120579603Y-105761649D01*
X120480438Y-106000465D01*
X120480213Y-106259051D01*
X120578961Y-106498039D01*
X120655787Y-106575000D01*
X109453024Y-106575000D01*
X109500852Y-106459817D01*
X109501147Y-106121666D01*
X109372015Y-105809143D01*
X109338951Y-105776021D01*
X110511809Y-105776021D01*
X110610557Y-106015009D01*
X110793245Y-106198017D01*
X111032061Y-106297182D01*
X111290647Y-106297407D01*
X111529635Y-106198659D01*
X111712643Y-106015971D01*
X111800027Y-105805527D01*
X112199999Y-105805527D01*
X112372207Y-105771273D01*
X112449983Y-105719304D01*
X112449888Y-105828726D01*
X112548636Y-106067714D01*
X112731324Y-106250722D01*
X112970140Y-106349887D01*
X113228726Y-106350112D01*
X113467714Y-106251364D01*
X113650722Y-106068676D01*
X113749887Y-105829860D01*
X113750112Y-105571274D01*
X113651364Y-105332286D01*
X113550000Y-105230744D01*
X113550000Y-104674531D01*
X127200000Y-104674531D01*
X127200000Y-105725469D01*
X127260896Y-106031616D01*
X127434315Y-106291154D01*
X127693853Y-106464573D01*
X128000000Y-106525469D01*
X128306147Y-106464573D01*
X128565685Y-106291154D01*
X128739104Y-106031616D01*
X128800000Y-105725469D01*
X128800000Y-104674531D01*
X128739104Y-104368384D01*
X128565685Y-104108846D01*
X128306147Y-103935427D01*
X128000000Y-103874531D01*
X127693853Y-103935427D01*
X127434315Y-104108846D01*
X127260896Y-104368384D01*
X127200000Y-104674531D01*
X113550000Y-104674531D01*
X113550000Y-103461745D01*
X120499881Y-103461745D01*
X120598629Y-103700733D01*
X120781317Y-103883741D01*
X121020133Y-103982906D01*
X121278719Y-103983131D01*
X121517707Y-103884383D01*
X121700715Y-103701695D01*
X121799880Y-103462879D01*
X121800005Y-103319403D01*
X121918198Y-103201210D01*
X121977472Y-103112500D01*
X124800000Y-103112500D01*
X124800000Y-103569619D01*
X124853284Y-103698259D01*
X124951741Y-103796715D01*
X125080380Y-103850000D01*
X126537500Y-103850000D01*
X126625000Y-103762500D01*
X126625000Y-103025000D01*
X126675000Y-103025000D01*
X126675000Y-103762500D01*
X126762500Y-103850000D01*
X128219620Y-103850000D01*
X128348259Y-103796715D01*
X128446716Y-103698259D01*
X128500000Y-103569619D01*
X128500000Y-103112500D01*
X128412500Y-103025000D01*
X126675000Y-103025000D01*
X126625000Y-103025000D01*
X124887500Y-103025000D01*
X124800000Y-103112500D01*
X121977472Y-103112500D01*
X122015746Y-103055220D01*
X122050000Y-102883012D01*
X122050000Y-100500000D01*
X124793144Y-100500000D01*
X124793144Y-101500000D01*
X124817549Y-101629702D01*
X124894203Y-101748825D01*
X125011163Y-101828741D01*
X125150000Y-101856856D01*
X125760023Y-101856856D01*
X125759890Y-102009693D01*
X125817864Y-102150000D01*
X125080380Y-102150000D01*
X124951741Y-102203285D01*
X124853284Y-102301741D01*
X124800000Y-102430381D01*
X124800000Y-102887500D01*
X124887500Y-102975000D01*
X126625000Y-102975000D01*
X126625000Y-102955000D01*
X126675000Y-102955000D01*
X126675000Y-102975000D01*
X128412500Y-102975000D01*
X128500000Y-102887500D01*
X128500000Y-102430381D01*
X128446716Y-102301741D01*
X128348259Y-102203285D01*
X128219620Y-102150000D01*
X127002099Y-102150000D01*
X127059889Y-102010827D01*
X127060023Y-101856856D01*
X128150000Y-101856856D01*
X128279702Y-101832451D01*
X128398825Y-101755797D01*
X128478741Y-101638837D01*
X128506856Y-101500000D01*
X128506856Y-100500000D01*
X128482451Y-100370298D01*
X128405797Y-100251175D01*
X128288837Y-100171259D01*
X128150000Y-100143144D01*
X125150000Y-100143144D01*
X125020298Y-100167549D01*
X124901175Y-100244203D01*
X124821259Y-100361163D01*
X124793144Y-100500000D01*
X122050000Y-100500000D01*
X122050000Y-100329224D01*
X122150722Y-100228678D01*
X122249887Y-99989862D01*
X122250112Y-99731276D01*
X122151364Y-99492288D01*
X122138658Y-99479559D01*
X123996680Y-99479559D01*
X124095428Y-99718547D01*
X124278116Y-99901555D01*
X124516932Y-100000720D01*
X124775518Y-100000945D01*
X125014506Y-99902197D01*
X125075117Y-99841692D01*
X125150000Y-99856856D01*
X128150000Y-99856856D01*
X128279702Y-99832451D01*
X128398825Y-99755797D01*
X128478741Y-99638837D01*
X128506856Y-99500000D01*
X128506856Y-98500000D01*
X128482451Y-98370298D01*
X128405797Y-98251175D01*
X128288837Y-98171259D01*
X128150000Y-98143144D01*
X125363962Y-98143144D01*
X125650251Y-97856856D01*
X128150000Y-97856856D01*
X128279702Y-97832451D01*
X128398825Y-97755797D01*
X128478741Y-97638837D01*
X128506856Y-97500000D01*
X128506856Y-96500000D01*
X128482451Y-96370298D01*
X128405797Y-96251175D01*
X128288837Y-96171259D01*
X128150000Y-96143144D01*
X125993252Y-96143144D01*
X127144927Y-94991469D01*
X127213536Y-94991529D01*
X127321397Y-95252572D01*
X127546245Y-95477812D01*
X127840172Y-95599861D01*
X128158432Y-95600139D01*
X128452572Y-95478603D01*
X128677812Y-95253755D01*
X128799861Y-94959828D01*
X128800139Y-94641568D01*
X128678603Y-94347428D01*
X128453755Y-94122188D01*
X128159828Y-94000139D01*
X127841568Y-93999861D01*
X127738296Y-94042532D01*
X127709883Y-93973767D01*
X127527195Y-93790759D01*
X127288379Y-93691594D01*
X127029793Y-93691369D01*
X126790805Y-93790117D01*
X126607797Y-93972805D01*
X126508632Y-94211621D01*
X126508507Y-94355097D01*
X125213604Y-95650000D01*
X125009998Y-95650000D01*
X124837790Y-95684254D01*
X124772630Y-95727793D01*
X124691800Y-95781802D01*
X124481802Y-95991800D01*
X124384254Y-96137790D01*
X124350000Y-96309998D01*
X124350000Y-96645665D01*
X124282284Y-96673645D01*
X124099276Y-96856333D01*
X124000111Y-97095149D01*
X123999886Y-97353735D01*
X124098634Y-97592723D01*
X124193222Y-97687477D01*
X124137502Y-97743100D01*
X124038337Y-97981916D01*
X124038112Y-98240502D01*
X124136860Y-98479490D01*
X124319548Y-98662498D01*
X124464701Y-98722771D01*
X124279078Y-98799469D01*
X124096070Y-98982157D01*
X123996905Y-99220973D01*
X123996680Y-99479559D01*
X122138658Y-99479559D01*
X121968676Y-99309280D01*
X121729860Y-99210115D01*
X121471274Y-99209890D01*
X121232286Y-99308638D01*
X121049278Y-99491326D01*
X120950113Y-99730142D01*
X120949888Y-99988728D01*
X121048636Y-100227716D01*
X121150000Y-100329258D01*
X121150000Y-102683019D01*
X121021267Y-102682907D01*
X120782279Y-102781655D01*
X120599271Y-102964343D01*
X120500106Y-103203159D01*
X120499881Y-103461745D01*
X113550000Y-103461745D01*
X113550000Y-102924045D01*
X114361310Y-102924045D01*
X114380957Y-103050476D01*
X114619707Y-103149800D01*
X114878293Y-103150198D01*
X115117347Y-103051609D01*
X115119043Y-103050476D01*
X115138690Y-102924045D01*
X116861310Y-102924045D01*
X116880957Y-103050476D01*
X117119707Y-103149800D01*
X117378293Y-103150198D01*
X117617347Y-103051609D01*
X117619043Y-103050476D01*
X117638690Y-102924045D01*
X119361310Y-102924045D01*
X119380957Y-103050476D01*
X119619707Y-103149800D01*
X119878293Y-103150198D01*
X120117347Y-103051609D01*
X120119043Y-103050476D01*
X120138690Y-102924045D01*
X119750000Y-102535355D01*
X119361310Y-102924045D01*
X117638690Y-102924045D01*
X117250000Y-102535355D01*
X116861310Y-102924045D01*
X115138690Y-102924045D01*
X114750000Y-102535355D01*
X114361310Y-102924045D01*
X113550000Y-102924045D01*
X113550000Y-102628293D01*
X114099802Y-102628293D01*
X114198391Y-102867347D01*
X114199524Y-102869043D01*
X114325955Y-102888690D01*
X114714645Y-102500000D01*
X114785355Y-102500000D01*
X115174045Y-102888690D01*
X115300476Y-102869043D01*
X115399800Y-102630293D01*
X115399803Y-102628293D01*
X116599802Y-102628293D01*
X116698391Y-102867347D01*
X116699524Y-102869043D01*
X116825955Y-102888690D01*
X117214645Y-102500000D01*
X117285355Y-102500000D01*
X117674045Y-102888690D01*
X117800476Y-102869043D01*
X117899800Y-102630293D01*
X117899803Y-102628293D01*
X119099802Y-102628293D01*
X119198391Y-102867347D01*
X119199524Y-102869043D01*
X119325955Y-102888690D01*
X119714645Y-102500000D01*
X119785355Y-102500000D01*
X120174045Y-102888690D01*
X120300476Y-102869043D01*
X120399800Y-102630293D01*
X120400198Y-102371707D01*
X120301609Y-102132653D01*
X120300476Y-102130957D01*
X120174045Y-102111310D01*
X119785355Y-102500000D01*
X119714645Y-102500000D01*
X119325955Y-102111310D01*
X119199524Y-102130957D01*
X119100200Y-102369707D01*
X119099802Y-102628293D01*
X117899803Y-102628293D01*
X117900198Y-102371707D01*
X117801609Y-102132653D01*
X117800476Y-102130957D01*
X117674045Y-102111310D01*
X117285355Y-102500000D01*
X117214645Y-102500000D01*
X116825955Y-102111310D01*
X116699524Y-102130957D01*
X116600200Y-102369707D01*
X116599802Y-102628293D01*
X115399803Y-102628293D01*
X115400198Y-102371707D01*
X115301609Y-102132653D01*
X115300476Y-102130957D01*
X115174045Y-102111310D01*
X114785355Y-102500000D01*
X114714645Y-102500000D01*
X114325955Y-102111310D01*
X114199524Y-102130957D01*
X114100200Y-102369707D01*
X114099802Y-102628293D01*
X113550000Y-102628293D01*
X113550000Y-102075955D01*
X114361310Y-102075955D01*
X114750000Y-102464645D01*
X115138690Y-102075955D01*
X116861310Y-102075955D01*
X117250000Y-102464645D01*
X117638690Y-102075955D01*
X119361310Y-102075955D01*
X119750000Y-102464645D01*
X120138690Y-102075955D01*
X120119043Y-101949524D01*
X119880293Y-101850200D01*
X119621707Y-101849802D01*
X119382653Y-101948391D01*
X119380957Y-101949524D01*
X119361310Y-102075955D01*
X117638690Y-102075955D01*
X117619043Y-101949524D01*
X117380293Y-101850200D01*
X117121707Y-101849802D01*
X116882653Y-101948391D01*
X116880957Y-101949524D01*
X116861310Y-102075955D01*
X115138690Y-102075955D01*
X115119043Y-101949524D01*
X114880293Y-101850200D01*
X114621707Y-101849802D01*
X114382653Y-101948391D01*
X114380957Y-101949524D01*
X114361310Y-102075955D01*
X113550000Y-102075955D01*
X113550000Y-100849990D01*
X113515746Y-100677782D01*
X113418198Y-100531792D01*
X113310451Y-100424045D01*
X114361310Y-100424045D01*
X114380957Y-100550476D01*
X114619707Y-100649800D01*
X114878293Y-100650198D01*
X115117347Y-100551609D01*
X115119043Y-100550476D01*
X115138690Y-100424045D01*
X116861310Y-100424045D01*
X116880957Y-100550476D01*
X117119707Y-100649800D01*
X117378293Y-100650198D01*
X117617347Y-100551609D01*
X117619043Y-100550476D01*
X117638690Y-100424045D01*
X119361310Y-100424045D01*
X119380957Y-100550476D01*
X119619707Y-100649800D01*
X119878293Y-100650198D01*
X120117347Y-100551609D01*
X120119043Y-100550476D01*
X120138690Y-100424045D01*
X119750000Y-100035355D01*
X119361310Y-100424045D01*
X117638690Y-100424045D01*
X117250000Y-100035355D01*
X116861310Y-100424045D01*
X115138690Y-100424045D01*
X114750000Y-100035355D01*
X114361310Y-100424045D01*
X113310451Y-100424045D01*
X113049988Y-100163582D01*
X113050018Y-100128293D01*
X114099802Y-100128293D01*
X114198391Y-100367347D01*
X114199524Y-100369043D01*
X114325955Y-100388690D01*
X114714645Y-100000000D01*
X114785355Y-100000000D01*
X115174045Y-100388690D01*
X115300476Y-100369043D01*
X115399800Y-100130293D01*
X115399803Y-100128293D01*
X116599802Y-100128293D01*
X116698391Y-100367347D01*
X116699524Y-100369043D01*
X116825955Y-100388690D01*
X117214645Y-100000000D01*
X117285355Y-100000000D01*
X117674045Y-100388690D01*
X117800476Y-100369043D01*
X117899800Y-100130293D01*
X117899803Y-100128293D01*
X119099802Y-100128293D01*
X119198391Y-100367347D01*
X119199524Y-100369043D01*
X119325955Y-100388690D01*
X119714645Y-100000000D01*
X119785355Y-100000000D01*
X120174045Y-100388690D01*
X120300476Y-100369043D01*
X120399800Y-100130293D01*
X120400198Y-99871707D01*
X120301609Y-99632653D01*
X120300476Y-99630957D01*
X120174045Y-99611310D01*
X119785355Y-100000000D01*
X119714645Y-100000000D01*
X119325955Y-99611310D01*
X119199524Y-99630957D01*
X119100200Y-99869707D01*
X119099802Y-100128293D01*
X117899803Y-100128293D01*
X117900198Y-99871707D01*
X117801609Y-99632653D01*
X117800476Y-99630957D01*
X117674045Y-99611310D01*
X117285355Y-100000000D01*
X117214645Y-100000000D01*
X116825955Y-99611310D01*
X116699524Y-99630957D01*
X116600200Y-99869707D01*
X116599802Y-100128293D01*
X115399803Y-100128293D01*
X115400198Y-99871707D01*
X115301609Y-99632653D01*
X115300476Y-99630957D01*
X115174045Y-99611310D01*
X114785355Y-100000000D01*
X114714645Y-100000000D01*
X114325955Y-99611310D01*
X114199524Y-99630957D01*
X114100200Y-99869707D01*
X114099802Y-100128293D01*
X113050018Y-100128293D01*
X113050112Y-100021264D01*
X113000665Y-99901594D01*
X113156855Y-99745677D01*
X113227329Y-99575955D01*
X114361310Y-99575955D01*
X114750000Y-99964645D01*
X115138690Y-99575955D01*
X116861310Y-99575955D01*
X117250000Y-99964645D01*
X117638690Y-99575955D01*
X119361310Y-99575955D01*
X119750000Y-99964645D01*
X120138690Y-99575955D01*
X120119043Y-99449524D01*
X119880293Y-99350200D01*
X119621707Y-99349802D01*
X119382653Y-99448391D01*
X119380957Y-99449524D01*
X119361310Y-99575955D01*
X117638690Y-99575955D01*
X117619043Y-99449524D01*
X117380293Y-99350200D01*
X117121707Y-99349802D01*
X116882653Y-99448391D01*
X116880957Y-99449524D01*
X116861310Y-99575955D01*
X115138690Y-99575955D01*
X115119043Y-99449524D01*
X114880293Y-99350200D01*
X114621707Y-99349802D01*
X114382653Y-99448391D01*
X114380957Y-99449524D01*
X114361310Y-99575955D01*
X113227329Y-99575955D01*
X113256020Y-99506861D01*
X113256245Y-99248275D01*
X113157497Y-99009287D01*
X112974809Y-98826279D01*
X112735993Y-98727114D01*
X112549977Y-98726952D01*
X112550112Y-98571274D01*
X112451364Y-98332286D01*
X112268676Y-98149278D01*
X112029860Y-98050113D01*
X111771274Y-98049888D01*
X111532286Y-98148636D01*
X111430744Y-98250000D01*
X111400000Y-98250000D01*
X111227792Y-98284254D01*
X111112690Y-98361163D01*
X111081802Y-98381802D01*
X110781802Y-98681802D01*
X110684254Y-98827792D01*
X110650000Y-99000000D01*
X110650000Y-101400000D01*
X110684254Y-101572208D01*
X110750448Y-101671274D01*
X110781802Y-101718198D01*
X110850012Y-101786408D01*
X110849888Y-101928726D01*
X110948636Y-102167714D01*
X111131324Y-102350722D01*
X111370140Y-102449887D01*
X111628726Y-102450112D01*
X111867714Y-102351364D01*
X112050722Y-102168676D01*
X112149887Y-101929860D01*
X112150000Y-101799992D01*
X112150000Y-104769130D01*
X112013603Y-104905527D01*
X111453689Y-104905527D01*
X111281481Y-104939781D01*
X111195362Y-104997324D01*
X111033195Y-104997183D01*
X110794207Y-105095931D01*
X110611199Y-105278619D01*
X110512034Y-105517435D01*
X110511809Y-105776021D01*
X109338951Y-105776021D01*
X109133115Y-105569826D01*
X108820817Y-105440148D01*
X108482666Y-105439853D01*
X108170143Y-105568985D01*
X107930826Y-105807885D01*
X107801148Y-106120183D01*
X107800853Y-106458334D01*
X107849058Y-106575000D01*
X107421024Y-106575000D01*
X107468852Y-106459817D01*
X107469147Y-106121666D01*
X107340015Y-105809143D01*
X107101115Y-105569826D01*
X106788817Y-105440148D01*
X106450666Y-105439853D01*
X106138143Y-105568985D01*
X105898826Y-105807885D01*
X105769148Y-106120183D01*
X105768853Y-106458334D01*
X105817058Y-106575000D01*
X101041860Y-106575000D01*
X100783144Y-106523538D01*
X100599300Y-106400698D01*
X100476462Y-106216857D01*
X100425000Y-105958140D01*
X100425000Y-104800459D01*
X100649250Y-104950298D01*
X100974531Y-105015000D01*
X101925469Y-105015000D01*
X102250750Y-104950298D01*
X102526510Y-104766041D01*
X102710767Y-104490281D01*
X102775469Y-104165000D01*
X102710767Y-103839719D01*
X102526510Y-103563959D01*
X102250750Y-103379702D01*
X101925469Y-103315000D01*
X100974531Y-103315000D01*
X100649250Y-103379702D01*
X100425000Y-103529541D01*
X100425000Y-102215000D01*
X103455899Y-102215000D01*
X103520601Y-102540281D01*
X103704858Y-102816041D01*
X103980618Y-103000298D01*
X104305899Y-103065000D01*
X104594101Y-103065000D01*
X104919382Y-103000298D01*
X105176157Y-102828726D01*
X105449888Y-102828726D01*
X105548636Y-103067714D01*
X105731324Y-103250722D01*
X105970140Y-103349887D01*
X106228726Y-103350112D01*
X106467714Y-103251364D01*
X106519168Y-103200000D01*
X108139035Y-103200000D01*
X108469595Y-103530560D01*
X108469533Y-103602230D01*
X108568281Y-103841218D01*
X108637786Y-103910844D01*
X108642590Y-103935000D01*
X106835124Y-103935000D01*
X106751364Y-103732286D01*
X106568676Y-103549278D01*
X106329860Y-103450113D01*
X106071274Y-103449888D01*
X105832286Y-103548636D01*
X105649278Y-103731324D01*
X105550113Y-103970140D01*
X105549888Y-104228726D01*
X105648636Y-104467714D01*
X105831324Y-104650722D01*
X106070140Y-104749887D01*
X106236894Y-104750032D01*
X106312792Y-104800746D01*
X106485000Y-104835000D01*
X108469565Y-104835000D01*
X108469533Y-104872231D01*
X108568281Y-105111219D01*
X108750969Y-105294227D01*
X108989785Y-105393392D01*
X109248371Y-105393617D01*
X109487359Y-105294869D01*
X109581629Y-105200764D01*
X109731324Y-105350722D01*
X109970140Y-105449887D01*
X110228726Y-105450112D01*
X110467714Y-105351364D01*
X110650722Y-105168676D01*
X110749887Y-104929860D01*
X110750112Y-104671274D01*
X110651364Y-104432286D01*
X110468676Y-104249278D01*
X110229860Y-104150113D01*
X110157156Y-104150050D01*
X109722863Y-103715756D01*
X109769532Y-103603364D01*
X109769757Y-103344778D01*
X109671009Y-103105790D01*
X109488321Y-102922782D01*
X109249505Y-102823617D01*
X109176801Y-102823554D01*
X108699694Y-102346447D01*
X108537483Y-102238060D01*
X108534668Y-102237500D01*
X108346141Y-102200000D01*
X107284999Y-102200000D01*
X107284999Y-101985033D01*
X107465183Y-102059852D01*
X107803334Y-102060147D01*
X108115857Y-101931015D01*
X108355174Y-101692115D01*
X108484852Y-101379817D01*
X108485147Y-101041666D01*
X108356015Y-100729143D01*
X108117115Y-100489826D01*
X107804817Y-100360148D01*
X107466666Y-100359853D01*
X107284999Y-100434916D01*
X107284999Y-98301820D01*
X107348791Y-98238028D01*
X107420461Y-98238090D01*
X107659449Y-98139342D01*
X107842457Y-97956654D01*
X107855997Y-97924045D01*
X114361310Y-97924045D01*
X114380957Y-98050476D01*
X114619707Y-98149800D01*
X114878293Y-98150198D01*
X115117347Y-98051609D01*
X115119043Y-98050476D01*
X115138690Y-97924045D01*
X116861310Y-97924045D01*
X116880957Y-98050476D01*
X117119707Y-98149800D01*
X117378293Y-98150198D01*
X117617347Y-98051609D01*
X117619043Y-98050476D01*
X117638690Y-97924045D01*
X119361310Y-97924045D01*
X119380957Y-98050476D01*
X119619707Y-98149800D01*
X119878293Y-98150198D01*
X120117347Y-98051609D01*
X120119043Y-98050476D01*
X120138690Y-97924045D01*
X119750000Y-97535355D01*
X119361310Y-97924045D01*
X117638690Y-97924045D01*
X117250000Y-97535355D01*
X116861310Y-97924045D01*
X115138690Y-97924045D01*
X114750000Y-97535355D01*
X114361310Y-97924045D01*
X107855997Y-97924045D01*
X107941622Y-97717838D01*
X107941699Y-97628293D01*
X114099802Y-97628293D01*
X114198391Y-97867347D01*
X114199524Y-97869043D01*
X114325955Y-97888690D01*
X114714645Y-97500000D01*
X114785355Y-97500000D01*
X115174045Y-97888690D01*
X115300476Y-97869043D01*
X115399800Y-97630293D01*
X115399803Y-97628293D01*
X116599802Y-97628293D01*
X116698391Y-97867347D01*
X116699524Y-97869043D01*
X116825955Y-97888690D01*
X117214645Y-97500000D01*
X117285355Y-97500000D01*
X117674045Y-97888690D01*
X117800476Y-97869043D01*
X117899800Y-97630293D01*
X117899803Y-97628293D01*
X119099802Y-97628293D01*
X119198391Y-97867347D01*
X119199524Y-97869043D01*
X119325955Y-97888690D01*
X119714645Y-97500000D01*
X119785355Y-97500000D01*
X120174045Y-97888690D01*
X120300476Y-97869043D01*
X120399800Y-97630293D01*
X120400198Y-97371707D01*
X120301609Y-97132653D01*
X120300476Y-97130957D01*
X120174045Y-97111310D01*
X119785355Y-97500000D01*
X119714645Y-97500000D01*
X119325955Y-97111310D01*
X119199524Y-97130957D01*
X119100200Y-97369707D01*
X119099802Y-97628293D01*
X117899803Y-97628293D01*
X117900198Y-97371707D01*
X117801609Y-97132653D01*
X117800476Y-97130957D01*
X117674045Y-97111310D01*
X117285355Y-97500000D01*
X117214645Y-97500000D01*
X116825955Y-97111310D01*
X116699524Y-97130957D01*
X116600200Y-97369707D01*
X116599802Y-97628293D01*
X115399803Y-97628293D01*
X115400198Y-97371707D01*
X115301609Y-97132653D01*
X115300476Y-97130957D01*
X115174045Y-97111310D01*
X114785355Y-97500000D01*
X114714645Y-97500000D01*
X114325955Y-97111310D01*
X114199524Y-97130957D01*
X114100200Y-97369707D01*
X114099802Y-97628293D01*
X107941699Y-97628293D01*
X107941847Y-97459252D01*
X107843099Y-97220264D01*
X107699043Y-97075955D01*
X114361310Y-97075955D01*
X114750000Y-97464645D01*
X115138690Y-97075955D01*
X116861310Y-97075955D01*
X117250000Y-97464645D01*
X117638690Y-97075955D01*
X119361310Y-97075955D01*
X119750000Y-97464645D01*
X120138690Y-97075955D01*
X120119043Y-96949524D01*
X119880293Y-96850200D01*
X119621707Y-96849802D01*
X119382653Y-96948391D01*
X119380957Y-96949524D01*
X119361310Y-97075955D01*
X117638690Y-97075955D01*
X117619043Y-96949524D01*
X117380293Y-96850200D01*
X117121707Y-96849802D01*
X116882653Y-96948391D01*
X116880957Y-96949524D01*
X116861310Y-97075955D01*
X115138690Y-97075955D01*
X115119043Y-96949524D01*
X114880293Y-96850200D01*
X114621707Y-96849802D01*
X114382653Y-96948391D01*
X114380957Y-96949524D01*
X114361310Y-97075955D01*
X107699043Y-97075955D01*
X107660411Y-97037256D01*
X107421595Y-96938091D01*
X107163009Y-96937866D01*
X106924021Y-97036614D01*
X106741013Y-97219302D01*
X106641848Y-97458118D01*
X106641785Y-97530822D01*
X106431446Y-97741161D01*
X106323059Y-97903372D01*
X106284999Y-98094714D01*
X106284999Y-102073009D01*
X106229860Y-102050113D01*
X105971274Y-102049888D01*
X105732286Y-102148636D01*
X105549278Y-102331324D01*
X105450113Y-102570140D01*
X105449888Y-102828726D01*
X105176157Y-102828726D01*
X105195142Y-102816041D01*
X105379399Y-102540281D01*
X105444101Y-102215000D01*
X105379399Y-101889719D01*
X105195142Y-101613959D01*
X104919382Y-101429702D01*
X104594101Y-101365000D01*
X104305899Y-101365000D01*
X103980618Y-101429702D01*
X103704858Y-101613959D01*
X103520601Y-101889719D01*
X103455899Y-102215000D01*
X100425000Y-102215000D01*
X100425000Y-97765000D01*
X103455899Y-97765000D01*
X103520601Y-98090281D01*
X103704858Y-98366041D01*
X103980618Y-98550298D01*
X104305899Y-98615000D01*
X104594101Y-98615000D01*
X104919382Y-98550298D01*
X105195142Y-98366041D01*
X105379399Y-98090281D01*
X105444101Y-97765000D01*
X105379399Y-97439719D01*
X105195142Y-97163959D01*
X104919382Y-96979702D01*
X104594101Y-96915000D01*
X104305899Y-96915000D01*
X103980618Y-96979702D01*
X103704858Y-97163959D01*
X103520601Y-97439719D01*
X103455899Y-97765000D01*
X100425000Y-97765000D01*
X100425000Y-96450459D01*
X100649250Y-96600298D01*
X100974531Y-96665000D01*
X101925469Y-96665000D01*
X102250750Y-96600298D01*
X102526510Y-96416041D01*
X102710767Y-96140281D01*
X102775469Y-95815000D01*
X102710767Y-95489719D01*
X102526510Y-95213959D01*
X102250750Y-95029702D01*
X101925469Y-94965000D01*
X100974531Y-94965000D01*
X100649250Y-95029702D01*
X100425000Y-95179541D01*
X100425000Y-94041860D01*
X100476462Y-93783143D01*
X100599300Y-93599302D01*
X100783144Y-93476462D01*
X101041860Y-93425000D01*
X121150013Y-93425000D01*
X121149888Y-93568715D01*
G36*
X121149888Y-109568715D02*
X121248636Y-109807703D01*
X121300000Y-109859157D01*
X121300000Y-112900000D01*
X121326122Y-113031324D01*
X121338060Y-113091342D01*
X121446447Y-113253553D01*
X121549950Y-113357057D01*
X121549888Y-113428726D01*
X121648636Y-113667714D01*
X121831324Y-113850722D01*
X122070140Y-113949887D01*
X122328726Y-113950112D01*
X122567714Y-113851364D01*
X122750722Y-113668676D01*
X122849887Y-113429860D01*
X122850112Y-113171274D01*
X122751364Y-112932286D01*
X122568676Y-112749278D01*
X122329860Y-112650113D01*
X122300000Y-112650087D01*
X122300000Y-109859298D01*
X122350722Y-109808665D01*
X122449887Y-109569849D01*
X122450013Y-109425000D01*
X129208719Y-109425000D01*
X129101175Y-109494203D01*
X129021259Y-109611163D01*
X128993144Y-109750000D01*
X128993144Y-111550000D01*
X129017549Y-111679702D01*
X129094203Y-111798825D01*
X129211163Y-111878741D01*
X129350000Y-111906856D01*
X132065061Y-111906856D01*
X131984254Y-112027792D01*
X131950000Y-112200000D01*
X131950000Y-112930778D01*
X131849278Y-113031324D01*
X131750113Y-113270140D01*
X131749888Y-113528726D01*
X131848636Y-113767714D01*
X132031324Y-113950722D01*
X132270140Y-114049887D01*
X132528726Y-114050112D01*
X132767714Y-113951364D01*
X132950722Y-113768676D01*
X133049887Y-113529860D01*
X133050112Y-113271274D01*
X132951364Y-113032286D01*
X132850000Y-112930744D01*
X132850000Y-112386396D01*
X132886396Y-112350000D01*
X133340002Y-112350000D01*
X133512210Y-112315746D01*
X133658200Y-112218198D01*
X133818198Y-112058200D01*
X133915746Y-111912210D01*
X133950000Y-111740002D01*
X133950000Y-110810660D01*
X134018198Y-110742462D01*
X134115746Y-110596472D01*
X134138842Y-110480361D01*
X134250722Y-110368676D01*
X134349887Y-110129860D01*
X134350112Y-109871274D01*
X134251364Y-109632286D01*
X134068676Y-109449278D01*
X134010208Y-109425000D01*
X135958140Y-109425000D01*
X136216857Y-109476462D01*
X136400698Y-109599300D01*
X136523538Y-109783144D01*
X136575000Y-110041860D01*
X136575000Y-121958140D01*
X136523538Y-122216856D01*
X136400698Y-122400700D01*
X136216857Y-122523538D01*
X135958140Y-122575000D01*
X133291281Y-122575000D01*
X133398825Y-122505797D01*
X133478741Y-122388837D01*
X133506856Y-122250000D01*
X133506856Y-120450000D01*
X133482451Y-120320298D01*
X133405797Y-120201175D01*
X133288837Y-120121259D01*
X133150000Y-120093144D01*
X129350000Y-120093144D01*
X129220298Y-120117549D01*
X129101175Y-120194203D01*
X129021259Y-120311163D01*
X128993144Y-120450000D01*
X128993144Y-122250000D01*
X129017549Y-122379702D01*
X129094203Y-122498825D01*
X129205688Y-122575000D01*
X126752763Y-122575000D01*
X126854994Y-122472948D01*
X126954159Y-122234132D01*
X126954384Y-121975546D01*
X126855636Y-121736558D01*
X126672948Y-121553550D01*
X126434132Y-121454385D01*
X126175546Y-121454160D01*
X125936558Y-121552908D01*
X125753550Y-121735596D01*
X125654385Y-121974412D01*
X125654319Y-122050000D01*
X121780395Y-122050000D01*
X121780437Y-122001599D01*
X121681689Y-121762611D01*
X121499001Y-121579603D01*
X121260185Y-121480438D01*
X121001599Y-121480213D01*
X120762611Y-121578961D01*
X120579603Y-121761649D01*
X120480438Y-122000465D01*
X120480213Y-122259051D01*
X120578961Y-122498039D01*
X120655787Y-122575000D01*
X109453024Y-122575000D01*
X109500852Y-122459817D01*
X109501147Y-122121666D01*
X109372015Y-121809143D01*
X109338951Y-121776021D01*
X110511809Y-121776021D01*
X110610557Y-122015009D01*
X110793245Y-122198017D01*
X111032061Y-122297182D01*
X111290647Y-122297407D01*
X111529635Y-122198659D01*
X111712643Y-122015971D01*
X111800027Y-121805527D01*
X112199999Y-121805527D01*
X112372207Y-121771273D01*
X112449983Y-121719304D01*
X112449888Y-121828726D01*
X112548636Y-122067714D01*
X112731324Y-122250722D01*
X112970140Y-122349887D01*
X113228726Y-122350112D01*
X113467714Y-122251364D01*
X113650722Y-122068676D01*
X113749887Y-121829860D01*
X113750112Y-121571274D01*
X113651364Y-121332286D01*
X113550000Y-121230744D01*
X113550000Y-120674531D01*
X127200000Y-120674531D01*
X127200000Y-121725469D01*
X127260896Y-122031616D01*
X127434315Y-122291154D01*
X127693853Y-122464573D01*
X128000000Y-122525469D01*
X128306147Y-122464573D01*
X128565685Y-122291154D01*
X128739104Y-122031616D01*
X128800000Y-121725469D01*
X128800000Y-120674531D01*
X128739104Y-120368384D01*
X128565685Y-120108846D01*
X128306147Y-119935427D01*
X128000000Y-119874531D01*
X127693853Y-119935427D01*
X127434315Y-120108846D01*
X127260896Y-120368384D01*
X127200000Y-120674531D01*
X113550000Y-120674531D01*
X113550000Y-119461745D01*
X120499881Y-119461745D01*
X120598629Y-119700733D01*
X120781317Y-119883741D01*
X121020133Y-119982906D01*
X121278719Y-119983131D01*
X121517707Y-119884383D01*
X121700715Y-119701695D01*
X121799880Y-119462879D01*
X121800005Y-119319403D01*
X121918198Y-119201210D01*
X121977472Y-119112500D01*
X124800000Y-119112500D01*
X124800000Y-119569619D01*
X124853284Y-119698259D01*
X124951741Y-119796715D01*
X125080380Y-119850000D01*
X126537500Y-119850000D01*
X126625000Y-119762500D01*
X126625000Y-119025000D01*
X126675000Y-119025000D01*
X126675000Y-119762500D01*
X126762500Y-119850000D01*
X128219620Y-119850000D01*
X128348259Y-119796715D01*
X128446716Y-119698259D01*
X128500000Y-119569619D01*
X128500000Y-119112500D01*
X128412500Y-119025000D01*
X126675000Y-119025000D01*
X126625000Y-119025000D01*
X124887500Y-119025000D01*
X124800000Y-119112500D01*
X121977472Y-119112500D01*
X122015746Y-119055220D01*
X122050000Y-118883012D01*
X122050000Y-116500000D01*
X124793144Y-116500000D01*
X124793144Y-117500000D01*
X124817549Y-117629702D01*
X124894203Y-117748825D01*
X125011163Y-117828741D01*
X125150000Y-117856856D01*
X125760023Y-117856856D01*
X125759890Y-118009693D01*
X125817864Y-118150000D01*
X125080380Y-118150000D01*
X124951741Y-118203285D01*
X124853284Y-118301741D01*
X124800000Y-118430381D01*
X124800000Y-118887500D01*
X124887500Y-118975000D01*
X126625000Y-118975000D01*
X126625000Y-118955000D01*
X126675000Y-118955000D01*
X126675000Y-118975000D01*
X128412500Y-118975000D01*
X128500000Y-118887500D01*
X128500000Y-118430381D01*
X128446716Y-118301741D01*
X128348259Y-118203285D01*
X128219620Y-118150000D01*
X127002099Y-118150000D01*
X127059889Y-118010827D01*
X127060023Y-117856856D01*
X128150000Y-117856856D01*
X128279702Y-117832451D01*
X128398825Y-117755797D01*
X128478741Y-117638837D01*
X128506856Y-117500000D01*
X128506856Y-116500000D01*
X128482451Y-116370298D01*
X128405797Y-116251175D01*
X128288837Y-116171259D01*
X128150000Y-116143144D01*
X125150000Y-116143144D01*
X125020298Y-116167549D01*
X124901175Y-116244203D01*
X124821259Y-116361163D01*
X124793144Y-116500000D01*
X122050000Y-116500000D01*
X122050000Y-116329224D01*
X122150722Y-116228678D01*
X122249887Y-115989862D01*
X122250112Y-115731276D01*
X122151364Y-115492288D01*
X122138658Y-115479559D01*
X123996680Y-115479559D01*
X124095428Y-115718547D01*
X124278116Y-115901555D01*
X124516932Y-116000720D01*
X124775518Y-116000945D01*
X125014506Y-115902197D01*
X125075117Y-115841692D01*
X125150000Y-115856856D01*
X128150000Y-115856856D01*
X128279702Y-115832451D01*
X128398825Y-115755797D01*
X128478741Y-115638837D01*
X128506856Y-115500000D01*
X128506856Y-114500000D01*
X128482451Y-114370298D01*
X128405797Y-114251175D01*
X128288837Y-114171259D01*
X128150000Y-114143144D01*
X125363962Y-114143144D01*
X125650251Y-113856856D01*
X128150000Y-113856856D01*
X128279702Y-113832451D01*
X128398825Y-113755797D01*
X128478741Y-113638837D01*
X128506856Y-113500000D01*
X128506856Y-112500000D01*
X128482451Y-112370298D01*
X128405797Y-112251175D01*
X128288837Y-112171259D01*
X128150000Y-112143144D01*
X125993252Y-112143144D01*
X127144927Y-110991469D01*
X127213536Y-110991529D01*
X127321397Y-111252572D01*
X127546245Y-111477812D01*
X127840172Y-111599861D01*
X128158432Y-111600139D01*
X128452572Y-111478603D01*
X128677812Y-111253755D01*
X128799861Y-110959828D01*
X128800139Y-110641568D01*
X128678603Y-110347428D01*
X128453755Y-110122188D01*
X128159828Y-110000139D01*
X127841568Y-109999861D01*
X127738296Y-110042532D01*
X127709883Y-109973767D01*
X127527195Y-109790759D01*
X127288379Y-109691594D01*
X127029793Y-109691369D01*
X126790805Y-109790117D01*
X126607797Y-109972805D01*
X126508632Y-110211621D01*
X126508507Y-110355097D01*
X125213604Y-111650000D01*
X125009998Y-111650000D01*
X124837790Y-111684254D01*
X124772630Y-111727793D01*
X124691800Y-111781802D01*
X124481802Y-111991800D01*
X124384254Y-112137790D01*
X124350000Y-112309998D01*
X124350000Y-112645665D01*
X124282284Y-112673645D01*
X124099276Y-112856333D01*
X124000111Y-113095149D01*
X123999886Y-113353735D01*
X124098634Y-113592723D01*
X124193222Y-113687477D01*
X124137502Y-113743100D01*
X124038337Y-113981916D01*
X124038112Y-114240502D01*
X124136860Y-114479490D01*
X124319548Y-114662498D01*
X124464701Y-114722771D01*
X124279078Y-114799469D01*
X124096070Y-114982157D01*
X123996905Y-115220973D01*
X123996680Y-115479559D01*
X122138658Y-115479559D01*
X121968676Y-115309280D01*
X121729860Y-115210115D01*
X121471274Y-115209890D01*
X121232286Y-115308638D01*
X121049278Y-115491326D01*
X120950113Y-115730142D01*
X120949888Y-115988728D01*
X121048636Y-116227716D01*
X121150000Y-116329258D01*
X121150000Y-118683019D01*
X121021267Y-118682907D01*
X120782279Y-118781655D01*
X120599271Y-118964343D01*
X120500106Y-119203159D01*
X120499881Y-119461745D01*
X113550000Y-119461745D01*
X113550000Y-118924045D01*
X114361310Y-118924045D01*
X114380957Y-119050476D01*
X114619707Y-119149800D01*
X114878293Y-119150198D01*
X115117347Y-119051609D01*
X115119043Y-119050476D01*
X115138690Y-118924045D01*
X116861310Y-118924045D01*
X116880957Y-119050476D01*
X117119707Y-119149800D01*
X117378293Y-119150198D01*
X117617347Y-119051609D01*
X117619043Y-119050476D01*
X117638690Y-118924045D01*
X119361310Y-118924045D01*
X119380957Y-119050476D01*
X119619707Y-119149800D01*
X119878293Y-119150198D01*
X120117347Y-119051609D01*
X120119043Y-119050476D01*
X120138690Y-118924045D01*
X119750000Y-118535355D01*
X119361310Y-118924045D01*
X117638690Y-118924045D01*
X117250000Y-118535355D01*
X116861310Y-118924045D01*
X115138690Y-118924045D01*
X114750000Y-118535355D01*
X114361310Y-118924045D01*
X113550000Y-118924045D01*
X113550000Y-118628293D01*
X114099802Y-118628293D01*
X114198391Y-118867347D01*
X114199524Y-118869043D01*
X114325955Y-118888690D01*
X114714645Y-118500000D01*
X114785355Y-118500000D01*
X115174045Y-118888690D01*
X115300476Y-118869043D01*
X115399800Y-118630293D01*
X115399803Y-118628293D01*
X116599802Y-118628293D01*
X116698391Y-118867347D01*
X116699524Y-118869043D01*
X116825955Y-118888690D01*
X117214645Y-118500000D01*
X117285355Y-118500000D01*
X117674045Y-118888690D01*
X117800476Y-118869043D01*
X117899800Y-118630293D01*
X117899803Y-118628293D01*
X119099802Y-118628293D01*
X119198391Y-118867347D01*
X119199524Y-118869043D01*
X119325955Y-118888690D01*
X119714645Y-118500000D01*
X119785355Y-118500000D01*
X120174045Y-118888690D01*
X120300476Y-118869043D01*
X120399800Y-118630293D01*
X120400198Y-118371707D01*
X120301609Y-118132653D01*
X120300476Y-118130957D01*
X120174045Y-118111310D01*
X119785355Y-118500000D01*
X119714645Y-118500000D01*
X119325955Y-118111310D01*
X119199524Y-118130957D01*
X119100200Y-118369707D01*
X119099802Y-118628293D01*
X117899803Y-118628293D01*
X117900198Y-118371707D01*
X117801609Y-118132653D01*
X117800476Y-118130957D01*
X117674045Y-118111310D01*
X117285355Y-118500000D01*
X117214645Y-118500000D01*
X116825955Y-118111310D01*
X116699524Y-118130957D01*
X116600200Y-118369707D01*
X116599802Y-118628293D01*
X115399803Y-118628293D01*
X115400198Y-118371707D01*
X115301609Y-118132653D01*
X115300476Y-118130957D01*
X115174045Y-118111310D01*
X114785355Y-118500000D01*
X114714645Y-118500000D01*
X114325955Y-118111310D01*
X114199524Y-118130957D01*
X114100200Y-118369707D01*
X114099802Y-118628293D01*
X113550000Y-118628293D01*
X113550000Y-118075955D01*
X114361310Y-118075955D01*
X114750000Y-118464645D01*
X115138690Y-118075955D01*
X116861310Y-118075955D01*
X117250000Y-118464645D01*
X117638690Y-118075955D01*
X119361310Y-118075955D01*
X119750000Y-118464645D01*
X120138690Y-118075955D01*
X120119043Y-117949524D01*
X119880293Y-117850200D01*
X119621707Y-117849802D01*
X119382653Y-117948391D01*
X119380957Y-117949524D01*
X119361310Y-118075955D01*
X117638690Y-118075955D01*
X117619043Y-117949524D01*
X117380293Y-117850200D01*
X117121707Y-117849802D01*
X116882653Y-117948391D01*
X116880957Y-117949524D01*
X116861310Y-118075955D01*
X115138690Y-118075955D01*
X115119043Y-117949524D01*
X114880293Y-117850200D01*
X114621707Y-117849802D01*
X114382653Y-117948391D01*
X114380957Y-117949524D01*
X114361310Y-118075955D01*
X113550000Y-118075955D01*
X113550000Y-116849990D01*
X113515746Y-116677782D01*
X113418198Y-116531792D01*
X113310451Y-116424045D01*
X114361310Y-116424045D01*
X114380957Y-116550476D01*
X114619707Y-116649800D01*
X114878293Y-116650198D01*
X115117347Y-116551609D01*
X115119043Y-116550476D01*
X115138690Y-116424045D01*
X116861310Y-116424045D01*
X116880957Y-116550476D01*
X117119707Y-116649800D01*
X117378293Y-116650198D01*
X117617347Y-116551609D01*
X117619043Y-116550476D01*
X117638690Y-116424045D01*
X119361310Y-116424045D01*
X119380957Y-116550476D01*
X119619707Y-116649800D01*
X119878293Y-116650198D01*
X120117347Y-116551609D01*
X120119043Y-116550476D01*
X120138690Y-116424045D01*
X119750000Y-116035355D01*
X119361310Y-116424045D01*
X117638690Y-116424045D01*
X117250000Y-116035355D01*
X116861310Y-116424045D01*
X115138690Y-116424045D01*
X114750000Y-116035355D01*
X114361310Y-116424045D01*
X113310451Y-116424045D01*
X113049988Y-116163582D01*
X113050018Y-116128293D01*
X114099802Y-116128293D01*
X114198391Y-116367347D01*
X114199524Y-116369043D01*
X114325955Y-116388690D01*
X114714645Y-116000000D01*
X114785355Y-116000000D01*
X115174045Y-116388690D01*
X115300476Y-116369043D01*
X115399800Y-116130293D01*
X115399803Y-116128293D01*
X116599802Y-116128293D01*
X116698391Y-116367347D01*
X116699524Y-116369043D01*
X116825955Y-116388690D01*
X117214645Y-116000000D01*
X117285355Y-116000000D01*
X117674045Y-116388690D01*
X117800476Y-116369043D01*
X117899800Y-116130293D01*
X117899803Y-116128293D01*
X119099802Y-116128293D01*
X119198391Y-116367347D01*
X119199524Y-116369043D01*
X119325955Y-116388690D01*
X119714645Y-116000000D01*
X119785355Y-116000000D01*
X120174045Y-116388690D01*
X120300476Y-116369043D01*
X120399800Y-116130293D01*
X120400198Y-115871707D01*
X120301609Y-115632653D01*
X120300476Y-115630957D01*
X120174045Y-115611310D01*
X119785355Y-116000000D01*
X119714645Y-116000000D01*
X119325955Y-115611310D01*
X119199524Y-115630957D01*
X119100200Y-115869707D01*
X119099802Y-116128293D01*
X117899803Y-116128293D01*
X117900198Y-115871707D01*
X117801609Y-115632653D01*
X117800476Y-115630957D01*
X117674045Y-115611310D01*
X117285355Y-116000000D01*
X117214645Y-116000000D01*
X116825955Y-115611310D01*
X116699524Y-115630957D01*
X116600200Y-115869707D01*
X116599802Y-116128293D01*
X115399803Y-116128293D01*
X115400198Y-115871707D01*
X115301609Y-115632653D01*
X115300476Y-115630957D01*
X115174045Y-115611310D01*
X114785355Y-116000000D01*
X114714645Y-116000000D01*
X114325955Y-115611310D01*
X114199524Y-115630957D01*
X114100200Y-115869707D01*
X114099802Y-116128293D01*
X113050018Y-116128293D01*
X113050112Y-116021264D01*
X113000665Y-115901594D01*
X113156855Y-115745677D01*
X113227329Y-115575955D01*
X114361310Y-115575955D01*
X114750000Y-115964645D01*
X115138690Y-115575955D01*
X116861310Y-115575955D01*
X117250000Y-115964645D01*
X117638690Y-115575955D01*
X119361310Y-115575955D01*
X119750000Y-115964645D01*
X120138690Y-115575955D01*
X120119043Y-115449524D01*
X119880293Y-115350200D01*
X119621707Y-115349802D01*
X119382653Y-115448391D01*
X119380957Y-115449524D01*
X119361310Y-115575955D01*
X117638690Y-115575955D01*
X117619043Y-115449524D01*
X117380293Y-115350200D01*
X117121707Y-115349802D01*
X116882653Y-115448391D01*
X116880957Y-115449524D01*
X116861310Y-115575955D01*
X115138690Y-115575955D01*
X115119043Y-115449524D01*
X114880293Y-115350200D01*
X114621707Y-115349802D01*
X114382653Y-115448391D01*
X114380957Y-115449524D01*
X114361310Y-115575955D01*
X113227329Y-115575955D01*
X113256020Y-115506861D01*
X113256245Y-115248275D01*
X113157497Y-115009287D01*
X112974809Y-114826279D01*
X112735993Y-114727114D01*
X112549977Y-114726952D01*
X112550112Y-114571274D01*
X112451364Y-114332286D01*
X112268676Y-114149278D01*
X112029860Y-114050113D01*
X111771274Y-114049888D01*
X111532286Y-114148636D01*
X111430744Y-114250000D01*
X111400000Y-114250000D01*
X111227792Y-114284254D01*
X111112690Y-114361163D01*
X111081802Y-114381802D01*
X110781802Y-114681802D01*
X110684254Y-114827792D01*
X110650000Y-115000000D01*
X110650000Y-117400000D01*
X110684254Y-117572208D01*
X110750448Y-117671274D01*
X110781802Y-117718198D01*
X110850012Y-117786408D01*
X110849888Y-117928726D01*
X110948636Y-118167714D01*
X111131324Y-118350722D01*
X111370140Y-118449887D01*
X111628726Y-118450112D01*
X111867714Y-118351364D01*
X112050722Y-118168676D01*
X112149887Y-117929860D01*
X112150000Y-117799992D01*
X112150000Y-120769130D01*
X112013603Y-120905527D01*
X111453689Y-120905527D01*
X111281481Y-120939781D01*
X111195362Y-120997324D01*
X111033195Y-120997183D01*
X110794207Y-121095931D01*
X110611199Y-121278619D01*
X110512034Y-121517435D01*
X110511809Y-121776021D01*
X109338951Y-121776021D01*
X109133115Y-121569826D01*
X108820817Y-121440148D01*
X108482666Y-121439853D01*
X108170143Y-121568985D01*
X107930826Y-121807885D01*
X107801148Y-122120183D01*
X107800853Y-122458334D01*
X107849058Y-122575000D01*
X107421024Y-122575000D01*
X107468852Y-122459817D01*
X107469147Y-122121666D01*
X107340015Y-121809143D01*
X107101115Y-121569826D01*
X106788817Y-121440148D01*
X106450666Y-121439853D01*
X106138143Y-121568985D01*
X105898826Y-121807885D01*
X105769148Y-122120183D01*
X105768853Y-122458334D01*
X105817058Y-122575000D01*
X101041860Y-122575000D01*
X100783144Y-122523538D01*
X100599300Y-122400698D01*
X100476462Y-122216857D01*
X100425000Y-121958140D01*
X100425000Y-120800459D01*
X100649250Y-120950298D01*
X100974531Y-121015000D01*
X101925469Y-121015000D01*
X102250750Y-120950298D01*
X102526510Y-120766041D01*
X102710767Y-120490281D01*
X102775469Y-120165000D01*
X102710767Y-119839719D01*
X102526510Y-119563959D01*
X102250750Y-119379702D01*
X101925469Y-119315000D01*
X100974531Y-119315000D01*
X100649250Y-119379702D01*
X100425000Y-119529541D01*
X100425000Y-118215000D01*
X103455899Y-118215000D01*
X103520601Y-118540281D01*
X103704858Y-118816041D01*
X103980618Y-119000298D01*
X104305899Y-119065000D01*
X104594101Y-119065000D01*
X104919382Y-119000298D01*
X105176157Y-118828726D01*
X105449888Y-118828726D01*
X105548636Y-119067714D01*
X105731324Y-119250722D01*
X105970140Y-119349887D01*
X106228726Y-119350112D01*
X106467714Y-119251364D01*
X106519168Y-119200000D01*
X108139035Y-119200000D01*
X108469595Y-119530560D01*
X108469533Y-119602230D01*
X108568281Y-119841218D01*
X108637786Y-119910844D01*
X108642590Y-119935000D01*
X106835124Y-119935000D01*
X106751364Y-119732286D01*
X106568676Y-119549278D01*
X106329860Y-119450113D01*
X106071274Y-119449888D01*
X105832286Y-119548636D01*
X105649278Y-119731324D01*
X105550113Y-119970140D01*
X105549888Y-120228726D01*
X105648636Y-120467714D01*
X105831324Y-120650722D01*
X106070140Y-120749887D01*
X106236894Y-120750032D01*
X106312792Y-120800746D01*
X106485000Y-120835000D01*
X108469565Y-120835000D01*
X108469533Y-120872231D01*
X108568281Y-121111219D01*
X108750969Y-121294227D01*
X108989785Y-121393392D01*
X109248371Y-121393617D01*
X109487359Y-121294869D01*
X109581629Y-121200764D01*
X109731324Y-121350722D01*
X109970140Y-121449887D01*
X110228726Y-121450112D01*
X110467714Y-121351364D01*
X110650722Y-121168676D01*
X110749887Y-120929860D01*
X110750112Y-120671274D01*
X110651364Y-120432286D01*
X110468676Y-120249278D01*
X110229860Y-120150113D01*
X110157156Y-120150050D01*
X109722863Y-119715756D01*
X109769532Y-119603364D01*
X109769757Y-119344778D01*
X109671009Y-119105790D01*
X109488321Y-118922782D01*
X109249505Y-118823617D01*
X109176801Y-118823554D01*
X108699694Y-118346447D01*
X108537483Y-118238060D01*
X108534668Y-118237500D01*
X108346141Y-118200000D01*
X107284999Y-118200000D01*
X107284999Y-117985033D01*
X107465183Y-118059852D01*
X107803334Y-118060147D01*
X108115857Y-117931015D01*
X108355174Y-117692115D01*
X108484852Y-117379817D01*
X108485147Y-117041666D01*
X108356015Y-116729143D01*
X108117115Y-116489826D01*
X107804817Y-116360148D01*
X107466666Y-116359853D01*
X107284999Y-116434916D01*
X107284999Y-114301820D01*
X107348791Y-114238028D01*
X107420461Y-114238090D01*
X107659449Y-114139342D01*
X107842457Y-113956654D01*
X107855997Y-113924045D01*
X114361310Y-113924045D01*
X114380957Y-114050476D01*
X114619707Y-114149800D01*
X114878293Y-114150198D01*
X115117347Y-114051609D01*
X115119043Y-114050476D01*
X115138690Y-113924045D01*
X116861310Y-113924045D01*
X116880957Y-114050476D01*
X117119707Y-114149800D01*
X117378293Y-114150198D01*
X117617347Y-114051609D01*
X117619043Y-114050476D01*
X117638690Y-113924045D01*
X119361310Y-113924045D01*
X119380957Y-114050476D01*
X119619707Y-114149800D01*
X119878293Y-114150198D01*
X120117347Y-114051609D01*
X120119043Y-114050476D01*
X120138690Y-113924045D01*
X119750000Y-113535355D01*
X119361310Y-113924045D01*
X117638690Y-113924045D01*
X117250000Y-113535355D01*
X116861310Y-113924045D01*
X115138690Y-113924045D01*
X114750000Y-113535355D01*
X114361310Y-113924045D01*
X107855997Y-113924045D01*
X107941622Y-113717838D01*
X107941699Y-113628293D01*
X114099802Y-113628293D01*
X114198391Y-113867347D01*
X114199524Y-113869043D01*
X114325955Y-113888690D01*
X114714645Y-113500000D01*
X114785355Y-113500000D01*
X115174045Y-113888690D01*
X115300476Y-113869043D01*
X115399800Y-113630293D01*
X115399803Y-113628293D01*
X116599802Y-113628293D01*
X116698391Y-113867347D01*
X116699524Y-113869043D01*
X116825955Y-113888690D01*
X117214645Y-113500000D01*
X117285355Y-113500000D01*
X117674045Y-113888690D01*
X117800476Y-113869043D01*
X117899800Y-113630293D01*
X117899803Y-113628293D01*
X119099802Y-113628293D01*
X119198391Y-113867347D01*
X119199524Y-113869043D01*
X119325955Y-113888690D01*
X119714645Y-113500000D01*
X119785355Y-113500000D01*
X120174045Y-113888690D01*
X120300476Y-113869043D01*
X120399800Y-113630293D01*
X120400198Y-113371707D01*
X120301609Y-113132653D01*
X120300476Y-113130957D01*
X120174045Y-113111310D01*
X119785355Y-113500000D01*
X119714645Y-113500000D01*
X119325955Y-113111310D01*
X119199524Y-113130957D01*
X119100200Y-113369707D01*
X119099802Y-113628293D01*
X117899803Y-113628293D01*
X117900198Y-113371707D01*
X117801609Y-113132653D01*
X117800476Y-113130957D01*
X117674045Y-113111310D01*
X117285355Y-113500000D01*
X117214645Y-113500000D01*
X116825955Y-113111310D01*
X116699524Y-113130957D01*
X116600200Y-113369707D01*
X116599802Y-113628293D01*
X115399803Y-113628293D01*
X115400198Y-113371707D01*
X115301609Y-113132653D01*
X115300476Y-113130957D01*
X115174045Y-113111310D01*
X114785355Y-113500000D01*
X114714645Y-113500000D01*
X114325955Y-113111310D01*
X114199524Y-113130957D01*
X114100200Y-113369707D01*
X114099802Y-113628293D01*
X107941699Y-113628293D01*
X107941847Y-113459252D01*
X107843099Y-113220264D01*
X107699043Y-113075955D01*
X114361310Y-113075955D01*
X114750000Y-113464645D01*
X115138690Y-113075955D01*
X116861310Y-113075955D01*
X117250000Y-113464645D01*
X117638690Y-113075955D01*
X119361310Y-113075955D01*
X119750000Y-113464645D01*
X120138690Y-113075955D01*
X120119043Y-112949524D01*
X119880293Y-112850200D01*
X119621707Y-112849802D01*
X119382653Y-112948391D01*
X119380957Y-112949524D01*
X119361310Y-113075955D01*
X117638690Y-113075955D01*
X117619043Y-112949524D01*
X117380293Y-112850200D01*
X117121707Y-112849802D01*
X116882653Y-112948391D01*
X116880957Y-112949524D01*
X116861310Y-113075955D01*
X115138690Y-113075955D01*
X115119043Y-112949524D01*
X114880293Y-112850200D01*
X114621707Y-112849802D01*
X114382653Y-112948391D01*
X114380957Y-112949524D01*
X114361310Y-113075955D01*
X107699043Y-113075955D01*
X107660411Y-113037256D01*
X107421595Y-112938091D01*
X107163009Y-112937866D01*
X106924021Y-113036614D01*
X106741013Y-113219302D01*
X106641848Y-113458118D01*
X106641785Y-113530822D01*
X106431446Y-113741161D01*
X106323059Y-113903372D01*
X106284999Y-114094714D01*
X106284999Y-118073009D01*
X106229860Y-118050113D01*
X105971274Y-118049888D01*
X105732286Y-118148636D01*
X105549278Y-118331324D01*
X105450113Y-118570140D01*
X105449888Y-118828726D01*
X105176157Y-118828726D01*
X105195142Y-118816041D01*
X105379399Y-118540281D01*
X105444101Y-118215000D01*
X105379399Y-117889719D01*
X105195142Y-117613959D01*
X104919382Y-117429702D01*
X104594101Y-117365000D01*
X104305899Y-117365000D01*
X103980618Y-117429702D01*
X103704858Y-117613959D01*
X103520601Y-117889719D01*
X103455899Y-118215000D01*
X100425000Y-118215000D01*
X100425000Y-113765000D01*
X103455899Y-113765000D01*
X103520601Y-114090281D01*
X103704858Y-114366041D01*
X103980618Y-114550298D01*
X104305899Y-114615000D01*
X104594101Y-114615000D01*
X104919382Y-114550298D01*
X105195142Y-114366041D01*
X105379399Y-114090281D01*
X105444101Y-113765000D01*
X105379399Y-113439719D01*
X105195142Y-113163959D01*
X104919382Y-112979702D01*
X104594101Y-112915000D01*
X104305899Y-112915000D01*
X103980618Y-112979702D01*
X103704858Y-113163959D01*
X103520601Y-113439719D01*
X103455899Y-113765000D01*
X100425000Y-113765000D01*
X100425000Y-112450459D01*
X100649250Y-112600298D01*
X100974531Y-112665000D01*
X101925469Y-112665000D01*
X102250750Y-112600298D01*
X102526510Y-112416041D01*
X102710767Y-112140281D01*
X102775469Y-111815000D01*
X102710767Y-111489719D01*
X102526510Y-111213959D01*
X102250750Y-111029702D01*
X101925469Y-110965000D01*
X100974531Y-110965000D01*
X100649250Y-111029702D01*
X100425000Y-111179541D01*
X100425000Y-110041860D01*
X100476462Y-109783143D01*
X100599300Y-109599302D01*
X100783144Y-109476462D01*
X101041860Y-109425000D01*
X121150013Y-109425000D01*
X121149888Y-109568715D01*
X121149888Y-109568715D01*
G37*
X121149888Y-109568715D02*
X121248636Y-109807703D01*
X121300000Y-109859157D01*
X121300000Y-112900000D01*
X121326122Y-113031324D01*
X121338060Y-113091342D01*
X121446447Y-113253553D01*
X121549950Y-113357057D01*
X121549888Y-113428726D01*
X121648636Y-113667714D01*
X121831324Y-113850722D01*
X122070140Y-113949887D01*
X122328726Y-113950112D01*
X122567714Y-113851364D01*
X122750722Y-113668676D01*
X122849887Y-113429860D01*
X122850112Y-113171274D01*
X122751364Y-112932286D01*
X122568676Y-112749278D01*
X122329860Y-112650113D01*
X122300000Y-112650087D01*
X122300000Y-109859298D01*
X122350722Y-109808665D01*
X122449887Y-109569849D01*
X122450013Y-109425000D01*
X129208719Y-109425000D01*
X129101175Y-109494203D01*
X129021259Y-109611163D01*
X128993144Y-109750000D01*
X128993144Y-111550000D01*
X129017549Y-111679702D01*
X129094203Y-111798825D01*
X129211163Y-111878741D01*
X129350000Y-111906856D01*
X132065061Y-111906856D01*
X131984254Y-112027792D01*
X131950000Y-112200000D01*
X131950000Y-112930778D01*
X131849278Y-113031324D01*
X131750113Y-113270140D01*
X131749888Y-113528726D01*
X131848636Y-113767714D01*
X132031324Y-113950722D01*
X132270140Y-114049887D01*
X132528726Y-114050112D01*
X132767714Y-113951364D01*
X132950722Y-113768676D01*
X133049887Y-113529860D01*
X133050112Y-113271274D01*
X132951364Y-113032286D01*
X132850000Y-112930744D01*
X132850000Y-112386396D01*
X132886396Y-112350000D01*
X133340002Y-112350000D01*
X133512210Y-112315746D01*
X133658200Y-112218198D01*
X133818198Y-112058200D01*
X133915746Y-111912210D01*
X133950000Y-111740002D01*
X133950000Y-110810660D01*
X134018198Y-110742462D01*
X134115746Y-110596472D01*
X134138842Y-110480361D01*
X134250722Y-110368676D01*
X134349887Y-110129860D01*
X134350112Y-109871274D01*
X134251364Y-109632286D01*
X134068676Y-109449278D01*
X134010208Y-109425000D01*
X135958140Y-109425000D01*
X136216857Y-109476462D01*
X136400698Y-109599300D01*
X136523538Y-109783144D01*
X136575000Y-110041860D01*
X136575000Y-121958140D01*
X136523538Y-122216856D01*
X136400698Y-122400700D01*
X136216857Y-122523538D01*
X135958140Y-122575000D01*
X133291281Y-122575000D01*
X133398825Y-122505797D01*
X133478741Y-122388837D01*
X133506856Y-122250000D01*
X133506856Y-120450000D01*
X133482451Y-120320298D01*
X133405797Y-120201175D01*
X133288837Y-120121259D01*
X133150000Y-120093144D01*
X129350000Y-120093144D01*
X129220298Y-120117549D01*
X129101175Y-120194203D01*
X129021259Y-120311163D01*
X128993144Y-120450000D01*
X128993144Y-122250000D01*
X129017549Y-122379702D01*
X129094203Y-122498825D01*
X129205688Y-122575000D01*
X126752763Y-122575000D01*
X126854994Y-122472948D01*
X126954159Y-122234132D01*
X126954384Y-121975546D01*
X126855636Y-121736558D01*
X126672948Y-121553550D01*
X126434132Y-121454385D01*
X126175546Y-121454160D01*
X125936558Y-121552908D01*
X125753550Y-121735596D01*
X125654385Y-121974412D01*
X125654319Y-122050000D01*
X121780395Y-122050000D01*
X121780437Y-122001599D01*
X121681689Y-121762611D01*
X121499001Y-121579603D01*
X121260185Y-121480438D01*
X121001599Y-121480213D01*
X120762611Y-121578961D01*
X120579603Y-121761649D01*
X120480438Y-122000465D01*
X120480213Y-122259051D01*
X120578961Y-122498039D01*
X120655787Y-122575000D01*
X109453024Y-122575000D01*
X109500852Y-122459817D01*
X109501147Y-122121666D01*
X109372015Y-121809143D01*
X109338951Y-121776021D01*
X110511809Y-121776021D01*
X110610557Y-122015009D01*
X110793245Y-122198017D01*
X111032061Y-122297182D01*
X111290647Y-122297407D01*
X111529635Y-122198659D01*
X111712643Y-122015971D01*
X111800027Y-121805527D01*
X112199999Y-121805527D01*
X112372207Y-121771273D01*
X112449983Y-121719304D01*
X112449888Y-121828726D01*
X112548636Y-122067714D01*
X112731324Y-122250722D01*
X112970140Y-122349887D01*
X113228726Y-122350112D01*
X113467714Y-122251364D01*
X113650722Y-122068676D01*
X113749887Y-121829860D01*
X113750112Y-121571274D01*
X113651364Y-121332286D01*
X113550000Y-121230744D01*
X113550000Y-120674531D01*
X127200000Y-120674531D01*
X127200000Y-121725469D01*
X127260896Y-122031616D01*
X127434315Y-122291154D01*
X127693853Y-122464573D01*
X128000000Y-122525469D01*
X128306147Y-122464573D01*
X128565685Y-122291154D01*
X128739104Y-122031616D01*
X128800000Y-121725469D01*
X128800000Y-120674531D01*
X128739104Y-120368384D01*
X128565685Y-120108846D01*
X128306147Y-119935427D01*
X128000000Y-119874531D01*
X127693853Y-119935427D01*
X127434315Y-120108846D01*
X127260896Y-120368384D01*
X127200000Y-120674531D01*
X113550000Y-120674531D01*
X113550000Y-119461745D01*
X120499881Y-119461745D01*
X120598629Y-119700733D01*
X120781317Y-119883741D01*
X121020133Y-119982906D01*
X121278719Y-119983131D01*
X121517707Y-119884383D01*
X121700715Y-119701695D01*
X121799880Y-119462879D01*
X121800005Y-119319403D01*
X121918198Y-119201210D01*
X121977472Y-119112500D01*
X124800000Y-119112500D01*
X124800000Y-119569619D01*
X124853284Y-119698259D01*
X124951741Y-119796715D01*
X125080380Y-119850000D01*
X126537500Y-119850000D01*
X126625000Y-119762500D01*
X126625000Y-119025000D01*
X126675000Y-119025000D01*
X126675000Y-119762500D01*
X126762500Y-119850000D01*
X128219620Y-119850000D01*
X128348259Y-119796715D01*
X128446716Y-119698259D01*
X128500000Y-119569619D01*
X128500000Y-119112500D01*
X128412500Y-119025000D01*
X126675000Y-119025000D01*
X126625000Y-119025000D01*
X124887500Y-119025000D01*
X124800000Y-119112500D01*
X121977472Y-119112500D01*
X122015746Y-119055220D01*
X122050000Y-118883012D01*
X122050000Y-116500000D01*
X124793144Y-116500000D01*
X124793144Y-117500000D01*
X124817549Y-117629702D01*
X124894203Y-117748825D01*
X125011163Y-117828741D01*
X125150000Y-117856856D01*
X125760023Y-117856856D01*
X125759890Y-118009693D01*
X125817864Y-118150000D01*
X125080380Y-118150000D01*
X124951741Y-118203285D01*
X124853284Y-118301741D01*
X124800000Y-118430381D01*
X124800000Y-118887500D01*
X124887500Y-118975000D01*
X126625000Y-118975000D01*
X126625000Y-118955000D01*
X126675000Y-118955000D01*
X126675000Y-118975000D01*
X128412500Y-118975000D01*
X128500000Y-118887500D01*
X128500000Y-118430381D01*
X128446716Y-118301741D01*
X128348259Y-118203285D01*
X128219620Y-118150000D01*
X127002099Y-118150000D01*
X127059889Y-118010827D01*
X127060023Y-117856856D01*
X128150000Y-117856856D01*
X128279702Y-117832451D01*
X128398825Y-117755797D01*
X128478741Y-117638837D01*
X128506856Y-117500000D01*
X128506856Y-116500000D01*
X128482451Y-116370298D01*
X128405797Y-116251175D01*
X128288837Y-116171259D01*
X128150000Y-116143144D01*
X125150000Y-116143144D01*
X125020298Y-116167549D01*
X124901175Y-116244203D01*
X124821259Y-116361163D01*
X124793144Y-116500000D01*
X122050000Y-116500000D01*
X122050000Y-116329224D01*
X122150722Y-116228678D01*
X122249887Y-115989862D01*
X122250112Y-115731276D01*
X122151364Y-115492288D01*
X122138658Y-115479559D01*
X123996680Y-115479559D01*
X124095428Y-115718547D01*
X124278116Y-115901555D01*
X124516932Y-116000720D01*
X124775518Y-116000945D01*
X125014506Y-115902197D01*
X125075117Y-115841692D01*
X125150000Y-115856856D01*
X128150000Y-115856856D01*
X128279702Y-115832451D01*
X128398825Y-115755797D01*
X128478741Y-115638837D01*
X128506856Y-115500000D01*
X128506856Y-114500000D01*
X128482451Y-114370298D01*
X128405797Y-114251175D01*
X128288837Y-114171259D01*
X128150000Y-114143144D01*
X125363962Y-114143144D01*
X125650251Y-113856856D01*
X128150000Y-113856856D01*
X128279702Y-113832451D01*
X128398825Y-113755797D01*
X128478741Y-113638837D01*
X128506856Y-113500000D01*
X128506856Y-112500000D01*
X128482451Y-112370298D01*
X128405797Y-112251175D01*
X128288837Y-112171259D01*
X128150000Y-112143144D01*
X125993252Y-112143144D01*
X127144927Y-110991469D01*
X127213536Y-110991529D01*
X127321397Y-111252572D01*
X127546245Y-111477812D01*
X127840172Y-111599861D01*
X128158432Y-111600139D01*
X128452572Y-111478603D01*
X128677812Y-111253755D01*
X128799861Y-110959828D01*
X128800139Y-110641568D01*
X128678603Y-110347428D01*
X128453755Y-110122188D01*
X128159828Y-110000139D01*
X127841568Y-109999861D01*
X127738296Y-110042532D01*
X127709883Y-109973767D01*
X127527195Y-109790759D01*
X127288379Y-109691594D01*
X127029793Y-109691369D01*
X126790805Y-109790117D01*
X126607797Y-109972805D01*
X126508632Y-110211621D01*
X126508507Y-110355097D01*
X125213604Y-111650000D01*
X125009998Y-111650000D01*
X124837790Y-111684254D01*
X124772630Y-111727793D01*
X124691800Y-111781802D01*
X124481802Y-111991800D01*
X124384254Y-112137790D01*
X124350000Y-112309998D01*
X124350000Y-112645665D01*
X124282284Y-112673645D01*
X124099276Y-112856333D01*
X124000111Y-113095149D01*
X123999886Y-113353735D01*
X124098634Y-113592723D01*
X124193222Y-113687477D01*
X124137502Y-113743100D01*
X124038337Y-113981916D01*
X124038112Y-114240502D01*
X124136860Y-114479490D01*
X124319548Y-114662498D01*
X124464701Y-114722771D01*
X124279078Y-114799469D01*
X124096070Y-114982157D01*
X123996905Y-115220973D01*
X123996680Y-115479559D01*
X122138658Y-115479559D01*
X121968676Y-115309280D01*
X121729860Y-115210115D01*
X121471274Y-115209890D01*
X121232286Y-115308638D01*
X121049278Y-115491326D01*
X120950113Y-115730142D01*
X120949888Y-115988728D01*
X121048636Y-116227716D01*
X121150000Y-116329258D01*
X121150000Y-118683019D01*
X121021267Y-118682907D01*
X120782279Y-118781655D01*
X120599271Y-118964343D01*
X120500106Y-119203159D01*
X120499881Y-119461745D01*
X113550000Y-119461745D01*
X113550000Y-118924045D01*
X114361310Y-118924045D01*
X114380957Y-119050476D01*
X114619707Y-119149800D01*
X114878293Y-119150198D01*
X115117347Y-119051609D01*
X115119043Y-119050476D01*
X115138690Y-118924045D01*
X116861310Y-118924045D01*
X116880957Y-119050476D01*
X117119707Y-119149800D01*
X117378293Y-119150198D01*
X117617347Y-119051609D01*
X117619043Y-119050476D01*
X117638690Y-118924045D01*
X119361310Y-118924045D01*
X119380957Y-119050476D01*
X119619707Y-119149800D01*
X119878293Y-119150198D01*
X120117347Y-119051609D01*
X120119043Y-119050476D01*
X120138690Y-118924045D01*
X119750000Y-118535355D01*
X119361310Y-118924045D01*
X117638690Y-118924045D01*
X117250000Y-118535355D01*
X116861310Y-118924045D01*
X115138690Y-118924045D01*
X114750000Y-118535355D01*
X114361310Y-118924045D01*
X113550000Y-118924045D01*
X113550000Y-118628293D01*
X114099802Y-118628293D01*
X114198391Y-118867347D01*
X114199524Y-118869043D01*
X114325955Y-118888690D01*
X114714645Y-118500000D01*
X114785355Y-118500000D01*
X115174045Y-118888690D01*
X115300476Y-118869043D01*
X115399800Y-118630293D01*
X115399803Y-118628293D01*
X116599802Y-118628293D01*
X116698391Y-118867347D01*
X116699524Y-118869043D01*
X116825955Y-118888690D01*
X117214645Y-118500000D01*
X117285355Y-118500000D01*
X117674045Y-118888690D01*
X117800476Y-118869043D01*
X117899800Y-118630293D01*
X117899803Y-118628293D01*
X119099802Y-118628293D01*
X119198391Y-118867347D01*
X119199524Y-118869043D01*
X119325955Y-118888690D01*
X119714645Y-118500000D01*
X119785355Y-118500000D01*
X120174045Y-118888690D01*
X120300476Y-118869043D01*
X120399800Y-118630293D01*
X120400198Y-118371707D01*
X120301609Y-118132653D01*
X120300476Y-118130957D01*
X120174045Y-118111310D01*
X119785355Y-118500000D01*
X119714645Y-118500000D01*
X119325955Y-118111310D01*
X119199524Y-118130957D01*
X119100200Y-118369707D01*
X119099802Y-118628293D01*
X117899803Y-118628293D01*
X117900198Y-118371707D01*
X117801609Y-118132653D01*
X117800476Y-118130957D01*
X117674045Y-118111310D01*
X117285355Y-118500000D01*
X117214645Y-118500000D01*
X116825955Y-118111310D01*
X116699524Y-118130957D01*
X116600200Y-118369707D01*
X116599802Y-118628293D01*
X115399803Y-118628293D01*
X115400198Y-118371707D01*
X115301609Y-118132653D01*
X115300476Y-118130957D01*
X115174045Y-118111310D01*
X114785355Y-118500000D01*
X114714645Y-118500000D01*
X114325955Y-118111310D01*
X114199524Y-118130957D01*
X114100200Y-118369707D01*
X114099802Y-118628293D01*
X113550000Y-118628293D01*
X113550000Y-118075955D01*
X114361310Y-118075955D01*
X114750000Y-118464645D01*
X115138690Y-118075955D01*
X116861310Y-118075955D01*
X117250000Y-118464645D01*
X117638690Y-118075955D01*
X119361310Y-118075955D01*
X119750000Y-118464645D01*
X120138690Y-118075955D01*
X120119043Y-117949524D01*
X119880293Y-117850200D01*
X119621707Y-117849802D01*
X119382653Y-117948391D01*
X119380957Y-117949524D01*
X119361310Y-118075955D01*
X117638690Y-118075955D01*
X117619043Y-117949524D01*
X117380293Y-117850200D01*
X117121707Y-117849802D01*
X116882653Y-117948391D01*
X116880957Y-117949524D01*
X116861310Y-118075955D01*
X115138690Y-118075955D01*
X115119043Y-117949524D01*
X114880293Y-117850200D01*
X114621707Y-117849802D01*
X114382653Y-117948391D01*
X114380957Y-117949524D01*
X114361310Y-118075955D01*
X113550000Y-118075955D01*
X113550000Y-116849990D01*
X113515746Y-116677782D01*
X113418198Y-116531792D01*
X113310451Y-116424045D01*
X114361310Y-116424045D01*
X114380957Y-116550476D01*
X114619707Y-116649800D01*
X114878293Y-116650198D01*
X115117347Y-116551609D01*
X115119043Y-116550476D01*
X115138690Y-116424045D01*
X116861310Y-116424045D01*
X116880957Y-116550476D01*
X117119707Y-116649800D01*
X117378293Y-116650198D01*
X117617347Y-116551609D01*
X117619043Y-116550476D01*
X117638690Y-116424045D01*
X119361310Y-116424045D01*
X119380957Y-116550476D01*
X119619707Y-116649800D01*
X119878293Y-116650198D01*
X120117347Y-116551609D01*
X120119043Y-116550476D01*
X120138690Y-116424045D01*
X119750000Y-116035355D01*
X119361310Y-116424045D01*
X117638690Y-116424045D01*
X117250000Y-116035355D01*
X116861310Y-116424045D01*
X115138690Y-116424045D01*
X114750000Y-116035355D01*
X114361310Y-116424045D01*
X113310451Y-116424045D01*
X113049988Y-116163582D01*
X113050018Y-116128293D01*
X114099802Y-116128293D01*
X114198391Y-116367347D01*
X114199524Y-116369043D01*
X114325955Y-116388690D01*
X114714645Y-116000000D01*
X114785355Y-116000000D01*
X115174045Y-116388690D01*
X115300476Y-116369043D01*
X115399800Y-116130293D01*
X115399803Y-116128293D01*
X116599802Y-116128293D01*
X116698391Y-116367347D01*
X116699524Y-116369043D01*
X116825955Y-116388690D01*
X117214645Y-116000000D01*
X117285355Y-116000000D01*
X117674045Y-116388690D01*
X117800476Y-116369043D01*
X117899800Y-116130293D01*
X117899803Y-116128293D01*
X119099802Y-116128293D01*
X119198391Y-116367347D01*
X119199524Y-116369043D01*
X119325955Y-116388690D01*
X119714645Y-116000000D01*
X119785355Y-116000000D01*
X120174045Y-116388690D01*
X120300476Y-116369043D01*
X120399800Y-116130293D01*
X120400198Y-115871707D01*
X120301609Y-115632653D01*
X120300476Y-115630957D01*
X120174045Y-115611310D01*
X119785355Y-116000000D01*
X119714645Y-116000000D01*
X119325955Y-115611310D01*
X119199524Y-115630957D01*
X119100200Y-115869707D01*
X119099802Y-116128293D01*
X117899803Y-116128293D01*
X117900198Y-115871707D01*
X117801609Y-115632653D01*
X117800476Y-115630957D01*
X117674045Y-115611310D01*
X117285355Y-116000000D01*
X117214645Y-116000000D01*
X116825955Y-115611310D01*
X116699524Y-115630957D01*
X116600200Y-115869707D01*
X116599802Y-116128293D01*
X115399803Y-116128293D01*
X115400198Y-115871707D01*
X115301609Y-115632653D01*
X115300476Y-115630957D01*
X115174045Y-115611310D01*
X114785355Y-116000000D01*
X114714645Y-116000000D01*
X114325955Y-115611310D01*
X114199524Y-115630957D01*
X114100200Y-115869707D01*
X114099802Y-116128293D01*
X113050018Y-116128293D01*
X113050112Y-116021264D01*
X113000665Y-115901594D01*
X113156855Y-115745677D01*
X113227329Y-115575955D01*
X114361310Y-115575955D01*
X114750000Y-115964645D01*
X115138690Y-115575955D01*
X116861310Y-115575955D01*
X117250000Y-115964645D01*
X117638690Y-115575955D01*
X119361310Y-115575955D01*
X119750000Y-115964645D01*
X120138690Y-115575955D01*
X120119043Y-115449524D01*
X119880293Y-115350200D01*
X119621707Y-115349802D01*
X119382653Y-115448391D01*
X119380957Y-115449524D01*
X119361310Y-115575955D01*
X117638690Y-115575955D01*
X117619043Y-115449524D01*
X117380293Y-115350200D01*
X117121707Y-115349802D01*
X116882653Y-115448391D01*
X116880957Y-115449524D01*
X116861310Y-115575955D01*
X115138690Y-115575955D01*
X115119043Y-115449524D01*
X114880293Y-115350200D01*
X114621707Y-115349802D01*
X114382653Y-115448391D01*
X114380957Y-115449524D01*
X114361310Y-115575955D01*
X113227329Y-115575955D01*
X113256020Y-115506861D01*
X113256245Y-115248275D01*
X113157497Y-115009287D01*
X112974809Y-114826279D01*
X112735993Y-114727114D01*
X112549977Y-114726952D01*
X112550112Y-114571274D01*
X112451364Y-114332286D01*
X112268676Y-114149278D01*
X112029860Y-114050113D01*
X111771274Y-114049888D01*
X111532286Y-114148636D01*
X111430744Y-114250000D01*
X111400000Y-114250000D01*
X111227792Y-114284254D01*
X111112690Y-114361163D01*
X111081802Y-114381802D01*
X110781802Y-114681802D01*
X110684254Y-114827792D01*
X110650000Y-115000000D01*
X110650000Y-117400000D01*
X110684254Y-117572208D01*
X110750448Y-117671274D01*
X110781802Y-117718198D01*
X110850012Y-117786408D01*
X110849888Y-117928726D01*
X110948636Y-118167714D01*
X111131324Y-118350722D01*
X111370140Y-118449887D01*
X111628726Y-118450112D01*
X111867714Y-118351364D01*
X112050722Y-118168676D01*
X112149887Y-117929860D01*
X112150000Y-117799992D01*
X112150000Y-120769130D01*
X112013603Y-120905527D01*
X111453689Y-120905527D01*
X111281481Y-120939781D01*
X111195362Y-120997324D01*
X111033195Y-120997183D01*
X110794207Y-121095931D01*
X110611199Y-121278619D01*
X110512034Y-121517435D01*
X110511809Y-121776021D01*
X109338951Y-121776021D01*
X109133115Y-121569826D01*
X108820817Y-121440148D01*
X108482666Y-121439853D01*
X108170143Y-121568985D01*
X107930826Y-121807885D01*
X107801148Y-122120183D01*
X107800853Y-122458334D01*
X107849058Y-122575000D01*
X107421024Y-122575000D01*
X107468852Y-122459817D01*
X107469147Y-122121666D01*
X107340015Y-121809143D01*
X107101115Y-121569826D01*
X106788817Y-121440148D01*
X106450666Y-121439853D01*
X106138143Y-121568985D01*
X105898826Y-121807885D01*
X105769148Y-122120183D01*
X105768853Y-122458334D01*
X105817058Y-122575000D01*
X101041860Y-122575000D01*
X100783144Y-122523538D01*
X100599300Y-122400698D01*
X100476462Y-122216857D01*
X100425000Y-121958140D01*
X100425000Y-120800459D01*
X100649250Y-120950298D01*
X100974531Y-121015000D01*
X101925469Y-121015000D01*
X102250750Y-120950298D01*
X102526510Y-120766041D01*
X102710767Y-120490281D01*
X102775469Y-120165000D01*
X102710767Y-119839719D01*
X102526510Y-119563959D01*
X102250750Y-119379702D01*
X101925469Y-119315000D01*
X100974531Y-119315000D01*
X100649250Y-119379702D01*
X100425000Y-119529541D01*
X100425000Y-118215000D01*
X103455899Y-118215000D01*
X103520601Y-118540281D01*
X103704858Y-118816041D01*
X103980618Y-119000298D01*
X104305899Y-119065000D01*
X104594101Y-119065000D01*
X104919382Y-119000298D01*
X105176157Y-118828726D01*
X105449888Y-118828726D01*
X105548636Y-119067714D01*
X105731324Y-119250722D01*
X105970140Y-119349887D01*
X106228726Y-119350112D01*
X106467714Y-119251364D01*
X106519168Y-119200000D01*
X108139035Y-119200000D01*
X108469595Y-119530560D01*
X108469533Y-119602230D01*
X108568281Y-119841218D01*
X108637786Y-119910844D01*
X108642590Y-119935000D01*
X106835124Y-119935000D01*
X106751364Y-119732286D01*
X106568676Y-119549278D01*
X106329860Y-119450113D01*
X106071274Y-119449888D01*
X105832286Y-119548636D01*
X105649278Y-119731324D01*
X105550113Y-119970140D01*
X105549888Y-120228726D01*
X105648636Y-120467714D01*
X105831324Y-120650722D01*
X106070140Y-120749887D01*
X106236894Y-120750032D01*
X106312792Y-120800746D01*
X106485000Y-120835000D01*
X108469565Y-120835000D01*
X108469533Y-120872231D01*
X108568281Y-121111219D01*
X108750969Y-121294227D01*
X108989785Y-121393392D01*
X109248371Y-121393617D01*
X109487359Y-121294869D01*
X109581629Y-121200764D01*
X109731324Y-121350722D01*
X109970140Y-121449887D01*
X110228726Y-121450112D01*
X110467714Y-121351364D01*
X110650722Y-121168676D01*
X110749887Y-120929860D01*
X110750112Y-120671274D01*
X110651364Y-120432286D01*
X110468676Y-120249278D01*
X110229860Y-120150113D01*
X110157156Y-120150050D01*
X109722863Y-119715756D01*
X109769532Y-119603364D01*
X109769757Y-119344778D01*
X109671009Y-119105790D01*
X109488321Y-118922782D01*
X109249505Y-118823617D01*
X109176801Y-118823554D01*
X108699694Y-118346447D01*
X108537483Y-118238060D01*
X108534668Y-118237500D01*
X108346141Y-118200000D01*
X107284999Y-118200000D01*
X107284999Y-117985033D01*
X107465183Y-118059852D01*
X107803334Y-118060147D01*
X108115857Y-117931015D01*
X108355174Y-117692115D01*
X108484852Y-117379817D01*
X108485147Y-117041666D01*
X108356015Y-116729143D01*
X108117115Y-116489826D01*
X107804817Y-116360148D01*
X107466666Y-116359853D01*
X107284999Y-116434916D01*
X107284999Y-114301820D01*
X107348791Y-114238028D01*
X107420461Y-114238090D01*
X107659449Y-114139342D01*
X107842457Y-113956654D01*
X107855997Y-113924045D01*
X114361310Y-113924045D01*
X114380957Y-114050476D01*
X114619707Y-114149800D01*
X114878293Y-114150198D01*
X115117347Y-114051609D01*
X115119043Y-114050476D01*
X115138690Y-113924045D01*
X116861310Y-113924045D01*
X116880957Y-114050476D01*
X117119707Y-114149800D01*
X117378293Y-114150198D01*
X117617347Y-114051609D01*
X117619043Y-114050476D01*
X117638690Y-113924045D01*
X119361310Y-113924045D01*
X119380957Y-114050476D01*
X119619707Y-114149800D01*
X119878293Y-114150198D01*
X120117347Y-114051609D01*
X120119043Y-114050476D01*
X120138690Y-113924045D01*
X119750000Y-113535355D01*
X119361310Y-113924045D01*
X117638690Y-113924045D01*
X117250000Y-113535355D01*
X116861310Y-113924045D01*
X115138690Y-113924045D01*
X114750000Y-113535355D01*
X114361310Y-113924045D01*
X107855997Y-113924045D01*
X107941622Y-113717838D01*
X107941699Y-113628293D01*
X114099802Y-113628293D01*
X114198391Y-113867347D01*
X114199524Y-113869043D01*
X114325955Y-113888690D01*
X114714645Y-113500000D01*
X114785355Y-113500000D01*
X115174045Y-113888690D01*
X115300476Y-113869043D01*
X115399800Y-113630293D01*
X115399803Y-113628293D01*
X116599802Y-113628293D01*
X116698391Y-113867347D01*
X116699524Y-113869043D01*
X116825955Y-113888690D01*
X117214645Y-113500000D01*
X117285355Y-113500000D01*
X117674045Y-113888690D01*
X117800476Y-113869043D01*
X117899800Y-113630293D01*
X117899803Y-113628293D01*
X119099802Y-113628293D01*
X119198391Y-113867347D01*
X119199524Y-113869043D01*
X119325955Y-113888690D01*
X119714645Y-113500000D01*
X119785355Y-113500000D01*
X120174045Y-113888690D01*
X120300476Y-113869043D01*
X120399800Y-113630293D01*
X120400198Y-113371707D01*
X120301609Y-113132653D01*
X120300476Y-113130957D01*
X120174045Y-113111310D01*
X119785355Y-113500000D01*
X119714645Y-113500000D01*
X119325955Y-113111310D01*
X119199524Y-113130957D01*
X119100200Y-113369707D01*
X119099802Y-113628293D01*
X117899803Y-113628293D01*
X117900198Y-113371707D01*
X117801609Y-113132653D01*
X117800476Y-113130957D01*
X117674045Y-113111310D01*
X117285355Y-113500000D01*
X117214645Y-113500000D01*
X116825955Y-113111310D01*
X116699524Y-113130957D01*
X116600200Y-113369707D01*
X116599802Y-113628293D01*
X115399803Y-113628293D01*
X115400198Y-113371707D01*
X115301609Y-113132653D01*
X115300476Y-113130957D01*
X115174045Y-113111310D01*
X114785355Y-113500000D01*
X114714645Y-113500000D01*
X114325955Y-113111310D01*
X114199524Y-113130957D01*
X114100200Y-113369707D01*
X114099802Y-113628293D01*
X107941699Y-113628293D01*
X107941847Y-113459252D01*
X107843099Y-113220264D01*
X107699043Y-113075955D01*
X114361310Y-113075955D01*
X114750000Y-113464645D01*
X115138690Y-113075955D01*
X116861310Y-113075955D01*
X117250000Y-113464645D01*
X117638690Y-113075955D01*
X119361310Y-113075955D01*
X119750000Y-113464645D01*
X120138690Y-113075955D01*
X120119043Y-112949524D01*
X119880293Y-112850200D01*
X119621707Y-112849802D01*
X119382653Y-112948391D01*
X119380957Y-112949524D01*
X119361310Y-113075955D01*
X117638690Y-113075955D01*
X117619043Y-112949524D01*
X117380293Y-112850200D01*
X117121707Y-112849802D01*
X116882653Y-112948391D01*
X116880957Y-112949524D01*
X116861310Y-113075955D01*
X115138690Y-113075955D01*
X115119043Y-112949524D01*
X114880293Y-112850200D01*
X114621707Y-112849802D01*
X114382653Y-112948391D01*
X114380957Y-112949524D01*
X114361310Y-113075955D01*
X107699043Y-113075955D01*
X107660411Y-113037256D01*
X107421595Y-112938091D01*
X107163009Y-112937866D01*
X106924021Y-113036614D01*
X106741013Y-113219302D01*
X106641848Y-113458118D01*
X106641785Y-113530822D01*
X106431446Y-113741161D01*
X106323059Y-113903372D01*
X106284999Y-114094714D01*
X106284999Y-118073009D01*
X106229860Y-118050113D01*
X105971274Y-118049888D01*
X105732286Y-118148636D01*
X105549278Y-118331324D01*
X105450113Y-118570140D01*
X105449888Y-118828726D01*
X105176157Y-118828726D01*
X105195142Y-118816041D01*
X105379399Y-118540281D01*
X105444101Y-118215000D01*
X105379399Y-117889719D01*
X105195142Y-117613959D01*
X104919382Y-117429702D01*
X104594101Y-117365000D01*
X104305899Y-117365000D01*
X103980618Y-117429702D01*
X103704858Y-117613959D01*
X103520601Y-117889719D01*
X103455899Y-118215000D01*
X100425000Y-118215000D01*
X100425000Y-113765000D01*
X103455899Y-113765000D01*
X103520601Y-114090281D01*
X103704858Y-114366041D01*
X103980618Y-114550298D01*
X104305899Y-114615000D01*
X104594101Y-114615000D01*
X104919382Y-114550298D01*
X105195142Y-114366041D01*
X105379399Y-114090281D01*
X105444101Y-113765000D01*
X105379399Y-113439719D01*
X105195142Y-113163959D01*
X104919382Y-112979702D01*
X104594101Y-112915000D01*
X104305899Y-112915000D01*
X103980618Y-112979702D01*
X103704858Y-113163959D01*
X103520601Y-113439719D01*
X103455899Y-113765000D01*
X100425000Y-113765000D01*
X100425000Y-112450459D01*
X100649250Y-112600298D01*
X100974531Y-112665000D01*
X101925469Y-112665000D01*
X102250750Y-112600298D01*
X102526510Y-112416041D01*
X102710767Y-112140281D01*
X102775469Y-111815000D01*
X102710767Y-111489719D01*
X102526510Y-111213959D01*
X102250750Y-111029702D01*
X101925469Y-110965000D01*
X100974531Y-110965000D01*
X100649250Y-111029702D01*
X100425000Y-111179541D01*
X100425000Y-110041860D01*
X100476462Y-109783143D01*
X100599300Y-109599302D01*
X100783144Y-109476462D01*
X101041860Y-109425000D01*
X121150013Y-109425000D01*
X121149888Y-109568715D01*
G36*
X121149888Y-125568715D02*
X121248636Y-125807703D01*
X121300000Y-125859157D01*
X121300000Y-128900000D01*
X121326122Y-129031324D01*
X121338060Y-129091342D01*
X121446447Y-129253553D01*
X121549950Y-129357057D01*
X121549888Y-129428726D01*
X121648636Y-129667714D01*
X121831324Y-129850722D01*
X122070140Y-129949887D01*
X122328726Y-129950112D01*
X122567714Y-129851364D01*
X122750722Y-129668676D01*
X122849887Y-129429860D01*
X122850112Y-129171274D01*
X122751364Y-128932286D01*
X122568676Y-128749278D01*
X122329860Y-128650113D01*
X122300000Y-128650087D01*
X122300000Y-125859298D01*
X122350722Y-125808665D01*
X122449887Y-125569849D01*
X122450013Y-125425000D01*
X129208719Y-125425000D01*
X129101175Y-125494203D01*
X129021259Y-125611163D01*
X128993144Y-125750000D01*
X128993144Y-127550000D01*
X129017549Y-127679702D01*
X129094203Y-127798825D01*
X129211163Y-127878741D01*
X129350000Y-127906856D01*
X132065061Y-127906856D01*
X131984254Y-128027792D01*
X131950000Y-128200000D01*
X131950000Y-128930778D01*
X131849278Y-129031324D01*
X131750113Y-129270140D01*
X131749888Y-129528726D01*
X131848636Y-129767714D01*
X132031324Y-129950722D01*
X132270140Y-130049887D01*
X132528726Y-130050112D01*
X132767714Y-129951364D01*
X132950722Y-129768676D01*
X133049887Y-129529860D01*
X133050112Y-129271274D01*
X132951364Y-129032286D01*
X132850000Y-128930744D01*
X132850000Y-128386396D01*
X132886396Y-128350000D01*
X133340002Y-128350000D01*
X133512210Y-128315746D01*
X133658200Y-128218198D01*
X133818198Y-128058200D01*
X133915746Y-127912210D01*
X133950000Y-127740002D01*
X133950000Y-126810660D01*
X134018198Y-126742462D01*
X134115746Y-126596472D01*
X134138842Y-126480361D01*
X134250722Y-126368676D01*
X134349887Y-126129860D01*
X134350112Y-125871274D01*
X134251364Y-125632286D01*
X134068676Y-125449278D01*
X134010208Y-125425000D01*
X135958140Y-125425000D01*
X136216857Y-125476462D01*
X136400698Y-125599300D01*
X136523538Y-125783144D01*
X136575000Y-126041860D01*
X136575000Y-137958140D01*
X136523538Y-138216856D01*
X136400698Y-138400700D01*
X136216857Y-138523538D01*
X135958140Y-138575000D01*
X133291281Y-138575000D01*
X133398825Y-138505797D01*
X133478741Y-138388837D01*
X133506856Y-138250000D01*
X133506856Y-136450000D01*
X133482451Y-136320298D01*
X133405797Y-136201175D01*
X133288837Y-136121259D01*
X133150000Y-136093144D01*
X129350000Y-136093144D01*
X129220298Y-136117549D01*
X129101175Y-136194203D01*
X129021259Y-136311163D01*
X128993144Y-136450000D01*
X128993144Y-138250000D01*
X129017549Y-138379702D01*
X129094203Y-138498825D01*
X129205688Y-138575000D01*
X126752763Y-138575000D01*
X126854994Y-138472948D01*
X126954159Y-138234132D01*
X126954384Y-137975546D01*
X126855636Y-137736558D01*
X126672948Y-137553550D01*
X126434132Y-137454385D01*
X126175546Y-137454160D01*
X125936558Y-137552908D01*
X125753550Y-137735596D01*
X125654385Y-137974412D01*
X125654319Y-138050000D01*
X121780395Y-138050000D01*
X121780437Y-138001599D01*
X121681689Y-137762611D01*
X121499001Y-137579603D01*
X121260185Y-137480438D01*
X121001599Y-137480213D01*
X120762611Y-137578961D01*
X120579603Y-137761649D01*
X120480438Y-138000465D01*
X120480213Y-138259051D01*
X120578961Y-138498039D01*
X120655787Y-138575000D01*
X109453024Y-138575000D01*
X109500852Y-138459817D01*
X109501147Y-138121666D01*
X109372015Y-137809143D01*
X109338951Y-137776021D01*
X110511809Y-137776021D01*
X110610557Y-138015009D01*
X110793245Y-138198017D01*
X111032061Y-138297182D01*
X111290647Y-138297407D01*
X111529635Y-138198659D01*
X111712643Y-138015971D01*
X111800027Y-137805527D01*
X112199999Y-137805527D01*
X112372207Y-137771273D01*
X112449983Y-137719304D01*
X112449888Y-137828726D01*
X112548636Y-138067714D01*
X112731324Y-138250722D01*
X112970140Y-138349887D01*
X113228726Y-138350112D01*
X113467714Y-138251364D01*
X113650722Y-138068676D01*
X113749887Y-137829860D01*
X113750112Y-137571274D01*
X113651364Y-137332286D01*
X113550000Y-137230744D01*
X113550000Y-136674531D01*
X127200000Y-136674531D01*
X127200000Y-137725469D01*
X127260896Y-138031616D01*
X127434315Y-138291154D01*
X127693853Y-138464573D01*
X128000000Y-138525469D01*
X128306147Y-138464573D01*
X128565685Y-138291154D01*
X128739104Y-138031616D01*
X128800000Y-137725469D01*
X128800000Y-136674531D01*
X128739104Y-136368384D01*
X128565685Y-136108846D01*
X128306147Y-135935427D01*
X128000000Y-135874531D01*
X127693853Y-135935427D01*
X127434315Y-136108846D01*
X127260896Y-136368384D01*
X127200000Y-136674531D01*
X113550000Y-136674531D01*
X113550000Y-135461745D01*
X120499881Y-135461745D01*
X120598629Y-135700733D01*
X120781317Y-135883741D01*
X121020133Y-135982906D01*
X121278719Y-135983131D01*
X121517707Y-135884383D01*
X121700715Y-135701695D01*
X121799880Y-135462879D01*
X121800005Y-135319403D01*
X121918198Y-135201210D01*
X121977472Y-135112500D01*
X124800000Y-135112500D01*
X124800000Y-135569619D01*
X124853284Y-135698259D01*
X124951741Y-135796715D01*
X125080380Y-135850000D01*
X126537500Y-135850000D01*
X126625000Y-135762500D01*
X126625000Y-135025000D01*
X126675000Y-135025000D01*
X126675000Y-135762500D01*
X126762500Y-135850000D01*
X128219620Y-135850000D01*
X128348259Y-135796715D01*
X128446716Y-135698259D01*
X128500000Y-135569619D01*
X128500000Y-135112500D01*
X128412500Y-135025000D01*
X126675000Y-135025000D01*
X126625000Y-135025000D01*
X124887500Y-135025000D01*
X124800000Y-135112500D01*
X121977472Y-135112500D01*
X122015746Y-135055220D01*
X122050000Y-134883012D01*
X122050000Y-132500000D01*
X124793144Y-132500000D01*
X124793144Y-133500000D01*
X124817549Y-133629702D01*
X124894203Y-133748825D01*
X125011163Y-133828741D01*
X125150000Y-133856856D01*
X125760023Y-133856856D01*
X125759890Y-134009693D01*
X125817864Y-134150000D01*
X125080380Y-134150000D01*
X124951741Y-134203285D01*
X124853284Y-134301741D01*
X124800000Y-134430381D01*
X124800000Y-134887500D01*
X124887500Y-134975000D01*
X126625000Y-134975000D01*
X126625000Y-134955000D01*
X126675000Y-134955000D01*
X126675000Y-134975000D01*
X128412500Y-134975000D01*
X128500000Y-134887500D01*
X128500000Y-134430381D01*
X128446716Y-134301741D01*
X128348259Y-134203285D01*
X128219620Y-134150000D01*
X127002099Y-134150000D01*
X127059889Y-134010827D01*
X127060023Y-133856856D01*
X128150000Y-133856856D01*
X128279702Y-133832451D01*
X128398825Y-133755797D01*
X128478741Y-133638837D01*
X128506856Y-133500000D01*
X128506856Y-132500000D01*
X128482451Y-132370298D01*
X128405797Y-132251175D01*
X128288837Y-132171259D01*
X128150000Y-132143144D01*
X125150000Y-132143144D01*
X125020298Y-132167549D01*
X124901175Y-132244203D01*
X124821259Y-132361163D01*
X124793144Y-132500000D01*
X122050000Y-132500000D01*
X122050000Y-132329224D01*
X122150722Y-132228678D01*
X122249887Y-131989862D01*
X122250112Y-131731276D01*
X122151364Y-131492288D01*
X122138658Y-131479559D01*
X123996680Y-131479559D01*
X124095428Y-131718547D01*
X124278116Y-131901555D01*
X124516932Y-132000720D01*
X124775518Y-132000945D01*
X125014506Y-131902197D01*
X125075117Y-131841692D01*
X125150000Y-131856856D01*
X128150000Y-131856856D01*
X128279702Y-131832451D01*
X128398825Y-131755797D01*
X128478741Y-131638837D01*
X128506856Y-131500000D01*
X128506856Y-130500000D01*
X128482451Y-130370298D01*
X128405797Y-130251175D01*
X128288837Y-130171259D01*
X128150000Y-130143144D01*
X125363962Y-130143144D01*
X125650251Y-129856856D01*
X128150000Y-129856856D01*
X128279702Y-129832451D01*
X128398825Y-129755797D01*
X128478741Y-129638837D01*
X128506856Y-129500000D01*
X128506856Y-128500000D01*
X128482451Y-128370298D01*
X128405797Y-128251175D01*
X128288837Y-128171259D01*
X128150000Y-128143144D01*
X125993252Y-128143144D01*
X127144927Y-126991469D01*
X127213536Y-126991529D01*
X127321397Y-127252572D01*
X127546245Y-127477812D01*
X127840172Y-127599861D01*
X128158432Y-127600139D01*
X128452572Y-127478603D01*
X128677812Y-127253755D01*
X128799861Y-126959828D01*
X128800139Y-126641568D01*
X128678603Y-126347428D01*
X128453755Y-126122188D01*
X128159828Y-126000139D01*
X127841568Y-125999861D01*
X127738296Y-126042532D01*
X127709883Y-125973767D01*
X127527195Y-125790759D01*
X127288379Y-125691594D01*
X127029793Y-125691369D01*
X126790805Y-125790117D01*
X126607797Y-125972805D01*
X126508632Y-126211621D01*
X126508507Y-126355097D01*
X125213604Y-127650000D01*
X125009998Y-127650000D01*
X124837790Y-127684254D01*
X124772630Y-127727793D01*
X124691800Y-127781802D01*
X124481802Y-127991800D01*
X124384254Y-128137790D01*
X124350000Y-128309998D01*
X124350000Y-128645665D01*
X124282284Y-128673645D01*
X124099276Y-128856333D01*
X124000111Y-129095149D01*
X123999886Y-129353735D01*
X124098634Y-129592723D01*
X124193222Y-129687477D01*
X124137502Y-129743100D01*
X124038337Y-129981916D01*
X124038112Y-130240502D01*
X124136860Y-130479490D01*
X124319548Y-130662498D01*
X124464701Y-130722771D01*
X124279078Y-130799469D01*
X124096070Y-130982157D01*
X123996905Y-131220973D01*
X123996680Y-131479559D01*
X122138658Y-131479559D01*
X121968676Y-131309280D01*
X121729860Y-131210115D01*
X121471274Y-131209890D01*
X121232286Y-131308638D01*
X121049278Y-131491326D01*
X120950113Y-131730142D01*
X120949888Y-131988728D01*
X121048636Y-132227716D01*
X121150000Y-132329258D01*
X121150000Y-134683019D01*
X121021267Y-134682907D01*
X120782279Y-134781655D01*
X120599271Y-134964343D01*
X120500106Y-135203159D01*
X120499881Y-135461745D01*
X113550000Y-135461745D01*
X113550000Y-134924045D01*
X114361310Y-134924045D01*
X114380957Y-135050476D01*
X114619707Y-135149800D01*
X114878293Y-135150198D01*
X115117347Y-135051609D01*
X115119043Y-135050476D01*
X115138690Y-134924045D01*
X116861310Y-134924045D01*
X116880957Y-135050476D01*
X117119707Y-135149800D01*
X117378293Y-135150198D01*
X117617347Y-135051609D01*
X117619043Y-135050476D01*
X117638690Y-134924045D01*
X119361310Y-134924045D01*
X119380957Y-135050476D01*
X119619707Y-135149800D01*
X119878293Y-135150198D01*
X120117347Y-135051609D01*
X120119043Y-135050476D01*
X120138690Y-134924045D01*
X119750000Y-134535355D01*
X119361310Y-134924045D01*
X117638690Y-134924045D01*
X117250000Y-134535355D01*
X116861310Y-134924045D01*
X115138690Y-134924045D01*
X114750000Y-134535355D01*
X114361310Y-134924045D01*
X113550000Y-134924045D01*
X113550000Y-134628293D01*
X114099802Y-134628293D01*
X114198391Y-134867347D01*
X114199524Y-134869043D01*
X114325955Y-134888690D01*
X114714645Y-134500000D01*
X114785355Y-134500000D01*
X115174045Y-134888690D01*
X115300476Y-134869043D01*
X115399800Y-134630293D01*
X115399803Y-134628293D01*
X116599802Y-134628293D01*
X116698391Y-134867347D01*
X116699524Y-134869043D01*
X116825955Y-134888690D01*
X117214645Y-134500000D01*
X117285355Y-134500000D01*
X117674045Y-134888690D01*
X117800476Y-134869043D01*
X117899800Y-134630293D01*
X117899803Y-134628293D01*
X119099802Y-134628293D01*
X119198391Y-134867347D01*
X119199524Y-134869043D01*
X119325955Y-134888690D01*
X119714645Y-134500000D01*
X119785355Y-134500000D01*
X120174045Y-134888690D01*
X120300476Y-134869043D01*
X120399800Y-134630293D01*
X120400198Y-134371707D01*
X120301609Y-134132653D01*
X120300476Y-134130957D01*
X120174045Y-134111310D01*
X119785355Y-134500000D01*
X119714645Y-134500000D01*
X119325955Y-134111310D01*
X119199524Y-134130957D01*
X119100200Y-134369707D01*
X119099802Y-134628293D01*
X117899803Y-134628293D01*
X117900198Y-134371707D01*
X117801609Y-134132653D01*
X117800476Y-134130957D01*
X117674045Y-134111310D01*
X117285355Y-134500000D01*
X117214645Y-134500000D01*
X116825955Y-134111310D01*
X116699524Y-134130957D01*
X116600200Y-134369707D01*
X116599802Y-134628293D01*
X115399803Y-134628293D01*
X115400198Y-134371707D01*
X115301609Y-134132653D01*
X115300476Y-134130957D01*
X115174045Y-134111310D01*
X114785355Y-134500000D01*
X114714645Y-134500000D01*
X114325955Y-134111310D01*
X114199524Y-134130957D01*
X114100200Y-134369707D01*
X114099802Y-134628293D01*
X113550000Y-134628293D01*
X113550000Y-134075955D01*
X114361310Y-134075955D01*
X114750000Y-134464645D01*
X115138690Y-134075955D01*
X116861310Y-134075955D01*
X117250000Y-134464645D01*
X117638690Y-134075955D01*
X119361310Y-134075955D01*
X119750000Y-134464645D01*
X120138690Y-134075955D01*
X120119043Y-133949524D01*
X119880293Y-133850200D01*
X119621707Y-133849802D01*
X119382653Y-133948391D01*
X119380957Y-133949524D01*
X119361310Y-134075955D01*
X117638690Y-134075955D01*
X117619043Y-133949524D01*
X117380293Y-133850200D01*
X117121707Y-133849802D01*
X116882653Y-133948391D01*
X116880957Y-133949524D01*
X116861310Y-134075955D01*
X115138690Y-134075955D01*
X115119043Y-133949524D01*
X114880293Y-133850200D01*
X114621707Y-133849802D01*
X114382653Y-133948391D01*
X114380957Y-133949524D01*
X114361310Y-134075955D01*
X113550000Y-134075955D01*
X113550000Y-132849990D01*
X113515746Y-132677782D01*
X113418198Y-132531792D01*
X113310451Y-132424045D01*
X114361310Y-132424045D01*
X114380957Y-132550476D01*
X114619707Y-132649800D01*
X114878293Y-132650198D01*
X115117347Y-132551609D01*
X115119043Y-132550476D01*
X115138690Y-132424045D01*
X116861310Y-132424045D01*
X116880957Y-132550476D01*
X117119707Y-132649800D01*
X117378293Y-132650198D01*
X117617347Y-132551609D01*
X117619043Y-132550476D01*
X117638690Y-132424045D01*
X119361310Y-132424045D01*
X119380957Y-132550476D01*
X119619707Y-132649800D01*
X119878293Y-132650198D01*
X120117347Y-132551609D01*
X120119043Y-132550476D01*
X120138690Y-132424045D01*
X119750000Y-132035355D01*
X119361310Y-132424045D01*
X117638690Y-132424045D01*
X117250000Y-132035355D01*
X116861310Y-132424045D01*
X115138690Y-132424045D01*
X114750000Y-132035355D01*
X114361310Y-132424045D01*
X113310451Y-132424045D01*
X113049988Y-132163582D01*
X113050018Y-132128293D01*
X114099802Y-132128293D01*
X114198391Y-132367347D01*
X114199524Y-132369043D01*
X114325955Y-132388690D01*
X114714645Y-132000000D01*
X114785355Y-132000000D01*
X115174045Y-132388690D01*
X115300476Y-132369043D01*
X115399800Y-132130293D01*
X115399803Y-132128293D01*
X116599802Y-132128293D01*
X116698391Y-132367347D01*
X116699524Y-132369043D01*
X116825955Y-132388690D01*
X117214645Y-132000000D01*
X117285355Y-132000000D01*
X117674045Y-132388690D01*
X117800476Y-132369043D01*
X117899800Y-132130293D01*
X117899803Y-132128293D01*
X119099802Y-132128293D01*
X119198391Y-132367347D01*
X119199524Y-132369043D01*
X119325955Y-132388690D01*
X119714645Y-132000000D01*
X119785355Y-132000000D01*
X120174045Y-132388690D01*
X120300476Y-132369043D01*
X120399800Y-132130293D01*
X120400198Y-131871707D01*
X120301609Y-131632653D01*
X120300476Y-131630957D01*
X120174045Y-131611310D01*
X119785355Y-132000000D01*
X119714645Y-132000000D01*
X119325955Y-131611310D01*
X119199524Y-131630957D01*
X119100200Y-131869707D01*
X119099802Y-132128293D01*
X117899803Y-132128293D01*
X117900198Y-131871707D01*
X117801609Y-131632653D01*
X117800476Y-131630957D01*
X117674045Y-131611310D01*
X117285355Y-132000000D01*
X117214645Y-132000000D01*
X116825955Y-131611310D01*
X116699524Y-131630957D01*
X116600200Y-131869707D01*
X116599802Y-132128293D01*
X115399803Y-132128293D01*
X115400198Y-131871707D01*
X115301609Y-131632653D01*
X115300476Y-131630957D01*
X115174045Y-131611310D01*
X114785355Y-132000000D01*
X114714645Y-132000000D01*
X114325955Y-131611310D01*
X114199524Y-131630957D01*
X114100200Y-131869707D01*
X114099802Y-132128293D01*
X113050018Y-132128293D01*
X113050112Y-132021264D01*
X113000665Y-131901594D01*
X113156855Y-131745677D01*
X113227329Y-131575955D01*
X114361310Y-131575955D01*
X114750000Y-131964645D01*
X115138690Y-131575955D01*
X116861310Y-131575955D01*
X117250000Y-131964645D01*
X117638690Y-131575955D01*
X119361310Y-131575955D01*
X119750000Y-131964645D01*
X120138690Y-131575955D01*
X120119043Y-131449524D01*
X119880293Y-131350200D01*
X119621707Y-131349802D01*
X119382653Y-131448391D01*
X119380957Y-131449524D01*
X119361310Y-131575955D01*
X117638690Y-131575955D01*
X117619043Y-131449524D01*
X117380293Y-131350200D01*
X117121707Y-131349802D01*
X116882653Y-131448391D01*
X116880957Y-131449524D01*
X116861310Y-131575955D01*
X115138690Y-131575955D01*
X115119043Y-131449524D01*
X114880293Y-131350200D01*
X114621707Y-131349802D01*
X114382653Y-131448391D01*
X114380957Y-131449524D01*
X114361310Y-131575955D01*
X113227329Y-131575955D01*
X113256020Y-131506861D01*
X113256245Y-131248275D01*
X113157497Y-131009287D01*
X112974809Y-130826279D01*
X112735993Y-130727114D01*
X112549977Y-130726952D01*
X112550112Y-130571274D01*
X112451364Y-130332286D01*
X112268676Y-130149278D01*
X112029860Y-130050113D01*
X111771274Y-130049888D01*
X111532286Y-130148636D01*
X111430744Y-130250000D01*
X111400000Y-130250000D01*
X111227792Y-130284254D01*
X111112690Y-130361163D01*
X111081802Y-130381802D01*
X110781802Y-130681802D01*
X110684254Y-130827792D01*
X110650000Y-131000000D01*
X110650000Y-133400000D01*
X110684254Y-133572208D01*
X110750448Y-133671274D01*
X110781802Y-133718198D01*
X110850012Y-133786408D01*
X110849888Y-133928726D01*
X110948636Y-134167714D01*
X111131324Y-134350722D01*
X111370140Y-134449887D01*
X111628726Y-134450112D01*
X111867714Y-134351364D01*
X112050722Y-134168676D01*
X112149887Y-133929860D01*
X112150000Y-133799992D01*
X112150000Y-136769130D01*
X112013603Y-136905527D01*
X111453689Y-136905527D01*
X111281481Y-136939781D01*
X111195362Y-136997324D01*
X111033195Y-136997183D01*
X110794207Y-137095931D01*
X110611199Y-137278619D01*
X110512034Y-137517435D01*
X110511809Y-137776021D01*
X109338951Y-137776021D01*
X109133115Y-137569826D01*
X108820817Y-137440148D01*
X108482666Y-137439853D01*
X108170143Y-137568985D01*
X107930826Y-137807885D01*
X107801148Y-138120183D01*
X107800853Y-138458334D01*
X107849058Y-138575000D01*
X107421024Y-138575000D01*
X107468852Y-138459817D01*
X107469147Y-138121666D01*
X107340015Y-137809143D01*
X107101115Y-137569826D01*
X106788817Y-137440148D01*
X106450666Y-137439853D01*
X106138143Y-137568985D01*
X105898826Y-137807885D01*
X105769148Y-138120183D01*
X105768853Y-138458334D01*
X105817058Y-138575000D01*
X101041860Y-138575000D01*
X100783144Y-138523538D01*
X100599300Y-138400698D01*
X100476462Y-138216857D01*
X100425000Y-137958140D01*
X100425000Y-136800459D01*
X100649250Y-136950298D01*
X100974531Y-137015000D01*
X101925469Y-137015000D01*
X102250750Y-136950298D01*
X102526510Y-136766041D01*
X102710767Y-136490281D01*
X102775469Y-136165000D01*
X102710767Y-135839719D01*
X102526510Y-135563959D01*
X102250750Y-135379702D01*
X101925469Y-135315000D01*
X100974531Y-135315000D01*
X100649250Y-135379702D01*
X100425000Y-135529541D01*
X100425000Y-134215000D01*
X103455899Y-134215000D01*
X103520601Y-134540281D01*
X103704858Y-134816041D01*
X103980618Y-135000298D01*
X104305899Y-135065000D01*
X104594101Y-135065000D01*
X104919382Y-135000298D01*
X105176157Y-134828726D01*
X105449888Y-134828726D01*
X105548636Y-135067714D01*
X105731324Y-135250722D01*
X105970140Y-135349887D01*
X106228726Y-135350112D01*
X106467714Y-135251364D01*
X106519168Y-135200000D01*
X108139035Y-135200000D01*
X108469595Y-135530560D01*
X108469533Y-135602230D01*
X108568281Y-135841218D01*
X108637786Y-135910844D01*
X108642590Y-135935000D01*
X106835124Y-135935000D01*
X106751364Y-135732286D01*
X106568676Y-135549278D01*
X106329860Y-135450113D01*
X106071274Y-135449888D01*
X105832286Y-135548636D01*
X105649278Y-135731324D01*
X105550113Y-135970140D01*
X105549888Y-136228726D01*
X105648636Y-136467714D01*
X105831324Y-136650722D01*
X106070140Y-136749887D01*
X106236894Y-136750032D01*
X106312792Y-136800746D01*
X106485000Y-136835000D01*
X108469565Y-136835000D01*
X108469533Y-136872231D01*
X108568281Y-137111219D01*
X108750969Y-137294227D01*
X108989785Y-137393392D01*
X109248371Y-137393617D01*
X109487359Y-137294869D01*
X109581629Y-137200764D01*
X109731324Y-137350722D01*
X109970140Y-137449887D01*
X110228726Y-137450112D01*
X110467714Y-137351364D01*
X110650722Y-137168676D01*
X110749887Y-136929860D01*
X110750112Y-136671274D01*
X110651364Y-136432286D01*
X110468676Y-136249278D01*
X110229860Y-136150113D01*
X110157156Y-136150050D01*
X109722863Y-135715756D01*
X109769532Y-135603364D01*
X109769757Y-135344778D01*
X109671009Y-135105790D01*
X109488321Y-134922782D01*
X109249505Y-134823617D01*
X109176801Y-134823554D01*
X108699694Y-134346447D01*
X108537483Y-134238060D01*
X108534668Y-134237500D01*
X108346141Y-134200000D01*
X107284999Y-134200000D01*
X107284999Y-133985033D01*
X107465183Y-134059852D01*
X107803334Y-134060147D01*
X108115857Y-133931015D01*
X108355174Y-133692115D01*
X108484852Y-133379817D01*
X108485147Y-133041666D01*
X108356015Y-132729143D01*
X108117115Y-132489826D01*
X107804817Y-132360148D01*
X107466666Y-132359853D01*
X107284999Y-132434916D01*
X107284999Y-130301820D01*
X107348791Y-130238028D01*
X107420461Y-130238090D01*
X107659449Y-130139342D01*
X107842457Y-129956654D01*
X107855997Y-129924045D01*
X114361310Y-129924045D01*
X114380957Y-130050476D01*
X114619707Y-130149800D01*
X114878293Y-130150198D01*
X115117347Y-130051609D01*
X115119043Y-130050476D01*
X115138690Y-129924045D01*
X116861310Y-129924045D01*
X116880957Y-130050476D01*
X117119707Y-130149800D01*
X117378293Y-130150198D01*
X117617347Y-130051609D01*
X117619043Y-130050476D01*
X117638690Y-129924045D01*
X119361310Y-129924045D01*
X119380957Y-130050476D01*
X119619707Y-130149800D01*
X119878293Y-130150198D01*
X120117347Y-130051609D01*
X120119043Y-130050476D01*
X120138690Y-129924045D01*
X119750000Y-129535355D01*
X119361310Y-129924045D01*
X117638690Y-129924045D01*
X117250000Y-129535355D01*
X116861310Y-129924045D01*
X115138690Y-129924045D01*
X114750000Y-129535355D01*
X114361310Y-129924045D01*
X107855997Y-129924045D01*
X107941622Y-129717838D01*
X107941699Y-129628293D01*
X114099802Y-129628293D01*
X114198391Y-129867347D01*
X114199524Y-129869043D01*
X114325955Y-129888690D01*
X114714645Y-129500000D01*
X114785355Y-129500000D01*
X115174045Y-129888690D01*
X115300476Y-129869043D01*
X115399800Y-129630293D01*
X115399803Y-129628293D01*
X116599802Y-129628293D01*
X116698391Y-129867347D01*
X116699524Y-129869043D01*
X116825955Y-129888690D01*
X117214645Y-129500000D01*
X117285355Y-129500000D01*
X117674045Y-129888690D01*
X117800476Y-129869043D01*
X117899800Y-129630293D01*
X117899803Y-129628293D01*
X119099802Y-129628293D01*
X119198391Y-129867347D01*
X119199524Y-129869043D01*
X119325955Y-129888690D01*
X119714645Y-129500000D01*
X119785355Y-129500000D01*
X120174045Y-129888690D01*
X120300476Y-129869043D01*
X120399800Y-129630293D01*
X120400198Y-129371707D01*
X120301609Y-129132653D01*
X120300476Y-129130957D01*
X120174045Y-129111310D01*
X119785355Y-129500000D01*
X119714645Y-129500000D01*
X119325955Y-129111310D01*
X119199524Y-129130957D01*
X119100200Y-129369707D01*
X119099802Y-129628293D01*
X117899803Y-129628293D01*
X117900198Y-129371707D01*
X117801609Y-129132653D01*
X117800476Y-129130957D01*
X117674045Y-129111310D01*
X117285355Y-129500000D01*
X117214645Y-129500000D01*
X116825955Y-129111310D01*
X116699524Y-129130957D01*
X116600200Y-129369707D01*
X116599802Y-129628293D01*
X115399803Y-129628293D01*
X115400198Y-129371707D01*
X115301609Y-129132653D01*
X115300476Y-129130957D01*
X115174045Y-129111310D01*
X114785355Y-129500000D01*
X114714645Y-129500000D01*
X114325955Y-129111310D01*
X114199524Y-129130957D01*
X114100200Y-129369707D01*
X114099802Y-129628293D01*
X107941699Y-129628293D01*
X107941847Y-129459252D01*
X107843099Y-129220264D01*
X107699043Y-129075955D01*
X114361310Y-129075955D01*
X114750000Y-129464645D01*
X115138690Y-129075955D01*
X116861310Y-129075955D01*
X117250000Y-129464645D01*
X117638690Y-129075955D01*
X119361310Y-129075955D01*
X119750000Y-129464645D01*
X120138690Y-129075955D01*
X120119043Y-128949524D01*
X119880293Y-128850200D01*
X119621707Y-128849802D01*
X119382653Y-128948391D01*
X119380957Y-128949524D01*
X119361310Y-129075955D01*
X117638690Y-129075955D01*
X117619043Y-128949524D01*
X117380293Y-128850200D01*
X117121707Y-128849802D01*
X116882653Y-128948391D01*
X116880957Y-128949524D01*
X116861310Y-129075955D01*
X115138690Y-129075955D01*
X115119043Y-128949524D01*
X114880293Y-128850200D01*
X114621707Y-128849802D01*
X114382653Y-128948391D01*
X114380957Y-128949524D01*
X114361310Y-129075955D01*
X107699043Y-129075955D01*
X107660411Y-129037256D01*
X107421595Y-128938091D01*
X107163009Y-128937866D01*
X106924021Y-129036614D01*
X106741013Y-129219302D01*
X106641848Y-129458118D01*
X106641785Y-129530822D01*
X106431446Y-129741161D01*
X106323059Y-129903372D01*
X106284999Y-130094714D01*
X106284999Y-134073009D01*
X106229860Y-134050113D01*
X105971274Y-134049888D01*
X105732286Y-134148636D01*
X105549278Y-134331324D01*
X105450113Y-134570140D01*
X105449888Y-134828726D01*
X105176157Y-134828726D01*
X105195142Y-134816041D01*
X105379399Y-134540281D01*
X105444101Y-134215000D01*
X105379399Y-133889719D01*
X105195142Y-133613959D01*
X104919382Y-133429702D01*
X104594101Y-133365000D01*
X104305899Y-133365000D01*
X103980618Y-133429702D01*
X103704858Y-133613959D01*
X103520601Y-133889719D01*
X103455899Y-134215000D01*
X100425000Y-134215000D01*
X100425000Y-129765000D01*
X103455899Y-129765000D01*
X103520601Y-130090281D01*
X103704858Y-130366041D01*
X103980618Y-130550298D01*
X104305899Y-130615000D01*
X104594101Y-130615000D01*
X104919382Y-130550298D01*
X105195142Y-130366041D01*
X105379399Y-130090281D01*
X105444101Y-129765000D01*
X105379399Y-129439719D01*
X105195142Y-129163959D01*
X104919382Y-128979702D01*
X104594101Y-128915000D01*
X104305899Y-128915000D01*
X103980618Y-128979702D01*
X103704858Y-129163959D01*
X103520601Y-129439719D01*
X103455899Y-129765000D01*
X100425000Y-129765000D01*
X100425000Y-128450459D01*
X100649250Y-128600298D01*
X100974531Y-128665000D01*
X101925469Y-128665000D01*
X102250750Y-128600298D01*
X102526510Y-128416041D01*
X102710767Y-128140281D01*
X102775469Y-127815000D01*
X102710767Y-127489719D01*
X102526510Y-127213959D01*
X102250750Y-127029702D01*
X101925469Y-126965000D01*
X100974531Y-126965000D01*
X100649250Y-127029702D01*
X100425000Y-127179541D01*
X100425000Y-126041860D01*
X100476462Y-125783143D01*
X100599300Y-125599302D01*
X100783144Y-125476462D01*
X101041860Y-125425000D01*
X121150013Y-125425000D01*
X121149888Y-125568715D01*
X121149888Y-125568715D01*
G37*
X121149888Y-125568715D02*
X121248636Y-125807703D01*
X121300000Y-125859157D01*
X121300000Y-128900000D01*
X121326122Y-129031324D01*
X121338060Y-129091342D01*
X121446447Y-129253553D01*
X121549950Y-129357057D01*
X121549888Y-129428726D01*
X121648636Y-129667714D01*
X121831324Y-129850722D01*
X122070140Y-129949887D01*
X122328726Y-129950112D01*
X122567714Y-129851364D01*
X122750722Y-129668676D01*
X122849887Y-129429860D01*
X122850112Y-129171274D01*
X122751364Y-128932286D01*
X122568676Y-128749278D01*
X122329860Y-128650113D01*
X122300000Y-128650087D01*
X122300000Y-125859298D01*
X122350722Y-125808665D01*
X122449887Y-125569849D01*
X122450013Y-125425000D01*
X129208719Y-125425000D01*
X129101175Y-125494203D01*
X129021259Y-125611163D01*
X128993144Y-125750000D01*
X128993144Y-127550000D01*
X129017549Y-127679702D01*
X129094203Y-127798825D01*
X129211163Y-127878741D01*
X129350000Y-127906856D01*
X132065061Y-127906856D01*
X131984254Y-128027792D01*
X131950000Y-128200000D01*
X131950000Y-128930778D01*
X131849278Y-129031324D01*
X131750113Y-129270140D01*
X131749888Y-129528726D01*
X131848636Y-129767714D01*
X132031324Y-129950722D01*
X132270140Y-130049887D01*
X132528726Y-130050112D01*
X132767714Y-129951364D01*
X132950722Y-129768676D01*
X133049887Y-129529860D01*
X133050112Y-129271274D01*
X132951364Y-129032286D01*
X132850000Y-128930744D01*
X132850000Y-128386396D01*
X132886396Y-128350000D01*
X133340002Y-128350000D01*
X133512210Y-128315746D01*
X133658200Y-128218198D01*
X133818198Y-128058200D01*
X133915746Y-127912210D01*
X133950000Y-127740002D01*
X133950000Y-126810660D01*
X134018198Y-126742462D01*
X134115746Y-126596472D01*
X134138842Y-126480361D01*
X134250722Y-126368676D01*
X134349887Y-126129860D01*
X134350112Y-125871274D01*
X134251364Y-125632286D01*
X134068676Y-125449278D01*
X134010208Y-125425000D01*
X135958140Y-125425000D01*
X136216857Y-125476462D01*
X136400698Y-125599300D01*
X136523538Y-125783144D01*
X136575000Y-126041860D01*
X136575000Y-137958140D01*
X136523538Y-138216856D01*
X136400698Y-138400700D01*
X136216857Y-138523538D01*
X135958140Y-138575000D01*
X133291281Y-138575000D01*
X133398825Y-138505797D01*
X133478741Y-138388837D01*
X133506856Y-138250000D01*
X133506856Y-136450000D01*
X133482451Y-136320298D01*
X133405797Y-136201175D01*
X133288837Y-136121259D01*
X133150000Y-136093144D01*
X129350000Y-136093144D01*
X129220298Y-136117549D01*
X129101175Y-136194203D01*
X129021259Y-136311163D01*
X128993144Y-136450000D01*
X128993144Y-138250000D01*
X129017549Y-138379702D01*
X129094203Y-138498825D01*
X129205688Y-138575000D01*
X126752763Y-138575000D01*
X126854994Y-138472948D01*
X126954159Y-138234132D01*
X126954384Y-137975546D01*
X126855636Y-137736558D01*
X126672948Y-137553550D01*
X126434132Y-137454385D01*
X126175546Y-137454160D01*
X125936558Y-137552908D01*
X125753550Y-137735596D01*
X125654385Y-137974412D01*
X125654319Y-138050000D01*
X121780395Y-138050000D01*
X121780437Y-138001599D01*
X121681689Y-137762611D01*
X121499001Y-137579603D01*
X121260185Y-137480438D01*
X121001599Y-137480213D01*
X120762611Y-137578961D01*
X120579603Y-137761649D01*
X120480438Y-138000465D01*
X120480213Y-138259051D01*
X120578961Y-138498039D01*
X120655787Y-138575000D01*
X109453024Y-138575000D01*
X109500852Y-138459817D01*
X109501147Y-138121666D01*
X109372015Y-137809143D01*
X109338951Y-137776021D01*
X110511809Y-137776021D01*
X110610557Y-138015009D01*
X110793245Y-138198017D01*
X111032061Y-138297182D01*
X111290647Y-138297407D01*
X111529635Y-138198659D01*
X111712643Y-138015971D01*
X111800027Y-137805527D01*
X112199999Y-137805527D01*
X112372207Y-137771273D01*
X112449983Y-137719304D01*
X112449888Y-137828726D01*
X112548636Y-138067714D01*
X112731324Y-138250722D01*
X112970140Y-138349887D01*
X113228726Y-138350112D01*
X113467714Y-138251364D01*
X113650722Y-138068676D01*
X113749887Y-137829860D01*
X113750112Y-137571274D01*
X113651364Y-137332286D01*
X113550000Y-137230744D01*
X113550000Y-136674531D01*
X127200000Y-136674531D01*
X127200000Y-137725469D01*
X127260896Y-138031616D01*
X127434315Y-138291154D01*
X127693853Y-138464573D01*
X128000000Y-138525469D01*
X128306147Y-138464573D01*
X128565685Y-138291154D01*
X128739104Y-138031616D01*
X128800000Y-137725469D01*
X128800000Y-136674531D01*
X128739104Y-136368384D01*
X128565685Y-136108846D01*
X128306147Y-135935427D01*
X128000000Y-135874531D01*
X127693853Y-135935427D01*
X127434315Y-136108846D01*
X127260896Y-136368384D01*
X127200000Y-136674531D01*
X113550000Y-136674531D01*
X113550000Y-135461745D01*
X120499881Y-135461745D01*
X120598629Y-135700733D01*
X120781317Y-135883741D01*
X121020133Y-135982906D01*
X121278719Y-135983131D01*
X121517707Y-135884383D01*
X121700715Y-135701695D01*
X121799880Y-135462879D01*
X121800005Y-135319403D01*
X121918198Y-135201210D01*
X121977472Y-135112500D01*
X124800000Y-135112500D01*
X124800000Y-135569619D01*
X124853284Y-135698259D01*
X124951741Y-135796715D01*
X125080380Y-135850000D01*
X126537500Y-135850000D01*
X126625000Y-135762500D01*
X126625000Y-135025000D01*
X126675000Y-135025000D01*
X126675000Y-135762500D01*
X126762500Y-135850000D01*
X128219620Y-135850000D01*
X128348259Y-135796715D01*
X128446716Y-135698259D01*
X128500000Y-135569619D01*
X128500000Y-135112500D01*
X128412500Y-135025000D01*
X126675000Y-135025000D01*
X126625000Y-135025000D01*
X124887500Y-135025000D01*
X124800000Y-135112500D01*
X121977472Y-135112500D01*
X122015746Y-135055220D01*
X122050000Y-134883012D01*
X122050000Y-132500000D01*
X124793144Y-132500000D01*
X124793144Y-133500000D01*
X124817549Y-133629702D01*
X124894203Y-133748825D01*
X125011163Y-133828741D01*
X125150000Y-133856856D01*
X125760023Y-133856856D01*
X125759890Y-134009693D01*
X125817864Y-134150000D01*
X125080380Y-134150000D01*
X124951741Y-134203285D01*
X124853284Y-134301741D01*
X124800000Y-134430381D01*
X124800000Y-134887500D01*
X124887500Y-134975000D01*
X126625000Y-134975000D01*
X126625000Y-134955000D01*
X126675000Y-134955000D01*
X126675000Y-134975000D01*
X128412500Y-134975000D01*
X128500000Y-134887500D01*
X128500000Y-134430381D01*
X128446716Y-134301741D01*
X128348259Y-134203285D01*
X128219620Y-134150000D01*
X127002099Y-134150000D01*
X127059889Y-134010827D01*
X127060023Y-133856856D01*
X128150000Y-133856856D01*
X128279702Y-133832451D01*
X128398825Y-133755797D01*
X128478741Y-133638837D01*
X128506856Y-133500000D01*
X128506856Y-132500000D01*
X128482451Y-132370298D01*
X128405797Y-132251175D01*
X128288837Y-132171259D01*
X128150000Y-132143144D01*
X125150000Y-132143144D01*
X125020298Y-132167549D01*
X124901175Y-132244203D01*
X124821259Y-132361163D01*
X124793144Y-132500000D01*
X122050000Y-132500000D01*
X122050000Y-132329224D01*
X122150722Y-132228678D01*
X122249887Y-131989862D01*
X122250112Y-131731276D01*
X122151364Y-131492288D01*
X122138658Y-131479559D01*
X123996680Y-131479559D01*
X124095428Y-131718547D01*
X124278116Y-131901555D01*
X124516932Y-132000720D01*
X124775518Y-132000945D01*
X125014506Y-131902197D01*
X125075117Y-131841692D01*
X125150000Y-131856856D01*
X128150000Y-131856856D01*
X128279702Y-131832451D01*
X128398825Y-131755797D01*
X128478741Y-131638837D01*
X128506856Y-131500000D01*
X128506856Y-130500000D01*
X128482451Y-130370298D01*
X128405797Y-130251175D01*
X128288837Y-130171259D01*
X128150000Y-130143144D01*
X125363962Y-130143144D01*
X125650251Y-129856856D01*
X128150000Y-129856856D01*
X128279702Y-129832451D01*
X128398825Y-129755797D01*
X128478741Y-129638837D01*
X128506856Y-129500000D01*
X128506856Y-128500000D01*
X128482451Y-128370298D01*
X128405797Y-128251175D01*
X128288837Y-128171259D01*
X128150000Y-128143144D01*
X125993252Y-128143144D01*
X127144927Y-126991469D01*
X127213536Y-126991529D01*
X127321397Y-127252572D01*
X127546245Y-127477812D01*
X127840172Y-127599861D01*
X128158432Y-127600139D01*
X128452572Y-127478603D01*
X128677812Y-127253755D01*
X128799861Y-126959828D01*
X128800139Y-126641568D01*
X128678603Y-126347428D01*
X128453755Y-126122188D01*
X128159828Y-126000139D01*
X127841568Y-125999861D01*
X127738296Y-126042532D01*
X127709883Y-125973767D01*
X127527195Y-125790759D01*
X127288379Y-125691594D01*
X127029793Y-125691369D01*
X126790805Y-125790117D01*
X126607797Y-125972805D01*
X126508632Y-126211621D01*
X126508507Y-126355097D01*
X125213604Y-127650000D01*
X125009998Y-127650000D01*
X124837790Y-127684254D01*
X124772630Y-127727793D01*
X124691800Y-127781802D01*
X124481802Y-127991800D01*
X124384254Y-128137790D01*
X124350000Y-128309998D01*
X124350000Y-128645665D01*
X124282284Y-128673645D01*
X124099276Y-128856333D01*
X124000111Y-129095149D01*
X123999886Y-129353735D01*
X124098634Y-129592723D01*
X124193222Y-129687477D01*
X124137502Y-129743100D01*
X124038337Y-129981916D01*
X124038112Y-130240502D01*
X124136860Y-130479490D01*
X124319548Y-130662498D01*
X124464701Y-130722771D01*
X124279078Y-130799469D01*
X124096070Y-130982157D01*
X123996905Y-131220973D01*
X123996680Y-131479559D01*
X122138658Y-131479559D01*
X121968676Y-131309280D01*
X121729860Y-131210115D01*
X121471274Y-131209890D01*
X121232286Y-131308638D01*
X121049278Y-131491326D01*
X120950113Y-131730142D01*
X120949888Y-131988728D01*
X121048636Y-132227716D01*
X121150000Y-132329258D01*
X121150000Y-134683019D01*
X121021267Y-134682907D01*
X120782279Y-134781655D01*
X120599271Y-134964343D01*
X120500106Y-135203159D01*
X120499881Y-135461745D01*
X113550000Y-135461745D01*
X113550000Y-134924045D01*
X114361310Y-134924045D01*
X114380957Y-135050476D01*
X114619707Y-135149800D01*
X114878293Y-135150198D01*
X115117347Y-135051609D01*
X115119043Y-135050476D01*
X115138690Y-134924045D01*
X116861310Y-134924045D01*
X116880957Y-135050476D01*
X117119707Y-135149800D01*
X117378293Y-135150198D01*
X117617347Y-135051609D01*
X117619043Y-135050476D01*
X117638690Y-134924045D01*
X119361310Y-134924045D01*
X119380957Y-135050476D01*
X119619707Y-135149800D01*
X119878293Y-135150198D01*
X120117347Y-135051609D01*
X120119043Y-135050476D01*
X120138690Y-134924045D01*
X119750000Y-134535355D01*
X119361310Y-134924045D01*
X117638690Y-134924045D01*
X117250000Y-134535355D01*
X116861310Y-134924045D01*
X115138690Y-134924045D01*
X114750000Y-134535355D01*
X114361310Y-134924045D01*
X113550000Y-134924045D01*
X113550000Y-134628293D01*
X114099802Y-134628293D01*
X114198391Y-134867347D01*
X114199524Y-134869043D01*
X114325955Y-134888690D01*
X114714645Y-134500000D01*
X114785355Y-134500000D01*
X115174045Y-134888690D01*
X115300476Y-134869043D01*
X115399800Y-134630293D01*
X115399803Y-134628293D01*
X116599802Y-134628293D01*
X116698391Y-134867347D01*
X116699524Y-134869043D01*
X116825955Y-134888690D01*
X117214645Y-134500000D01*
X117285355Y-134500000D01*
X117674045Y-134888690D01*
X117800476Y-134869043D01*
X117899800Y-134630293D01*
X117899803Y-134628293D01*
X119099802Y-134628293D01*
X119198391Y-134867347D01*
X119199524Y-134869043D01*
X119325955Y-134888690D01*
X119714645Y-134500000D01*
X119785355Y-134500000D01*
X120174045Y-134888690D01*
X120300476Y-134869043D01*
X120399800Y-134630293D01*
X120400198Y-134371707D01*
X120301609Y-134132653D01*
X120300476Y-134130957D01*
X120174045Y-134111310D01*
X119785355Y-134500000D01*
X119714645Y-134500000D01*
X119325955Y-134111310D01*
X119199524Y-134130957D01*
X119100200Y-134369707D01*
X119099802Y-134628293D01*
X117899803Y-134628293D01*
X117900198Y-134371707D01*
X117801609Y-134132653D01*
X117800476Y-134130957D01*
X117674045Y-134111310D01*
X117285355Y-134500000D01*
X117214645Y-134500000D01*
X116825955Y-134111310D01*
X116699524Y-134130957D01*
X116600200Y-134369707D01*
X116599802Y-134628293D01*
X115399803Y-134628293D01*
X115400198Y-134371707D01*
X115301609Y-134132653D01*
X115300476Y-134130957D01*
X115174045Y-134111310D01*
X114785355Y-134500000D01*
X114714645Y-134500000D01*
X114325955Y-134111310D01*
X114199524Y-134130957D01*
X114100200Y-134369707D01*
X114099802Y-134628293D01*
X113550000Y-134628293D01*
X113550000Y-134075955D01*
X114361310Y-134075955D01*
X114750000Y-134464645D01*
X115138690Y-134075955D01*
X116861310Y-134075955D01*
X117250000Y-134464645D01*
X117638690Y-134075955D01*
X119361310Y-134075955D01*
X119750000Y-134464645D01*
X120138690Y-134075955D01*
X120119043Y-133949524D01*
X119880293Y-133850200D01*
X119621707Y-133849802D01*
X119382653Y-133948391D01*
X119380957Y-133949524D01*
X119361310Y-134075955D01*
X117638690Y-134075955D01*
X117619043Y-133949524D01*
X117380293Y-133850200D01*
X117121707Y-133849802D01*
X116882653Y-133948391D01*
X116880957Y-133949524D01*
X116861310Y-134075955D01*
X115138690Y-134075955D01*
X115119043Y-133949524D01*
X114880293Y-133850200D01*
X114621707Y-133849802D01*
X114382653Y-133948391D01*
X114380957Y-133949524D01*
X114361310Y-134075955D01*
X113550000Y-134075955D01*
X113550000Y-132849990D01*
X113515746Y-132677782D01*
X113418198Y-132531792D01*
X113310451Y-132424045D01*
X114361310Y-132424045D01*
X114380957Y-132550476D01*
X114619707Y-132649800D01*
X114878293Y-132650198D01*
X115117347Y-132551609D01*
X115119043Y-132550476D01*
X115138690Y-132424045D01*
X116861310Y-132424045D01*
X116880957Y-132550476D01*
X117119707Y-132649800D01*
X117378293Y-132650198D01*
X117617347Y-132551609D01*
X117619043Y-132550476D01*
X117638690Y-132424045D01*
X119361310Y-132424045D01*
X119380957Y-132550476D01*
X119619707Y-132649800D01*
X119878293Y-132650198D01*
X120117347Y-132551609D01*
X120119043Y-132550476D01*
X120138690Y-132424045D01*
X119750000Y-132035355D01*
X119361310Y-132424045D01*
X117638690Y-132424045D01*
X117250000Y-132035355D01*
X116861310Y-132424045D01*
X115138690Y-132424045D01*
X114750000Y-132035355D01*
X114361310Y-132424045D01*
X113310451Y-132424045D01*
X113049988Y-132163582D01*
X113050018Y-132128293D01*
X114099802Y-132128293D01*
X114198391Y-132367347D01*
X114199524Y-132369043D01*
X114325955Y-132388690D01*
X114714645Y-132000000D01*
X114785355Y-132000000D01*
X115174045Y-132388690D01*
X115300476Y-132369043D01*
X115399800Y-132130293D01*
X115399803Y-132128293D01*
X116599802Y-132128293D01*
X116698391Y-132367347D01*
X116699524Y-132369043D01*
X116825955Y-132388690D01*
X117214645Y-132000000D01*
X117285355Y-132000000D01*
X117674045Y-132388690D01*
X117800476Y-132369043D01*
X117899800Y-132130293D01*
X117899803Y-132128293D01*
X119099802Y-132128293D01*
X119198391Y-132367347D01*
X119199524Y-132369043D01*
X119325955Y-132388690D01*
X119714645Y-132000000D01*
X119785355Y-132000000D01*
X120174045Y-132388690D01*
X120300476Y-132369043D01*
X120399800Y-132130293D01*
X120400198Y-131871707D01*
X120301609Y-131632653D01*
X120300476Y-131630957D01*
X120174045Y-131611310D01*
X119785355Y-132000000D01*
X119714645Y-132000000D01*
X119325955Y-131611310D01*
X119199524Y-131630957D01*
X119100200Y-131869707D01*
X119099802Y-132128293D01*
X117899803Y-132128293D01*
X117900198Y-131871707D01*
X117801609Y-131632653D01*
X117800476Y-131630957D01*
X117674045Y-131611310D01*
X117285355Y-132000000D01*
X117214645Y-132000000D01*
X116825955Y-131611310D01*
X116699524Y-131630957D01*
X116600200Y-131869707D01*
X116599802Y-132128293D01*
X115399803Y-132128293D01*
X115400198Y-131871707D01*
X115301609Y-131632653D01*
X115300476Y-131630957D01*
X115174045Y-131611310D01*
X114785355Y-132000000D01*
X114714645Y-132000000D01*
X114325955Y-131611310D01*
X114199524Y-131630957D01*
X114100200Y-131869707D01*
X114099802Y-132128293D01*
X113050018Y-132128293D01*
X113050112Y-132021264D01*
X113000665Y-131901594D01*
X113156855Y-131745677D01*
X113227329Y-131575955D01*
X114361310Y-131575955D01*
X114750000Y-131964645D01*
X115138690Y-131575955D01*
X116861310Y-131575955D01*
X117250000Y-131964645D01*
X117638690Y-131575955D01*
X119361310Y-131575955D01*
X119750000Y-131964645D01*
X120138690Y-131575955D01*
X120119043Y-131449524D01*
X119880293Y-131350200D01*
X119621707Y-131349802D01*
X119382653Y-131448391D01*
X119380957Y-131449524D01*
X119361310Y-131575955D01*
X117638690Y-131575955D01*
X117619043Y-131449524D01*
X117380293Y-131350200D01*
X117121707Y-131349802D01*
X116882653Y-131448391D01*
X116880957Y-131449524D01*
X116861310Y-131575955D01*
X115138690Y-131575955D01*
X115119043Y-131449524D01*
X114880293Y-131350200D01*
X114621707Y-131349802D01*
X114382653Y-131448391D01*
X114380957Y-131449524D01*
X114361310Y-131575955D01*
X113227329Y-131575955D01*
X113256020Y-131506861D01*
X113256245Y-131248275D01*
X113157497Y-131009287D01*
X112974809Y-130826279D01*
X112735993Y-130727114D01*
X112549977Y-130726952D01*
X112550112Y-130571274D01*
X112451364Y-130332286D01*
X112268676Y-130149278D01*
X112029860Y-130050113D01*
X111771274Y-130049888D01*
X111532286Y-130148636D01*
X111430744Y-130250000D01*
X111400000Y-130250000D01*
X111227792Y-130284254D01*
X111112690Y-130361163D01*
X111081802Y-130381802D01*
X110781802Y-130681802D01*
X110684254Y-130827792D01*
X110650000Y-131000000D01*
X110650000Y-133400000D01*
X110684254Y-133572208D01*
X110750448Y-133671274D01*
X110781802Y-133718198D01*
X110850012Y-133786408D01*
X110849888Y-133928726D01*
X110948636Y-134167714D01*
X111131324Y-134350722D01*
X111370140Y-134449887D01*
X111628726Y-134450112D01*
X111867714Y-134351364D01*
X112050722Y-134168676D01*
X112149887Y-133929860D01*
X112150000Y-133799992D01*
X112150000Y-136769130D01*
X112013603Y-136905527D01*
X111453689Y-136905527D01*
X111281481Y-136939781D01*
X111195362Y-136997324D01*
X111033195Y-136997183D01*
X110794207Y-137095931D01*
X110611199Y-137278619D01*
X110512034Y-137517435D01*
X110511809Y-137776021D01*
X109338951Y-137776021D01*
X109133115Y-137569826D01*
X108820817Y-137440148D01*
X108482666Y-137439853D01*
X108170143Y-137568985D01*
X107930826Y-137807885D01*
X107801148Y-138120183D01*
X107800853Y-138458334D01*
X107849058Y-138575000D01*
X107421024Y-138575000D01*
X107468852Y-138459817D01*
X107469147Y-138121666D01*
X107340015Y-137809143D01*
X107101115Y-137569826D01*
X106788817Y-137440148D01*
X106450666Y-137439853D01*
X106138143Y-137568985D01*
X105898826Y-137807885D01*
X105769148Y-138120183D01*
X105768853Y-138458334D01*
X105817058Y-138575000D01*
X101041860Y-138575000D01*
X100783144Y-138523538D01*
X100599300Y-138400698D01*
X100476462Y-138216857D01*
X100425000Y-137958140D01*
X100425000Y-136800459D01*
X100649250Y-136950298D01*
X100974531Y-137015000D01*
X101925469Y-137015000D01*
X102250750Y-136950298D01*
X102526510Y-136766041D01*
X102710767Y-136490281D01*
X102775469Y-136165000D01*
X102710767Y-135839719D01*
X102526510Y-135563959D01*
X102250750Y-135379702D01*
X101925469Y-135315000D01*
X100974531Y-135315000D01*
X100649250Y-135379702D01*
X100425000Y-135529541D01*
X100425000Y-134215000D01*
X103455899Y-134215000D01*
X103520601Y-134540281D01*
X103704858Y-134816041D01*
X103980618Y-135000298D01*
X104305899Y-135065000D01*
X104594101Y-135065000D01*
X104919382Y-135000298D01*
X105176157Y-134828726D01*
X105449888Y-134828726D01*
X105548636Y-135067714D01*
X105731324Y-135250722D01*
X105970140Y-135349887D01*
X106228726Y-135350112D01*
X106467714Y-135251364D01*
X106519168Y-135200000D01*
X108139035Y-135200000D01*
X108469595Y-135530560D01*
X108469533Y-135602230D01*
X108568281Y-135841218D01*
X108637786Y-135910844D01*
X108642590Y-135935000D01*
X106835124Y-135935000D01*
X106751364Y-135732286D01*
X106568676Y-135549278D01*
X106329860Y-135450113D01*
X106071274Y-135449888D01*
X105832286Y-135548636D01*
X105649278Y-135731324D01*
X105550113Y-135970140D01*
X105549888Y-136228726D01*
X105648636Y-136467714D01*
X105831324Y-136650722D01*
X106070140Y-136749887D01*
X106236894Y-136750032D01*
X106312792Y-136800746D01*
X106485000Y-136835000D01*
X108469565Y-136835000D01*
X108469533Y-136872231D01*
X108568281Y-137111219D01*
X108750969Y-137294227D01*
X108989785Y-137393392D01*
X109248371Y-137393617D01*
X109487359Y-137294869D01*
X109581629Y-137200764D01*
X109731324Y-137350722D01*
X109970140Y-137449887D01*
X110228726Y-137450112D01*
X110467714Y-137351364D01*
X110650722Y-137168676D01*
X110749887Y-136929860D01*
X110750112Y-136671274D01*
X110651364Y-136432286D01*
X110468676Y-136249278D01*
X110229860Y-136150113D01*
X110157156Y-136150050D01*
X109722863Y-135715756D01*
X109769532Y-135603364D01*
X109769757Y-135344778D01*
X109671009Y-135105790D01*
X109488321Y-134922782D01*
X109249505Y-134823617D01*
X109176801Y-134823554D01*
X108699694Y-134346447D01*
X108537483Y-134238060D01*
X108534668Y-134237500D01*
X108346141Y-134200000D01*
X107284999Y-134200000D01*
X107284999Y-133985033D01*
X107465183Y-134059852D01*
X107803334Y-134060147D01*
X108115857Y-133931015D01*
X108355174Y-133692115D01*
X108484852Y-133379817D01*
X108485147Y-133041666D01*
X108356015Y-132729143D01*
X108117115Y-132489826D01*
X107804817Y-132360148D01*
X107466666Y-132359853D01*
X107284999Y-132434916D01*
X107284999Y-130301820D01*
X107348791Y-130238028D01*
X107420461Y-130238090D01*
X107659449Y-130139342D01*
X107842457Y-129956654D01*
X107855997Y-129924045D01*
X114361310Y-129924045D01*
X114380957Y-130050476D01*
X114619707Y-130149800D01*
X114878293Y-130150198D01*
X115117347Y-130051609D01*
X115119043Y-130050476D01*
X115138690Y-129924045D01*
X116861310Y-129924045D01*
X116880957Y-130050476D01*
X117119707Y-130149800D01*
X117378293Y-130150198D01*
X117617347Y-130051609D01*
X117619043Y-130050476D01*
X117638690Y-129924045D01*
X119361310Y-129924045D01*
X119380957Y-130050476D01*
X119619707Y-130149800D01*
X119878293Y-130150198D01*
X120117347Y-130051609D01*
X120119043Y-130050476D01*
X120138690Y-129924045D01*
X119750000Y-129535355D01*
X119361310Y-129924045D01*
X117638690Y-129924045D01*
X117250000Y-129535355D01*
X116861310Y-129924045D01*
X115138690Y-129924045D01*
X114750000Y-129535355D01*
X114361310Y-129924045D01*
X107855997Y-129924045D01*
X107941622Y-129717838D01*
X107941699Y-129628293D01*
X114099802Y-129628293D01*
X114198391Y-129867347D01*
X114199524Y-129869043D01*
X114325955Y-129888690D01*
X114714645Y-129500000D01*
X114785355Y-129500000D01*
X115174045Y-129888690D01*
X115300476Y-129869043D01*
X115399800Y-129630293D01*
X115399803Y-129628293D01*
X116599802Y-129628293D01*
X116698391Y-129867347D01*
X116699524Y-129869043D01*
X116825955Y-129888690D01*
X117214645Y-129500000D01*
X117285355Y-129500000D01*
X117674045Y-129888690D01*
X117800476Y-129869043D01*
X117899800Y-129630293D01*
X117899803Y-129628293D01*
X119099802Y-129628293D01*
X119198391Y-129867347D01*
X119199524Y-129869043D01*
X119325955Y-129888690D01*
X119714645Y-129500000D01*
X119785355Y-129500000D01*
X120174045Y-129888690D01*
X120300476Y-129869043D01*
X120399800Y-129630293D01*
X120400198Y-129371707D01*
X120301609Y-129132653D01*
X120300476Y-129130957D01*
X120174045Y-129111310D01*
X119785355Y-129500000D01*
X119714645Y-129500000D01*
X119325955Y-129111310D01*
X119199524Y-129130957D01*
X119100200Y-129369707D01*
X119099802Y-129628293D01*
X117899803Y-129628293D01*
X117900198Y-129371707D01*
X117801609Y-129132653D01*
X117800476Y-129130957D01*
X117674045Y-129111310D01*
X117285355Y-129500000D01*
X117214645Y-129500000D01*
X116825955Y-129111310D01*
X116699524Y-129130957D01*
X116600200Y-129369707D01*
X116599802Y-129628293D01*
X115399803Y-129628293D01*
X115400198Y-129371707D01*
X115301609Y-129132653D01*
X115300476Y-129130957D01*
X115174045Y-129111310D01*
X114785355Y-129500000D01*
X114714645Y-129500000D01*
X114325955Y-129111310D01*
X114199524Y-129130957D01*
X114100200Y-129369707D01*
X114099802Y-129628293D01*
X107941699Y-129628293D01*
X107941847Y-129459252D01*
X107843099Y-129220264D01*
X107699043Y-129075955D01*
X114361310Y-129075955D01*
X114750000Y-129464645D01*
X115138690Y-129075955D01*
X116861310Y-129075955D01*
X117250000Y-129464645D01*
X117638690Y-129075955D01*
X119361310Y-129075955D01*
X119750000Y-129464645D01*
X120138690Y-129075955D01*
X120119043Y-128949524D01*
X119880293Y-128850200D01*
X119621707Y-128849802D01*
X119382653Y-128948391D01*
X119380957Y-128949524D01*
X119361310Y-129075955D01*
X117638690Y-129075955D01*
X117619043Y-128949524D01*
X117380293Y-128850200D01*
X117121707Y-128849802D01*
X116882653Y-128948391D01*
X116880957Y-128949524D01*
X116861310Y-129075955D01*
X115138690Y-129075955D01*
X115119043Y-128949524D01*
X114880293Y-128850200D01*
X114621707Y-128849802D01*
X114382653Y-128948391D01*
X114380957Y-128949524D01*
X114361310Y-129075955D01*
X107699043Y-129075955D01*
X107660411Y-129037256D01*
X107421595Y-128938091D01*
X107163009Y-128937866D01*
X106924021Y-129036614D01*
X106741013Y-129219302D01*
X106641848Y-129458118D01*
X106641785Y-129530822D01*
X106431446Y-129741161D01*
X106323059Y-129903372D01*
X106284999Y-130094714D01*
X106284999Y-134073009D01*
X106229860Y-134050113D01*
X105971274Y-134049888D01*
X105732286Y-134148636D01*
X105549278Y-134331324D01*
X105450113Y-134570140D01*
X105449888Y-134828726D01*
X105176157Y-134828726D01*
X105195142Y-134816041D01*
X105379399Y-134540281D01*
X105444101Y-134215000D01*
X105379399Y-133889719D01*
X105195142Y-133613959D01*
X104919382Y-133429702D01*
X104594101Y-133365000D01*
X104305899Y-133365000D01*
X103980618Y-133429702D01*
X103704858Y-133613959D01*
X103520601Y-133889719D01*
X103455899Y-134215000D01*
X100425000Y-134215000D01*
X100425000Y-129765000D01*
X103455899Y-129765000D01*
X103520601Y-130090281D01*
X103704858Y-130366041D01*
X103980618Y-130550298D01*
X104305899Y-130615000D01*
X104594101Y-130615000D01*
X104919382Y-130550298D01*
X105195142Y-130366041D01*
X105379399Y-130090281D01*
X105444101Y-129765000D01*
X105379399Y-129439719D01*
X105195142Y-129163959D01*
X104919382Y-128979702D01*
X104594101Y-128915000D01*
X104305899Y-128915000D01*
X103980618Y-128979702D01*
X103704858Y-129163959D01*
X103520601Y-129439719D01*
X103455899Y-129765000D01*
X100425000Y-129765000D01*
X100425000Y-128450459D01*
X100649250Y-128600298D01*
X100974531Y-128665000D01*
X101925469Y-128665000D01*
X102250750Y-128600298D01*
X102526510Y-128416041D01*
X102710767Y-128140281D01*
X102775469Y-127815000D01*
X102710767Y-127489719D01*
X102526510Y-127213959D01*
X102250750Y-127029702D01*
X101925469Y-126965000D01*
X100974531Y-126965000D01*
X100649250Y-127029702D01*
X100425000Y-127179541D01*
X100425000Y-126041860D01*
X100476462Y-125783143D01*
X100599300Y-125599302D01*
X100783144Y-125476462D01*
X101041860Y-125425000D01*
X121150013Y-125425000D01*
X121149888Y-125568715D01*
M02*
