M48
;DRILL file {KiCad 0.201512311516+6410~40~ubuntu14.04.1-stable} date Sun 03 Jan 2016 08:23:44 GMT
;FORMAT={-:-/ absolute / inch / decimal}
FMAT,2
INCH,TZ
T1C0.016
T2C0.024
T3C0.026
T4C0.035
T5C0.039
%
G90
G05
M72
T1
X4.1535Y-3.9606
X4.1535Y-3.9882
X4.1535Y-4.5906
X4.1535Y-4.6181
X4.1535Y-5.2205
X4.1535Y-5.248
X4.1555Y-4.0153
X4.1555Y-4.6452
X4.1555Y-5.2751
X4.1772Y-4.0433
X4.1772Y-4.6732
X4.1772Y-5.3031
X4.1811Y-4.0984
X4.1811Y-4.1339
X4.1811Y-4.7283
X4.1811Y-4.7638
X4.1811Y-5.3583
X4.1811Y-5.3937
X4.2241Y-3.842
X4.2241Y-4.472
X4.2241Y-5.1019
X4.236Y-4.1577
X4.236Y-4.7876
X4.236Y-5.4175
X4.2953Y-3.8661
X4.2953Y-4.4961
X4.2953Y-5.126
X4.296Y-4.0738
X4.296Y-4.1238
X4.296Y-4.7037
X4.296Y-4.7537
X4.296Y-5.3336
X4.296Y-5.3836
X4.3346Y-4.126
X4.3346Y-4.7559
X4.3346Y-5.3858
X4.374Y-3.7992
X4.374Y-4.4291
X4.374Y-5.0591
X4.3765Y-4.1593
X4.3765Y-4.7893
X4.3765Y-5.4192
X4.3898Y-4.0079
X4.3898Y-4.6378
X4.3898Y-5.2677
X4.4055Y-3.8858
X4.4055Y-4.5157
X4.4055Y-5.1457
X4.4062Y-4.0598
X4.4062Y-4.6897
X4.4062Y-5.3196
X4.4252Y-3.9429
X4.4252Y-4.5728
X4.4252Y-5.2028
X4.4333Y-3.9125
X4.4333Y-4.5424
X4.4333Y-5.1723
X4.4528Y-4.1614
X4.4528Y-4.7913
X4.4528Y-5.4213
X4.5177Y-3.8386
X4.5177Y-3.937
X4.5177Y-4.0354
X4.5177Y-4.4685
X4.5177Y-4.5669
X4.5177Y-4.6654
X4.5177Y-5.0984
X4.5177Y-5.1969
X4.5177Y-5.2953
X4.5748Y-3.7442
X4.5748Y-4.3742
X4.5748Y-5.0041
X4.6161Y-3.8386
X4.6161Y-3.937
X4.6161Y-4.0354
X4.6161Y-4.4685
X4.6161Y-4.5669
X4.6161Y-4.6654
X4.6161Y-5.0984
X4.6161Y-5.1969
X4.6161Y-5.2953
X4.6535Y-3.7283
X4.6535Y-4.3583
X4.6535Y-4.9882
X4.6594Y-4.1024
X4.6594Y-4.7323
X4.6594Y-5.3622
X4.7146Y-3.8386
X4.7146Y-3.937
X4.7146Y-4.0354
X4.7146Y-4.4685
X4.7146Y-4.5669
X4.7146Y-4.6654
X4.7146Y-5.0984
X4.7146Y-5.1969
X4.7146Y-5.2953
X4.7689Y-4.1784
X4.7689Y-4.8083
X4.7689Y-5.4382
X4.7697Y-4.0682
X4.7697Y-4.6982
X4.7697Y-5.3281
X4.7874Y-3.9315
X4.7874Y-4.5614
X4.7874Y-5.1913
X4.7953Y-3.6787
X4.7953Y-4.3087
X4.7953Y-4.9386
X4.811Y-3.8307
X4.811Y-4.4606
X4.811Y-5.0906
X4.886Y-3.8883
X4.886Y-4.5182
X4.886Y-5.1481
X4.9055Y-4.063
X4.9055Y-4.6929
X4.9055Y-5.3228
X4.9074Y-3.9115
X4.9074Y-4.5414
X4.9074Y-5.1713
X4.9075Y-3.8278
X4.9075Y-4.4577
X4.9075Y-5.0876
X4.909Y-3.8627
X4.909Y-4.4926
X4.909Y-5.1225
X4.9726Y-4.1773
X4.9726Y-4.8073
X4.9726Y-5.4372
X4.9768Y-4.0111
X4.9768Y-4.641
X4.9768Y-5.2709
X5.0062Y-3.7142
X5.0062Y-4.3442
X5.0062Y-4.9741
X5.0669Y-3.937
X5.0669Y-4.0354
X5.0669Y-4.5669
X5.0669Y-4.6654
X5.0669Y-5.1969
X5.0669Y-5.2953
X5.0709Y-3.685
X5.0709Y-4.315
X5.0709Y-4.9449
X5.2087Y-3.9134
X5.2087Y-4.5433
X5.2087Y-5.1732
X5.2126Y-3.8346
X5.2126Y-4.4646
X5.2126Y-5.0945
X5.2638Y-3.7008
X5.2638Y-4.3307
X5.2638Y-4.9606
T4
X5.0394Y-3.7323
X5.0394Y-4.3622
X5.0394Y-4.9921
T5
X4.1976Y-4.1846
X4.1976Y-4.8146
X4.1976Y-5.4445
X4.2376Y-3.9846
X4.2376Y-4.6146
X4.2376Y-5.2445
X4.2776Y-4.1846
X4.2776Y-4.8146
X4.2776Y-5.4445
T2
X4.0079Y-3.7722G85X3.9803Y-3.7722
G05
X4.0079Y-4.101G85X3.9803Y-4.101
G05
X4.0079Y-4.4022G85X3.9803Y-4.4022
G05
X4.0079Y-4.7309G85X3.9803Y-4.7309
G05
X4.0079Y-5.0321G85X3.9803Y-5.0321
G05
X4.0079Y-5.3608G85X3.9803Y-5.3608
G05
T3
X4.1161Y-3.849G85X4.1083Y-3.849
G05
X4.1161Y-4.0242G85X4.1083Y-4.0242
G05
X4.1161Y-4.4789G85X4.1083Y-4.4789
G05
X4.1161Y-4.6541G85X4.1083Y-4.6541
G05
X4.1161Y-5.1089G85X4.1083Y-5.1089
G05
X4.1161Y-5.2841G85X4.1083Y-5.2841
G05
T4
X5.0394Y-4.1614G85X5.0394Y-4.122
G05
X5.0394Y-4.7913G85X5.0394Y-4.752
G05
X5.0394Y-5.4213G85X5.0394Y-5.3819
G05
T0
M30
