G04 #@! TF.FileFunction,Legend,Bot*
%FSLAX46Y46*%
G04 Gerber Fmt 4.6, Leading zero omitted, Abs format (unit mm)*
G04 Created by KiCad (PCBNEW 0.201512311516+6410~40~ubuntu14.04.1-stable) date Sun 03 Jan 2016 08:23:42 GMT*
%MOMM*%
G01*
G04 APERTURE LIST*
%ADD10C,0.100000*%
%ADD11C,0.150000*%
%ADD12C,1.000000*%
%ADD13O,1.250000X1.000000*%
%ADD14O,1.900000X1.000000*%
%ADD15R,3.800000X1.800000*%
%ADD16C,0.900000*%
%ADD17O,0.900000X1.900000*%
%ADD18R,3.000000X1.000000*%
G04 APERTURE END LIST*
D10*
D11*
X123971429Y-102619048D02*
X123971429Y-103380953D01*
X123971429Y-118619048D02*
X123971429Y-119380953D01*
X123971429Y-134619048D02*
X123971429Y-135380953D01*
X124352381Y-101309524D02*
X123876190Y-100976190D01*
X124352381Y-100738095D02*
X123352381Y-100738095D01*
X123352381Y-101119048D01*
X123400000Y-101214286D01*
X123447619Y-101261905D01*
X123542857Y-101309524D01*
X123685714Y-101309524D01*
X123780952Y-101261905D01*
X123828571Y-101214286D01*
X123876190Y-101119048D01*
X123876190Y-100738095D01*
X124352381Y-117309524D02*
X123876190Y-116976190D01*
X124352381Y-116738095D02*
X123352381Y-116738095D01*
X123352381Y-117119048D01*
X123400000Y-117214286D01*
X123447619Y-117261905D01*
X123542857Y-117309524D01*
X123685714Y-117309524D01*
X123780952Y-117261905D01*
X123828571Y-117214286D01*
X123876190Y-117119048D01*
X123876190Y-116738095D01*
X124352381Y-133309524D02*
X123876190Y-132976190D01*
X124352381Y-132738095D02*
X123352381Y-132738095D01*
X123352381Y-133119048D01*
X123400000Y-133214286D01*
X123447619Y-133261905D01*
X123542857Y-133309524D01*
X123685714Y-133309524D01*
X123780952Y-133261905D01*
X123828571Y-133214286D01*
X123876190Y-133119048D01*
X123876190Y-132738095D01*
X123352381Y-98714286D02*
X123352381Y-99285715D01*
X124352381Y-99000000D02*
X123352381Y-99000000D01*
X123352381Y-114714286D02*
X123352381Y-115285715D01*
X124352381Y-115000000D02*
X123352381Y-115000000D01*
X123352381Y-130714286D02*
X123352381Y-131285715D01*
X124352381Y-131000000D02*
X123352381Y-131000000D01*
X120147619Y-94298333D02*
X119766667Y-94298333D01*
X120223810Y-94526905D02*
X119957143Y-93726905D01*
X119690476Y-94526905D01*
X119080953Y-94526905D02*
X119080953Y-93726905D01*
X119080953Y-94488810D02*
X119157143Y-94526905D01*
X119309524Y-94526905D01*
X119385715Y-94488810D01*
X119423810Y-94450714D01*
X119461905Y-94374524D01*
X119461905Y-94145952D01*
X119423810Y-94069762D01*
X119385715Y-94031667D01*
X119309524Y-93993571D01*
X119157143Y-93993571D01*
X119080953Y-94031667D01*
X118357143Y-94526905D02*
X118357143Y-94107857D01*
X118395238Y-94031667D01*
X118471428Y-93993571D01*
X118623809Y-93993571D01*
X118700000Y-94031667D01*
X118357143Y-94488810D02*
X118433333Y-94526905D01*
X118623809Y-94526905D01*
X118700000Y-94488810D01*
X118738095Y-94412619D01*
X118738095Y-94336429D01*
X118700000Y-94260238D01*
X118623809Y-94222143D01*
X118433333Y-94222143D01*
X118357143Y-94184048D01*
X117976190Y-94526905D02*
X117976190Y-93993571D01*
X117976190Y-94069762D02*
X117938095Y-94031667D01*
X117861904Y-93993571D01*
X117747618Y-93993571D01*
X117671428Y-94031667D01*
X117633333Y-94107857D01*
X117633333Y-94526905D01*
X117633333Y-94107857D02*
X117595237Y-94031667D01*
X117519047Y-93993571D01*
X117404761Y-93993571D01*
X117328571Y-94031667D01*
X117290476Y-94107857D01*
X117290476Y-94526905D01*
X116299999Y-94526905D02*
X116299999Y-93726905D01*
X116033332Y-94298333D01*
X115766665Y-93726905D01*
X115766665Y-94526905D01*
X115042856Y-94526905D02*
X115042856Y-94107857D01*
X115080951Y-94031667D01*
X115157141Y-93993571D01*
X115309522Y-93993571D01*
X115385713Y-94031667D01*
X115042856Y-94488810D02*
X115119046Y-94526905D01*
X115309522Y-94526905D01*
X115385713Y-94488810D01*
X115423808Y-94412619D01*
X115423808Y-94336429D01*
X115385713Y-94260238D01*
X115309522Y-94222143D01*
X115119046Y-94222143D01*
X115042856Y-94184048D01*
X114319046Y-93993571D02*
X114319046Y-94641190D01*
X114357141Y-94717381D01*
X114395236Y-94755476D01*
X114471427Y-94793571D01*
X114585712Y-94793571D01*
X114661903Y-94755476D01*
X114319046Y-94488810D02*
X114395236Y-94526905D01*
X114547617Y-94526905D01*
X114623808Y-94488810D01*
X114661903Y-94450714D01*
X114699998Y-94374524D01*
X114699998Y-94145952D01*
X114661903Y-94069762D01*
X114623808Y-94031667D01*
X114547617Y-93993571D01*
X114395236Y-93993571D01*
X114319046Y-94031667D01*
X113938093Y-94526905D02*
X113938093Y-93993571D01*
X113938093Y-93726905D02*
X113976188Y-93765000D01*
X113938093Y-93803095D01*
X113899998Y-93765000D01*
X113938093Y-93726905D01*
X113938093Y-93803095D01*
X113214284Y-94488810D02*
X113290474Y-94526905D01*
X113442855Y-94526905D01*
X113519046Y-94488810D01*
X113557141Y-94450714D01*
X113595236Y-94374524D01*
X113595236Y-94145952D01*
X113557141Y-94069762D01*
X113519046Y-94031667D01*
X113442855Y-93993571D01*
X113290474Y-93993571D01*
X113214284Y-94031667D01*
X112261903Y-94526905D02*
X112261903Y-93726905D01*
X111957141Y-93726905D01*
X111880950Y-93765000D01*
X111842855Y-93803095D01*
X111804760Y-93879286D01*
X111804760Y-93993571D01*
X111842855Y-94069762D01*
X111880950Y-94107857D01*
X111957141Y-94145952D01*
X112261903Y-94145952D01*
X111461903Y-94526905D02*
X111461903Y-93993571D01*
X111461903Y-94145952D02*
X111423808Y-94069762D01*
X111385712Y-94031667D01*
X111309522Y-93993571D01*
X111233331Y-93993571D01*
X110852379Y-94526905D02*
X110928570Y-94488810D01*
X110966665Y-94450714D01*
X111004760Y-94374524D01*
X111004760Y-94145952D01*
X110966665Y-94069762D01*
X110928570Y-94031667D01*
X110852379Y-93993571D01*
X110738093Y-93993571D01*
X110661903Y-94031667D01*
X110623808Y-94069762D01*
X110585712Y-94145952D01*
X110585712Y-94374524D01*
X110623808Y-94450714D01*
X110661903Y-94488810D01*
X110738093Y-94526905D01*
X110852379Y-94526905D01*
X110242855Y-94526905D02*
X110242855Y-93726905D01*
X110242855Y-94031667D02*
X110166664Y-93993571D01*
X110014283Y-93993571D01*
X109938093Y-94031667D01*
X109899998Y-94069762D01*
X109861902Y-94145952D01*
X109861902Y-94374524D01*
X109899998Y-94450714D01*
X109938093Y-94488810D01*
X110014283Y-94526905D01*
X110166664Y-94526905D01*
X110242855Y-94488810D01*
X109214283Y-94488810D02*
X109290473Y-94526905D01*
X109442854Y-94526905D01*
X109519045Y-94488810D01*
X109557140Y-94412619D01*
X109557140Y-94107857D01*
X109519045Y-94031667D01*
X109442854Y-93993571D01*
X109290473Y-93993571D01*
X109214283Y-94031667D01*
X109176188Y-94107857D01*
X109176188Y-94184048D01*
X109557140Y-94260238D01*
X108223807Y-94526905D02*
X108223807Y-93993571D01*
X108223807Y-94145952D02*
X108185712Y-94069762D01*
X108147616Y-94031667D01*
X108071426Y-93993571D01*
X107995235Y-93993571D01*
X107309521Y-94526905D02*
X107766664Y-94526905D01*
X107538093Y-94526905D02*
X107538093Y-93726905D01*
X107614283Y-93841190D01*
X107690474Y-93917381D01*
X107766664Y-93955476D01*
X119766667Y-95263571D02*
X119766667Y-95911190D01*
X119804762Y-95987381D01*
X119842857Y-96025476D01*
X119919048Y-96063571D01*
X120033333Y-96063571D01*
X120109524Y-96025476D01*
X119766667Y-95758810D02*
X119842857Y-95796905D01*
X119995238Y-95796905D01*
X120071429Y-95758810D01*
X120109524Y-95720714D01*
X120147619Y-95644524D01*
X120147619Y-95415952D01*
X120109524Y-95339762D01*
X120071429Y-95301667D01*
X119995238Y-95263571D01*
X119842857Y-95263571D01*
X119766667Y-95301667D01*
X119385714Y-95796905D02*
X119385714Y-95263571D01*
X119385714Y-94996905D02*
X119423809Y-95035000D01*
X119385714Y-95073095D01*
X119347619Y-95035000D01*
X119385714Y-94996905D01*
X119385714Y-95073095D01*
X119119048Y-95263571D02*
X118814286Y-95263571D01*
X119004762Y-94996905D02*
X119004762Y-95682619D01*
X118966667Y-95758810D01*
X118890476Y-95796905D01*
X118814286Y-95796905D01*
X118547619Y-95796905D02*
X118547619Y-94996905D01*
X118204762Y-95796905D02*
X118204762Y-95377857D01*
X118242857Y-95301667D01*
X118319047Y-95263571D01*
X118433333Y-95263571D01*
X118509524Y-95301667D01*
X118547619Y-95339762D01*
X117480952Y-95263571D02*
X117480952Y-95796905D01*
X117823809Y-95263571D02*
X117823809Y-95682619D01*
X117785714Y-95758810D01*
X117709523Y-95796905D01*
X117595237Y-95796905D01*
X117519047Y-95758810D01*
X117480952Y-95720714D01*
X117099999Y-95796905D02*
X117099999Y-94996905D01*
X117099999Y-95301667D02*
X117023808Y-95263571D01*
X116871427Y-95263571D01*
X116795237Y-95301667D01*
X116757142Y-95339762D01*
X116719046Y-95415952D01*
X116719046Y-95644524D01*
X116757142Y-95720714D01*
X116795237Y-95758810D01*
X116871427Y-95796905D01*
X117023808Y-95796905D01*
X117099999Y-95758810D01*
X116376189Y-95720714D02*
X116338094Y-95758810D01*
X116376189Y-95796905D01*
X116414284Y-95758810D01*
X116376189Y-95720714D01*
X116376189Y-95796905D01*
X115652380Y-95758810D02*
X115728570Y-95796905D01*
X115880951Y-95796905D01*
X115957142Y-95758810D01*
X115995237Y-95720714D01*
X116033332Y-95644524D01*
X116033332Y-95415952D01*
X115995237Y-95339762D01*
X115957142Y-95301667D01*
X115880951Y-95263571D01*
X115728570Y-95263571D01*
X115652380Y-95301667D01*
X115195237Y-95796905D02*
X115271428Y-95758810D01*
X115309523Y-95720714D01*
X115347618Y-95644524D01*
X115347618Y-95415952D01*
X115309523Y-95339762D01*
X115271428Y-95301667D01*
X115195237Y-95263571D01*
X115080951Y-95263571D01*
X115004761Y-95301667D01*
X114966666Y-95339762D01*
X114928570Y-95415952D01*
X114928570Y-95644524D01*
X114966666Y-95720714D01*
X115004761Y-95758810D01*
X115080951Y-95796905D01*
X115195237Y-95796905D01*
X114585713Y-95796905D02*
X114585713Y-95263571D01*
X114585713Y-95339762D02*
X114547618Y-95301667D01*
X114471427Y-95263571D01*
X114357141Y-95263571D01*
X114280951Y-95301667D01*
X114242856Y-95377857D01*
X114242856Y-95796905D01*
X114242856Y-95377857D02*
X114204760Y-95301667D01*
X114128570Y-95263571D01*
X114014284Y-95263571D01*
X113938094Y-95301667D01*
X113899999Y-95377857D01*
X113899999Y-95796905D01*
X112947617Y-94958810D02*
X113633332Y-95987381D01*
X112338094Y-95796905D02*
X112338094Y-95377857D01*
X112376189Y-95301667D01*
X112452379Y-95263571D01*
X112604760Y-95263571D01*
X112680951Y-95301667D01*
X112338094Y-95758810D02*
X112414284Y-95796905D01*
X112604760Y-95796905D01*
X112680951Y-95758810D01*
X112719046Y-95682619D01*
X112719046Y-95606429D01*
X112680951Y-95530238D01*
X112604760Y-95492143D01*
X112414284Y-95492143D01*
X112338094Y-95454048D01*
X111614284Y-95796905D02*
X111614284Y-94996905D01*
X111614284Y-95758810D02*
X111690474Y-95796905D01*
X111842855Y-95796905D01*
X111919046Y-95758810D01*
X111957141Y-95720714D01*
X111995236Y-95644524D01*
X111995236Y-95415952D01*
X111957141Y-95339762D01*
X111919046Y-95301667D01*
X111842855Y-95263571D01*
X111690474Y-95263571D01*
X111614284Y-95301667D01*
X110890474Y-95796905D02*
X110890474Y-95377857D01*
X110928569Y-95301667D01*
X111004759Y-95263571D01*
X111157140Y-95263571D01*
X111233331Y-95301667D01*
X110890474Y-95758810D02*
X110966664Y-95796905D01*
X111157140Y-95796905D01*
X111233331Y-95758810D01*
X111271426Y-95682619D01*
X111271426Y-95606429D01*
X111233331Y-95530238D01*
X111157140Y-95492143D01*
X110966664Y-95492143D01*
X110890474Y-95454048D01*
X110509521Y-95796905D02*
X110509521Y-95263571D01*
X110509521Y-95339762D02*
X110471426Y-95301667D01*
X110395235Y-95263571D01*
X110280949Y-95263571D01*
X110204759Y-95301667D01*
X110166664Y-95377857D01*
X110166664Y-95796905D01*
X110166664Y-95377857D02*
X110128568Y-95301667D01*
X110052378Y-95263571D01*
X109938092Y-95263571D01*
X109861902Y-95301667D01*
X109823807Y-95377857D01*
X109823807Y-95796905D01*
X109099997Y-95263571D02*
X109099997Y-95911190D01*
X109138092Y-95987381D01*
X109176187Y-96025476D01*
X109252378Y-96063571D01*
X109366663Y-96063571D01*
X109442854Y-96025476D01*
X109099997Y-95758810D02*
X109176187Y-95796905D01*
X109328568Y-95796905D01*
X109404759Y-95758810D01*
X109442854Y-95720714D01*
X109480949Y-95644524D01*
X109480949Y-95415952D01*
X109442854Y-95339762D01*
X109404759Y-95301667D01*
X109328568Y-95263571D01*
X109176187Y-95263571D01*
X109099997Y-95301667D01*
X108719044Y-95796905D02*
X108719044Y-95263571D01*
X108719044Y-95415952D02*
X108680949Y-95339762D01*
X108642853Y-95301667D01*
X108566663Y-95263571D01*
X108490472Y-95263571D01*
X107919044Y-95758810D02*
X107995234Y-95796905D01*
X108147615Y-95796905D01*
X108223806Y-95758810D01*
X108261901Y-95682619D01*
X108261901Y-95377857D01*
X108223806Y-95301667D01*
X108147615Y-95263571D01*
X107995234Y-95263571D01*
X107919044Y-95301667D01*
X107880949Y-95377857D01*
X107880949Y-95454048D01*
X108261901Y-95530238D01*
X107538092Y-95796905D02*
X107538092Y-95263571D01*
X107538092Y-94996905D02*
X107576187Y-95035000D01*
X107538092Y-95073095D01*
X107499997Y-95035000D01*
X107538092Y-94996905D01*
X107538092Y-95073095D01*
X106814283Y-95263571D02*
X106814283Y-95911190D01*
X106852378Y-95987381D01*
X106890473Y-96025476D01*
X106966664Y-96063571D01*
X107080949Y-96063571D01*
X107157140Y-96025476D01*
X106814283Y-95758810D02*
X106890473Y-95796905D01*
X107042854Y-95796905D01*
X107119045Y-95758810D01*
X107157140Y-95720714D01*
X107195235Y-95644524D01*
X107195235Y-95415952D01*
X107157140Y-95339762D01*
X107119045Y-95301667D01*
X107042854Y-95263571D01*
X106890473Y-95263571D01*
X106814283Y-95301667D01*
X105861901Y-94958810D02*
X106547616Y-95987381D01*
X105252378Y-95796905D02*
X105252378Y-95377857D01*
X105290473Y-95301667D01*
X105366663Y-95263571D01*
X105519044Y-95263571D01*
X105595235Y-95301667D01*
X105252378Y-95758810D02*
X105328568Y-95796905D01*
X105519044Y-95796905D01*
X105595235Y-95758810D01*
X105633330Y-95682619D01*
X105633330Y-95606429D01*
X105595235Y-95530238D01*
X105519044Y-95492143D01*
X105328568Y-95492143D01*
X105252378Y-95454048D01*
X104871425Y-95796905D02*
X104871425Y-95263571D01*
X104871425Y-95339762D02*
X104833330Y-95301667D01*
X104757139Y-95263571D01*
X104642853Y-95263571D01*
X104566663Y-95301667D01*
X104528568Y-95377857D01*
X104528568Y-95796905D01*
X104528568Y-95377857D02*
X104490472Y-95301667D01*
X104414282Y-95263571D01*
X104299996Y-95263571D01*
X104223806Y-95301667D01*
X104185711Y-95377857D01*
X104185711Y-95796905D01*
X103804758Y-95263571D02*
X103804758Y-96063571D01*
X103804758Y-95301667D02*
X103728567Y-95263571D01*
X103576186Y-95263571D01*
X103499996Y-95301667D01*
X103461901Y-95339762D01*
X103423805Y-95415952D01*
X103423805Y-95644524D01*
X103461901Y-95720714D01*
X103499996Y-95758810D01*
X103576186Y-95796905D01*
X103728567Y-95796905D01*
X103804758Y-95758810D01*
X120147619Y-110298333D02*
X119766667Y-110298333D01*
X120223810Y-110526905D02*
X119957143Y-109726905D01*
X119690476Y-110526905D01*
X119080953Y-110526905D02*
X119080953Y-109726905D01*
X119080953Y-110488810D02*
X119157143Y-110526905D01*
X119309524Y-110526905D01*
X119385715Y-110488810D01*
X119423810Y-110450714D01*
X119461905Y-110374524D01*
X119461905Y-110145952D01*
X119423810Y-110069762D01*
X119385715Y-110031667D01*
X119309524Y-109993571D01*
X119157143Y-109993571D01*
X119080953Y-110031667D01*
X118357143Y-110526905D02*
X118357143Y-110107857D01*
X118395238Y-110031667D01*
X118471428Y-109993571D01*
X118623809Y-109993571D01*
X118700000Y-110031667D01*
X118357143Y-110488810D02*
X118433333Y-110526905D01*
X118623809Y-110526905D01*
X118700000Y-110488810D01*
X118738095Y-110412619D01*
X118738095Y-110336429D01*
X118700000Y-110260238D01*
X118623809Y-110222143D01*
X118433333Y-110222143D01*
X118357143Y-110184048D01*
X117976190Y-110526905D02*
X117976190Y-109993571D01*
X117976190Y-110069762D02*
X117938095Y-110031667D01*
X117861904Y-109993571D01*
X117747618Y-109993571D01*
X117671428Y-110031667D01*
X117633333Y-110107857D01*
X117633333Y-110526905D01*
X117633333Y-110107857D02*
X117595237Y-110031667D01*
X117519047Y-109993571D01*
X117404761Y-109993571D01*
X117328571Y-110031667D01*
X117290476Y-110107857D01*
X117290476Y-110526905D01*
X116299999Y-110526905D02*
X116299999Y-109726905D01*
X116033332Y-110298333D01*
X115766665Y-109726905D01*
X115766665Y-110526905D01*
X115042856Y-110526905D02*
X115042856Y-110107857D01*
X115080951Y-110031667D01*
X115157141Y-109993571D01*
X115309522Y-109993571D01*
X115385713Y-110031667D01*
X115042856Y-110488810D02*
X115119046Y-110526905D01*
X115309522Y-110526905D01*
X115385713Y-110488810D01*
X115423808Y-110412619D01*
X115423808Y-110336429D01*
X115385713Y-110260238D01*
X115309522Y-110222143D01*
X115119046Y-110222143D01*
X115042856Y-110184048D01*
X114319046Y-109993571D02*
X114319046Y-110641190D01*
X114357141Y-110717381D01*
X114395236Y-110755476D01*
X114471427Y-110793571D01*
X114585712Y-110793571D01*
X114661903Y-110755476D01*
X114319046Y-110488810D02*
X114395236Y-110526905D01*
X114547617Y-110526905D01*
X114623808Y-110488810D01*
X114661903Y-110450714D01*
X114699998Y-110374524D01*
X114699998Y-110145952D01*
X114661903Y-110069762D01*
X114623808Y-110031667D01*
X114547617Y-109993571D01*
X114395236Y-109993571D01*
X114319046Y-110031667D01*
X113938093Y-110526905D02*
X113938093Y-109993571D01*
X113938093Y-109726905D02*
X113976188Y-109765000D01*
X113938093Y-109803095D01*
X113899998Y-109765000D01*
X113938093Y-109726905D01*
X113938093Y-109803095D01*
X113214284Y-110488810D02*
X113290474Y-110526905D01*
X113442855Y-110526905D01*
X113519046Y-110488810D01*
X113557141Y-110450714D01*
X113595236Y-110374524D01*
X113595236Y-110145952D01*
X113557141Y-110069762D01*
X113519046Y-110031667D01*
X113442855Y-109993571D01*
X113290474Y-109993571D01*
X113214284Y-110031667D01*
X112261903Y-110526905D02*
X112261903Y-109726905D01*
X111957141Y-109726905D01*
X111880950Y-109765000D01*
X111842855Y-109803095D01*
X111804760Y-109879286D01*
X111804760Y-109993571D01*
X111842855Y-110069762D01*
X111880950Y-110107857D01*
X111957141Y-110145952D01*
X112261903Y-110145952D01*
X111461903Y-110526905D02*
X111461903Y-109993571D01*
X111461903Y-110145952D02*
X111423808Y-110069762D01*
X111385712Y-110031667D01*
X111309522Y-109993571D01*
X111233331Y-109993571D01*
X110852379Y-110526905D02*
X110928570Y-110488810D01*
X110966665Y-110450714D01*
X111004760Y-110374524D01*
X111004760Y-110145952D01*
X110966665Y-110069762D01*
X110928570Y-110031667D01*
X110852379Y-109993571D01*
X110738093Y-109993571D01*
X110661903Y-110031667D01*
X110623808Y-110069762D01*
X110585712Y-110145952D01*
X110585712Y-110374524D01*
X110623808Y-110450714D01*
X110661903Y-110488810D01*
X110738093Y-110526905D01*
X110852379Y-110526905D01*
X110242855Y-110526905D02*
X110242855Y-109726905D01*
X110242855Y-110031667D02*
X110166664Y-109993571D01*
X110014283Y-109993571D01*
X109938093Y-110031667D01*
X109899998Y-110069762D01*
X109861902Y-110145952D01*
X109861902Y-110374524D01*
X109899998Y-110450714D01*
X109938093Y-110488810D01*
X110014283Y-110526905D01*
X110166664Y-110526905D01*
X110242855Y-110488810D01*
X109214283Y-110488810D02*
X109290473Y-110526905D01*
X109442854Y-110526905D01*
X109519045Y-110488810D01*
X109557140Y-110412619D01*
X109557140Y-110107857D01*
X109519045Y-110031667D01*
X109442854Y-109993571D01*
X109290473Y-109993571D01*
X109214283Y-110031667D01*
X109176188Y-110107857D01*
X109176188Y-110184048D01*
X109557140Y-110260238D01*
X108223807Y-110526905D02*
X108223807Y-109993571D01*
X108223807Y-110145952D02*
X108185712Y-110069762D01*
X108147616Y-110031667D01*
X108071426Y-109993571D01*
X107995235Y-109993571D01*
X107309521Y-110526905D02*
X107766664Y-110526905D01*
X107538093Y-110526905D02*
X107538093Y-109726905D01*
X107614283Y-109841190D01*
X107690474Y-109917381D01*
X107766664Y-109955476D01*
X119766667Y-111263571D02*
X119766667Y-111911190D01*
X119804762Y-111987381D01*
X119842857Y-112025476D01*
X119919048Y-112063571D01*
X120033333Y-112063571D01*
X120109524Y-112025476D01*
X119766667Y-111758810D02*
X119842857Y-111796905D01*
X119995238Y-111796905D01*
X120071429Y-111758810D01*
X120109524Y-111720714D01*
X120147619Y-111644524D01*
X120147619Y-111415952D01*
X120109524Y-111339762D01*
X120071429Y-111301667D01*
X119995238Y-111263571D01*
X119842857Y-111263571D01*
X119766667Y-111301667D01*
X119385714Y-111796905D02*
X119385714Y-111263571D01*
X119385714Y-110996905D02*
X119423809Y-111035000D01*
X119385714Y-111073095D01*
X119347619Y-111035000D01*
X119385714Y-110996905D01*
X119385714Y-111073095D01*
X119119048Y-111263571D02*
X118814286Y-111263571D01*
X119004762Y-110996905D02*
X119004762Y-111682619D01*
X118966667Y-111758810D01*
X118890476Y-111796905D01*
X118814286Y-111796905D01*
X118547619Y-111796905D02*
X118547619Y-110996905D01*
X118204762Y-111796905D02*
X118204762Y-111377857D01*
X118242857Y-111301667D01*
X118319047Y-111263571D01*
X118433333Y-111263571D01*
X118509524Y-111301667D01*
X118547619Y-111339762D01*
X117480952Y-111263571D02*
X117480952Y-111796905D01*
X117823809Y-111263571D02*
X117823809Y-111682619D01*
X117785714Y-111758810D01*
X117709523Y-111796905D01*
X117595237Y-111796905D01*
X117519047Y-111758810D01*
X117480952Y-111720714D01*
X117099999Y-111796905D02*
X117099999Y-110996905D01*
X117099999Y-111301667D02*
X117023808Y-111263571D01*
X116871427Y-111263571D01*
X116795237Y-111301667D01*
X116757142Y-111339762D01*
X116719046Y-111415952D01*
X116719046Y-111644524D01*
X116757142Y-111720714D01*
X116795237Y-111758810D01*
X116871427Y-111796905D01*
X117023808Y-111796905D01*
X117099999Y-111758810D01*
X116376189Y-111720714D02*
X116338094Y-111758810D01*
X116376189Y-111796905D01*
X116414284Y-111758810D01*
X116376189Y-111720714D01*
X116376189Y-111796905D01*
X115652380Y-111758810D02*
X115728570Y-111796905D01*
X115880951Y-111796905D01*
X115957142Y-111758810D01*
X115995237Y-111720714D01*
X116033332Y-111644524D01*
X116033332Y-111415952D01*
X115995237Y-111339762D01*
X115957142Y-111301667D01*
X115880951Y-111263571D01*
X115728570Y-111263571D01*
X115652380Y-111301667D01*
X115195237Y-111796905D02*
X115271428Y-111758810D01*
X115309523Y-111720714D01*
X115347618Y-111644524D01*
X115347618Y-111415952D01*
X115309523Y-111339762D01*
X115271428Y-111301667D01*
X115195237Y-111263571D01*
X115080951Y-111263571D01*
X115004761Y-111301667D01*
X114966666Y-111339762D01*
X114928570Y-111415952D01*
X114928570Y-111644524D01*
X114966666Y-111720714D01*
X115004761Y-111758810D01*
X115080951Y-111796905D01*
X115195237Y-111796905D01*
X114585713Y-111796905D02*
X114585713Y-111263571D01*
X114585713Y-111339762D02*
X114547618Y-111301667D01*
X114471427Y-111263571D01*
X114357141Y-111263571D01*
X114280951Y-111301667D01*
X114242856Y-111377857D01*
X114242856Y-111796905D01*
X114242856Y-111377857D02*
X114204760Y-111301667D01*
X114128570Y-111263571D01*
X114014284Y-111263571D01*
X113938094Y-111301667D01*
X113899999Y-111377857D01*
X113899999Y-111796905D01*
X112947617Y-110958810D02*
X113633332Y-111987381D01*
X112338094Y-111796905D02*
X112338094Y-111377857D01*
X112376189Y-111301667D01*
X112452379Y-111263571D01*
X112604760Y-111263571D01*
X112680951Y-111301667D01*
X112338094Y-111758810D02*
X112414284Y-111796905D01*
X112604760Y-111796905D01*
X112680951Y-111758810D01*
X112719046Y-111682619D01*
X112719046Y-111606429D01*
X112680951Y-111530238D01*
X112604760Y-111492143D01*
X112414284Y-111492143D01*
X112338094Y-111454048D01*
X111614284Y-111796905D02*
X111614284Y-110996905D01*
X111614284Y-111758810D02*
X111690474Y-111796905D01*
X111842855Y-111796905D01*
X111919046Y-111758810D01*
X111957141Y-111720714D01*
X111995236Y-111644524D01*
X111995236Y-111415952D01*
X111957141Y-111339762D01*
X111919046Y-111301667D01*
X111842855Y-111263571D01*
X111690474Y-111263571D01*
X111614284Y-111301667D01*
X110890474Y-111796905D02*
X110890474Y-111377857D01*
X110928569Y-111301667D01*
X111004759Y-111263571D01*
X111157140Y-111263571D01*
X111233331Y-111301667D01*
X110890474Y-111758810D02*
X110966664Y-111796905D01*
X111157140Y-111796905D01*
X111233331Y-111758810D01*
X111271426Y-111682619D01*
X111271426Y-111606429D01*
X111233331Y-111530238D01*
X111157140Y-111492143D01*
X110966664Y-111492143D01*
X110890474Y-111454048D01*
X110509521Y-111796905D02*
X110509521Y-111263571D01*
X110509521Y-111339762D02*
X110471426Y-111301667D01*
X110395235Y-111263571D01*
X110280949Y-111263571D01*
X110204759Y-111301667D01*
X110166664Y-111377857D01*
X110166664Y-111796905D01*
X110166664Y-111377857D02*
X110128568Y-111301667D01*
X110052378Y-111263571D01*
X109938092Y-111263571D01*
X109861902Y-111301667D01*
X109823807Y-111377857D01*
X109823807Y-111796905D01*
X109099997Y-111263571D02*
X109099997Y-111911190D01*
X109138092Y-111987381D01*
X109176187Y-112025476D01*
X109252378Y-112063571D01*
X109366663Y-112063571D01*
X109442854Y-112025476D01*
X109099997Y-111758810D02*
X109176187Y-111796905D01*
X109328568Y-111796905D01*
X109404759Y-111758810D01*
X109442854Y-111720714D01*
X109480949Y-111644524D01*
X109480949Y-111415952D01*
X109442854Y-111339762D01*
X109404759Y-111301667D01*
X109328568Y-111263571D01*
X109176187Y-111263571D01*
X109099997Y-111301667D01*
X108719044Y-111796905D02*
X108719044Y-111263571D01*
X108719044Y-111415952D02*
X108680949Y-111339762D01*
X108642853Y-111301667D01*
X108566663Y-111263571D01*
X108490472Y-111263571D01*
X107919044Y-111758810D02*
X107995234Y-111796905D01*
X108147615Y-111796905D01*
X108223806Y-111758810D01*
X108261901Y-111682619D01*
X108261901Y-111377857D01*
X108223806Y-111301667D01*
X108147615Y-111263571D01*
X107995234Y-111263571D01*
X107919044Y-111301667D01*
X107880949Y-111377857D01*
X107880949Y-111454048D01*
X108261901Y-111530238D01*
X107538092Y-111796905D02*
X107538092Y-111263571D01*
X107538092Y-110996905D02*
X107576187Y-111035000D01*
X107538092Y-111073095D01*
X107499997Y-111035000D01*
X107538092Y-110996905D01*
X107538092Y-111073095D01*
X106814283Y-111263571D02*
X106814283Y-111911190D01*
X106852378Y-111987381D01*
X106890473Y-112025476D01*
X106966664Y-112063571D01*
X107080949Y-112063571D01*
X107157140Y-112025476D01*
X106814283Y-111758810D02*
X106890473Y-111796905D01*
X107042854Y-111796905D01*
X107119045Y-111758810D01*
X107157140Y-111720714D01*
X107195235Y-111644524D01*
X107195235Y-111415952D01*
X107157140Y-111339762D01*
X107119045Y-111301667D01*
X107042854Y-111263571D01*
X106890473Y-111263571D01*
X106814283Y-111301667D01*
X105861901Y-110958810D02*
X106547616Y-111987381D01*
X105252378Y-111796905D02*
X105252378Y-111377857D01*
X105290473Y-111301667D01*
X105366663Y-111263571D01*
X105519044Y-111263571D01*
X105595235Y-111301667D01*
X105252378Y-111758810D02*
X105328568Y-111796905D01*
X105519044Y-111796905D01*
X105595235Y-111758810D01*
X105633330Y-111682619D01*
X105633330Y-111606429D01*
X105595235Y-111530238D01*
X105519044Y-111492143D01*
X105328568Y-111492143D01*
X105252378Y-111454048D01*
X104871425Y-111796905D02*
X104871425Y-111263571D01*
X104871425Y-111339762D02*
X104833330Y-111301667D01*
X104757139Y-111263571D01*
X104642853Y-111263571D01*
X104566663Y-111301667D01*
X104528568Y-111377857D01*
X104528568Y-111796905D01*
X104528568Y-111377857D02*
X104490472Y-111301667D01*
X104414282Y-111263571D01*
X104299996Y-111263571D01*
X104223806Y-111301667D01*
X104185711Y-111377857D01*
X104185711Y-111796905D01*
X103804758Y-111263571D02*
X103804758Y-112063571D01*
X103804758Y-111301667D02*
X103728567Y-111263571D01*
X103576186Y-111263571D01*
X103499996Y-111301667D01*
X103461901Y-111339762D01*
X103423805Y-111415952D01*
X103423805Y-111644524D01*
X103461901Y-111720714D01*
X103499996Y-111758810D01*
X103576186Y-111796905D01*
X103728567Y-111796905D01*
X103804758Y-111758810D01*
X120147619Y-126298333D02*
X119766667Y-126298333D01*
X120223810Y-126526905D02*
X119957143Y-125726905D01*
X119690476Y-126526905D01*
X119080953Y-126526905D02*
X119080953Y-125726905D01*
X119080953Y-126488810D02*
X119157143Y-126526905D01*
X119309524Y-126526905D01*
X119385715Y-126488810D01*
X119423810Y-126450714D01*
X119461905Y-126374524D01*
X119461905Y-126145952D01*
X119423810Y-126069762D01*
X119385715Y-126031667D01*
X119309524Y-125993571D01*
X119157143Y-125993571D01*
X119080953Y-126031667D01*
X118357143Y-126526905D02*
X118357143Y-126107857D01*
X118395238Y-126031667D01*
X118471428Y-125993571D01*
X118623809Y-125993571D01*
X118700000Y-126031667D01*
X118357143Y-126488810D02*
X118433333Y-126526905D01*
X118623809Y-126526905D01*
X118700000Y-126488810D01*
X118738095Y-126412619D01*
X118738095Y-126336429D01*
X118700000Y-126260238D01*
X118623809Y-126222143D01*
X118433333Y-126222143D01*
X118357143Y-126184048D01*
X117976190Y-126526905D02*
X117976190Y-125993571D01*
X117976190Y-126069762D02*
X117938095Y-126031667D01*
X117861904Y-125993571D01*
X117747618Y-125993571D01*
X117671428Y-126031667D01*
X117633333Y-126107857D01*
X117633333Y-126526905D01*
X117633333Y-126107857D02*
X117595237Y-126031667D01*
X117519047Y-125993571D01*
X117404761Y-125993571D01*
X117328571Y-126031667D01*
X117290476Y-126107857D01*
X117290476Y-126526905D01*
X116299999Y-126526905D02*
X116299999Y-125726905D01*
X116033332Y-126298333D01*
X115766665Y-125726905D01*
X115766665Y-126526905D01*
X115042856Y-126526905D02*
X115042856Y-126107857D01*
X115080951Y-126031667D01*
X115157141Y-125993571D01*
X115309522Y-125993571D01*
X115385713Y-126031667D01*
X115042856Y-126488810D02*
X115119046Y-126526905D01*
X115309522Y-126526905D01*
X115385713Y-126488810D01*
X115423808Y-126412619D01*
X115423808Y-126336429D01*
X115385713Y-126260238D01*
X115309522Y-126222143D01*
X115119046Y-126222143D01*
X115042856Y-126184048D01*
X114319046Y-125993571D02*
X114319046Y-126641190D01*
X114357141Y-126717381D01*
X114395236Y-126755476D01*
X114471427Y-126793571D01*
X114585712Y-126793571D01*
X114661903Y-126755476D01*
X114319046Y-126488810D02*
X114395236Y-126526905D01*
X114547617Y-126526905D01*
X114623808Y-126488810D01*
X114661903Y-126450714D01*
X114699998Y-126374524D01*
X114699998Y-126145952D01*
X114661903Y-126069762D01*
X114623808Y-126031667D01*
X114547617Y-125993571D01*
X114395236Y-125993571D01*
X114319046Y-126031667D01*
X113938093Y-126526905D02*
X113938093Y-125993571D01*
X113938093Y-125726905D02*
X113976188Y-125765000D01*
X113938093Y-125803095D01*
X113899998Y-125765000D01*
X113938093Y-125726905D01*
X113938093Y-125803095D01*
X113214284Y-126488810D02*
X113290474Y-126526905D01*
X113442855Y-126526905D01*
X113519046Y-126488810D01*
X113557141Y-126450714D01*
X113595236Y-126374524D01*
X113595236Y-126145952D01*
X113557141Y-126069762D01*
X113519046Y-126031667D01*
X113442855Y-125993571D01*
X113290474Y-125993571D01*
X113214284Y-126031667D01*
X112261903Y-126526905D02*
X112261903Y-125726905D01*
X111957141Y-125726905D01*
X111880950Y-125765000D01*
X111842855Y-125803095D01*
X111804760Y-125879286D01*
X111804760Y-125993571D01*
X111842855Y-126069762D01*
X111880950Y-126107857D01*
X111957141Y-126145952D01*
X112261903Y-126145952D01*
X111461903Y-126526905D02*
X111461903Y-125993571D01*
X111461903Y-126145952D02*
X111423808Y-126069762D01*
X111385712Y-126031667D01*
X111309522Y-125993571D01*
X111233331Y-125993571D01*
X110852379Y-126526905D02*
X110928570Y-126488810D01*
X110966665Y-126450714D01*
X111004760Y-126374524D01*
X111004760Y-126145952D01*
X110966665Y-126069762D01*
X110928570Y-126031667D01*
X110852379Y-125993571D01*
X110738093Y-125993571D01*
X110661903Y-126031667D01*
X110623808Y-126069762D01*
X110585712Y-126145952D01*
X110585712Y-126374524D01*
X110623808Y-126450714D01*
X110661903Y-126488810D01*
X110738093Y-126526905D01*
X110852379Y-126526905D01*
X110242855Y-126526905D02*
X110242855Y-125726905D01*
X110242855Y-126031667D02*
X110166664Y-125993571D01*
X110014283Y-125993571D01*
X109938093Y-126031667D01*
X109899998Y-126069762D01*
X109861902Y-126145952D01*
X109861902Y-126374524D01*
X109899998Y-126450714D01*
X109938093Y-126488810D01*
X110014283Y-126526905D01*
X110166664Y-126526905D01*
X110242855Y-126488810D01*
X109214283Y-126488810D02*
X109290473Y-126526905D01*
X109442854Y-126526905D01*
X109519045Y-126488810D01*
X109557140Y-126412619D01*
X109557140Y-126107857D01*
X109519045Y-126031667D01*
X109442854Y-125993571D01*
X109290473Y-125993571D01*
X109214283Y-126031667D01*
X109176188Y-126107857D01*
X109176188Y-126184048D01*
X109557140Y-126260238D01*
X108223807Y-126526905D02*
X108223807Y-125993571D01*
X108223807Y-126145952D02*
X108185712Y-126069762D01*
X108147616Y-126031667D01*
X108071426Y-125993571D01*
X107995235Y-125993571D01*
X107309521Y-126526905D02*
X107766664Y-126526905D01*
X107538093Y-126526905D02*
X107538093Y-125726905D01*
X107614283Y-125841190D01*
X107690474Y-125917381D01*
X107766664Y-125955476D01*
X119766667Y-127263571D02*
X119766667Y-127911190D01*
X119804762Y-127987381D01*
X119842857Y-128025476D01*
X119919048Y-128063571D01*
X120033333Y-128063571D01*
X120109524Y-128025476D01*
X119766667Y-127758810D02*
X119842857Y-127796905D01*
X119995238Y-127796905D01*
X120071429Y-127758810D01*
X120109524Y-127720714D01*
X120147619Y-127644524D01*
X120147619Y-127415952D01*
X120109524Y-127339762D01*
X120071429Y-127301667D01*
X119995238Y-127263571D01*
X119842857Y-127263571D01*
X119766667Y-127301667D01*
X119385714Y-127796905D02*
X119385714Y-127263571D01*
X119385714Y-126996905D02*
X119423809Y-127035000D01*
X119385714Y-127073095D01*
X119347619Y-127035000D01*
X119385714Y-126996905D01*
X119385714Y-127073095D01*
X119119048Y-127263571D02*
X118814286Y-127263571D01*
X119004762Y-126996905D02*
X119004762Y-127682619D01*
X118966667Y-127758810D01*
X118890476Y-127796905D01*
X118814286Y-127796905D01*
X118547619Y-127796905D02*
X118547619Y-126996905D01*
X118204762Y-127796905D02*
X118204762Y-127377857D01*
X118242857Y-127301667D01*
X118319047Y-127263571D01*
X118433333Y-127263571D01*
X118509524Y-127301667D01*
X118547619Y-127339762D01*
X117480952Y-127263571D02*
X117480952Y-127796905D01*
X117823809Y-127263571D02*
X117823809Y-127682619D01*
X117785714Y-127758810D01*
X117709523Y-127796905D01*
X117595237Y-127796905D01*
X117519047Y-127758810D01*
X117480952Y-127720714D01*
X117099999Y-127796905D02*
X117099999Y-126996905D01*
X117099999Y-127301667D02*
X117023808Y-127263571D01*
X116871427Y-127263571D01*
X116795237Y-127301667D01*
X116757142Y-127339762D01*
X116719046Y-127415952D01*
X116719046Y-127644524D01*
X116757142Y-127720714D01*
X116795237Y-127758810D01*
X116871427Y-127796905D01*
X117023808Y-127796905D01*
X117099999Y-127758810D01*
X116376189Y-127720714D02*
X116338094Y-127758810D01*
X116376189Y-127796905D01*
X116414284Y-127758810D01*
X116376189Y-127720714D01*
X116376189Y-127796905D01*
X115652380Y-127758810D02*
X115728570Y-127796905D01*
X115880951Y-127796905D01*
X115957142Y-127758810D01*
X115995237Y-127720714D01*
X116033332Y-127644524D01*
X116033332Y-127415952D01*
X115995237Y-127339762D01*
X115957142Y-127301667D01*
X115880951Y-127263571D01*
X115728570Y-127263571D01*
X115652380Y-127301667D01*
X115195237Y-127796905D02*
X115271428Y-127758810D01*
X115309523Y-127720714D01*
X115347618Y-127644524D01*
X115347618Y-127415952D01*
X115309523Y-127339762D01*
X115271428Y-127301667D01*
X115195237Y-127263571D01*
X115080951Y-127263571D01*
X115004761Y-127301667D01*
X114966666Y-127339762D01*
X114928570Y-127415952D01*
X114928570Y-127644524D01*
X114966666Y-127720714D01*
X115004761Y-127758810D01*
X115080951Y-127796905D01*
X115195237Y-127796905D01*
X114585713Y-127796905D02*
X114585713Y-127263571D01*
X114585713Y-127339762D02*
X114547618Y-127301667D01*
X114471427Y-127263571D01*
X114357141Y-127263571D01*
X114280951Y-127301667D01*
X114242856Y-127377857D01*
X114242856Y-127796905D01*
X114242856Y-127377857D02*
X114204760Y-127301667D01*
X114128570Y-127263571D01*
X114014284Y-127263571D01*
X113938094Y-127301667D01*
X113899999Y-127377857D01*
X113899999Y-127796905D01*
X112947617Y-126958810D02*
X113633332Y-127987381D01*
X112338094Y-127796905D02*
X112338094Y-127377857D01*
X112376189Y-127301667D01*
X112452379Y-127263571D01*
X112604760Y-127263571D01*
X112680951Y-127301667D01*
X112338094Y-127758810D02*
X112414284Y-127796905D01*
X112604760Y-127796905D01*
X112680951Y-127758810D01*
X112719046Y-127682619D01*
X112719046Y-127606429D01*
X112680951Y-127530238D01*
X112604760Y-127492143D01*
X112414284Y-127492143D01*
X112338094Y-127454048D01*
X111614284Y-127796905D02*
X111614284Y-126996905D01*
X111614284Y-127758810D02*
X111690474Y-127796905D01*
X111842855Y-127796905D01*
X111919046Y-127758810D01*
X111957141Y-127720714D01*
X111995236Y-127644524D01*
X111995236Y-127415952D01*
X111957141Y-127339762D01*
X111919046Y-127301667D01*
X111842855Y-127263571D01*
X111690474Y-127263571D01*
X111614284Y-127301667D01*
X110890474Y-127796905D02*
X110890474Y-127377857D01*
X110928569Y-127301667D01*
X111004759Y-127263571D01*
X111157140Y-127263571D01*
X111233331Y-127301667D01*
X110890474Y-127758810D02*
X110966664Y-127796905D01*
X111157140Y-127796905D01*
X111233331Y-127758810D01*
X111271426Y-127682619D01*
X111271426Y-127606429D01*
X111233331Y-127530238D01*
X111157140Y-127492143D01*
X110966664Y-127492143D01*
X110890474Y-127454048D01*
X110509521Y-127796905D02*
X110509521Y-127263571D01*
X110509521Y-127339762D02*
X110471426Y-127301667D01*
X110395235Y-127263571D01*
X110280949Y-127263571D01*
X110204759Y-127301667D01*
X110166664Y-127377857D01*
X110166664Y-127796905D01*
X110166664Y-127377857D02*
X110128568Y-127301667D01*
X110052378Y-127263571D01*
X109938092Y-127263571D01*
X109861902Y-127301667D01*
X109823807Y-127377857D01*
X109823807Y-127796905D01*
X109099997Y-127263571D02*
X109099997Y-127911190D01*
X109138092Y-127987381D01*
X109176187Y-128025476D01*
X109252378Y-128063571D01*
X109366663Y-128063571D01*
X109442854Y-128025476D01*
X109099997Y-127758810D02*
X109176187Y-127796905D01*
X109328568Y-127796905D01*
X109404759Y-127758810D01*
X109442854Y-127720714D01*
X109480949Y-127644524D01*
X109480949Y-127415952D01*
X109442854Y-127339762D01*
X109404759Y-127301667D01*
X109328568Y-127263571D01*
X109176187Y-127263571D01*
X109099997Y-127301667D01*
X108719044Y-127796905D02*
X108719044Y-127263571D01*
X108719044Y-127415952D02*
X108680949Y-127339762D01*
X108642853Y-127301667D01*
X108566663Y-127263571D01*
X108490472Y-127263571D01*
X107919044Y-127758810D02*
X107995234Y-127796905D01*
X108147615Y-127796905D01*
X108223806Y-127758810D01*
X108261901Y-127682619D01*
X108261901Y-127377857D01*
X108223806Y-127301667D01*
X108147615Y-127263571D01*
X107995234Y-127263571D01*
X107919044Y-127301667D01*
X107880949Y-127377857D01*
X107880949Y-127454048D01*
X108261901Y-127530238D01*
X107538092Y-127796905D02*
X107538092Y-127263571D01*
X107538092Y-126996905D02*
X107576187Y-127035000D01*
X107538092Y-127073095D01*
X107499997Y-127035000D01*
X107538092Y-126996905D01*
X107538092Y-127073095D01*
X106814283Y-127263571D02*
X106814283Y-127911190D01*
X106852378Y-127987381D01*
X106890473Y-128025476D01*
X106966664Y-128063571D01*
X107080949Y-128063571D01*
X107157140Y-128025476D01*
X106814283Y-127758810D02*
X106890473Y-127796905D01*
X107042854Y-127796905D01*
X107119045Y-127758810D01*
X107157140Y-127720714D01*
X107195235Y-127644524D01*
X107195235Y-127415952D01*
X107157140Y-127339762D01*
X107119045Y-127301667D01*
X107042854Y-127263571D01*
X106890473Y-127263571D01*
X106814283Y-127301667D01*
X105861901Y-126958810D02*
X106547616Y-127987381D01*
X105252378Y-127796905D02*
X105252378Y-127377857D01*
X105290473Y-127301667D01*
X105366663Y-127263571D01*
X105519044Y-127263571D01*
X105595235Y-127301667D01*
X105252378Y-127758810D02*
X105328568Y-127796905D01*
X105519044Y-127796905D01*
X105595235Y-127758810D01*
X105633330Y-127682619D01*
X105633330Y-127606429D01*
X105595235Y-127530238D01*
X105519044Y-127492143D01*
X105328568Y-127492143D01*
X105252378Y-127454048D01*
X104871425Y-127796905D02*
X104871425Y-127263571D01*
X104871425Y-127339762D02*
X104833330Y-127301667D01*
X104757139Y-127263571D01*
X104642853Y-127263571D01*
X104566663Y-127301667D01*
X104528568Y-127377857D01*
X104528568Y-127796905D01*
X104528568Y-127377857D02*
X104490472Y-127301667D01*
X104414282Y-127263571D01*
X104299996Y-127263571D01*
X104223806Y-127301667D01*
X104185711Y-127377857D01*
X104185711Y-127796905D01*
X103804758Y-127263571D02*
X103804758Y-128063571D01*
X103804758Y-127301667D02*
X103728567Y-127263571D01*
X103576186Y-127263571D01*
X103499996Y-127301667D01*
X103461901Y-127339762D01*
X103423805Y-127415952D01*
X103423805Y-127644524D01*
X103461901Y-127720714D01*
X103499996Y-127758810D01*
X103576186Y-127796905D01*
X103728567Y-127796905D01*
X103804758Y-127758810D01*
X123971429Y-96619048D02*
X123971429Y-97380953D01*
X124352381Y-97000001D02*
X123590476Y-97000001D01*
X123971429Y-112619048D02*
X123971429Y-113380953D01*
X124352381Y-113000001D02*
X123590476Y-113000001D01*
X123971429Y-128619048D02*
X123971429Y-129380953D01*
X124352381Y-129000001D02*
X123590476Y-129000001D01*
X135950000Y-106000000D02*
X135950000Y-103000000D01*
X135950000Y-103000000D02*
X134550000Y-103000000D01*
X134550000Y-103000000D02*
X134550000Y-97000000D01*
X134550000Y-97000000D02*
X135950000Y-97000000D01*
X135950000Y-97000000D02*
X135950000Y-94000000D01*
X135950000Y-94000000D02*
X133300000Y-94000000D01*
X135950000Y-106000000D02*
X133300000Y-106000000D01*
X127050000Y-94000000D02*
X129200000Y-94000000D01*
X127050000Y-94000000D02*
X127050000Y-95800000D01*
X127050000Y-106000000D02*
X129200000Y-106000000D01*
X127050000Y-106000000D02*
X127050000Y-104200000D01*
X135950000Y-122000000D02*
X135950000Y-119000000D01*
X135950000Y-119000000D02*
X134550000Y-119000000D01*
X134550000Y-119000000D02*
X134550000Y-113000000D01*
X134550000Y-113000000D02*
X135950000Y-113000000D01*
X135950000Y-113000000D02*
X135950000Y-110000000D01*
X135950000Y-110000000D02*
X133300000Y-110000000D01*
X135950000Y-122000000D02*
X133300000Y-122000000D01*
X127050000Y-110000000D02*
X129200000Y-110000000D01*
X127050000Y-110000000D02*
X127050000Y-111800000D01*
X127050000Y-122000000D02*
X129200000Y-122000000D01*
X127050000Y-122000000D02*
X127050000Y-120200000D01*
X135950000Y-138000000D02*
X135950000Y-135000000D01*
X135950000Y-135000000D02*
X134550000Y-135000000D01*
X134550000Y-135000000D02*
X134550000Y-129000000D01*
X134550000Y-129000000D02*
X135950000Y-129000000D01*
X135950000Y-129000000D02*
X135950000Y-126000000D01*
X135950000Y-126000000D02*
X133300000Y-126000000D01*
X135950000Y-138000000D02*
X133300000Y-138000000D01*
X127050000Y-126000000D02*
X129200000Y-126000000D01*
X127050000Y-126000000D02*
X127050000Y-127800000D01*
X127050000Y-138000000D02*
X129200000Y-138000000D01*
X127050000Y-138000000D02*
X127050000Y-136200000D01*
%LPC*%
D12*
X107635000Y-101210000D03*
X106619000Y-106290000D03*
X108651000Y-106290000D03*
X107635000Y-117210000D03*
X106619000Y-122290000D03*
X108651000Y-122290000D03*
X107635000Y-133210000D03*
X106619000Y-138290000D03*
X108651000Y-138290000D03*
D13*
X104450000Y-102215000D03*
X104450000Y-97765000D03*
D14*
X101450000Y-104165000D03*
X101450000Y-95815000D03*
D13*
X104450000Y-118215000D03*
X104450000Y-113765000D03*
D14*
X101450000Y-120165000D03*
X101450000Y-111815000D03*
D13*
X104450000Y-134215000D03*
X104450000Y-129765000D03*
D14*
X101450000Y-136165000D03*
X101450000Y-127815000D03*
D15*
X131250000Y-94650000D03*
X131250000Y-105350000D03*
D16*
X128000000Y-94800000D03*
D17*
X128000000Y-105200000D03*
D18*
X126650000Y-97000000D03*
X126650000Y-99000000D03*
X126650000Y-101000000D03*
X126650000Y-103000000D03*
D15*
X131250000Y-110650000D03*
X131250000Y-121350000D03*
D16*
X128000000Y-110800000D03*
D17*
X128000000Y-121200000D03*
D18*
X126650000Y-113000000D03*
X126650000Y-115000000D03*
X126650000Y-117000000D03*
X126650000Y-119000000D03*
D15*
X131250000Y-126650000D03*
X131250000Y-137350000D03*
D16*
X128000000Y-126800000D03*
D17*
X128000000Y-137200000D03*
D18*
X126650000Y-129000000D03*
X126650000Y-131000000D03*
X126650000Y-133000000D03*
X126650000Y-135000000D03*
M02*
