G04 #@! TF.FileFunction,Paste,Top*
%FSLAX46Y46*%
G04 Gerber Fmt 4.6, Leading zero omitted, Abs format (unit mm)*
G04 Created by KiCad (PCBNEW 0.201512311516+6410~40~ubuntu14.04.1-stable) date Sun 03 Jan 2016 05:14:07 GMT*
%MOMM*%
G01*
G04 APERTURE LIST*
%ADD10C,0.100000*%
%ADD11R,0.950000X1.000000*%
%ADD12R,0.550000X0.300000*%
%ADD13R,0.300000X0.550000*%
%ADD14R,2.002000X2.002000*%
%ADD15R,1.000000X0.950000*%
%ADD16R,0.620000X0.620000*%
%ADD17R,1.000000X0.600000*%
%ADD18R,1.350000X0.400000*%
%ADD19R,1.200000X1.200000*%
%ADD20R,2.400000X1.900000*%
%ADD21R,2.790000X0.740000*%
G04 APERTURE END LIST*
D10*
D11*
X121550000Y-79800000D03*
X119950000Y-79800000D03*
D12*
X126625000Y-88250000D03*
X126625000Y-87750000D03*
X126625000Y-87250000D03*
X126625000Y-86750000D03*
X126625000Y-86250000D03*
X126625000Y-85750000D03*
X126625000Y-85250000D03*
X126625000Y-84750000D03*
X126625000Y-84250000D03*
X126625000Y-83750000D03*
X126625000Y-83250000D03*
X126625000Y-82750000D03*
D13*
X126000000Y-82125000D03*
X125500000Y-82125000D03*
X125000000Y-82125000D03*
X124500000Y-82125000D03*
X124000000Y-82125000D03*
X123500000Y-82125000D03*
X123000000Y-82125000D03*
X122500000Y-82125000D03*
X122000000Y-82125000D03*
X121500000Y-82125000D03*
X121000000Y-82125000D03*
X120500000Y-82125000D03*
D12*
X119875000Y-82750000D03*
X119875000Y-83250000D03*
X119875000Y-83750000D03*
X119875000Y-84250000D03*
X119875000Y-84750000D03*
X119875000Y-85250000D03*
X119875000Y-85750000D03*
X119875000Y-86250000D03*
X119875000Y-86750000D03*
X119875000Y-87250000D03*
X119875000Y-87750000D03*
X119875000Y-88250000D03*
D13*
X120500000Y-88875000D03*
X121000000Y-88875000D03*
X121500000Y-88875000D03*
X122000000Y-88875000D03*
X122500000Y-88875000D03*
X123000000Y-88875000D03*
X123500000Y-88875000D03*
X124000000Y-88875000D03*
X124500000Y-88875000D03*
X125000000Y-88875000D03*
X125500000Y-88875000D03*
X126000000Y-88875000D03*
D14*
X124500000Y-86750000D03*
X124500000Y-84250000D03*
X122000000Y-86750000D03*
X122000000Y-84250000D03*
D15*
X129250000Y-84500000D03*
X129250000Y-82900000D03*
D16*
X121200000Y-81000000D03*
X120300000Y-81000000D03*
X125300000Y-90000000D03*
X126200000Y-90000000D03*
X118750000Y-87850000D03*
X118750000Y-88750000D03*
X127800000Y-84550000D03*
X127800000Y-83650000D03*
X131600000Y-89250000D03*
X131600000Y-90150000D03*
X123500000Y-80150000D03*
X123500000Y-81050000D03*
X131600000Y-88150000D03*
X131600000Y-87250000D03*
D11*
X114050000Y-84000000D03*
X112450000Y-84000000D03*
D17*
X114650000Y-82450000D03*
X114650000Y-80550000D03*
X112350000Y-81500000D03*
D18*
X110175000Y-84200000D03*
X110175000Y-84850000D03*
X110175000Y-85500000D03*
X110175000Y-86150000D03*
X110175000Y-86800000D03*
D19*
X107500000Y-84350000D03*
X107500000Y-86650000D03*
D17*
X131850000Y-83550000D03*
X131850000Y-85450000D03*
X134150000Y-84500000D03*
D16*
X116950000Y-84500000D03*
X116050000Y-84500000D03*
X116050000Y-83500000D03*
X116950000Y-83500000D03*
X116950000Y-87500000D03*
X116050000Y-87500000D03*
X116950000Y-85500000D03*
X116050000Y-85500000D03*
X116950000Y-86500000D03*
X116050000Y-86500000D03*
X137550000Y-79500000D03*
X138450000Y-79500000D03*
X135550000Y-79500000D03*
X136450000Y-79500000D03*
D20*
X129250000Y-90750000D03*
X129250000Y-86650000D03*
D15*
X116250000Y-82050000D03*
X116250000Y-80450000D03*
D21*
X136465000Y-82960000D03*
X140535000Y-82960000D03*
X136465000Y-84230000D03*
X140535000Y-84230000D03*
X136465000Y-85500000D03*
X140535000Y-85500000D03*
X136465000Y-86770000D03*
X140535000Y-86770000D03*
X136465000Y-88040000D03*
X140535000Y-88040000D03*
D11*
X121550000Y-94800000D03*
X119950000Y-94800000D03*
D12*
X126625000Y-103250000D03*
X126625000Y-102750000D03*
X126625000Y-102250000D03*
X126625000Y-101750000D03*
X126625000Y-101250000D03*
X126625000Y-100750000D03*
X126625000Y-100250000D03*
X126625000Y-99750000D03*
X126625000Y-99250000D03*
X126625000Y-98750000D03*
X126625000Y-98250000D03*
X126625000Y-97750000D03*
D13*
X126000000Y-97125000D03*
X125500000Y-97125000D03*
X125000000Y-97125000D03*
X124500000Y-97125000D03*
X124000000Y-97125000D03*
X123500000Y-97125000D03*
X123000000Y-97125000D03*
X122500000Y-97125000D03*
X122000000Y-97125000D03*
X121500000Y-97125000D03*
X121000000Y-97125000D03*
X120500000Y-97125000D03*
D12*
X119875000Y-97750000D03*
X119875000Y-98250000D03*
X119875000Y-98750000D03*
X119875000Y-99250000D03*
X119875000Y-99750000D03*
X119875000Y-100250000D03*
X119875000Y-100750000D03*
X119875000Y-101250000D03*
X119875000Y-101750000D03*
X119875000Y-102250000D03*
X119875000Y-102750000D03*
X119875000Y-103250000D03*
D13*
X120500000Y-103875000D03*
X121000000Y-103875000D03*
X121500000Y-103875000D03*
X122000000Y-103875000D03*
X122500000Y-103875000D03*
X123000000Y-103875000D03*
X123500000Y-103875000D03*
X124000000Y-103875000D03*
X124500000Y-103875000D03*
X125000000Y-103875000D03*
X125500000Y-103875000D03*
X126000000Y-103875000D03*
D14*
X124500000Y-101750000D03*
X124500000Y-99250000D03*
X122000000Y-101750000D03*
X122000000Y-99250000D03*
D15*
X129250000Y-99500000D03*
X129250000Y-97900000D03*
D16*
X121200000Y-96000000D03*
X120300000Y-96000000D03*
X125300000Y-105000000D03*
X126200000Y-105000000D03*
X118750000Y-102850000D03*
X118750000Y-103750000D03*
X127800000Y-99550000D03*
X127800000Y-98650000D03*
X131600000Y-104250000D03*
X131600000Y-105150000D03*
X123500000Y-95150000D03*
X123500000Y-96050000D03*
X131600000Y-103150000D03*
X131600000Y-102250000D03*
D11*
X114050000Y-99000000D03*
X112450000Y-99000000D03*
D17*
X114650000Y-97450000D03*
X114650000Y-95550000D03*
X112350000Y-96500000D03*
D18*
X110175000Y-99200000D03*
X110175000Y-99850000D03*
X110175000Y-100500000D03*
X110175000Y-101150000D03*
X110175000Y-101800000D03*
D19*
X107500000Y-99350000D03*
X107500000Y-101650000D03*
D17*
X131850000Y-98550000D03*
X131850000Y-100450000D03*
X134150000Y-99500000D03*
D16*
X116950000Y-99500000D03*
X116050000Y-99500000D03*
X116050000Y-98500000D03*
X116950000Y-98500000D03*
X116950000Y-102500000D03*
X116050000Y-102500000D03*
X116950000Y-100500000D03*
X116050000Y-100500000D03*
X116950000Y-101500000D03*
X116050000Y-101500000D03*
X137550000Y-94500000D03*
X138450000Y-94500000D03*
X135550000Y-94500000D03*
X136450000Y-94500000D03*
D20*
X129250000Y-105750000D03*
X129250000Y-101650000D03*
D15*
X116250000Y-97050000D03*
X116250000Y-95450000D03*
D21*
X136465000Y-97960000D03*
X140535000Y-97960000D03*
X136465000Y-99230000D03*
X140535000Y-99230000D03*
X136465000Y-100500000D03*
X140535000Y-100500000D03*
X136465000Y-101770000D03*
X140535000Y-101770000D03*
X136465000Y-103040000D03*
X140535000Y-103040000D03*
D11*
X121550000Y-109800000D03*
X119950000Y-109800000D03*
D12*
X126625000Y-118250000D03*
X126625000Y-117750000D03*
X126625000Y-117250000D03*
X126625000Y-116750000D03*
X126625000Y-116250000D03*
X126625000Y-115750000D03*
X126625000Y-115250000D03*
X126625000Y-114750000D03*
X126625000Y-114250000D03*
X126625000Y-113750000D03*
X126625000Y-113250000D03*
X126625000Y-112750000D03*
D13*
X126000000Y-112125000D03*
X125500000Y-112125000D03*
X125000000Y-112125000D03*
X124500000Y-112125000D03*
X124000000Y-112125000D03*
X123500000Y-112125000D03*
X123000000Y-112125000D03*
X122500000Y-112125000D03*
X122000000Y-112125000D03*
X121500000Y-112125000D03*
X121000000Y-112125000D03*
X120500000Y-112125000D03*
D12*
X119875000Y-112750000D03*
X119875000Y-113250000D03*
X119875000Y-113750000D03*
X119875000Y-114250000D03*
X119875000Y-114750000D03*
X119875000Y-115250000D03*
X119875000Y-115750000D03*
X119875000Y-116250000D03*
X119875000Y-116750000D03*
X119875000Y-117250000D03*
X119875000Y-117750000D03*
X119875000Y-118250000D03*
D13*
X120500000Y-118875000D03*
X121000000Y-118875000D03*
X121500000Y-118875000D03*
X122000000Y-118875000D03*
X122500000Y-118875000D03*
X123000000Y-118875000D03*
X123500000Y-118875000D03*
X124000000Y-118875000D03*
X124500000Y-118875000D03*
X125000000Y-118875000D03*
X125500000Y-118875000D03*
X126000000Y-118875000D03*
D14*
X124500000Y-116750000D03*
X124500000Y-114250000D03*
X122000000Y-116750000D03*
X122000000Y-114250000D03*
D15*
X129250000Y-114500000D03*
X129250000Y-112900000D03*
D16*
X121200000Y-111000000D03*
X120300000Y-111000000D03*
X125300000Y-120000000D03*
X126200000Y-120000000D03*
X118750000Y-117850000D03*
X118750000Y-118750000D03*
X127800000Y-114550000D03*
X127800000Y-113650000D03*
X131600000Y-119250000D03*
X131600000Y-120150000D03*
X123500000Y-110150000D03*
X123500000Y-111050000D03*
X131600000Y-118150000D03*
X131600000Y-117250000D03*
D11*
X114050000Y-114000000D03*
X112450000Y-114000000D03*
D17*
X114650000Y-112450000D03*
X114650000Y-110550000D03*
X112350000Y-111500000D03*
D18*
X110175000Y-114200000D03*
X110175000Y-114850000D03*
X110175000Y-115500000D03*
X110175000Y-116150000D03*
X110175000Y-116800000D03*
D19*
X107500000Y-114350000D03*
X107500000Y-116650000D03*
D17*
X131850000Y-113550000D03*
X131850000Y-115450000D03*
X134150000Y-114500000D03*
D16*
X116950000Y-114500000D03*
X116050000Y-114500000D03*
X116050000Y-113500000D03*
X116950000Y-113500000D03*
X116950000Y-117500000D03*
X116050000Y-117500000D03*
X116950000Y-115500000D03*
X116050000Y-115500000D03*
X116950000Y-116500000D03*
X116050000Y-116500000D03*
X137550000Y-109500000D03*
X138450000Y-109500000D03*
X135550000Y-109500000D03*
X136450000Y-109500000D03*
D20*
X129250000Y-120750000D03*
X129250000Y-116650000D03*
D15*
X116250000Y-112050000D03*
X116250000Y-110450000D03*
D21*
X136465000Y-112960000D03*
X140535000Y-112960000D03*
X136465000Y-114230000D03*
X140535000Y-114230000D03*
X136465000Y-115500000D03*
X140535000Y-115500000D03*
X136465000Y-116770000D03*
X140535000Y-116770000D03*
X136465000Y-118040000D03*
X140535000Y-118040000D03*
M02*
