G04 #@! TF.FileFunction,Legend,Bot*
%FSLAX46Y46*%
G04 Gerber Fmt 4.6, Leading zero omitted, Abs format (unit mm)*
G04 Created by KiCad (PCBNEW 0.201512311516+6410~40~ubuntu14.04.1-stable) date Sun 03 Jan 2016 05:14:07 GMT*
%MOMM*%
G01*
G04 APERTURE LIST*
%ADD10C,0.100000*%
%ADD11C,0.150000*%
%ADD12C,1.000000*%
%ADD13R,3.800000X1.800000*%
%ADD14C,0.900000*%
%ADD15C,1.900000*%
%ADD16R,3.000000X1.000000*%
G04 APERTURE END LIST*
D10*
D11*
X129971429Y-88119048D02*
X129971429Y-88880953D01*
X130352381Y-86809524D02*
X129876190Y-86476190D01*
X130352381Y-86238095D02*
X129352381Y-86238095D01*
X129352381Y-86619048D01*
X129400000Y-86714286D01*
X129447619Y-86761905D01*
X129542857Y-86809524D01*
X129685714Y-86809524D01*
X129780952Y-86761905D01*
X129828571Y-86714286D01*
X129876190Y-86619048D01*
X129876190Y-86238095D01*
X129352381Y-84214286D02*
X129352381Y-84785715D01*
X130352381Y-84500000D02*
X129352381Y-84500000D01*
X126147619Y-79798333D02*
X125766667Y-79798333D01*
X126223810Y-80026905D02*
X125957143Y-79226905D01*
X125690476Y-80026905D01*
X125080953Y-80026905D02*
X125080953Y-79226905D01*
X125080953Y-79988810D02*
X125157143Y-80026905D01*
X125309524Y-80026905D01*
X125385715Y-79988810D01*
X125423810Y-79950714D01*
X125461905Y-79874524D01*
X125461905Y-79645952D01*
X125423810Y-79569762D01*
X125385715Y-79531667D01*
X125309524Y-79493571D01*
X125157143Y-79493571D01*
X125080953Y-79531667D01*
X124357143Y-80026905D02*
X124357143Y-79607857D01*
X124395238Y-79531667D01*
X124471428Y-79493571D01*
X124623809Y-79493571D01*
X124700000Y-79531667D01*
X124357143Y-79988810D02*
X124433333Y-80026905D01*
X124623809Y-80026905D01*
X124700000Y-79988810D01*
X124738095Y-79912619D01*
X124738095Y-79836429D01*
X124700000Y-79760238D01*
X124623809Y-79722143D01*
X124433333Y-79722143D01*
X124357143Y-79684048D01*
X123976190Y-80026905D02*
X123976190Y-79493571D01*
X123976190Y-79569762D02*
X123938095Y-79531667D01*
X123861904Y-79493571D01*
X123747618Y-79493571D01*
X123671428Y-79531667D01*
X123633333Y-79607857D01*
X123633333Y-80026905D01*
X123633333Y-79607857D02*
X123595237Y-79531667D01*
X123519047Y-79493571D01*
X123404761Y-79493571D01*
X123328571Y-79531667D01*
X123290476Y-79607857D01*
X123290476Y-80026905D01*
X122299999Y-80026905D02*
X122299999Y-79226905D01*
X122033332Y-79798333D01*
X121766665Y-79226905D01*
X121766665Y-80026905D01*
X121042856Y-80026905D02*
X121042856Y-79607857D01*
X121080951Y-79531667D01*
X121157141Y-79493571D01*
X121309522Y-79493571D01*
X121385713Y-79531667D01*
X121042856Y-79988810D02*
X121119046Y-80026905D01*
X121309522Y-80026905D01*
X121385713Y-79988810D01*
X121423808Y-79912619D01*
X121423808Y-79836429D01*
X121385713Y-79760238D01*
X121309522Y-79722143D01*
X121119046Y-79722143D01*
X121042856Y-79684048D01*
X120319046Y-79493571D02*
X120319046Y-80141190D01*
X120357141Y-80217381D01*
X120395236Y-80255476D01*
X120471427Y-80293571D01*
X120585712Y-80293571D01*
X120661903Y-80255476D01*
X120319046Y-79988810D02*
X120395236Y-80026905D01*
X120547617Y-80026905D01*
X120623808Y-79988810D01*
X120661903Y-79950714D01*
X120699998Y-79874524D01*
X120699998Y-79645952D01*
X120661903Y-79569762D01*
X120623808Y-79531667D01*
X120547617Y-79493571D01*
X120395236Y-79493571D01*
X120319046Y-79531667D01*
X119938093Y-80026905D02*
X119938093Y-79493571D01*
X119938093Y-79226905D02*
X119976188Y-79265000D01*
X119938093Y-79303095D01*
X119899998Y-79265000D01*
X119938093Y-79226905D01*
X119938093Y-79303095D01*
X119214284Y-79988810D02*
X119290474Y-80026905D01*
X119442855Y-80026905D01*
X119519046Y-79988810D01*
X119557141Y-79950714D01*
X119595236Y-79874524D01*
X119595236Y-79645952D01*
X119557141Y-79569762D01*
X119519046Y-79531667D01*
X119442855Y-79493571D01*
X119290474Y-79493571D01*
X119214284Y-79531667D01*
X118261903Y-80026905D02*
X118261903Y-79226905D01*
X117957141Y-79226905D01*
X117880950Y-79265000D01*
X117842855Y-79303095D01*
X117804760Y-79379286D01*
X117804760Y-79493571D01*
X117842855Y-79569762D01*
X117880950Y-79607857D01*
X117957141Y-79645952D01*
X118261903Y-79645952D01*
X117461903Y-80026905D02*
X117461903Y-79493571D01*
X117461903Y-79645952D02*
X117423808Y-79569762D01*
X117385712Y-79531667D01*
X117309522Y-79493571D01*
X117233331Y-79493571D01*
X116852379Y-80026905D02*
X116928570Y-79988810D01*
X116966665Y-79950714D01*
X117004760Y-79874524D01*
X117004760Y-79645952D01*
X116966665Y-79569762D01*
X116928570Y-79531667D01*
X116852379Y-79493571D01*
X116738093Y-79493571D01*
X116661903Y-79531667D01*
X116623808Y-79569762D01*
X116585712Y-79645952D01*
X116585712Y-79874524D01*
X116623808Y-79950714D01*
X116661903Y-79988810D01*
X116738093Y-80026905D01*
X116852379Y-80026905D01*
X116242855Y-80026905D02*
X116242855Y-79226905D01*
X116242855Y-79531667D02*
X116166664Y-79493571D01*
X116014283Y-79493571D01*
X115938093Y-79531667D01*
X115899998Y-79569762D01*
X115861902Y-79645952D01*
X115861902Y-79874524D01*
X115899998Y-79950714D01*
X115938093Y-79988810D01*
X116014283Y-80026905D01*
X116166664Y-80026905D01*
X116242855Y-79988810D01*
X115214283Y-79988810D02*
X115290473Y-80026905D01*
X115442854Y-80026905D01*
X115519045Y-79988810D01*
X115557140Y-79912619D01*
X115557140Y-79607857D01*
X115519045Y-79531667D01*
X115442854Y-79493571D01*
X115290473Y-79493571D01*
X115214283Y-79531667D01*
X115176188Y-79607857D01*
X115176188Y-79684048D01*
X115557140Y-79760238D01*
X114223807Y-80026905D02*
X114223807Y-79493571D01*
X114223807Y-79645952D02*
X114185712Y-79569762D01*
X114147616Y-79531667D01*
X114071426Y-79493571D01*
X113995235Y-79493571D01*
X113309521Y-80026905D02*
X113766664Y-80026905D01*
X113538093Y-80026905D02*
X113538093Y-79226905D01*
X113614283Y-79341190D01*
X113690474Y-79417381D01*
X113766664Y-79455476D01*
X125766667Y-80763571D02*
X125766667Y-81411190D01*
X125804762Y-81487381D01*
X125842857Y-81525476D01*
X125919048Y-81563571D01*
X126033333Y-81563571D01*
X126109524Y-81525476D01*
X125766667Y-81258810D02*
X125842857Y-81296905D01*
X125995238Y-81296905D01*
X126071429Y-81258810D01*
X126109524Y-81220714D01*
X126147619Y-81144524D01*
X126147619Y-80915952D01*
X126109524Y-80839762D01*
X126071429Y-80801667D01*
X125995238Y-80763571D01*
X125842857Y-80763571D01*
X125766667Y-80801667D01*
X125385714Y-81296905D02*
X125385714Y-80763571D01*
X125385714Y-80496905D02*
X125423809Y-80535000D01*
X125385714Y-80573095D01*
X125347619Y-80535000D01*
X125385714Y-80496905D01*
X125385714Y-80573095D01*
X125119048Y-80763571D02*
X124814286Y-80763571D01*
X125004762Y-80496905D02*
X125004762Y-81182619D01*
X124966667Y-81258810D01*
X124890476Y-81296905D01*
X124814286Y-81296905D01*
X124547619Y-81296905D02*
X124547619Y-80496905D01*
X124204762Y-81296905D02*
X124204762Y-80877857D01*
X124242857Y-80801667D01*
X124319047Y-80763571D01*
X124433333Y-80763571D01*
X124509524Y-80801667D01*
X124547619Y-80839762D01*
X123480952Y-80763571D02*
X123480952Y-81296905D01*
X123823809Y-80763571D02*
X123823809Y-81182619D01*
X123785714Y-81258810D01*
X123709523Y-81296905D01*
X123595237Y-81296905D01*
X123519047Y-81258810D01*
X123480952Y-81220714D01*
X123099999Y-81296905D02*
X123099999Y-80496905D01*
X123099999Y-80801667D02*
X123023808Y-80763571D01*
X122871427Y-80763571D01*
X122795237Y-80801667D01*
X122757142Y-80839762D01*
X122719046Y-80915952D01*
X122719046Y-81144524D01*
X122757142Y-81220714D01*
X122795237Y-81258810D01*
X122871427Y-81296905D01*
X123023808Y-81296905D01*
X123099999Y-81258810D01*
X122376189Y-81220714D02*
X122338094Y-81258810D01*
X122376189Y-81296905D01*
X122414284Y-81258810D01*
X122376189Y-81220714D01*
X122376189Y-81296905D01*
X121652380Y-81258810D02*
X121728570Y-81296905D01*
X121880951Y-81296905D01*
X121957142Y-81258810D01*
X121995237Y-81220714D01*
X122033332Y-81144524D01*
X122033332Y-80915952D01*
X121995237Y-80839762D01*
X121957142Y-80801667D01*
X121880951Y-80763571D01*
X121728570Y-80763571D01*
X121652380Y-80801667D01*
X121195237Y-81296905D02*
X121271428Y-81258810D01*
X121309523Y-81220714D01*
X121347618Y-81144524D01*
X121347618Y-80915952D01*
X121309523Y-80839762D01*
X121271428Y-80801667D01*
X121195237Y-80763571D01*
X121080951Y-80763571D01*
X121004761Y-80801667D01*
X120966666Y-80839762D01*
X120928570Y-80915952D01*
X120928570Y-81144524D01*
X120966666Y-81220714D01*
X121004761Y-81258810D01*
X121080951Y-81296905D01*
X121195237Y-81296905D01*
X120585713Y-81296905D02*
X120585713Y-80763571D01*
X120585713Y-80839762D02*
X120547618Y-80801667D01*
X120471427Y-80763571D01*
X120357141Y-80763571D01*
X120280951Y-80801667D01*
X120242856Y-80877857D01*
X120242856Y-81296905D01*
X120242856Y-80877857D02*
X120204760Y-80801667D01*
X120128570Y-80763571D01*
X120014284Y-80763571D01*
X119938094Y-80801667D01*
X119899999Y-80877857D01*
X119899999Y-81296905D01*
X118947617Y-80458810D02*
X119633332Y-81487381D01*
X118338094Y-81296905D02*
X118338094Y-80877857D01*
X118376189Y-80801667D01*
X118452379Y-80763571D01*
X118604760Y-80763571D01*
X118680951Y-80801667D01*
X118338094Y-81258810D02*
X118414284Y-81296905D01*
X118604760Y-81296905D01*
X118680951Y-81258810D01*
X118719046Y-81182619D01*
X118719046Y-81106429D01*
X118680951Y-81030238D01*
X118604760Y-80992143D01*
X118414284Y-80992143D01*
X118338094Y-80954048D01*
X117614284Y-81296905D02*
X117614284Y-80496905D01*
X117614284Y-81258810D02*
X117690474Y-81296905D01*
X117842855Y-81296905D01*
X117919046Y-81258810D01*
X117957141Y-81220714D01*
X117995236Y-81144524D01*
X117995236Y-80915952D01*
X117957141Y-80839762D01*
X117919046Y-80801667D01*
X117842855Y-80763571D01*
X117690474Y-80763571D01*
X117614284Y-80801667D01*
X116890474Y-81296905D02*
X116890474Y-80877857D01*
X116928569Y-80801667D01*
X117004759Y-80763571D01*
X117157140Y-80763571D01*
X117233331Y-80801667D01*
X116890474Y-81258810D02*
X116966664Y-81296905D01*
X117157140Y-81296905D01*
X117233331Y-81258810D01*
X117271426Y-81182619D01*
X117271426Y-81106429D01*
X117233331Y-81030238D01*
X117157140Y-80992143D01*
X116966664Y-80992143D01*
X116890474Y-80954048D01*
X116509521Y-81296905D02*
X116509521Y-80763571D01*
X116509521Y-80839762D02*
X116471426Y-80801667D01*
X116395235Y-80763571D01*
X116280949Y-80763571D01*
X116204759Y-80801667D01*
X116166664Y-80877857D01*
X116166664Y-81296905D01*
X116166664Y-80877857D02*
X116128568Y-80801667D01*
X116052378Y-80763571D01*
X115938092Y-80763571D01*
X115861902Y-80801667D01*
X115823807Y-80877857D01*
X115823807Y-81296905D01*
X115099997Y-80763571D02*
X115099997Y-81411190D01*
X115138092Y-81487381D01*
X115176187Y-81525476D01*
X115252378Y-81563571D01*
X115366663Y-81563571D01*
X115442854Y-81525476D01*
X115099997Y-81258810D02*
X115176187Y-81296905D01*
X115328568Y-81296905D01*
X115404759Y-81258810D01*
X115442854Y-81220714D01*
X115480949Y-81144524D01*
X115480949Y-80915952D01*
X115442854Y-80839762D01*
X115404759Y-80801667D01*
X115328568Y-80763571D01*
X115176187Y-80763571D01*
X115099997Y-80801667D01*
X114719044Y-81296905D02*
X114719044Y-80763571D01*
X114719044Y-80915952D02*
X114680949Y-80839762D01*
X114642853Y-80801667D01*
X114566663Y-80763571D01*
X114490472Y-80763571D01*
X113919044Y-81258810D02*
X113995234Y-81296905D01*
X114147615Y-81296905D01*
X114223806Y-81258810D01*
X114261901Y-81182619D01*
X114261901Y-80877857D01*
X114223806Y-80801667D01*
X114147615Y-80763571D01*
X113995234Y-80763571D01*
X113919044Y-80801667D01*
X113880949Y-80877857D01*
X113880949Y-80954048D01*
X114261901Y-81030238D01*
X113538092Y-81296905D02*
X113538092Y-80763571D01*
X113538092Y-80496905D02*
X113576187Y-80535000D01*
X113538092Y-80573095D01*
X113499997Y-80535000D01*
X113538092Y-80496905D01*
X113538092Y-80573095D01*
X112814283Y-80763571D02*
X112814283Y-81411190D01*
X112852378Y-81487381D01*
X112890473Y-81525476D01*
X112966664Y-81563571D01*
X113080949Y-81563571D01*
X113157140Y-81525476D01*
X112814283Y-81258810D02*
X112890473Y-81296905D01*
X113042854Y-81296905D01*
X113119045Y-81258810D01*
X113157140Y-81220714D01*
X113195235Y-81144524D01*
X113195235Y-80915952D01*
X113157140Y-80839762D01*
X113119045Y-80801667D01*
X113042854Y-80763571D01*
X112890473Y-80763571D01*
X112814283Y-80801667D01*
X111861901Y-80458810D02*
X112547616Y-81487381D01*
X111252378Y-81296905D02*
X111252378Y-80877857D01*
X111290473Y-80801667D01*
X111366663Y-80763571D01*
X111519044Y-80763571D01*
X111595235Y-80801667D01*
X111252378Y-81258810D02*
X111328568Y-81296905D01*
X111519044Y-81296905D01*
X111595235Y-81258810D01*
X111633330Y-81182619D01*
X111633330Y-81106429D01*
X111595235Y-81030238D01*
X111519044Y-80992143D01*
X111328568Y-80992143D01*
X111252378Y-80954048D01*
X110871425Y-81296905D02*
X110871425Y-80763571D01*
X110871425Y-80839762D02*
X110833330Y-80801667D01*
X110757139Y-80763571D01*
X110642853Y-80763571D01*
X110566663Y-80801667D01*
X110528568Y-80877857D01*
X110528568Y-81296905D01*
X110528568Y-80877857D02*
X110490472Y-80801667D01*
X110414282Y-80763571D01*
X110299996Y-80763571D01*
X110223806Y-80801667D01*
X110185711Y-80877857D01*
X110185711Y-81296905D01*
X109804758Y-80763571D02*
X109804758Y-81563571D01*
X109804758Y-80801667D02*
X109728567Y-80763571D01*
X109576186Y-80763571D01*
X109499996Y-80801667D01*
X109461901Y-80839762D01*
X109423805Y-80915952D01*
X109423805Y-81144524D01*
X109461901Y-81220714D01*
X109499996Y-81258810D01*
X109576186Y-81296905D01*
X109728567Y-81296905D01*
X109804758Y-81258810D01*
X129971429Y-82119048D02*
X129971429Y-82880953D01*
X130352381Y-82500001D02*
X129590476Y-82500001D01*
X129971429Y-103119048D02*
X129971429Y-103880953D01*
X130352381Y-101809524D02*
X129876190Y-101476190D01*
X130352381Y-101238095D02*
X129352381Y-101238095D01*
X129352381Y-101619048D01*
X129400000Y-101714286D01*
X129447619Y-101761905D01*
X129542857Y-101809524D01*
X129685714Y-101809524D01*
X129780952Y-101761905D01*
X129828571Y-101714286D01*
X129876190Y-101619048D01*
X129876190Y-101238095D01*
X129352381Y-99214286D02*
X129352381Y-99785715D01*
X130352381Y-99500000D02*
X129352381Y-99500000D01*
X126147619Y-94798333D02*
X125766667Y-94798333D01*
X126223810Y-95026905D02*
X125957143Y-94226905D01*
X125690476Y-95026905D01*
X125080953Y-95026905D02*
X125080953Y-94226905D01*
X125080953Y-94988810D02*
X125157143Y-95026905D01*
X125309524Y-95026905D01*
X125385715Y-94988810D01*
X125423810Y-94950714D01*
X125461905Y-94874524D01*
X125461905Y-94645952D01*
X125423810Y-94569762D01*
X125385715Y-94531667D01*
X125309524Y-94493571D01*
X125157143Y-94493571D01*
X125080953Y-94531667D01*
X124357143Y-95026905D02*
X124357143Y-94607857D01*
X124395238Y-94531667D01*
X124471428Y-94493571D01*
X124623809Y-94493571D01*
X124700000Y-94531667D01*
X124357143Y-94988810D02*
X124433333Y-95026905D01*
X124623809Y-95026905D01*
X124700000Y-94988810D01*
X124738095Y-94912619D01*
X124738095Y-94836429D01*
X124700000Y-94760238D01*
X124623809Y-94722143D01*
X124433333Y-94722143D01*
X124357143Y-94684048D01*
X123976190Y-95026905D02*
X123976190Y-94493571D01*
X123976190Y-94569762D02*
X123938095Y-94531667D01*
X123861904Y-94493571D01*
X123747618Y-94493571D01*
X123671428Y-94531667D01*
X123633333Y-94607857D01*
X123633333Y-95026905D01*
X123633333Y-94607857D02*
X123595237Y-94531667D01*
X123519047Y-94493571D01*
X123404761Y-94493571D01*
X123328571Y-94531667D01*
X123290476Y-94607857D01*
X123290476Y-95026905D01*
X122299999Y-95026905D02*
X122299999Y-94226905D01*
X122033332Y-94798333D01*
X121766665Y-94226905D01*
X121766665Y-95026905D01*
X121042856Y-95026905D02*
X121042856Y-94607857D01*
X121080951Y-94531667D01*
X121157141Y-94493571D01*
X121309522Y-94493571D01*
X121385713Y-94531667D01*
X121042856Y-94988810D02*
X121119046Y-95026905D01*
X121309522Y-95026905D01*
X121385713Y-94988810D01*
X121423808Y-94912619D01*
X121423808Y-94836429D01*
X121385713Y-94760238D01*
X121309522Y-94722143D01*
X121119046Y-94722143D01*
X121042856Y-94684048D01*
X120319046Y-94493571D02*
X120319046Y-95141190D01*
X120357141Y-95217381D01*
X120395236Y-95255476D01*
X120471427Y-95293571D01*
X120585712Y-95293571D01*
X120661903Y-95255476D01*
X120319046Y-94988810D02*
X120395236Y-95026905D01*
X120547617Y-95026905D01*
X120623808Y-94988810D01*
X120661903Y-94950714D01*
X120699998Y-94874524D01*
X120699998Y-94645952D01*
X120661903Y-94569762D01*
X120623808Y-94531667D01*
X120547617Y-94493571D01*
X120395236Y-94493571D01*
X120319046Y-94531667D01*
X119938093Y-95026905D02*
X119938093Y-94493571D01*
X119938093Y-94226905D02*
X119976188Y-94265000D01*
X119938093Y-94303095D01*
X119899998Y-94265000D01*
X119938093Y-94226905D01*
X119938093Y-94303095D01*
X119214284Y-94988810D02*
X119290474Y-95026905D01*
X119442855Y-95026905D01*
X119519046Y-94988810D01*
X119557141Y-94950714D01*
X119595236Y-94874524D01*
X119595236Y-94645952D01*
X119557141Y-94569762D01*
X119519046Y-94531667D01*
X119442855Y-94493571D01*
X119290474Y-94493571D01*
X119214284Y-94531667D01*
X118261903Y-95026905D02*
X118261903Y-94226905D01*
X117957141Y-94226905D01*
X117880950Y-94265000D01*
X117842855Y-94303095D01*
X117804760Y-94379286D01*
X117804760Y-94493571D01*
X117842855Y-94569762D01*
X117880950Y-94607857D01*
X117957141Y-94645952D01*
X118261903Y-94645952D01*
X117461903Y-95026905D02*
X117461903Y-94493571D01*
X117461903Y-94645952D02*
X117423808Y-94569762D01*
X117385712Y-94531667D01*
X117309522Y-94493571D01*
X117233331Y-94493571D01*
X116852379Y-95026905D02*
X116928570Y-94988810D01*
X116966665Y-94950714D01*
X117004760Y-94874524D01*
X117004760Y-94645952D01*
X116966665Y-94569762D01*
X116928570Y-94531667D01*
X116852379Y-94493571D01*
X116738093Y-94493571D01*
X116661903Y-94531667D01*
X116623808Y-94569762D01*
X116585712Y-94645952D01*
X116585712Y-94874524D01*
X116623808Y-94950714D01*
X116661903Y-94988810D01*
X116738093Y-95026905D01*
X116852379Y-95026905D01*
X116242855Y-95026905D02*
X116242855Y-94226905D01*
X116242855Y-94531667D02*
X116166664Y-94493571D01*
X116014283Y-94493571D01*
X115938093Y-94531667D01*
X115899998Y-94569762D01*
X115861902Y-94645952D01*
X115861902Y-94874524D01*
X115899998Y-94950714D01*
X115938093Y-94988810D01*
X116014283Y-95026905D01*
X116166664Y-95026905D01*
X116242855Y-94988810D01*
X115214283Y-94988810D02*
X115290473Y-95026905D01*
X115442854Y-95026905D01*
X115519045Y-94988810D01*
X115557140Y-94912619D01*
X115557140Y-94607857D01*
X115519045Y-94531667D01*
X115442854Y-94493571D01*
X115290473Y-94493571D01*
X115214283Y-94531667D01*
X115176188Y-94607857D01*
X115176188Y-94684048D01*
X115557140Y-94760238D01*
X114223807Y-95026905D02*
X114223807Y-94493571D01*
X114223807Y-94645952D02*
X114185712Y-94569762D01*
X114147616Y-94531667D01*
X114071426Y-94493571D01*
X113995235Y-94493571D01*
X113309521Y-95026905D02*
X113766664Y-95026905D01*
X113538093Y-95026905D02*
X113538093Y-94226905D01*
X113614283Y-94341190D01*
X113690474Y-94417381D01*
X113766664Y-94455476D01*
X125766667Y-95763571D02*
X125766667Y-96411190D01*
X125804762Y-96487381D01*
X125842857Y-96525476D01*
X125919048Y-96563571D01*
X126033333Y-96563571D01*
X126109524Y-96525476D01*
X125766667Y-96258810D02*
X125842857Y-96296905D01*
X125995238Y-96296905D01*
X126071429Y-96258810D01*
X126109524Y-96220714D01*
X126147619Y-96144524D01*
X126147619Y-95915952D01*
X126109524Y-95839762D01*
X126071429Y-95801667D01*
X125995238Y-95763571D01*
X125842857Y-95763571D01*
X125766667Y-95801667D01*
X125385714Y-96296905D02*
X125385714Y-95763571D01*
X125385714Y-95496905D02*
X125423809Y-95535000D01*
X125385714Y-95573095D01*
X125347619Y-95535000D01*
X125385714Y-95496905D01*
X125385714Y-95573095D01*
X125119048Y-95763571D02*
X124814286Y-95763571D01*
X125004762Y-95496905D02*
X125004762Y-96182619D01*
X124966667Y-96258810D01*
X124890476Y-96296905D01*
X124814286Y-96296905D01*
X124547619Y-96296905D02*
X124547619Y-95496905D01*
X124204762Y-96296905D02*
X124204762Y-95877857D01*
X124242857Y-95801667D01*
X124319047Y-95763571D01*
X124433333Y-95763571D01*
X124509524Y-95801667D01*
X124547619Y-95839762D01*
X123480952Y-95763571D02*
X123480952Y-96296905D01*
X123823809Y-95763571D02*
X123823809Y-96182619D01*
X123785714Y-96258810D01*
X123709523Y-96296905D01*
X123595237Y-96296905D01*
X123519047Y-96258810D01*
X123480952Y-96220714D01*
X123099999Y-96296905D02*
X123099999Y-95496905D01*
X123099999Y-95801667D02*
X123023808Y-95763571D01*
X122871427Y-95763571D01*
X122795237Y-95801667D01*
X122757142Y-95839762D01*
X122719046Y-95915952D01*
X122719046Y-96144524D01*
X122757142Y-96220714D01*
X122795237Y-96258810D01*
X122871427Y-96296905D01*
X123023808Y-96296905D01*
X123099999Y-96258810D01*
X122376189Y-96220714D02*
X122338094Y-96258810D01*
X122376189Y-96296905D01*
X122414284Y-96258810D01*
X122376189Y-96220714D01*
X122376189Y-96296905D01*
X121652380Y-96258810D02*
X121728570Y-96296905D01*
X121880951Y-96296905D01*
X121957142Y-96258810D01*
X121995237Y-96220714D01*
X122033332Y-96144524D01*
X122033332Y-95915952D01*
X121995237Y-95839762D01*
X121957142Y-95801667D01*
X121880951Y-95763571D01*
X121728570Y-95763571D01*
X121652380Y-95801667D01*
X121195237Y-96296905D02*
X121271428Y-96258810D01*
X121309523Y-96220714D01*
X121347618Y-96144524D01*
X121347618Y-95915952D01*
X121309523Y-95839762D01*
X121271428Y-95801667D01*
X121195237Y-95763571D01*
X121080951Y-95763571D01*
X121004761Y-95801667D01*
X120966666Y-95839762D01*
X120928570Y-95915952D01*
X120928570Y-96144524D01*
X120966666Y-96220714D01*
X121004761Y-96258810D01*
X121080951Y-96296905D01*
X121195237Y-96296905D01*
X120585713Y-96296905D02*
X120585713Y-95763571D01*
X120585713Y-95839762D02*
X120547618Y-95801667D01*
X120471427Y-95763571D01*
X120357141Y-95763571D01*
X120280951Y-95801667D01*
X120242856Y-95877857D01*
X120242856Y-96296905D01*
X120242856Y-95877857D02*
X120204760Y-95801667D01*
X120128570Y-95763571D01*
X120014284Y-95763571D01*
X119938094Y-95801667D01*
X119899999Y-95877857D01*
X119899999Y-96296905D01*
X118947617Y-95458810D02*
X119633332Y-96487381D01*
X118338094Y-96296905D02*
X118338094Y-95877857D01*
X118376189Y-95801667D01*
X118452379Y-95763571D01*
X118604760Y-95763571D01*
X118680951Y-95801667D01*
X118338094Y-96258810D02*
X118414284Y-96296905D01*
X118604760Y-96296905D01*
X118680951Y-96258810D01*
X118719046Y-96182619D01*
X118719046Y-96106429D01*
X118680951Y-96030238D01*
X118604760Y-95992143D01*
X118414284Y-95992143D01*
X118338094Y-95954048D01*
X117614284Y-96296905D02*
X117614284Y-95496905D01*
X117614284Y-96258810D02*
X117690474Y-96296905D01*
X117842855Y-96296905D01*
X117919046Y-96258810D01*
X117957141Y-96220714D01*
X117995236Y-96144524D01*
X117995236Y-95915952D01*
X117957141Y-95839762D01*
X117919046Y-95801667D01*
X117842855Y-95763571D01*
X117690474Y-95763571D01*
X117614284Y-95801667D01*
X116890474Y-96296905D02*
X116890474Y-95877857D01*
X116928569Y-95801667D01*
X117004759Y-95763571D01*
X117157140Y-95763571D01*
X117233331Y-95801667D01*
X116890474Y-96258810D02*
X116966664Y-96296905D01*
X117157140Y-96296905D01*
X117233331Y-96258810D01*
X117271426Y-96182619D01*
X117271426Y-96106429D01*
X117233331Y-96030238D01*
X117157140Y-95992143D01*
X116966664Y-95992143D01*
X116890474Y-95954048D01*
X116509521Y-96296905D02*
X116509521Y-95763571D01*
X116509521Y-95839762D02*
X116471426Y-95801667D01*
X116395235Y-95763571D01*
X116280949Y-95763571D01*
X116204759Y-95801667D01*
X116166664Y-95877857D01*
X116166664Y-96296905D01*
X116166664Y-95877857D02*
X116128568Y-95801667D01*
X116052378Y-95763571D01*
X115938092Y-95763571D01*
X115861902Y-95801667D01*
X115823807Y-95877857D01*
X115823807Y-96296905D01*
X115099997Y-95763571D02*
X115099997Y-96411190D01*
X115138092Y-96487381D01*
X115176187Y-96525476D01*
X115252378Y-96563571D01*
X115366663Y-96563571D01*
X115442854Y-96525476D01*
X115099997Y-96258810D02*
X115176187Y-96296905D01*
X115328568Y-96296905D01*
X115404759Y-96258810D01*
X115442854Y-96220714D01*
X115480949Y-96144524D01*
X115480949Y-95915952D01*
X115442854Y-95839762D01*
X115404759Y-95801667D01*
X115328568Y-95763571D01*
X115176187Y-95763571D01*
X115099997Y-95801667D01*
X114719044Y-96296905D02*
X114719044Y-95763571D01*
X114719044Y-95915952D02*
X114680949Y-95839762D01*
X114642853Y-95801667D01*
X114566663Y-95763571D01*
X114490472Y-95763571D01*
X113919044Y-96258810D02*
X113995234Y-96296905D01*
X114147615Y-96296905D01*
X114223806Y-96258810D01*
X114261901Y-96182619D01*
X114261901Y-95877857D01*
X114223806Y-95801667D01*
X114147615Y-95763571D01*
X113995234Y-95763571D01*
X113919044Y-95801667D01*
X113880949Y-95877857D01*
X113880949Y-95954048D01*
X114261901Y-96030238D01*
X113538092Y-96296905D02*
X113538092Y-95763571D01*
X113538092Y-95496905D02*
X113576187Y-95535000D01*
X113538092Y-95573095D01*
X113499997Y-95535000D01*
X113538092Y-95496905D01*
X113538092Y-95573095D01*
X112814283Y-95763571D02*
X112814283Y-96411190D01*
X112852378Y-96487381D01*
X112890473Y-96525476D01*
X112966664Y-96563571D01*
X113080949Y-96563571D01*
X113157140Y-96525476D01*
X112814283Y-96258810D02*
X112890473Y-96296905D01*
X113042854Y-96296905D01*
X113119045Y-96258810D01*
X113157140Y-96220714D01*
X113195235Y-96144524D01*
X113195235Y-95915952D01*
X113157140Y-95839762D01*
X113119045Y-95801667D01*
X113042854Y-95763571D01*
X112890473Y-95763571D01*
X112814283Y-95801667D01*
X111861901Y-95458810D02*
X112547616Y-96487381D01*
X111252378Y-96296905D02*
X111252378Y-95877857D01*
X111290473Y-95801667D01*
X111366663Y-95763571D01*
X111519044Y-95763571D01*
X111595235Y-95801667D01*
X111252378Y-96258810D02*
X111328568Y-96296905D01*
X111519044Y-96296905D01*
X111595235Y-96258810D01*
X111633330Y-96182619D01*
X111633330Y-96106429D01*
X111595235Y-96030238D01*
X111519044Y-95992143D01*
X111328568Y-95992143D01*
X111252378Y-95954048D01*
X110871425Y-96296905D02*
X110871425Y-95763571D01*
X110871425Y-95839762D02*
X110833330Y-95801667D01*
X110757139Y-95763571D01*
X110642853Y-95763571D01*
X110566663Y-95801667D01*
X110528568Y-95877857D01*
X110528568Y-96296905D01*
X110528568Y-95877857D02*
X110490472Y-95801667D01*
X110414282Y-95763571D01*
X110299996Y-95763571D01*
X110223806Y-95801667D01*
X110185711Y-95877857D01*
X110185711Y-96296905D01*
X109804758Y-95763571D02*
X109804758Y-96563571D01*
X109804758Y-95801667D02*
X109728567Y-95763571D01*
X109576186Y-95763571D01*
X109499996Y-95801667D01*
X109461901Y-95839762D01*
X109423805Y-95915952D01*
X109423805Y-96144524D01*
X109461901Y-96220714D01*
X109499996Y-96258810D01*
X109576186Y-96296905D01*
X109728567Y-96296905D01*
X109804758Y-96258810D01*
X129971429Y-97119048D02*
X129971429Y-97880953D01*
X130352381Y-97500001D02*
X129590476Y-97500001D01*
X129971429Y-118119048D02*
X129971429Y-118880953D01*
X130352381Y-116809524D02*
X129876190Y-116476190D01*
X130352381Y-116238095D02*
X129352381Y-116238095D01*
X129352381Y-116619048D01*
X129400000Y-116714286D01*
X129447619Y-116761905D01*
X129542857Y-116809524D01*
X129685714Y-116809524D01*
X129780952Y-116761905D01*
X129828571Y-116714286D01*
X129876190Y-116619048D01*
X129876190Y-116238095D01*
X129352381Y-114214286D02*
X129352381Y-114785715D01*
X130352381Y-114500000D02*
X129352381Y-114500000D01*
X126147619Y-109798333D02*
X125766667Y-109798333D01*
X126223810Y-110026905D02*
X125957143Y-109226905D01*
X125690476Y-110026905D01*
X125080953Y-110026905D02*
X125080953Y-109226905D01*
X125080953Y-109988810D02*
X125157143Y-110026905D01*
X125309524Y-110026905D01*
X125385715Y-109988810D01*
X125423810Y-109950714D01*
X125461905Y-109874524D01*
X125461905Y-109645952D01*
X125423810Y-109569762D01*
X125385715Y-109531667D01*
X125309524Y-109493571D01*
X125157143Y-109493571D01*
X125080953Y-109531667D01*
X124357143Y-110026905D02*
X124357143Y-109607857D01*
X124395238Y-109531667D01*
X124471428Y-109493571D01*
X124623809Y-109493571D01*
X124700000Y-109531667D01*
X124357143Y-109988810D02*
X124433333Y-110026905D01*
X124623809Y-110026905D01*
X124700000Y-109988810D01*
X124738095Y-109912619D01*
X124738095Y-109836429D01*
X124700000Y-109760238D01*
X124623809Y-109722143D01*
X124433333Y-109722143D01*
X124357143Y-109684048D01*
X123976190Y-110026905D02*
X123976190Y-109493571D01*
X123976190Y-109569762D02*
X123938095Y-109531667D01*
X123861904Y-109493571D01*
X123747618Y-109493571D01*
X123671428Y-109531667D01*
X123633333Y-109607857D01*
X123633333Y-110026905D01*
X123633333Y-109607857D02*
X123595237Y-109531667D01*
X123519047Y-109493571D01*
X123404761Y-109493571D01*
X123328571Y-109531667D01*
X123290476Y-109607857D01*
X123290476Y-110026905D01*
X122299999Y-110026905D02*
X122299999Y-109226905D01*
X122033332Y-109798333D01*
X121766665Y-109226905D01*
X121766665Y-110026905D01*
X121042856Y-110026905D02*
X121042856Y-109607857D01*
X121080951Y-109531667D01*
X121157141Y-109493571D01*
X121309522Y-109493571D01*
X121385713Y-109531667D01*
X121042856Y-109988810D02*
X121119046Y-110026905D01*
X121309522Y-110026905D01*
X121385713Y-109988810D01*
X121423808Y-109912619D01*
X121423808Y-109836429D01*
X121385713Y-109760238D01*
X121309522Y-109722143D01*
X121119046Y-109722143D01*
X121042856Y-109684048D01*
X120319046Y-109493571D02*
X120319046Y-110141190D01*
X120357141Y-110217381D01*
X120395236Y-110255476D01*
X120471427Y-110293571D01*
X120585712Y-110293571D01*
X120661903Y-110255476D01*
X120319046Y-109988810D02*
X120395236Y-110026905D01*
X120547617Y-110026905D01*
X120623808Y-109988810D01*
X120661903Y-109950714D01*
X120699998Y-109874524D01*
X120699998Y-109645952D01*
X120661903Y-109569762D01*
X120623808Y-109531667D01*
X120547617Y-109493571D01*
X120395236Y-109493571D01*
X120319046Y-109531667D01*
X119938093Y-110026905D02*
X119938093Y-109493571D01*
X119938093Y-109226905D02*
X119976188Y-109265000D01*
X119938093Y-109303095D01*
X119899998Y-109265000D01*
X119938093Y-109226905D01*
X119938093Y-109303095D01*
X119214284Y-109988810D02*
X119290474Y-110026905D01*
X119442855Y-110026905D01*
X119519046Y-109988810D01*
X119557141Y-109950714D01*
X119595236Y-109874524D01*
X119595236Y-109645952D01*
X119557141Y-109569762D01*
X119519046Y-109531667D01*
X119442855Y-109493571D01*
X119290474Y-109493571D01*
X119214284Y-109531667D01*
X118261903Y-110026905D02*
X118261903Y-109226905D01*
X117957141Y-109226905D01*
X117880950Y-109265000D01*
X117842855Y-109303095D01*
X117804760Y-109379286D01*
X117804760Y-109493571D01*
X117842855Y-109569762D01*
X117880950Y-109607857D01*
X117957141Y-109645952D01*
X118261903Y-109645952D01*
X117461903Y-110026905D02*
X117461903Y-109493571D01*
X117461903Y-109645952D02*
X117423808Y-109569762D01*
X117385712Y-109531667D01*
X117309522Y-109493571D01*
X117233331Y-109493571D01*
X116852379Y-110026905D02*
X116928570Y-109988810D01*
X116966665Y-109950714D01*
X117004760Y-109874524D01*
X117004760Y-109645952D01*
X116966665Y-109569762D01*
X116928570Y-109531667D01*
X116852379Y-109493571D01*
X116738093Y-109493571D01*
X116661903Y-109531667D01*
X116623808Y-109569762D01*
X116585712Y-109645952D01*
X116585712Y-109874524D01*
X116623808Y-109950714D01*
X116661903Y-109988810D01*
X116738093Y-110026905D01*
X116852379Y-110026905D01*
X116242855Y-110026905D02*
X116242855Y-109226905D01*
X116242855Y-109531667D02*
X116166664Y-109493571D01*
X116014283Y-109493571D01*
X115938093Y-109531667D01*
X115899998Y-109569762D01*
X115861902Y-109645952D01*
X115861902Y-109874524D01*
X115899998Y-109950714D01*
X115938093Y-109988810D01*
X116014283Y-110026905D01*
X116166664Y-110026905D01*
X116242855Y-109988810D01*
X115214283Y-109988810D02*
X115290473Y-110026905D01*
X115442854Y-110026905D01*
X115519045Y-109988810D01*
X115557140Y-109912619D01*
X115557140Y-109607857D01*
X115519045Y-109531667D01*
X115442854Y-109493571D01*
X115290473Y-109493571D01*
X115214283Y-109531667D01*
X115176188Y-109607857D01*
X115176188Y-109684048D01*
X115557140Y-109760238D01*
X114223807Y-110026905D02*
X114223807Y-109493571D01*
X114223807Y-109645952D02*
X114185712Y-109569762D01*
X114147616Y-109531667D01*
X114071426Y-109493571D01*
X113995235Y-109493571D01*
X113309521Y-110026905D02*
X113766664Y-110026905D01*
X113538093Y-110026905D02*
X113538093Y-109226905D01*
X113614283Y-109341190D01*
X113690474Y-109417381D01*
X113766664Y-109455476D01*
X125766667Y-110763571D02*
X125766667Y-111411190D01*
X125804762Y-111487381D01*
X125842857Y-111525476D01*
X125919048Y-111563571D01*
X126033333Y-111563571D01*
X126109524Y-111525476D01*
X125766667Y-111258810D02*
X125842857Y-111296905D01*
X125995238Y-111296905D01*
X126071429Y-111258810D01*
X126109524Y-111220714D01*
X126147619Y-111144524D01*
X126147619Y-110915952D01*
X126109524Y-110839762D01*
X126071429Y-110801667D01*
X125995238Y-110763571D01*
X125842857Y-110763571D01*
X125766667Y-110801667D01*
X125385714Y-111296905D02*
X125385714Y-110763571D01*
X125385714Y-110496905D02*
X125423809Y-110535000D01*
X125385714Y-110573095D01*
X125347619Y-110535000D01*
X125385714Y-110496905D01*
X125385714Y-110573095D01*
X125119048Y-110763571D02*
X124814286Y-110763571D01*
X125004762Y-110496905D02*
X125004762Y-111182619D01*
X124966667Y-111258810D01*
X124890476Y-111296905D01*
X124814286Y-111296905D01*
X124547619Y-111296905D02*
X124547619Y-110496905D01*
X124204762Y-111296905D02*
X124204762Y-110877857D01*
X124242857Y-110801667D01*
X124319047Y-110763571D01*
X124433333Y-110763571D01*
X124509524Y-110801667D01*
X124547619Y-110839762D01*
X123480952Y-110763571D02*
X123480952Y-111296905D01*
X123823809Y-110763571D02*
X123823809Y-111182619D01*
X123785714Y-111258810D01*
X123709523Y-111296905D01*
X123595237Y-111296905D01*
X123519047Y-111258810D01*
X123480952Y-111220714D01*
X123099999Y-111296905D02*
X123099999Y-110496905D01*
X123099999Y-110801667D02*
X123023808Y-110763571D01*
X122871427Y-110763571D01*
X122795237Y-110801667D01*
X122757142Y-110839762D01*
X122719046Y-110915952D01*
X122719046Y-111144524D01*
X122757142Y-111220714D01*
X122795237Y-111258810D01*
X122871427Y-111296905D01*
X123023808Y-111296905D01*
X123099999Y-111258810D01*
X122376189Y-111220714D02*
X122338094Y-111258810D01*
X122376189Y-111296905D01*
X122414284Y-111258810D01*
X122376189Y-111220714D01*
X122376189Y-111296905D01*
X121652380Y-111258810D02*
X121728570Y-111296905D01*
X121880951Y-111296905D01*
X121957142Y-111258810D01*
X121995237Y-111220714D01*
X122033332Y-111144524D01*
X122033332Y-110915952D01*
X121995237Y-110839762D01*
X121957142Y-110801667D01*
X121880951Y-110763571D01*
X121728570Y-110763571D01*
X121652380Y-110801667D01*
X121195237Y-111296905D02*
X121271428Y-111258810D01*
X121309523Y-111220714D01*
X121347618Y-111144524D01*
X121347618Y-110915952D01*
X121309523Y-110839762D01*
X121271428Y-110801667D01*
X121195237Y-110763571D01*
X121080951Y-110763571D01*
X121004761Y-110801667D01*
X120966666Y-110839762D01*
X120928570Y-110915952D01*
X120928570Y-111144524D01*
X120966666Y-111220714D01*
X121004761Y-111258810D01*
X121080951Y-111296905D01*
X121195237Y-111296905D01*
X120585713Y-111296905D02*
X120585713Y-110763571D01*
X120585713Y-110839762D02*
X120547618Y-110801667D01*
X120471427Y-110763571D01*
X120357141Y-110763571D01*
X120280951Y-110801667D01*
X120242856Y-110877857D01*
X120242856Y-111296905D01*
X120242856Y-110877857D02*
X120204760Y-110801667D01*
X120128570Y-110763571D01*
X120014284Y-110763571D01*
X119938094Y-110801667D01*
X119899999Y-110877857D01*
X119899999Y-111296905D01*
X118947617Y-110458810D02*
X119633332Y-111487381D01*
X118338094Y-111296905D02*
X118338094Y-110877857D01*
X118376189Y-110801667D01*
X118452379Y-110763571D01*
X118604760Y-110763571D01*
X118680951Y-110801667D01*
X118338094Y-111258810D02*
X118414284Y-111296905D01*
X118604760Y-111296905D01*
X118680951Y-111258810D01*
X118719046Y-111182619D01*
X118719046Y-111106429D01*
X118680951Y-111030238D01*
X118604760Y-110992143D01*
X118414284Y-110992143D01*
X118338094Y-110954048D01*
X117614284Y-111296905D02*
X117614284Y-110496905D01*
X117614284Y-111258810D02*
X117690474Y-111296905D01*
X117842855Y-111296905D01*
X117919046Y-111258810D01*
X117957141Y-111220714D01*
X117995236Y-111144524D01*
X117995236Y-110915952D01*
X117957141Y-110839762D01*
X117919046Y-110801667D01*
X117842855Y-110763571D01*
X117690474Y-110763571D01*
X117614284Y-110801667D01*
X116890474Y-111296905D02*
X116890474Y-110877857D01*
X116928569Y-110801667D01*
X117004759Y-110763571D01*
X117157140Y-110763571D01*
X117233331Y-110801667D01*
X116890474Y-111258810D02*
X116966664Y-111296905D01*
X117157140Y-111296905D01*
X117233331Y-111258810D01*
X117271426Y-111182619D01*
X117271426Y-111106429D01*
X117233331Y-111030238D01*
X117157140Y-110992143D01*
X116966664Y-110992143D01*
X116890474Y-110954048D01*
X116509521Y-111296905D02*
X116509521Y-110763571D01*
X116509521Y-110839762D02*
X116471426Y-110801667D01*
X116395235Y-110763571D01*
X116280949Y-110763571D01*
X116204759Y-110801667D01*
X116166664Y-110877857D01*
X116166664Y-111296905D01*
X116166664Y-110877857D02*
X116128568Y-110801667D01*
X116052378Y-110763571D01*
X115938092Y-110763571D01*
X115861902Y-110801667D01*
X115823807Y-110877857D01*
X115823807Y-111296905D01*
X115099997Y-110763571D02*
X115099997Y-111411190D01*
X115138092Y-111487381D01*
X115176187Y-111525476D01*
X115252378Y-111563571D01*
X115366663Y-111563571D01*
X115442854Y-111525476D01*
X115099997Y-111258810D02*
X115176187Y-111296905D01*
X115328568Y-111296905D01*
X115404759Y-111258810D01*
X115442854Y-111220714D01*
X115480949Y-111144524D01*
X115480949Y-110915952D01*
X115442854Y-110839762D01*
X115404759Y-110801667D01*
X115328568Y-110763571D01*
X115176187Y-110763571D01*
X115099997Y-110801667D01*
X114719044Y-111296905D02*
X114719044Y-110763571D01*
X114719044Y-110915952D02*
X114680949Y-110839762D01*
X114642853Y-110801667D01*
X114566663Y-110763571D01*
X114490472Y-110763571D01*
X113919044Y-111258810D02*
X113995234Y-111296905D01*
X114147615Y-111296905D01*
X114223806Y-111258810D01*
X114261901Y-111182619D01*
X114261901Y-110877857D01*
X114223806Y-110801667D01*
X114147615Y-110763571D01*
X113995234Y-110763571D01*
X113919044Y-110801667D01*
X113880949Y-110877857D01*
X113880949Y-110954048D01*
X114261901Y-111030238D01*
X113538092Y-111296905D02*
X113538092Y-110763571D01*
X113538092Y-110496905D02*
X113576187Y-110535000D01*
X113538092Y-110573095D01*
X113499997Y-110535000D01*
X113538092Y-110496905D01*
X113538092Y-110573095D01*
X112814283Y-110763571D02*
X112814283Y-111411190D01*
X112852378Y-111487381D01*
X112890473Y-111525476D01*
X112966664Y-111563571D01*
X113080949Y-111563571D01*
X113157140Y-111525476D01*
X112814283Y-111258810D02*
X112890473Y-111296905D01*
X113042854Y-111296905D01*
X113119045Y-111258810D01*
X113157140Y-111220714D01*
X113195235Y-111144524D01*
X113195235Y-110915952D01*
X113157140Y-110839762D01*
X113119045Y-110801667D01*
X113042854Y-110763571D01*
X112890473Y-110763571D01*
X112814283Y-110801667D01*
X111861901Y-110458810D02*
X112547616Y-111487381D01*
X111252378Y-111296905D02*
X111252378Y-110877857D01*
X111290473Y-110801667D01*
X111366663Y-110763571D01*
X111519044Y-110763571D01*
X111595235Y-110801667D01*
X111252378Y-111258810D02*
X111328568Y-111296905D01*
X111519044Y-111296905D01*
X111595235Y-111258810D01*
X111633330Y-111182619D01*
X111633330Y-111106429D01*
X111595235Y-111030238D01*
X111519044Y-110992143D01*
X111328568Y-110992143D01*
X111252378Y-110954048D01*
X110871425Y-111296905D02*
X110871425Y-110763571D01*
X110871425Y-110839762D02*
X110833330Y-110801667D01*
X110757139Y-110763571D01*
X110642853Y-110763571D01*
X110566663Y-110801667D01*
X110528568Y-110877857D01*
X110528568Y-111296905D01*
X110528568Y-110877857D02*
X110490472Y-110801667D01*
X110414282Y-110763571D01*
X110299996Y-110763571D01*
X110223806Y-110801667D01*
X110185711Y-110877857D01*
X110185711Y-111296905D01*
X109804758Y-110763571D02*
X109804758Y-111563571D01*
X109804758Y-110801667D02*
X109728567Y-110763571D01*
X109576186Y-110763571D01*
X109499996Y-110801667D01*
X109461901Y-110839762D01*
X109423805Y-110915952D01*
X109423805Y-111144524D01*
X109461901Y-111220714D01*
X109499996Y-111258810D01*
X109576186Y-111296905D01*
X109728567Y-111296905D01*
X109804758Y-111258810D01*
X129971429Y-112119048D02*
X129971429Y-112880953D01*
X130352381Y-112500001D02*
X129590476Y-112500001D01*
X141950000Y-91500000D02*
X141950000Y-88500000D01*
X141950000Y-88500000D02*
X140550000Y-88500000D01*
X140550000Y-88500000D02*
X140550000Y-82500000D01*
X140550000Y-82500000D02*
X141950000Y-82500000D01*
X141950000Y-82500000D02*
X141950000Y-79500000D01*
X141950000Y-79500000D02*
X139300000Y-79500000D01*
X141950000Y-91500000D02*
X139300000Y-91500000D01*
X133050000Y-79500000D02*
X135200000Y-79500000D01*
X133050000Y-79500000D02*
X133050000Y-81300000D01*
X133050000Y-91500000D02*
X135200000Y-91500000D01*
X133050000Y-91500000D02*
X133050000Y-89700000D01*
X141950000Y-106500000D02*
X141950000Y-103500000D01*
X141950000Y-103500000D02*
X140550000Y-103500000D01*
X140550000Y-103500000D02*
X140550000Y-97500000D01*
X140550000Y-97500000D02*
X141950000Y-97500000D01*
X141950000Y-97500000D02*
X141950000Y-94500000D01*
X141950000Y-94500000D02*
X139300000Y-94500000D01*
X141950000Y-106500000D02*
X139300000Y-106500000D01*
X133050000Y-94500000D02*
X135200000Y-94500000D01*
X133050000Y-94500000D02*
X133050000Y-96300000D01*
X133050000Y-106500000D02*
X135200000Y-106500000D01*
X133050000Y-106500000D02*
X133050000Y-104700000D01*
X141950000Y-121500000D02*
X141950000Y-118500000D01*
X141950000Y-118500000D02*
X140550000Y-118500000D01*
X140550000Y-118500000D02*
X140550000Y-112500000D01*
X140550000Y-112500000D02*
X141950000Y-112500000D01*
X141950000Y-112500000D02*
X141950000Y-109500000D01*
X141950000Y-109500000D02*
X139300000Y-109500000D01*
X141950000Y-121500000D02*
X139300000Y-121500000D01*
X133050000Y-109500000D02*
X135200000Y-109500000D01*
X133050000Y-109500000D02*
X133050000Y-111300000D01*
X133050000Y-121500000D02*
X135200000Y-121500000D01*
X133050000Y-121500000D02*
X133050000Y-119700000D01*
%LPC*%
D12*
X110500000Y-83275000D03*
X110500000Y-87725000D03*
X113635000Y-86710000D03*
X112619000Y-91790000D03*
X114651000Y-91790000D03*
D13*
X137250000Y-80150000D03*
X137250000Y-90850000D03*
D14*
X134000000Y-80300000D03*
D15*
X134000000Y-90700000D03*
D16*
X132650000Y-82500000D03*
X132650000Y-84500000D03*
X132650000Y-86500000D03*
X132650000Y-88500000D03*
D12*
X110500000Y-98275000D03*
X110500000Y-102725000D03*
X113635000Y-101710000D03*
X112619000Y-106790000D03*
X114651000Y-106790000D03*
D13*
X137250000Y-95150000D03*
X137250000Y-105850000D03*
D14*
X134000000Y-95300000D03*
D15*
X134000000Y-105700000D03*
D16*
X132650000Y-97500000D03*
X132650000Y-99500000D03*
X132650000Y-101500000D03*
X132650000Y-103500000D03*
D12*
X110500000Y-113275000D03*
X110500000Y-117725000D03*
X113635000Y-116710000D03*
X112619000Y-121790000D03*
X114651000Y-121790000D03*
D13*
X137250000Y-110150000D03*
X137250000Y-120850000D03*
D14*
X134000000Y-110300000D03*
D15*
X134000000Y-120700000D03*
D16*
X132650000Y-112500000D03*
X132650000Y-114500000D03*
X132650000Y-116500000D03*
X132650000Y-118500000D03*
M02*
