G04 #@! TF.FileFunction,Copper,L1,Top,Signal*
%FSLAX46Y46*%
G04 Gerber Fmt 4.6, Leading zero omitted, Abs format (unit mm)*
G04 Created by KiCad (PCBNEW 0.201512311516+6410~40~ubuntu14.04.1-stable) date Sun 03 Jan 2016 05:14:07 GMT*
%MOMM*%
G01*
G04 APERTURE LIST*
%ADD10C,0.100000*%
%ADD11C,0.150000*%
%ADD12R,0.950000X1.000000*%
%ADD13R,0.550000X0.300000*%
%ADD14R,0.300000X0.550000*%
%ADD15R,2.000000X2.000000*%
%ADD16C,0.600000*%
%ADD17R,5.600000X5.600000*%
%ADD18R,1.000000X0.950000*%
%ADD19R,0.620000X0.620000*%
%ADD20R,1.000000X0.600000*%
%ADD21R,1.350000X0.400000*%
%ADD22C,1.000000*%
%ADD23R,1.800000X1.800000*%
%ADD24R,1.900000X2.440000*%
%ADD25C,0.787000*%
%ADD26R,2.400000X1.900000*%
%ADD27R,2.790000X0.740000*%
%ADD28C,0.700000*%
%ADD29C,0.200000*%
%ADD30C,0.300000*%
%ADD31C,0.250000*%
G04 APERTURE END LIST*
D10*
D11*
X107133333Y-79416667D02*
X107466667Y-79416667D01*
X107066667Y-79616667D02*
X107300000Y-78916667D01*
X107533333Y-79616667D01*
X107766667Y-79616667D02*
X107766667Y-78916667D01*
X108000000Y-79416667D01*
X108233333Y-78916667D01*
X108233333Y-79616667D01*
X108566667Y-79616667D02*
X108566667Y-78916667D01*
X108833333Y-78916667D01*
X108900000Y-78950000D01*
X108933333Y-78983333D01*
X108966667Y-79050000D01*
X108966667Y-79150000D01*
X108933333Y-79216667D01*
X108900000Y-79250000D01*
X108833333Y-79283333D01*
X108566667Y-79283333D01*
X109800000Y-79616667D02*
X109800000Y-79150000D01*
X109800000Y-79283333D02*
X109833333Y-79216667D01*
X109866666Y-79183333D01*
X109933333Y-79150000D01*
X110000000Y-79150000D01*
X110599999Y-79616667D02*
X110199999Y-79616667D01*
X110399999Y-79616667D02*
X110399999Y-78916667D01*
X110333333Y-79016667D01*
X110266666Y-79083333D01*
X110199999Y-79116667D01*
X111399999Y-78983333D02*
X111433333Y-78950000D01*
X111499999Y-78916667D01*
X111666666Y-78916667D01*
X111733333Y-78950000D01*
X111766666Y-78983333D01*
X111799999Y-79050000D01*
X111799999Y-79116667D01*
X111766666Y-79216667D01*
X111366666Y-79616667D01*
X111799999Y-79616667D01*
X112233333Y-78916667D02*
X112300000Y-78916667D01*
X112366666Y-78950000D01*
X112400000Y-78983333D01*
X112433333Y-79050000D01*
X112466666Y-79183333D01*
X112466666Y-79350000D01*
X112433333Y-79483333D01*
X112400000Y-79550000D01*
X112366666Y-79583333D01*
X112300000Y-79616667D01*
X112233333Y-79616667D01*
X112166666Y-79583333D01*
X112133333Y-79550000D01*
X112100000Y-79483333D01*
X112066666Y-79350000D01*
X112066666Y-79183333D01*
X112100000Y-79050000D01*
X112133333Y-78983333D01*
X112166666Y-78950000D01*
X112233333Y-78916667D01*
X113133333Y-79616667D02*
X112733333Y-79616667D01*
X112933333Y-79616667D02*
X112933333Y-78916667D01*
X112866667Y-79016667D01*
X112800000Y-79083333D01*
X112733333Y-79116667D01*
X113733334Y-78916667D02*
X113600000Y-78916667D01*
X113533334Y-78950000D01*
X113500000Y-78983333D01*
X113433334Y-79083333D01*
X113400000Y-79216667D01*
X113400000Y-79483333D01*
X113433334Y-79550000D01*
X113466667Y-79583333D01*
X113533334Y-79616667D01*
X113666667Y-79616667D01*
X113733334Y-79583333D01*
X113766667Y-79550000D01*
X113800000Y-79483333D01*
X113800000Y-79316667D01*
X113766667Y-79250000D01*
X113733334Y-79216667D01*
X113666667Y-79183333D01*
X113533334Y-79183333D01*
X113466667Y-79216667D01*
X113433334Y-79250000D01*
X113400000Y-79316667D01*
X114100001Y-79350000D02*
X114633334Y-79350000D01*
X115100001Y-78916667D02*
X115166668Y-78916667D01*
X115233334Y-78950000D01*
X115266668Y-78983333D01*
X115300001Y-79050000D01*
X115333334Y-79183333D01*
X115333334Y-79350000D01*
X115300001Y-79483333D01*
X115266668Y-79550000D01*
X115233334Y-79583333D01*
X115166668Y-79616667D01*
X115100001Y-79616667D01*
X115033334Y-79583333D01*
X115000001Y-79550000D01*
X114966668Y-79483333D01*
X114933334Y-79350000D01*
X114933334Y-79183333D01*
X114966668Y-79050000D01*
X115000001Y-78983333D01*
X115033334Y-78950000D01*
X115100001Y-78916667D01*
X116000001Y-79616667D02*
X115600001Y-79616667D01*
X115800001Y-79616667D02*
X115800001Y-78916667D01*
X115733335Y-79016667D01*
X115666668Y-79083333D01*
X115600001Y-79116667D01*
X116300002Y-79350000D02*
X116833335Y-79350000D01*
X117300002Y-78916667D02*
X117366669Y-78916667D01*
X117433335Y-78950000D01*
X117466669Y-78983333D01*
X117500002Y-79050000D01*
X117533335Y-79183333D01*
X117533335Y-79350000D01*
X117500002Y-79483333D01*
X117466669Y-79550000D01*
X117433335Y-79583333D01*
X117366669Y-79616667D01*
X117300002Y-79616667D01*
X117233335Y-79583333D01*
X117200002Y-79550000D01*
X117166669Y-79483333D01*
X117133335Y-79350000D01*
X117133335Y-79183333D01*
X117166669Y-79050000D01*
X117200002Y-78983333D01*
X117233335Y-78950000D01*
X117300002Y-78916667D01*
X118200002Y-79616667D02*
X117800002Y-79616667D01*
X118000002Y-79616667D02*
X118000002Y-78916667D01*
X117933336Y-79016667D01*
X117866669Y-79083333D01*
X117800002Y-79116667D01*
X107133333Y-94416667D02*
X107466667Y-94416667D01*
X107066667Y-94616667D02*
X107300000Y-93916667D01*
X107533333Y-94616667D01*
X107766667Y-94616667D02*
X107766667Y-93916667D01*
X108000000Y-94416667D01*
X108233333Y-93916667D01*
X108233333Y-94616667D01*
X108566667Y-94616667D02*
X108566667Y-93916667D01*
X108833333Y-93916667D01*
X108900000Y-93950000D01*
X108933333Y-93983333D01*
X108966667Y-94050000D01*
X108966667Y-94150000D01*
X108933333Y-94216667D01*
X108900000Y-94250000D01*
X108833333Y-94283333D01*
X108566667Y-94283333D01*
X109800000Y-94616667D02*
X109800000Y-94150000D01*
X109800000Y-94283333D02*
X109833333Y-94216667D01*
X109866666Y-94183333D01*
X109933333Y-94150000D01*
X110000000Y-94150000D01*
X110599999Y-94616667D02*
X110199999Y-94616667D01*
X110399999Y-94616667D02*
X110399999Y-93916667D01*
X110333333Y-94016667D01*
X110266666Y-94083333D01*
X110199999Y-94116667D01*
X111399999Y-93983333D02*
X111433333Y-93950000D01*
X111499999Y-93916667D01*
X111666666Y-93916667D01*
X111733333Y-93950000D01*
X111766666Y-93983333D01*
X111799999Y-94050000D01*
X111799999Y-94116667D01*
X111766666Y-94216667D01*
X111366666Y-94616667D01*
X111799999Y-94616667D01*
X112233333Y-93916667D02*
X112300000Y-93916667D01*
X112366666Y-93950000D01*
X112400000Y-93983333D01*
X112433333Y-94050000D01*
X112466666Y-94183333D01*
X112466666Y-94350000D01*
X112433333Y-94483333D01*
X112400000Y-94550000D01*
X112366666Y-94583333D01*
X112300000Y-94616667D01*
X112233333Y-94616667D01*
X112166666Y-94583333D01*
X112133333Y-94550000D01*
X112100000Y-94483333D01*
X112066666Y-94350000D01*
X112066666Y-94183333D01*
X112100000Y-94050000D01*
X112133333Y-93983333D01*
X112166666Y-93950000D01*
X112233333Y-93916667D01*
X113133333Y-94616667D02*
X112733333Y-94616667D01*
X112933333Y-94616667D02*
X112933333Y-93916667D01*
X112866667Y-94016667D01*
X112800000Y-94083333D01*
X112733333Y-94116667D01*
X113733334Y-93916667D02*
X113600000Y-93916667D01*
X113533334Y-93950000D01*
X113500000Y-93983333D01*
X113433334Y-94083333D01*
X113400000Y-94216667D01*
X113400000Y-94483333D01*
X113433334Y-94550000D01*
X113466667Y-94583333D01*
X113533334Y-94616667D01*
X113666667Y-94616667D01*
X113733334Y-94583333D01*
X113766667Y-94550000D01*
X113800000Y-94483333D01*
X113800000Y-94316667D01*
X113766667Y-94250000D01*
X113733334Y-94216667D01*
X113666667Y-94183333D01*
X113533334Y-94183333D01*
X113466667Y-94216667D01*
X113433334Y-94250000D01*
X113400000Y-94316667D01*
X114100001Y-94350000D02*
X114633334Y-94350000D01*
X115100001Y-93916667D02*
X115166668Y-93916667D01*
X115233334Y-93950000D01*
X115266668Y-93983333D01*
X115300001Y-94050000D01*
X115333334Y-94183333D01*
X115333334Y-94350000D01*
X115300001Y-94483333D01*
X115266668Y-94550000D01*
X115233334Y-94583333D01*
X115166668Y-94616667D01*
X115100001Y-94616667D01*
X115033334Y-94583333D01*
X115000001Y-94550000D01*
X114966668Y-94483333D01*
X114933334Y-94350000D01*
X114933334Y-94183333D01*
X114966668Y-94050000D01*
X115000001Y-93983333D01*
X115033334Y-93950000D01*
X115100001Y-93916667D01*
X116000001Y-94616667D02*
X115600001Y-94616667D01*
X115800001Y-94616667D02*
X115800001Y-93916667D01*
X115733335Y-94016667D01*
X115666668Y-94083333D01*
X115600001Y-94116667D01*
X116300002Y-94350000D02*
X116833335Y-94350000D01*
X117300002Y-93916667D02*
X117366669Y-93916667D01*
X117433335Y-93950000D01*
X117466669Y-93983333D01*
X117500002Y-94050000D01*
X117533335Y-94183333D01*
X117533335Y-94350000D01*
X117500002Y-94483333D01*
X117466669Y-94550000D01*
X117433335Y-94583333D01*
X117366669Y-94616667D01*
X117300002Y-94616667D01*
X117233335Y-94583333D01*
X117200002Y-94550000D01*
X117166669Y-94483333D01*
X117133335Y-94350000D01*
X117133335Y-94183333D01*
X117166669Y-94050000D01*
X117200002Y-93983333D01*
X117233335Y-93950000D01*
X117300002Y-93916667D01*
X118200002Y-94616667D02*
X117800002Y-94616667D01*
X118000002Y-94616667D02*
X118000002Y-93916667D01*
X117933336Y-94016667D01*
X117866669Y-94083333D01*
X117800002Y-94116667D01*
X107133333Y-109416667D02*
X107466667Y-109416667D01*
X107066667Y-109616667D02*
X107300000Y-108916667D01*
X107533333Y-109616667D01*
X107766667Y-109616667D02*
X107766667Y-108916667D01*
X108000000Y-109416667D01*
X108233333Y-108916667D01*
X108233333Y-109616667D01*
X108566667Y-109616667D02*
X108566667Y-108916667D01*
X108833333Y-108916667D01*
X108900000Y-108950000D01*
X108933333Y-108983333D01*
X108966667Y-109050000D01*
X108966667Y-109150000D01*
X108933333Y-109216667D01*
X108900000Y-109250000D01*
X108833333Y-109283333D01*
X108566667Y-109283333D01*
X109800000Y-109616667D02*
X109800000Y-109150000D01*
X109800000Y-109283333D02*
X109833333Y-109216667D01*
X109866666Y-109183333D01*
X109933333Y-109150000D01*
X110000000Y-109150000D01*
X110599999Y-109616667D02*
X110199999Y-109616667D01*
X110399999Y-109616667D02*
X110399999Y-108916667D01*
X110333333Y-109016667D01*
X110266666Y-109083333D01*
X110199999Y-109116667D01*
X111399999Y-108983333D02*
X111433333Y-108950000D01*
X111499999Y-108916667D01*
X111666666Y-108916667D01*
X111733333Y-108950000D01*
X111766666Y-108983333D01*
X111799999Y-109050000D01*
X111799999Y-109116667D01*
X111766666Y-109216667D01*
X111366666Y-109616667D01*
X111799999Y-109616667D01*
X112233333Y-108916667D02*
X112300000Y-108916667D01*
X112366666Y-108950000D01*
X112400000Y-108983333D01*
X112433333Y-109050000D01*
X112466666Y-109183333D01*
X112466666Y-109350000D01*
X112433333Y-109483333D01*
X112400000Y-109550000D01*
X112366666Y-109583333D01*
X112300000Y-109616667D01*
X112233333Y-109616667D01*
X112166666Y-109583333D01*
X112133333Y-109550000D01*
X112100000Y-109483333D01*
X112066666Y-109350000D01*
X112066666Y-109183333D01*
X112100000Y-109050000D01*
X112133333Y-108983333D01*
X112166666Y-108950000D01*
X112233333Y-108916667D01*
X113133333Y-109616667D02*
X112733333Y-109616667D01*
X112933333Y-109616667D02*
X112933333Y-108916667D01*
X112866667Y-109016667D01*
X112800000Y-109083333D01*
X112733333Y-109116667D01*
X113733334Y-108916667D02*
X113600000Y-108916667D01*
X113533334Y-108950000D01*
X113500000Y-108983333D01*
X113433334Y-109083333D01*
X113400000Y-109216667D01*
X113400000Y-109483333D01*
X113433334Y-109550000D01*
X113466667Y-109583333D01*
X113533334Y-109616667D01*
X113666667Y-109616667D01*
X113733334Y-109583333D01*
X113766667Y-109550000D01*
X113800000Y-109483333D01*
X113800000Y-109316667D01*
X113766667Y-109250000D01*
X113733334Y-109216667D01*
X113666667Y-109183333D01*
X113533334Y-109183333D01*
X113466667Y-109216667D01*
X113433334Y-109250000D01*
X113400000Y-109316667D01*
X114100001Y-109350000D02*
X114633334Y-109350000D01*
X115100001Y-108916667D02*
X115166668Y-108916667D01*
X115233334Y-108950000D01*
X115266668Y-108983333D01*
X115300001Y-109050000D01*
X115333334Y-109183333D01*
X115333334Y-109350000D01*
X115300001Y-109483333D01*
X115266668Y-109550000D01*
X115233334Y-109583333D01*
X115166668Y-109616667D01*
X115100001Y-109616667D01*
X115033334Y-109583333D01*
X115000001Y-109550000D01*
X114966668Y-109483333D01*
X114933334Y-109350000D01*
X114933334Y-109183333D01*
X114966668Y-109050000D01*
X115000001Y-108983333D01*
X115033334Y-108950000D01*
X115100001Y-108916667D01*
X116000001Y-109616667D02*
X115600001Y-109616667D01*
X115800001Y-109616667D02*
X115800001Y-108916667D01*
X115733335Y-109016667D01*
X115666668Y-109083333D01*
X115600001Y-109116667D01*
X116300002Y-109350000D02*
X116833335Y-109350000D01*
X117300002Y-108916667D02*
X117366669Y-108916667D01*
X117433335Y-108950000D01*
X117466669Y-108983333D01*
X117500002Y-109050000D01*
X117533335Y-109183333D01*
X117533335Y-109350000D01*
X117500002Y-109483333D01*
X117466669Y-109550000D01*
X117433335Y-109583333D01*
X117366669Y-109616667D01*
X117300002Y-109616667D01*
X117233335Y-109583333D01*
X117200002Y-109550000D01*
X117166669Y-109483333D01*
X117133335Y-109350000D01*
X117133335Y-109183333D01*
X117166669Y-109050000D01*
X117200002Y-108983333D01*
X117233335Y-108950000D01*
X117300002Y-108916667D01*
X118200002Y-109616667D02*
X117800002Y-109616667D01*
X118000002Y-109616667D02*
X118000002Y-108916667D01*
X117933336Y-109016667D01*
X117866669Y-109083333D01*
X117800002Y-109116667D01*
D12*
X121550000Y-79800000D03*
X119950000Y-79800000D03*
D13*
X126625000Y-88250000D03*
X126625000Y-87750000D03*
X126625000Y-87250000D03*
X126625000Y-86750000D03*
X126625000Y-86250000D03*
X126625000Y-85750000D03*
X126625000Y-85250000D03*
X126625000Y-84750000D03*
X126625000Y-84250000D03*
X126625000Y-83750000D03*
X126625000Y-83250000D03*
X126625000Y-82750000D03*
D14*
X126000000Y-82125000D03*
X125500000Y-82125000D03*
X125000000Y-82125000D03*
X124500000Y-82125000D03*
X124000000Y-82125000D03*
X123500000Y-82125000D03*
X123000000Y-82125000D03*
X122500000Y-82125000D03*
X122000000Y-82125000D03*
X121500000Y-82125000D03*
X121000000Y-82125000D03*
X120500000Y-82125000D03*
D13*
X119875000Y-82750000D03*
X119875000Y-83250000D03*
X119875000Y-83750000D03*
X119875000Y-84250000D03*
X119875000Y-84750000D03*
X119875000Y-85250000D03*
X119875000Y-85750000D03*
X119875000Y-86250000D03*
X119875000Y-86750000D03*
X119875000Y-87250000D03*
X119875000Y-87750000D03*
X119875000Y-88250000D03*
D14*
X120500000Y-88875000D03*
X121000000Y-88875000D03*
X121500000Y-88875000D03*
X122000000Y-88875000D03*
X122500000Y-88875000D03*
X123000000Y-88875000D03*
X123500000Y-88875000D03*
X124000000Y-88875000D03*
X124500000Y-88875000D03*
X125000000Y-88875000D03*
X125500000Y-88875000D03*
X126000000Y-88875000D03*
D15*
X124500000Y-86750000D03*
X124500000Y-84250000D03*
X122000000Y-86750000D03*
X122000000Y-84250000D03*
D16*
X125750000Y-88000000D03*
X125750000Y-85500000D03*
X125750000Y-83000000D03*
X123250000Y-88000000D03*
X123250000Y-85500000D03*
X123250000Y-83000000D03*
X120750000Y-88000000D03*
X120750000Y-85500000D03*
X120750000Y-83000000D03*
D17*
X123250000Y-85500000D03*
D18*
X129250000Y-84500000D03*
X129250000Y-82900000D03*
D19*
X121200000Y-81000000D03*
X120300000Y-81000000D03*
X125300000Y-90000000D03*
X126200000Y-90000000D03*
X118750000Y-87850000D03*
X118750000Y-88750000D03*
X127800000Y-84550000D03*
X127800000Y-83650000D03*
X131600000Y-89250000D03*
X131600000Y-90150000D03*
X123500000Y-80150000D03*
X123500000Y-81050000D03*
X131600000Y-88150000D03*
X131600000Y-87250000D03*
D12*
X114050000Y-84000000D03*
X112450000Y-84000000D03*
D20*
X114650000Y-82450000D03*
X114650000Y-80550000D03*
X112350000Y-81500000D03*
D21*
X110175000Y-84200000D03*
X110175000Y-84850000D03*
X110175000Y-85500000D03*
X110175000Y-86150000D03*
X110175000Y-86800000D03*
D22*
X110500000Y-83275000D03*
X110500000Y-87725000D03*
D23*
X107500000Y-84350000D03*
X107500000Y-86650000D03*
D24*
X107320000Y-89340000D03*
X107320000Y-81660000D03*
D25*
X113000000Y-87980000D03*
X114270000Y-87980000D03*
X113000000Y-89250000D03*
X114270000Y-89250000D03*
X113000000Y-90520000D03*
X114270000Y-90520000D03*
D20*
X131850000Y-83550000D03*
X131850000Y-85450000D03*
X134150000Y-84500000D03*
D19*
X116950000Y-84500000D03*
X116050000Y-84500000D03*
X116050000Y-83500000D03*
X116950000Y-83500000D03*
X116950000Y-87500000D03*
X116050000Y-87500000D03*
X116950000Y-85500000D03*
X116050000Y-85500000D03*
X116950000Y-86500000D03*
X116050000Y-86500000D03*
X137550000Y-79500000D03*
X138450000Y-79500000D03*
X135550000Y-79500000D03*
X136450000Y-79500000D03*
D26*
X129250000Y-90750000D03*
X129250000Y-86650000D03*
D18*
X116250000Y-82050000D03*
X116250000Y-80450000D03*
D27*
X136465000Y-82960000D03*
X140535000Y-82960000D03*
X136465000Y-84230000D03*
X140535000Y-84230000D03*
X136465000Y-85500000D03*
X140535000Y-85500000D03*
X136465000Y-86770000D03*
X140535000Y-86770000D03*
X136465000Y-88040000D03*
X140535000Y-88040000D03*
D12*
X121550000Y-94800000D03*
X119950000Y-94800000D03*
D13*
X126625000Y-103250000D03*
X126625000Y-102750000D03*
X126625000Y-102250000D03*
X126625000Y-101750000D03*
X126625000Y-101250000D03*
X126625000Y-100750000D03*
X126625000Y-100250000D03*
X126625000Y-99750000D03*
X126625000Y-99250000D03*
X126625000Y-98750000D03*
X126625000Y-98250000D03*
X126625000Y-97750000D03*
D14*
X126000000Y-97125000D03*
X125500000Y-97125000D03*
X125000000Y-97125000D03*
X124500000Y-97125000D03*
X124000000Y-97125000D03*
X123500000Y-97125000D03*
X123000000Y-97125000D03*
X122500000Y-97125000D03*
X122000000Y-97125000D03*
X121500000Y-97125000D03*
X121000000Y-97125000D03*
X120500000Y-97125000D03*
D13*
X119875000Y-97750000D03*
X119875000Y-98250000D03*
X119875000Y-98750000D03*
X119875000Y-99250000D03*
X119875000Y-99750000D03*
X119875000Y-100250000D03*
X119875000Y-100750000D03*
X119875000Y-101250000D03*
X119875000Y-101750000D03*
X119875000Y-102250000D03*
X119875000Y-102750000D03*
X119875000Y-103250000D03*
D14*
X120500000Y-103875000D03*
X121000000Y-103875000D03*
X121500000Y-103875000D03*
X122000000Y-103875000D03*
X122500000Y-103875000D03*
X123000000Y-103875000D03*
X123500000Y-103875000D03*
X124000000Y-103875000D03*
X124500000Y-103875000D03*
X125000000Y-103875000D03*
X125500000Y-103875000D03*
X126000000Y-103875000D03*
D15*
X124500000Y-101750000D03*
X124500000Y-99250000D03*
X122000000Y-101750000D03*
X122000000Y-99250000D03*
D16*
X125750000Y-103000000D03*
X125750000Y-100500000D03*
X125750000Y-98000000D03*
X123250000Y-103000000D03*
X123250000Y-100500000D03*
X123250000Y-98000000D03*
X120750000Y-103000000D03*
X120750000Y-100500000D03*
X120750000Y-98000000D03*
D17*
X123250000Y-100500000D03*
D18*
X129250000Y-99500000D03*
X129250000Y-97900000D03*
D19*
X121200000Y-96000000D03*
X120300000Y-96000000D03*
X125300000Y-105000000D03*
X126200000Y-105000000D03*
X118750000Y-102850000D03*
X118750000Y-103750000D03*
X127800000Y-99550000D03*
X127800000Y-98650000D03*
X131600000Y-104250000D03*
X131600000Y-105150000D03*
X123500000Y-95150000D03*
X123500000Y-96050000D03*
X131600000Y-103150000D03*
X131600000Y-102250000D03*
D12*
X114050000Y-99000000D03*
X112450000Y-99000000D03*
D20*
X114650000Y-97450000D03*
X114650000Y-95550000D03*
X112350000Y-96500000D03*
D21*
X110175000Y-99200000D03*
X110175000Y-99850000D03*
X110175000Y-100500000D03*
X110175000Y-101150000D03*
X110175000Y-101800000D03*
D22*
X110500000Y-98275000D03*
X110500000Y-102725000D03*
D23*
X107500000Y-99350000D03*
X107500000Y-101650000D03*
D24*
X107320000Y-104340000D03*
X107320000Y-96660000D03*
D25*
X113000000Y-102980000D03*
X114270000Y-102980000D03*
X113000000Y-104250000D03*
X114270000Y-104250000D03*
X113000000Y-105520000D03*
X114270000Y-105520000D03*
D20*
X131850000Y-98550000D03*
X131850000Y-100450000D03*
X134150000Y-99500000D03*
D19*
X116950000Y-99500000D03*
X116050000Y-99500000D03*
X116050000Y-98500000D03*
X116950000Y-98500000D03*
X116950000Y-102500000D03*
X116050000Y-102500000D03*
X116950000Y-100500000D03*
X116050000Y-100500000D03*
X116950000Y-101500000D03*
X116050000Y-101500000D03*
X137550000Y-94500000D03*
X138450000Y-94500000D03*
X135550000Y-94500000D03*
X136450000Y-94500000D03*
D26*
X129250000Y-105750000D03*
X129250000Y-101650000D03*
D18*
X116250000Y-97050000D03*
X116250000Y-95450000D03*
D27*
X136465000Y-97960000D03*
X140535000Y-97960000D03*
X136465000Y-99230000D03*
X140535000Y-99230000D03*
X136465000Y-100500000D03*
X140535000Y-100500000D03*
X136465000Y-101770000D03*
X140535000Y-101770000D03*
X136465000Y-103040000D03*
X140535000Y-103040000D03*
D12*
X121550000Y-109800000D03*
X119950000Y-109800000D03*
D13*
X126625000Y-118250000D03*
X126625000Y-117750000D03*
X126625000Y-117250000D03*
X126625000Y-116750000D03*
X126625000Y-116250000D03*
X126625000Y-115750000D03*
X126625000Y-115250000D03*
X126625000Y-114750000D03*
X126625000Y-114250000D03*
X126625000Y-113750000D03*
X126625000Y-113250000D03*
X126625000Y-112750000D03*
D14*
X126000000Y-112125000D03*
X125500000Y-112125000D03*
X125000000Y-112125000D03*
X124500000Y-112125000D03*
X124000000Y-112125000D03*
X123500000Y-112125000D03*
X123000000Y-112125000D03*
X122500000Y-112125000D03*
X122000000Y-112125000D03*
X121500000Y-112125000D03*
X121000000Y-112125000D03*
X120500000Y-112125000D03*
D13*
X119875000Y-112750000D03*
X119875000Y-113250000D03*
X119875000Y-113750000D03*
X119875000Y-114250000D03*
X119875000Y-114750000D03*
X119875000Y-115250000D03*
X119875000Y-115750000D03*
X119875000Y-116250000D03*
X119875000Y-116750000D03*
X119875000Y-117250000D03*
X119875000Y-117750000D03*
X119875000Y-118250000D03*
D14*
X120500000Y-118875000D03*
X121000000Y-118875000D03*
X121500000Y-118875000D03*
X122000000Y-118875000D03*
X122500000Y-118875000D03*
X123000000Y-118875000D03*
X123500000Y-118875000D03*
X124000000Y-118875000D03*
X124500000Y-118875000D03*
X125000000Y-118875000D03*
X125500000Y-118875000D03*
X126000000Y-118875000D03*
D15*
X124500000Y-116750000D03*
X124500000Y-114250000D03*
X122000000Y-116750000D03*
X122000000Y-114250000D03*
D16*
X125750000Y-118000000D03*
X125750000Y-115500000D03*
X125750000Y-113000000D03*
X123250000Y-118000000D03*
X123250000Y-115500000D03*
X123250000Y-113000000D03*
X120750000Y-118000000D03*
X120750000Y-115500000D03*
X120750000Y-113000000D03*
D17*
X123250000Y-115500000D03*
D18*
X129250000Y-114500000D03*
X129250000Y-112900000D03*
D19*
X121200000Y-111000000D03*
X120300000Y-111000000D03*
X125300000Y-120000000D03*
X126200000Y-120000000D03*
X118750000Y-117850000D03*
X118750000Y-118750000D03*
X127800000Y-114550000D03*
X127800000Y-113650000D03*
X131600000Y-119250000D03*
X131600000Y-120150000D03*
X123500000Y-110150000D03*
X123500000Y-111050000D03*
X131600000Y-118150000D03*
X131600000Y-117250000D03*
D12*
X114050000Y-114000000D03*
X112450000Y-114000000D03*
D20*
X114650000Y-112450000D03*
X114650000Y-110550000D03*
X112350000Y-111500000D03*
D21*
X110175000Y-114200000D03*
X110175000Y-114850000D03*
X110175000Y-115500000D03*
X110175000Y-116150000D03*
X110175000Y-116800000D03*
D22*
X110500000Y-113275000D03*
X110500000Y-117725000D03*
D23*
X107500000Y-114350000D03*
X107500000Y-116650000D03*
D24*
X107320000Y-119340000D03*
X107320000Y-111660000D03*
D25*
X113000000Y-117980000D03*
X114270000Y-117980000D03*
X113000000Y-119250000D03*
X114270000Y-119250000D03*
X113000000Y-120520000D03*
X114270000Y-120520000D03*
D20*
X131850000Y-113550000D03*
X131850000Y-115450000D03*
X134150000Y-114500000D03*
D19*
X116950000Y-114500000D03*
X116050000Y-114500000D03*
X116050000Y-113500000D03*
X116950000Y-113500000D03*
X116950000Y-117500000D03*
X116050000Y-117500000D03*
X116950000Y-115500000D03*
X116050000Y-115500000D03*
X116950000Y-116500000D03*
X116050000Y-116500000D03*
X137550000Y-109500000D03*
X138450000Y-109500000D03*
X135550000Y-109500000D03*
X136450000Y-109500000D03*
D26*
X129250000Y-120750000D03*
X129250000Y-116650000D03*
D18*
X116250000Y-112050000D03*
X116250000Y-110450000D03*
D27*
X136465000Y-112960000D03*
X140535000Y-112960000D03*
X136465000Y-114230000D03*
X140535000Y-114230000D03*
X136465000Y-115500000D03*
X140535000Y-115500000D03*
X136465000Y-116770000D03*
X140535000Y-116770000D03*
X136465000Y-118040000D03*
X140535000Y-118040000D03*
D28*
X131000000Y-108000000D03*
X130000000Y-108000000D03*
X117500000Y-108000000D03*
X116500000Y-108000000D03*
X131000000Y-93000000D03*
X130000000Y-93000000D03*
X117500000Y-93000000D03*
X116500000Y-93000000D03*
D16*
X130688224Y-83611776D03*
X128200000Y-82800000D03*
X127800000Y-78939989D03*
X113291735Y-83087978D03*
X116100000Y-90300000D03*
X115119645Y-88973504D03*
X112100000Y-88200000D03*
X138300000Y-84900000D03*
X113594458Y-91104798D03*
X130104985Y-84262235D03*
X134800000Y-79100000D03*
X134700000Y-88000000D03*
X134700000Y-85500000D03*
X130600000Y-88700000D03*
X122199990Y-80603484D03*
X124350000Y-89700000D03*
X124200000Y-80200000D03*
X115100000Y-83700000D03*
X117100000Y-82000000D03*
X117918272Y-88618272D03*
X112200000Y-90500000D03*
X111600000Y-87500000D03*
X111600000Y-86100000D03*
X111600000Y-86800000D03*
X127600000Y-85360002D03*
X115119645Y-90243505D03*
X127149993Y-88833019D03*
X112200000Y-89600000D03*
X133158519Y-79841481D03*
X130649998Y-82725009D03*
X117900000Y-84200000D03*
X117500000Y-87300000D03*
X130646792Y-84850833D03*
X132304272Y-91604272D03*
X127130325Y-91630325D03*
X117161921Y-91147295D03*
X118606133Y-84877001D03*
X132410002Y-87380967D03*
X119100000Y-91200000D03*
X118400000Y-85649990D03*
X138400000Y-82900000D03*
X139700000Y-79500000D03*
X130688224Y-98611776D03*
X128200000Y-97800000D03*
X127800000Y-93939989D03*
X113291735Y-98087978D03*
X116100000Y-105300000D03*
X115119645Y-103973504D03*
X112100000Y-103200000D03*
X138300000Y-99900000D03*
X113594458Y-106104798D03*
X130104985Y-99262235D03*
X134800000Y-94100000D03*
X134700000Y-103000000D03*
X134700000Y-100500000D03*
X130600000Y-103700000D03*
X122199990Y-95603484D03*
X124350000Y-104700000D03*
X124200000Y-95200000D03*
X115100000Y-98700000D03*
X117100000Y-97000000D03*
X117918272Y-103618272D03*
X112200000Y-105500000D03*
X111600000Y-102500000D03*
X111600000Y-101100000D03*
X111600000Y-101800000D03*
X127600000Y-100360002D03*
X115119645Y-105243505D03*
X127149993Y-103833019D03*
X112200000Y-104600000D03*
X133158519Y-94841481D03*
X130649998Y-97725009D03*
X117900000Y-99200000D03*
X117500000Y-102300000D03*
X130646792Y-99850833D03*
X132304272Y-106604272D03*
X127130325Y-106630325D03*
X117161921Y-106147295D03*
X118606133Y-99877001D03*
X132410002Y-102380967D03*
X119100000Y-106200000D03*
X118400000Y-100649990D03*
X138400000Y-97900000D03*
X139700000Y-94500000D03*
X130688224Y-113611776D03*
X128200000Y-112800000D03*
X127800000Y-108939989D03*
X113291735Y-113087978D03*
X116100000Y-120300000D03*
X115119645Y-118973504D03*
X112100000Y-118200000D03*
X138300000Y-114900000D03*
X113594458Y-121104798D03*
X130104985Y-114262235D03*
X134800000Y-109100000D03*
X134700000Y-118000000D03*
X134700000Y-115500000D03*
X130600000Y-118700000D03*
X122199990Y-110603484D03*
X124350000Y-119700000D03*
X124200000Y-110200000D03*
X115100000Y-113700000D03*
X117100000Y-112000000D03*
X117918272Y-118618272D03*
X112200000Y-120500000D03*
X111600000Y-117500000D03*
X111600000Y-116100000D03*
X111600000Y-116800000D03*
X127600000Y-115360002D03*
X115119645Y-120243505D03*
X127149993Y-118833019D03*
X112200000Y-119600000D03*
X133158519Y-109841481D03*
X130649998Y-112725009D03*
X117900000Y-114200000D03*
X117500000Y-117300000D03*
X130646792Y-114850833D03*
X132304272Y-121604272D03*
X127130325Y-121630325D03*
X117161921Y-121147295D03*
X118606133Y-114877001D03*
X132410002Y-117380967D03*
X119100000Y-121200000D03*
X118400000Y-115649990D03*
X138400000Y-112900000D03*
X139700000Y-109500000D03*
D29*
X119875000Y-88250000D02*
X119400000Y-88250000D01*
X119300000Y-88710000D02*
X119260000Y-88750000D01*
X119400000Y-88250000D02*
X119300000Y-88350000D01*
X119300000Y-88350000D02*
X119300000Y-88710000D01*
X119260000Y-88750000D02*
X118750000Y-88750000D01*
D30*
X130900000Y-83900000D02*
X130688224Y-83688224D01*
X131850000Y-84850000D02*
X130900000Y-83900000D01*
X130688224Y-83611776D02*
X130300000Y-83611776D01*
X130300000Y-83611776D02*
X129961776Y-83611776D01*
X130900000Y-83900000D02*
X130662002Y-83900000D01*
X130662002Y-83900000D02*
X130373778Y-83611776D01*
X130373778Y-83611776D02*
X130300000Y-83611776D01*
X131850000Y-85450000D02*
X131850000Y-84850000D01*
X130688224Y-83688224D02*
X130688224Y-83611776D01*
X126049999Y-90660001D02*
X122500000Y-90660001D01*
X122500000Y-90660001D02*
X120084413Y-90660001D01*
D31*
X122500000Y-88875000D02*
X122500000Y-90660001D01*
D30*
X126200000Y-90510000D02*
X126049999Y-90660001D01*
X116524264Y-90300000D02*
X116100000Y-90300000D01*
X120084413Y-90660001D02*
X119517920Y-90093508D01*
X119517920Y-90093508D02*
X116730756Y-90093508D01*
X116730756Y-90093508D02*
X116524264Y-90300000D01*
D29*
X127800000Y-83650000D02*
X127290000Y-83650000D01*
X127200001Y-83739999D02*
X127200001Y-84149999D01*
X127290000Y-83650000D02*
X127200001Y-83739999D01*
X127200001Y-84149999D02*
X127100000Y-84250000D01*
X127100000Y-84250000D02*
X126625000Y-84250000D01*
D30*
X129961776Y-83611776D02*
X129250000Y-82900000D01*
X128200000Y-82800000D02*
X129150000Y-82800000D01*
X129150000Y-82800000D02*
X129250000Y-82900000D01*
X119950000Y-79800000D02*
X119950000Y-79775000D01*
X119950000Y-79775000D02*
X120785011Y-78939989D01*
X120785011Y-78939989D02*
X127800000Y-78939989D01*
X116250000Y-80450000D02*
X119300000Y-80450000D01*
X119300000Y-80450000D02*
X119950000Y-79800000D01*
X120300000Y-81000000D02*
X120300000Y-80150000D01*
X120300000Y-80150000D02*
X119950000Y-79800000D01*
X114650000Y-80550000D02*
X114450000Y-80550000D01*
X114450000Y-80550000D02*
X113291735Y-81708265D01*
X113291735Y-81708265D02*
X113291735Y-83087978D01*
D29*
X126549992Y-88675008D02*
X126549992Y-88325008D01*
X126549992Y-88325008D02*
X126625000Y-88250000D01*
X126000000Y-88875000D02*
X126350000Y-88875000D01*
X126350000Y-88875000D02*
X126549992Y-88675008D01*
D30*
X126200000Y-90000000D02*
X126200000Y-90510000D01*
X126200000Y-90510000D02*
X126099999Y-90610001D01*
D29*
X118281727Y-89218273D02*
X115364414Y-89218273D01*
X115364414Y-89218273D02*
X115119645Y-88973504D01*
X118750000Y-88750000D02*
X118281727Y-89218273D01*
X112100000Y-88200000D02*
X112780000Y-88200000D01*
X112780000Y-88200000D02*
X113000000Y-87980000D01*
D30*
X114650000Y-80550000D02*
X116150000Y-80550000D01*
D29*
X116150000Y-80550000D02*
X116250000Y-80450000D01*
X127750000Y-83750000D02*
X128400000Y-83750000D01*
X128400000Y-83750000D02*
X129250000Y-82900000D01*
X127600000Y-83750000D02*
X127750000Y-83750000D01*
X120500000Y-82125000D02*
X120500000Y-81200000D01*
X120500000Y-81200000D02*
X120300000Y-81000000D01*
X126000000Y-88875000D02*
X126000000Y-89800000D01*
X126000000Y-89800000D02*
X126200000Y-90000000D01*
X138300000Y-84900000D02*
X138300000Y-85300000D01*
X138300000Y-84470000D02*
X138300000Y-84900000D01*
X113000000Y-90520000D02*
X113009660Y-90520000D01*
X113009660Y-90520000D02*
X113594458Y-91104798D01*
X111300000Y-86400000D02*
X111600000Y-86100000D01*
X111200000Y-86500000D02*
X111300000Y-86400000D01*
X111200000Y-87100000D02*
X111300000Y-87200000D01*
X111300000Y-87200000D02*
X111600000Y-87500000D01*
X111300000Y-86400000D02*
X111300000Y-87200000D01*
X111200000Y-86500000D02*
X111200000Y-87100000D01*
X110900000Y-86800000D02*
X111200000Y-86500000D01*
X110900000Y-86800000D02*
X111200000Y-87100000D01*
D30*
X129250000Y-84500000D02*
X129867220Y-84500000D01*
X129867220Y-84500000D02*
X130104985Y-84262235D01*
D29*
X138300000Y-85300000D02*
X138100000Y-85500000D01*
X138100000Y-85500000D02*
X136465000Y-85500000D01*
X136465000Y-84230000D02*
X138060000Y-84230000D01*
X138060000Y-84230000D02*
X138300000Y-84470000D01*
X135550000Y-79500000D02*
X135200000Y-79500000D01*
X135200000Y-79500000D02*
X134800000Y-79100000D01*
X136465000Y-88040000D02*
X134740000Y-88040000D01*
X134740000Y-88040000D02*
X134700000Y-88000000D01*
X136465000Y-85500000D02*
X134700000Y-85500000D01*
X131600000Y-88700000D02*
X131600000Y-89250000D01*
X131600000Y-88150000D02*
X131600000Y-88700000D01*
X131600000Y-88700000D02*
X130600000Y-88700000D01*
X126625000Y-84750000D02*
X127600000Y-84750000D01*
X127600000Y-84750000D02*
X127800000Y-84550000D01*
D30*
X121550000Y-79800000D02*
X121550000Y-79953494D01*
X121550000Y-79953494D02*
X122199990Y-80603484D01*
X121200000Y-81000000D02*
X121200000Y-80150000D01*
X121200000Y-80150000D02*
X121550000Y-79800000D01*
D29*
X124350000Y-89700000D02*
X124650000Y-90000000D01*
X124000000Y-89350000D02*
X124350000Y-89700000D01*
X123500000Y-80150000D02*
X124150000Y-80150000D01*
X124150000Y-80150000D02*
X124200000Y-80200000D01*
D30*
X114050000Y-84000000D02*
X114800000Y-84000000D01*
X114800000Y-84000000D02*
X115100000Y-83700000D01*
X116250000Y-82050000D02*
X117050000Y-82050000D01*
D29*
X117050000Y-82050000D02*
X117100000Y-82000000D01*
X118750000Y-87850000D02*
X118489998Y-87850000D01*
X118489998Y-87850000D02*
X117918272Y-88421726D01*
X117918272Y-88421726D02*
X117918272Y-88618272D01*
X124000000Y-88875000D02*
X124000000Y-89350000D01*
X124650000Y-90000000D02*
X124790000Y-90000000D01*
X124790000Y-90000000D02*
X125300000Y-90000000D01*
X113000000Y-90520000D02*
X112220000Y-90520000D01*
X112220000Y-90520000D02*
X112200000Y-90500000D01*
X110175000Y-86800000D02*
X110900000Y-86800000D01*
X110175000Y-86800000D02*
X111600000Y-86800000D01*
D30*
X116050000Y-83500000D02*
X116050000Y-82250000D01*
D29*
X116050000Y-82250000D02*
X116250000Y-82050000D01*
D30*
X114650000Y-82450000D02*
X114650000Y-83400000D01*
X114650000Y-83400000D02*
X114050000Y-84000000D01*
X114650000Y-82450000D02*
X115850000Y-82450000D01*
D29*
X115850000Y-82450000D02*
X116250000Y-82050000D01*
X127750000Y-84650000D02*
X129100000Y-84650000D01*
X129100000Y-84650000D02*
X129250000Y-84500000D01*
X127650000Y-84750000D02*
X127750000Y-84650000D01*
X121000000Y-82125000D02*
X121000000Y-81200000D01*
X121000000Y-81200000D02*
X121200000Y-81000000D01*
X119875000Y-87750000D02*
X118850000Y-87750000D01*
X118850000Y-87750000D02*
X118750000Y-87850000D01*
X125500000Y-88875000D02*
X125500000Y-89800000D01*
X125500000Y-89800000D02*
X125300000Y-90000000D01*
X131600000Y-90150000D02*
X129850000Y-90150000D01*
X129850000Y-90150000D02*
X129250000Y-90750000D01*
X126625000Y-86250000D02*
X127036297Y-86250000D01*
X127036297Y-86250000D02*
X127749999Y-86963702D01*
X127749999Y-89549999D02*
X128950000Y-90750000D01*
X127749999Y-86963702D02*
X127749999Y-89549999D01*
X128950000Y-90750000D02*
X129250000Y-90750000D01*
X129250000Y-90750000D02*
X128903701Y-90750000D01*
X129000000Y-90750000D02*
X129250000Y-90750000D01*
X123500000Y-81050000D02*
X124402905Y-81050000D01*
X124402905Y-81050000D02*
X125327955Y-80124949D01*
X125327955Y-80124949D02*
X132593445Y-80124949D01*
X132593445Y-80124949D02*
X133558464Y-81089969D01*
X133558464Y-81089969D02*
X136010031Y-81089969D01*
X136010031Y-81089969D02*
X136450000Y-80650000D01*
X136450000Y-80650000D02*
X136450000Y-79500000D01*
X123500000Y-82125000D02*
X123500000Y-81050000D01*
X136450000Y-79500000D02*
X137550000Y-79500000D01*
X131600000Y-87250000D02*
X129850000Y-87250000D01*
X129850000Y-87250000D02*
X129250000Y-86650000D01*
X126625000Y-85750000D02*
X127101996Y-85750000D01*
X127101996Y-85750000D02*
X127311999Y-85960003D01*
X127311999Y-85960003D02*
X128560003Y-85960003D01*
X128560003Y-85960003D02*
X129250000Y-86650000D01*
X129250000Y-86650000D02*
X128950000Y-86650000D01*
X128550000Y-85950000D02*
X129250000Y-86650000D01*
X112450000Y-84000000D02*
X112450000Y-84700000D01*
X115239999Y-84800001D02*
X115540000Y-84500000D01*
X112450000Y-84700000D02*
X112550001Y-84800001D01*
X112550001Y-84800001D02*
X115239999Y-84800001D01*
X115540000Y-84500000D02*
X116050000Y-84500000D01*
D30*
X112350000Y-81500000D02*
X112350000Y-83900000D01*
D29*
X112350000Y-83900000D02*
X112450000Y-84000000D01*
D30*
X110175000Y-84200000D02*
X112250000Y-84200000D01*
D29*
X112250000Y-84200000D02*
X112450000Y-84000000D01*
X127149993Y-88833019D02*
X127200000Y-88883026D01*
X127200000Y-88883026D02*
X127200000Y-90146410D01*
X127200000Y-90146410D02*
X126236399Y-91110011D01*
X126236399Y-91110011D02*
X119898013Y-91110011D01*
X119898013Y-91110011D02*
X119335296Y-90547294D01*
X119335296Y-90547294D02*
X116920930Y-90547294D01*
X116920930Y-90547294D02*
X116917155Y-90543519D01*
X115776141Y-90900001D02*
X115119645Y-90243505D01*
X116917155Y-90543519D02*
X116560673Y-90900001D01*
X116560673Y-90900001D02*
X115776141Y-90900001D01*
X126625000Y-85250000D02*
X127489998Y-85250000D01*
X127489998Y-85250000D02*
X127600000Y-85360002D01*
X112200000Y-89600000D02*
X112650000Y-89600000D01*
X112650000Y-89600000D02*
X113000000Y-89250000D01*
X113000000Y-89250000D02*
X113006415Y-89250000D01*
X126625000Y-82750000D02*
X127350000Y-82750000D01*
X133410013Y-86927277D02*
X133410013Y-88489987D01*
X127350000Y-82750000D02*
X127975001Y-82124999D01*
X127975001Y-82124999D02*
X131765001Y-82124999D01*
X131765001Y-82124999D02*
X132650001Y-83009999D01*
X132650001Y-83009999D02*
X132650001Y-86167266D01*
X132650001Y-86167266D02*
X133410013Y-86927277D01*
X133410013Y-88489987D02*
X134320026Y-89400000D01*
X138200000Y-89400000D02*
X139560000Y-88040000D01*
X134320026Y-89400000D02*
X138200000Y-89400000D01*
X139560000Y-88040000D02*
X140535000Y-88040000D01*
X126000000Y-82125000D02*
X126000000Y-81800000D01*
X126000000Y-81800000D02*
X126075011Y-81724989D01*
X126075011Y-81724989D02*
X131930690Y-81724989D01*
X133050011Y-82844310D02*
X133050011Y-86001577D01*
X137810012Y-88999990D02*
X138839999Y-87970003D01*
X139510000Y-86770000D02*
X140535000Y-86770000D01*
X131930690Y-81724989D02*
X133050011Y-82844310D01*
X133050011Y-86001577D02*
X133810023Y-86761588D01*
X133810023Y-86761588D02*
X133810023Y-88324299D01*
X138839999Y-87440001D02*
X139510000Y-86770000D01*
X133810023Y-88324299D02*
X134485714Y-88999990D01*
X134485714Y-88999990D02*
X137810012Y-88999990D01*
X138839999Y-87970003D02*
X138839999Y-87440001D01*
X133061398Y-82289999D02*
X138389999Y-82289999D01*
X138389999Y-82289999D02*
X138399999Y-82299999D01*
X138399999Y-82299999D02*
X138849999Y-82299999D01*
X139510000Y-82960000D02*
X140535000Y-82960000D01*
X138849999Y-82299999D02*
X139510000Y-82960000D01*
X125500000Y-82125000D02*
X125500000Y-81659998D01*
X125835019Y-81324979D02*
X132096378Y-81324979D01*
X125500000Y-81659998D02*
X125835019Y-81324979D01*
X132096378Y-81324979D02*
X133061398Y-82289999D01*
X125000000Y-82125000D02*
X125000000Y-81584302D01*
X141769991Y-81889989D02*
X142230001Y-82349999D01*
X142230001Y-82349999D02*
X142230001Y-83559999D01*
X125000000Y-81584302D02*
X125659331Y-80924971D01*
X125659331Y-80924971D02*
X125669328Y-80924971D01*
X125669328Y-80924971D02*
X125669330Y-80924969D01*
X132262067Y-80924969D02*
X133227087Y-81889989D01*
X142230001Y-83559999D02*
X141560000Y-84230000D01*
X125669330Y-80924969D02*
X132262067Y-80924969D01*
X133227087Y-81889989D02*
X141769991Y-81889989D01*
X141560000Y-84230000D02*
X140535000Y-84230000D01*
X124500000Y-82125000D02*
X124500000Y-81518603D01*
X124500000Y-81518603D02*
X125493644Y-80524959D01*
X125493644Y-80524959D02*
X132427756Y-80524959D01*
X132427756Y-80524959D02*
X133392776Y-81489979D01*
X133392776Y-81489979D02*
X141935680Y-81489979D01*
X141935680Y-81489979D02*
X142630011Y-82184310D01*
X142630011Y-82184310D02*
X142630011Y-84429989D01*
X142630011Y-84429989D02*
X141560000Y-85500000D01*
X141560000Y-85500000D02*
X140535000Y-85500000D01*
X132000000Y-79724939D02*
X133041977Y-79724939D01*
X133041977Y-79724939D02*
X133158519Y-79841481D01*
X123000000Y-82125000D02*
X123000000Y-81650000D01*
X125224939Y-79724939D02*
X132000000Y-79724939D01*
X123000000Y-81650000D02*
X122800000Y-81450000D01*
X125039999Y-79539999D02*
X125224939Y-79724939D01*
X122800000Y-81450000D02*
X122800000Y-79689998D01*
X122800000Y-79689998D02*
X122949999Y-79539999D01*
X122949999Y-79539999D02*
X125039999Y-79539999D01*
X130649998Y-82725009D02*
X131525009Y-82725009D01*
X131525009Y-82725009D02*
X131850000Y-83050000D01*
X131850000Y-83050000D02*
X131850000Y-83550000D01*
X119875000Y-83250000D02*
X117200000Y-83250000D01*
X117200000Y-83250000D02*
X116950000Y-83500000D01*
X116950000Y-84500000D02*
X116950000Y-83500000D01*
X118850000Y-84200000D02*
X117900000Y-84200000D01*
X119875000Y-84750000D02*
X119400000Y-84750000D01*
X119400000Y-84750000D02*
X118850000Y-84200000D01*
X117300000Y-87500000D02*
X117500000Y-87300000D01*
X116950000Y-87500000D02*
X117300000Y-87500000D01*
X130646792Y-84850833D02*
X130646792Y-85275097D01*
X130646792Y-85275097D02*
X130925561Y-85553866D01*
X130925561Y-85553866D02*
X130925561Y-85865563D01*
X132304272Y-91604272D02*
X132610011Y-91298533D01*
X132610011Y-88170921D02*
X133010003Y-87770929D01*
X132610011Y-91298533D02*
X132610011Y-88170921D01*
X133010003Y-87770929D02*
X133010003Y-87092966D01*
X133010003Y-87092966D02*
X132017027Y-86099990D01*
X132017027Y-86099990D02*
X131159988Y-86099990D01*
X131159988Y-86099990D02*
X130925561Y-85865563D01*
X127130325Y-91630325D02*
X126850619Y-91910031D01*
X126850619Y-91910031D02*
X117924657Y-91910031D01*
X117924657Y-91910031D02*
X117814627Y-91800001D01*
X117814627Y-91800001D02*
X117161921Y-91147295D01*
X119875000Y-85250000D02*
X118979132Y-85250000D01*
X118979132Y-85250000D02*
X118606133Y-84877001D01*
X119100000Y-91200000D02*
X119410021Y-91510021D01*
X132210001Y-90700001D02*
X132210001Y-88005232D01*
X119410021Y-91510021D02*
X126402089Y-91510021D01*
X127749999Y-91349999D02*
X127749999Y-91940001D01*
X127809999Y-92000001D02*
X130910001Y-92000001D01*
X126402089Y-91510021D02*
X126912108Y-91000000D01*
X126912108Y-91000000D02*
X127400000Y-91000000D01*
X127400000Y-91000000D02*
X127749999Y-91349999D01*
X127749999Y-91940001D02*
X127809999Y-92000001D01*
X130910001Y-92000001D02*
X132210001Y-90700001D01*
X132210001Y-88005232D02*
X132410002Y-87805231D01*
X132410002Y-87805231D02*
X132410002Y-87380967D01*
X119875000Y-85750000D02*
X118500010Y-85750000D01*
X118500010Y-85750000D02*
X118400000Y-85649990D01*
X119875000Y-87250000D02*
X119396801Y-87250000D01*
X119396801Y-87250000D02*
X119386800Y-87239999D01*
X119386800Y-87239999D02*
X118199999Y-87239999D01*
X118199999Y-87239999D02*
X118100001Y-87339997D01*
X118100001Y-87588001D02*
X117314503Y-88373499D01*
X117314503Y-88373499D02*
X114663499Y-88373499D01*
X114663499Y-88373499D02*
X114270000Y-87980000D01*
X118100001Y-87339997D02*
X118100001Y-87588001D01*
X120500000Y-88875000D02*
X120150000Y-88875000D01*
X120150000Y-88875000D02*
X119381501Y-89643499D01*
X119381501Y-89643499D02*
X114663499Y-89643499D01*
X114663499Y-89643499D02*
X114270000Y-89250000D01*
X116050000Y-85500000D02*
X115540000Y-85500000D01*
X115540000Y-85500000D02*
X115240011Y-85200011D01*
X115240011Y-85200011D02*
X112153711Y-85200011D01*
X112153711Y-85200011D02*
X111803700Y-84850000D01*
X111803700Y-84850000D02*
X111050000Y-84850000D01*
X111050000Y-84850000D02*
X110175000Y-84850000D01*
X116050000Y-86500000D02*
X116050000Y-86350000D01*
X115499999Y-86110001D02*
X114990019Y-85600021D01*
X111050000Y-85500000D02*
X110175000Y-85500000D01*
X116050000Y-86350000D02*
X115810001Y-86110001D01*
X115810001Y-86110001D02*
X115499999Y-86110001D01*
X111988023Y-85600021D02*
X111888001Y-85499999D01*
X114990019Y-85600021D02*
X111988023Y-85600021D01*
X111888001Y-85499999D02*
X111050000Y-85500000D01*
X116050000Y-86500000D02*
X116050000Y-87500000D01*
X138400000Y-82900000D02*
X136525000Y-82900000D01*
X136525000Y-82900000D02*
X136465000Y-82960000D01*
X138450000Y-79500000D02*
X139700000Y-79500000D01*
D30*
X136465000Y-82960000D02*
X134870000Y-82960000D01*
X134150000Y-84000000D02*
X134150000Y-84500000D01*
X134150000Y-83680000D02*
X134150000Y-84000000D01*
X134870000Y-82960000D02*
X134150000Y-83680000D01*
D29*
X138450000Y-79500000D02*
X138650002Y-79500000D01*
X119875000Y-86250000D02*
X117903701Y-86250000D01*
X117903701Y-86250000D02*
X117453701Y-85800000D01*
X117453701Y-85800000D02*
X117250000Y-85800000D01*
X117250000Y-85800000D02*
X116950000Y-85500000D01*
X119875000Y-86750000D02*
X117838002Y-86750000D01*
X117838002Y-86750000D02*
X117588002Y-86500000D01*
X117588002Y-86500000D02*
X117460000Y-86500000D01*
X117460000Y-86500000D02*
X116950000Y-86500000D01*
X119875000Y-103250000D02*
X119400000Y-103250000D01*
X119300000Y-103710000D02*
X119260000Y-103750000D01*
X119400000Y-103250000D02*
X119300000Y-103350000D01*
X119300000Y-103350000D02*
X119300000Y-103710000D01*
X119260000Y-103750000D02*
X118750000Y-103750000D01*
D30*
X130900000Y-98900000D02*
X130688224Y-98688224D01*
X131850000Y-99850000D02*
X130900000Y-98900000D01*
X130688224Y-98611776D02*
X130300000Y-98611776D01*
X130300000Y-98611776D02*
X129961776Y-98611776D01*
X130900000Y-98900000D02*
X130662002Y-98900000D01*
X130662002Y-98900000D02*
X130373778Y-98611776D01*
X130373778Y-98611776D02*
X130300000Y-98611776D01*
X131850000Y-100450000D02*
X131850000Y-99850000D01*
X130688224Y-98688224D02*
X130688224Y-98611776D01*
X126049999Y-105660001D02*
X122500000Y-105660001D01*
X122500000Y-105660001D02*
X120084413Y-105660001D01*
D31*
X122500000Y-103875000D02*
X122500000Y-105660001D01*
D30*
X126200000Y-105510000D02*
X126049999Y-105660001D01*
X116524264Y-105300000D02*
X116100000Y-105300000D01*
X120084413Y-105660001D02*
X119517920Y-105093508D01*
X119517920Y-105093508D02*
X116730756Y-105093508D01*
X116730756Y-105093508D02*
X116524264Y-105300000D01*
D29*
X127800000Y-98650000D02*
X127290000Y-98650000D01*
X127200001Y-98739999D02*
X127200001Y-99149999D01*
X127290000Y-98650000D02*
X127200001Y-98739999D01*
X127200001Y-99149999D02*
X127100000Y-99250000D01*
X127100000Y-99250000D02*
X126625000Y-99250000D01*
D30*
X129961776Y-98611776D02*
X129250000Y-97900000D01*
X128200000Y-97800000D02*
X129150000Y-97800000D01*
X129150000Y-97800000D02*
X129250000Y-97900000D01*
X119950000Y-94800000D02*
X119950000Y-94775000D01*
X119950000Y-94775000D02*
X120785011Y-93939989D01*
X120785011Y-93939989D02*
X127800000Y-93939989D01*
X116250000Y-95450000D02*
X119300000Y-95450000D01*
X119300000Y-95450000D02*
X119950000Y-94800000D01*
X120300000Y-96000000D02*
X120300000Y-95150000D01*
X120300000Y-95150000D02*
X119950000Y-94800000D01*
X114650000Y-95550000D02*
X114450000Y-95550000D01*
X114450000Y-95550000D02*
X113291735Y-96708265D01*
X113291735Y-96708265D02*
X113291735Y-98087978D01*
D29*
X126549992Y-103675008D02*
X126549992Y-103325008D01*
X126549992Y-103325008D02*
X126625000Y-103250000D01*
X126000000Y-103875000D02*
X126350000Y-103875000D01*
X126350000Y-103875000D02*
X126549992Y-103675008D01*
D30*
X126200000Y-105000000D02*
X126200000Y-105510000D01*
X126200000Y-105510000D02*
X126099999Y-105610001D01*
D29*
X118281727Y-104218273D02*
X115364414Y-104218273D01*
X115364414Y-104218273D02*
X115119645Y-103973504D01*
X118750000Y-103750000D02*
X118281727Y-104218273D01*
X112100000Y-103200000D02*
X112780000Y-103200000D01*
X112780000Y-103200000D02*
X113000000Y-102980000D01*
D30*
X114650000Y-95550000D02*
X116150000Y-95550000D01*
D29*
X116150000Y-95550000D02*
X116250000Y-95450000D01*
X127750000Y-98750000D02*
X128400000Y-98750000D01*
X128400000Y-98750000D02*
X129250000Y-97900000D01*
X127600000Y-98750000D02*
X127750000Y-98750000D01*
X120500000Y-97125000D02*
X120500000Y-96200000D01*
X120500000Y-96200000D02*
X120300000Y-96000000D01*
X126000000Y-103875000D02*
X126000000Y-104800000D01*
X126000000Y-104800000D02*
X126200000Y-105000000D01*
X138300000Y-99900000D02*
X138300000Y-100300000D01*
X138300000Y-99470000D02*
X138300000Y-99900000D01*
X113000000Y-105520000D02*
X113009660Y-105520000D01*
X113009660Y-105520000D02*
X113594458Y-106104798D01*
X111300000Y-101400000D02*
X111600000Y-101100000D01*
X111200000Y-101500000D02*
X111300000Y-101400000D01*
X111200000Y-102100000D02*
X111300000Y-102200000D01*
X111300000Y-102200000D02*
X111600000Y-102500000D01*
X111300000Y-101400000D02*
X111300000Y-102200000D01*
X111200000Y-101500000D02*
X111200000Y-102100000D01*
X110900000Y-101800000D02*
X111200000Y-101500000D01*
X110900000Y-101800000D02*
X111200000Y-102100000D01*
D30*
X129250000Y-99500000D02*
X129867220Y-99500000D01*
X129867220Y-99500000D02*
X130104985Y-99262235D01*
D29*
X138300000Y-100300000D02*
X138100000Y-100500000D01*
X138100000Y-100500000D02*
X136465000Y-100500000D01*
X136465000Y-99230000D02*
X138060000Y-99230000D01*
X138060000Y-99230000D02*
X138300000Y-99470000D01*
X135550000Y-94500000D02*
X135200000Y-94500000D01*
X135200000Y-94500000D02*
X134800000Y-94100000D01*
X136465000Y-103040000D02*
X134740000Y-103040000D01*
X134740000Y-103040000D02*
X134700000Y-103000000D01*
X136465000Y-100500000D02*
X134700000Y-100500000D01*
X131600000Y-103700000D02*
X131600000Y-104250000D01*
X131600000Y-103150000D02*
X131600000Y-103700000D01*
X131600000Y-103700000D02*
X130600000Y-103700000D01*
X126625000Y-99750000D02*
X127600000Y-99750000D01*
X127600000Y-99750000D02*
X127800000Y-99550000D01*
D30*
X121550000Y-94800000D02*
X121550000Y-94953494D01*
X121550000Y-94953494D02*
X122199990Y-95603484D01*
X121200000Y-96000000D02*
X121200000Y-95150000D01*
X121200000Y-95150000D02*
X121550000Y-94800000D01*
D29*
X124350000Y-104700000D02*
X124650000Y-105000000D01*
X124000000Y-104350000D02*
X124350000Y-104700000D01*
X123500000Y-95150000D02*
X124150000Y-95150000D01*
X124150000Y-95150000D02*
X124200000Y-95200000D01*
D30*
X114050000Y-99000000D02*
X114800000Y-99000000D01*
X114800000Y-99000000D02*
X115100000Y-98700000D01*
X116250000Y-97050000D02*
X117050000Y-97050000D01*
D29*
X117050000Y-97050000D02*
X117100000Y-97000000D01*
X118750000Y-102850000D02*
X118489998Y-102850000D01*
X118489998Y-102850000D02*
X117918272Y-103421726D01*
X117918272Y-103421726D02*
X117918272Y-103618272D01*
X124000000Y-103875000D02*
X124000000Y-104350000D01*
X124650000Y-105000000D02*
X124790000Y-105000000D01*
X124790000Y-105000000D02*
X125300000Y-105000000D01*
X113000000Y-105520000D02*
X112220000Y-105520000D01*
X112220000Y-105520000D02*
X112200000Y-105500000D01*
X110175000Y-101800000D02*
X110900000Y-101800000D01*
X110175000Y-101800000D02*
X111600000Y-101800000D01*
D30*
X116050000Y-98500000D02*
X116050000Y-97250000D01*
D29*
X116050000Y-97250000D02*
X116250000Y-97050000D01*
D30*
X114650000Y-97450000D02*
X114650000Y-98400000D01*
X114650000Y-98400000D02*
X114050000Y-99000000D01*
X114650000Y-97450000D02*
X115850000Y-97450000D01*
D29*
X115850000Y-97450000D02*
X116250000Y-97050000D01*
X127750000Y-99650000D02*
X129100000Y-99650000D01*
X129100000Y-99650000D02*
X129250000Y-99500000D01*
X127650000Y-99750000D02*
X127750000Y-99650000D01*
X121000000Y-97125000D02*
X121000000Y-96200000D01*
X121000000Y-96200000D02*
X121200000Y-96000000D01*
X119875000Y-102750000D02*
X118850000Y-102750000D01*
X118850000Y-102750000D02*
X118750000Y-102850000D01*
X125500000Y-103875000D02*
X125500000Y-104800000D01*
X125500000Y-104800000D02*
X125300000Y-105000000D01*
X131600000Y-105150000D02*
X129850000Y-105150000D01*
X129850000Y-105150000D02*
X129250000Y-105750000D01*
X126625000Y-101250000D02*
X127036297Y-101250000D01*
X127036297Y-101250000D02*
X127749999Y-101963702D01*
X127749999Y-104549999D02*
X128950000Y-105750000D01*
X127749999Y-101963702D02*
X127749999Y-104549999D01*
X128950000Y-105750000D02*
X129250000Y-105750000D01*
X129250000Y-105750000D02*
X128903701Y-105750000D01*
X129000000Y-105750000D02*
X129250000Y-105750000D01*
X123500000Y-96050000D02*
X124402905Y-96050000D01*
X124402905Y-96050000D02*
X125327955Y-95124949D01*
X125327955Y-95124949D02*
X132593445Y-95124949D01*
X132593445Y-95124949D02*
X133558464Y-96089969D01*
X133558464Y-96089969D02*
X136010031Y-96089969D01*
X136010031Y-96089969D02*
X136450000Y-95650000D01*
X136450000Y-95650000D02*
X136450000Y-94500000D01*
X123500000Y-97125000D02*
X123500000Y-96050000D01*
X136450000Y-94500000D02*
X137550000Y-94500000D01*
X131600000Y-102250000D02*
X129850000Y-102250000D01*
X129850000Y-102250000D02*
X129250000Y-101650000D01*
X126625000Y-100750000D02*
X127101996Y-100750000D01*
X127101996Y-100750000D02*
X127311999Y-100960003D01*
X127311999Y-100960003D02*
X128560003Y-100960003D01*
X128560003Y-100960003D02*
X129250000Y-101650000D01*
X129250000Y-101650000D02*
X128950000Y-101650000D01*
X128550000Y-100950000D02*
X129250000Y-101650000D01*
X112450000Y-99000000D02*
X112450000Y-99700000D01*
X115239999Y-99800001D02*
X115540000Y-99500000D01*
X112450000Y-99700000D02*
X112550001Y-99800001D01*
X112550001Y-99800001D02*
X115239999Y-99800001D01*
X115540000Y-99500000D02*
X116050000Y-99500000D01*
D30*
X112350000Y-96500000D02*
X112350000Y-98900000D01*
D29*
X112350000Y-98900000D02*
X112450000Y-99000000D01*
D30*
X110175000Y-99200000D02*
X112250000Y-99200000D01*
D29*
X112250000Y-99200000D02*
X112450000Y-99000000D01*
X127149993Y-103833019D02*
X127200000Y-103883026D01*
X127200000Y-103883026D02*
X127200000Y-105146410D01*
X127200000Y-105146410D02*
X126236399Y-106110011D01*
X126236399Y-106110011D02*
X119898013Y-106110011D01*
X119898013Y-106110011D02*
X119335296Y-105547294D01*
X119335296Y-105547294D02*
X116920930Y-105547294D01*
X116920930Y-105547294D02*
X116917155Y-105543519D01*
X115776141Y-105900001D02*
X115119645Y-105243505D01*
X116917155Y-105543519D02*
X116560673Y-105900001D01*
X116560673Y-105900001D02*
X115776141Y-105900001D01*
X126625000Y-100250000D02*
X127489998Y-100250000D01*
X127489998Y-100250000D02*
X127600000Y-100360002D01*
X112200000Y-104600000D02*
X112650000Y-104600000D01*
X112650000Y-104600000D02*
X113000000Y-104250000D01*
X113000000Y-104250000D02*
X113006415Y-104250000D01*
X126625000Y-97750000D02*
X127350000Y-97750000D01*
X133410013Y-101927277D02*
X133410013Y-103489987D01*
X127350000Y-97750000D02*
X127975001Y-97124999D01*
X127975001Y-97124999D02*
X131765001Y-97124999D01*
X131765001Y-97124999D02*
X132650001Y-98009999D01*
X132650001Y-98009999D02*
X132650001Y-101167266D01*
X132650001Y-101167266D02*
X133410013Y-101927277D01*
X133410013Y-103489987D02*
X134320026Y-104400000D01*
X138200000Y-104400000D02*
X139560000Y-103040000D01*
X134320026Y-104400000D02*
X138200000Y-104400000D01*
X139560000Y-103040000D02*
X140535000Y-103040000D01*
X126000000Y-97125000D02*
X126000000Y-96800000D01*
X126000000Y-96800000D02*
X126075011Y-96724989D01*
X126075011Y-96724989D02*
X131930690Y-96724989D01*
X133050011Y-97844310D02*
X133050011Y-101001577D01*
X137810012Y-103999990D02*
X138839999Y-102970003D01*
X139510000Y-101770000D02*
X140535000Y-101770000D01*
X131930690Y-96724989D02*
X133050011Y-97844310D01*
X133050011Y-101001577D02*
X133810023Y-101761588D01*
X133810023Y-101761588D02*
X133810023Y-103324299D01*
X138839999Y-102440001D02*
X139510000Y-101770000D01*
X133810023Y-103324299D02*
X134485714Y-103999990D01*
X134485714Y-103999990D02*
X137810012Y-103999990D01*
X138839999Y-102970003D02*
X138839999Y-102440001D01*
X133061398Y-97289999D02*
X138389999Y-97289999D01*
X138389999Y-97289999D02*
X138399999Y-97299999D01*
X138399999Y-97299999D02*
X138849999Y-97299999D01*
X139510000Y-97960000D02*
X140535000Y-97960000D01*
X138849999Y-97299999D02*
X139510000Y-97960000D01*
X125500000Y-97125000D02*
X125500000Y-96659998D01*
X125835019Y-96324979D02*
X132096378Y-96324979D01*
X125500000Y-96659998D02*
X125835019Y-96324979D01*
X132096378Y-96324979D02*
X133061398Y-97289999D01*
X125000000Y-97125000D02*
X125000000Y-96584302D01*
X141769991Y-96889989D02*
X142230001Y-97349999D01*
X142230001Y-97349999D02*
X142230001Y-98559999D01*
X125000000Y-96584302D02*
X125659331Y-95924971D01*
X125659331Y-95924971D02*
X125669328Y-95924971D01*
X125669328Y-95924971D02*
X125669330Y-95924969D01*
X132262067Y-95924969D02*
X133227087Y-96889989D01*
X142230001Y-98559999D02*
X141560000Y-99230000D01*
X125669330Y-95924969D02*
X132262067Y-95924969D01*
X133227087Y-96889989D02*
X141769991Y-96889989D01*
X141560000Y-99230000D02*
X140535000Y-99230000D01*
X124500000Y-97125000D02*
X124500000Y-96518603D01*
X124500000Y-96518603D02*
X125493644Y-95524959D01*
X125493644Y-95524959D02*
X132427756Y-95524959D01*
X132427756Y-95524959D02*
X133392776Y-96489979D01*
X133392776Y-96489979D02*
X141935680Y-96489979D01*
X141935680Y-96489979D02*
X142630011Y-97184310D01*
X142630011Y-97184310D02*
X142630011Y-99429989D01*
X142630011Y-99429989D02*
X141560000Y-100500000D01*
X141560000Y-100500000D02*
X140535000Y-100500000D01*
X132000000Y-94724939D02*
X133041977Y-94724939D01*
X133041977Y-94724939D02*
X133158519Y-94841481D01*
X123000000Y-97125000D02*
X123000000Y-96650000D01*
X125224939Y-94724939D02*
X132000000Y-94724939D01*
X123000000Y-96650000D02*
X122800000Y-96450000D01*
X125039999Y-94539999D02*
X125224939Y-94724939D01*
X122800000Y-96450000D02*
X122800000Y-94689998D01*
X122800000Y-94689998D02*
X122949999Y-94539999D01*
X122949999Y-94539999D02*
X125039999Y-94539999D01*
X130649998Y-97725009D02*
X131525009Y-97725009D01*
X131525009Y-97725009D02*
X131850000Y-98050000D01*
X131850000Y-98050000D02*
X131850000Y-98550000D01*
X119875000Y-98250000D02*
X117200000Y-98250000D01*
X117200000Y-98250000D02*
X116950000Y-98500000D01*
X116950000Y-99500000D02*
X116950000Y-98500000D01*
X118850000Y-99200000D02*
X117900000Y-99200000D01*
X119875000Y-99750000D02*
X119400000Y-99750000D01*
X119400000Y-99750000D02*
X118850000Y-99200000D01*
X117300000Y-102500000D02*
X117500000Y-102300000D01*
X116950000Y-102500000D02*
X117300000Y-102500000D01*
X130646792Y-99850833D02*
X130646792Y-100275097D01*
X130646792Y-100275097D02*
X130925561Y-100553866D01*
X130925561Y-100553866D02*
X130925561Y-100865563D01*
X132304272Y-106604272D02*
X132610011Y-106298533D01*
X132610011Y-103170921D02*
X133010003Y-102770929D01*
X132610011Y-106298533D02*
X132610011Y-103170921D01*
X133010003Y-102770929D02*
X133010003Y-102092966D01*
X133010003Y-102092966D02*
X132017027Y-101099990D01*
X132017027Y-101099990D02*
X131159988Y-101099990D01*
X131159988Y-101099990D02*
X130925561Y-100865563D01*
X127130325Y-106630325D02*
X126850619Y-106910031D01*
X126850619Y-106910031D02*
X117924657Y-106910031D01*
X117924657Y-106910031D02*
X117814627Y-106800001D01*
X117814627Y-106800001D02*
X117161921Y-106147295D01*
X119875000Y-100250000D02*
X118979132Y-100250000D01*
X118979132Y-100250000D02*
X118606133Y-99877001D01*
X119100000Y-106200000D02*
X119410021Y-106510021D01*
X132210001Y-105700001D02*
X132210001Y-103005232D01*
X119410021Y-106510021D02*
X126402089Y-106510021D01*
X127749999Y-106349999D02*
X127749999Y-106940001D01*
X127809999Y-107000001D02*
X130910001Y-107000001D01*
X126402089Y-106510021D02*
X126912108Y-106000000D01*
X126912108Y-106000000D02*
X127400000Y-106000000D01*
X127400000Y-106000000D02*
X127749999Y-106349999D01*
X127749999Y-106940001D02*
X127809999Y-107000001D01*
X130910001Y-107000001D02*
X132210001Y-105700001D01*
X132210001Y-103005232D02*
X132410002Y-102805231D01*
X132410002Y-102805231D02*
X132410002Y-102380967D01*
X119875000Y-100750000D02*
X118500010Y-100750000D01*
X118500010Y-100750000D02*
X118400000Y-100649990D01*
X119875000Y-102250000D02*
X119396801Y-102250000D01*
X119396801Y-102250000D02*
X119386800Y-102239999D01*
X119386800Y-102239999D02*
X118199999Y-102239999D01*
X118199999Y-102239999D02*
X118100001Y-102339997D01*
X118100001Y-102588001D02*
X117314503Y-103373499D01*
X117314503Y-103373499D02*
X114663499Y-103373499D01*
X114663499Y-103373499D02*
X114270000Y-102980000D01*
X118100001Y-102339997D02*
X118100001Y-102588001D01*
X120500000Y-103875000D02*
X120150000Y-103875000D01*
X120150000Y-103875000D02*
X119381501Y-104643499D01*
X119381501Y-104643499D02*
X114663499Y-104643499D01*
X114663499Y-104643499D02*
X114270000Y-104250000D01*
X116050000Y-100500000D02*
X115540000Y-100500000D01*
X115540000Y-100500000D02*
X115240011Y-100200011D01*
X115240011Y-100200011D02*
X112153711Y-100200011D01*
X112153711Y-100200011D02*
X111803700Y-99850000D01*
X111803700Y-99850000D02*
X111050000Y-99850000D01*
X111050000Y-99850000D02*
X110175000Y-99850000D01*
X116050000Y-101500000D02*
X116050000Y-101350000D01*
X115499999Y-101110001D02*
X114990019Y-100600021D01*
X111050000Y-100500000D02*
X110175000Y-100500000D01*
X116050000Y-101350000D02*
X115810001Y-101110001D01*
X115810001Y-101110001D02*
X115499999Y-101110001D01*
X111988023Y-100600021D02*
X111888001Y-100499999D01*
X114990019Y-100600021D02*
X111988023Y-100600021D01*
X111888001Y-100499999D02*
X111050000Y-100500000D01*
X116050000Y-101500000D02*
X116050000Y-102500000D01*
X138400000Y-97900000D02*
X136525000Y-97900000D01*
X136525000Y-97900000D02*
X136465000Y-97960000D01*
X138450000Y-94500000D02*
X139700000Y-94500000D01*
D30*
X136465000Y-97960000D02*
X134870000Y-97960000D01*
X134150000Y-99000000D02*
X134150000Y-99500000D01*
X134150000Y-98680000D02*
X134150000Y-99000000D01*
X134870000Y-97960000D02*
X134150000Y-98680000D01*
D29*
X138450000Y-94500000D02*
X138650002Y-94500000D01*
X119875000Y-101250000D02*
X117903701Y-101250000D01*
X117903701Y-101250000D02*
X117453701Y-100800000D01*
X117453701Y-100800000D02*
X117250000Y-100800000D01*
X117250000Y-100800000D02*
X116950000Y-100500000D01*
X119875000Y-101750000D02*
X117838002Y-101750000D01*
X117838002Y-101750000D02*
X117588002Y-101500000D01*
X117588002Y-101500000D02*
X117460000Y-101500000D01*
X117460000Y-101500000D02*
X116950000Y-101500000D01*
X119875000Y-118250000D02*
X119400000Y-118250000D01*
X119300000Y-118710000D02*
X119260000Y-118750000D01*
X119400000Y-118250000D02*
X119300000Y-118350000D01*
X119300000Y-118350000D02*
X119300000Y-118710000D01*
X119260000Y-118750000D02*
X118750000Y-118750000D01*
D30*
X130900000Y-113900000D02*
X130688224Y-113688224D01*
X131850000Y-114850000D02*
X130900000Y-113900000D01*
X130688224Y-113611776D02*
X130300000Y-113611776D01*
X130300000Y-113611776D02*
X129961776Y-113611776D01*
X130900000Y-113900000D02*
X130662002Y-113900000D01*
X130662002Y-113900000D02*
X130373778Y-113611776D01*
X130373778Y-113611776D02*
X130300000Y-113611776D01*
X131850000Y-115450000D02*
X131850000Y-114850000D01*
X130688224Y-113688224D02*
X130688224Y-113611776D01*
X126049999Y-120660001D02*
X122500000Y-120660001D01*
X122500000Y-120660001D02*
X120084413Y-120660001D01*
D31*
X122500000Y-118875000D02*
X122500000Y-120660001D01*
D30*
X126200000Y-120510000D02*
X126049999Y-120660001D01*
X116524264Y-120300000D02*
X116100000Y-120300000D01*
X120084413Y-120660001D02*
X119517920Y-120093508D01*
X119517920Y-120093508D02*
X116730756Y-120093508D01*
X116730756Y-120093508D02*
X116524264Y-120300000D01*
D29*
X127800000Y-113650000D02*
X127290000Y-113650000D01*
X127200001Y-113739999D02*
X127200001Y-114149999D01*
X127290000Y-113650000D02*
X127200001Y-113739999D01*
X127200001Y-114149999D02*
X127100000Y-114250000D01*
X127100000Y-114250000D02*
X126625000Y-114250000D01*
D30*
X129961776Y-113611776D02*
X129250000Y-112900000D01*
X128200000Y-112800000D02*
X129150000Y-112800000D01*
X129150000Y-112800000D02*
X129250000Y-112900000D01*
X119950000Y-109800000D02*
X119950000Y-109775000D01*
X119950000Y-109775000D02*
X120785011Y-108939989D01*
X120785011Y-108939989D02*
X127800000Y-108939989D01*
X116250000Y-110450000D02*
X119300000Y-110450000D01*
X119300000Y-110450000D02*
X119950000Y-109800000D01*
X120300000Y-111000000D02*
X120300000Y-110150000D01*
X120300000Y-110150000D02*
X119950000Y-109800000D01*
X114650000Y-110550000D02*
X114450000Y-110550000D01*
X114450000Y-110550000D02*
X113291735Y-111708265D01*
X113291735Y-111708265D02*
X113291735Y-113087978D01*
D29*
X126549992Y-118675008D02*
X126549992Y-118325008D01*
X126549992Y-118325008D02*
X126625000Y-118250000D01*
X126000000Y-118875000D02*
X126350000Y-118875000D01*
X126350000Y-118875000D02*
X126549992Y-118675008D01*
D30*
X126200000Y-120000000D02*
X126200000Y-120510000D01*
X126200000Y-120510000D02*
X126099999Y-120610001D01*
D29*
X118281727Y-119218273D02*
X115364414Y-119218273D01*
X115364414Y-119218273D02*
X115119645Y-118973504D01*
X118750000Y-118750000D02*
X118281727Y-119218273D01*
X112100000Y-118200000D02*
X112780000Y-118200000D01*
X112780000Y-118200000D02*
X113000000Y-117980000D01*
D30*
X114650000Y-110550000D02*
X116150000Y-110550000D01*
D29*
X116150000Y-110550000D02*
X116250000Y-110450000D01*
X127750000Y-113750000D02*
X128400000Y-113750000D01*
X128400000Y-113750000D02*
X129250000Y-112900000D01*
X127600000Y-113750000D02*
X127750000Y-113750000D01*
X120500000Y-112125000D02*
X120500000Y-111200000D01*
X120500000Y-111200000D02*
X120300000Y-111000000D01*
X126000000Y-118875000D02*
X126000000Y-119800000D01*
X126000000Y-119800000D02*
X126200000Y-120000000D01*
X138300000Y-114900000D02*
X138300000Y-115300000D01*
X138300000Y-114470000D02*
X138300000Y-114900000D01*
X113000000Y-120520000D02*
X113009660Y-120520000D01*
X113009660Y-120520000D02*
X113594458Y-121104798D01*
X111300000Y-116400000D02*
X111600000Y-116100000D01*
X111200000Y-116500000D02*
X111300000Y-116400000D01*
X111200000Y-117100000D02*
X111300000Y-117200000D01*
X111300000Y-117200000D02*
X111600000Y-117500000D01*
X111300000Y-116400000D02*
X111300000Y-117200000D01*
X111200000Y-116500000D02*
X111200000Y-117100000D01*
X110900000Y-116800000D02*
X111200000Y-116500000D01*
X110900000Y-116800000D02*
X111200000Y-117100000D01*
D30*
X129250000Y-114500000D02*
X129867220Y-114500000D01*
X129867220Y-114500000D02*
X130104985Y-114262235D01*
D29*
X138300000Y-115300000D02*
X138100000Y-115500000D01*
X138100000Y-115500000D02*
X136465000Y-115500000D01*
X136465000Y-114230000D02*
X138060000Y-114230000D01*
X138060000Y-114230000D02*
X138300000Y-114470000D01*
X135550000Y-109500000D02*
X135200000Y-109500000D01*
X135200000Y-109500000D02*
X134800000Y-109100000D01*
X136465000Y-118040000D02*
X134740000Y-118040000D01*
X134740000Y-118040000D02*
X134700000Y-118000000D01*
X136465000Y-115500000D02*
X134700000Y-115500000D01*
X131600000Y-118700000D02*
X131600000Y-119250000D01*
X131600000Y-118150000D02*
X131600000Y-118700000D01*
X131600000Y-118700000D02*
X130600000Y-118700000D01*
X126625000Y-114750000D02*
X127600000Y-114750000D01*
X127600000Y-114750000D02*
X127800000Y-114550000D01*
D30*
X121550000Y-109800000D02*
X121550000Y-109953494D01*
X121550000Y-109953494D02*
X122199990Y-110603484D01*
X121200000Y-111000000D02*
X121200000Y-110150000D01*
X121200000Y-110150000D02*
X121550000Y-109800000D01*
D29*
X124350000Y-119700000D02*
X124650000Y-120000000D01*
X124000000Y-119350000D02*
X124350000Y-119700000D01*
X123500000Y-110150000D02*
X124150000Y-110150000D01*
X124150000Y-110150000D02*
X124200000Y-110200000D01*
D30*
X114050000Y-114000000D02*
X114800000Y-114000000D01*
X114800000Y-114000000D02*
X115100000Y-113700000D01*
X116250000Y-112050000D02*
X117050000Y-112050000D01*
D29*
X117050000Y-112050000D02*
X117100000Y-112000000D01*
X118750000Y-117850000D02*
X118489998Y-117850000D01*
X118489998Y-117850000D02*
X117918272Y-118421726D01*
X117918272Y-118421726D02*
X117918272Y-118618272D01*
X124000000Y-118875000D02*
X124000000Y-119350000D01*
X124650000Y-120000000D02*
X124790000Y-120000000D01*
X124790000Y-120000000D02*
X125300000Y-120000000D01*
X113000000Y-120520000D02*
X112220000Y-120520000D01*
X112220000Y-120520000D02*
X112200000Y-120500000D01*
X110175000Y-116800000D02*
X110900000Y-116800000D01*
X110175000Y-116800000D02*
X111600000Y-116800000D01*
D30*
X116050000Y-113500000D02*
X116050000Y-112250000D01*
D29*
X116050000Y-112250000D02*
X116250000Y-112050000D01*
D30*
X114650000Y-112450000D02*
X114650000Y-113400000D01*
X114650000Y-113400000D02*
X114050000Y-114000000D01*
X114650000Y-112450000D02*
X115850000Y-112450000D01*
D29*
X115850000Y-112450000D02*
X116250000Y-112050000D01*
X127750000Y-114650000D02*
X129100000Y-114650000D01*
X129100000Y-114650000D02*
X129250000Y-114500000D01*
X127650000Y-114750000D02*
X127750000Y-114650000D01*
X121000000Y-112125000D02*
X121000000Y-111200000D01*
X121000000Y-111200000D02*
X121200000Y-111000000D01*
X119875000Y-117750000D02*
X118850000Y-117750000D01*
X118850000Y-117750000D02*
X118750000Y-117850000D01*
X125500000Y-118875000D02*
X125500000Y-119800000D01*
X125500000Y-119800000D02*
X125300000Y-120000000D01*
X131600000Y-120150000D02*
X129850000Y-120150000D01*
X129850000Y-120150000D02*
X129250000Y-120750000D01*
X126625000Y-116250000D02*
X127036297Y-116250000D01*
X127036297Y-116250000D02*
X127749999Y-116963702D01*
X127749999Y-119549999D02*
X128950000Y-120750000D01*
X127749999Y-116963702D02*
X127749999Y-119549999D01*
X128950000Y-120750000D02*
X129250000Y-120750000D01*
X129250000Y-120750000D02*
X128903701Y-120750000D01*
X129000000Y-120750000D02*
X129250000Y-120750000D01*
X123500000Y-111050000D02*
X124402905Y-111050000D01*
X124402905Y-111050000D02*
X125327955Y-110124949D01*
X125327955Y-110124949D02*
X132593445Y-110124949D01*
X132593445Y-110124949D02*
X133558464Y-111089969D01*
X133558464Y-111089969D02*
X136010031Y-111089969D01*
X136010031Y-111089969D02*
X136450000Y-110650000D01*
X136450000Y-110650000D02*
X136450000Y-109500000D01*
X123500000Y-112125000D02*
X123500000Y-111050000D01*
X136450000Y-109500000D02*
X137550000Y-109500000D01*
X131600000Y-117250000D02*
X129850000Y-117250000D01*
X129850000Y-117250000D02*
X129250000Y-116650000D01*
X126625000Y-115750000D02*
X127101996Y-115750000D01*
X127101996Y-115750000D02*
X127311999Y-115960003D01*
X127311999Y-115960003D02*
X128560003Y-115960003D01*
X128560003Y-115960003D02*
X129250000Y-116650000D01*
X129250000Y-116650000D02*
X128950000Y-116650000D01*
X128550000Y-115950000D02*
X129250000Y-116650000D01*
X112450000Y-114000000D02*
X112450000Y-114700000D01*
X115239999Y-114800001D02*
X115540000Y-114500000D01*
X112450000Y-114700000D02*
X112550001Y-114800001D01*
X112550001Y-114800001D02*
X115239999Y-114800001D01*
X115540000Y-114500000D02*
X116050000Y-114500000D01*
D30*
X112350000Y-111500000D02*
X112350000Y-113900000D01*
D29*
X112350000Y-113900000D02*
X112450000Y-114000000D01*
D30*
X110175000Y-114200000D02*
X112250000Y-114200000D01*
D29*
X112250000Y-114200000D02*
X112450000Y-114000000D01*
X127149993Y-118833019D02*
X127200000Y-118883026D01*
X127200000Y-118883026D02*
X127200000Y-120146410D01*
X127200000Y-120146410D02*
X126236399Y-121110011D01*
X126236399Y-121110011D02*
X119898013Y-121110011D01*
X119898013Y-121110011D02*
X119335296Y-120547294D01*
X119335296Y-120547294D02*
X116920930Y-120547294D01*
X116920930Y-120547294D02*
X116917155Y-120543519D01*
X115776141Y-120900001D02*
X115119645Y-120243505D01*
X116917155Y-120543519D02*
X116560673Y-120900001D01*
X116560673Y-120900001D02*
X115776141Y-120900001D01*
X126625000Y-115250000D02*
X127489998Y-115250000D01*
X127489998Y-115250000D02*
X127600000Y-115360002D01*
X112200000Y-119600000D02*
X112650000Y-119600000D01*
X112650000Y-119600000D02*
X113000000Y-119250000D01*
X113000000Y-119250000D02*
X113006415Y-119250000D01*
X126625000Y-112750000D02*
X127350000Y-112750000D01*
X133410013Y-116927277D02*
X133410013Y-118489987D01*
X127350000Y-112750000D02*
X127975001Y-112124999D01*
X127975001Y-112124999D02*
X131765001Y-112124999D01*
X131765001Y-112124999D02*
X132650001Y-113009999D01*
X132650001Y-113009999D02*
X132650001Y-116167266D01*
X132650001Y-116167266D02*
X133410013Y-116927277D01*
X133410013Y-118489987D02*
X134320026Y-119400000D01*
X138200000Y-119400000D02*
X139560000Y-118040000D01*
X134320026Y-119400000D02*
X138200000Y-119400000D01*
X139560000Y-118040000D02*
X140535000Y-118040000D01*
X126000000Y-112125000D02*
X126000000Y-111800000D01*
X126000000Y-111800000D02*
X126075011Y-111724989D01*
X126075011Y-111724989D02*
X131930690Y-111724989D01*
X133050011Y-112844310D02*
X133050011Y-116001577D01*
X137810012Y-118999990D02*
X138839999Y-117970003D01*
X139510000Y-116770000D02*
X140535000Y-116770000D01*
X131930690Y-111724989D02*
X133050011Y-112844310D01*
X133050011Y-116001577D02*
X133810023Y-116761588D01*
X133810023Y-116761588D02*
X133810023Y-118324299D01*
X138839999Y-117440001D02*
X139510000Y-116770000D01*
X133810023Y-118324299D02*
X134485714Y-118999990D01*
X134485714Y-118999990D02*
X137810012Y-118999990D01*
X138839999Y-117970003D02*
X138839999Y-117440001D01*
X133061398Y-112289999D02*
X138389999Y-112289999D01*
X138389999Y-112289999D02*
X138399999Y-112299999D01*
X138399999Y-112299999D02*
X138849999Y-112299999D01*
X139510000Y-112960000D02*
X140535000Y-112960000D01*
X138849999Y-112299999D02*
X139510000Y-112960000D01*
X125500000Y-112125000D02*
X125500000Y-111659998D01*
X125835019Y-111324979D02*
X132096378Y-111324979D01*
X125500000Y-111659998D02*
X125835019Y-111324979D01*
X132096378Y-111324979D02*
X133061398Y-112289999D01*
X125000000Y-112125000D02*
X125000000Y-111584302D01*
X141769991Y-111889989D02*
X142230001Y-112349999D01*
X142230001Y-112349999D02*
X142230001Y-113559999D01*
X125000000Y-111584302D02*
X125659331Y-110924971D01*
X125659331Y-110924971D02*
X125669328Y-110924971D01*
X125669328Y-110924971D02*
X125669330Y-110924969D01*
X132262067Y-110924969D02*
X133227087Y-111889989D01*
X142230001Y-113559999D02*
X141560000Y-114230000D01*
X125669330Y-110924969D02*
X132262067Y-110924969D01*
X133227087Y-111889989D02*
X141769991Y-111889989D01*
X141560000Y-114230000D02*
X140535000Y-114230000D01*
X124500000Y-112125000D02*
X124500000Y-111518603D01*
X124500000Y-111518603D02*
X125493644Y-110524959D01*
X125493644Y-110524959D02*
X132427756Y-110524959D01*
X132427756Y-110524959D02*
X133392776Y-111489979D01*
X133392776Y-111489979D02*
X141935680Y-111489979D01*
X141935680Y-111489979D02*
X142630011Y-112184310D01*
X142630011Y-112184310D02*
X142630011Y-114429989D01*
X142630011Y-114429989D02*
X141560000Y-115500000D01*
X141560000Y-115500000D02*
X140535000Y-115500000D01*
X132000000Y-109724939D02*
X133041977Y-109724939D01*
X133041977Y-109724939D02*
X133158519Y-109841481D01*
X123000000Y-112125000D02*
X123000000Y-111650000D01*
X125224939Y-109724939D02*
X132000000Y-109724939D01*
X123000000Y-111650000D02*
X122800000Y-111450000D01*
X125039999Y-109539999D02*
X125224939Y-109724939D01*
X122800000Y-111450000D02*
X122800000Y-109689998D01*
X122800000Y-109689998D02*
X122949999Y-109539999D01*
X122949999Y-109539999D02*
X125039999Y-109539999D01*
X130649998Y-112725009D02*
X131525009Y-112725009D01*
X131525009Y-112725009D02*
X131850000Y-113050000D01*
X131850000Y-113050000D02*
X131850000Y-113550000D01*
X119875000Y-113250000D02*
X117200000Y-113250000D01*
X117200000Y-113250000D02*
X116950000Y-113500000D01*
X116950000Y-114500000D02*
X116950000Y-113500000D01*
X118850000Y-114200000D02*
X117900000Y-114200000D01*
X119875000Y-114750000D02*
X119400000Y-114750000D01*
X119400000Y-114750000D02*
X118850000Y-114200000D01*
X117300000Y-117500000D02*
X117500000Y-117300000D01*
X116950000Y-117500000D02*
X117300000Y-117500000D01*
X130646792Y-114850833D02*
X130646792Y-115275097D01*
X130646792Y-115275097D02*
X130925561Y-115553866D01*
X130925561Y-115553866D02*
X130925561Y-115865563D01*
X132304272Y-121604272D02*
X132610011Y-121298533D01*
X132610011Y-118170921D02*
X133010003Y-117770929D01*
X132610011Y-121298533D02*
X132610011Y-118170921D01*
X133010003Y-117770929D02*
X133010003Y-117092966D01*
X133010003Y-117092966D02*
X132017027Y-116099990D01*
X132017027Y-116099990D02*
X131159988Y-116099990D01*
X131159988Y-116099990D02*
X130925561Y-115865563D01*
X127130325Y-121630325D02*
X126850619Y-121910031D01*
X126850619Y-121910031D02*
X117924657Y-121910031D01*
X117924657Y-121910031D02*
X117814627Y-121800001D01*
X117814627Y-121800001D02*
X117161921Y-121147295D01*
X119875000Y-115250000D02*
X118979132Y-115250000D01*
X118979132Y-115250000D02*
X118606133Y-114877001D01*
X119100000Y-121200000D02*
X119410021Y-121510021D01*
X132210001Y-120700001D02*
X132210001Y-118005232D01*
X119410021Y-121510021D02*
X126402089Y-121510021D01*
X127749999Y-121349999D02*
X127749999Y-121940001D01*
X127809999Y-122000001D02*
X130910001Y-122000001D01*
X126402089Y-121510021D02*
X126912108Y-121000000D01*
X126912108Y-121000000D02*
X127400000Y-121000000D01*
X127400000Y-121000000D02*
X127749999Y-121349999D01*
X127749999Y-121940001D02*
X127809999Y-122000001D01*
X130910001Y-122000001D02*
X132210001Y-120700001D01*
X132210001Y-118005232D02*
X132410002Y-117805231D01*
X132410002Y-117805231D02*
X132410002Y-117380967D01*
X119875000Y-115750000D02*
X118500010Y-115750000D01*
X118500010Y-115750000D02*
X118400000Y-115649990D01*
X119875000Y-117250000D02*
X119396801Y-117250000D01*
X119396801Y-117250000D02*
X119386800Y-117239999D01*
X119386800Y-117239999D02*
X118199999Y-117239999D01*
X118199999Y-117239999D02*
X118100001Y-117339997D01*
X118100001Y-117588001D02*
X117314503Y-118373499D01*
X117314503Y-118373499D02*
X114663499Y-118373499D01*
X114663499Y-118373499D02*
X114270000Y-117980000D01*
X118100001Y-117339997D02*
X118100001Y-117588001D01*
X120500000Y-118875000D02*
X120150000Y-118875000D01*
X120150000Y-118875000D02*
X119381501Y-119643499D01*
X119381501Y-119643499D02*
X114663499Y-119643499D01*
X114663499Y-119643499D02*
X114270000Y-119250000D01*
X116050000Y-115500000D02*
X115540000Y-115500000D01*
X115540000Y-115500000D02*
X115240011Y-115200011D01*
X115240011Y-115200011D02*
X112153711Y-115200011D01*
X112153711Y-115200011D02*
X111803700Y-114850000D01*
X111803700Y-114850000D02*
X111050000Y-114850000D01*
X111050000Y-114850000D02*
X110175000Y-114850000D01*
X116050000Y-116500000D02*
X116050000Y-116350000D01*
X115499999Y-116110001D02*
X114990019Y-115600021D01*
X111050000Y-115500000D02*
X110175000Y-115500000D01*
X116050000Y-116350000D02*
X115810001Y-116110001D01*
X115810001Y-116110001D02*
X115499999Y-116110001D01*
X111988023Y-115600021D02*
X111888001Y-115499999D01*
X114990019Y-115600021D02*
X111988023Y-115600021D01*
X111888001Y-115499999D02*
X111050000Y-115500000D01*
X116050000Y-116500000D02*
X116050000Y-117500000D01*
X138400000Y-112900000D02*
X136525000Y-112900000D01*
X136525000Y-112900000D02*
X136465000Y-112960000D01*
X138450000Y-109500000D02*
X139700000Y-109500000D01*
D30*
X136465000Y-112960000D02*
X134870000Y-112960000D01*
X134150000Y-114000000D02*
X134150000Y-114500000D01*
X134150000Y-113680000D02*
X134150000Y-114000000D01*
X134870000Y-112960000D02*
X134150000Y-113680000D01*
D29*
X138450000Y-109500000D02*
X138650002Y-109500000D01*
X119875000Y-116250000D02*
X117903701Y-116250000D01*
X117903701Y-116250000D02*
X117453701Y-115800000D01*
X117453701Y-115800000D02*
X117250000Y-115800000D01*
X117250000Y-115800000D02*
X116950000Y-115500000D01*
X119875000Y-116750000D02*
X117838002Y-116750000D01*
X117838002Y-116750000D02*
X117588002Y-116500000D01*
X117588002Y-116500000D02*
X117460000Y-116500000D01*
X117460000Y-116500000D02*
X116950000Y-116500000D01*
M02*
