G04 #@! TF.FileFunction,Profile,NP*
%FSLAX46Y46*%
G04 Gerber Fmt 4.6, Leading zero omitted, Abs format (unit mm)*
G04 Created by KiCad (PCBNEW 0.201512311516+6410~40~ubuntu14.04.1-stable) date Sun 03 Jan 2016 05:14:07 GMT*
%MOMM*%
G01*
G04 APERTURE LIST*
%ADD10C,0.100000*%
%ADD11C,0.150000*%
G04 APERTURE END LIST*
D10*
D11*
X129500000Y-107500000D02*
X118000000Y-107500000D01*
X129500000Y-108500000D02*
X129500000Y-107500000D01*
X118000000Y-108500000D02*
X129500000Y-108500000D01*
X118000000Y-107500000D02*
X118000000Y-108500000D01*
X129500000Y-92500000D02*
X118000000Y-92500000D01*
X129500000Y-93500000D02*
X129500000Y-92500000D01*
X118000000Y-93500000D02*
X129500000Y-93500000D01*
X118000000Y-92500000D02*
X118000000Y-93500000D01*
X131500000Y-107500000D02*
X131500000Y-108500000D01*
X131500000Y-92500000D02*
X131500000Y-93500000D01*
X116000000Y-92500000D02*
X116000000Y-93500000D01*
X116000000Y-107500000D02*
X116000000Y-108500000D01*
X142000000Y-108500000D02*
X131500000Y-108500000D01*
X131500000Y-93500000D02*
X142000000Y-93500000D01*
X142000000Y-107500000D02*
X131500000Y-107500000D01*
X142000000Y-92500000D02*
X131500000Y-92500000D01*
X107000000Y-108500000D02*
X116000000Y-108500000D01*
X107000000Y-107500000D02*
X116000000Y-107500000D01*
X107000000Y-93500000D02*
X116000000Y-93500000D01*
X107000000Y-92500000D02*
X116000000Y-92500000D01*
X107000000Y-78500000D02*
G75*
G03X106000000Y-79500000I0J-1000000D01*
G01*
X106000000Y-91500000D02*
G75*
G03X107000000Y-92500000I1000000J0D01*
G01*
X142000000Y-92500000D02*
G75*
G03X143000000Y-91500000I0J1000000D01*
G01*
X143000000Y-79500000D02*
G75*
G03X142000000Y-78500000I-1000000J0D01*
G01*
X106000000Y-91500000D02*
X106000000Y-79500000D01*
X143000000Y-79500000D02*
X143000000Y-91500000D01*
X107000000Y-78500000D02*
X142000000Y-78500000D01*
X107000000Y-93500000D02*
G75*
G03X106000000Y-94500000I0J-1000000D01*
G01*
X106000000Y-106500000D02*
G75*
G03X107000000Y-107500000I1000000J0D01*
G01*
X142000000Y-107500000D02*
G75*
G03X143000000Y-106500000I0J1000000D01*
G01*
X143000000Y-94500000D02*
G75*
G03X142000000Y-93500000I-1000000J0D01*
G01*
X106000000Y-106500000D02*
X106000000Y-94500000D01*
X143000000Y-94500000D02*
X143000000Y-106500000D01*
X107000000Y-108500000D02*
G75*
G03X106000000Y-109500000I0J-1000000D01*
G01*
X106000000Y-121500000D02*
G75*
G03X107000000Y-122500000I1000000J0D01*
G01*
X142000000Y-122500000D02*
G75*
G03X143000000Y-121500000I0J1000000D01*
G01*
X143000000Y-109500000D02*
G75*
G03X142000000Y-108500000I-1000000J0D01*
G01*
X106000000Y-121500000D02*
X106000000Y-109500000D01*
X142000000Y-122500000D02*
X107000000Y-122500000D01*
X143000000Y-109500000D02*
X143000000Y-121500000D01*
M02*
