G04 #@! TF.FileFunction,Copper,L2,Bot,Signal*
%FSLAX46Y46*%
G04 Gerber Fmt 4.6, Leading zero omitted, Abs format (unit mm)*
G04 Created by KiCad (PCBNEW 0.201512311516+6410~40~ubuntu14.04.1-stable) date Sun 03 Jan 2016 05:14:07 GMT*
%MOMM*%
G01*
G04 APERTURE LIST*
%ADD10C,0.100000*%
%ADD11C,0.600000*%
%ADD12C,1.000000*%
%ADD13R,1.900000X2.440000*%
%ADD14R,3.800000X1.800000*%
%ADD15R,3.000000X1.000000*%
%ADD16C,0.700000*%
%ADD17C,0.300000*%
%ADD18C,0.200000*%
G04 APERTURE END LIST*
D10*
D11*
X125750000Y-88000000D03*
X125750000Y-85500000D03*
X125750000Y-83000000D03*
X123250000Y-88000000D03*
X123250000Y-85500000D03*
X123250000Y-83000000D03*
X120750000Y-88000000D03*
X120750000Y-85500000D03*
X120750000Y-83000000D03*
D12*
X110500000Y-83275000D03*
X110500000Y-87725000D03*
D13*
X107320000Y-89340000D03*
X107320000Y-81660000D03*
D14*
X137250000Y-80150000D03*
X137250000Y-90850000D03*
D15*
X132650000Y-82500000D03*
X132650000Y-84500000D03*
X132650000Y-86500000D03*
X132650000Y-88500000D03*
D11*
X125750000Y-103000000D03*
X125750000Y-100500000D03*
X125750000Y-98000000D03*
X123250000Y-103000000D03*
X123250000Y-100500000D03*
X123250000Y-98000000D03*
X120750000Y-103000000D03*
X120750000Y-100500000D03*
X120750000Y-98000000D03*
D12*
X110500000Y-98275000D03*
X110500000Y-102725000D03*
D13*
X107320000Y-104340000D03*
X107320000Y-96660000D03*
D14*
X137250000Y-95150000D03*
X137250000Y-105850000D03*
D15*
X132650000Y-97500000D03*
X132650000Y-99500000D03*
X132650000Y-101500000D03*
X132650000Y-103500000D03*
D11*
X125750000Y-118000000D03*
X125750000Y-115500000D03*
X125750000Y-113000000D03*
X123250000Y-118000000D03*
X123250000Y-115500000D03*
X123250000Y-113000000D03*
X120750000Y-118000000D03*
X120750000Y-115500000D03*
X120750000Y-113000000D03*
D12*
X110500000Y-113275000D03*
X110500000Y-117725000D03*
D13*
X107320000Y-119340000D03*
X107320000Y-111660000D03*
D14*
X137250000Y-110150000D03*
X137250000Y-120850000D03*
D15*
X132650000Y-112500000D03*
X132650000Y-114500000D03*
X132650000Y-116500000D03*
X132650000Y-118500000D03*
D16*
X131000000Y-108000000D03*
X130000000Y-108000000D03*
X117500000Y-108000000D03*
X116500000Y-108000000D03*
X131000000Y-93000000D03*
X130000000Y-93000000D03*
X117500000Y-93000000D03*
X116500000Y-93000000D03*
D11*
X130688224Y-83611776D03*
X128200000Y-82800000D03*
X127800000Y-78939989D03*
X113291735Y-83087978D03*
X116100000Y-90300000D03*
X115119645Y-88973504D03*
X112100000Y-88200000D03*
X138300000Y-84900000D03*
X113594458Y-91104798D03*
X130104985Y-84262235D03*
X134800000Y-79100000D03*
X134700000Y-88000000D03*
X134700000Y-85500000D03*
X130600000Y-88700000D03*
X122199990Y-80603484D03*
X124350000Y-89700000D03*
X124200000Y-80200000D03*
X115100000Y-83700000D03*
X117100000Y-82000000D03*
X117918272Y-88618272D03*
X112200000Y-90500000D03*
X111600000Y-87500000D03*
X111600000Y-86100000D03*
X111600000Y-86800000D03*
X127600000Y-85360002D03*
X115119645Y-90243505D03*
X127149993Y-88833019D03*
X112200000Y-89600000D03*
X133158519Y-79841481D03*
X130649998Y-82725009D03*
X117900000Y-84200000D03*
X117500000Y-87300000D03*
X130646792Y-84850833D03*
X132304272Y-91604272D03*
X127130325Y-91630325D03*
X117161921Y-91147295D03*
X118606133Y-84877001D03*
X132410002Y-87380967D03*
X119100000Y-91200000D03*
X118400000Y-85649990D03*
X138400000Y-82900000D03*
X139700000Y-79500000D03*
X130688224Y-98611776D03*
X128200000Y-97800000D03*
X127800000Y-93939989D03*
X113291735Y-98087978D03*
X116100000Y-105300000D03*
X115119645Y-103973504D03*
X112100000Y-103200000D03*
X138300000Y-99900000D03*
X113594458Y-106104798D03*
X130104985Y-99262235D03*
X134800000Y-94100000D03*
X134700000Y-103000000D03*
X134700000Y-100500000D03*
X130600000Y-103700000D03*
X122199990Y-95603484D03*
X124350000Y-104700000D03*
X124200000Y-95200000D03*
X115100000Y-98700000D03*
X117100000Y-97000000D03*
X117918272Y-103618272D03*
X112200000Y-105500000D03*
X111600000Y-102500000D03*
X111600000Y-101100000D03*
X111600000Y-101800000D03*
X127600000Y-100360002D03*
X115119645Y-105243505D03*
X127149993Y-103833019D03*
X112200000Y-104600000D03*
X133158519Y-94841481D03*
X130649998Y-97725009D03*
X117900000Y-99200000D03*
X117500000Y-102300000D03*
X130646792Y-99850833D03*
X132304272Y-106604272D03*
X127130325Y-106630325D03*
X117161921Y-106147295D03*
X118606133Y-99877001D03*
X132410002Y-102380967D03*
X119100000Y-106200000D03*
X118400000Y-100649990D03*
X138400000Y-97900000D03*
X139700000Y-94500000D03*
X130688224Y-113611776D03*
X128200000Y-112800000D03*
X127800000Y-108939989D03*
X113291735Y-113087978D03*
X116100000Y-120300000D03*
X115119645Y-118973504D03*
X112100000Y-118200000D03*
X138300000Y-114900000D03*
X113594458Y-121104798D03*
X130104985Y-114262235D03*
X134800000Y-109100000D03*
X134700000Y-118000000D03*
X134700000Y-115500000D03*
X130600000Y-118700000D03*
X122199990Y-110603484D03*
X124350000Y-119700000D03*
X124200000Y-110200000D03*
X115100000Y-113700000D03*
X117100000Y-112000000D03*
X117918272Y-118618272D03*
X112200000Y-120500000D03*
X111600000Y-117500000D03*
X111600000Y-116100000D03*
X111600000Y-116800000D03*
X127600000Y-115360002D03*
X115119645Y-120243505D03*
X127149993Y-118833019D03*
X112200000Y-119600000D03*
X133158519Y-109841481D03*
X130649998Y-112725009D03*
X117900000Y-114200000D03*
X117500000Y-117300000D03*
X130646792Y-114850833D03*
X132304272Y-121604272D03*
X127130325Y-121630325D03*
X117161921Y-121147295D03*
X118606133Y-114877001D03*
X132410002Y-117380967D03*
X119100000Y-121200000D03*
X118400000Y-115649990D03*
X138400000Y-112900000D03*
X139700000Y-109500000D03*
D17*
X131800000Y-82500000D02*
X130688224Y-83611776D01*
X127800000Y-78939989D02*
X127800000Y-82400000D01*
X127800000Y-82400000D02*
X128200000Y-82800000D01*
X132650000Y-82500000D02*
X131800000Y-82500000D01*
X115119645Y-89319645D02*
X116100000Y-90300000D01*
X115119645Y-88973504D02*
X115119645Y-89319645D01*
X114346141Y-88200000D02*
X112800000Y-88200000D01*
X112800000Y-88200000D02*
X112100000Y-88200000D01*
X112784999Y-88184999D02*
X112800000Y-88200000D01*
X113291735Y-83087978D02*
X112784999Y-83594714D01*
X112784999Y-83594714D02*
X112784999Y-88184999D01*
X115119645Y-88973504D02*
X114346141Y-88200000D01*
X132650000Y-88500000D02*
X133650000Y-88500000D01*
D18*
X127600000Y-85360002D02*
X127600000Y-88383012D01*
X127600000Y-88383012D02*
X127149993Y-88833019D01*
X114761140Y-89885000D02*
X115119645Y-90243505D01*
X113641415Y-89885000D02*
X114761140Y-89885000D01*
X112485000Y-89885000D02*
X112200000Y-89600000D01*
X113641415Y-89885000D02*
X112485000Y-89885000D01*
X133158519Y-79841481D02*
X131400000Y-81600000D01*
X131400000Y-81600000D02*
X131009998Y-81600000D01*
X130800000Y-81809998D02*
X130800000Y-82575007D01*
X130800000Y-82575007D02*
X130649998Y-82725009D01*
X131009998Y-81600000D02*
X130800000Y-81809998D01*
X117100000Y-84500000D02*
X117400000Y-84200000D01*
X117400000Y-84200000D02*
X117900000Y-84200000D01*
X117100000Y-84700000D02*
X117100000Y-84500000D01*
X117500000Y-87300000D02*
X117100000Y-86900000D01*
X117100000Y-86900000D02*
X117100000Y-84700000D01*
X132650000Y-84500000D02*
X130950000Y-84500000D01*
X130950000Y-84500000D02*
X130646792Y-84803208D01*
X130646792Y-84803208D02*
X130646792Y-84850833D01*
X132650000Y-84500000D02*
X131650000Y-84500000D01*
X127500000Y-92000000D02*
X131908544Y-92000000D01*
X131908544Y-92000000D02*
X132304272Y-91604272D01*
X127130325Y-91630325D02*
X127500000Y-92000000D01*
X118199999Y-90855527D02*
X117453689Y-90855527D01*
X117453689Y-90855527D02*
X117161921Y-91147295D01*
X118600000Y-86839952D02*
X118600000Y-90455526D01*
X118600000Y-90455526D02*
X118199999Y-90855527D01*
X118234312Y-86474264D02*
X118600000Y-86839952D01*
X118606133Y-84877001D02*
X118181869Y-84877001D01*
X117799999Y-85258871D02*
X117799999Y-86039951D01*
X118181869Y-84877001D02*
X117799999Y-85258871D01*
X117799999Y-86039951D02*
X118234312Y-86474264D01*
X132650000Y-86500000D02*
X132650000Y-87140969D01*
X132650000Y-87140969D02*
X132410002Y-87380967D01*
X119100000Y-90400000D02*
X119100000Y-91200000D01*
X119100000Y-86349990D02*
X119100000Y-90400000D01*
X118400000Y-85649990D02*
X119100000Y-86349990D01*
X138700000Y-81400000D02*
X138400000Y-81700000D01*
X138400000Y-81700000D02*
X138400000Y-82900000D01*
X139340002Y-81400000D02*
X138700000Y-81400000D01*
X139500000Y-80124264D02*
X139500000Y-81240002D01*
X139500000Y-81240002D02*
X139340002Y-81400000D01*
X139700000Y-79500000D02*
X139700000Y-79924264D01*
X139700000Y-79924264D02*
X139500000Y-80124264D01*
D17*
X131800000Y-97500000D02*
X130688224Y-98611776D01*
X127800000Y-93939989D02*
X127800000Y-97400000D01*
X127800000Y-97400000D02*
X128200000Y-97800000D01*
X132650000Y-97500000D02*
X131800000Y-97500000D01*
X115119645Y-104319645D02*
X116100000Y-105300000D01*
X115119645Y-103973504D02*
X115119645Y-104319645D01*
X114346141Y-103200000D02*
X112800000Y-103200000D01*
X112800000Y-103200000D02*
X112100000Y-103200000D01*
X112784999Y-103184999D02*
X112800000Y-103200000D01*
X113291735Y-98087978D02*
X112784999Y-98594714D01*
X112784999Y-98594714D02*
X112784999Y-103184999D01*
X115119645Y-103973504D02*
X114346141Y-103200000D01*
X132650000Y-103500000D02*
X133650000Y-103500000D01*
D18*
X127600000Y-100360002D02*
X127600000Y-103383012D01*
X127600000Y-103383012D02*
X127149993Y-103833019D01*
X114761140Y-104885000D02*
X115119645Y-105243505D01*
X113641415Y-104885000D02*
X114761140Y-104885000D01*
X112485000Y-104885000D02*
X112200000Y-104600000D01*
X113641415Y-104885000D02*
X112485000Y-104885000D01*
X133158519Y-94841481D02*
X131400000Y-96600000D01*
X131400000Y-96600000D02*
X131009998Y-96600000D01*
X130800000Y-96809998D02*
X130800000Y-97575007D01*
X130800000Y-97575007D02*
X130649998Y-97725009D01*
X131009998Y-96600000D02*
X130800000Y-96809998D01*
X117100000Y-99500000D02*
X117400000Y-99200000D01*
X117400000Y-99200000D02*
X117900000Y-99200000D01*
X117100000Y-99700000D02*
X117100000Y-99500000D01*
X117500000Y-102300000D02*
X117100000Y-101900000D01*
X117100000Y-101900000D02*
X117100000Y-99700000D01*
X132650000Y-99500000D02*
X130950000Y-99500000D01*
X130950000Y-99500000D02*
X130646792Y-99803208D01*
X130646792Y-99803208D02*
X130646792Y-99850833D01*
X132650000Y-99500000D02*
X131650000Y-99500000D01*
X127500000Y-107000000D02*
X131908544Y-107000000D01*
X131908544Y-107000000D02*
X132304272Y-106604272D01*
X127130325Y-106630325D02*
X127500000Y-107000000D01*
X118199999Y-105855527D02*
X117453689Y-105855527D01*
X117453689Y-105855527D02*
X117161921Y-106147295D01*
X118600000Y-101839952D02*
X118600000Y-105455526D01*
X118600000Y-105455526D02*
X118199999Y-105855527D01*
X118234312Y-101474264D02*
X118600000Y-101839952D01*
X118606133Y-99877001D02*
X118181869Y-99877001D01*
X117799999Y-100258871D02*
X117799999Y-101039951D01*
X118181869Y-99877001D02*
X117799999Y-100258871D01*
X117799999Y-101039951D02*
X118234312Y-101474264D01*
X132650000Y-101500000D02*
X132650000Y-102140969D01*
X132650000Y-102140969D02*
X132410002Y-102380967D01*
X119100000Y-105400000D02*
X119100000Y-106200000D01*
X119100000Y-101349990D02*
X119100000Y-105400000D01*
X118400000Y-100649990D02*
X119100000Y-101349990D01*
X138700000Y-96400000D02*
X138400000Y-96700000D01*
X138400000Y-96700000D02*
X138400000Y-97900000D01*
X139340002Y-96400000D02*
X138700000Y-96400000D01*
X139500000Y-95124264D02*
X139500000Y-96240002D01*
X139500000Y-96240002D02*
X139340002Y-96400000D01*
X139700000Y-94500000D02*
X139700000Y-94924264D01*
X139700000Y-94924264D02*
X139500000Y-95124264D01*
D17*
X131800000Y-112500000D02*
X130688224Y-113611776D01*
X127800000Y-108939989D02*
X127800000Y-112400000D01*
X127800000Y-112400000D02*
X128200000Y-112800000D01*
X132650000Y-112500000D02*
X131800000Y-112500000D01*
X115119645Y-119319645D02*
X116100000Y-120300000D01*
X115119645Y-118973504D02*
X115119645Y-119319645D01*
X114346141Y-118200000D02*
X112800000Y-118200000D01*
X112800000Y-118200000D02*
X112100000Y-118200000D01*
X112784999Y-118184999D02*
X112800000Y-118200000D01*
X113291735Y-113087978D02*
X112784999Y-113594714D01*
X112784999Y-113594714D02*
X112784999Y-118184999D01*
X115119645Y-118973504D02*
X114346141Y-118200000D01*
X132650000Y-118500000D02*
X133650000Y-118500000D01*
D18*
X127600000Y-115360002D02*
X127600000Y-118383012D01*
X127600000Y-118383012D02*
X127149993Y-118833019D01*
X114761140Y-119885000D02*
X115119645Y-120243505D01*
X113641415Y-119885000D02*
X114761140Y-119885000D01*
X112485000Y-119885000D02*
X112200000Y-119600000D01*
X113641415Y-119885000D02*
X112485000Y-119885000D01*
X133158519Y-109841481D02*
X131400000Y-111600000D01*
X131400000Y-111600000D02*
X131009998Y-111600000D01*
X130800000Y-111809998D02*
X130800000Y-112575007D01*
X130800000Y-112575007D02*
X130649998Y-112725009D01*
X131009998Y-111600000D02*
X130800000Y-111809998D01*
X117100000Y-114500000D02*
X117400000Y-114200000D01*
X117400000Y-114200000D02*
X117900000Y-114200000D01*
X117100000Y-114700000D02*
X117100000Y-114500000D01*
X117500000Y-117300000D02*
X117100000Y-116900000D01*
X117100000Y-116900000D02*
X117100000Y-114700000D01*
X132650000Y-114500000D02*
X130950000Y-114500000D01*
X130950000Y-114500000D02*
X130646792Y-114803208D01*
X130646792Y-114803208D02*
X130646792Y-114850833D01*
X132650000Y-114500000D02*
X131650000Y-114500000D01*
X127500000Y-122000000D02*
X131908544Y-122000000D01*
X131908544Y-122000000D02*
X132304272Y-121604272D01*
X127130325Y-121630325D02*
X127500000Y-122000000D01*
X118199999Y-120855527D02*
X117453689Y-120855527D01*
X117453689Y-120855527D02*
X117161921Y-121147295D01*
X118600000Y-116839952D02*
X118600000Y-120455526D01*
X118600000Y-120455526D02*
X118199999Y-120855527D01*
X118234312Y-116474264D02*
X118600000Y-116839952D01*
X118606133Y-114877001D02*
X118181869Y-114877001D01*
X117799999Y-115258871D02*
X117799999Y-116039951D01*
X118181869Y-114877001D02*
X117799999Y-115258871D01*
X117799999Y-116039951D02*
X118234312Y-116474264D01*
X132650000Y-116500000D02*
X132650000Y-117140969D01*
X132650000Y-117140969D02*
X132410002Y-117380967D01*
X119100000Y-120400000D02*
X119100000Y-121200000D01*
X119100000Y-116349990D02*
X119100000Y-120400000D01*
X118400000Y-115649990D02*
X119100000Y-116349990D01*
X138700000Y-111400000D02*
X138400000Y-111700000D01*
X138400000Y-111700000D02*
X138400000Y-112900000D01*
X139340002Y-111400000D02*
X138700000Y-111400000D01*
X139500000Y-110124264D02*
X139500000Y-111240002D01*
X139500000Y-111240002D02*
X139340002Y-111400000D01*
X139700000Y-109500000D02*
X139700000Y-109924264D01*
X139700000Y-109924264D02*
X139500000Y-110124264D01*
G36*
X127149888Y-79068715D02*
X127248636Y-79307703D01*
X127300000Y-79359157D01*
X127300000Y-82400000D01*
X127326122Y-82531324D01*
X127338060Y-82591342D01*
X127446447Y-82753553D01*
X127549950Y-82857057D01*
X127549888Y-82928726D01*
X127648636Y-83167714D01*
X127831324Y-83350722D01*
X128070140Y-83449887D01*
X128328726Y-83450112D01*
X128567714Y-83351364D01*
X128750722Y-83168676D01*
X128849887Y-82929860D01*
X128850112Y-82671274D01*
X128751364Y-82432286D01*
X128568676Y-82249278D01*
X128329860Y-82150113D01*
X128300000Y-82150087D01*
X128300000Y-79359298D01*
X128350722Y-79308665D01*
X128449887Y-79069849D01*
X128450013Y-78925000D01*
X135208719Y-78925000D01*
X135101175Y-78994203D01*
X135021259Y-79111163D01*
X134993144Y-79250000D01*
X134993144Y-81050000D01*
X135017549Y-81179702D01*
X135094203Y-81298825D01*
X135211163Y-81378741D01*
X135350000Y-81406856D01*
X138065061Y-81406856D01*
X137984254Y-81527792D01*
X137950000Y-81700000D01*
X137950000Y-82430778D01*
X137849278Y-82531324D01*
X137750113Y-82770140D01*
X137749888Y-83028726D01*
X137848636Y-83267714D01*
X138031324Y-83450722D01*
X138270140Y-83549887D01*
X138528726Y-83550112D01*
X138767714Y-83451364D01*
X138950722Y-83268676D01*
X139049887Y-83029860D01*
X139050112Y-82771274D01*
X138951364Y-82532286D01*
X138850000Y-82430744D01*
X138850000Y-81886396D01*
X138886396Y-81850000D01*
X139340002Y-81850000D01*
X139512210Y-81815746D01*
X139658200Y-81718198D01*
X139818198Y-81558200D01*
X139915746Y-81412210D01*
X139950000Y-81240002D01*
X139950000Y-80310660D01*
X140018198Y-80242462D01*
X140115746Y-80096472D01*
X140138842Y-79980361D01*
X140250722Y-79868676D01*
X140349887Y-79629860D01*
X140350112Y-79371274D01*
X140251364Y-79132286D01*
X140068676Y-78949278D01*
X140010208Y-78925000D01*
X141958140Y-78925000D01*
X142216857Y-78976462D01*
X142400698Y-79099300D01*
X142523538Y-79283144D01*
X142575000Y-79541860D01*
X142575000Y-91458140D01*
X142523538Y-91716856D01*
X142400698Y-91900700D01*
X142216857Y-92023538D01*
X141958140Y-92075000D01*
X139291281Y-92075000D01*
X139398825Y-92005797D01*
X139478741Y-91888837D01*
X139506856Y-91750000D01*
X139506856Y-89950000D01*
X139482451Y-89820298D01*
X139405797Y-89701175D01*
X139288837Y-89621259D01*
X139150000Y-89593144D01*
X135350000Y-89593144D01*
X135220298Y-89617549D01*
X135101175Y-89694203D01*
X135021259Y-89811163D01*
X135009172Y-89870850D01*
X134737353Y-89598556D01*
X134259721Y-89400226D01*
X133742548Y-89399774D01*
X133264571Y-89597271D01*
X132898556Y-89962647D01*
X132700226Y-90440279D01*
X132699774Y-90957452D01*
X132786470Y-91167270D01*
X132672948Y-91053550D01*
X132434132Y-90954385D01*
X132175546Y-90954160D01*
X131936558Y-91052908D01*
X131753550Y-91235596D01*
X131654385Y-91474412D01*
X131654319Y-91550000D01*
X127780395Y-91550000D01*
X127780437Y-91501599D01*
X127681689Y-91262611D01*
X127499001Y-91079603D01*
X127260185Y-90980438D01*
X127001599Y-90980213D01*
X126762611Y-91078961D01*
X126579603Y-91261649D01*
X126480438Y-91500465D01*
X126480213Y-91759051D01*
X126578961Y-91998039D01*
X126655787Y-92075000D01*
X115453024Y-92075000D01*
X115500852Y-91959817D01*
X115501147Y-91621666D01*
X115372015Y-91309143D01*
X115338951Y-91276021D01*
X116511809Y-91276021D01*
X116610557Y-91515009D01*
X116793245Y-91698017D01*
X117032061Y-91797182D01*
X117290647Y-91797407D01*
X117529635Y-91698659D01*
X117712643Y-91515971D01*
X117800027Y-91305527D01*
X118199999Y-91305527D01*
X118372207Y-91271273D01*
X118449983Y-91219304D01*
X118449888Y-91328726D01*
X118548636Y-91567714D01*
X118731324Y-91750722D01*
X118970140Y-91849887D01*
X119228726Y-91850112D01*
X119467714Y-91751364D01*
X119650722Y-91568676D01*
X119749887Y-91329860D01*
X119750112Y-91071274D01*
X119651364Y-90832286D01*
X119550000Y-90730744D01*
X119550000Y-88961745D01*
X126499881Y-88961745D01*
X126598629Y-89200733D01*
X126781317Y-89383741D01*
X127020133Y-89482906D01*
X127278719Y-89483131D01*
X127517707Y-89384383D01*
X127700715Y-89201695D01*
X127799880Y-88962879D01*
X127800005Y-88819403D01*
X127918198Y-88701210D01*
X127977472Y-88612500D01*
X130800000Y-88612500D01*
X130800000Y-89069619D01*
X130853284Y-89198259D01*
X130951741Y-89296715D01*
X131080380Y-89350000D01*
X132537500Y-89350000D01*
X132625000Y-89262500D01*
X132625000Y-88525000D01*
X132675000Y-88525000D01*
X132675000Y-89262500D01*
X132762500Y-89350000D01*
X134219620Y-89350000D01*
X134348259Y-89296715D01*
X134446716Y-89198259D01*
X134500000Y-89069619D01*
X134500000Y-88612500D01*
X134412500Y-88525000D01*
X132675000Y-88525000D01*
X132625000Y-88525000D01*
X130887500Y-88525000D01*
X130800000Y-88612500D01*
X127977472Y-88612500D01*
X128015746Y-88555220D01*
X128050000Y-88383012D01*
X128050000Y-86000000D01*
X130793144Y-86000000D01*
X130793144Y-87000000D01*
X130817549Y-87129702D01*
X130894203Y-87248825D01*
X131011163Y-87328741D01*
X131150000Y-87356856D01*
X131760023Y-87356856D01*
X131759890Y-87509693D01*
X131817864Y-87650000D01*
X131080380Y-87650000D01*
X130951741Y-87703285D01*
X130853284Y-87801741D01*
X130800000Y-87930381D01*
X130800000Y-88387500D01*
X130887500Y-88475000D01*
X132625000Y-88475000D01*
X132625000Y-88455000D01*
X132675000Y-88455000D01*
X132675000Y-88475000D01*
X134412500Y-88475000D01*
X134500000Y-88387500D01*
X134500000Y-87930381D01*
X134446716Y-87801741D01*
X134348259Y-87703285D01*
X134219620Y-87650000D01*
X133002099Y-87650000D01*
X133059889Y-87510827D01*
X133060023Y-87356856D01*
X134150000Y-87356856D01*
X134279702Y-87332451D01*
X134398825Y-87255797D01*
X134478741Y-87138837D01*
X134506856Y-87000000D01*
X134506856Y-86000000D01*
X134482451Y-85870298D01*
X134405797Y-85751175D01*
X134288837Y-85671259D01*
X134150000Y-85643144D01*
X131150000Y-85643144D01*
X131020298Y-85667549D01*
X130901175Y-85744203D01*
X130821259Y-85861163D01*
X130793144Y-86000000D01*
X128050000Y-86000000D01*
X128050000Y-85829224D01*
X128150722Y-85728678D01*
X128249887Y-85489862D01*
X128250112Y-85231276D01*
X128151364Y-84992288D01*
X128138658Y-84979559D01*
X129996680Y-84979559D01*
X130095428Y-85218547D01*
X130278116Y-85401555D01*
X130516932Y-85500720D01*
X130775518Y-85500945D01*
X131014506Y-85402197D01*
X131075117Y-85341692D01*
X131150000Y-85356856D01*
X134150000Y-85356856D01*
X134279702Y-85332451D01*
X134398825Y-85255797D01*
X134478741Y-85138837D01*
X134506856Y-85000000D01*
X134506856Y-84000000D01*
X134482451Y-83870298D01*
X134405797Y-83751175D01*
X134288837Y-83671259D01*
X134150000Y-83643144D01*
X131363962Y-83643144D01*
X131650251Y-83356856D01*
X134150000Y-83356856D01*
X134279702Y-83332451D01*
X134398825Y-83255797D01*
X134478741Y-83138837D01*
X134506856Y-83000000D01*
X134506856Y-82000000D01*
X134482451Y-81870298D01*
X134405797Y-81751175D01*
X134288837Y-81671259D01*
X134150000Y-81643144D01*
X131993252Y-81643144D01*
X133144927Y-80491469D01*
X133213536Y-80491529D01*
X133321397Y-80752572D01*
X133546245Y-80977812D01*
X133840172Y-81099861D01*
X134158432Y-81100139D01*
X134452572Y-80978603D01*
X134677812Y-80753755D01*
X134799861Y-80459828D01*
X134800139Y-80141568D01*
X134678603Y-79847428D01*
X134453755Y-79622188D01*
X134159828Y-79500139D01*
X133841568Y-79499861D01*
X133738296Y-79542532D01*
X133709883Y-79473767D01*
X133527195Y-79290759D01*
X133288379Y-79191594D01*
X133029793Y-79191369D01*
X132790805Y-79290117D01*
X132607797Y-79472805D01*
X132508632Y-79711621D01*
X132508507Y-79855097D01*
X131213604Y-81150000D01*
X131009998Y-81150000D01*
X130837790Y-81184254D01*
X130772630Y-81227793D01*
X130691800Y-81281802D01*
X130481802Y-81491800D01*
X130384254Y-81637790D01*
X130350000Y-81809998D01*
X130350000Y-82145665D01*
X130282284Y-82173645D01*
X130099276Y-82356333D01*
X130000111Y-82595149D01*
X129999886Y-82853735D01*
X130098634Y-83092723D01*
X130193222Y-83187477D01*
X130137502Y-83243100D01*
X130038337Y-83481916D01*
X130038112Y-83740502D01*
X130136860Y-83979490D01*
X130319548Y-84162498D01*
X130464701Y-84222771D01*
X130279078Y-84299469D01*
X130096070Y-84482157D01*
X129996905Y-84720973D01*
X129996680Y-84979559D01*
X128138658Y-84979559D01*
X127968676Y-84809280D01*
X127729860Y-84710115D01*
X127471274Y-84709890D01*
X127232286Y-84808638D01*
X127049278Y-84991326D01*
X126950113Y-85230142D01*
X126949888Y-85488728D01*
X127048636Y-85727716D01*
X127150000Y-85829258D01*
X127150000Y-88183019D01*
X127021267Y-88182907D01*
X126782279Y-88281655D01*
X126599271Y-88464343D01*
X126500106Y-88703159D01*
X126499881Y-88961745D01*
X119550000Y-88961745D01*
X119550000Y-88424045D01*
X120361310Y-88424045D01*
X120380957Y-88550476D01*
X120619707Y-88649800D01*
X120878293Y-88650198D01*
X121117347Y-88551609D01*
X121119043Y-88550476D01*
X121138690Y-88424045D01*
X122861310Y-88424045D01*
X122880957Y-88550476D01*
X123119707Y-88649800D01*
X123378293Y-88650198D01*
X123617347Y-88551609D01*
X123619043Y-88550476D01*
X123638690Y-88424045D01*
X125361310Y-88424045D01*
X125380957Y-88550476D01*
X125619707Y-88649800D01*
X125878293Y-88650198D01*
X126117347Y-88551609D01*
X126119043Y-88550476D01*
X126138690Y-88424045D01*
X125750000Y-88035355D01*
X125361310Y-88424045D01*
X123638690Y-88424045D01*
X123250000Y-88035355D01*
X122861310Y-88424045D01*
X121138690Y-88424045D01*
X120750000Y-88035355D01*
X120361310Y-88424045D01*
X119550000Y-88424045D01*
X119550000Y-88128293D01*
X120099802Y-88128293D01*
X120198391Y-88367347D01*
X120199524Y-88369043D01*
X120325955Y-88388690D01*
X120714645Y-88000000D01*
X120785355Y-88000000D01*
X121174045Y-88388690D01*
X121300476Y-88369043D01*
X121399800Y-88130293D01*
X121399803Y-88128293D01*
X122599802Y-88128293D01*
X122698391Y-88367347D01*
X122699524Y-88369043D01*
X122825955Y-88388690D01*
X123214645Y-88000000D01*
X123285355Y-88000000D01*
X123674045Y-88388690D01*
X123800476Y-88369043D01*
X123899800Y-88130293D01*
X123899803Y-88128293D01*
X125099802Y-88128293D01*
X125198391Y-88367347D01*
X125199524Y-88369043D01*
X125325955Y-88388690D01*
X125714645Y-88000000D01*
X125785355Y-88000000D01*
X126174045Y-88388690D01*
X126300476Y-88369043D01*
X126399800Y-88130293D01*
X126400198Y-87871707D01*
X126301609Y-87632653D01*
X126300476Y-87630957D01*
X126174045Y-87611310D01*
X125785355Y-88000000D01*
X125714645Y-88000000D01*
X125325955Y-87611310D01*
X125199524Y-87630957D01*
X125100200Y-87869707D01*
X125099802Y-88128293D01*
X123899803Y-88128293D01*
X123900198Y-87871707D01*
X123801609Y-87632653D01*
X123800476Y-87630957D01*
X123674045Y-87611310D01*
X123285355Y-88000000D01*
X123214645Y-88000000D01*
X122825955Y-87611310D01*
X122699524Y-87630957D01*
X122600200Y-87869707D01*
X122599802Y-88128293D01*
X121399803Y-88128293D01*
X121400198Y-87871707D01*
X121301609Y-87632653D01*
X121300476Y-87630957D01*
X121174045Y-87611310D01*
X120785355Y-88000000D01*
X120714645Y-88000000D01*
X120325955Y-87611310D01*
X120199524Y-87630957D01*
X120100200Y-87869707D01*
X120099802Y-88128293D01*
X119550000Y-88128293D01*
X119550000Y-87575955D01*
X120361310Y-87575955D01*
X120750000Y-87964645D01*
X121138690Y-87575955D01*
X122861310Y-87575955D01*
X123250000Y-87964645D01*
X123638690Y-87575955D01*
X125361310Y-87575955D01*
X125750000Y-87964645D01*
X126138690Y-87575955D01*
X126119043Y-87449524D01*
X125880293Y-87350200D01*
X125621707Y-87349802D01*
X125382653Y-87448391D01*
X125380957Y-87449524D01*
X125361310Y-87575955D01*
X123638690Y-87575955D01*
X123619043Y-87449524D01*
X123380293Y-87350200D01*
X123121707Y-87349802D01*
X122882653Y-87448391D01*
X122880957Y-87449524D01*
X122861310Y-87575955D01*
X121138690Y-87575955D01*
X121119043Y-87449524D01*
X120880293Y-87350200D01*
X120621707Y-87349802D01*
X120382653Y-87448391D01*
X120380957Y-87449524D01*
X120361310Y-87575955D01*
X119550000Y-87575955D01*
X119550000Y-86349990D01*
X119515746Y-86177782D01*
X119418198Y-86031792D01*
X119310451Y-85924045D01*
X120361310Y-85924045D01*
X120380957Y-86050476D01*
X120619707Y-86149800D01*
X120878293Y-86150198D01*
X121117347Y-86051609D01*
X121119043Y-86050476D01*
X121138690Y-85924045D01*
X122861310Y-85924045D01*
X122880957Y-86050476D01*
X123119707Y-86149800D01*
X123378293Y-86150198D01*
X123617347Y-86051609D01*
X123619043Y-86050476D01*
X123638690Y-85924045D01*
X125361310Y-85924045D01*
X125380957Y-86050476D01*
X125619707Y-86149800D01*
X125878293Y-86150198D01*
X126117347Y-86051609D01*
X126119043Y-86050476D01*
X126138690Y-85924045D01*
X125750000Y-85535355D01*
X125361310Y-85924045D01*
X123638690Y-85924045D01*
X123250000Y-85535355D01*
X122861310Y-85924045D01*
X121138690Y-85924045D01*
X120750000Y-85535355D01*
X120361310Y-85924045D01*
X119310451Y-85924045D01*
X119049988Y-85663582D01*
X119050018Y-85628293D01*
X120099802Y-85628293D01*
X120198391Y-85867347D01*
X120199524Y-85869043D01*
X120325955Y-85888690D01*
X120714645Y-85500000D01*
X120785355Y-85500000D01*
X121174045Y-85888690D01*
X121300476Y-85869043D01*
X121399800Y-85630293D01*
X121399803Y-85628293D01*
X122599802Y-85628293D01*
X122698391Y-85867347D01*
X122699524Y-85869043D01*
X122825955Y-85888690D01*
X123214645Y-85500000D01*
X123285355Y-85500000D01*
X123674045Y-85888690D01*
X123800476Y-85869043D01*
X123899800Y-85630293D01*
X123899803Y-85628293D01*
X125099802Y-85628293D01*
X125198391Y-85867347D01*
X125199524Y-85869043D01*
X125325955Y-85888690D01*
X125714645Y-85500000D01*
X125785355Y-85500000D01*
X126174045Y-85888690D01*
X126300476Y-85869043D01*
X126399800Y-85630293D01*
X126400198Y-85371707D01*
X126301609Y-85132653D01*
X126300476Y-85130957D01*
X126174045Y-85111310D01*
X125785355Y-85500000D01*
X125714645Y-85500000D01*
X125325955Y-85111310D01*
X125199524Y-85130957D01*
X125100200Y-85369707D01*
X125099802Y-85628293D01*
X123899803Y-85628293D01*
X123900198Y-85371707D01*
X123801609Y-85132653D01*
X123800476Y-85130957D01*
X123674045Y-85111310D01*
X123285355Y-85500000D01*
X123214645Y-85500000D01*
X122825955Y-85111310D01*
X122699524Y-85130957D01*
X122600200Y-85369707D01*
X122599802Y-85628293D01*
X121399803Y-85628293D01*
X121400198Y-85371707D01*
X121301609Y-85132653D01*
X121300476Y-85130957D01*
X121174045Y-85111310D01*
X120785355Y-85500000D01*
X120714645Y-85500000D01*
X120325955Y-85111310D01*
X120199524Y-85130957D01*
X120100200Y-85369707D01*
X120099802Y-85628293D01*
X119050018Y-85628293D01*
X119050112Y-85521264D01*
X119000665Y-85401594D01*
X119156855Y-85245677D01*
X119227329Y-85075955D01*
X120361310Y-85075955D01*
X120750000Y-85464645D01*
X121138690Y-85075955D01*
X122861310Y-85075955D01*
X123250000Y-85464645D01*
X123638690Y-85075955D01*
X125361310Y-85075955D01*
X125750000Y-85464645D01*
X126138690Y-85075955D01*
X126119043Y-84949524D01*
X125880293Y-84850200D01*
X125621707Y-84849802D01*
X125382653Y-84948391D01*
X125380957Y-84949524D01*
X125361310Y-85075955D01*
X123638690Y-85075955D01*
X123619043Y-84949524D01*
X123380293Y-84850200D01*
X123121707Y-84849802D01*
X122882653Y-84948391D01*
X122880957Y-84949524D01*
X122861310Y-85075955D01*
X121138690Y-85075955D01*
X121119043Y-84949524D01*
X120880293Y-84850200D01*
X120621707Y-84849802D01*
X120382653Y-84948391D01*
X120380957Y-84949524D01*
X120361310Y-85075955D01*
X119227329Y-85075955D01*
X119256020Y-85006861D01*
X119256245Y-84748275D01*
X119157497Y-84509287D01*
X118974809Y-84326279D01*
X118735993Y-84227114D01*
X118549977Y-84226952D01*
X118550112Y-84071274D01*
X118451364Y-83832286D01*
X118268676Y-83649278D01*
X118029860Y-83550113D01*
X117771274Y-83549888D01*
X117532286Y-83648636D01*
X117430744Y-83750000D01*
X117400000Y-83750000D01*
X117227792Y-83784254D01*
X117112690Y-83861163D01*
X117081802Y-83881802D01*
X116781802Y-84181802D01*
X116684254Y-84327792D01*
X116650000Y-84500000D01*
X116650000Y-86900000D01*
X116684254Y-87072208D01*
X116750448Y-87171274D01*
X116781802Y-87218198D01*
X116850012Y-87286408D01*
X116849888Y-87428726D01*
X116948636Y-87667714D01*
X117131324Y-87850722D01*
X117370140Y-87949887D01*
X117628726Y-87950112D01*
X117867714Y-87851364D01*
X118050722Y-87668676D01*
X118149887Y-87429860D01*
X118150000Y-87299992D01*
X118150000Y-90269130D01*
X118013603Y-90405527D01*
X117453689Y-90405527D01*
X117281481Y-90439781D01*
X117195362Y-90497324D01*
X117033195Y-90497183D01*
X116794207Y-90595931D01*
X116611199Y-90778619D01*
X116512034Y-91017435D01*
X116511809Y-91276021D01*
X115338951Y-91276021D01*
X115133115Y-91069826D01*
X114820817Y-90940148D01*
X114482666Y-90939853D01*
X114170143Y-91068985D01*
X113930826Y-91307885D01*
X113801148Y-91620183D01*
X113800853Y-91958334D01*
X113849058Y-92075000D01*
X113421024Y-92075000D01*
X113468852Y-91959817D01*
X113469147Y-91621666D01*
X113340015Y-91309143D01*
X113101115Y-91069826D01*
X112788817Y-90940148D01*
X112450666Y-90939853D01*
X112138143Y-91068985D01*
X111898826Y-91307885D01*
X111769148Y-91620183D01*
X111768853Y-91958334D01*
X111817058Y-92075000D01*
X107041860Y-92075000D01*
X106783144Y-92023538D01*
X106599300Y-91900698D01*
X106476462Y-91716857D01*
X106425000Y-91458140D01*
X106425000Y-90916856D01*
X108270000Y-90916856D01*
X108399702Y-90892451D01*
X108518825Y-90815797D01*
X108598741Y-90698837D01*
X108626856Y-90560000D01*
X108626856Y-88120000D01*
X108602451Y-87990298D01*
X108540057Y-87893334D01*
X109649853Y-87893334D01*
X109778985Y-88205857D01*
X110017885Y-88445174D01*
X110330183Y-88574852D01*
X110668334Y-88575147D01*
X110980857Y-88446015D01*
X111098350Y-88328726D01*
X111449888Y-88328726D01*
X111548636Y-88567714D01*
X111731324Y-88750722D01*
X111970140Y-88849887D01*
X112228726Y-88850112D01*
X112467714Y-88751364D01*
X112519168Y-88700000D01*
X114139035Y-88700000D01*
X114469595Y-89030560D01*
X114469533Y-89102230D01*
X114568281Y-89341218D01*
X114637786Y-89410844D01*
X114642590Y-89435000D01*
X112835124Y-89435000D01*
X112751364Y-89232286D01*
X112568676Y-89049278D01*
X112329860Y-88950113D01*
X112071274Y-88949888D01*
X111832286Y-89048636D01*
X111649278Y-89231324D01*
X111550113Y-89470140D01*
X111549888Y-89728726D01*
X111648636Y-89967714D01*
X111831324Y-90150722D01*
X112070140Y-90249887D01*
X112236894Y-90250032D01*
X112312792Y-90300746D01*
X112485000Y-90335000D01*
X114469565Y-90335000D01*
X114469533Y-90372231D01*
X114568281Y-90611219D01*
X114750969Y-90794227D01*
X114989785Y-90893392D01*
X115248371Y-90893617D01*
X115487359Y-90794869D01*
X115581629Y-90700764D01*
X115731324Y-90850722D01*
X115970140Y-90949887D01*
X116228726Y-90950112D01*
X116467714Y-90851364D01*
X116650722Y-90668676D01*
X116749887Y-90429860D01*
X116750112Y-90171274D01*
X116651364Y-89932286D01*
X116468676Y-89749278D01*
X116229860Y-89650113D01*
X116157156Y-89650050D01*
X115722863Y-89215756D01*
X115769532Y-89103364D01*
X115769757Y-88844778D01*
X115671009Y-88605790D01*
X115488321Y-88422782D01*
X115249505Y-88323617D01*
X115176801Y-88323554D01*
X114699694Y-87846447D01*
X114537483Y-87738060D01*
X114534668Y-87737500D01*
X114346141Y-87700000D01*
X113284999Y-87700000D01*
X113284999Y-87485033D01*
X113465183Y-87559852D01*
X113803334Y-87560147D01*
X114115857Y-87431015D01*
X114355174Y-87192115D01*
X114484852Y-86879817D01*
X114485147Y-86541666D01*
X114356015Y-86229143D01*
X114117115Y-85989826D01*
X113804817Y-85860148D01*
X113466666Y-85859853D01*
X113284999Y-85934916D01*
X113284999Y-83801820D01*
X113348791Y-83738028D01*
X113420461Y-83738090D01*
X113659449Y-83639342D01*
X113842457Y-83456654D01*
X113855997Y-83424045D01*
X120361310Y-83424045D01*
X120380957Y-83550476D01*
X120619707Y-83649800D01*
X120878293Y-83650198D01*
X121117347Y-83551609D01*
X121119043Y-83550476D01*
X121138690Y-83424045D01*
X122861310Y-83424045D01*
X122880957Y-83550476D01*
X123119707Y-83649800D01*
X123378293Y-83650198D01*
X123617347Y-83551609D01*
X123619043Y-83550476D01*
X123638690Y-83424045D01*
X125361310Y-83424045D01*
X125380957Y-83550476D01*
X125619707Y-83649800D01*
X125878293Y-83650198D01*
X126117347Y-83551609D01*
X126119043Y-83550476D01*
X126138690Y-83424045D01*
X125750000Y-83035355D01*
X125361310Y-83424045D01*
X123638690Y-83424045D01*
X123250000Y-83035355D01*
X122861310Y-83424045D01*
X121138690Y-83424045D01*
X120750000Y-83035355D01*
X120361310Y-83424045D01*
X113855997Y-83424045D01*
X113941622Y-83217838D01*
X113941699Y-83128293D01*
X120099802Y-83128293D01*
X120198391Y-83367347D01*
X120199524Y-83369043D01*
X120325955Y-83388690D01*
X120714645Y-83000000D01*
X120785355Y-83000000D01*
X121174045Y-83388690D01*
X121300476Y-83369043D01*
X121399800Y-83130293D01*
X121399803Y-83128293D01*
X122599802Y-83128293D01*
X122698391Y-83367347D01*
X122699524Y-83369043D01*
X122825955Y-83388690D01*
X123214645Y-83000000D01*
X123285355Y-83000000D01*
X123674045Y-83388690D01*
X123800476Y-83369043D01*
X123899800Y-83130293D01*
X123899803Y-83128293D01*
X125099802Y-83128293D01*
X125198391Y-83367347D01*
X125199524Y-83369043D01*
X125325955Y-83388690D01*
X125714645Y-83000000D01*
X125785355Y-83000000D01*
X126174045Y-83388690D01*
X126300476Y-83369043D01*
X126399800Y-83130293D01*
X126400198Y-82871707D01*
X126301609Y-82632653D01*
X126300476Y-82630957D01*
X126174045Y-82611310D01*
X125785355Y-83000000D01*
X125714645Y-83000000D01*
X125325955Y-82611310D01*
X125199524Y-82630957D01*
X125100200Y-82869707D01*
X125099802Y-83128293D01*
X123899803Y-83128293D01*
X123900198Y-82871707D01*
X123801609Y-82632653D01*
X123800476Y-82630957D01*
X123674045Y-82611310D01*
X123285355Y-83000000D01*
X123214645Y-83000000D01*
X122825955Y-82611310D01*
X122699524Y-82630957D01*
X122600200Y-82869707D01*
X122599802Y-83128293D01*
X121399803Y-83128293D01*
X121400198Y-82871707D01*
X121301609Y-82632653D01*
X121300476Y-82630957D01*
X121174045Y-82611310D01*
X120785355Y-83000000D01*
X120714645Y-83000000D01*
X120325955Y-82611310D01*
X120199524Y-82630957D01*
X120100200Y-82869707D01*
X120099802Y-83128293D01*
X113941699Y-83128293D01*
X113941847Y-82959252D01*
X113843099Y-82720264D01*
X113699043Y-82575955D01*
X120361310Y-82575955D01*
X120750000Y-82964645D01*
X121138690Y-82575955D01*
X122861310Y-82575955D01*
X123250000Y-82964645D01*
X123638690Y-82575955D01*
X125361310Y-82575955D01*
X125750000Y-82964645D01*
X126138690Y-82575955D01*
X126119043Y-82449524D01*
X125880293Y-82350200D01*
X125621707Y-82349802D01*
X125382653Y-82448391D01*
X125380957Y-82449524D01*
X125361310Y-82575955D01*
X123638690Y-82575955D01*
X123619043Y-82449524D01*
X123380293Y-82350200D01*
X123121707Y-82349802D01*
X122882653Y-82448391D01*
X122880957Y-82449524D01*
X122861310Y-82575955D01*
X121138690Y-82575955D01*
X121119043Y-82449524D01*
X120880293Y-82350200D01*
X120621707Y-82349802D01*
X120382653Y-82448391D01*
X120380957Y-82449524D01*
X120361310Y-82575955D01*
X113699043Y-82575955D01*
X113660411Y-82537256D01*
X113421595Y-82438091D01*
X113163009Y-82437866D01*
X112924021Y-82536614D01*
X112741013Y-82719302D01*
X112641848Y-82958118D01*
X112641785Y-83030822D01*
X112431446Y-83241161D01*
X112323059Y-83403372D01*
X112284999Y-83594714D01*
X112284999Y-87573009D01*
X112229860Y-87550113D01*
X111971274Y-87549888D01*
X111732286Y-87648636D01*
X111549278Y-87831324D01*
X111450113Y-88070140D01*
X111449888Y-88328726D01*
X111098350Y-88328726D01*
X111220174Y-88207115D01*
X111349852Y-87894817D01*
X111350147Y-87556666D01*
X111221015Y-87244143D01*
X110982115Y-87004826D01*
X110669817Y-86875148D01*
X110331666Y-86874853D01*
X110019143Y-87003985D01*
X109779826Y-87242885D01*
X109650148Y-87555183D01*
X109649853Y-87893334D01*
X108540057Y-87893334D01*
X108525797Y-87871175D01*
X108408837Y-87791259D01*
X108270000Y-87763144D01*
X106425000Y-87763144D01*
X106425000Y-83443334D01*
X109649853Y-83443334D01*
X109778985Y-83755857D01*
X110017885Y-83995174D01*
X110330183Y-84124852D01*
X110668334Y-84125147D01*
X110980857Y-83996015D01*
X111220174Y-83757115D01*
X111349852Y-83444817D01*
X111350147Y-83106666D01*
X111221015Y-82794143D01*
X110982115Y-82554826D01*
X110669817Y-82425148D01*
X110331666Y-82424853D01*
X110019143Y-82553985D01*
X109779826Y-82792885D01*
X109650148Y-83105183D01*
X109649853Y-83443334D01*
X106425000Y-83443334D01*
X106425000Y-83236856D01*
X108270000Y-83236856D01*
X108399702Y-83212451D01*
X108518825Y-83135797D01*
X108598741Y-83018837D01*
X108626856Y-82880000D01*
X108626856Y-80440000D01*
X108602451Y-80310298D01*
X108525797Y-80191175D01*
X108408837Y-80111259D01*
X108270000Y-80083144D01*
X106425000Y-80083144D01*
X106425000Y-79541860D01*
X106476462Y-79283143D01*
X106599300Y-79099302D01*
X106783144Y-78976462D01*
X107041860Y-78925000D01*
X127150013Y-78925000D01*
X127149888Y-79068715D01*
X127149888Y-79068715D01*
G37*
X127149888Y-79068715D02*
X127248636Y-79307703D01*
X127300000Y-79359157D01*
X127300000Y-82400000D01*
X127326122Y-82531324D01*
X127338060Y-82591342D01*
X127446447Y-82753553D01*
X127549950Y-82857057D01*
X127549888Y-82928726D01*
X127648636Y-83167714D01*
X127831324Y-83350722D01*
X128070140Y-83449887D01*
X128328726Y-83450112D01*
X128567714Y-83351364D01*
X128750722Y-83168676D01*
X128849887Y-82929860D01*
X128850112Y-82671274D01*
X128751364Y-82432286D01*
X128568676Y-82249278D01*
X128329860Y-82150113D01*
X128300000Y-82150087D01*
X128300000Y-79359298D01*
X128350722Y-79308665D01*
X128449887Y-79069849D01*
X128450013Y-78925000D01*
X135208719Y-78925000D01*
X135101175Y-78994203D01*
X135021259Y-79111163D01*
X134993144Y-79250000D01*
X134993144Y-81050000D01*
X135017549Y-81179702D01*
X135094203Y-81298825D01*
X135211163Y-81378741D01*
X135350000Y-81406856D01*
X138065061Y-81406856D01*
X137984254Y-81527792D01*
X137950000Y-81700000D01*
X137950000Y-82430778D01*
X137849278Y-82531324D01*
X137750113Y-82770140D01*
X137749888Y-83028726D01*
X137848636Y-83267714D01*
X138031324Y-83450722D01*
X138270140Y-83549887D01*
X138528726Y-83550112D01*
X138767714Y-83451364D01*
X138950722Y-83268676D01*
X139049887Y-83029860D01*
X139050112Y-82771274D01*
X138951364Y-82532286D01*
X138850000Y-82430744D01*
X138850000Y-81886396D01*
X138886396Y-81850000D01*
X139340002Y-81850000D01*
X139512210Y-81815746D01*
X139658200Y-81718198D01*
X139818198Y-81558200D01*
X139915746Y-81412210D01*
X139950000Y-81240002D01*
X139950000Y-80310660D01*
X140018198Y-80242462D01*
X140115746Y-80096472D01*
X140138842Y-79980361D01*
X140250722Y-79868676D01*
X140349887Y-79629860D01*
X140350112Y-79371274D01*
X140251364Y-79132286D01*
X140068676Y-78949278D01*
X140010208Y-78925000D01*
X141958140Y-78925000D01*
X142216857Y-78976462D01*
X142400698Y-79099300D01*
X142523538Y-79283144D01*
X142575000Y-79541860D01*
X142575000Y-91458140D01*
X142523538Y-91716856D01*
X142400698Y-91900700D01*
X142216857Y-92023538D01*
X141958140Y-92075000D01*
X139291281Y-92075000D01*
X139398825Y-92005797D01*
X139478741Y-91888837D01*
X139506856Y-91750000D01*
X139506856Y-89950000D01*
X139482451Y-89820298D01*
X139405797Y-89701175D01*
X139288837Y-89621259D01*
X139150000Y-89593144D01*
X135350000Y-89593144D01*
X135220298Y-89617549D01*
X135101175Y-89694203D01*
X135021259Y-89811163D01*
X135009172Y-89870850D01*
X134737353Y-89598556D01*
X134259721Y-89400226D01*
X133742548Y-89399774D01*
X133264571Y-89597271D01*
X132898556Y-89962647D01*
X132700226Y-90440279D01*
X132699774Y-90957452D01*
X132786470Y-91167270D01*
X132672948Y-91053550D01*
X132434132Y-90954385D01*
X132175546Y-90954160D01*
X131936558Y-91052908D01*
X131753550Y-91235596D01*
X131654385Y-91474412D01*
X131654319Y-91550000D01*
X127780395Y-91550000D01*
X127780437Y-91501599D01*
X127681689Y-91262611D01*
X127499001Y-91079603D01*
X127260185Y-90980438D01*
X127001599Y-90980213D01*
X126762611Y-91078961D01*
X126579603Y-91261649D01*
X126480438Y-91500465D01*
X126480213Y-91759051D01*
X126578961Y-91998039D01*
X126655787Y-92075000D01*
X115453024Y-92075000D01*
X115500852Y-91959817D01*
X115501147Y-91621666D01*
X115372015Y-91309143D01*
X115338951Y-91276021D01*
X116511809Y-91276021D01*
X116610557Y-91515009D01*
X116793245Y-91698017D01*
X117032061Y-91797182D01*
X117290647Y-91797407D01*
X117529635Y-91698659D01*
X117712643Y-91515971D01*
X117800027Y-91305527D01*
X118199999Y-91305527D01*
X118372207Y-91271273D01*
X118449983Y-91219304D01*
X118449888Y-91328726D01*
X118548636Y-91567714D01*
X118731324Y-91750722D01*
X118970140Y-91849887D01*
X119228726Y-91850112D01*
X119467714Y-91751364D01*
X119650722Y-91568676D01*
X119749887Y-91329860D01*
X119750112Y-91071274D01*
X119651364Y-90832286D01*
X119550000Y-90730744D01*
X119550000Y-88961745D01*
X126499881Y-88961745D01*
X126598629Y-89200733D01*
X126781317Y-89383741D01*
X127020133Y-89482906D01*
X127278719Y-89483131D01*
X127517707Y-89384383D01*
X127700715Y-89201695D01*
X127799880Y-88962879D01*
X127800005Y-88819403D01*
X127918198Y-88701210D01*
X127977472Y-88612500D01*
X130800000Y-88612500D01*
X130800000Y-89069619D01*
X130853284Y-89198259D01*
X130951741Y-89296715D01*
X131080380Y-89350000D01*
X132537500Y-89350000D01*
X132625000Y-89262500D01*
X132625000Y-88525000D01*
X132675000Y-88525000D01*
X132675000Y-89262500D01*
X132762500Y-89350000D01*
X134219620Y-89350000D01*
X134348259Y-89296715D01*
X134446716Y-89198259D01*
X134500000Y-89069619D01*
X134500000Y-88612500D01*
X134412500Y-88525000D01*
X132675000Y-88525000D01*
X132625000Y-88525000D01*
X130887500Y-88525000D01*
X130800000Y-88612500D01*
X127977472Y-88612500D01*
X128015746Y-88555220D01*
X128050000Y-88383012D01*
X128050000Y-86000000D01*
X130793144Y-86000000D01*
X130793144Y-87000000D01*
X130817549Y-87129702D01*
X130894203Y-87248825D01*
X131011163Y-87328741D01*
X131150000Y-87356856D01*
X131760023Y-87356856D01*
X131759890Y-87509693D01*
X131817864Y-87650000D01*
X131080380Y-87650000D01*
X130951741Y-87703285D01*
X130853284Y-87801741D01*
X130800000Y-87930381D01*
X130800000Y-88387500D01*
X130887500Y-88475000D01*
X132625000Y-88475000D01*
X132625000Y-88455000D01*
X132675000Y-88455000D01*
X132675000Y-88475000D01*
X134412500Y-88475000D01*
X134500000Y-88387500D01*
X134500000Y-87930381D01*
X134446716Y-87801741D01*
X134348259Y-87703285D01*
X134219620Y-87650000D01*
X133002099Y-87650000D01*
X133059889Y-87510827D01*
X133060023Y-87356856D01*
X134150000Y-87356856D01*
X134279702Y-87332451D01*
X134398825Y-87255797D01*
X134478741Y-87138837D01*
X134506856Y-87000000D01*
X134506856Y-86000000D01*
X134482451Y-85870298D01*
X134405797Y-85751175D01*
X134288837Y-85671259D01*
X134150000Y-85643144D01*
X131150000Y-85643144D01*
X131020298Y-85667549D01*
X130901175Y-85744203D01*
X130821259Y-85861163D01*
X130793144Y-86000000D01*
X128050000Y-86000000D01*
X128050000Y-85829224D01*
X128150722Y-85728678D01*
X128249887Y-85489862D01*
X128250112Y-85231276D01*
X128151364Y-84992288D01*
X128138658Y-84979559D01*
X129996680Y-84979559D01*
X130095428Y-85218547D01*
X130278116Y-85401555D01*
X130516932Y-85500720D01*
X130775518Y-85500945D01*
X131014506Y-85402197D01*
X131075117Y-85341692D01*
X131150000Y-85356856D01*
X134150000Y-85356856D01*
X134279702Y-85332451D01*
X134398825Y-85255797D01*
X134478741Y-85138837D01*
X134506856Y-85000000D01*
X134506856Y-84000000D01*
X134482451Y-83870298D01*
X134405797Y-83751175D01*
X134288837Y-83671259D01*
X134150000Y-83643144D01*
X131363962Y-83643144D01*
X131650251Y-83356856D01*
X134150000Y-83356856D01*
X134279702Y-83332451D01*
X134398825Y-83255797D01*
X134478741Y-83138837D01*
X134506856Y-83000000D01*
X134506856Y-82000000D01*
X134482451Y-81870298D01*
X134405797Y-81751175D01*
X134288837Y-81671259D01*
X134150000Y-81643144D01*
X131993252Y-81643144D01*
X133144927Y-80491469D01*
X133213536Y-80491529D01*
X133321397Y-80752572D01*
X133546245Y-80977812D01*
X133840172Y-81099861D01*
X134158432Y-81100139D01*
X134452572Y-80978603D01*
X134677812Y-80753755D01*
X134799861Y-80459828D01*
X134800139Y-80141568D01*
X134678603Y-79847428D01*
X134453755Y-79622188D01*
X134159828Y-79500139D01*
X133841568Y-79499861D01*
X133738296Y-79542532D01*
X133709883Y-79473767D01*
X133527195Y-79290759D01*
X133288379Y-79191594D01*
X133029793Y-79191369D01*
X132790805Y-79290117D01*
X132607797Y-79472805D01*
X132508632Y-79711621D01*
X132508507Y-79855097D01*
X131213604Y-81150000D01*
X131009998Y-81150000D01*
X130837790Y-81184254D01*
X130772630Y-81227793D01*
X130691800Y-81281802D01*
X130481802Y-81491800D01*
X130384254Y-81637790D01*
X130350000Y-81809998D01*
X130350000Y-82145665D01*
X130282284Y-82173645D01*
X130099276Y-82356333D01*
X130000111Y-82595149D01*
X129999886Y-82853735D01*
X130098634Y-83092723D01*
X130193222Y-83187477D01*
X130137502Y-83243100D01*
X130038337Y-83481916D01*
X130038112Y-83740502D01*
X130136860Y-83979490D01*
X130319548Y-84162498D01*
X130464701Y-84222771D01*
X130279078Y-84299469D01*
X130096070Y-84482157D01*
X129996905Y-84720973D01*
X129996680Y-84979559D01*
X128138658Y-84979559D01*
X127968676Y-84809280D01*
X127729860Y-84710115D01*
X127471274Y-84709890D01*
X127232286Y-84808638D01*
X127049278Y-84991326D01*
X126950113Y-85230142D01*
X126949888Y-85488728D01*
X127048636Y-85727716D01*
X127150000Y-85829258D01*
X127150000Y-88183019D01*
X127021267Y-88182907D01*
X126782279Y-88281655D01*
X126599271Y-88464343D01*
X126500106Y-88703159D01*
X126499881Y-88961745D01*
X119550000Y-88961745D01*
X119550000Y-88424045D01*
X120361310Y-88424045D01*
X120380957Y-88550476D01*
X120619707Y-88649800D01*
X120878293Y-88650198D01*
X121117347Y-88551609D01*
X121119043Y-88550476D01*
X121138690Y-88424045D01*
X122861310Y-88424045D01*
X122880957Y-88550476D01*
X123119707Y-88649800D01*
X123378293Y-88650198D01*
X123617347Y-88551609D01*
X123619043Y-88550476D01*
X123638690Y-88424045D01*
X125361310Y-88424045D01*
X125380957Y-88550476D01*
X125619707Y-88649800D01*
X125878293Y-88650198D01*
X126117347Y-88551609D01*
X126119043Y-88550476D01*
X126138690Y-88424045D01*
X125750000Y-88035355D01*
X125361310Y-88424045D01*
X123638690Y-88424045D01*
X123250000Y-88035355D01*
X122861310Y-88424045D01*
X121138690Y-88424045D01*
X120750000Y-88035355D01*
X120361310Y-88424045D01*
X119550000Y-88424045D01*
X119550000Y-88128293D01*
X120099802Y-88128293D01*
X120198391Y-88367347D01*
X120199524Y-88369043D01*
X120325955Y-88388690D01*
X120714645Y-88000000D01*
X120785355Y-88000000D01*
X121174045Y-88388690D01*
X121300476Y-88369043D01*
X121399800Y-88130293D01*
X121399803Y-88128293D01*
X122599802Y-88128293D01*
X122698391Y-88367347D01*
X122699524Y-88369043D01*
X122825955Y-88388690D01*
X123214645Y-88000000D01*
X123285355Y-88000000D01*
X123674045Y-88388690D01*
X123800476Y-88369043D01*
X123899800Y-88130293D01*
X123899803Y-88128293D01*
X125099802Y-88128293D01*
X125198391Y-88367347D01*
X125199524Y-88369043D01*
X125325955Y-88388690D01*
X125714645Y-88000000D01*
X125785355Y-88000000D01*
X126174045Y-88388690D01*
X126300476Y-88369043D01*
X126399800Y-88130293D01*
X126400198Y-87871707D01*
X126301609Y-87632653D01*
X126300476Y-87630957D01*
X126174045Y-87611310D01*
X125785355Y-88000000D01*
X125714645Y-88000000D01*
X125325955Y-87611310D01*
X125199524Y-87630957D01*
X125100200Y-87869707D01*
X125099802Y-88128293D01*
X123899803Y-88128293D01*
X123900198Y-87871707D01*
X123801609Y-87632653D01*
X123800476Y-87630957D01*
X123674045Y-87611310D01*
X123285355Y-88000000D01*
X123214645Y-88000000D01*
X122825955Y-87611310D01*
X122699524Y-87630957D01*
X122600200Y-87869707D01*
X122599802Y-88128293D01*
X121399803Y-88128293D01*
X121400198Y-87871707D01*
X121301609Y-87632653D01*
X121300476Y-87630957D01*
X121174045Y-87611310D01*
X120785355Y-88000000D01*
X120714645Y-88000000D01*
X120325955Y-87611310D01*
X120199524Y-87630957D01*
X120100200Y-87869707D01*
X120099802Y-88128293D01*
X119550000Y-88128293D01*
X119550000Y-87575955D01*
X120361310Y-87575955D01*
X120750000Y-87964645D01*
X121138690Y-87575955D01*
X122861310Y-87575955D01*
X123250000Y-87964645D01*
X123638690Y-87575955D01*
X125361310Y-87575955D01*
X125750000Y-87964645D01*
X126138690Y-87575955D01*
X126119043Y-87449524D01*
X125880293Y-87350200D01*
X125621707Y-87349802D01*
X125382653Y-87448391D01*
X125380957Y-87449524D01*
X125361310Y-87575955D01*
X123638690Y-87575955D01*
X123619043Y-87449524D01*
X123380293Y-87350200D01*
X123121707Y-87349802D01*
X122882653Y-87448391D01*
X122880957Y-87449524D01*
X122861310Y-87575955D01*
X121138690Y-87575955D01*
X121119043Y-87449524D01*
X120880293Y-87350200D01*
X120621707Y-87349802D01*
X120382653Y-87448391D01*
X120380957Y-87449524D01*
X120361310Y-87575955D01*
X119550000Y-87575955D01*
X119550000Y-86349990D01*
X119515746Y-86177782D01*
X119418198Y-86031792D01*
X119310451Y-85924045D01*
X120361310Y-85924045D01*
X120380957Y-86050476D01*
X120619707Y-86149800D01*
X120878293Y-86150198D01*
X121117347Y-86051609D01*
X121119043Y-86050476D01*
X121138690Y-85924045D01*
X122861310Y-85924045D01*
X122880957Y-86050476D01*
X123119707Y-86149800D01*
X123378293Y-86150198D01*
X123617347Y-86051609D01*
X123619043Y-86050476D01*
X123638690Y-85924045D01*
X125361310Y-85924045D01*
X125380957Y-86050476D01*
X125619707Y-86149800D01*
X125878293Y-86150198D01*
X126117347Y-86051609D01*
X126119043Y-86050476D01*
X126138690Y-85924045D01*
X125750000Y-85535355D01*
X125361310Y-85924045D01*
X123638690Y-85924045D01*
X123250000Y-85535355D01*
X122861310Y-85924045D01*
X121138690Y-85924045D01*
X120750000Y-85535355D01*
X120361310Y-85924045D01*
X119310451Y-85924045D01*
X119049988Y-85663582D01*
X119050018Y-85628293D01*
X120099802Y-85628293D01*
X120198391Y-85867347D01*
X120199524Y-85869043D01*
X120325955Y-85888690D01*
X120714645Y-85500000D01*
X120785355Y-85500000D01*
X121174045Y-85888690D01*
X121300476Y-85869043D01*
X121399800Y-85630293D01*
X121399803Y-85628293D01*
X122599802Y-85628293D01*
X122698391Y-85867347D01*
X122699524Y-85869043D01*
X122825955Y-85888690D01*
X123214645Y-85500000D01*
X123285355Y-85500000D01*
X123674045Y-85888690D01*
X123800476Y-85869043D01*
X123899800Y-85630293D01*
X123899803Y-85628293D01*
X125099802Y-85628293D01*
X125198391Y-85867347D01*
X125199524Y-85869043D01*
X125325955Y-85888690D01*
X125714645Y-85500000D01*
X125785355Y-85500000D01*
X126174045Y-85888690D01*
X126300476Y-85869043D01*
X126399800Y-85630293D01*
X126400198Y-85371707D01*
X126301609Y-85132653D01*
X126300476Y-85130957D01*
X126174045Y-85111310D01*
X125785355Y-85500000D01*
X125714645Y-85500000D01*
X125325955Y-85111310D01*
X125199524Y-85130957D01*
X125100200Y-85369707D01*
X125099802Y-85628293D01*
X123899803Y-85628293D01*
X123900198Y-85371707D01*
X123801609Y-85132653D01*
X123800476Y-85130957D01*
X123674045Y-85111310D01*
X123285355Y-85500000D01*
X123214645Y-85500000D01*
X122825955Y-85111310D01*
X122699524Y-85130957D01*
X122600200Y-85369707D01*
X122599802Y-85628293D01*
X121399803Y-85628293D01*
X121400198Y-85371707D01*
X121301609Y-85132653D01*
X121300476Y-85130957D01*
X121174045Y-85111310D01*
X120785355Y-85500000D01*
X120714645Y-85500000D01*
X120325955Y-85111310D01*
X120199524Y-85130957D01*
X120100200Y-85369707D01*
X120099802Y-85628293D01*
X119050018Y-85628293D01*
X119050112Y-85521264D01*
X119000665Y-85401594D01*
X119156855Y-85245677D01*
X119227329Y-85075955D01*
X120361310Y-85075955D01*
X120750000Y-85464645D01*
X121138690Y-85075955D01*
X122861310Y-85075955D01*
X123250000Y-85464645D01*
X123638690Y-85075955D01*
X125361310Y-85075955D01*
X125750000Y-85464645D01*
X126138690Y-85075955D01*
X126119043Y-84949524D01*
X125880293Y-84850200D01*
X125621707Y-84849802D01*
X125382653Y-84948391D01*
X125380957Y-84949524D01*
X125361310Y-85075955D01*
X123638690Y-85075955D01*
X123619043Y-84949524D01*
X123380293Y-84850200D01*
X123121707Y-84849802D01*
X122882653Y-84948391D01*
X122880957Y-84949524D01*
X122861310Y-85075955D01*
X121138690Y-85075955D01*
X121119043Y-84949524D01*
X120880293Y-84850200D01*
X120621707Y-84849802D01*
X120382653Y-84948391D01*
X120380957Y-84949524D01*
X120361310Y-85075955D01*
X119227329Y-85075955D01*
X119256020Y-85006861D01*
X119256245Y-84748275D01*
X119157497Y-84509287D01*
X118974809Y-84326279D01*
X118735993Y-84227114D01*
X118549977Y-84226952D01*
X118550112Y-84071274D01*
X118451364Y-83832286D01*
X118268676Y-83649278D01*
X118029860Y-83550113D01*
X117771274Y-83549888D01*
X117532286Y-83648636D01*
X117430744Y-83750000D01*
X117400000Y-83750000D01*
X117227792Y-83784254D01*
X117112690Y-83861163D01*
X117081802Y-83881802D01*
X116781802Y-84181802D01*
X116684254Y-84327792D01*
X116650000Y-84500000D01*
X116650000Y-86900000D01*
X116684254Y-87072208D01*
X116750448Y-87171274D01*
X116781802Y-87218198D01*
X116850012Y-87286408D01*
X116849888Y-87428726D01*
X116948636Y-87667714D01*
X117131324Y-87850722D01*
X117370140Y-87949887D01*
X117628726Y-87950112D01*
X117867714Y-87851364D01*
X118050722Y-87668676D01*
X118149887Y-87429860D01*
X118150000Y-87299992D01*
X118150000Y-90269130D01*
X118013603Y-90405527D01*
X117453689Y-90405527D01*
X117281481Y-90439781D01*
X117195362Y-90497324D01*
X117033195Y-90497183D01*
X116794207Y-90595931D01*
X116611199Y-90778619D01*
X116512034Y-91017435D01*
X116511809Y-91276021D01*
X115338951Y-91276021D01*
X115133115Y-91069826D01*
X114820817Y-90940148D01*
X114482666Y-90939853D01*
X114170143Y-91068985D01*
X113930826Y-91307885D01*
X113801148Y-91620183D01*
X113800853Y-91958334D01*
X113849058Y-92075000D01*
X113421024Y-92075000D01*
X113468852Y-91959817D01*
X113469147Y-91621666D01*
X113340015Y-91309143D01*
X113101115Y-91069826D01*
X112788817Y-90940148D01*
X112450666Y-90939853D01*
X112138143Y-91068985D01*
X111898826Y-91307885D01*
X111769148Y-91620183D01*
X111768853Y-91958334D01*
X111817058Y-92075000D01*
X107041860Y-92075000D01*
X106783144Y-92023538D01*
X106599300Y-91900698D01*
X106476462Y-91716857D01*
X106425000Y-91458140D01*
X106425000Y-90916856D01*
X108270000Y-90916856D01*
X108399702Y-90892451D01*
X108518825Y-90815797D01*
X108598741Y-90698837D01*
X108626856Y-90560000D01*
X108626856Y-88120000D01*
X108602451Y-87990298D01*
X108540057Y-87893334D01*
X109649853Y-87893334D01*
X109778985Y-88205857D01*
X110017885Y-88445174D01*
X110330183Y-88574852D01*
X110668334Y-88575147D01*
X110980857Y-88446015D01*
X111098350Y-88328726D01*
X111449888Y-88328726D01*
X111548636Y-88567714D01*
X111731324Y-88750722D01*
X111970140Y-88849887D01*
X112228726Y-88850112D01*
X112467714Y-88751364D01*
X112519168Y-88700000D01*
X114139035Y-88700000D01*
X114469595Y-89030560D01*
X114469533Y-89102230D01*
X114568281Y-89341218D01*
X114637786Y-89410844D01*
X114642590Y-89435000D01*
X112835124Y-89435000D01*
X112751364Y-89232286D01*
X112568676Y-89049278D01*
X112329860Y-88950113D01*
X112071274Y-88949888D01*
X111832286Y-89048636D01*
X111649278Y-89231324D01*
X111550113Y-89470140D01*
X111549888Y-89728726D01*
X111648636Y-89967714D01*
X111831324Y-90150722D01*
X112070140Y-90249887D01*
X112236894Y-90250032D01*
X112312792Y-90300746D01*
X112485000Y-90335000D01*
X114469565Y-90335000D01*
X114469533Y-90372231D01*
X114568281Y-90611219D01*
X114750969Y-90794227D01*
X114989785Y-90893392D01*
X115248371Y-90893617D01*
X115487359Y-90794869D01*
X115581629Y-90700764D01*
X115731324Y-90850722D01*
X115970140Y-90949887D01*
X116228726Y-90950112D01*
X116467714Y-90851364D01*
X116650722Y-90668676D01*
X116749887Y-90429860D01*
X116750112Y-90171274D01*
X116651364Y-89932286D01*
X116468676Y-89749278D01*
X116229860Y-89650113D01*
X116157156Y-89650050D01*
X115722863Y-89215756D01*
X115769532Y-89103364D01*
X115769757Y-88844778D01*
X115671009Y-88605790D01*
X115488321Y-88422782D01*
X115249505Y-88323617D01*
X115176801Y-88323554D01*
X114699694Y-87846447D01*
X114537483Y-87738060D01*
X114534668Y-87737500D01*
X114346141Y-87700000D01*
X113284999Y-87700000D01*
X113284999Y-87485033D01*
X113465183Y-87559852D01*
X113803334Y-87560147D01*
X114115857Y-87431015D01*
X114355174Y-87192115D01*
X114484852Y-86879817D01*
X114485147Y-86541666D01*
X114356015Y-86229143D01*
X114117115Y-85989826D01*
X113804817Y-85860148D01*
X113466666Y-85859853D01*
X113284999Y-85934916D01*
X113284999Y-83801820D01*
X113348791Y-83738028D01*
X113420461Y-83738090D01*
X113659449Y-83639342D01*
X113842457Y-83456654D01*
X113855997Y-83424045D01*
X120361310Y-83424045D01*
X120380957Y-83550476D01*
X120619707Y-83649800D01*
X120878293Y-83650198D01*
X121117347Y-83551609D01*
X121119043Y-83550476D01*
X121138690Y-83424045D01*
X122861310Y-83424045D01*
X122880957Y-83550476D01*
X123119707Y-83649800D01*
X123378293Y-83650198D01*
X123617347Y-83551609D01*
X123619043Y-83550476D01*
X123638690Y-83424045D01*
X125361310Y-83424045D01*
X125380957Y-83550476D01*
X125619707Y-83649800D01*
X125878293Y-83650198D01*
X126117347Y-83551609D01*
X126119043Y-83550476D01*
X126138690Y-83424045D01*
X125750000Y-83035355D01*
X125361310Y-83424045D01*
X123638690Y-83424045D01*
X123250000Y-83035355D01*
X122861310Y-83424045D01*
X121138690Y-83424045D01*
X120750000Y-83035355D01*
X120361310Y-83424045D01*
X113855997Y-83424045D01*
X113941622Y-83217838D01*
X113941699Y-83128293D01*
X120099802Y-83128293D01*
X120198391Y-83367347D01*
X120199524Y-83369043D01*
X120325955Y-83388690D01*
X120714645Y-83000000D01*
X120785355Y-83000000D01*
X121174045Y-83388690D01*
X121300476Y-83369043D01*
X121399800Y-83130293D01*
X121399803Y-83128293D01*
X122599802Y-83128293D01*
X122698391Y-83367347D01*
X122699524Y-83369043D01*
X122825955Y-83388690D01*
X123214645Y-83000000D01*
X123285355Y-83000000D01*
X123674045Y-83388690D01*
X123800476Y-83369043D01*
X123899800Y-83130293D01*
X123899803Y-83128293D01*
X125099802Y-83128293D01*
X125198391Y-83367347D01*
X125199524Y-83369043D01*
X125325955Y-83388690D01*
X125714645Y-83000000D01*
X125785355Y-83000000D01*
X126174045Y-83388690D01*
X126300476Y-83369043D01*
X126399800Y-83130293D01*
X126400198Y-82871707D01*
X126301609Y-82632653D01*
X126300476Y-82630957D01*
X126174045Y-82611310D01*
X125785355Y-83000000D01*
X125714645Y-83000000D01*
X125325955Y-82611310D01*
X125199524Y-82630957D01*
X125100200Y-82869707D01*
X125099802Y-83128293D01*
X123899803Y-83128293D01*
X123900198Y-82871707D01*
X123801609Y-82632653D01*
X123800476Y-82630957D01*
X123674045Y-82611310D01*
X123285355Y-83000000D01*
X123214645Y-83000000D01*
X122825955Y-82611310D01*
X122699524Y-82630957D01*
X122600200Y-82869707D01*
X122599802Y-83128293D01*
X121399803Y-83128293D01*
X121400198Y-82871707D01*
X121301609Y-82632653D01*
X121300476Y-82630957D01*
X121174045Y-82611310D01*
X120785355Y-83000000D01*
X120714645Y-83000000D01*
X120325955Y-82611310D01*
X120199524Y-82630957D01*
X120100200Y-82869707D01*
X120099802Y-83128293D01*
X113941699Y-83128293D01*
X113941847Y-82959252D01*
X113843099Y-82720264D01*
X113699043Y-82575955D01*
X120361310Y-82575955D01*
X120750000Y-82964645D01*
X121138690Y-82575955D01*
X122861310Y-82575955D01*
X123250000Y-82964645D01*
X123638690Y-82575955D01*
X125361310Y-82575955D01*
X125750000Y-82964645D01*
X126138690Y-82575955D01*
X126119043Y-82449524D01*
X125880293Y-82350200D01*
X125621707Y-82349802D01*
X125382653Y-82448391D01*
X125380957Y-82449524D01*
X125361310Y-82575955D01*
X123638690Y-82575955D01*
X123619043Y-82449524D01*
X123380293Y-82350200D01*
X123121707Y-82349802D01*
X122882653Y-82448391D01*
X122880957Y-82449524D01*
X122861310Y-82575955D01*
X121138690Y-82575955D01*
X121119043Y-82449524D01*
X120880293Y-82350200D01*
X120621707Y-82349802D01*
X120382653Y-82448391D01*
X120380957Y-82449524D01*
X120361310Y-82575955D01*
X113699043Y-82575955D01*
X113660411Y-82537256D01*
X113421595Y-82438091D01*
X113163009Y-82437866D01*
X112924021Y-82536614D01*
X112741013Y-82719302D01*
X112641848Y-82958118D01*
X112641785Y-83030822D01*
X112431446Y-83241161D01*
X112323059Y-83403372D01*
X112284999Y-83594714D01*
X112284999Y-87573009D01*
X112229860Y-87550113D01*
X111971274Y-87549888D01*
X111732286Y-87648636D01*
X111549278Y-87831324D01*
X111450113Y-88070140D01*
X111449888Y-88328726D01*
X111098350Y-88328726D01*
X111220174Y-88207115D01*
X111349852Y-87894817D01*
X111350147Y-87556666D01*
X111221015Y-87244143D01*
X110982115Y-87004826D01*
X110669817Y-86875148D01*
X110331666Y-86874853D01*
X110019143Y-87003985D01*
X109779826Y-87242885D01*
X109650148Y-87555183D01*
X109649853Y-87893334D01*
X108540057Y-87893334D01*
X108525797Y-87871175D01*
X108408837Y-87791259D01*
X108270000Y-87763144D01*
X106425000Y-87763144D01*
X106425000Y-83443334D01*
X109649853Y-83443334D01*
X109778985Y-83755857D01*
X110017885Y-83995174D01*
X110330183Y-84124852D01*
X110668334Y-84125147D01*
X110980857Y-83996015D01*
X111220174Y-83757115D01*
X111349852Y-83444817D01*
X111350147Y-83106666D01*
X111221015Y-82794143D01*
X110982115Y-82554826D01*
X110669817Y-82425148D01*
X110331666Y-82424853D01*
X110019143Y-82553985D01*
X109779826Y-82792885D01*
X109650148Y-83105183D01*
X109649853Y-83443334D01*
X106425000Y-83443334D01*
X106425000Y-83236856D01*
X108270000Y-83236856D01*
X108399702Y-83212451D01*
X108518825Y-83135797D01*
X108598741Y-83018837D01*
X108626856Y-82880000D01*
X108626856Y-80440000D01*
X108602451Y-80310298D01*
X108525797Y-80191175D01*
X108408837Y-80111259D01*
X108270000Y-80083144D01*
X106425000Y-80083144D01*
X106425000Y-79541860D01*
X106476462Y-79283143D01*
X106599300Y-79099302D01*
X106783144Y-78976462D01*
X107041860Y-78925000D01*
X127150013Y-78925000D01*
X127149888Y-79068715D01*
G36*
X127149888Y-94068715D02*
X127248636Y-94307703D01*
X127300000Y-94359157D01*
X127300000Y-97400000D01*
X127326122Y-97531324D01*
X127338060Y-97591342D01*
X127446447Y-97753553D01*
X127549950Y-97857057D01*
X127549888Y-97928726D01*
X127648636Y-98167714D01*
X127831324Y-98350722D01*
X128070140Y-98449887D01*
X128328726Y-98450112D01*
X128567714Y-98351364D01*
X128750722Y-98168676D01*
X128849887Y-97929860D01*
X128850112Y-97671274D01*
X128751364Y-97432286D01*
X128568676Y-97249278D01*
X128329860Y-97150113D01*
X128300000Y-97150087D01*
X128300000Y-94359298D01*
X128350722Y-94308665D01*
X128449887Y-94069849D01*
X128450013Y-93925000D01*
X135208719Y-93925000D01*
X135101175Y-93994203D01*
X135021259Y-94111163D01*
X134993144Y-94250000D01*
X134993144Y-96050000D01*
X135017549Y-96179702D01*
X135094203Y-96298825D01*
X135211163Y-96378741D01*
X135350000Y-96406856D01*
X138065061Y-96406856D01*
X137984254Y-96527792D01*
X137950000Y-96700000D01*
X137950000Y-97430778D01*
X137849278Y-97531324D01*
X137750113Y-97770140D01*
X137749888Y-98028726D01*
X137848636Y-98267714D01*
X138031324Y-98450722D01*
X138270140Y-98549887D01*
X138528726Y-98550112D01*
X138767714Y-98451364D01*
X138950722Y-98268676D01*
X139049887Y-98029860D01*
X139050112Y-97771274D01*
X138951364Y-97532286D01*
X138850000Y-97430744D01*
X138850000Y-96886396D01*
X138886396Y-96850000D01*
X139340002Y-96850000D01*
X139512210Y-96815746D01*
X139658200Y-96718198D01*
X139818198Y-96558200D01*
X139915746Y-96412210D01*
X139950000Y-96240002D01*
X139950000Y-95310660D01*
X140018198Y-95242462D01*
X140115746Y-95096472D01*
X140138842Y-94980361D01*
X140250722Y-94868676D01*
X140349887Y-94629860D01*
X140350112Y-94371274D01*
X140251364Y-94132286D01*
X140068676Y-93949278D01*
X140010208Y-93925000D01*
X141958140Y-93925000D01*
X142216857Y-93976462D01*
X142400698Y-94099300D01*
X142523538Y-94283144D01*
X142575000Y-94541860D01*
X142575000Y-106458140D01*
X142523538Y-106716856D01*
X142400698Y-106900700D01*
X142216857Y-107023538D01*
X141958140Y-107075000D01*
X139291281Y-107075000D01*
X139398825Y-107005797D01*
X139478741Y-106888837D01*
X139506856Y-106750000D01*
X139506856Y-104950000D01*
X139482451Y-104820298D01*
X139405797Y-104701175D01*
X139288837Y-104621259D01*
X139150000Y-104593144D01*
X135350000Y-104593144D01*
X135220298Y-104617549D01*
X135101175Y-104694203D01*
X135021259Y-104811163D01*
X135009172Y-104870850D01*
X134737353Y-104598556D01*
X134259721Y-104400226D01*
X133742548Y-104399774D01*
X133264571Y-104597271D01*
X132898556Y-104962647D01*
X132700226Y-105440279D01*
X132699774Y-105957452D01*
X132786470Y-106167270D01*
X132672948Y-106053550D01*
X132434132Y-105954385D01*
X132175546Y-105954160D01*
X131936558Y-106052908D01*
X131753550Y-106235596D01*
X131654385Y-106474412D01*
X131654319Y-106550000D01*
X127780395Y-106550000D01*
X127780437Y-106501599D01*
X127681689Y-106262611D01*
X127499001Y-106079603D01*
X127260185Y-105980438D01*
X127001599Y-105980213D01*
X126762611Y-106078961D01*
X126579603Y-106261649D01*
X126480438Y-106500465D01*
X126480213Y-106759051D01*
X126578961Y-106998039D01*
X126655787Y-107075000D01*
X115453024Y-107075000D01*
X115500852Y-106959817D01*
X115501147Y-106621666D01*
X115372015Y-106309143D01*
X115338951Y-106276021D01*
X116511809Y-106276021D01*
X116610557Y-106515009D01*
X116793245Y-106698017D01*
X117032061Y-106797182D01*
X117290647Y-106797407D01*
X117529635Y-106698659D01*
X117712643Y-106515971D01*
X117800027Y-106305527D01*
X118199999Y-106305527D01*
X118372207Y-106271273D01*
X118449983Y-106219304D01*
X118449888Y-106328726D01*
X118548636Y-106567714D01*
X118731324Y-106750722D01*
X118970140Y-106849887D01*
X119228726Y-106850112D01*
X119467714Y-106751364D01*
X119650722Y-106568676D01*
X119749887Y-106329860D01*
X119750112Y-106071274D01*
X119651364Y-105832286D01*
X119550000Y-105730744D01*
X119550000Y-103961745D01*
X126499881Y-103961745D01*
X126598629Y-104200733D01*
X126781317Y-104383741D01*
X127020133Y-104482906D01*
X127278719Y-104483131D01*
X127517707Y-104384383D01*
X127700715Y-104201695D01*
X127799880Y-103962879D01*
X127800005Y-103819403D01*
X127918198Y-103701210D01*
X127977472Y-103612500D01*
X130800000Y-103612500D01*
X130800000Y-104069619D01*
X130853284Y-104198259D01*
X130951741Y-104296715D01*
X131080380Y-104350000D01*
X132537500Y-104350000D01*
X132625000Y-104262500D01*
X132625000Y-103525000D01*
X132675000Y-103525000D01*
X132675000Y-104262500D01*
X132762500Y-104350000D01*
X134219620Y-104350000D01*
X134348259Y-104296715D01*
X134446716Y-104198259D01*
X134500000Y-104069619D01*
X134500000Y-103612500D01*
X134412500Y-103525000D01*
X132675000Y-103525000D01*
X132625000Y-103525000D01*
X130887500Y-103525000D01*
X130800000Y-103612500D01*
X127977472Y-103612500D01*
X128015746Y-103555220D01*
X128050000Y-103383012D01*
X128050000Y-101000000D01*
X130793144Y-101000000D01*
X130793144Y-102000000D01*
X130817549Y-102129702D01*
X130894203Y-102248825D01*
X131011163Y-102328741D01*
X131150000Y-102356856D01*
X131760023Y-102356856D01*
X131759890Y-102509693D01*
X131817864Y-102650000D01*
X131080380Y-102650000D01*
X130951741Y-102703285D01*
X130853284Y-102801741D01*
X130800000Y-102930381D01*
X130800000Y-103387500D01*
X130887500Y-103475000D01*
X132625000Y-103475000D01*
X132625000Y-103455000D01*
X132675000Y-103455000D01*
X132675000Y-103475000D01*
X134412500Y-103475000D01*
X134500000Y-103387500D01*
X134500000Y-102930381D01*
X134446716Y-102801741D01*
X134348259Y-102703285D01*
X134219620Y-102650000D01*
X133002099Y-102650000D01*
X133059889Y-102510827D01*
X133060023Y-102356856D01*
X134150000Y-102356856D01*
X134279702Y-102332451D01*
X134398825Y-102255797D01*
X134478741Y-102138837D01*
X134506856Y-102000000D01*
X134506856Y-101000000D01*
X134482451Y-100870298D01*
X134405797Y-100751175D01*
X134288837Y-100671259D01*
X134150000Y-100643144D01*
X131150000Y-100643144D01*
X131020298Y-100667549D01*
X130901175Y-100744203D01*
X130821259Y-100861163D01*
X130793144Y-101000000D01*
X128050000Y-101000000D01*
X128050000Y-100829224D01*
X128150722Y-100728678D01*
X128249887Y-100489862D01*
X128250112Y-100231276D01*
X128151364Y-99992288D01*
X128138658Y-99979559D01*
X129996680Y-99979559D01*
X130095428Y-100218547D01*
X130278116Y-100401555D01*
X130516932Y-100500720D01*
X130775518Y-100500945D01*
X131014506Y-100402197D01*
X131075117Y-100341692D01*
X131150000Y-100356856D01*
X134150000Y-100356856D01*
X134279702Y-100332451D01*
X134398825Y-100255797D01*
X134478741Y-100138837D01*
X134506856Y-100000000D01*
X134506856Y-99000000D01*
X134482451Y-98870298D01*
X134405797Y-98751175D01*
X134288837Y-98671259D01*
X134150000Y-98643144D01*
X131363962Y-98643144D01*
X131650251Y-98356856D01*
X134150000Y-98356856D01*
X134279702Y-98332451D01*
X134398825Y-98255797D01*
X134478741Y-98138837D01*
X134506856Y-98000000D01*
X134506856Y-97000000D01*
X134482451Y-96870298D01*
X134405797Y-96751175D01*
X134288837Y-96671259D01*
X134150000Y-96643144D01*
X131993252Y-96643144D01*
X133144927Y-95491469D01*
X133213536Y-95491529D01*
X133321397Y-95752572D01*
X133546245Y-95977812D01*
X133840172Y-96099861D01*
X134158432Y-96100139D01*
X134452572Y-95978603D01*
X134677812Y-95753755D01*
X134799861Y-95459828D01*
X134800139Y-95141568D01*
X134678603Y-94847428D01*
X134453755Y-94622188D01*
X134159828Y-94500139D01*
X133841568Y-94499861D01*
X133738296Y-94542532D01*
X133709883Y-94473767D01*
X133527195Y-94290759D01*
X133288379Y-94191594D01*
X133029793Y-94191369D01*
X132790805Y-94290117D01*
X132607797Y-94472805D01*
X132508632Y-94711621D01*
X132508507Y-94855097D01*
X131213604Y-96150000D01*
X131009998Y-96150000D01*
X130837790Y-96184254D01*
X130772630Y-96227793D01*
X130691800Y-96281802D01*
X130481802Y-96491800D01*
X130384254Y-96637790D01*
X130350000Y-96809998D01*
X130350000Y-97145665D01*
X130282284Y-97173645D01*
X130099276Y-97356333D01*
X130000111Y-97595149D01*
X129999886Y-97853735D01*
X130098634Y-98092723D01*
X130193222Y-98187477D01*
X130137502Y-98243100D01*
X130038337Y-98481916D01*
X130038112Y-98740502D01*
X130136860Y-98979490D01*
X130319548Y-99162498D01*
X130464701Y-99222771D01*
X130279078Y-99299469D01*
X130096070Y-99482157D01*
X129996905Y-99720973D01*
X129996680Y-99979559D01*
X128138658Y-99979559D01*
X127968676Y-99809280D01*
X127729860Y-99710115D01*
X127471274Y-99709890D01*
X127232286Y-99808638D01*
X127049278Y-99991326D01*
X126950113Y-100230142D01*
X126949888Y-100488728D01*
X127048636Y-100727716D01*
X127150000Y-100829258D01*
X127150000Y-103183019D01*
X127021267Y-103182907D01*
X126782279Y-103281655D01*
X126599271Y-103464343D01*
X126500106Y-103703159D01*
X126499881Y-103961745D01*
X119550000Y-103961745D01*
X119550000Y-103424045D01*
X120361310Y-103424045D01*
X120380957Y-103550476D01*
X120619707Y-103649800D01*
X120878293Y-103650198D01*
X121117347Y-103551609D01*
X121119043Y-103550476D01*
X121138690Y-103424045D01*
X122861310Y-103424045D01*
X122880957Y-103550476D01*
X123119707Y-103649800D01*
X123378293Y-103650198D01*
X123617347Y-103551609D01*
X123619043Y-103550476D01*
X123638690Y-103424045D01*
X125361310Y-103424045D01*
X125380957Y-103550476D01*
X125619707Y-103649800D01*
X125878293Y-103650198D01*
X126117347Y-103551609D01*
X126119043Y-103550476D01*
X126138690Y-103424045D01*
X125750000Y-103035355D01*
X125361310Y-103424045D01*
X123638690Y-103424045D01*
X123250000Y-103035355D01*
X122861310Y-103424045D01*
X121138690Y-103424045D01*
X120750000Y-103035355D01*
X120361310Y-103424045D01*
X119550000Y-103424045D01*
X119550000Y-103128293D01*
X120099802Y-103128293D01*
X120198391Y-103367347D01*
X120199524Y-103369043D01*
X120325955Y-103388690D01*
X120714645Y-103000000D01*
X120785355Y-103000000D01*
X121174045Y-103388690D01*
X121300476Y-103369043D01*
X121399800Y-103130293D01*
X121399803Y-103128293D01*
X122599802Y-103128293D01*
X122698391Y-103367347D01*
X122699524Y-103369043D01*
X122825955Y-103388690D01*
X123214645Y-103000000D01*
X123285355Y-103000000D01*
X123674045Y-103388690D01*
X123800476Y-103369043D01*
X123899800Y-103130293D01*
X123899803Y-103128293D01*
X125099802Y-103128293D01*
X125198391Y-103367347D01*
X125199524Y-103369043D01*
X125325955Y-103388690D01*
X125714645Y-103000000D01*
X125785355Y-103000000D01*
X126174045Y-103388690D01*
X126300476Y-103369043D01*
X126399800Y-103130293D01*
X126400198Y-102871707D01*
X126301609Y-102632653D01*
X126300476Y-102630957D01*
X126174045Y-102611310D01*
X125785355Y-103000000D01*
X125714645Y-103000000D01*
X125325955Y-102611310D01*
X125199524Y-102630957D01*
X125100200Y-102869707D01*
X125099802Y-103128293D01*
X123899803Y-103128293D01*
X123900198Y-102871707D01*
X123801609Y-102632653D01*
X123800476Y-102630957D01*
X123674045Y-102611310D01*
X123285355Y-103000000D01*
X123214645Y-103000000D01*
X122825955Y-102611310D01*
X122699524Y-102630957D01*
X122600200Y-102869707D01*
X122599802Y-103128293D01*
X121399803Y-103128293D01*
X121400198Y-102871707D01*
X121301609Y-102632653D01*
X121300476Y-102630957D01*
X121174045Y-102611310D01*
X120785355Y-103000000D01*
X120714645Y-103000000D01*
X120325955Y-102611310D01*
X120199524Y-102630957D01*
X120100200Y-102869707D01*
X120099802Y-103128293D01*
X119550000Y-103128293D01*
X119550000Y-102575955D01*
X120361310Y-102575955D01*
X120750000Y-102964645D01*
X121138690Y-102575955D01*
X122861310Y-102575955D01*
X123250000Y-102964645D01*
X123638690Y-102575955D01*
X125361310Y-102575955D01*
X125750000Y-102964645D01*
X126138690Y-102575955D01*
X126119043Y-102449524D01*
X125880293Y-102350200D01*
X125621707Y-102349802D01*
X125382653Y-102448391D01*
X125380957Y-102449524D01*
X125361310Y-102575955D01*
X123638690Y-102575955D01*
X123619043Y-102449524D01*
X123380293Y-102350200D01*
X123121707Y-102349802D01*
X122882653Y-102448391D01*
X122880957Y-102449524D01*
X122861310Y-102575955D01*
X121138690Y-102575955D01*
X121119043Y-102449524D01*
X120880293Y-102350200D01*
X120621707Y-102349802D01*
X120382653Y-102448391D01*
X120380957Y-102449524D01*
X120361310Y-102575955D01*
X119550000Y-102575955D01*
X119550000Y-101349990D01*
X119515746Y-101177782D01*
X119418198Y-101031792D01*
X119310451Y-100924045D01*
X120361310Y-100924045D01*
X120380957Y-101050476D01*
X120619707Y-101149800D01*
X120878293Y-101150198D01*
X121117347Y-101051609D01*
X121119043Y-101050476D01*
X121138690Y-100924045D01*
X122861310Y-100924045D01*
X122880957Y-101050476D01*
X123119707Y-101149800D01*
X123378293Y-101150198D01*
X123617347Y-101051609D01*
X123619043Y-101050476D01*
X123638690Y-100924045D01*
X125361310Y-100924045D01*
X125380957Y-101050476D01*
X125619707Y-101149800D01*
X125878293Y-101150198D01*
X126117347Y-101051609D01*
X126119043Y-101050476D01*
X126138690Y-100924045D01*
X125750000Y-100535355D01*
X125361310Y-100924045D01*
X123638690Y-100924045D01*
X123250000Y-100535355D01*
X122861310Y-100924045D01*
X121138690Y-100924045D01*
X120750000Y-100535355D01*
X120361310Y-100924045D01*
X119310451Y-100924045D01*
X119049988Y-100663582D01*
X119050018Y-100628293D01*
X120099802Y-100628293D01*
X120198391Y-100867347D01*
X120199524Y-100869043D01*
X120325955Y-100888690D01*
X120714645Y-100500000D01*
X120785355Y-100500000D01*
X121174045Y-100888690D01*
X121300476Y-100869043D01*
X121399800Y-100630293D01*
X121399803Y-100628293D01*
X122599802Y-100628293D01*
X122698391Y-100867347D01*
X122699524Y-100869043D01*
X122825955Y-100888690D01*
X123214645Y-100500000D01*
X123285355Y-100500000D01*
X123674045Y-100888690D01*
X123800476Y-100869043D01*
X123899800Y-100630293D01*
X123899803Y-100628293D01*
X125099802Y-100628293D01*
X125198391Y-100867347D01*
X125199524Y-100869043D01*
X125325955Y-100888690D01*
X125714645Y-100500000D01*
X125785355Y-100500000D01*
X126174045Y-100888690D01*
X126300476Y-100869043D01*
X126399800Y-100630293D01*
X126400198Y-100371707D01*
X126301609Y-100132653D01*
X126300476Y-100130957D01*
X126174045Y-100111310D01*
X125785355Y-100500000D01*
X125714645Y-100500000D01*
X125325955Y-100111310D01*
X125199524Y-100130957D01*
X125100200Y-100369707D01*
X125099802Y-100628293D01*
X123899803Y-100628293D01*
X123900198Y-100371707D01*
X123801609Y-100132653D01*
X123800476Y-100130957D01*
X123674045Y-100111310D01*
X123285355Y-100500000D01*
X123214645Y-100500000D01*
X122825955Y-100111310D01*
X122699524Y-100130957D01*
X122600200Y-100369707D01*
X122599802Y-100628293D01*
X121399803Y-100628293D01*
X121400198Y-100371707D01*
X121301609Y-100132653D01*
X121300476Y-100130957D01*
X121174045Y-100111310D01*
X120785355Y-100500000D01*
X120714645Y-100500000D01*
X120325955Y-100111310D01*
X120199524Y-100130957D01*
X120100200Y-100369707D01*
X120099802Y-100628293D01*
X119050018Y-100628293D01*
X119050112Y-100521264D01*
X119000665Y-100401594D01*
X119156855Y-100245677D01*
X119227329Y-100075955D01*
X120361310Y-100075955D01*
X120750000Y-100464645D01*
X121138690Y-100075955D01*
X122861310Y-100075955D01*
X123250000Y-100464645D01*
X123638690Y-100075955D01*
X125361310Y-100075955D01*
X125750000Y-100464645D01*
X126138690Y-100075955D01*
X126119043Y-99949524D01*
X125880293Y-99850200D01*
X125621707Y-99849802D01*
X125382653Y-99948391D01*
X125380957Y-99949524D01*
X125361310Y-100075955D01*
X123638690Y-100075955D01*
X123619043Y-99949524D01*
X123380293Y-99850200D01*
X123121707Y-99849802D01*
X122882653Y-99948391D01*
X122880957Y-99949524D01*
X122861310Y-100075955D01*
X121138690Y-100075955D01*
X121119043Y-99949524D01*
X120880293Y-99850200D01*
X120621707Y-99849802D01*
X120382653Y-99948391D01*
X120380957Y-99949524D01*
X120361310Y-100075955D01*
X119227329Y-100075955D01*
X119256020Y-100006861D01*
X119256245Y-99748275D01*
X119157497Y-99509287D01*
X118974809Y-99326279D01*
X118735993Y-99227114D01*
X118549977Y-99226952D01*
X118550112Y-99071274D01*
X118451364Y-98832286D01*
X118268676Y-98649278D01*
X118029860Y-98550113D01*
X117771274Y-98549888D01*
X117532286Y-98648636D01*
X117430744Y-98750000D01*
X117400000Y-98750000D01*
X117227792Y-98784254D01*
X117112690Y-98861163D01*
X117081802Y-98881802D01*
X116781802Y-99181802D01*
X116684254Y-99327792D01*
X116650000Y-99500000D01*
X116650000Y-101900000D01*
X116684254Y-102072208D01*
X116750448Y-102171274D01*
X116781802Y-102218198D01*
X116850012Y-102286408D01*
X116849888Y-102428726D01*
X116948636Y-102667714D01*
X117131324Y-102850722D01*
X117370140Y-102949887D01*
X117628726Y-102950112D01*
X117867714Y-102851364D01*
X118050722Y-102668676D01*
X118149887Y-102429860D01*
X118150000Y-102299992D01*
X118150000Y-105269130D01*
X118013603Y-105405527D01*
X117453689Y-105405527D01*
X117281481Y-105439781D01*
X117195362Y-105497324D01*
X117033195Y-105497183D01*
X116794207Y-105595931D01*
X116611199Y-105778619D01*
X116512034Y-106017435D01*
X116511809Y-106276021D01*
X115338951Y-106276021D01*
X115133115Y-106069826D01*
X114820817Y-105940148D01*
X114482666Y-105939853D01*
X114170143Y-106068985D01*
X113930826Y-106307885D01*
X113801148Y-106620183D01*
X113800853Y-106958334D01*
X113849058Y-107075000D01*
X113421024Y-107075000D01*
X113468852Y-106959817D01*
X113469147Y-106621666D01*
X113340015Y-106309143D01*
X113101115Y-106069826D01*
X112788817Y-105940148D01*
X112450666Y-105939853D01*
X112138143Y-106068985D01*
X111898826Y-106307885D01*
X111769148Y-106620183D01*
X111768853Y-106958334D01*
X111817058Y-107075000D01*
X107041860Y-107075000D01*
X106783144Y-107023538D01*
X106599300Y-106900698D01*
X106476462Y-106716857D01*
X106425000Y-106458140D01*
X106425000Y-105916856D01*
X108270000Y-105916856D01*
X108399702Y-105892451D01*
X108518825Y-105815797D01*
X108598741Y-105698837D01*
X108626856Y-105560000D01*
X108626856Y-103120000D01*
X108602451Y-102990298D01*
X108540057Y-102893334D01*
X109649853Y-102893334D01*
X109778985Y-103205857D01*
X110017885Y-103445174D01*
X110330183Y-103574852D01*
X110668334Y-103575147D01*
X110980857Y-103446015D01*
X111098350Y-103328726D01*
X111449888Y-103328726D01*
X111548636Y-103567714D01*
X111731324Y-103750722D01*
X111970140Y-103849887D01*
X112228726Y-103850112D01*
X112467714Y-103751364D01*
X112519168Y-103700000D01*
X114139035Y-103700000D01*
X114469595Y-104030560D01*
X114469533Y-104102230D01*
X114568281Y-104341218D01*
X114637786Y-104410844D01*
X114642590Y-104435000D01*
X112835124Y-104435000D01*
X112751364Y-104232286D01*
X112568676Y-104049278D01*
X112329860Y-103950113D01*
X112071274Y-103949888D01*
X111832286Y-104048636D01*
X111649278Y-104231324D01*
X111550113Y-104470140D01*
X111549888Y-104728726D01*
X111648636Y-104967714D01*
X111831324Y-105150722D01*
X112070140Y-105249887D01*
X112236894Y-105250032D01*
X112312792Y-105300746D01*
X112485000Y-105335000D01*
X114469565Y-105335000D01*
X114469533Y-105372231D01*
X114568281Y-105611219D01*
X114750969Y-105794227D01*
X114989785Y-105893392D01*
X115248371Y-105893617D01*
X115487359Y-105794869D01*
X115581629Y-105700764D01*
X115731324Y-105850722D01*
X115970140Y-105949887D01*
X116228726Y-105950112D01*
X116467714Y-105851364D01*
X116650722Y-105668676D01*
X116749887Y-105429860D01*
X116750112Y-105171274D01*
X116651364Y-104932286D01*
X116468676Y-104749278D01*
X116229860Y-104650113D01*
X116157156Y-104650050D01*
X115722863Y-104215756D01*
X115769532Y-104103364D01*
X115769757Y-103844778D01*
X115671009Y-103605790D01*
X115488321Y-103422782D01*
X115249505Y-103323617D01*
X115176801Y-103323554D01*
X114699694Y-102846447D01*
X114537483Y-102738060D01*
X114534668Y-102737500D01*
X114346141Y-102700000D01*
X113284999Y-102700000D01*
X113284999Y-102485033D01*
X113465183Y-102559852D01*
X113803334Y-102560147D01*
X114115857Y-102431015D01*
X114355174Y-102192115D01*
X114484852Y-101879817D01*
X114485147Y-101541666D01*
X114356015Y-101229143D01*
X114117115Y-100989826D01*
X113804817Y-100860148D01*
X113466666Y-100859853D01*
X113284999Y-100934916D01*
X113284999Y-98801820D01*
X113348791Y-98738028D01*
X113420461Y-98738090D01*
X113659449Y-98639342D01*
X113842457Y-98456654D01*
X113855997Y-98424045D01*
X120361310Y-98424045D01*
X120380957Y-98550476D01*
X120619707Y-98649800D01*
X120878293Y-98650198D01*
X121117347Y-98551609D01*
X121119043Y-98550476D01*
X121138690Y-98424045D01*
X122861310Y-98424045D01*
X122880957Y-98550476D01*
X123119707Y-98649800D01*
X123378293Y-98650198D01*
X123617347Y-98551609D01*
X123619043Y-98550476D01*
X123638690Y-98424045D01*
X125361310Y-98424045D01*
X125380957Y-98550476D01*
X125619707Y-98649800D01*
X125878293Y-98650198D01*
X126117347Y-98551609D01*
X126119043Y-98550476D01*
X126138690Y-98424045D01*
X125750000Y-98035355D01*
X125361310Y-98424045D01*
X123638690Y-98424045D01*
X123250000Y-98035355D01*
X122861310Y-98424045D01*
X121138690Y-98424045D01*
X120750000Y-98035355D01*
X120361310Y-98424045D01*
X113855997Y-98424045D01*
X113941622Y-98217838D01*
X113941699Y-98128293D01*
X120099802Y-98128293D01*
X120198391Y-98367347D01*
X120199524Y-98369043D01*
X120325955Y-98388690D01*
X120714645Y-98000000D01*
X120785355Y-98000000D01*
X121174045Y-98388690D01*
X121300476Y-98369043D01*
X121399800Y-98130293D01*
X121399803Y-98128293D01*
X122599802Y-98128293D01*
X122698391Y-98367347D01*
X122699524Y-98369043D01*
X122825955Y-98388690D01*
X123214645Y-98000000D01*
X123285355Y-98000000D01*
X123674045Y-98388690D01*
X123800476Y-98369043D01*
X123899800Y-98130293D01*
X123899803Y-98128293D01*
X125099802Y-98128293D01*
X125198391Y-98367347D01*
X125199524Y-98369043D01*
X125325955Y-98388690D01*
X125714645Y-98000000D01*
X125785355Y-98000000D01*
X126174045Y-98388690D01*
X126300476Y-98369043D01*
X126399800Y-98130293D01*
X126400198Y-97871707D01*
X126301609Y-97632653D01*
X126300476Y-97630957D01*
X126174045Y-97611310D01*
X125785355Y-98000000D01*
X125714645Y-98000000D01*
X125325955Y-97611310D01*
X125199524Y-97630957D01*
X125100200Y-97869707D01*
X125099802Y-98128293D01*
X123899803Y-98128293D01*
X123900198Y-97871707D01*
X123801609Y-97632653D01*
X123800476Y-97630957D01*
X123674045Y-97611310D01*
X123285355Y-98000000D01*
X123214645Y-98000000D01*
X122825955Y-97611310D01*
X122699524Y-97630957D01*
X122600200Y-97869707D01*
X122599802Y-98128293D01*
X121399803Y-98128293D01*
X121400198Y-97871707D01*
X121301609Y-97632653D01*
X121300476Y-97630957D01*
X121174045Y-97611310D01*
X120785355Y-98000000D01*
X120714645Y-98000000D01*
X120325955Y-97611310D01*
X120199524Y-97630957D01*
X120100200Y-97869707D01*
X120099802Y-98128293D01*
X113941699Y-98128293D01*
X113941847Y-97959252D01*
X113843099Y-97720264D01*
X113699043Y-97575955D01*
X120361310Y-97575955D01*
X120750000Y-97964645D01*
X121138690Y-97575955D01*
X122861310Y-97575955D01*
X123250000Y-97964645D01*
X123638690Y-97575955D01*
X125361310Y-97575955D01*
X125750000Y-97964645D01*
X126138690Y-97575955D01*
X126119043Y-97449524D01*
X125880293Y-97350200D01*
X125621707Y-97349802D01*
X125382653Y-97448391D01*
X125380957Y-97449524D01*
X125361310Y-97575955D01*
X123638690Y-97575955D01*
X123619043Y-97449524D01*
X123380293Y-97350200D01*
X123121707Y-97349802D01*
X122882653Y-97448391D01*
X122880957Y-97449524D01*
X122861310Y-97575955D01*
X121138690Y-97575955D01*
X121119043Y-97449524D01*
X120880293Y-97350200D01*
X120621707Y-97349802D01*
X120382653Y-97448391D01*
X120380957Y-97449524D01*
X120361310Y-97575955D01*
X113699043Y-97575955D01*
X113660411Y-97537256D01*
X113421595Y-97438091D01*
X113163009Y-97437866D01*
X112924021Y-97536614D01*
X112741013Y-97719302D01*
X112641848Y-97958118D01*
X112641785Y-98030822D01*
X112431446Y-98241161D01*
X112323059Y-98403372D01*
X112284999Y-98594714D01*
X112284999Y-102573009D01*
X112229860Y-102550113D01*
X111971274Y-102549888D01*
X111732286Y-102648636D01*
X111549278Y-102831324D01*
X111450113Y-103070140D01*
X111449888Y-103328726D01*
X111098350Y-103328726D01*
X111220174Y-103207115D01*
X111349852Y-102894817D01*
X111350147Y-102556666D01*
X111221015Y-102244143D01*
X110982115Y-102004826D01*
X110669817Y-101875148D01*
X110331666Y-101874853D01*
X110019143Y-102003985D01*
X109779826Y-102242885D01*
X109650148Y-102555183D01*
X109649853Y-102893334D01*
X108540057Y-102893334D01*
X108525797Y-102871175D01*
X108408837Y-102791259D01*
X108270000Y-102763144D01*
X106425000Y-102763144D01*
X106425000Y-98443334D01*
X109649853Y-98443334D01*
X109778985Y-98755857D01*
X110017885Y-98995174D01*
X110330183Y-99124852D01*
X110668334Y-99125147D01*
X110980857Y-98996015D01*
X111220174Y-98757115D01*
X111349852Y-98444817D01*
X111350147Y-98106666D01*
X111221015Y-97794143D01*
X110982115Y-97554826D01*
X110669817Y-97425148D01*
X110331666Y-97424853D01*
X110019143Y-97553985D01*
X109779826Y-97792885D01*
X109650148Y-98105183D01*
X109649853Y-98443334D01*
X106425000Y-98443334D01*
X106425000Y-98236856D01*
X108270000Y-98236856D01*
X108399702Y-98212451D01*
X108518825Y-98135797D01*
X108598741Y-98018837D01*
X108626856Y-97880000D01*
X108626856Y-95440000D01*
X108602451Y-95310298D01*
X108525797Y-95191175D01*
X108408837Y-95111259D01*
X108270000Y-95083144D01*
X106425000Y-95083144D01*
X106425000Y-94541860D01*
X106476462Y-94283143D01*
X106599300Y-94099302D01*
X106783144Y-93976462D01*
X107041860Y-93925000D01*
X127150013Y-93925000D01*
X127149888Y-94068715D01*
X127149888Y-94068715D01*
G37*
X127149888Y-94068715D02*
X127248636Y-94307703D01*
X127300000Y-94359157D01*
X127300000Y-97400000D01*
X127326122Y-97531324D01*
X127338060Y-97591342D01*
X127446447Y-97753553D01*
X127549950Y-97857057D01*
X127549888Y-97928726D01*
X127648636Y-98167714D01*
X127831324Y-98350722D01*
X128070140Y-98449887D01*
X128328726Y-98450112D01*
X128567714Y-98351364D01*
X128750722Y-98168676D01*
X128849887Y-97929860D01*
X128850112Y-97671274D01*
X128751364Y-97432286D01*
X128568676Y-97249278D01*
X128329860Y-97150113D01*
X128300000Y-97150087D01*
X128300000Y-94359298D01*
X128350722Y-94308665D01*
X128449887Y-94069849D01*
X128450013Y-93925000D01*
X135208719Y-93925000D01*
X135101175Y-93994203D01*
X135021259Y-94111163D01*
X134993144Y-94250000D01*
X134993144Y-96050000D01*
X135017549Y-96179702D01*
X135094203Y-96298825D01*
X135211163Y-96378741D01*
X135350000Y-96406856D01*
X138065061Y-96406856D01*
X137984254Y-96527792D01*
X137950000Y-96700000D01*
X137950000Y-97430778D01*
X137849278Y-97531324D01*
X137750113Y-97770140D01*
X137749888Y-98028726D01*
X137848636Y-98267714D01*
X138031324Y-98450722D01*
X138270140Y-98549887D01*
X138528726Y-98550112D01*
X138767714Y-98451364D01*
X138950722Y-98268676D01*
X139049887Y-98029860D01*
X139050112Y-97771274D01*
X138951364Y-97532286D01*
X138850000Y-97430744D01*
X138850000Y-96886396D01*
X138886396Y-96850000D01*
X139340002Y-96850000D01*
X139512210Y-96815746D01*
X139658200Y-96718198D01*
X139818198Y-96558200D01*
X139915746Y-96412210D01*
X139950000Y-96240002D01*
X139950000Y-95310660D01*
X140018198Y-95242462D01*
X140115746Y-95096472D01*
X140138842Y-94980361D01*
X140250722Y-94868676D01*
X140349887Y-94629860D01*
X140350112Y-94371274D01*
X140251364Y-94132286D01*
X140068676Y-93949278D01*
X140010208Y-93925000D01*
X141958140Y-93925000D01*
X142216857Y-93976462D01*
X142400698Y-94099300D01*
X142523538Y-94283144D01*
X142575000Y-94541860D01*
X142575000Y-106458140D01*
X142523538Y-106716856D01*
X142400698Y-106900700D01*
X142216857Y-107023538D01*
X141958140Y-107075000D01*
X139291281Y-107075000D01*
X139398825Y-107005797D01*
X139478741Y-106888837D01*
X139506856Y-106750000D01*
X139506856Y-104950000D01*
X139482451Y-104820298D01*
X139405797Y-104701175D01*
X139288837Y-104621259D01*
X139150000Y-104593144D01*
X135350000Y-104593144D01*
X135220298Y-104617549D01*
X135101175Y-104694203D01*
X135021259Y-104811163D01*
X135009172Y-104870850D01*
X134737353Y-104598556D01*
X134259721Y-104400226D01*
X133742548Y-104399774D01*
X133264571Y-104597271D01*
X132898556Y-104962647D01*
X132700226Y-105440279D01*
X132699774Y-105957452D01*
X132786470Y-106167270D01*
X132672948Y-106053550D01*
X132434132Y-105954385D01*
X132175546Y-105954160D01*
X131936558Y-106052908D01*
X131753550Y-106235596D01*
X131654385Y-106474412D01*
X131654319Y-106550000D01*
X127780395Y-106550000D01*
X127780437Y-106501599D01*
X127681689Y-106262611D01*
X127499001Y-106079603D01*
X127260185Y-105980438D01*
X127001599Y-105980213D01*
X126762611Y-106078961D01*
X126579603Y-106261649D01*
X126480438Y-106500465D01*
X126480213Y-106759051D01*
X126578961Y-106998039D01*
X126655787Y-107075000D01*
X115453024Y-107075000D01*
X115500852Y-106959817D01*
X115501147Y-106621666D01*
X115372015Y-106309143D01*
X115338951Y-106276021D01*
X116511809Y-106276021D01*
X116610557Y-106515009D01*
X116793245Y-106698017D01*
X117032061Y-106797182D01*
X117290647Y-106797407D01*
X117529635Y-106698659D01*
X117712643Y-106515971D01*
X117800027Y-106305527D01*
X118199999Y-106305527D01*
X118372207Y-106271273D01*
X118449983Y-106219304D01*
X118449888Y-106328726D01*
X118548636Y-106567714D01*
X118731324Y-106750722D01*
X118970140Y-106849887D01*
X119228726Y-106850112D01*
X119467714Y-106751364D01*
X119650722Y-106568676D01*
X119749887Y-106329860D01*
X119750112Y-106071274D01*
X119651364Y-105832286D01*
X119550000Y-105730744D01*
X119550000Y-103961745D01*
X126499881Y-103961745D01*
X126598629Y-104200733D01*
X126781317Y-104383741D01*
X127020133Y-104482906D01*
X127278719Y-104483131D01*
X127517707Y-104384383D01*
X127700715Y-104201695D01*
X127799880Y-103962879D01*
X127800005Y-103819403D01*
X127918198Y-103701210D01*
X127977472Y-103612500D01*
X130800000Y-103612500D01*
X130800000Y-104069619D01*
X130853284Y-104198259D01*
X130951741Y-104296715D01*
X131080380Y-104350000D01*
X132537500Y-104350000D01*
X132625000Y-104262500D01*
X132625000Y-103525000D01*
X132675000Y-103525000D01*
X132675000Y-104262500D01*
X132762500Y-104350000D01*
X134219620Y-104350000D01*
X134348259Y-104296715D01*
X134446716Y-104198259D01*
X134500000Y-104069619D01*
X134500000Y-103612500D01*
X134412500Y-103525000D01*
X132675000Y-103525000D01*
X132625000Y-103525000D01*
X130887500Y-103525000D01*
X130800000Y-103612500D01*
X127977472Y-103612500D01*
X128015746Y-103555220D01*
X128050000Y-103383012D01*
X128050000Y-101000000D01*
X130793144Y-101000000D01*
X130793144Y-102000000D01*
X130817549Y-102129702D01*
X130894203Y-102248825D01*
X131011163Y-102328741D01*
X131150000Y-102356856D01*
X131760023Y-102356856D01*
X131759890Y-102509693D01*
X131817864Y-102650000D01*
X131080380Y-102650000D01*
X130951741Y-102703285D01*
X130853284Y-102801741D01*
X130800000Y-102930381D01*
X130800000Y-103387500D01*
X130887500Y-103475000D01*
X132625000Y-103475000D01*
X132625000Y-103455000D01*
X132675000Y-103455000D01*
X132675000Y-103475000D01*
X134412500Y-103475000D01*
X134500000Y-103387500D01*
X134500000Y-102930381D01*
X134446716Y-102801741D01*
X134348259Y-102703285D01*
X134219620Y-102650000D01*
X133002099Y-102650000D01*
X133059889Y-102510827D01*
X133060023Y-102356856D01*
X134150000Y-102356856D01*
X134279702Y-102332451D01*
X134398825Y-102255797D01*
X134478741Y-102138837D01*
X134506856Y-102000000D01*
X134506856Y-101000000D01*
X134482451Y-100870298D01*
X134405797Y-100751175D01*
X134288837Y-100671259D01*
X134150000Y-100643144D01*
X131150000Y-100643144D01*
X131020298Y-100667549D01*
X130901175Y-100744203D01*
X130821259Y-100861163D01*
X130793144Y-101000000D01*
X128050000Y-101000000D01*
X128050000Y-100829224D01*
X128150722Y-100728678D01*
X128249887Y-100489862D01*
X128250112Y-100231276D01*
X128151364Y-99992288D01*
X128138658Y-99979559D01*
X129996680Y-99979559D01*
X130095428Y-100218547D01*
X130278116Y-100401555D01*
X130516932Y-100500720D01*
X130775518Y-100500945D01*
X131014506Y-100402197D01*
X131075117Y-100341692D01*
X131150000Y-100356856D01*
X134150000Y-100356856D01*
X134279702Y-100332451D01*
X134398825Y-100255797D01*
X134478741Y-100138837D01*
X134506856Y-100000000D01*
X134506856Y-99000000D01*
X134482451Y-98870298D01*
X134405797Y-98751175D01*
X134288837Y-98671259D01*
X134150000Y-98643144D01*
X131363962Y-98643144D01*
X131650251Y-98356856D01*
X134150000Y-98356856D01*
X134279702Y-98332451D01*
X134398825Y-98255797D01*
X134478741Y-98138837D01*
X134506856Y-98000000D01*
X134506856Y-97000000D01*
X134482451Y-96870298D01*
X134405797Y-96751175D01*
X134288837Y-96671259D01*
X134150000Y-96643144D01*
X131993252Y-96643144D01*
X133144927Y-95491469D01*
X133213536Y-95491529D01*
X133321397Y-95752572D01*
X133546245Y-95977812D01*
X133840172Y-96099861D01*
X134158432Y-96100139D01*
X134452572Y-95978603D01*
X134677812Y-95753755D01*
X134799861Y-95459828D01*
X134800139Y-95141568D01*
X134678603Y-94847428D01*
X134453755Y-94622188D01*
X134159828Y-94500139D01*
X133841568Y-94499861D01*
X133738296Y-94542532D01*
X133709883Y-94473767D01*
X133527195Y-94290759D01*
X133288379Y-94191594D01*
X133029793Y-94191369D01*
X132790805Y-94290117D01*
X132607797Y-94472805D01*
X132508632Y-94711621D01*
X132508507Y-94855097D01*
X131213604Y-96150000D01*
X131009998Y-96150000D01*
X130837790Y-96184254D01*
X130772630Y-96227793D01*
X130691800Y-96281802D01*
X130481802Y-96491800D01*
X130384254Y-96637790D01*
X130350000Y-96809998D01*
X130350000Y-97145665D01*
X130282284Y-97173645D01*
X130099276Y-97356333D01*
X130000111Y-97595149D01*
X129999886Y-97853735D01*
X130098634Y-98092723D01*
X130193222Y-98187477D01*
X130137502Y-98243100D01*
X130038337Y-98481916D01*
X130038112Y-98740502D01*
X130136860Y-98979490D01*
X130319548Y-99162498D01*
X130464701Y-99222771D01*
X130279078Y-99299469D01*
X130096070Y-99482157D01*
X129996905Y-99720973D01*
X129996680Y-99979559D01*
X128138658Y-99979559D01*
X127968676Y-99809280D01*
X127729860Y-99710115D01*
X127471274Y-99709890D01*
X127232286Y-99808638D01*
X127049278Y-99991326D01*
X126950113Y-100230142D01*
X126949888Y-100488728D01*
X127048636Y-100727716D01*
X127150000Y-100829258D01*
X127150000Y-103183019D01*
X127021267Y-103182907D01*
X126782279Y-103281655D01*
X126599271Y-103464343D01*
X126500106Y-103703159D01*
X126499881Y-103961745D01*
X119550000Y-103961745D01*
X119550000Y-103424045D01*
X120361310Y-103424045D01*
X120380957Y-103550476D01*
X120619707Y-103649800D01*
X120878293Y-103650198D01*
X121117347Y-103551609D01*
X121119043Y-103550476D01*
X121138690Y-103424045D01*
X122861310Y-103424045D01*
X122880957Y-103550476D01*
X123119707Y-103649800D01*
X123378293Y-103650198D01*
X123617347Y-103551609D01*
X123619043Y-103550476D01*
X123638690Y-103424045D01*
X125361310Y-103424045D01*
X125380957Y-103550476D01*
X125619707Y-103649800D01*
X125878293Y-103650198D01*
X126117347Y-103551609D01*
X126119043Y-103550476D01*
X126138690Y-103424045D01*
X125750000Y-103035355D01*
X125361310Y-103424045D01*
X123638690Y-103424045D01*
X123250000Y-103035355D01*
X122861310Y-103424045D01*
X121138690Y-103424045D01*
X120750000Y-103035355D01*
X120361310Y-103424045D01*
X119550000Y-103424045D01*
X119550000Y-103128293D01*
X120099802Y-103128293D01*
X120198391Y-103367347D01*
X120199524Y-103369043D01*
X120325955Y-103388690D01*
X120714645Y-103000000D01*
X120785355Y-103000000D01*
X121174045Y-103388690D01*
X121300476Y-103369043D01*
X121399800Y-103130293D01*
X121399803Y-103128293D01*
X122599802Y-103128293D01*
X122698391Y-103367347D01*
X122699524Y-103369043D01*
X122825955Y-103388690D01*
X123214645Y-103000000D01*
X123285355Y-103000000D01*
X123674045Y-103388690D01*
X123800476Y-103369043D01*
X123899800Y-103130293D01*
X123899803Y-103128293D01*
X125099802Y-103128293D01*
X125198391Y-103367347D01*
X125199524Y-103369043D01*
X125325955Y-103388690D01*
X125714645Y-103000000D01*
X125785355Y-103000000D01*
X126174045Y-103388690D01*
X126300476Y-103369043D01*
X126399800Y-103130293D01*
X126400198Y-102871707D01*
X126301609Y-102632653D01*
X126300476Y-102630957D01*
X126174045Y-102611310D01*
X125785355Y-103000000D01*
X125714645Y-103000000D01*
X125325955Y-102611310D01*
X125199524Y-102630957D01*
X125100200Y-102869707D01*
X125099802Y-103128293D01*
X123899803Y-103128293D01*
X123900198Y-102871707D01*
X123801609Y-102632653D01*
X123800476Y-102630957D01*
X123674045Y-102611310D01*
X123285355Y-103000000D01*
X123214645Y-103000000D01*
X122825955Y-102611310D01*
X122699524Y-102630957D01*
X122600200Y-102869707D01*
X122599802Y-103128293D01*
X121399803Y-103128293D01*
X121400198Y-102871707D01*
X121301609Y-102632653D01*
X121300476Y-102630957D01*
X121174045Y-102611310D01*
X120785355Y-103000000D01*
X120714645Y-103000000D01*
X120325955Y-102611310D01*
X120199524Y-102630957D01*
X120100200Y-102869707D01*
X120099802Y-103128293D01*
X119550000Y-103128293D01*
X119550000Y-102575955D01*
X120361310Y-102575955D01*
X120750000Y-102964645D01*
X121138690Y-102575955D01*
X122861310Y-102575955D01*
X123250000Y-102964645D01*
X123638690Y-102575955D01*
X125361310Y-102575955D01*
X125750000Y-102964645D01*
X126138690Y-102575955D01*
X126119043Y-102449524D01*
X125880293Y-102350200D01*
X125621707Y-102349802D01*
X125382653Y-102448391D01*
X125380957Y-102449524D01*
X125361310Y-102575955D01*
X123638690Y-102575955D01*
X123619043Y-102449524D01*
X123380293Y-102350200D01*
X123121707Y-102349802D01*
X122882653Y-102448391D01*
X122880957Y-102449524D01*
X122861310Y-102575955D01*
X121138690Y-102575955D01*
X121119043Y-102449524D01*
X120880293Y-102350200D01*
X120621707Y-102349802D01*
X120382653Y-102448391D01*
X120380957Y-102449524D01*
X120361310Y-102575955D01*
X119550000Y-102575955D01*
X119550000Y-101349990D01*
X119515746Y-101177782D01*
X119418198Y-101031792D01*
X119310451Y-100924045D01*
X120361310Y-100924045D01*
X120380957Y-101050476D01*
X120619707Y-101149800D01*
X120878293Y-101150198D01*
X121117347Y-101051609D01*
X121119043Y-101050476D01*
X121138690Y-100924045D01*
X122861310Y-100924045D01*
X122880957Y-101050476D01*
X123119707Y-101149800D01*
X123378293Y-101150198D01*
X123617347Y-101051609D01*
X123619043Y-101050476D01*
X123638690Y-100924045D01*
X125361310Y-100924045D01*
X125380957Y-101050476D01*
X125619707Y-101149800D01*
X125878293Y-101150198D01*
X126117347Y-101051609D01*
X126119043Y-101050476D01*
X126138690Y-100924045D01*
X125750000Y-100535355D01*
X125361310Y-100924045D01*
X123638690Y-100924045D01*
X123250000Y-100535355D01*
X122861310Y-100924045D01*
X121138690Y-100924045D01*
X120750000Y-100535355D01*
X120361310Y-100924045D01*
X119310451Y-100924045D01*
X119049988Y-100663582D01*
X119050018Y-100628293D01*
X120099802Y-100628293D01*
X120198391Y-100867347D01*
X120199524Y-100869043D01*
X120325955Y-100888690D01*
X120714645Y-100500000D01*
X120785355Y-100500000D01*
X121174045Y-100888690D01*
X121300476Y-100869043D01*
X121399800Y-100630293D01*
X121399803Y-100628293D01*
X122599802Y-100628293D01*
X122698391Y-100867347D01*
X122699524Y-100869043D01*
X122825955Y-100888690D01*
X123214645Y-100500000D01*
X123285355Y-100500000D01*
X123674045Y-100888690D01*
X123800476Y-100869043D01*
X123899800Y-100630293D01*
X123899803Y-100628293D01*
X125099802Y-100628293D01*
X125198391Y-100867347D01*
X125199524Y-100869043D01*
X125325955Y-100888690D01*
X125714645Y-100500000D01*
X125785355Y-100500000D01*
X126174045Y-100888690D01*
X126300476Y-100869043D01*
X126399800Y-100630293D01*
X126400198Y-100371707D01*
X126301609Y-100132653D01*
X126300476Y-100130957D01*
X126174045Y-100111310D01*
X125785355Y-100500000D01*
X125714645Y-100500000D01*
X125325955Y-100111310D01*
X125199524Y-100130957D01*
X125100200Y-100369707D01*
X125099802Y-100628293D01*
X123899803Y-100628293D01*
X123900198Y-100371707D01*
X123801609Y-100132653D01*
X123800476Y-100130957D01*
X123674045Y-100111310D01*
X123285355Y-100500000D01*
X123214645Y-100500000D01*
X122825955Y-100111310D01*
X122699524Y-100130957D01*
X122600200Y-100369707D01*
X122599802Y-100628293D01*
X121399803Y-100628293D01*
X121400198Y-100371707D01*
X121301609Y-100132653D01*
X121300476Y-100130957D01*
X121174045Y-100111310D01*
X120785355Y-100500000D01*
X120714645Y-100500000D01*
X120325955Y-100111310D01*
X120199524Y-100130957D01*
X120100200Y-100369707D01*
X120099802Y-100628293D01*
X119050018Y-100628293D01*
X119050112Y-100521264D01*
X119000665Y-100401594D01*
X119156855Y-100245677D01*
X119227329Y-100075955D01*
X120361310Y-100075955D01*
X120750000Y-100464645D01*
X121138690Y-100075955D01*
X122861310Y-100075955D01*
X123250000Y-100464645D01*
X123638690Y-100075955D01*
X125361310Y-100075955D01*
X125750000Y-100464645D01*
X126138690Y-100075955D01*
X126119043Y-99949524D01*
X125880293Y-99850200D01*
X125621707Y-99849802D01*
X125382653Y-99948391D01*
X125380957Y-99949524D01*
X125361310Y-100075955D01*
X123638690Y-100075955D01*
X123619043Y-99949524D01*
X123380293Y-99850200D01*
X123121707Y-99849802D01*
X122882653Y-99948391D01*
X122880957Y-99949524D01*
X122861310Y-100075955D01*
X121138690Y-100075955D01*
X121119043Y-99949524D01*
X120880293Y-99850200D01*
X120621707Y-99849802D01*
X120382653Y-99948391D01*
X120380957Y-99949524D01*
X120361310Y-100075955D01*
X119227329Y-100075955D01*
X119256020Y-100006861D01*
X119256245Y-99748275D01*
X119157497Y-99509287D01*
X118974809Y-99326279D01*
X118735993Y-99227114D01*
X118549977Y-99226952D01*
X118550112Y-99071274D01*
X118451364Y-98832286D01*
X118268676Y-98649278D01*
X118029860Y-98550113D01*
X117771274Y-98549888D01*
X117532286Y-98648636D01*
X117430744Y-98750000D01*
X117400000Y-98750000D01*
X117227792Y-98784254D01*
X117112690Y-98861163D01*
X117081802Y-98881802D01*
X116781802Y-99181802D01*
X116684254Y-99327792D01*
X116650000Y-99500000D01*
X116650000Y-101900000D01*
X116684254Y-102072208D01*
X116750448Y-102171274D01*
X116781802Y-102218198D01*
X116850012Y-102286408D01*
X116849888Y-102428726D01*
X116948636Y-102667714D01*
X117131324Y-102850722D01*
X117370140Y-102949887D01*
X117628726Y-102950112D01*
X117867714Y-102851364D01*
X118050722Y-102668676D01*
X118149887Y-102429860D01*
X118150000Y-102299992D01*
X118150000Y-105269130D01*
X118013603Y-105405527D01*
X117453689Y-105405527D01*
X117281481Y-105439781D01*
X117195362Y-105497324D01*
X117033195Y-105497183D01*
X116794207Y-105595931D01*
X116611199Y-105778619D01*
X116512034Y-106017435D01*
X116511809Y-106276021D01*
X115338951Y-106276021D01*
X115133115Y-106069826D01*
X114820817Y-105940148D01*
X114482666Y-105939853D01*
X114170143Y-106068985D01*
X113930826Y-106307885D01*
X113801148Y-106620183D01*
X113800853Y-106958334D01*
X113849058Y-107075000D01*
X113421024Y-107075000D01*
X113468852Y-106959817D01*
X113469147Y-106621666D01*
X113340015Y-106309143D01*
X113101115Y-106069826D01*
X112788817Y-105940148D01*
X112450666Y-105939853D01*
X112138143Y-106068985D01*
X111898826Y-106307885D01*
X111769148Y-106620183D01*
X111768853Y-106958334D01*
X111817058Y-107075000D01*
X107041860Y-107075000D01*
X106783144Y-107023538D01*
X106599300Y-106900698D01*
X106476462Y-106716857D01*
X106425000Y-106458140D01*
X106425000Y-105916856D01*
X108270000Y-105916856D01*
X108399702Y-105892451D01*
X108518825Y-105815797D01*
X108598741Y-105698837D01*
X108626856Y-105560000D01*
X108626856Y-103120000D01*
X108602451Y-102990298D01*
X108540057Y-102893334D01*
X109649853Y-102893334D01*
X109778985Y-103205857D01*
X110017885Y-103445174D01*
X110330183Y-103574852D01*
X110668334Y-103575147D01*
X110980857Y-103446015D01*
X111098350Y-103328726D01*
X111449888Y-103328726D01*
X111548636Y-103567714D01*
X111731324Y-103750722D01*
X111970140Y-103849887D01*
X112228726Y-103850112D01*
X112467714Y-103751364D01*
X112519168Y-103700000D01*
X114139035Y-103700000D01*
X114469595Y-104030560D01*
X114469533Y-104102230D01*
X114568281Y-104341218D01*
X114637786Y-104410844D01*
X114642590Y-104435000D01*
X112835124Y-104435000D01*
X112751364Y-104232286D01*
X112568676Y-104049278D01*
X112329860Y-103950113D01*
X112071274Y-103949888D01*
X111832286Y-104048636D01*
X111649278Y-104231324D01*
X111550113Y-104470140D01*
X111549888Y-104728726D01*
X111648636Y-104967714D01*
X111831324Y-105150722D01*
X112070140Y-105249887D01*
X112236894Y-105250032D01*
X112312792Y-105300746D01*
X112485000Y-105335000D01*
X114469565Y-105335000D01*
X114469533Y-105372231D01*
X114568281Y-105611219D01*
X114750969Y-105794227D01*
X114989785Y-105893392D01*
X115248371Y-105893617D01*
X115487359Y-105794869D01*
X115581629Y-105700764D01*
X115731324Y-105850722D01*
X115970140Y-105949887D01*
X116228726Y-105950112D01*
X116467714Y-105851364D01*
X116650722Y-105668676D01*
X116749887Y-105429860D01*
X116750112Y-105171274D01*
X116651364Y-104932286D01*
X116468676Y-104749278D01*
X116229860Y-104650113D01*
X116157156Y-104650050D01*
X115722863Y-104215756D01*
X115769532Y-104103364D01*
X115769757Y-103844778D01*
X115671009Y-103605790D01*
X115488321Y-103422782D01*
X115249505Y-103323617D01*
X115176801Y-103323554D01*
X114699694Y-102846447D01*
X114537483Y-102738060D01*
X114534668Y-102737500D01*
X114346141Y-102700000D01*
X113284999Y-102700000D01*
X113284999Y-102485033D01*
X113465183Y-102559852D01*
X113803334Y-102560147D01*
X114115857Y-102431015D01*
X114355174Y-102192115D01*
X114484852Y-101879817D01*
X114485147Y-101541666D01*
X114356015Y-101229143D01*
X114117115Y-100989826D01*
X113804817Y-100860148D01*
X113466666Y-100859853D01*
X113284999Y-100934916D01*
X113284999Y-98801820D01*
X113348791Y-98738028D01*
X113420461Y-98738090D01*
X113659449Y-98639342D01*
X113842457Y-98456654D01*
X113855997Y-98424045D01*
X120361310Y-98424045D01*
X120380957Y-98550476D01*
X120619707Y-98649800D01*
X120878293Y-98650198D01*
X121117347Y-98551609D01*
X121119043Y-98550476D01*
X121138690Y-98424045D01*
X122861310Y-98424045D01*
X122880957Y-98550476D01*
X123119707Y-98649800D01*
X123378293Y-98650198D01*
X123617347Y-98551609D01*
X123619043Y-98550476D01*
X123638690Y-98424045D01*
X125361310Y-98424045D01*
X125380957Y-98550476D01*
X125619707Y-98649800D01*
X125878293Y-98650198D01*
X126117347Y-98551609D01*
X126119043Y-98550476D01*
X126138690Y-98424045D01*
X125750000Y-98035355D01*
X125361310Y-98424045D01*
X123638690Y-98424045D01*
X123250000Y-98035355D01*
X122861310Y-98424045D01*
X121138690Y-98424045D01*
X120750000Y-98035355D01*
X120361310Y-98424045D01*
X113855997Y-98424045D01*
X113941622Y-98217838D01*
X113941699Y-98128293D01*
X120099802Y-98128293D01*
X120198391Y-98367347D01*
X120199524Y-98369043D01*
X120325955Y-98388690D01*
X120714645Y-98000000D01*
X120785355Y-98000000D01*
X121174045Y-98388690D01*
X121300476Y-98369043D01*
X121399800Y-98130293D01*
X121399803Y-98128293D01*
X122599802Y-98128293D01*
X122698391Y-98367347D01*
X122699524Y-98369043D01*
X122825955Y-98388690D01*
X123214645Y-98000000D01*
X123285355Y-98000000D01*
X123674045Y-98388690D01*
X123800476Y-98369043D01*
X123899800Y-98130293D01*
X123899803Y-98128293D01*
X125099802Y-98128293D01*
X125198391Y-98367347D01*
X125199524Y-98369043D01*
X125325955Y-98388690D01*
X125714645Y-98000000D01*
X125785355Y-98000000D01*
X126174045Y-98388690D01*
X126300476Y-98369043D01*
X126399800Y-98130293D01*
X126400198Y-97871707D01*
X126301609Y-97632653D01*
X126300476Y-97630957D01*
X126174045Y-97611310D01*
X125785355Y-98000000D01*
X125714645Y-98000000D01*
X125325955Y-97611310D01*
X125199524Y-97630957D01*
X125100200Y-97869707D01*
X125099802Y-98128293D01*
X123899803Y-98128293D01*
X123900198Y-97871707D01*
X123801609Y-97632653D01*
X123800476Y-97630957D01*
X123674045Y-97611310D01*
X123285355Y-98000000D01*
X123214645Y-98000000D01*
X122825955Y-97611310D01*
X122699524Y-97630957D01*
X122600200Y-97869707D01*
X122599802Y-98128293D01*
X121399803Y-98128293D01*
X121400198Y-97871707D01*
X121301609Y-97632653D01*
X121300476Y-97630957D01*
X121174045Y-97611310D01*
X120785355Y-98000000D01*
X120714645Y-98000000D01*
X120325955Y-97611310D01*
X120199524Y-97630957D01*
X120100200Y-97869707D01*
X120099802Y-98128293D01*
X113941699Y-98128293D01*
X113941847Y-97959252D01*
X113843099Y-97720264D01*
X113699043Y-97575955D01*
X120361310Y-97575955D01*
X120750000Y-97964645D01*
X121138690Y-97575955D01*
X122861310Y-97575955D01*
X123250000Y-97964645D01*
X123638690Y-97575955D01*
X125361310Y-97575955D01*
X125750000Y-97964645D01*
X126138690Y-97575955D01*
X126119043Y-97449524D01*
X125880293Y-97350200D01*
X125621707Y-97349802D01*
X125382653Y-97448391D01*
X125380957Y-97449524D01*
X125361310Y-97575955D01*
X123638690Y-97575955D01*
X123619043Y-97449524D01*
X123380293Y-97350200D01*
X123121707Y-97349802D01*
X122882653Y-97448391D01*
X122880957Y-97449524D01*
X122861310Y-97575955D01*
X121138690Y-97575955D01*
X121119043Y-97449524D01*
X120880293Y-97350200D01*
X120621707Y-97349802D01*
X120382653Y-97448391D01*
X120380957Y-97449524D01*
X120361310Y-97575955D01*
X113699043Y-97575955D01*
X113660411Y-97537256D01*
X113421595Y-97438091D01*
X113163009Y-97437866D01*
X112924021Y-97536614D01*
X112741013Y-97719302D01*
X112641848Y-97958118D01*
X112641785Y-98030822D01*
X112431446Y-98241161D01*
X112323059Y-98403372D01*
X112284999Y-98594714D01*
X112284999Y-102573009D01*
X112229860Y-102550113D01*
X111971274Y-102549888D01*
X111732286Y-102648636D01*
X111549278Y-102831324D01*
X111450113Y-103070140D01*
X111449888Y-103328726D01*
X111098350Y-103328726D01*
X111220174Y-103207115D01*
X111349852Y-102894817D01*
X111350147Y-102556666D01*
X111221015Y-102244143D01*
X110982115Y-102004826D01*
X110669817Y-101875148D01*
X110331666Y-101874853D01*
X110019143Y-102003985D01*
X109779826Y-102242885D01*
X109650148Y-102555183D01*
X109649853Y-102893334D01*
X108540057Y-102893334D01*
X108525797Y-102871175D01*
X108408837Y-102791259D01*
X108270000Y-102763144D01*
X106425000Y-102763144D01*
X106425000Y-98443334D01*
X109649853Y-98443334D01*
X109778985Y-98755857D01*
X110017885Y-98995174D01*
X110330183Y-99124852D01*
X110668334Y-99125147D01*
X110980857Y-98996015D01*
X111220174Y-98757115D01*
X111349852Y-98444817D01*
X111350147Y-98106666D01*
X111221015Y-97794143D01*
X110982115Y-97554826D01*
X110669817Y-97425148D01*
X110331666Y-97424853D01*
X110019143Y-97553985D01*
X109779826Y-97792885D01*
X109650148Y-98105183D01*
X109649853Y-98443334D01*
X106425000Y-98443334D01*
X106425000Y-98236856D01*
X108270000Y-98236856D01*
X108399702Y-98212451D01*
X108518825Y-98135797D01*
X108598741Y-98018837D01*
X108626856Y-97880000D01*
X108626856Y-95440000D01*
X108602451Y-95310298D01*
X108525797Y-95191175D01*
X108408837Y-95111259D01*
X108270000Y-95083144D01*
X106425000Y-95083144D01*
X106425000Y-94541860D01*
X106476462Y-94283143D01*
X106599300Y-94099302D01*
X106783144Y-93976462D01*
X107041860Y-93925000D01*
X127150013Y-93925000D01*
X127149888Y-94068715D01*
G36*
X127149888Y-109068715D02*
X127248636Y-109307703D01*
X127300000Y-109359157D01*
X127300000Y-112400000D01*
X127326122Y-112531324D01*
X127338060Y-112591342D01*
X127446447Y-112753553D01*
X127549950Y-112857057D01*
X127549888Y-112928726D01*
X127648636Y-113167714D01*
X127831324Y-113350722D01*
X128070140Y-113449887D01*
X128328726Y-113450112D01*
X128567714Y-113351364D01*
X128750722Y-113168676D01*
X128849887Y-112929860D01*
X128850112Y-112671274D01*
X128751364Y-112432286D01*
X128568676Y-112249278D01*
X128329860Y-112150113D01*
X128300000Y-112150087D01*
X128300000Y-109359298D01*
X128350722Y-109308665D01*
X128449887Y-109069849D01*
X128450013Y-108925000D01*
X135208719Y-108925000D01*
X135101175Y-108994203D01*
X135021259Y-109111163D01*
X134993144Y-109250000D01*
X134993144Y-111050000D01*
X135017549Y-111179702D01*
X135094203Y-111298825D01*
X135211163Y-111378741D01*
X135350000Y-111406856D01*
X138065061Y-111406856D01*
X137984254Y-111527792D01*
X137950000Y-111700000D01*
X137950000Y-112430778D01*
X137849278Y-112531324D01*
X137750113Y-112770140D01*
X137749888Y-113028726D01*
X137848636Y-113267714D01*
X138031324Y-113450722D01*
X138270140Y-113549887D01*
X138528726Y-113550112D01*
X138767714Y-113451364D01*
X138950722Y-113268676D01*
X139049887Y-113029860D01*
X139050112Y-112771274D01*
X138951364Y-112532286D01*
X138850000Y-112430744D01*
X138850000Y-111886396D01*
X138886396Y-111850000D01*
X139340002Y-111850000D01*
X139512210Y-111815746D01*
X139658200Y-111718198D01*
X139818198Y-111558200D01*
X139915746Y-111412210D01*
X139950000Y-111240002D01*
X139950000Y-110310660D01*
X140018198Y-110242462D01*
X140115746Y-110096472D01*
X140138842Y-109980361D01*
X140250722Y-109868676D01*
X140349887Y-109629860D01*
X140350112Y-109371274D01*
X140251364Y-109132286D01*
X140068676Y-108949278D01*
X140010208Y-108925000D01*
X141958140Y-108925000D01*
X142216857Y-108976462D01*
X142400698Y-109099300D01*
X142523538Y-109283144D01*
X142575000Y-109541860D01*
X142575000Y-121458140D01*
X142523538Y-121716856D01*
X142400698Y-121900700D01*
X142216857Y-122023538D01*
X141958140Y-122075000D01*
X139291281Y-122075000D01*
X139398825Y-122005797D01*
X139478741Y-121888837D01*
X139506856Y-121750000D01*
X139506856Y-119950000D01*
X139482451Y-119820298D01*
X139405797Y-119701175D01*
X139288837Y-119621259D01*
X139150000Y-119593144D01*
X135350000Y-119593144D01*
X135220298Y-119617549D01*
X135101175Y-119694203D01*
X135021259Y-119811163D01*
X135009172Y-119870850D01*
X134737353Y-119598556D01*
X134259721Y-119400226D01*
X133742548Y-119399774D01*
X133264571Y-119597271D01*
X132898556Y-119962647D01*
X132700226Y-120440279D01*
X132699774Y-120957452D01*
X132786470Y-121167270D01*
X132672948Y-121053550D01*
X132434132Y-120954385D01*
X132175546Y-120954160D01*
X131936558Y-121052908D01*
X131753550Y-121235596D01*
X131654385Y-121474412D01*
X131654319Y-121550000D01*
X127780395Y-121550000D01*
X127780437Y-121501599D01*
X127681689Y-121262611D01*
X127499001Y-121079603D01*
X127260185Y-120980438D01*
X127001599Y-120980213D01*
X126762611Y-121078961D01*
X126579603Y-121261649D01*
X126480438Y-121500465D01*
X126480213Y-121759051D01*
X126578961Y-121998039D01*
X126655787Y-122075000D01*
X115453024Y-122075000D01*
X115500852Y-121959817D01*
X115501147Y-121621666D01*
X115372015Y-121309143D01*
X115338951Y-121276021D01*
X116511809Y-121276021D01*
X116610557Y-121515009D01*
X116793245Y-121698017D01*
X117032061Y-121797182D01*
X117290647Y-121797407D01*
X117529635Y-121698659D01*
X117712643Y-121515971D01*
X117800027Y-121305527D01*
X118199999Y-121305527D01*
X118372207Y-121271273D01*
X118449983Y-121219304D01*
X118449888Y-121328726D01*
X118548636Y-121567714D01*
X118731324Y-121750722D01*
X118970140Y-121849887D01*
X119228726Y-121850112D01*
X119467714Y-121751364D01*
X119650722Y-121568676D01*
X119749887Y-121329860D01*
X119750112Y-121071274D01*
X119651364Y-120832286D01*
X119550000Y-120730744D01*
X119550000Y-118961745D01*
X126499881Y-118961745D01*
X126598629Y-119200733D01*
X126781317Y-119383741D01*
X127020133Y-119482906D01*
X127278719Y-119483131D01*
X127517707Y-119384383D01*
X127700715Y-119201695D01*
X127799880Y-118962879D01*
X127800005Y-118819403D01*
X127918198Y-118701210D01*
X127977472Y-118612500D01*
X130800000Y-118612500D01*
X130800000Y-119069619D01*
X130853284Y-119198259D01*
X130951741Y-119296715D01*
X131080380Y-119350000D01*
X132537500Y-119350000D01*
X132625000Y-119262500D01*
X132625000Y-118525000D01*
X132675000Y-118525000D01*
X132675000Y-119262500D01*
X132762500Y-119350000D01*
X134219620Y-119350000D01*
X134348259Y-119296715D01*
X134446716Y-119198259D01*
X134500000Y-119069619D01*
X134500000Y-118612500D01*
X134412500Y-118525000D01*
X132675000Y-118525000D01*
X132625000Y-118525000D01*
X130887500Y-118525000D01*
X130800000Y-118612500D01*
X127977472Y-118612500D01*
X128015746Y-118555220D01*
X128050000Y-118383012D01*
X128050000Y-116000000D01*
X130793144Y-116000000D01*
X130793144Y-117000000D01*
X130817549Y-117129702D01*
X130894203Y-117248825D01*
X131011163Y-117328741D01*
X131150000Y-117356856D01*
X131760023Y-117356856D01*
X131759890Y-117509693D01*
X131817864Y-117650000D01*
X131080380Y-117650000D01*
X130951741Y-117703285D01*
X130853284Y-117801741D01*
X130800000Y-117930381D01*
X130800000Y-118387500D01*
X130887500Y-118475000D01*
X132625000Y-118475000D01*
X132625000Y-118455000D01*
X132675000Y-118455000D01*
X132675000Y-118475000D01*
X134412500Y-118475000D01*
X134500000Y-118387500D01*
X134500000Y-117930381D01*
X134446716Y-117801741D01*
X134348259Y-117703285D01*
X134219620Y-117650000D01*
X133002099Y-117650000D01*
X133059889Y-117510827D01*
X133060023Y-117356856D01*
X134150000Y-117356856D01*
X134279702Y-117332451D01*
X134398825Y-117255797D01*
X134478741Y-117138837D01*
X134506856Y-117000000D01*
X134506856Y-116000000D01*
X134482451Y-115870298D01*
X134405797Y-115751175D01*
X134288837Y-115671259D01*
X134150000Y-115643144D01*
X131150000Y-115643144D01*
X131020298Y-115667549D01*
X130901175Y-115744203D01*
X130821259Y-115861163D01*
X130793144Y-116000000D01*
X128050000Y-116000000D01*
X128050000Y-115829224D01*
X128150722Y-115728678D01*
X128249887Y-115489862D01*
X128250112Y-115231276D01*
X128151364Y-114992288D01*
X128138658Y-114979559D01*
X129996680Y-114979559D01*
X130095428Y-115218547D01*
X130278116Y-115401555D01*
X130516932Y-115500720D01*
X130775518Y-115500945D01*
X131014506Y-115402197D01*
X131075117Y-115341692D01*
X131150000Y-115356856D01*
X134150000Y-115356856D01*
X134279702Y-115332451D01*
X134398825Y-115255797D01*
X134478741Y-115138837D01*
X134506856Y-115000000D01*
X134506856Y-114000000D01*
X134482451Y-113870298D01*
X134405797Y-113751175D01*
X134288837Y-113671259D01*
X134150000Y-113643144D01*
X131363962Y-113643144D01*
X131650251Y-113356856D01*
X134150000Y-113356856D01*
X134279702Y-113332451D01*
X134398825Y-113255797D01*
X134478741Y-113138837D01*
X134506856Y-113000000D01*
X134506856Y-112000000D01*
X134482451Y-111870298D01*
X134405797Y-111751175D01*
X134288837Y-111671259D01*
X134150000Y-111643144D01*
X131993252Y-111643144D01*
X133144927Y-110491469D01*
X133213536Y-110491529D01*
X133321397Y-110752572D01*
X133546245Y-110977812D01*
X133840172Y-111099861D01*
X134158432Y-111100139D01*
X134452572Y-110978603D01*
X134677812Y-110753755D01*
X134799861Y-110459828D01*
X134800139Y-110141568D01*
X134678603Y-109847428D01*
X134453755Y-109622188D01*
X134159828Y-109500139D01*
X133841568Y-109499861D01*
X133738296Y-109542532D01*
X133709883Y-109473767D01*
X133527195Y-109290759D01*
X133288379Y-109191594D01*
X133029793Y-109191369D01*
X132790805Y-109290117D01*
X132607797Y-109472805D01*
X132508632Y-109711621D01*
X132508507Y-109855097D01*
X131213604Y-111150000D01*
X131009998Y-111150000D01*
X130837790Y-111184254D01*
X130772630Y-111227793D01*
X130691800Y-111281802D01*
X130481802Y-111491800D01*
X130384254Y-111637790D01*
X130350000Y-111809998D01*
X130350000Y-112145665D01*
X130282284Y-112173645D01*
X130099276Y-112356333D01*
X130000111Y-112595149D01*
X129999886Y-112853735D01*
X130098634Y-113092723D01*
X130193222Y-113187477D01*
X130137502Y-113243100D01*
X130038337Y-113481916D01*
X130038112Y-113740502D01*
X130136860Y-113979490D01*
X130319548Y-114162498D01*
X130464701Y-114222771D01*
X130279078Y-114299469D01*
X130096070Y-114482157D01*
X129996905Y-114720973D01*
X129996680Y-114979559D01*
X128138658Y-114979559D01*
X127968676Y-114809280D01*
X127729860Y-114710115D01*
X127471274Y-114709890D01*
X127232286Y-114808638D01*
X127049278Y-114991326D01*
X126950113Y-115230142D01*
X126949888Y-115488728D01*
X127048636Y-115727716D01*
X127150000Y-115829258D01*
X127150000Y-118183019D01*
X127021267Y-118182907D01*
X126782279Y-118281655D01*
X126599271Y-118464343D01*
X126500106Y-118703159D01*
X126499881Y-118961745D01*
X119550000Y-118961745D01*
X119550000Y-118424045D01*
X120361310Y-118424045D01*
X120380957Y-118550476D01*
X120619707Y-118649800D01*
X120878293Y-118650198D01*
X121117347Y-118551609D01*
X121119043Y-118550476D01*
X121138690Y-118424045D01*
X122861310Y-118424045D01*
X122880957Y-118550476D01*
X123119707Y-118649800D01*
X123378293Y-118650198D01*
X123617347Y-118551609D01*
X123619043Y-118550476D01*
X123638690Y-118424045D01*
X125361310Y-118424045D01*
X125380957Y-118550476D01*
X125619707Y-118649800D01*
X125878293Y-118650198D01*
X126117347Y-118551609D01*
X126119043Y-118550476D01*
X126138690Y-118424045D01*
X125750000Y-118035355D01*
X125361310Y-118424045D01*
X123638690Y-118424045D01*
X123250000Y-118035355D01*
X122861310Y-118424045D01*
X121138690Y-118424045D01*
X120750000Y-118035355D01*
X120361310Y-118424045D01*
X119550000Y-118424045D01*
X119550000Y-118128293D01*
X120099802Y-118128293D01*
X120198391Y-118367347D01*
X120199524Y-118369043D01*
X120325955Y-118388690D01*
X120714645Y-118000000D01*
X120785355Y-118000000D01*
X121174045Y-118388690D01*
X121300476Y-118369043D01*
X121399800Y-118130293D01*
X121399803Y-118128293D01*
X122599802Y-118128293D01*
X122698391Y-118367347D01*
X122699524Y-118369043D01*
X122825955Y-118388690D01*
X123214645Y-118000000D01*
X123285355Y-118000000D01*
X123674045Y-118388690D01*
X123800476Y-118369043D01*
X123899800Y-118130293D01*
X123899803Y-118128293D01*
X125099802Y-118128293D01*
X125198391Y-118367347D01*
X125199524Y-118369043D01*
X125325955Y-118388690D01*
X125714645Y-118000000D01*
X125785355Y-118000000D01*
X126174045Y-118388690D01*
X126300476Y-118369043D01*
X126399800Y-118130293D01*
X126400198Y-117871707D01*
X126301609Y-117632653D01*
X126300476Y-117630957D01*
X126174045Y-117611310D01*
X125785355Y-118000000D01*
X125714645Y-118000000D01*
X125325955Y-117611310D01*
X125199524Y-117630957D01*
X125100200Y-117869707D01*
X125099802Y-118128293D01*
X123899803Y-118128293D01*
X123900198Y-117871707D01*
X123801609Y-117632653D01*
X123800476Y-117630957D01*
X123674045Y-117611310D01*
X123285355Y-118000000D01*
X123214645Y-118000000D01*
X122825955Y-117611310D01*
X122699524Y-117630957D01*
X122600200Y-117869707D01*
X122599802Y-118128293D01*
X121399803Y-118128293D01*
X121400198Y-117871707D01*
X121301609Y-117632653D01*
X121300476Y-117630957D01*
X121174045Y-117611310D01*
X120785355Y-118000000D01*
X120714645Y-118000000D01*
X120325955Y-117611310D01*
X120199524Y-117630957D01*
X120100200Y-117869707D01*
X120099802Y-118128293D01*
X119550000Y-118128293D01*
X119550000Y-117575955D01*
X120361310Y-117575955D01*
X120750000Y-117964645D01*
X121138690Y-117575955D01*
X122861310Y-117575955D01*
X123250000Y-117964645D01*
X123638690Y-117575955D01*
X125361310Y-117575955D01*
X125750000Y-117964645D01*
X126138690Y-117575955D01*
X126119043Y-117449524D01*
X125880293Y-117350200D01*
X125621707Y-117349802D01*
X125382653Y-117448391D01*
X125380957Y-117449524D01*
X125361310Y-117575955D01*
X123638690Y-117575955D01*
X123619043Y-117449524D01*
X123380293Y-117350200D01*
X123121707Y-117349802D01*
X122882653Y-117448391D01*
X122880957Y-117449524D01*
X122861310Y-117575955D01*
X121138690Y-117575955D01*
X121119043Y-117449524D01*
X120880293Y-117350200D01*
X120621707Y-117349802D01*
X120382653Y-117448391D01*
X120380957Y-117449524D01*
X120361310Y-117575955D01*
X119550000Y-117575955D01*
X119550000Y-116349990D01*
X119515746Y-116177782D01*
X119418198Y-116031792D01*
X119310451Y-115924045D01*
X120361310Y-115924045D01*
X120380957Y-116050476D01*
X120619707Y-116149800D01*
X120878293Y-116150198D01*
X121117347Y-116051609D01*
X121119043Y-116050476D01*
X121138690Y-115924045D01*
X122861310Y-115924045D01*
X122880957Y-116050476D01*
X123119707Y-116149800D01*
X123378293Y-116150198D01*
X123617347Y-116051609D01*
X123619043Y-116050476D01*
X123638690Y-115924045D01*
X125361310Y-115924045D01*
X125380957Y-116050476D01*
X125619707Y-116149800D01*
X125878293Y-116150198D01*
X126117347Y-116051609D01*
X126119043Y-116050476D01*
X126138690Y-115924045D01*
X125750000Y-115535355D01*
X125361310Y-115924045D01*
X123638690Y-115924045D01*
X123250000Y-115535355D01*
X122861310Y-115924045D01*
X121138690Y-115924045D01*
X120750000Y-115535355D01*
X120361310Y-115924045D01*
X119310451Y-115924045D01*
X119049988Y-115663582D01*
X119050018Y-115628293D01*
X120099802Y-115628293D01*
X120198391Y-115867347D01*
X120199524Y-115869043D01*
X120325955Y-115888690D01*
X120714645Y-115500000D01*
X120785355Y-115500000D01*
X121174045Y-115888690D01*
X121300476Y-115869043D01*
X121399800Y-115630293D01*
X121399803Y-115628293D01*
X122599802Y-115628293D01*
X122698391Y-115867347D01*
X122699524Y-115869043D01*
X122825955Y-115888690D01*
X123214645Y-115500000D01*
X123285355Y-115500000D01*
X123674045Y-115888690D01*
X123800476Y-115869043D01*
X123899800Y-115630293D01*
X123899803Y-115628293D01*
X125099802Y-115628293D01*
X125198391Y-115867347D01*
X125199524Y-115869043D01*
X125325955Y-115888690D01*
X125714645Y-115500000D01*
X125785355Y-115500000D01*
X126174045Y-115888690D01*
X126300476Y-115869043D01*
X126399800Y-115630293D01*
X126400198Y-115371707D01*
X126301609Y-115132653D01*
X126300476Y-115130957D01*
X126174045Y-115111310D01*
X125785355Y-115500000D01*
X125714645Y-115500000D01*
X125325955Y-115111310D01*
X125199524Y-115130957D01*
X125100200Y-115369707D01*
X125099802Y-115628293D01*
X123899803Y-115628293D01*
X123900198Y-115371707D01*
X123801609Y-115132653D01*
X123800476Y-115130957D01*
X123674045Y-115111310D01*
X123285355Y-115500000D01*
X123214645Y-115500000D01*
X122825955Y-115111310D01*
X122699524Y-115130957D01*
X122600200Y-115369707D01*
X122599802Y-115628293D01*
X121399803Y-115628293D01*
X121400198Y-115371707D01*
X121301609Y-115132653D01*
X121300476Y-115130957D01*
X121174045Y-115111310D01*
X120785355Y-115500000D01*
X120714645Y-115500000D01*
X120325955Y-115111310D01*
X120199524Y-115130957D01*
X120100200Y-115369707D01*
X120099802Y-115628293D01*
X119050018Y-115628293D01*
X119050112Y-115521264D01*
X119000665Y-115401594D01*
X119156855Y-115245677D01*
X119227329Y-115075955D01*
X120361310Y-115075955D01*
X120750000Y-115464645D01*
X121138690Y-115075955D01*
X122861310Y-115075955D01*
X123250000Y-115464645D01*
X123638690Y-115075955D01*
X125361310Y-115075955D01*
X125750000Y-115464645D01*
X126138690Y-115075955D01*
X126119043Y-114949524D01*
X125880293Y-114850200D01*
X125621707Y-114849802D01*
X125382653Y-114948391D01*
X125380957Y-114949524D01*
X125361310Y-115075955D01*
X123638690Y-115075955D01*
X123619043Y-114949524D01*
X123380293Y-114850200D01*
X123121707Y-114849802D01*
X122882653Y-114948391D01*
X122880957Y-114949524D01*
X122861310Y-115075955D01*
X121138690Y-115075955D01*
X121119043Y-114949524D01*
X120880293Y-114850200D01*
X120621707Y-114849802D01*
X120382653Y-114948391D01*
X120380957Y-114949524D01*
X120361310Y-115075955D01*
X119227329Y-115075955D01*
X119256020Y-115006861D01*
X119256245Y-114748275D01*
X119157497Y-114509287D01*
X118974809Y-114326279D01*
X118735993Y-114227114D01*
X118549977Y-114226952D01*
X118550112Y-114071274D01*
X118451364Y-113832286D01*
X118268676Y-113649278D01*
X118029860Y-113550113D01*
X117771274Y-113549888D01*
X117532286Y-113648636D01*
X117430744Y-113750000D01*
X117400000Y-113750000D01*
X117227792Y-113784254D01*
X117112690Y-113861163D01*
X117081802Y-113881802D01*
X116781802Y-114181802D01*
X116684254Y-114327792D01*
X116650000Y-114500000D01*
X116650000Y-116900000D01*
X116684254Y-117072208D01*
X116750448Y-117171274D01*
X116781802Y-117218198D01*
X116850012Y-117286408D01*
X116849888Y-117428726D01*
X116948636Y-117667714D01*
X117131324Y-117850722D01*
X117370140Y-117949887D01*
X117628726Y-117950112D01*
X117867714Y-117851364D01*
X118050722Y-117668676D01*
X118149887Y-117429860D01*
X118150000Y-117299992D01*
X118150000Y-120269130D01*
X118013603Y-120405527D01*
X117453689Y-120405527D01*
X117281481Y-120439781D01*
X117195362Y-120497324D01*
X117033195Y-120497183D01*
X116794207Y-120595931D01*
X116611199Y-120778619D01*
X116512034Y-121017435D01*
X116511809Y-121276021D01*
X115338951Y-121276021D01*
X115133115Y-121069826D01*
X114820817Y-120940148D01*
X114482666Y-120939853D01*
X114170143Y-121068985D01*
X113930826Y-121307885D01*
X113801148Y-121620183D01*
X113800853Y-121958334D01*
X113849058Y-122075000D01*
X113421024Y-122075000D01*
X113468852Y-121959817D01*
X113469147Y-121621666D01*
X113340015Y-121309143D01*
X113101115Y-121069826D01*
X112788817Y-120940148D01*
X112450666Y-120939853D01*
X112138143Y-121068985D01*
X111898826Y-121307885D01*
X111769148Y-121620183D01*
X111768853Y-121958334D01*
X111817058Y-122075000D01*
X107041860Y-122075000D01*
X106783144Y-122023538D01*
X106599300Y-121900698D01*
X106476462Y-121716857D01*
X106425000Y-121458140D01*
X106425000Y-120916856D01*
X108270000Y-120916856D01*
X108399702Y-120892451D01*
X108518825Y-120815797D01*
X108598741Y-120698837D01*
X108626856Y-120560000D01*
X108626856Y-118120000D01*
X108602451Y-117990298D01*
X108540057Y-117893334D01*
X109649853Y-117893334D01*
X109778985Y-118205857D01*
X110017885Y-118445174D01*
X110330183Y-118574852D01*
X110668334Y-118575147D01*
X110980857Y-118446015D01*
X111098350Y-118328726D01*
X111449888Y-118328726D01*
X111548636Y-118567714D01*
X111731324Y-118750722D01*
X111970140Y-118849887D01*
X112228726Y-118850112D01*
X112467714Y-118751364D01*
X112519168Y-118700000D01*
X114139035Y-118700000D01*
X114469595Y-119030560D01*
X114469533Y-119102230D01*
X114568281Y-119341218D01*
X114637786Y-119410844D01*
X114642590Y-119435000D01*
X112835124Y-119435000D01*
X112751364Y-119232286D01*
X112568676Y-119049278D01*
X112329860Y-118950113D01*
X112071274Y-118949888D01*
X111832286Y-119048636D01*
X111649278Y-119231324D01*
X111550113Y-119470140D01*
X111549888Y-119728726D01*
X111648636Y-119967714D01*
X111831324Y-120150722D01*
X112070140Y-120249887D01*
X112236894Y-120250032D01*
X112312792Y-120300746D01*
X112485000Y-120335000D01*
X114469565Y-120335000D01*
X114469533Y-120372231D01*
X114568281Y-120611219D01*
X114750969Y-120794227D01*
X114989785Y-120893392D01*
X115248371Y-120893617D01*
X115487359Y-120794869D01*
X115581629Y-120700764D01*
X115731324Y-120850722D01*
X115970140Y-120949887D01*
X116228726Y-120950112D01*
X116467714Y-120851364D01*
X116650722Y-120668676D01*
X116749887Y-120429860D01*
X116750112Y-120171274D01*
X116651364Y-119932286D01*
X116468676Y-119749278D01*
X116229860Y-119650113D01*
X116157156Y-119650050D01*
X115722863Y-119215756D01*
X115769532Y-119103364D01*
X115769757Y-118844778D01*
X115671009Y-118605790D01*
X115488321Y-118422782D01*
X115249505Y-118323617D01*
X115176801Y-118323554D01*
X114699694Y-117846447D01*
X114537483Y-117738060D01*
X114534668Y-117737500D01*
X114346141Y-117700000D01*
X113284999Y-117700000D01*
X113284999Y-117485033D01*
X113465183Y-117559852D01*
X113803334Y-117560147D01*
X114115857Y-117431015D01*
X114355174Y-117192115D01*
X114484852Y-116879817D01*
X114485147Y-116541666D01*
X114356015Y-116229143D01*
X114117115Y-115989826D01*
X113804817Y-115860148D01*
X113466666Y-115859853D01*
X113284999Y-115934916D01*
X113284999Y-113801820D01*
X113348791Y-113738028D01*
X113420461Y-113738090D01*
X113659449Y-113639342D01*
X113842457Y-113456654D01*
X113855997Y-113424045D01*
X120361310Y-113424045D01*
X120380957Y-113550476D01*
X120619707Y-113649800D01*
X120878293Y-113650198D01*
X121117347Y-113551609D01*
X121119043Y-113550476D01*
X121138690Y-113424045D01*
X122861310Y-113424045D01*
X122880957Y-113550476D01*
X123119707Y-113649800D01*
X123378293Y-113650198D01*
X123617347Y-113551609D01*
X123619043Y-113550476D01*
X123638690Y-113424045D01*
X125361310Y-113424045D01*
X125380957Y-113550476D01*
X125619707Y-113649800D01*
X125878293Y-113650198D01*
X126117347Y-113551609D01*
X126119043Y-113550476D01*
X126138690Y-113424045D01*
X125750000Y-113035355D01*
X125361310Y-113424045D01*
X123638690Y-113424045D01*
X123250000Y-113035355D01*
X122861310Y-113424045D01*
X121138690Y-113424045D01*
X120750000Y-113035355D01*
X120361310Y-113424045D01*
X113855997Y-113424045D01*
X113941622Y-113217838D01*
X113941699Y-113128293D01*
X120099802Y-113128293D01*
X120198391Y-113367347D01*
X120199524Y-113369043D01*
X120325955Y-113388690D01*
X120714645Y-113000000D01*
X120785355Y-113000000D01*
X121174045Y-113388690D01*
X121300476Y-113369043D01*
X121399800Y-113130293D01*
X121399803Y-113128293D01*
X122599802Y-113128293D01*
X122698391Y-113367347D01*
X122699524Y-113369043D01*
X122825955Y-113388690D01*
X123214645Y-113000000D01*
X123285355Y-113000000D01*
X123674045Y-113388690D01*
X123800476Y-113369043D01*
X123899800Y-113130293D01*
X123899803Y-113128293D01*
X125099802Y-113128293D01*
X125198391Y-113367347D01*
X125199524Y-113369043D01*
X125325955Y-113388690D01*
X125714645Y-113000000D01*
X125785355Y-113000000D01*
X126174045Y-113388690D01*
X126300476Y-113369043D01*
X126399800Y-113130293D01*
X126400198Y-112871707D01*
X126301609Y-112632653D01*
X126300476Y-112630957D01*
X126174045Y-112611310D01*
X125785355Y-113000000D01*
X125714645Y-113000000D01*
X125325955Y-112611310D01*
X125199524Y-112630957D01*
X125100200Y-112869707D01*
X125099802Y-113128293D01*
X123899803Y-113128293D01*
X123900198Y-112871707D01*
X123801609Y-112632653D01*
X123800476Y-112630957D01*
X123674045Y-112611310D01*
X123285355Y-113000000D01*
X123214645Y-113000000D01*
X122825955Y-112611310D01*
X122699524Y-112630957D01*
X122600200Y-112869707D01*
X122599802Y-113128293D01*
X121399803Y-113128293D01*
X121400198Y-112871707D01*
X121301609Y-112632653D01*
X121300476Y-112630957D01*
X121174045Y-112611310D01*
X120785355Y-113000000D01*
X120714645Y-113000000D01*
X120325955Y-112611310D01*
X120199524Y-112630957D01*
X120100200Y-112869707D01*
X120099802Y-113128293D01*
X113941699Y-113128293D01*
X113941847Y-112959252D01*
X113843099Y-112720264D01*
X113699043Y-112575955D01*
X120361310Y-112575955D01*
X120750000Y-112964645D01*
X121138690Y-112575955D01*
X122861310Y-112575955D01*
X123250000Y-112964645D01*
X123638690Y-112575955D01*
X125361310Y-112575955D01*
X125750000Y-112964645D01*
X126138690Y-112575955D01*
X126119043Y-112449524D01*
X125880293Y-112350200D01*
X125621707Y-112349802D01*
X125382653Y-112448391D01*
X125380957Y-112449524D01*
X125361310Y-112575955D01*
X123638690Y-112575955D01*
X123619043Y-112449524D01*
X123380293Y-112350200D01*
X123121707Y-112349802D01*
X122882653Y-112448391D01*
X122880957Y-112449524D01*
X122861310Y-112575955D01*
X121138690Y-112575955D01*
X121119043Y-112449524D01*
X120880293Y-112350200D01*
X120621707Y-112349802D01*
X120382653Y-112448391D01*
X120380957Y-112449524D01*
X120361310Y-112575955D01*
X113699043Y-112575955D01*
X113660411Y-112537256D01*
X113421595Y-112438091D01*
X113163009Y-112437866D01*
X112924021Y-112536614D01*
X112741013Y-112719302D01*
X112641848Y-112958118D01*
X112641785Y-113030822D01*
X112431446Y-113241161D01*
X112323059Y-113403372D01*
X112284999Y-113594714D01*
X112284999Y-117573009D01*
X112229860Y-117550113D01*
X111971274Y-117549888D01*
X111732286Y-117648636D01*
X111549278Y-117831324D01*
X111450113Y-118070140D01*
X111449888Y-118328726D01*
X111098350Y-118328726D01*
X111220174Y-118207115D01*
X111349852Y-117894817D01*
X111350147Y-117556666D01*
X111221015Y-117244143D01*
X110982115Y-117004826D01*
X110669817Y-116875148D01*
X110331666Y-116874853D01*
X110019143Y-117003985D01*
X109779826Y-117242885D01*
X109650148Y-117555183D01*
X109649853Y-117893334D01*
X108540057Y-117893334D01*
X108525797Y-117871175D01*
X108408837Y-117791259D01*
X108270000Y-117763144D01*
X106425000Y-117763144D01*
X106425000Y-113443334D01*
X109649853Y-113443334D01*
X109778985Y-113755857D01*
X110017885Y-113995174D01*
X110330183Y-114124852D01*
X110668334Y-114125147D01*
X110980857Y-113996015D01*
X111220174Y-113757115D01*
X111349852Y-113444817D01*
X111350147Y-113106666D01*
X111221015Y-112794143D01*
X110982115Y-112554826D01*
X110669817Y-112425148D01*
X110331666Y-112424853D01*
X110019143Y-112553985D01*
X109779826Y-112792885D01*
X109650148Y-113105183D01*
X109649853Y-113443334D01*
X106425000Y-113443334D01*
X106425000Y-113236856D01*
X108270000Y-113236856D01*
X108399702Y-113212451D01*
X108518825Y-113135797D01*
X108598741Y-113018837D01*
X108626856Y-112880000D01*
X108626856Y-110440000D01*
X108602451Y-110310298D01*
X108525797Y-110191175D01*
X108408837Y-110111259D01*
X108270000Y-110083144D01*
X106425000Y-110083144D01*
X106425000Y-109541860D01*
X106476462Y-109283143D01*
X106599300Y-109099302D01*
X106783144Y-108976462D01*
X107041860Y-108925000D01*
X127150013Y-108925000D01*
X127149888Y-109068715D01*
X127149888Y-109068715D01*
G37*
X127149888Y-109068715D02*
X127248636Y-109307703D01*
X127300000Y-109359157D01*
X127300000Y-112400000D01*
X127326122Y-112531324D01*
X127338060Y-112591342D01*
X127446447Y-112753553D01*
X127549950Y-112857057D01*
X127549888Y-112928726D01*
X127648636Y-113167714D01*
X127831324Y-113350722D01*
X128070140Y-113449887D01*
X128328726Y-113450112D01*
X128567714Y-113351364D01*
X128750722Y-113168676D01*
X128849887Y-112929860D01*
X128850112Y-112671274D01*
X128751364Y-112432286D01*
X128568676Y-112249278D01*
X128329860Y-112150113D01*
X128300000Y-112150087D01*
X128300000Y-109359298D01*
X128350722Y-109308665D01*
X128449887Y-109069849D01*
X128450013Y-108925000D01*
X135208719Y-108925000D01*
X135101175Y-108994203D01*
X135021259Y-109111163D01*
X134993144Y-109250000D01*
X134993144Y-111050000D01*
X135017549Y-111179702D01*
X135094203Y-111298825D01*
X135211163Y-111378741D01*
X135350000Y-111406856D01*
X138065061Y-111406856D01*
X137984254Y-111527792D01*
X137950000Y-111700000D01*
X137950000Y-112430778D01*
X137849278Y-112531324D01*
X137750113Y-112770140D01*
X137749888Y-113028726D01*
X137848636Y-113267714D01*
X138031324Y-113450722D01*
X138270140Y-113549887D01*
X138528726Y-113550112D01*
X138767714Y-113451364D01*
X138950722Y-113268676D01*
X139049887Y-113029860D01*
X139050112Y-112771274D01*
X138951364Y-112532286D01*
X138850000Y-112430744D01*
X138850000Y-111886396D01*
X138886396Y-111850000D01*
X139340002Y-111850000D01*
X139512210Y-111815746D01*
X139658200Y-111718198D01*
X139818198Y-111558200D01*
X139915746Y-111412210D01*
X139950000Y-111240002D01*
X139950000Y-110310660D01*
X140018198Y-110242462D01*
X140115746Y-110096472D01*
X140138842Y-109980361D01*
X140250722Y-109868676D01*
X140349887Y-109629860D01*
X140350112Y-109371274D01*
X140251364Y-109132286D01*
X140068676Y-108949278D01*
X140010208Y-108925000D01*
X141958140Y-108925000D01*
X142216857Y-108976462D01*
X142400698Y-109099300D01*
X142523538Y-109283144D01*
X142575000Y-109541860D01*
X142575000Y-121458140D01*
X142523538Y-121716856D01*
X142400698Y-121900700D01*
X142216857Y-122023538D01*
X141958140Y-122075000D01*
X139291281Y-122075000D01*
X139398825Y-122005797D01*
X139478741Y-121888837D01*
X139506856Y-121750000D01*
X139506856Y-119950000D01*
X139482451Y-119820298D01*
X139405797Y-119701175D01*
X139288837Y-119621259D01*
X139150000Y-119593144D01*
X135350000Y-119593144D01*
X135220298Y-119617549D01*
X135101175Y-119694203D01*
X135021259Y-119811163D01*
X135009172Y-119870850D01*
X134737353Y-119598556D01*
X134259721Y-119400226D01*
X133742548Y-119399774D01*
X133264571Y-119597271D01*
X132898556Y-119962647D01*
X132700226Y-120440279D01*
X132699774Y-120957452D01*
X132786470Y-121167270D01*
X132672948Y-121053550D01*
X132434132Y-120954385D01*
X132175546Y-120954160D01*
X131936558Y-121052908D01*
X131753550Y-121235596D01*
X131654385Y-121474412D01*
X131654319Y-121550000D01*
X127780395Y-121550000D01*
X127780437Y-121501599D01*
X127681689Y-121262611D01*
X127499001Y-121079603D01*
X127260185Y-120980438D01*
X127001599Y-120980213D01*
X126762611Y-121078961D01*
X126579603Y-121261649D01*
X126480438Y-121500465D01*
X126480213Y-121759051D01*
X126578961Y-121998039D01*
X126655787Y-122075000D01*
X115453024Y-122075000D01*
X115500852Y-121959817D01*
X115501147Y-121621666D01*
X115372015Y-121309143D01*
X115338951Y-121276021D01*
X116511809Y-121276021D01*
X116610557Y-121515009D01*
X116793245Y-121698017D01*
X117032061Y-121797182D01*
X117290647Y-121797407D01*
X117529635Y-121698659D01*
X117712643Y-121515971D01*
X117800027Y-121305527D01*
X118199999Y-121305527D01*
X118372207Y-121271273D01*
X118449983Y-121219304D01*
X118449888Y-121328726D01*
X118548636Y-121567714D01*
X118731324Y-121750722D01*
X118970140Y-121849887D01*
X119228726Y-121850112D01*
X119467714Y-121751364D01*
X119650722Y-121568676D01*
X119749887Y-121329860D01*
X119750112Y-121071274D01*
X119651364Y-120832286D01*
X119550000Y-120730744D01*
X119550000Y-118961745D01*
X126499881Y-118961745D01*
X126598629Y-119200733D01*
X126781317Y-119383741D01*
X127020133Y-119482906D01*
X127278719Y-119483131D01*
X127517707Y-119384383D01*
X127700715Y-119201695D01*
X127799880Y-118962879D01*
X127800005Y-118819403D01*
X127918198Y-118701210D01*
X127977472Y-118612500D01*
X130800000Y-118612500D01*
X130800000Y-119069619D01*
X130853284Y-119198259D01*
X130951741Y-119296715D01*
X131080380Y-119350000D01*
X132537500Y-119350000D01*
X132625000Y-119262500D01*
X132625000Y-118525000D01*
X132675000Y-118525000D01*
X132675000Y-119262500D01*
X132762500Y-119350000D01*
X134219620Y-119350000D01*
X134348259Y-119296715D01*
X134446716Y-119198259D01*
X134500000Y-119069619D01*
X134500000Y-118612500D01*
X134412500Y-118525000D01*
X132675000Y-118525000D01*
X132625000Y-118525000D01*
X130887500Y-118525000D01*
X130800000Y-118612500D01*
X127977472Y-118612500D01*
X128015746Y-118555220D01*
X128050000Y-118383012D01*
X128050000Y-116000000D01*
X130793144Y-116000000D01*
X130793144Y-117000000D01*
X130817549Y-117129702D01*
X130894203Y-117248825D01*
X131011163Y-117328741D01*
X131150000Y-117356856D01*
X131760023Y-117356856D01*
X131759890Y-117509693D01*
X131817864Y-117650000D01*
X131080380Y-117650000D01*
X130951741Y-117703285D01*
X130853284Y-117801741D01*
X130800000Y-117930381D01*
X130800000Y-118387500D01*
X130887500Y-118475000D01*
X132625000Y-118475000D01*
X132625000Y-118455000D01*
X132675000Y-118455000D01*
X132675000Y-118475000D01*
X134412500Y-118475000D01*
X134500000Y-118387500D01*
X134500000Y-117930381D01*
X134446716Y-117801741D01*
X134348259Y-117703285D01*
X134219620Y-117650000D01*
X133002099Y-117650000D01*
X133059889Y-117510827D01*
X133060023Y-117356856D01*
X134150000Y-117356856D01*
X134279702Y-117332451D01*
X134398825Y-117255797D01*
X134478741Y-117138837D01*
X134506856Y-117000000D01*
X134506856Y-116000000D01*
X134482451Y-115870298D01*
X134405797Y-115751175D01*
X134288837Y-115671259D01*
X134150000Y-115643144D01*
X131150000Y-115643144D01*
X131020298Y-115667549D01*
X130901175Y-115744203D01*
X130821259Y-115861163D01*
X130793144Y-116000000D01*
X128050000Y-116000000D01*
X128050000Y-115829224D01*
X128150722Y-115728678D01*
X128249887Y-115489862D01*
X128250112Y-115231276D01*
X128151364Y-114992288D01*
X128138658Y-114979559D01*
X129996680Y-114979559D01*
X130095428Y-115218547D01*
X130278116Y-115401555D01*
X130516932Y-115500720D01*
X130775518Y-115500945D01*
X131014506Y-115402197D01*
X131075117Y-115341692D01*
X131150000Y-115356856D01*
X134150000Y-115356856D01*
X134279702Y-115332451D01*
X134398825Y-115255797D01*
X134478741Y-115138837D01*
X134506856Y-115000000D01*
X134506856Y-114000000D01*
X134482451Y-113870298D01*
X134405797Y-113751175D01*
X134288837Y-113671259D01*
X134150000Y-113643144D01*
X131363962Y-113643144D01*
X131650251Y-113356856D01*
X134150000Y-113356856D01*
X134279702Y-113332451D01*
X134398825Y-113255797D01*
X134478741Y-113138837D01*
X134506856Y-113000000D01*
X134506856Y-112000000D01*
X134482451Y-111870298D01*
X134405797Y-111751175D01*
X134288837Y-111671259D01*
X134150000Y-111643144D01*
X131993252Y-111643144D01*
X133144927Y-110491469D01*
X133213536Y-110491529D01*
X133321397Y-110752572D01*
X133546245Y-110977812D01*
X133840172Y-111099861D01*
X134158432Y-111100139D01*
X134452572Y-110978603D01*
X134677812Y-110753755D01*
X134799861Y-110459828D01*
X134800139Y-110141568D01*
X134678603Y-109847428D01*
X134453755Y-109622188D01*
X134159828Y-109500139D01*
X133841568Y-109499861D01*
X133738296Y-109542532D01*
X133709883Y-109473767D01*
X133527195Y-109290759D01*
X133288379Y-109191594D01*
X133029793Y-109191369D01*
X132790805Y-109290117D01*
X132607797Y-109472805D01*
X132508632Y-109711621D01*
X132508507Y-109855097D01*
X131213604Y-111150000D01*
X131009998Y-111150000D01*
X130837790Y-111184254D01*
X130772630Y-111227793D01*
X130691800Y-111281802D01*
X130481802Y-111491800D01*
X130384254Y-111637790D01*
X130350000Y-111809998D01*
X130350000Y-112145665D01*
X130282284Y-112173645D01*
X130099276Y-112356333D01*
X130000111Y-112595149D01*
X129999886Y-112853735D01*
X130098634Y-113092723D01*
X130193222Y-113187477D01*
X130137502Y-113243100D01*
X130038337Y-113481916D01*
X130038112Y-113740502D01*
X130136860Y-113979490D01*
X130319548Y-114162498D01*
X130464701Y-114222771D01*
X130279078Y-114299469D01*
X130096070Y-114482157D01*
X129996905Y-114720973D01*
X129996680Y-114979559D01*
X128138658Y-114979559D01*
X127968676Y-114809280D01*
X127729860Y-114710115D01*
X127471274Y-114709890D01*
X127232286Y-114808638D01*
X127049278Y-114991326D01*
X126950113Y-115230142D01*
X126949888Y-115488728D01*
X127048636Y-115727716D01*
X127150000Y-115829258D01*
X127150000Y-118183019D01*
X127021267Y-118182907D01*
X126782279Y-118281655D01*
X126599271Y-118464343D01*
X126500106Y-118703159D01*
X126499881Y-118961745D01*
X119550000Y-118961745D01*
X119550000Y-118424045D01*
X120361310Y-118424045D01*
X120380957Y-118550476D01*
X120619707Y-118649800D01*
X120878293Y-118650198D01*
X121117347Y-118551609D01*
X121119043Y-118550476D01*
X121138690Y-118424045D01*
X122861310Y-118424045D01*
X122880957Y-118550476D01*
X123119707Y-118649800D01*
X123378293Y-118650198D01*
X123617347Y-118551609D01*
X123619043Y-118550476D01*
X123638690Y-118424045D01*
X125361310Y-118424045D01*
X125380957Y-118550476D01*
X125619707Y-118649800D01*
X125878293Y-118650198D01*
X126117347Y-118551609D01*
X126119043Y-118550476D01*
X126138690Y-118424045D01*
X125750000Y-118035355D01*
X125361310Y-118424045D01*
X123638690Y-118424045D01*
X123250000Y-118035355D01*
X122861310Y-118424045D01*
X121138690Y-118424045D01*
X120750000Y-118035355D01*
X120361310Y-118424045D01*
X119550000Y-118424045D01*
X119550000Y-118128293D01*
X120099802Y-118128293D01*
X120198391Y-118367347D01*
X120199524Y-118369043D01*
X120325955Y-118388690D01*
X120714645Y-118000000D01*
X120785355Y-118000000D01*
X121174045Y-118388690D01*
X121300476Y-118369043D01*
X121399800Y-118130293D01*
X121399803Y-118128293D01*
X122599802Y-118128293D01*
X122698391Y-118367347D01*
X122699524Y-118369043D01*
X122825955Y-118388690D01*
X123214645Y-118000000D01*
X123285355Y-118000000D01*
X123674045Y-118388690D01*
X123800476Y-118369043D01*
X123899800Y-118130293D01*
X123899803Y-118128293D01*
X125099802Y-118128293D01*
X125198391Y-118367347D01*
X125199524Y-118369043D01*
X125325955Y-118388690D01*
X125714645Y-118000000D01*
X125785355Y-118000000D01*
X126174045Y-118388690D01*
X126300476Y-118369043D01*
X126399800Y-118130293D01*
X126400198Y-117871707D01*
X126301609Y-117632653D01*
X126300476Y-117630957D01*
X126174045Y-117611310D01*
X125785355Y-118000000D01*
X125714645Y-118000000D01*
X125325955Y-117611310D01*
X125199524Y-117630957D01*
X125100200Y-117869707D01*
X125099802Y-118128293D01*
X123899803Y-118128293D01*
X123900198Y-117871707D01*
X123801609Y-117632653D01*
X123800476Y-117630957D01*
X123674045Y-117611310D01*
X123285355Y-118000000D01*
X123214645Y-118000000D01*
X122825955Y-117611310D01*
X122699524Y-117630957D01*
X122600200Y-117869707D01*
X122599802Y-118128293D01*
X121399803Y-118128293D01*
X121400198Y-117871707D01*
X121301609Y-117632653D01*
X121300476Y-117630957D01*
X121174045Y-117611310D01*
X120785355Y-118000000D01*
X120714645Y-118000000D01*
X120325955Y-117611310D01*
X120199524Y-117630957D01*
X120100200Y-117869707D01*
X120099802Y-118128293D01*
X119550000Y-118128293D01*
X119550000Y-117575955D01*
X120361310Y-117575955D01*
X120750000Y-117964645D01*
X121138690Y-117575955D01*
X122861310Y-117575955D01*
X123250000Y-117964645D01*
X123638690Y-117575955D01*
X125361310Y-117575955D01*
X125750000Y-117964645D01*
X126138690Y-117575955D01*
X126119043Y-117449524D01*
X125880293Y-117350200D01*
X125621707Y-117349802D01*
X125382653Y-117448391D01*
X125380957Y-117449524D01*
X125361310Y-117575955D01*
X123638690Y-117575955D01*
X123619043Y-117449524D01*
X123380293Y-117350200D01*
X123121707Y-117349802D01*
X122882653Y-117448391D01*
X122880957Y-117449524D01*
X122861310Y-117575955D01*
X121138690Y-117575955D01*
X121119043Y-117449524D01*
X120880293Y-117350200D01*
X120621707Y-117349802D01*
X120382653Y-117448391D01*
X120380957Y-117449524D01*
X120361310Y-117575955D01*
X119550000Y-117575955D01*
X119550000Y-116349990D01*
X119515746Y-116177782D01*
X119418198Y-116031792D01*
X119310451Y-115924045D01*
X120361310Y-115924045D01*
X120380957Y-116050476D01*
X120619707Y-116149800D01*
X120878293Y-116150198D01*
X121117347Y-116051609D01*
X121119043Y-116050476D01*
X121138690Y-115924045D01*
X122861310Y-115924045D01*
X122880957Y-116050476D01*
X123119707Y-116149800D01*
X123378293Y-116150198D01*
X123617347Y-116051609D01*
X123619043Y-116050476D01*
X123638690Y-115924045D01*
X125361310Y-115924045D01*
X125380957Y-116050476D01*
X125619707Y-116149800D01*
X125878293Y-116150198D01*
X126117347Y-116051609D01*
X126119043Y-116050476D01*
X126138690Y-115924045D01*
X125750000Y-115535355D01*
X125361310Y-115924045D01*
X123638690Y-115924045D01*
X123250000Y-115535355D01*
X122861310Y-115924045D01*
X121138690Y-115924045D01*
X120750000Y-115535355D01*
X120361310Y-115924045D01*
X119310451Y-115924045D01*
X119049988Y-115663582D01*
X119050018Y-115628293D01*
X120099802Y-115628293D01*
X120198391Y-115867347D01*
X120199524Y-115869043D01*
X120325955Y-115888690D01*
X120714645Y-115500000D01*
X120785355Y-115500000D01*
X121174045Y-115888690D01*
X121300476Y-115869043D01*
X121399800Y-115630293D01*
X121399803Y-115628293D01*
X122599802Y-115628293D01*
X122698391Y-115867347D01*
X122699524Y-115869043D01*
X122825955Y-115888690D01*
X123214645Y-115500000D01*
X123285355Y-115500000D01*
X123674045Y-115888690D01*
X123800476Y-115869043D01*
X123899800Y-115630293D01*
X123899803Y-115628293D01*
X125099802Y-115628293D01*
X125198391Y-115867347D01*
X125199524Y-115869043D01*
X125325955Y-115888690D01*
X125714645Y-115500000D01*
X125785355Y-115500000D01*
X126174045Y-115888690D01*
X126300476Y-115869043D01*
X126399800Y-115630293D01*
X126400198Y-115371707D01*
X126301609Y-115132653D01*
X126300476Y-115130957D01*
X126174045Y-115111310D01*
X125785355Y-115500000D01*
X125714645Y-115500000D01*
X125325955Y-115111310D01*
X125199524Y-115130957D01*
X125100200Y-115369707D01*
X125099802Y-115628293D01*
X123899803Y-115628293D01*
X123900198Y-115371707D01*
X123801609Y-115132653D01*
X123800476Y-115130957D01*
X123674045Y-115111310D01*
X123285355Y-115500000D01*
X123214645Y-115500000D01*
X122825955Y-115111310D01*
X122699524Y-115130957D01*
X122600200Y-115369707D01*
X122599802Y-115628293D01*
X121399803Y-115628293D01*
X121400198Y-115371707D01*
X121301609Y-115132653D01*
X121300476Y-115130957D01*
X121174045Y-115111310D01*
X120785355Y-115500000D01*
X120714645Y-115500000D01*
X120325955Y-115111310D01*
X120199524Y-115130957D01*
X120100200Y-115369707D01*
X120099802Y-115628293D01*
X119050018Y-115628293D01*
X119050112Y-115521264D01*
X119000665Y-115401594D01*
X119156855Y-115245677D01*
X119227329Y-115075955D01*
X120361310Y-115075955D01*
X120750000Y-115464645D01*
X121138690Y-115075955D01*
X122861310Y-115075955D01*
X123250000Y-115464645D01*
X123638690Y-115075955D01*
X125361310Y-115075955D01*
X125750000Y-115464645D01*
X126138690Y-115075955D01*
X126119043Y-114949524D01*
X125880293Y-114850200D01*
X125621707Y-114849802D01*
X125382653Y-114948391D01*
X125380957Y-114949524D01*
X125361310Y-115075955D01*
X123638690Y-115075955D01*
X123619043Y-114949524D01*
X123380293Y-114850200D01*
X123121707Y-114849802D01*
X122882653Y-114948391D01*
X122880957Y-114949524D01*
X122861310Y-115075955D01*
X121138690Y-115075955D01*
X121119043Y-114949524D01*
X120880293Y-114850200D01*
X120621707Y-114849802D01*
X120382653Y-114948391D01*
X120380957Y-114949524D01*
X120361310Y-115075955D01*
X119227329Y-115075955D01*
X119256020Y-115006861D01*
X119256245Y-114748275D01*
X119157497Y-114509287D01*
X118974809Y-114326279D01*
X118735993Y-114227114D01*
X118549977Y-114226952D01*
X118550112Y-114071274D01*
X118451364Y-113832286D01*
X118268676Y-113649278D01*
X118029860Y-113550113D01*
X117771274Y-113549888D01*
X117532286Y-113648636D01*
X117430744Y-113750000D01*
X117400000Y-113750000D01*
X117227792Y-113784254D01*
X117112690Y-113861163D01*
X117081802Y-113881802D01*
X116781802Y-114181802D01*
X116684254Y-114327792D01*
X116650000Y-114500000D01*
X116650000Y-116900000D01*
X116684254Y-117072208D01*
X116750448Y-117171274D01*
X116781802Y-117218198D01*
X116850012Y-117286408D01*
X116849888Y-117428726D01*
X116948636Y-117667714D01*
X117131324Y-117850722D01*
X117370140Y-117949887D01*
X117628726Y-117950112D01*
X117867714Y-117851364D01*
X118050722Y-117668676D01*
X118149887Y-117429860D01*
X118150000Y-117299992D01*
X118150000Y-120269130D01*
X118013603Y-120405527D01*
X117453689Y-120405527D01*
X117281481Y-120439781D01*
X117195362Y-120497324D01*
X117033195Y-120497183D01*
X116794207Y-120595931D01*
X116611199Y-120778619D01*
X116512034Y-121017435D01*
X116511809Y-121276021D01*
X115338951Y-121276021D01*
X115133115Y-121069826D01*
X114820817Y-120940148D01*
X114482666Y-120939853D01*
X114170143Y-121068985D01*
X113930826Y-121307885D01*
X113801148Y-121620183D01*
X113800853Y-121958334D01*
X113849058Y-122075000D01*
X113421024Y-122075000D01*
X113468852Y-121959817D01*
X113469147Y-121621666D01*
X113340015Y-121309143D01*
X113101115Y-121069826D01*
X112788817Y-120940148D01*
X112450666Y-120939853D01*
X112138143Y-121068985D01*
X111898826Y-121307885D01*
X111769148Y-121620183D01*
X111768853Y-121958334D01*
X111817058Y-122075000D01*
X107041860Y-122075000D01*
X106783144Y-122023538D01*
X106599300Y-121900698D01*
X106476462Y-121716857D01*
X106425000Y-121458140D01*
X106425000Y-120916856D01*
X108270000Y-120916856D01*
X108399702Y-120892451D01*
X108518825Y-120815797D01*
X108598741Y-120698837D01*
X108626856Y-120560000D01*
X108626856Y-118120000D01*
X108602451Y-117990298D01*
X108540057Y-117893334D01*
X109649853Y-117893334D01*
X109778985Y-118205857D01*
X110017885Y-118445174D01*
X110330183Y-118574852D01*
X110668334Y-118575147D01*
X110980857Y-118446015D01*
X111098350Y-118328726D01*
X111449888Y-118328726D01*
X111548636Y-118567714D01*
X111731324Y-118750722D01*
X111970140Y-118849887D01*
X112228726Y-118850112D01*
X112467714Y-118751364D01*
X112519168Y-118700000D01*
X114139035Y-118700000D01*
X114469595Y-119030560D01*
X114469533Y-119102230D01*
X114568281Y-119341218D01*
X114637786Y-119410844D01*
X114642590Y-119435000D01*
X112835124Y-119435000D01*
X112751364Y-119232286D01*
X112568676Y-119049278D01*
X112329860Y-118950113D01*
X112071274Y-118949888D01*
X111832286Y-119048636D01*
X111649278Y-119231324D01*
X111550113Y-119470140D01*
X111549888Y-119728726D01*
X111648636Y-119967714D01*
X111831324Y-120150722D01*
X112070140Y-120249887D01*
X112236894Y-120250032D01*
X112312792Y-120300746D01*
X112485000Y-120335000D01*
X114469565Y-120335000D01*
X114469533Y-120372231D01*
X114568281Y-120611219D01*
X114750969Y-120794227D01*
X114989785Y-120893392D01*
X115248371Y-120893617D01*
X115487359Y-120794869D01*
X115581629Y-120700764D01*
X115731324Y-120850722D01*
X115970140Y-120949887D01*
X116228726Y-120950112D01*
X116467714Y-120851364D01*
X116650722Y-120668676D01*
X116749887Y-120429860D01*
X116750112Y-120171274D01*
X116651364Y-119932286D01*
X116468676Y-119749278D01*
X116229860Y-119650113D01*
X116157156Y-119650050D01*
X115722863Y-119215756D01*
X115769532Y-119103364D01*
X115769757Y-118844778D01*
X115671009Y-118605790D01*
X115488321Y-118422782D01*
X115249505Y-118323617D01*
X115176801Y-118323554D01*
X114699694Y-117846447D01*
X114537483Y-117738060D01*
X114534668Y-117737500D01*
X114346141Y-117700000D01*
X113284999Y-117700000D01*
X113284999Y-117485033D01*
X113465183Y-117559852D01*
X113803334Y-117560147D01*
X114115857Y-117431015D01*
X114355174Y-117192115D01*
X114484852Y-116879817D01*
X114485147Y-116541666D01*
X114356015Y-116229143D01*
X114117115Y-115989826D01*
X113804817Y-115860148D01*
X113466666Y-115859853D01*
X113284999Y-115934916D01*
X113284999Y-113801820D01*
X113348791Y-113738028D01*
X113420461Y-113738090D01*
X113659449Y-113639342D01*
X113842457Y-113456654D01*
X113855997Y-113424045D01*
X120361310Y-113424045D01*
X120380957Y-113550476D01*
X120619707Y-113649800D01*
X120878293Y-113650198D01*
X121117347Y-113551609D01*
X121119043Y-113550476D01*
X121138690Y-113424045D01*
X122861310Y-113424045D01*
X122880957Y-113550476D01*
X123119707Y-113649800D01*
X123378293Y-113650198D01*
X123617347Y-113551609D01*
X123619043Y-113550476D01*
X123638690Y-113424045D01*
X125361310Y-113424045D01*
X125380957Y-113550476D01*
X125619707Y-113649800D01*
X125878293Y-113650198D01*
X126117347Y-113551609D01*
X126119043Y-113550476D01*
X126138690Y-113424045D01*
X125750000Y-113035355D01*
X125361310Y-113424045D01*
X123638690Y-113424045D01*
X123250000Y-113035355D01*
X122861310Y-113424045D01*
X121138690Y-113424045D01*
X120750000Y-113035355D01*
X120361310Y-113424045D01*
X113855997Y-113424045D01*
X113941622Y-113217838D01*
X113941699Y-113128293D01*
X120099802Y-113128293D01*
X120198391Y-113367347D01*
X120199524Y-113369043D01*
X120325955Y-113388690D01*
X120714645Y-113000000D01*
X120785355Y-113000000D01*
X121174045Y-113388690D01*
X121300476Y-113369043D01*
X121399800Y-113130293D01*
X121399803Y-113128293D01*
X122599802Y-113128293D01*
X122698391Y-113367347D01*
X122699524Y-113369043D01*
X122825955Y-113388690D01*
X123214645Y-113000000D01*
X123285355Y-113000000D01*
X123674045Y-113388690D01*
X123800476Y-113369043D01*
X123899800Y-113130293D01*
X123899803Y-113128293D01*
X125099802Y-113128293D01*
X125198391Y-113367347D01*
X125199524Y-113369043D01*
X125325955Y-113388690D01*
X125714645Y-113000000D01*
X125785355Y-113000000D01*
X126174045Y-113388690D01*
X126300476Y-113369043D01*
X126399800Y-113130293D01*
X126400198Y-112871707D01*
X126301609Y-112632653D01*
X126300476Y-112630957D01*
X126174045Y-112611310D01*
X125785355Y-113000000D01*
X125714645Y-113000000D01*
X125325955Y-112611310D01*
X125199524Y-112630957D01*
X125100200Y-112869707D01*
X125099802Y-113128293D01*
X123899803Y-113128293D01*
X123900198Y-112871707D01*
X123801609Y-112632653D01*
X123800476Y-112630957D01*
X123674045Y-112611310D01*
X123285355Y-113000000D01*
X123214645Y-113000000D01*
X122825955Y-112611310D01*
X122699524Y-112630957D01*
X122600200Y-112869707D01*
X122599802Y-113128293D01*
X121399803Y-113128293D01*
X121400198Y-112871707D01*
X121301609Y-112632653D01*
X121300476Y-112630957D01*
X121174045Y-112611310D01*
X120785355Y-113000000D01*
X120714645Y-113000000D01*
X120325955Y-112611310D01*
X120199524Y-112630957D01*
X120100200Y-112869707D01*
X120099802Y-113128293D01*
X113941699Y-113128293D01*
X113941847Y-112959252D01*
X113843099Y-112720264D01*
X113699043Y-112575955D01*
X120361310Y-112575955D01*
X120750000Y-112964645D01*
X121138690Y-112575955D01*
X122861310Y-112575955D01*
X123250000Y-112964645D01*
X123638690Y-112575955D01*
X125361310Y-112575955D01*
X125750000Y-112964645D01*
X126138690Y-112575955D01*
X126119043Y-112449524D01*
X125880293Y-112350200D01*
X125621707Y-112349802D01*
X125382653Y-112448391D01*
X125380957Y-112449524D01*
X125361310Y-112575955D01*
X123638690Y-112575955D01*
X123619043Y-112449524D01*
X123380293Y-112350200D01*
X123121707Y-112349802D01*
X122882653Y-112448391D01*
X122880957Y-112449524D01*
X122861310Y-112575955D01*
X121138690Y-112575955D01*
X121119043Y-112449524D01*
X120880293Y-112350200D01*
X120621707Y-112349802D01*
X120382653Y-112448391D01*
X120380957Y-112449524D01*
X120361310Y-112575955D01*
X113699043Y-112575955D01*
X113660411Y-112537256D01*
X113421595Y-112438091D01*
X113163009Y-112437866D01*
X112924021Y-112536614D01*
X112741013Y-112719302D01*
X112641848Y-112958118D01*
X112641785Y-113030822D01*
X112431446Y-113241161D01*
X112323059Y-113403372D01*
X112284999Y-113594714D01*
X112284999Y-117573009D01*
X112229860Y-117550113D01*
X111971274Y-117549888D01*
X111732286Y-117648636D01*
X111549278Y-117831324D01*
X111450113Y-118070140D01*
X111449888Y-118328726D01*
X111098350Y-118328726D01*
X111220174Y-118207115D01*
X111349852Y-117894817D01*
X111350147Y-117556666D01*
X111221015Y-117244143D01*
X110982115Y-117004826D01*
X110669817Y-116875148D01*
X110331666Y-116874853D01*
X110019143Y-117003985D01*
X109779826Y-117242885D01*
X109650148Y-117555183D01*
X109649853Y-117893334D01*
X108540057Y-117893334D01*
X108525797Y-117871175D01*
X108408837Y-117791259D01*
X108270000Y-117763144D01*
X106425000Y-117763144D01*
X106425000Y-113443334D01*
X109649853Y-113443334D01*
X109778985Y-113755857D01*
X110017885Y-113995174D01*
X110330183Y-114124852D01*
X110668334Y-114125147D01*
X110980857Y-113996015D01*
X111220174Y-113757115D01*
X111349852Y-113444817D01*
X111350147Y-113106666D01*
X111221015Y-112794143D01*
X110982115Y-112554826D01*
X110669817Y-112425148D01*
X110331666Y-112424853D01*
X110019143Y-112553985D01*
X109779826Y-112792885D01*
X109650148Y-113105183D01*
X109649853Y-113443334D01*
X106425000Y-113443334D01*
X106425000Y-113236856D01*
X108270000Y-113236856D01*
X108399702Y-113212451D01*
X108518825Y-113135797D01*
X108598741Y-113018837D01*
X108626856Y-112880000D01*
X108626856Y-110440000D01*
X108602451Y-110310298D01*
X108525797Y-110191175D01*
X108408837Y-110111259D01*
X108270000Y-110083144D01*
X106425000Y-110083144D01*
X106425000Y-109541860D01*
X106476462Y-109283143D01*
X106599300Y-109099302D01*
X106783144Y-108976462D01*
X107041860Y-108925000D01*
X127150013Y-108925000D01*
X127149888Y-109068715D01*
M02*
