G04 #@! TF.FileFunction,Copper,L2,Bot,Signal*
%FSLAX46Y46*%
G04 Gerber Fmt 4.6, Leading zero omitted, Abs format (unit mm)*
G04 Created by KiCad (PCBNEW 0.201512311516+6410~40~ubuntu14.04.1-stable) date Sat 02 Jan 2016 08:24:33 GMT*
%MOMM*%
G01*
G04 APERTURE LIST*
%ADD10C,0.100000*%
%ADD11C,0.600000*%
%ADD12C,1.000000*%
%ADD13R,1.900000X2.440000*%
%ADD14C,1.016000*%
%ADD15R,3.800000X1.800000*%
%ADD16R,3.000000X1.000000*%
%ADD17C,0.300000*%
%ADD18C,0.200000*%
G04 APERTURE END LIST*
D10*
D11*
X118250000Y-102500000D03*
X118250000Y-100000000D03*
X118250000Y-97500000D03*
X115750000Y-102500000D03*
X115750000Y-100000000D03*
X115750000Y-97500000D03*
X113250000Y-102500000D03*
X113250000Y-100000000D03*
X113250000Y-97500000D03*
D12*
X103000000Y-97775000D03*
X103000000Y-102225000D03*
D13*
X99820000Y-103840000D03*
X99820000Y-96160000D03*
D14*
X130865000Y-97460000D03*
X132135000Y-97460000D03*
X130865000Y-98730000D03*
X132135000Y-98730000D03*
X130865000Y-100000000D03*
X132135000Y-100000000D03*
X130865000Y-101270000D03*
X132135000Y-101270000D03*
X130865000Y-102540000D03*
X132135000Y-102540000D03*
D15*
X129750000Y-94650000D03*
X129750000Y-105350000D03*
D16*
X125150000Y-97000000D03*
X125150000Y-99000000D03*
X125150000Y-101000000D03*
X125150000Y-103000000D03*
D11*
X123188224Y-98111776D03*
X120700000Y-97300000D03*
X120300000Y-93439989D03*
X105791735Y-97587978D03*
X108600000Y-104800000D03*
X107619645Y-103473504D03*
X104600000Y-102700000D03*
X122800000Y-99000000D03*
X114699990Y-95103484D03*
X127349998Y-94300000D03*
X116850000Y-104200000D03*
X116700000Y-94700000D03*
X107600000Y-98200000D03*
X109600000Y-96500000D03*
X110418272Y-103118272D03*
X104700000Y-105000000D03*
X104100000Y-102000000D03*
X104100000Y-100600000D03*
X104100000Y-101300000D03*
X123100000Y-103200000D03*
X120100000Y-99860002D03*
X107619645Y-104743505D03*
X119649993Y-103333019D03*
X104700000Y-104100000D03*
X132100000Y-104000000D03*
X123149998Y-97225009D03*
X124691359Y-94214324D03*
X110400000Y-98700000D03*
X110000000Y-101800000D03*
X123400000Y-99800000D03*
X124804272Y-106104272D03*
X119630325Y-106130325D03*
X109661921Y-105647295D03*
X111106133Y-99377001D03*
X127100000Y-101400000D03*
X111600000Y-105700000D03*
X110900000Y-100149990D03*
X132150002Y-95000000D03*
D17*
X124300000Y-97000000D02*
X123188224Y-98111776D01*
X120300000Y-93439989D02*
X120300000Y-96900000D01*
X120300000Y-96900000D02*
X120700000Y-97300000D01*
X125150000Y-97000000D02*
X124300000Y-97000000D01*
X107619645Y-103819645D02*
X108600000Y-104800000D01*
X107619645Y-103473504D02*
X107619645Y-103819645D01*
X106846141Y-102700000D02*
X105300000Y-102700000D01*
X105300000Y-102700000D02*
X104600000Y-102700000D01*
X105284999Y-102684999D02*
X105300000Y-102700000D01*
X105791735Y-97587978D02*
X105284999Y-98094714D01*
X105284999Y-98094714D02*
X105284999Y-102684999D01*
X107619645Y-103473504D02*
X106846141Y-102700000D01*
X125150000Y-103000000D02*
X126150000Y-103000000D01*
D18*
X120100000Y-99860002D02*
X120100000Y-102883012D01*
X120100000Y-102883012D02*
X119649993Y-103333019D01*
X107261140Y-104385000D02*
X107619645Y-104743505D01*
X106141415Y-104385000D02*
X107261140Y-104385000D01*
X104985000Y-104385000D02*
X104700000Y-104100000D01*
X106141415Y-104385000D02*
X104985000Y-104385000D01*
X132100000Y-102575000D02*
X132100000Y-104000000D01*
X132100000Y-102575000D02*
X132135000Y-102540000D01*
X123300000Y-96309998D02*
X123300000Y-97075007D01*
X123300000Y-97075007D02*
X123149998Y-97225009D01*
X124682718Y-96100000D02*
X123509998Y-96100000D01*
X123509998Y-96100000D02*
X123300000Y-96309998D01*
X124691359Y-96091359D02*
X124682718Y-96100000D01*
X124691359Y-94214324D02*
X124691359Y-96091359D01*
X109600000Y-99000000D02*
X109900000Y-98700000D01*
X109900000Y-98700000D02*
X110400000Y-98700000D01*
X109600000Y-99200000D02*
X109600000Y-99000000D01*
X110000000Y-101800000D02*
X109600000Y-101400000D01*
X109600000Y-101400000D02*
X109600000Y-99200000D01*
X125150000Y-99000000D02*
X124150000Y-99000000D01*
X124150000Y-99000000D02*
X123400000Y-99750000D01*
X123400000Y-99750000D02*
X123400000Y-99800000D01*
X120000000Y-106500000D02*
X124408544Y-106500000D01*
X124408544Y-106500000D02*
X124804272Y-106104272D01*
X119630325Y-106130325D02*
X120000000Y-106500000D01*
X110699999Y-105355527D02*
X109953689Y-105355527D01*
X109953689Y-105355527D02*
X109661921Y-105647295D01*
X111100000Y-101339952D02*
X111100000Y-104955526D01*
X111100000Y-104955526D02*
X110699999Y-105355527D01*
X110734312Y-100974264D02*
X111100000Y-101339952D01*
X111106133Y-99377001D02*
X110681869Y-99377001D01*
X110299999Y-99758871D02*
X110299999Y-100539951D01*
X110681869Y-99377001D02*
X110299999Y-99758871D01*
X110299999Y-100539951D02*
X110734312Y-100974264D01*
X125150000Y-101000000D02*
X126850000Y-101000000D01*
X126850000Y-101000000D02*
X127100000Y-101250000D01*
X127100000Y-101250000D02*
X127100000Y-101400000D01*
X111600000Y-104900000D02*
X111600000Y-105700000D01*
X111600000Y-100849990D02*
X111600000Y-104900000D01*
X110900000Y-100149990D02*
X111600000Y-100849990D01*
X132150002Y-95000000D02*
X132150002Y-96174998D01*
X132150002Y-96174998D02*
X130865000Y-97460000D01*
G36*
X119649888Y-93568715D02*
X119748636Y-93807703D01*
X119800000Y-93859157D01*
X119800000Y-96900000D01*
X119827174Y-97036614D01*
X119838060Y-97091342D01*
X119946447Y-97253553D01*
X120049950Y-97357057D01*
X120049888Y-97428726D01*
X120148636Y-97667714D01*
X120331324Y-97850722D01*
X120570140Y-97949887D01*
X120828726Y-97950112D01*
X121067714Y-97851364D01*
X121250722Y-97668676D01*
X121349887Y-97429860D01*
X121349953Y-97353735D01*
X122499886Y-97353735D01*
X122598634Y-97592723D01*
X122693222Y-97687477D01*
X122637502Y-97743100D01*
X122538337Y-97981916D01*
X122538112Y-98240502D01*
X122636860Y-98479490D01*
X122819548Y-98662498D01*
X123058364Y-98761663D01*
X123293144Y-98761867D01*
X123293144Y-99149907D01*
X123271274Y-99149888D01*
X123032286Y-99248636D01*
X122849278Y-99431324D01*
X122750113Y-99670140D01*
X122749888Y-99928726D01*
X122848636Y-100167714D01*
X123031324Y-100350722D01*
X123270140Y-100449887D01*
X123303286Y-100449916D01*
X123293144Y-100500000D01*
X123293144Y-101500000D01*
X123317549Y-101629702D01*
X123394203Y-101748825D01*
X123511163Y-101828741D01*
X123650000Y-101856856D01*
X126637622Y-101856856D01*
X126731324Y-101950722D01*
X126970140Y-102049887D01*
X127228726Y-102050112D01*
X127467714Y-101951364D01*
X127650722Y-101768676D01*
X127749887Y-101529860D01*
X127750112Y-101271274D01*
X127651364Y-101032286D01*
X127468676Y-100849278D01*
X127241230Y-100754834D01*
X127168198Y-100681802D01*
X127162182Y-100677782D01*
X127022208Y-100584254D01*
X127006856Y-100581200D01*
X127006856Y-100500000D01*
X126982451Y-100370298D01*
X126905797Y-100251175D01*
X126788837Y-100171259D01*
X126740582Y-100161487D01*
X130005225Y-100161487D01*
X130132470Y-100478216D01*
X130142859Y-100493764D01*
X130290892Y-100538753D01*
X130829645Y-100000000D01*
X130290892Y-99461247D01*
X130142859Y-99506236D01*
X130008873Y-99820173D01*
X130005225Y-100161487D01*
X126740582Y-100161487D01*
X126650000Y-100143144D01*
X123961324Y-100143144D01*
X124049887Y-99929860D01*
X124049951Y-99856856D01*
X126650000Y-99856856D01*
X126779702Y-99832451D01*
X126898825Y-99755797D01*
X126978741Y-99638837D01*
X127006856Y-99500000D01*
X127006856Y-99304108D01*
X130326247Y-99304108D01*
X130344753Y-99365000D01*
X130326247Y-99425892D01*
X130865000Y-99964645D01*
X131403753Y-99425892D01*
X131385247Y-99365000D01*
X131403753Y-99304108D01*
X130865000Y-98765355D01*
X130326247Y-99304108D01*
X127006856Y-99304108D01*
X127006856Y-98891487D01*
X130005225Y-98891487D01*
X130132470Y-99208216D01*
X130142859Y-99223764D01*
X130290892Y-99268753D01*
X130829645Y-98730000D01*
X130290892Y-98191247D01*
X130142859Y-98236236D01*
X130008873Y-98550173D01*
X130005225Y-98891487D01*
X127006856Y-98891487D01*
X127006856Y-98500000D01*
X126982451Y-98370298D01*
X126905797Y-98251175D01*
X126788837Y-98171259D01*
X126650000Y-98143144D01*
X123863962Y-98143144D01*
X124150251Y-97856856D01*
X126650000Y-97856856D01*
X126779702Y-97832451D01*
X126898825Y-97755797D01*
X126978741Y-97638837D01*
X127006856Y-97500000D01*
X127006856Y-96500000D01*
X126982451Y-96370298D01*
X126905797Y-96251175D01*
X126788837Y-96171259D01*
X126650000Y-96143144D01*
X125131058Y-96143144D01*
X125141359Y-96091359D01*
X125141359Y-94958432D01*
X125699861Y-94958432D01*
X125821397Y-95252572D01*
X126046245Y-95477812D01*
X126340172Y-95599861D01*
X126658432Y-95600139D01*
X126952572Y-95478603D01*
X127177812Y-95253755D01*
X127299861Y-94959828D01*
X127300139Y-94641568D01*
X127178603Y-94347428D01*
X126953755Y-94122188D01*
X126659828Y-94000139D01*
X126341568Y-93999861D01*
X126047428Y-94121397D01*
X125822188Y-94346245D01*
X125700139Y-94640172D01*
X125699861Y-94958432D01*
X125141359Y-94958432D01*
X125141359Y-94683546D01*
X125242081Y-94583000D01*
X125341246Y-94344184D01*
X125341471Y-94085598D01*
X125242723Y-93846610D01*
X125060035Y-93663602D01*
X124821219Y-93564437D01*
X124562633Y-93564212D01*
X124323645Y-93662960D01*
X124140637Y-93845648D01*
X124041472Y-94084464D01*
X124041247Y-94343050D01*
X124139995Y-94582038D01*
X124241359Y-94683580D01*
X124241359Y-95650000D01*
X123509998Y-95650000D01*
X123337790Y-95684254D01*
X123276813Y-95724998D01*
X123191800Y-95781802D01*
X122981802Y-95991800D01*
X122884254Y-96137790D01*
X122850000Y-96309998D01*
X122850000Y-96645665D01*
X122782284Y-96673645D01*
X122599276Y-96856333D01*
X122500111Y-97095149D01*
X122499886Y-97353735D01*
X121349953Y-97353735D01*
X121350112Y-97171274D01*
X121251364Y-96932286D01*
X121068676Y-96749278D01*
X120829860Y-96650113D01*
X120800000Y-96650087D01*
X120800000Y-93859298D01*
X120850722Y-93808665D01*
X120949887Y-93569849D01*
X120950013Y-93425000D01*
X127708719Y-93425000D01*
X127601175Y-93494203D01*
X127521259Y-93611163D01*
X127493144Y-93750000D01*
X127493144Y-95550000D01*
X127517549Y-95679702D01*
X127594203Y-95798825D01*
X127711163Y-95878741D01*
X127850000Y-95906856D01*
X131650000Y-95906856D01*
X131700002Y-95897448D01*
X131700002Y-95988602D01*
X131071773Y-96616831D01*
X131036415Y-96602149D01*
X130695082Y-96601852D01*
X130379617Y-96732199D01*
X130138047Y-96973348D01*
X130007149Y-97288585D01*
X130006852Y-97629918D01*
X130137199Y-97945383D01*
X130331170Y-98139693D01*
X130326247Y-98155892D01*
X130865000Y-98694645D01*
X131403753Y-98155892D01*
X131398771Y-98139498D01*
X131500049Y-98038395D01*
X131556605Y-98095049D01*
X131455307Y-98196170D01*
X131439108Y-98191247D01*
X130900355Y-98730000D01*
X131439108Y-99268753D01*
X131455502Y-99263771D01*
X131556605Y-99365049D01*
X131455307Y-99466170D01*
X131439108Y-99461247D01*
X130900355Y-100000000D01*
X131439108Y-100538753D01*
X131455502Y-100533771D01*
X131556605Y-100635049D01*
X131499951Y-100691605D01*
X131398830Y-100590307D01*
X131403753Y-100574108D01*
X130865000Y-100035355D01*
X130326247Y-100574108D01*
X130331229Y-100590502D01*
X130138047Y-100783348D01*
X130007149Y-101098585D01*
X130006852Y-101439918D01*
X130137199Y-101755383D01*
X130331170Y-101949693D01*
X130326247Y-101965892D01*
X130865000Y-102504645D01*
X131403753Y-101965892D01*
X131398771Y-101949498D01*
X131500049Y-101848395D01*
X131556605Y-101905049D01*
X131455307Y-102006170D01*
X131439108Y-102001247D01*
X130900355Y-102540000D01*
X131439108Y-103078753D01*
X131455502Y-103073771D01*
X131648348Y-103266953D01*
X131650000Y-103267639D01*
X131650000Y-103530778D01*
X131549278Y-103631324D01*
X131450113Y-103870140D01*
X131449919Y-104093144D01*
X127850000Y-104093144D01*
X127720298Y-104117549D01*
X127601175Y-104194203D01*
X127521259Y-104311163D01*
X127509172Y-104370850D01*
X127237353Y-104098556D01*
X126759721Y-103900226D01*
X126242548Y-103899774D01*
X125764571Y-104097271D01*
X125398556Y-104462647D01*
X125200226Y-104940279D01*
X125199774Y-105457452D01*
X125286470Y-105667270D01*
X125172948Y-105553550D01*
X124934132Y-105454385D01*
X124675546Y-105454160D01*
X124436558Y-105552908D01*
X124253550Y-105735596D01*
X124154385Y-105974412D01*
X124154319Y-106050000D01*
X120280395Y-106050000D01*
X120280437Y-106001599D01*
X120181689Y-105762611D01*
X119999001Y-105579603D01*
X119760185Y-105480438D01*
X119501599Y-105480213D01*
X119262611Y-105578961D01*
X119079603Y-105761649D01*
X118980438Y-106000465D01*
X118980213Y-106259051D01*
X119078961Y-106498039D01*
X119155787Y-106575000D01*
X107953024Y-106575000D01*
X108000852Y-106459817D01*
X108001147Y-106121666D01*
X107872015Y-105809143D01*
X107838951Y-105776021D01*
X109011809Y-105776021D01*
X109110557Y-106015009D01*
X109293245Y-106198017D01*
X109532061Y-106297182D01*
X109790647Y-106297407D01*
X110029635Y-106198659D01*
X110212643Y-106015971D01*
X110300027Y-105805527D01*
X110699999Y-105805527D01*
X110872207Y-105771273D01*
X110949983Y-105719304D01*
X110949888Y-105828726D01*
X111048636Y-106067714D01*
X111231324Y-106250722D01*
X111470140Y-106349887D01*
X111728726Y-106350112D01*
X111967714Y-106251364D01*
X112150722Y-106068676D01*
X112249887Y-105829860D01*
X112250112Y-105571274D01*
X112151364Y-105332286D01*
X112050000Y-105230744D01*
X112050000Y-103461745D01*
X118999881Y-103461745D01*
X119098629Y-103700733D01*
X119281317Y-103883741D01*
X119520133Y-103982906D01*
X119778719Y-103983131D01*
X120017707Y-103884383D01*
X120200715Y-103701695D01*
X120299880Y-103462879D01*
X120300005Y-103319403D01*
X120418198Y-103201210D01*
X120477472Y-103112500D01*
X123300000Y-103112500D01*
X123300000Y-103569619D01*
X123353284Y-103698259D01*
X123451741Y-103796715D01*
X123580380Y-103850000D01*
X125037500Y-103850000D01*
X125125000Y-103762500D01*
X125125000Y-103025000D01*
X125175000Y-103025000D01*
X125175000Y-103762500D01*
X125262500Y-103850000D01*
X126719620Y-103850000D01*
X126848259Y-103796715D01*
X126946716Y-103698259D01*
X127000000Y-103569619D01*
X127000000Y-103114108D01*
X130326247Y-103114108D01*
X130371236Y-103262141D01*
X130685173Y-103396127D01*
X131026487Y-103399775D01*
X131343216Y-103272530D01*
X131358764Y-103262141D01*
X131403753Y-103114108D01*
X130865000Y-102575355D01*
X130326247Y-103114108D01*
X127000000Y-103114108D01*
X127000000Y-103112500D01*
X126912500Y-103025000D01*
X125175000Y-103025000D01*
X125125000Y-103025000D01*
X123387500Y-103025000D01*
X123300000Y-103112500D01*
X120477472Y-103112500D01*
X120515746Y-103055220D01*
X120550000Y-102883012D01*
X120550000Y-102430381D01*
X123300000Y-102430381D01*
X123300000Y-102887500D01*
X123387500Y-102975000D01*
X125125000Y-102975000D01*
X125125000Y-102237500D01*
X125175000Y-102237500D01*
X125175000Y-102975000D01*
X126912500Y-102975000D01*
X127000000Y-102887500D01*
X127000000Y-102701487D01*
X130005225Y-102701487D01*
X130132470Y-103018216D01*
X130142859Y-103033764D01*
X130290892Y-103078753D01*
X130829645Y-102540000D01*
X130290892Y-102001247D01*
X130142859Y-102046236D01*
X130008873Y-102360173D01*
X130005225Y-102701487D01*
X127000000Y-102701487D01*
X127000000Y-102430381D01*
X126946716Y-102301741D01*
X126848259Y-102203285D01*
X126719620Y-102150000D01*
X125262500Y-102150000D01*
X125175000Y-102237500D01*
X125125000Y-102237500D01*
X125037500Y-102150000D01*
X123580380Y-102150000D01*
X123451741Y-102203285D01*
X123353284Y-102301741D01*
X123300000Y-102430381D01*
X120550000Y-102430381D01*
X120550000Y-100329224D01*
X120650722Y-100228678D01*
X120749887Y-99989862D01*
X120750112Y-99731276D01*
X120651364Y-99492288D01*
X120468676Y-99309280D01*
X120229860Y-99210115D01*
X119971274Y-99209890D01*
X119732286Y-99308638D01*
X119549278Y-99491326D01*
X119450113Y-99730142D01*
X119449888Y-99988728D01*
X119548636Y-100227716D01*
X119650000Y-100329258D01*
X119650000Y-102683019D01*
X119521267Y-102682907D01*
X119282279Y-102781655D01*
X119099271Y-102964343D01*
X119000106Y-103203159D01*
X118999881Y-103461745D01*
X112050000Y-103461745D01*
X112050000Y-102924045D01*
X112861310Y-102924045D01*
X112880957Y-103050476D01*
X113119707Y-103149800D01*
X113378293Y-103150198D01*
X113617347Y-103051609D01*
X113619043Y-103050476D01*
X113638690Y-102924045D01*
X115361310Y-102924045D01*
X115380957Y-103050476D01*
X115619707Y-103149800D01*
X115878293Y-103150198D01*
X116117347Y-103051609D01*
X116119043Y-103050476D01*
X116138690Y-102924045D01*
X117861310Y-102924045D01*
X117880957Y-103050476D01*
X118119707Y-103149800D01*
X118378293Y-103150198D01*
X118617347Y-103051609D01*
X118619043Y-103050476D01*
X118638690Y-102924045D01*
X118250000Y-102535355D01*
X117861310Y-102924045D01*
X116138690Y-102924045D01*
X115750000Y-102535355D01*
X115361310Y-102924045D01*
X113638690Y-102924045D01*
X113250000Y-102535355D01*
X112861310Y-102924045D01*
X112050000Y-102924045D01*
X112050000Y-102628293D01*
X112599802Y-102628293D01*
X112698391Y-102867347D01*
X112699524Y-102869043D01*
X112825955Y-102888690D01*
X113214645Y-102500000D01*
X113285355Y-102500000D01*
X113674045Y-102888690D01*
X113800476Y-102869043D01*
X113899800Y-102630293D01*
X113899803Y-102628293D01*
X115099802Y-102628293D01*
X115198391Y-102867347D01*
X115199524Y-102869043D01*
X115325955Y-102888690D01*
X115714645Y-102500000D01*
X115785355Y-102500000D01*
X116174045Y-102888690D01*
X116300476Y-102869043D01*
X116399800Y-102630293D01*
X116399803Y-102628293D01*
X117599802Y-102628293D01*
X117698391Y-102867347D01*
X117699524Y-102869043D01*
X117825955Y-102888690D01*
X118214645Y-102500000D01*
X118285355Y-102500000D01*
X118674045Y-102888690D01*
X118800476Y-102869043D01*
X118899800Y-102630293D01*
X118900198Y-102371707D01*
X118801609Y-102132653D01*
X118800476Y-102130957D01*
X118674045Y-102111310D01*
X118285355Y-102500000D01*
X118214645Y-102500000D01*
X117825955Y-102111310D01*
X117699524Y-102130957D01*
X117600200Y-102369707D01*
X117599802Y-102628293D01*
X116399803Y-102628293D01*
X116400198Y-102371707D01*
X116301609Y-102132653D01*
X116300476Y-102130957D01*
X116174045Y-102111310D01*
X115785355Y-102500000D01*
X115714645Y-102500000D01*
X115325955Y-102111310D01*
X115199524Y-102130957D01*
X115100200Y-102369707D01*
X115099802Y-102628293D01*
X113899803Y-102628293D01*
X113900198Y-102371707D01*
X113801609Y-102132653D01*
X113800476Y-102130957D01*
X113674045Y-102111310D01*
X113285355Y-102500000D01*
X113214645Y-102500000D01*
X112825955Y-102111310D01*
X112699524Y-102130957D01*
X112600200Y-102369707D01*
X112599802Y-102628293D01*
X112050000Y-102628293D01*
X112050000Y-102075955D01*
X112861310Y-102075955D01*
X113250000Y-102464645D01*
X113638690Y-102075955D01*
X115361310Y-102075955D01*
X115750000Y-102464645D01*
X116138690Y-102075955D01*
X117861310Y-102075955D01*
X118250000Y-102464645D01*
X118638690Y-102075955D01*
X118619043Y-101949524D01*
X118380293Y-101850200D01*
X118121707Y-101849802D01*
X117882653Y-101948391D01*
X117880957Y-101949524D01*
X117861310Y-102075955D01*
X116138690Y-102075955D01*
X116119043Y-101949524D01*
X115880293Y-101850200D01*
X115621707Y-101849802D01*
X115382653Y-101948391D01*
X115380957Y-101949524D01*
X115361310Y-102075955D01*
X113638690Y-102075955D01*
X113619043Y-101949524D01*
X113380293Y-101850200D01*
X113121707Y-101849802D01*
X112882653Y-101948391D01*
X112880957Y-101949524D01*
X112861310Y-102075955D01*
X112050000Y-102075955D01*
X112050000Y-100849990D01*
X112015746Y-100677782D01*
X111918198Y-100531792D01*
X111810451Y-100424045D01*
X112861310Y-100424045D01*
X112880957Y-100550476D01*
X113119707Y-100649800D01*
X113378293Y-100650198D01*
X113617347Y-100551609D01*
X113619043Y-100550476D01*
X113638690Y-100424045D01*
X115361310Y-100424045D01*
X115380957Y-100550476D01*
X115619707Y-100649800D01*
X115878293Y-100650198D01*
X116117347Y-100551609D01*
X116119043Y-100550476D01*
X116138690Y-100424045D01*
X117861310Y-100424045D01*
X117880957Y-100550476D01*
X118119707Y-100649800D01*
X118378293Y-100650198D01*
X118617347Y-100551609D01*
X118619043Y-100550476D01*
X118638690Y-100424045D01*
X118250000Y-100035355D01*
X117861310Y-100424045D01*
X116138690Y-100424045D01*
X115750000Y-100035355D01*
X115361310Y-100424045D01*
X113638690Y-100424045D01*
X113250000Y-100035355D01*
X112861310Y-100424045D01*
X111810451Y-100424045D01*
X111549988Y-100163582D01*
X111550018Y-100128293D01*
X112599802Y-100128293D01*
X112698391Y-100367347D01*
X112699524Y-100369043D01*
X112825955Y-100388690D01*
X113214645Y-100000000D01*
X113285355Y-100000000D01*
X113674045Y-100388690D01*
X113800476Y-100369043D01*
X113899800Y-100130293D01*
X113899803Y-100128293D01*
X115099802Y-100128293D01*
X115198391Y-100367347D01*
X115199524Y-100369043D01*
X115325955Y-100388690D01*
X115714645Y-100000000D01*
X115785355Y-100000000D01*
X116174045Y-100388690D01*
X116300476Y-100369043D01*
X116399800Y-100130293D01*
X116399803Y-100128293D01*
X117599802Y-100128293D01*
X117698391Y-100367347D01*
X117699524Y-100369043D01*
X117825955Y-100388690D01*
X118214645Y-100000000D01*
X118285355Y-100000000D01*
X118674045Y-100388690D01*
X118800476Y-100369043D01*
X118899800Y-100130293D01*
X118900198Y-99871707D01*
X118801609Y-99632653D01*
X118800476Y-99630957D01*
X118674045Y-99611310D01*
X118285355Y-100000000D01*
X118214645Y-100000000D01*
X117825955Y-99611310D01*
X117699524Y-99630957D01*
X117600200Y-99869707D01*
X117599802Y-100128293D01*
X116399803Y-100128293D01*
X116400198Y-99871707D01*
X116301609Y-99632653D01*
X116300476Y-99630957D01*
X116174045Y-99611310D01*
X115785355Y-100000000D01*
X115714645Y-100000000D01*
X115325955Y-99611310D01*
X115199524Y-99630957D01*
X115100200Y-99869707D01*
X115099802Y-100128293D01*
X113899803Y-100128293D01*
X113900198Y-99871707D01*
X113801609Y-99632653D01*
X113800476Y-99630957D01*
X113674045Y-99611310D01*
X113285355Y-100000000D01*
X113214645Y-100000000D01*
X112825955Y-99611310D01*
X112699524Y-99630957D01*
X112600200Y-99869707D01*
X112599802Y-100128293D01*
X111550018Y-100128293D01*
X111550112Y-100021264D01*
X111500665Y-99901594D01*
X111656855Y-99745677D01*
X111727329Y-99575955D01*
X112861310Y-99575955D01*
X113250000Y-99964645D01*
X113638690Y-99575955D01*
X115361310Y-99575955D01*
X115750000Y-99964645D01*
X116138690Y-99575955D01*
X117861310Y-99575955D01*
X118250000Y-99964645D01*
X118638690Y-99575955D01*
X118619043Y-99449524D01*
X118380293Y-99350200D01*
X118121707Y-99349802D01*
X117882653Y-99448391D01*
X117880957Y-99449524D01*
X117861310Y-99575955D01*
X116138690Y-99575955D01*
X116119043Y-99449524D01*
X115880293Y-99350200D01*
X115621707Y-99349802D01*
X115382653Y-99448391D01*
X115380957Y-99449524D01*
X115361310Y-99575955D01*
X113638690Y-99575955D01*
X113619043Y-99449524D01*
X113380293Y-99350200D01*
X113121707Y-99349802D01*
X112882653Y-99448391D01*
X112880957Y-99449524D01*
X112861310Y-99575955D01*
X111727329Y-99575955D01*
X111756020Y-99506861D01*
X111756245Y-99248275D01*
X111657497Y-99009287D01*
X111474809Y-98826279D01*
X111235993Y-98727114D01*
X111049977Y-98726952D01*
X111050112Y-98571274D01*
X110951364Y-98332286D01*
X110768676Y-98149278D01*
X110529860Y-98050113D01*
X110271274Y-98049888D01*
X110032286Y-98148636D01*
X109930744Y-98250000D01*
X109900000Y-98250000D01*
X109727792Y-98284254D01*
X109612690Y-98361163D01*
X109581802Y-98381802D01*
X109281802Y-98681802D01*
X109184254Y-98827792D01*
X109150000Y-99000000D01*
X109150000Y-101400000D01*
X109184254Y-101572208D01*
X109250448Y-101671274D01*
X109281802Y-101718198D01*
X109350012Y-101786408D01*
X109349888Y-101928726D01*
X109448636Y-102167714D01*
X109631324Y-102350722D01*
X109870140Y-102449887D01*
X110128726Y-102450112D01*
X110367714Y-102351364D01*
X110550722Y-102168676D01*
X110649887Y-101929860D01*
X110650000Y-101799992D01*
X110650000Y-104769130D01*
X110513603Y-104905527D01*
X109953689Y-104905527D01*
X109781481Y-104939781D01*
X109695362Y-104997324D01*
X109533195Y-104997183D01*
X109294207Y-105095931D01*
X109111199Y-105278619D01*
X109012034Y-105517435D01*
X109011809Y-105776021D01*
X107838951Y-105776021D01*
X107633115Y-105569826D01*
X107320817Y-105440148D01*
X106982666Y-105439853D01*
X106670143Y-105568985D01*
X106430826Y-105807885D01*
X106301148Y-106120183D01*
X106300853Y-106458334D01*
X106349058Y-106575000D01*
X105921024Y-106575000D01*
X105968852Y-106459817D01*
X105969147Y-106121666D01*
X105840015Y-105809143D01*
X105601115Y-105569826D01*
X105288817Y-105440148D01*
X104950666Y-105439853D01*
X104638143Y-105568985D01*
X104398826Y-105807885D01*
X104269148Y-106120183D01*
X104268853Y-106458334D01*
X104317058Y-106575000D01*
X98925000Y-106575000D01*
X98925000Y-105416856D01*
X100770000Y-105416856D01*
X100899702Y-105392451D01*
X101018825Y-105315797D01*
X101098741Y-105198837D01*
X101126856Y-105060000D01*
X101126856Y-102620000D01*
X101102451Y-102490298D01*
X101040057Y-102393334D01*
X102149853Y-102393334D01*
X102278985Y-102705857D01*
X102517885Y-102945174D01*
X102830183Y-103074852D01*
X103168334Y-103075147D01*
X103480857Y-102946015D01*
X103598350Y-102828726D01*
X103949888Y-102828726D01*
X104048636Y-103067714D01*
X104231324Y-103250722D01*
X104470140Y-103349887D01*
X104728726Y-103350112D01*
X104967714Y-103251364D01*
X105019168Y-103200000D01*
X106639035Y-103200000D01*
X106969595Y-103530560D01*
X106969533Y-103602230D01*
X107068281Y-103841218D01*
X107137786Y-103910844D01*
X107142590Y-103935000D01*
X105335124Y-103935000D01*
X105251364Y-103732286D01*
X105068676Y-103549278D01*
X104829860Y-103450113D01*
X104571274Y-103449888D01*
X104332286Y-103548636D01*
X104149278Y-103731324D01*
X104050113Y-103970140D01*
X104049888Y-104228726D01*
X104148636Y-104467714D01*
X104331324Y-104650722D01*
X104570140Y-104749887D01*
X104736894Y-104750032D01*
X104812792Y-104800746D01*
X104985000Y-104835000D01*
X106969565Y-104835000D01*
X106969533Y-104872231D01*
X107068281Y-105111219D01*
X107250969Y-105294227D01*
X107489785Y-105393392D01*
X107748371Y-105393617D01*
X107987359Y-105294869D01*
X108081629Y-105200764D01*
X108231324Y-105350722D01*
X108470140Y-105449887D01*
X108728726Y-105450112D01*
X108967714Y-105351364D01*
X109150722Y-105168676D01*
X109249887Y-104929860D01*
X109250112Y-104671274D01*
X109151364Y-104432286D01*
X108968676Y-104249278D01*
X108729860Y-104150113D01*
X108657156Y-104150050D01*
X108222863Y-103715756D01*
X108269532Y-103603364D01*
X108269757Y-103344778D01*
X108171009Y-103105790D01*
X107988321Y-102922782D01*
X107749505Y-102823617D01*
X107676801Y-102823554D01*
X107199694Y-102346447D01*
X107037483Y-102238060D01*
X107034668Y-102237500D01*
X106846141Y-102200000D01*
X105784999Y-102200000D01*
X105784999Y-101985033D01*
X105965183Y-102059852D01*
X106303334Y-102060147D01*
X106615857Y-101931015D01*
X106855174Y-101692115D01*
X106984852Y-101379817D01*
X106985147Y-101041666D01*
X106856015Y-100729143D01*
X106617115Y-100489826D01*
X106304817Y-100360148D01*
X105966666Y-100359853D01*
X105784999Y-100434916D01*
X105784999Y-98301820D01*
X105848791Y-98238028D01*
X105920461Y-98238090D01*
X106159449Y-98139342D01*
X106342457Y-97956654D01*
X106355997Y-97924045D01*
X112861310Y-97924045D01*
X112880957Y-98050476D01*
X113119707Y-98149800D01*
X113378293Y-98150198D01*
X113617347Y-98051609D01*
X113619043Y-98050476D01*
X113638690Y-97924045D01*
X115361310Y-97924045D01*
X115380957Y-98050476D01*
X115619707Y-98149800D01*
X115878293Y-98150198D01*
X116117347Y-98051609D01*
X116119043Y-98050476D01*
X116138690Y-97924045D01*
X117861310Y-97924045D01*
X117880957Y-98050476D01*
X118119707Y-98149800D01*
X118378293Y-98150198D01*
X118617347Y-98051609D01*
X118619043Y-98050476D01*
X118638690Y-97924045D01*
X118250000Y-97535355D01*
X117861310Y-97924045D01*
X116138690Y-97924045D01*
X115750000Y-97535355D01*
X115361310Y-97924045D01*
X113638690Y-97924045D01*
X113250000Y-97535355D01*
X112861310Y-97924045D01*
X106355997Y-97924045D01*
X106441622Y-97717838D01*
X106441699Y-97628293D01*
X112599802Y-97628293D01*
X112698391Y-97867347D01*
X112699524Y-97869043D01*
X112825955Y-97888690D01*
X113214645Y-97500000D01*
X113285355Y-97500000D01*
X113674045Y-97888690D01*
X113800476Y-97869043D01*
X113899800Y-97630293D01*
X113899803Y-97628293D01*
X115099802Y-97628293D01*
X115198391Y-97867347D01*
X115199524Y-97869043D01*
X115325955Y-97888690D01*
X115714645Y-97500000D01*
X115785355Y-97500000D01*
X116174045Y-97888690D01*
X116300476Y-97869043D01*
X116399800Y-97630293D01*
X116399803Y-97628293D01*
X117599802Y-97628293D01*
X117698391Y-97867347D01*
X117699524Y-97869043D01*
X117825955Y-97888690D01*
X118214645Y-97500000D01*
X118285355Y-97500000D01*
X118674045Y-97888690D01*
X118800476Y-97869043D01*
X118899800Y-97630293D01*
X118900198Y-97371707D01*
X118801609Y-97132653D01*
X118800476Y-97130957D01*
X118674045Y-97111310D01*
X118285355Y-97500000D01*
X118214645Y-97500000D01*
X117825955Y-97111310D01*
X117699524Y-97130957D01*
X117600200Y-97369707D01*
X117599802Y-97628293D01*
X116399803Y-97628293D01*
X116400198Y-97371707D01*
X116301609Y-97132653D01*
X116300476Y-97130957D01*
X116174045Y-97111310D01*
X115785355Y-97500000D01*
X115714645Y-97500000D01*
X115325955Y-97111310D01*
X115199524Y-97130957D01*
X115100200Y-97369707D01*
X115099802Y-97628293D01*
X113899803Y-97628293D01*
X113900198Y-97371707D01*
X113801609Y-97132653D01*
X113800476Y-97130957D01*
X113674045Y-97111310D01*
X113285355Y-97500000D01*
X113214645Y-97500000D01*
X112825955Y-97111310D01*
X112699524Y-97130957D01*
X112600200Y-97369707D01*
X112599802Y-97628293D01*
X106441699Y-97628293D01*
X106441847Y-97459252D01*
X106343099Y-97220264D01*
X106199043Y-97075955D01*
X112861310Y-97075955D01*
X113250000Y-97464645D01*
X113638690Y-97075955D01*
X115361310Y-97075955D01*
X115750000Y-97464645D01*
X116138690Y-97075955D01*
X117861310Y-97075955D01*
X118250000Y-97464645D01*
X118638690Y-97075955D01*
X118619043Y-96949524D01*
X118380293Y-96850200D01*
X118121707Y-96849802D01*
X117882653Y-96948391D01*
X117880957Y-96949524D01*
X117861310Y-97075955D01*
X116138690Y-97075955D01*
X116119043Y-96949524D01*
X115880293Y-96850200D01*
X115621707Y-96849802D01*
X115382653Y-96948391D01*
X115380957Y-96949524D01*
X115361310Y-97075955D01*
X113638690Y-97075955D01*
X113619043Y-96949524D01*
X113380293Y-96850200D01*
X113121707Y-96849802D01*
X112882653Y-96948391D01*
X112880957Y-96949524D01*
X112861310Y-97075955D01*
X106199043Y-97075955D01*
X106160411Y-97037256D01*
X105921595Y-96938091D01*
X105663009Y-96937866D01*
X105424021Y-97036614D01*
X105241013Y-97219302D01*
X105141848Y-97458118D01*
X105141785Y-97530822D01*
X104931446Y-97741161D01*
X104823059Y-97903372D01*
X104784999Y-98094714D01*
X104784999Y-102073009D01*
X104729860Y-102050113D01*
X104471274Y-102049888D01*
X104232286Y-102148636D01*
X104049278Y-102331324D01*
X103950113Y-102570140D01*
X103949888Y-102828726D01*
X103598350Y-102828726D01*
X103720174Y-102707115D01*
X103849852Y-102394817D01*
X103850147Y-102056666D01*
X103721015Y-101744143D01*
X103482115Y-101504826D01*
X103169817Y-101375148D01*
X102831666Y-101374853D01*
X102519143Y-101503985D01*
X102279826Y-101742885D01*
X102150148Y-102055183D01*
X102149853Y-102393334D01*
X101040057Y-102393334D01*
X101025797Y-102371175D01*
X100908837Y-102291259D01*
X100770000Y-102263144D01*
X98925000Y-102263144D01*
X98925000Y-97943334D01*
X102149853Y-97943334D01*
X102278985Y-98255857D01*
X102517885Y-98495174D01*
X102830183Y-98624852D01*
X103168334Y-98625147D01*
X103480857Y-98496015D01*
X103720174Y-98257115D01*
X103849852Y-97944817D01*
X103850147Y-97606666D01*
X103721015Y-97294143D01*
X103482115Y-97054826D01*
X103169817Y-96925148D01*
X102831666Y-96924853D01*
X102519143Y-97053985D01*
X102279826Y-97292885D01*
X102150148Y-97605183D01*
X102149853Y-97943334D01*
X98925000Y-97943334D01*
X98925000Y-97736856D01*
X100770000Y-97736856D01*
X100899702Y-97712451D01*
X101018825Y-97635797D01*
X101098741Y-97518837D01*
X101126856Y-97380000D01*
X101126856Y-94940000D01*
X101102451Y-94810298D01*
X101025797Y-94691175D01*
X100908837Y-94611259D01*
X100770000Y-94583144D01*
X98925000Y-94583144D01*
X98925000Y-93425000D01*
X119650013Y-93425000D01*
X119649888Y-93568715D01*
X119649888Y-93568715D01*
G37*
X119649888Y-93568715D02*
X119748636Y-93807703D01*
X119800000Y-93859157D01*
X119800000Y-96900000D01*
X119827174Y-97036614D01*
X119838060Y-97091342D01*
X119946447Y-97253553D01*
X120049950Y-97357057D01*
X120049888Y-97428726D01*
X120148636Y-97667714D01*
X120331324Y-97850722D01*
X120570140Y-97949887D01*
X120828726Y-97950112D01*
X121067714Y-97851364D01*
X121250722Y-97668676D01*
X121349887Y-97429860D01*
X121349953Y-97353735D01*
X122499886Y-97353735D01*
X122598634Y-97592723D01*
X122693222Y-97687477D01*
X122637502Y-97743100D01*
X122538337Y-97981916D01*
X122538112Y-98240502D01*
X122636860Y-98479490D01*
X122819548Y-98662498D01*
X123058364Y-98761663D01*
X123293144Y-98761867D01*
X123293144Y-99149907D01*
X123271274Y-99149888D01*
X123032286Y-99248636D01*
X122849278Y-99431324D01*
X122750113Y-99670140D01*
X122749888Y-99928726D01*
X122848636Y-100167714D01*
X123031324Y-100350722D01*
X123270140Y-100449887D01*
X123303286Y-100449916D01*
X123293144Y-100500000D01*
X123293144Y-101500000D01*
X123317549Y-101629702D01*
X123394203Y-101748825D01*
X123511163Y-101828741D01*
X123650000Y-101856856D01*
X126637622Y-101856856D01*
X126731324Y-101950722D01*
X126970140Y-102049887D01*
X127228726Y-102050112D01*
X127467714Y-101951364D01*
X127650722Y-101768676D01*
X127749887Y-101529860D01*
X127750112Y-101271274D01*
X127651364Y-101032286D01*
X127468676Y-100849278D01*
X127241230Y-100754834D01*
X127168198Y-100681802D01*
X127162182Y-100677782D01*
X127022208Y-100584254D01*
X127006856Y-100581200D01*
X127006856Y-100500000D01*
X126982451Y-100370298D01*
X126905797Y-100251175D01*
X126788837Y-100171259D01*
X126740582Y-100161487D01*
X130005225Y-100161487D01*
X130132470Y-100478216D01*
X130142859Y-100493764D01*
X130290892Y-100538753D01*
X130829645Y-100000000D01*
X130290892Y-99461247D01*
X130142859Y-99506236D01*
X130008873Y-99820173D01*
X130005225Y-100161487D01*
X126740582Y-100161487D01*
X126650000Y-100143144D01*
X123961324Y-100143144D01*
X124049887Y-99929860D01*
X124049951Y-99856856D01*
X126650000Y-99856856D01*
X126779702Y-99832451D01*
X126898825Y-99755797D01*
X126978741Y-99638837D01*
X127006856Y-99500000D01*
X127006856Y-99304108D01*
X130326247Y-99304108D01*
X130344753Y-99365000D01*
X130326247Y-99425892D01*
X130865000Y-99964645D01*
X131403753Y-99425892D01*
X131385247Y-99365000D01*
X131403753Y-99304108D01*
X130865000Y-98765355D01*
X130326247Y-99304108D01*
X127006856Y-99304108D01*
X127006856Y-98891487D01*
X130005225Y-98891487D01*
X130132470Y-99208216D01*
X130142859Y-99223764D01*
X130290892Y-99268753D01*
X130829645Y-98730000D01*
X130290892Y-98191247D01*
X130142859Y-98236236D01*
X130008873Y-98550173D01*
X130005225Y-98891487D01*
X127006856Y-98891487D01*
X127006856Y-98500000D01*
X126982451Y-98370298D01*
X126905797Y-98251175D01*
X126788837Y-98171259D01*
X126650000Y-98143144D01*
X123863962Y-98143144D01*
X124150251Y-97856856D01*
X126650000Y-97856856D01*
X126779702Y-97832451D01*
X126898825Y-97755797D01*
X126978741Y-97638837D01*
X127006856Y-97500000D01*
X127006856Y-96500000D01*
X126982451Y-96370298D01*
X126905797Y-96251175D01*
X126788837Y-96171259D01*
X126650000Y-96143144D01*
X125131058Y-96143144D01*
X125141359Y-96091359D01*
X125141359Y-94958432D01*
X125699861Y-94958432D01*
X125821397Y-95252572D01*
X126046245Y-95477812D01*
X126340172Y-95599861D01*
X126658432Y-95600139D01*
X126952572Y-95478603D01*
X127177812Y-95253755D01*
X127299861Y-94959828D01*
X127300139Y-94641568D01*
X127178603Y-94347428D01*
X126953755Y-94122188D01*
X126659828Y-94000139D01*
X126341568Y-93999861D01*
X126047428Y-94121397D01*
X125822188Y-94346245D01*
X125700139Y-94640172D01*
X125699861Y-94958432D01*
X125141359Y-94958432D01*
X125141359Y-94683546D01*
X125242081Y-94583000D01*
X125341246Y-94344184D01*
X125341471Y-94085598D01*
X125242723Y-93846610D01*
X125060035Y-93663602D01*
X124821219Y-93564437D01*
X124562633Y-93564212D01*
X124323645Y-93662960D01*
X124140637Y-93845648D01*
X124041472Y-94084464D01*
X124041247Y-94343050D01*
X124139995Y-94582038D01*
X124241359Y-94683580D01*
X124241359Y-95650000D01*
X123509998Y-95650000D01*
X123337790Y-95684254D01*
X123276813Y-95724998D01*
X123191800Y-95781802D01*
X122981802Y-95991800D01*
X122884254Y-96137790D01*
X122850000Y-96309998D01*
X122850000Y-96645665D01*
X122782284Y-96673645D01*
X122599276Y-96856333D01*
X122500111Y-97095149D01*
X122499886Y-97353735D01*
X121349953Y-97353735D01*
X121350112Y-97171274D01*
X121251364Y-96932286D01*
X121068676Y-96749278D01*
X120829860Y-96650113D01*
X120800000Y-96650087D01*
X120800000Y-93859298D01*
X120850722Y-93808665D01*
X120949887Y-93569849D01*
X120950013Y-93425000D01*
X127708719Y-93425000D01*
X127601175Y-93494203D01*
X127521259Y-93611163D01*
X127493144Y-93750000D01*
X127493144Y-95550000D01*
X127517549Y-95679702D01*
X127594203Y-95798825D01*
X127711163Y-95878741D01*
X127850000Y-95906856D01*
X131650000Y-95906856D01*
X131700002Y-95897448D01*
X131700002Y-95988602D01*
X131071773Y-96616831D01*
X131036415Y-96602149D01*
X130695082Y-96601852D01*
X130379617Y-96732199D01*
X130138047Y-96973348D01*
X130007149Y-97288585D01*
X130006852Y-97629918D01*
X130137199Y-97945383D01*
X130331170Y-98139693D01*
X130326247Y-98155892D01*
X130865000Y-98694645D01*
X131403753Y-98155892D01*
X131398771Y-98139498D01*
X131500049Y-98038395D01*
X131556605Y-98095049D01*
X131455307Y-98196170D01*
X131439108Y-98191247D01*
X130900355Y-98730000D01*
X131439108Y-99268753D01*
X131455502Y-99263771D01*
X131556605Y-99365049D01*
X131455307Y-99466170D01*
X131439108Y-99461247D01*
X130900355Y-100000000D01*
X131439108Y-100538753D01*
X131455502Y-100533771D01*
X131556605Y-100635049D01*
X131499951Y-100691605D01*
X131398830Y-100590307D01*
X131403753Y-100574108D01*
X130865000Y-100035355D01*
X130326247Y-100574108D01*
X130331229Y-100590502D01*
X130138047Y-100783348D01*
X130007149Y-101098585D01*
X130006852Y-101439918D01*
X130137199Y-101755383D01*
X130331170Y-101949693D01*
X130326247Y-101965892D01*
X130865000Y-102504645D01*
X131403753Y-101965892D01*
X131398771Y-101949498D01*
X131500049Y-101848395D01*
X131556605Y-101905049D01*
X131455307Y-102006170D01*
X131439108Y-102001247D01*
X130900355Y-102540000D01*
X131439108Y-103078753D01*
X131455502Y-103073771D01*
X131648348Y-103266953D01*
X131650000Y-103267639D01*
X131650000Y-103530778D01*
X131549278Y-103631324D01*
X131450113Y-103870140D01*
X131449919Y-104093144D01*
X127850000Y-104093144D01*
X127720298Y-104117549D01*
X127601175Y-104194203D01*
X127521259Y-104311163D01*
X127509172Y-104370850D01*
X127237353Y-104098556D01*
X126759721Y-103900226D01*
X126242548Y-103899774D01*
X125764571Y-104097271D01*
X125398556Y-104462647D01*
X125200226Y-104940279D01*
X125199774Y-105457452D01*
X125286470Y-105667270D01*
X125172948Y-105553550D01*
X124934132Y-105454385D01*
X124675546Y-105454160D01*
X124436558Y-105552908D01*
X124253550Y-105735596D01*
X124154385Y-105974412D01*
X124154319Y-106050000D01*
X120280395Y-106050000D01*
X120280437Y-106001599D01*
X120181689Y-105762611D01*
X119999001Y-105579603D01*
X119760185Y-105480438D01*
X119501599Y-105480213D01*
X119262611Y-105578961D01*
X119079603Y-105761649D01*
X118980438Y-106000465D01*
X118980213Y-106259051D01*
X119078961Y-106498039D01*
X119155787Y-106575000D01*
X107953024Y-106575000D01*
X108000852Y-106459817D01*
X108001147Y-106121666D01*
X107872015Y-105809143D01*
X107838951Y-105776021D01*
X109011809Y-105776021D01*
X109110557Y-106015009D01*
X109293245Y-106198017D01*
X109532061Y-106297182D01*
X109790647Y-106297407D01*
X110029635Y-106198659D01*
X110212643Y-106015971D01*
X110300027Y-105805527D01*
X110699999Y-105805527D01*
X110872207Y-105771273D01*
X110949983Y-105719304D01*
X110949888Y-105828726D01*
X111048636Y-106067714D01*
X111231324Y-106250722D01*
X111470140Y-106349887D01*
X111728726Y-106350112D01*
X111967714Y-106251364D01*
X112150722Y-106068676D01*
X112249887Y-105829860D01*
X112250112Y-105571274D01*
X112151364Y-105332286D01*
X112050000Y-105230744D01*
X112050000Y-103461745D01*
X118999881Y-103461745D01*
X119098629Y-103700733D01*
X119281317Y-103883741D01*
X119520133Y-103982906D01*
X119778719Y-103983131D01*
X120017707Y-103884383D01*
X120200715Y-103701695D01*
X120299880Y-103462879D01*
X120300005Y-103319403D01*
X120418198Y-103201210D01*
X120477472Y-103112500D01*
X123300000Y-103112500D01*
X123300000Y-103569619D01*
X123353284Y-103698259D01*
X123451741Y-103796715D01*
X123580380Y-103850000D01*
X125037500Y-103850000D01*
X125125000Y-103762500D01*
X125125000Y-103025000D01*
X125175000Y-103025000D01*
X125175000Y-103762500D01*
X125262500Y-103850000D01*
X126719620Y-103850000D01*
X126848259Y-103796715D01*
X126946716Y-103698259D01*
X127000000Y-103569619D01*
X127000000Y-103114108D01*
X130326247Y-103114108D01*
X130371236Y-103262141D01*
X130685173Y-103396127D01*
X131026487Y-103399775D01*
X131343216Y-103272530D01*
X131358764Y-103262141D01*
X131403753Y-103114108D01*
X130865000Y-102575355D01*
X130326247Y-103114108D01*
X127000000Y-103114108D01*
X127000000Y-103112500D01*
X126912500Y-103025000D01*
X125175000Y-103025000D01*
X125125000Y-103025000D01*
X123387500Y-103025000D01*
X123300000Y-103112500D01*
X120477472Y-103112500D01*
X120515746Y-103055220D01*
X120550000Y-102883012D01*
X120550000Y-102430381D01*
X123300000Y-102430381D01*
X123300000Y-102887500D01*
X123387500Y-102975000D01*
X125125000Y-102975000D01*
X125125000Y-102237500D01*
X125175000Y-102237500D01*
X125175000Y-102975000D01*
X126912500Y-102975000D01*
X127000000Y-102887500D01*
X127000000Y-102701487D01*
X130005225Y-102701487D01*
X130132470Y-103018216D01*
X130142859Y-103033764D01*
X130290892Y-103078753D01*
X130829645Y-102540000D01*
X130290892Y-102001247D01*
X130142859Y-102046236D01*
X130008873Y-102360173D01*
X130005225Y-102701487D01*
X127000000Y-102701487D01*
X127000000Y-102430381D01*
X126946716Y-102301741D01*
X126848259Y-102203285D01*
X126719620Y-102150000D01*
X125262500Y-102150000D01*
X125175000Y-102237500D01*
X125125000Y-102237500D01*
X125037500Y-102150000D01*
X123580380Y-102150000D01*
X123451741Y-102203285D01*
X123353284Y-102301741D01*
X123300000Y-102430381D01*
X120550000Y-102430381D01*
X120550000Y-100329224D01*
X120650722Y-100228678D01*
X120749887Y-99989862D01*
X120750112Y-99731276D01*
X120651364Y-99492288D01*
X120468676Y-99309280D01*
X120229860Y-99210115D01*
X119971274Y-99209890D01*
X119732286Y-99308638D01*
X119549278Y-99491326D01*
X119450113Y-99730142D01*
X119449888Y-99988728D01*
X119548636Y-100227716D01*
X119650000Y-100329258D01*
X119650000Y-102683019D01*
X119521267Y-102682907D01*
X119282279Y-102781655D01*
X119099271Y-102964343D01*
X119000106Y-103203159D01*
X118999881Y-103461745D01*
X112050000Y-103461745D01*
X112050000Y-102924045D01*
X112861310Y-102924045D01*
X112880957Y-103050476D01*
X113119707Y-103149800D01*
X113378293Y-103150198D01*
X113617347Y-103051609D01*
X113619043Y-103050476D01*
X113638690Y-102924045D01*
X115361310Y-102924045D01*
X115380957Y-103050476D01*
X115619707Y-103149800D01*
X115878293Y-103150198D01*
X116117347Y-103051609D01*
X116119043Y-103050476D01*
X116138690Y-102924045D01*
X117861310Y-102924045D01*
X117880957Y-103050476D01*
X118119707Y-103149800D01*
X118378293Y-103150198D01*
X118617347Y-103051609D01*
X118619043Y-103050476D01*
X118638690Y-102924045D01*
X118250000Y-102535355D01*
X117861310Y-102924045D01*
X116138690Y-102924045D01*
X115750000Y-102535355D01*
X115361310Y-102924045D01*
X113638690Y-102924045D01*
X113250000Y-102535355D01*
X112861310Y-102924045D01*
X112050000Y-102924045D01*
X112050000Y-102628293D01*
X112599802Y-102628293D01*
X112698391Y-102867347D01*
X112699524Y-102869043D01*
X112825955Y-102888690D01*
X113214645Y-102500000D01*
X113285355Y-102500000D01*
X113674045Y-102888690D01*
X113800476Y-102869043D01*
X113899800Y-102630293D01*
X113899803Y-102628293D01*
X115099802Y-102628293D01*
X115198391Y-102867347D01*
X115199524Y-102869043D01*
X115325955Y-102888690D01*
X115714645Y-102500000D01*
X115785355Y-102500000D01*
X116174045Y-102888690D01*
X116300476Y-102869043D01*
X116399800Y-102630293D01*
X116399803Y-102628293D01*
X117599802Y-102628293D01*
X117698391Y-102867347D01*
X117699524Y-102869043D01*
X117825955Y-102888690D01*
X118214645Y-102500000D01*
X118285355Y-102500000D01*
X118674045Y-102888690D01*
X118800476Y-102869043D01*
X118899800Y-102630293D01*
X118900198Y-102371707D01*
X118801609Y-102132653D01*
X118800476Y-102130957D01*
X118674045Y-102111310D01*
X118285355Y-102500000D01*
X118214645Y-102500000D01*
X117825955Y-102111310D01*
X117699524Y-102130957D01*
X117600200Y-102369707D01*
X117599802Y-102628293D01*
X116399803Y-102628293D01*
X116400198Y-102371707D01*
X116301609Y-102132653D01*
X116300476Y-102130957D01*
X116174045Y-102111310D01*
X115785355Y-102500000D01*
X115714645Y-102500000D01*
X115325955Y-102111310D01*
X115199524Y-102130957D01*
X115100200Y-102369707D01*
X115099802Y-102628293D01*
X113899803Y-102628293D01*
X113900198Y-102371707D01*
X113801609Y-102132653D01*
X113800476Y-102130957D01*
X113674045Y-102111310D01*
X113285355Y-102500000D01*
X113214645Y-102500000D01*
X112825955Y-102111310D01*
X112699524Y-102130957D01*
X112600200Y-102369707D01*
X112599802Y-102628293D01*
X112050000Y-102628293D01*
X112050000Y-102075955D01*
X112861310Y-102075955D01*
X113250000Y-102464645D01*
X113638690Y-102075955D01*
X115361310Y-102075955D01*
X115750000Y-102464645D01*
X116138690Y-102075955D01*
X117861310Y-102075955D01*
X118250000Y-102464645D01*
X118638690Y-102075955D01*
X118619043Y-101949524D01*
X118380293Y-101850200D01*
X118121707Y-101849802D01*
X117882653Y-101948391D01*
X117880957Y-101949524D01*
X117861310Y-102075955D01*
X116138690Y-102075955D01*
X116119043Y-101949524D01*
X115880293Y-101850200D01*
X115621707Y-101849802D01*
X115382653Y-101948391D01*
X115380957Y-101949524D01*
X115361310Y-102075955D01*
X113638690Y-102075955D01*
X113619043Y-101949524D01*
X113380293Y-101850200D01*
X113121707Y-101849802D01*
X112882653Y-101948391D01*
X112880957Y-101949524D01*
X112861310Y-102075955D01*
X112050000Y-102075955D01*
X112050000Y-100849990D01*
X112015746Y-100677782D01*
X111918198Y-100531792D01*
X111810451Y-100424045D01*
X112861310Y-100424045D01*
X112880957Y-100550476D01*
X113119707Y-100649800D01*
X113378293Y-100650198D01*
X113617347Y-100551609D01*
X113619043Y-100550476D01*
X113638690Y-100424045D01*
X115361310Y-100424045D01*
X115380957Y-100550476D01*
X115619707Y-100649800D01*
X115878293Y-100650198D01*
X116117347Y-100551609D01*
X116119043Y-100550476D01*
X116138690Y-100424045D01*
X117861310Y-100424045D01*
X117880957Y-100550476D01*
X118119707Y-100649800D01*
X118378293Y-100650198D01*
X118617347Y-100551609D01*
X118619043Y-100550476D01*
X118638690Y-100424045D01*
X118250000Y-100035355D01*
X117861310Y-100424045D01*
X116138690Y-100424045D01*
X115750000Y-100035355D01*
X115361310Y-100424045D01*
X113638690Y-100424045D01*
X113250000Y-100035355D01*
X112861310Y-100424045D01*
X111810451Y-100424045D01*
X111549988Y-100163582D01*
X111550018Y-100128293D01*
X112599802Y-100128293D01*
X112698391Y-100367347D01*
X112699524Y-100369043D01*
X112825955Y-100388690D01*
X113214645Y-100000000D01*
X113285355Y-100000000D01*
X113674045Y-100388690D01*
X113800476Y-100369043D01*
X113899800Y-100130293D01*
X113899803Y-100128293D01*
X115099802Y-100128293D01*
X115198391Y-100367347D01*
X115199524Y-100369043D01*
X115325955Y-100388690D01*
X115714645Y-100000000D01*
X115785355Y-100000000D01*
X116174045Y-100388690D01*
X116300476Y-100369043D01*
X116399800Y-100130293D01*
X116399803Y-100128293D01*
X117599802Y-100128293D01*
X117698391Y-100367347D01*
X117699524Y-100369043D01*
X117825955Y-100388690D01*
X118214645Y-100000000D01*
X118285355Y-100000000D01*
X118674045Y-100388690D01*
X118800476Y-100369043D01*
X118899800Y-100130293D01*
X118900198Y-99871707D01*
X118801609Y-99632653D01*
X118800476Y-99630957D01*
X118674045Y-99611310D01*
X118285355Y-100000000D01*
X118214645Y-100000000D01*
X117825955Y-99611310D01*
X117699524Y-99630957D01*
X117600200Y-99869707D01*
X117599802Y-100128293D01*
X116399803Y-100128293D01*
X116400198Y-99871707D01*
X116301609Y-99632653D01*
X116300476Y-99630957D01*
X116174045Y-99611310D01*
X115785355Y-100000000D01*
X115714645Y-100000000D01*
X115325955Y-99611310D01*
X115199524Y-99630957D01*
X115100200Y-99869707D01*
X115099802Y-100128293D01*
X113899803Y-100128293D01*
X113900198Y-99871707D01*
X113801609Y-99632653D01*
X113800476Y-99630957D01*
X113674045Y-99611310D01*
X113285355Y-100000000D01*
X113214645Y-100000000D01*
X112825955Y-99611310D01*
X112699524Y-99630957D01*
X112600200Y-99869707D01*
X112599802Y-100128293D01*
X111550018Y-100128293D01*
X111550112Y-100021264D01*
X111500665Y-99901594D01*
X111656855Y-99745677D01*
X111727329Y-99575955D01*
X112861310Y-99575955D01*
X113250000Y-99964645D01*
X113638690Y-99575955D01*
X115361310Y-99575955D01*
X115750000Y-99964645D01*
X116138690Y-99575955D01*
X117861310Y-99575955D01*
X118250000Y-99964645D01*
X118638690Y-99575955D01*
X118619043Y-99449524D01*
X118380293Y-99350200D01*
X118121707Y-99349802D01*
X117882653Y-99448391D01*
X117880957Y-99449524D01*
X117861310Y-99575955D01*
X116138690Y-99575955D01*
X116119043Y-99449524D01*
X115880293Y-99350200D01*
X115621707Y-99349802D01*
X115382653Y-99448391D01*
X115380957Y-99449524D01*
X115361310Y-99575955D01*
X113638690Y-99575955D01*
X113619043Y-99449524D01*
X113380293Y-99350200D01*
X113121707Y-99349802D01*
X112882653Y-99448391D01*
X112880957Y-99449524D01*
X112861310Y-99575955D01*
X111727329Y-99575955D01*
X111756020Y-99506861D01*
X111756245Y-99248275D01*
X111657497Y-99009287D01*
X111474809Y-98826279D01*
X111235993Y-98727114D01*
X111049977Y-98726952D01*
X111050112Y-98571274D01*
X110951364Y-98332286D01*
X110768676Y-98149278D01*
X110529860Y-98050113D01*
X110271274Y-98049888D01*
X110032286Y-98148636D01*
X109930744Y-98250000D01*
X109900000Y-98250000D01*
X109727792Y-98284254D01*
X109612690Y-98361163D01*
X109581802Y-98381802D01*
X109281802Y-98681802D01*
X109184254Y-98827792D01*
X109150000Y-99000000D01*
X109150000Y-101400000D01*
X109184254Y-101572208D01*
X109250448Y-101671274D01*
X109281802Y-101718198D01*
X109350012Y-101786408D01*
X109349888Y-101928726D01*
X109448636Y-102167714D01*
X109631324Y-102350722D01*
X109870140Y-102449887D01*
X110128726Y-102450112D01*
X110367714Y-102351364D01*
X110550722Y-102168676D01*
X110649887Y-101929860D01*
X110650000Y-101799992D01*
X110650000Y-104769130D01*
X110513603Y-104905527D01*
X109953689Y-104905527D01*
X109781481Y-104939781D01*
X109695362Y-104997324D01*
X109533195Y-104997183D01*
X109294207Y-105095931D01*
X109111199Y-105278619D01*
X109012034Y-105517435D01*
X109011809Y-105776021D01*
X107838951Y-105776021D01*
X107633115Y-105569826D01*
X107320817Y-105440148D01*
X106982666Y-105439853D01*
X106670143Y-105568985D01*
X106430826Y-105807885D01*
X106301148Y-106120183D01*
X106300853Y-106458334D01*
X106349058Y-106575000D01*
X105921024Y-106575000D01*
X105968852Y-106459817D01*
X105969147Y-106121666D01*
X105840015Y-105809143D01*
X105601115Y-105569826D01*
X105288817Y-105440148D01*
X104950666Y-105439853D01*
X104638143Y-105568985D01*
X104398826Y-105807885D01*
X104269148Y-106120183D01*
X104268853Y-106458334D01*
X104317058Y-106575000D01*
X98925000Y-106575000D01*
X98925000Y-105416856D01*
X100770000Y-105416856D01*
X100899702Y-105392451D01*
X101018825Y-105315797D01*
X101098741Y-105198837D01*
X101126856Y-105060000D01*
X101126856Y-102620000D01*
X101102451Y-102490298D01*
X101040057Y-102393334D01*
X102149853Y-102393334D01*
X102278985Y-102705857D01*
X102517885Y-102945174D01*
X102830183Y-103074852D01*
X103168334Y-103075147D01*
X103480857Y-102946015D01*
X103598350Y-102828726D01*
X103949888Y-102828726D01*
X104048636Y-103067714D01*
X104231324Y-103250722D01*
X104470140Y-103349887D01*
X104728726Y-103350112D01*
X104967714Y-103251364D01*
X105019168Y-103200000D01*
X106639035Y-103200000D01*
X106969595Y-103530560D01*
X106969533Y-103602230D01*
X107068281Y-103841218D01*
X107137786Y-103910844D01*
X107142590Y-103935000D01*
X105335124Y-103935000D01*
X105251364Y-103732286D01*
X105068676Y-103549278D01*
X104829860Y-103450113D01*
X104571274Y-103449888D01*
X104332286Y-103548636D01*
X104149278Y-103731324D01*
X104050113Y-103970140D01*
X104049888Y-104228726D01*
X104148636Y-104467714D01*
X104331324Y-104650722D01*
X104570140Y-104749887D01*
X104736894Y-104750032D01*
X104812792Y-104800746D01*
X104985000Y-104835000D01*
X106969565Y-104835000D01*
X106969533Y-104872231D01*
X107068281Y-105111219D01*
X107250969Y-105294227D01*
X107489785Y-105393392D01*
X107748371Y-105393617D01*
X107987359Y-105294869D01*
X108081629Y-105200764D01*
X108231324Y-105350722D01*
X108470140Y-105449887D01*
X108728726Y-105450112D01*
X108967714Y-105351364D01*
X109150722Y-105168676D01*
X109249887Y-104929860D01*
X109250112Y-104671274D01*
X109151364Y-104432286D01*
X108968676Y-104249278D01*
X108729860Y-104150113D01*
X108657156Y-104150050D01*
X108222863Y-103715756D01*
X108269532Y-103603364D01*
X108269757Y-103344778D01*
X108171009Y-103105790D01*
X107988321Y-102922782D01*
X107749505Y-102823617D01*
X107676801Y-102823554D01*
X107199694Y-102346447D01*
X107037483Y-102238060D01*
X107034668Y-102237500D01*
X106846141Y-102200000D01*
X105784999Y-102200000D01*
X105784999Y-101985033D01*
X105965183Y-102059852D01*
X106303334Y-102060147D01*
X106615857Y-101931015D01*
X106855174Y-101692115D01*
X106984852Y-101379817D01*
X106985147Y-101041666D01*
X106856015Y-100729143D01*
X106617115Y-100489826D01*
X106304817Y-100360148D01*
X105966666Y-100359853D01*
X105784999Y-100434916D01*
X105784999Y-98301820D01*
X105848791Y-98238028D01*
X105920461Y-98238090D01*
X106159449Y-98139342D01*
X106342457Y-97956654D01*
X106355997Y-97924045D01*
X112861310Y-97924045D01*
X112880957Y-98050476D01*
X113119707Y-98149800D01*
X113378293Y-98150198D01*
X113617347Y-98051609D01*
X113619043Y-98050476D01*
X113638690Y-97924045D01*
X115361310Y-97924045D01*
X115380957Y-98050476D01*
X115619707Y-98149800D01*
X115878293Y-98150198D01*
X116117347Y-98051609D01*
X116119043Y-98050476D01*
X116138690Y-97924045D01*
X117861310Y-97924045D01*
X117880957Y-98050476D01*
X118119707Y-98149800D01*
X118378293Y-98150198D01*
X118617347Y-98051609D01*
X118619043Y-98050476D01*
X118638690Y-97924045D01*
X118250000Y-97535355D01*
X117861310Y-97924045D01*
X116138690Y-97924045D01*
X115750000Y-97535355D01*
X115361310Y-97924045D01*
X113638690Y-97924045D01*
X113250000Y-97535355D01*
X112861310Y-97924045D01*
X106355997Y-97924045D01*
X106441622Y-97717838D01*
X106441699Y-97628293D01*
X112599802Y-97628293D01*
X112698391Y-97867347D01*
X112699524Y-97869043D01*
X112825955Y-97888690D01*
X113214645Y-97500000D01*
X113285355Y-97500000D01*
X113674045Y-97888690D01*
X113800476Y-97869043D01*
X113899800Y-97630293D01*
X113899803Y-97628293D01*
X115099802Y-97628293D01*
X115198391Y-97867347D01*
X115199524Y-97869043D01*
X115325955Y-97888690D01*
X115714645Y-97500000D01*
X115785355Y-97500000D01*
X116174045Y-97888690D01*
X116300476Y-97869043D01*
X116399800Y-97630293D01*
X116399803Y-97628293D01*
X117599802Y-97628293D01*
X117698391Y-97867347D01*
X117699524Y-97869043D01*
X117825955Y-97888690D01*
X118214645Y-97500000D01*
X118285355Y-97500000D01*
X118674045Y-97888690D01*
X118800476Y-97869043D01*
X118899800Y-97630293D01*
X118900198Y-97371707D01*
X118801609Y-97132653D01*
X118800476Y-97130957D01*
X118674045Y-97111310D01*
X118285355Y-97500000D01*
X118214645Y-97500000D01*
X117825955Y-97111310D01*
X117699524Y-97130957D01*
X117600200Y-97369707D01*
X117599802Y-97628293D01*
X116399803Y-97628293D01*
X116400198Y-97371707D01*
X116301609Y-97132653D01*
X116300476Y-97130957D01*
X116174045Y-97111310D01*
X115785355Y-97500000D01*
X115714645Y-97500000D01*
X115325955Y-97111310D01*
X115199524Y-97130957D01*
X115100200Y-97369707D01*
X115099802Y-97628293D01*
X113899803Y-97628293D01*
X113900198Y-97371707D01*
X113801609Y-97132653D01*
X113800476Y-97130957D01*
X113674045Y-97111310D01*
X113285355Y-97500000D01*
X113214645Y-97500000D01*
X112825955Y-97111310D01*
X112699524Y-97130957D01*
X112600200Y-97369707D01*
X112599802Y-97628293D01*
X106441699Y-97628293D01*
X106441847Y-97459252D01*
X106343099Y-97220264D01*
X106199043Y-97075955D01*
X112861310Y-97075955D01*
X113250000Y-97464645D01*
X113638690Y-97075955D01*
X115361310Y-97075955D01*
X115750000Y-97464645D01*
X116138690Y-97075955D01*
X117861310Y-97075955D01*
X118250000Y-97464645D01*
X118638690Y-97075955D01*
X118619043Y-96949524D01*
X118380293Y-96850200D01*
X118121707Y-96849802D01*
X117882653Y-96948391D01*
X117880957Y-96949524D01*
X117861310Y-97075955D01*
X116138690Y-97075955D01*
X116119043Y-96949524D01*
X115880293Y-96850200D01*
X115621707Y-96849802D01*
X115382653Y-96948391D01*
X115380957Y-96949524D01*
X115361310Y-97075955D01*
X113638690Y-97075955D01*
X113619043Y-96949524D01*
X113380293Y-96850200D01*
X113121707Y-96849802D01*
X112882653Y-96948391D01*
X112880957Y-96949524D01*
X112861310Y-97075955D01*
X106199043Y-97075955D01*
X106160411Y-97037256D01*
X105921595Y-96938091D01*
X105663009Y-96937866D01*
X105424021Y-97036614D01*
X105241013Y-97219302D01*
X105141848Y-97458118D01*
X105141785Y-97530822D01*
X104931446Y-97741161D01*
X104823059Y-97903372D01*
X104784999Y-98094714D01*
X104784999Y-102073009D01*
X104729860Y-102050113D01*
X104471274Y-102049888D01*
X104232286Y-102148636D01*
X104049278Y-102331324D01*
X103950113Y-102570140D01*
X103949888Y-102828726D01*
X103598350Y-102828726D01*
X103720174Y-102707115D01*
X103849852Y-102394817D01*
X103850147Y-102056666D01*
X103721015Y-101744143D01*
X103482115Y-101504826D01*
X103169817Y-101375148D01*
X102831666Y-101374853D01*
X102519143Y-101503985D01*
X102279826Y-101742885D01*
X102150148Y-102055183D01*
X102149853Y-102393334D01*
X101040057Y-102393334D01*
X101025797Y-102371175D01*
X100908837Y-102291259D01*
X100770000Y-102263144D01*
X98925000Y-102263144D01*
X98925000Y-97943334D01*
X102149853Y-97943334D01*
X102278985Y-98255857D01*
X102517885Y-98495174D01*
X102830183Y-98624852D01*
X103168334Y-98625147D01*
X103480857Y-98496015D01*
X103720174Y-98257115D01*
X103849852Y-97944817D01*
X103850147Y-97606666D01*
X103721015Y-97294143D01*
X103482115Y-97054826D01*
X103169817Y-96925148D01*
X102831666Y-96924853D01*
X102519143Y-97053985D01*
X102279826Y-97292885D01*
X102150148Y-97605183D01*
X102149853Y-97943334D01*
X98925000Y-97943334D01*
X98925000Y-97736856D01*
X100770000Y-97736856D01*
X100899702Y-97712451D01*
X101018825Y-97635797D01*
X101098741Y-97518837D01*
X101126856Y-97380000D01*
X101126856Y-94940000D01*
X101102451Y-94810298D01*
X101025797Y-94691175D01*
X100908837Y-94611259D01*
X100770000Y-94583144D01*
X98925000Y-94583144D01*
X98925000Y-93425000D01*
X119650013Y-93425000D01*
X119649888Y-93568715D01*
M02*
