G04 #@! TF.FileFunction,Legend,Bot*
%FSLAX46Y46*%
G04 Gerber Fmt 4.6, Leading zero omitted, Abs format (unit mm)*
G04 Created by KiCad (PCBNEW 0.201512311516+6410~40~ubuntu14.04.1-stable) date Sat 02 Jan 2016 08:24:33 GMT*
%MOMM*%
G01*
G04 APERTURE LIST*
%ADD10C,0.100000*%
%ADD11C,0.150000*%
G04 APERTURE END LIST*
D10*
D11*
X122471429Y-102619048D02*
X122471429Y-103380953D01*
X122852381Y-101309524D02*
X122376190Y-100976190D01*
X122852381Y-100738095D02*
X121852381Y-100738095D01*
X121852381Y-101119048D01*
X121900000Y-101214286D01*
X121947619Y-101261905D01*
X122042857Y-101309524D01*
X122185714Y-101309524D01*
X122280952Y-101261905D01*
X122328571Y-101214286D01*
X122376190Y-101119048D01*
X122376190Y-100738095D01*
X121852381Y-98714286D02*
X121852381Y-99285715D01*
X122852381Y-99000000D02*
X121852381Y-99000000D01*
X118647619Y-94298333D02*
X118266667Y-94298333D01*
X118723810Y-94526905D02*
X118457143Y-93726905D01*
X118190476Y-94526905D01*
X117580953Y-94526905D02*
X117580953Y-93726905D01*
X117580953Y-94488810D02*
X117657143Y-94526905D01*
X117809524Y-94526905D01*
X117885715Y-94488810D01*
X117923810Y-94450714D01*
X117961905Y-94374524D01*
X117961905Y-94145952D01*
X117923810Y-94069762D01*
X117885715Y-94031667D01*
X117809524Y-93993571D01*
X117657143Y-93993571D01*
X117580953Y-94031667D01*
X116857143Y-94526905D02*
X116857143Y-94107857D01*
X116895238Y-94031667D01*
X116971428Y-93993571D01*
X117123809Y-93993571D01*
X117200000Y-94031667D01*
X116857143Y-94488810D02*
X116933333Y-94526905D01*
X117123809Y-94526905D01*
X117200000Y-94488810D01*
X117238095Y-94412619D01*
X117238095Y-94336429D01*
X117200000Y-94260238D01*
X117123809Y-94222143D01*
X116933333Y-94222143D01*
X116857143Y-94184048D01*
X116476190Y-94526905D02*
X116476190Y-93993571D01*
X116476190Y-94069762D02*
X116438095Y-94031667D01*
X116361904Y-93993571D01*
X116247618Y-93993571D01*
X116171428Y-94031667D01*
X116133333Y-94107857D01*
X116133333Y-94526905D01*
X116133333Y-94107857D02*
X116095237Y-94031667D01*
X116019047Y-93993571D01*
X115904761Y-93993571D01*
X115828571Y-94031667D01*
X115790476Y-94107857D01*
X115790476Y-94526905D01*
X114799999Y-94526905D02*
X114799999Y-93726905D01*
X114533332Y-94298333D01*
X114266665Y-93726905D01*
X114266665Y-94526905D01*
X113542856Y-94526905D02*
X113542856Y-94107857D01*
X113580951Y-94031667D01*
X113657141Y-93993571D01*
X113809522Y-93993571D01*
X113885713Y-94031667D01*
X113542856Y-94488810D02*
X113619046Y-94526905D01*
X113809522Y-94526905D01*
X113885713Y-94488810D01*
X113923808Y-94412619D01*
X113923808Y-94336429D01*
X113885713Y-94260238D01*
X113809522Y-94222143D01*
X113619046Y-94222143D01*
X113542856Y-94184048D01*
X112819046Y-93993571D02*
X112819046Y-94641190D01*
X112857141Y-94717381D01*
X112895236Y-94755476D01*
X112971427Y-94793571D01*
X113085712Y-94793571D01*
X113161903Y-94755476D01*
X112819046Y-94488810D02*
X112895236Y-94526905D01*
X113047617Y-94526905D01*
X113123808Y-94488810D01*
X113161903Y-94450714D01*
X113199998Y-94374524D01*
X113199998Y-94145952D01*
X113161903Y-94069762D01*
X113123808Y-94031667D01*
X113047617Y-93993571D01*
X112895236Y-93993571D01*
X112819046Y-94031667D01*
X112438093Y-94526905D02*
X112438093Y-93993571D01*
X112438093Y-93726905D02*
X112476188Y-93765000D01*
X112438093Y-93803095D01*
X112399998Y-93765000D01*
X112438093Y-93726905D01*
X112438093Y-93803095D01*
X111714284Y-94488810D02*
X111790474Y-94526905D01*
X111942855Y-94526905D01*
X112019046Y-94488810D01*
X112057141Y-94450714D01*
X112095236Y-94374524D01*
X112095236Y-94145952D01*
X112057141Y-94069762D01*
X112019046Y-94031667D01*
X111942855Y-93993571D01*
X111790474Y-93993571D01*
X111714284Y-94031667D01*
X110761903Y-94526905D02*
X110761903Y-93726905D01*
X110457141Y-93726905D01*
X110380950Y-93765000D01*
X110342855Y-93803095D01*
X110304760Y-93879286D01*
X110304760Y-93993571D01*
X110342855Y-94069762D01*
X110380950Y-94107857D01*
X110457141Y-94145952D01*
X110761903Y-94145952D01*
X109961903Y-94526905D02*
X109961903Y-93993571D01*
X109961903Y-94145952D02*
X109923808Y-94069762D01*
X109885712Y-94031667D01*
X109809522Y-93993571D01*
X109733331Y-93993571D01*
X109352379Y-94526905D02*
X109428570Y-94488810D01*
X109466665Y-94450714D01*
X109504760Y-94374524D01*
X109504760Y-94145952D01*
X109466665Y-94069762D01*
X109428570Y-94031667D01*
X109352379Y-93993571D01*
X109238093Y-93993571D01*
X109161903Y-94031667D01*
X109123808Y-94069762D01*
X109085712Y-94145952D01*
X109085712Y-94374524D01*
X109123808Y-94450714D01*
X109161903Y-94488810D01*
X109238093Y-94526905D01*
X109352379Y-94526905D01*
X108742855Y-94526905D02*
X108742855Y-93726905D01*
X108742855Y-94031667D02*
X108666664Y-93993571D01*
X108514283Y-93993571D01*
X108438093Y-94031667D01*
X108399998Y-94069762D01*
X108361902Y-94145952D01*
X108361902Y-94374524D01*
X108399998Y-94450714D01*
X108438093Y-94488810D01*
X108514283Y-94526905D01*
X108666664Y-94526905D01*
X108742855Y-94488810D01*
X107714283Y-94488810D02*
X107790473Y-94526905D01*
X107942854Y-94526905D01*
X108019045Y-94488810D01*
X108057140Y-94412619D01*
X108057140Y-94107857D01*
X108019045Y-94031667D01*
X107942854Y-93993571D01*
X107790473Y-93993571D01*
X107714283Y-94031667D01*
X107676188Y-94107857D01*
X107676188Y-94184048D01*
X108057140Y-94260238D01*
X106723807Y-94526905D02*
X106723807Y-93993571D01*
X106723807Y-94145952D02*
X106685712Y-94069762D01*
X106647616Y-94031667D01*
X106571426Y-93993571D01*
X106495235Y-93993571D01*
X105809521Y-94526905D02*
X106266664Y-94526905D01*
X106038093Y-94526905D02*
X106038093Y-93726905D01*
X106114283Y-93841190D01*
X106190474Y-93917381D01*
X106266664Y-93955476D01*
X118266667Y-95263571D02*
X118266667Y-95911190D01*
X118304762Y-95987381D01*
X118342857Y-96025476D01*
X118419048Y-96063571D01*
X118533333Y-96063571D01*
X118609524Y-96025476D01*
X118266667Y-95758810D02*
X118342857Y-95796905D01*
X118495238Y-95796905D01*
X118571429Y-95758810D01*
X118609524Y-95720714D01*
X118647619Y-95644524D01*
X118647619Y-95415952D01*
X118609524Y-95339762D01*
X118571429Y-95301667D01*
X118495238Y-95263571D01*
X118342857Y-95263571D01*
X118266667Y-95301667D01*
X117885714Y-95796905D02*
X117885714Y-95263571D01*
X117885714Y-94996905D02*
X117923809Y-95035000D01*
X117885714Y-95073095D01*
X117847619Y-95035000D01*
X117885714Y-94996905D01*
X117885714Y-95073095D01*
X117619048Y-95263571D02*
X117314286Y-95263571D01*
X117504762Y-94996905D02*
X117504762Y-95682619D01*
X117466667Y-95758810D01*
X117390476Y-95796905D01*
X117314286Y-95796905D01*
X117047619Y-95796905D02*
X117047619Y-94996905D01*
X116704762Y-95796905D02*
X116704762Y-95377857D01*
X116742857Y-95301667D01*
X116819047Y-95263571D01*
X116933333Y-95263571D01*
X117009524Y-95301667D01*
X117047619Y-95339762D01*
X115980952Y-95263571D02*
X115980952Y-95796905D01*
X116323809Y-95263571D02*
X116323809Y-95682619D01*
X116285714Y-95758810D01*
X116209523Y-95796905D01*
X116095237Y-95796905D01*
X116019047Y-95758810D01*
X115980952Y-95720714D01*
X115599999Y-95796905D02*
X115599999Y-94996905D01*
X115599999Y-95301667D02*
X115523808Y-95263571D01*
X115371427Y-95263571D01*
X115295237Y-95301667D01*
X115257142Y-95339762D01*
X115219046Y-95415952D01*
X115219046Y-95644524D01*
X115257142Y-95720714D01*
X115295237Y-95758810D01*
X115371427Y-95796905D01*
X115523808Y-95796905D01*
X115599999Y-95758810D01*
X114876189Y-95720714D02*
X114838094Y-95758810D01*
X114876189Y-95796905D01*
X114914284Y-95758810D01*
X114876189Y-95720714D01*
X114876189Y-95796905D01*
X114152380Y-95758810D02*
X114228570Y-95796905D01*
X114380951Y-95796905D01*
X114457142Y-95758810D01*
X114495237Y-95720714D01*
X114533332Y-95644524D01*
X114533332Y-95415952D01*
X114495237Y-95339762D01*
X114457142Y-95301667D01*
X114380951Y-95263571D01*
X114228570Y-95263571D01*
X114152380Y-95301667D01*
X113695237Y-95796905D02*
X113771428Y-95758810D01*
X113809523Y-95720714D01*
X113847618Y-95644524D01*
X113847618Y-95415952D01*
X113809523Y-95339762D01*
X113771428Y-95301667D01*
X113695237Y-95263571D01*
X113580951Y-95263571D01*
X113504761Y-95301667D01*
X113466666Y-95339762D01*
X113428570Y-95415952D01*
X113428570Y-95644524D01*
X113466666Y-95720714D01*
X113504761Y-95758810D01*
X113580951Y-95796905D01*
X113695237Y-95796905D01*
X113085713Y-95796905D02*
X113085713Y-95263571D01*
X113085713Y-95339762D02*
X113047618Y-95301667D01*
X112971427Y-95263571D01*
X112857141Y-95263571D01*
X112780951Y-95301667D01*
X112742856Y-95377857D01*
X112742856Y-95796905D01*
X112742856Y-95377857D02*
X112704760Y-95301667D01*
X112628570Y-95263571D01*
X112514284Y-95263571D01*
X112438094Y-95301667D01*
X112399999Y-95377857D01*
X112399999Y-95796905D01*
X111447617Y-94958810D02*
X112133332Y-95987381D01*
X110838094Y-95796905D02*
X110838094Y-95377857D01*
X110876189Y-95301667D01*
X110952379Y-95263571D01*
X111104760Y-95263571D01*
X111180951Y-95301667D01*
X110838094Y-95758810D02*
X110914284Y-95796905D01*
X111104760Y-95796905D01*
X111180951Y-95758810D01*
X111219046Y-95682619D01*
X111219046Y-95606429D01*
X111180951Y-95530238D01*
X111104760Y-95492143D01*
X110914284Y-95492143D01*
X110838094Y-95454048D01*
X110114284Y-95796905D02*
X110114284Y-94996905D01*
X110114284Y-95758810D02*
X110190474Y-95796905D01*
X110342855Y-95796905D01*
X110419046Y-95758810D01*
X110457141Y-95720714D01*
X110495236Y-95644524D01*
X110495236Y-95415952D01*
X110457141Y-95339762D01*
X110419046Y-95301667D01*
X110342855Y-95263571D01*
X110190474Y-95263571D01*
X110114284Y-95301667D01*
X109390474Y-95796905D02*
X109390474Y-95377857D01*
X109428569Y-95301667D01*
X109504759Y-95263571D01*
X109657140Y-95263571D01*
X109733331Y-95301667D01*
X109390474Y-95758810D02*
X109466664Y-95796905D01*
X109657140Y-95796905D01*
X109733331Y-95758810D01*
X109771426Y-95682619D01*
X109771426Y-95606429D01*
X109733331Y-95530238D01*
X109657140Y-95492143D01*
X109466664Y-95492143D01*
X109390474Y-95454048D01*
X109009521Y-95796905D02*
X109009521Y-95263571D01*
X109009521Y-95339762D02*
X108971426Y-95301667D01*
X108895235Y-95263571D01*
X108780949Y-95263571D01*
X108704759Y-95301667D01*
X108666664Y-95377857D01*
X108666664Y-95796905D01*
X108666664Y-95377857D02*
X108628568Y-95301667D01*
X108552378Y-95263571D01*
X108438092Y-95263571D01*
X108361902Y-95301667D01*
X108323807Y-95377857D01*
X108323807Y-95796905D01*
X107599997Y-95263571D02*
X107599997Y-95911190D01*
X107638092Y-95987381D01*
X107676187Y-96025476D01*
X107752378Y-96063571D01*
X107866663Y-96063571D01*
X107942854Y-96025476D01*
X107599997Y-95758810D02*
X107676187Y-95796905D01*
X107828568Y-95796905D01*
X107904759Y-95758810D01*
X107942854Y-95720714D01*
X107980949Y-95644524D01*
X107980949Y-95415952D01*
X107942854Y-95339762D01*
X107904759Y-95301667D01*
X107828568Y-95263571D01*
X107676187Y-95263571D01*
X107599997Y-95301667D01*
X107219044Y-95796905D02*
X107219044Y-95263571D01*
X107219044Y-95415952D02*
X107180949Y-95339762D01*
X107142853Y-95301667D01*
X107066663Y-95263571D01*
X106990472Y-95263571D01*
X106419044Y-95758810D02*
X106495234Y-95796905D01*
X106647615Y-95796905D01*
X106723806Y-95758810D01*
X106761901Y-95682619D01*
X106761901Y-95377857D01*
X106723806Y-95301667D01*
X106647615Y-95263571D01*
X106495234Y-95263571D01*
X106419044Y-95301667D01*
X106380949Y-95377857D01*
X106380949Y-95454048D01*
X106761901Y-95530238D01*
X106038092Y-95796905D02*
X106038092Y-95263571D01*
X106038092Y-94996905D02*
X106076187Y-95035000D01*
X106038092Y-95073095D01*
X105999997Y-95035000D01*
X106038092Y-94996905D01*
X106038092Y-95073095D01*
X105314283Y-95263571D02*
X105314283Y-95911190D01*
X105352378Y-95987381D01*
X105390473Y-96025476D01*
X105466664Y-96063571D01*
X105580949Y-96063571D01*
X105657140Y-96025476D01*
X105314283Y-95758810D02*
X105390473Y-95796905D01*
X105542854Y-95796905D01*
X105619045Y-95758810D01*
X105657140Y-95720714D01*
X105695235Y-95644524D01*
X105695235Y-95415952D01*
X105657140Y-95339762D01*
X105619045Y-95301667D01*
X105542854Y-95263571D01*
X105390473Y-95263571D01*
X105314283Y-95301667D01*
X104361901Y-94958810D02*
X105047616Y-95987381D01*
X103752378Y-95796905D02*
X103752378Y-95377857D01*
X103790473Y-95301667D01*
X103866663Y-95263571D01*
X104019044Y-95263571D01*
X104095235Y-95301667D01*
X103752378Y-95758810D02*
X103828568Y-95796905D01*
X104019044Y-95796905D01*
X104095235Y-95758810D01*
X104133330Y-95682619D01*
X104133330Y-95606429D01*
X104095235Y-95530238D01*
X104019044Y-95492143D01*
X103828568Y-95492143D01*
X103752378Y-95454048D01*
X103371425Y-95796905D02*
X103371425Y-95263571D01*
X103371425Y-95339762D02*
X103333330Y-95301667D01*
X103257139Y-95263571D01*
X103142853Y-95263571D01*
X103066663Y-95301667D01*
X103028568Y-95377857D01*
X103028568Y-95796905D01*
X103028568Y-95377857D02*
X102990472Y-95301667D01*
X102914282Y-95263571D01*
X102799996Y-95263571D01*
X102723806Y-95301667D01*
X102685711Y-95377857D01*
X102685711Y-95796905D01*
X102304758Y-95263571D02*
X102304758Y-96063571D01*
X102304758Y-95301667D02*
X102228567Y-95263571D01*
X102076186Y-95263571D01*
X101999996Y-95301667D01*
X101961901Y-95339762D01*
X101923805Y-95415952D01*
X101923805Y-95644524D01*
X101961901Y-95720714D01*
X101999996Y-95758810D01*
X102076186Y-95796905D01*
X102228567Y-95796905D01*
X102304758Y-95758810D01*
X122471429Y-96619048D02*
X122471429Y-97380953D01*
X122852381Y-97000001D02*
X122090476Y-97000001D01*
X134450000Y-106000000D02*
X134450000Y-103000000D01*
X134450000Y-103000000D02*
X133050000Y-103000000D01*
X133050000Y-103000000D02*
X133050000Y-97000000D01*
X133050000Y-97000000D02*
X134450000Y-97000000D01*
X134450000Y-97000000D02*
X134450000Y-94000000D01*
X134450000Y-94000000D02*
X131800000Y-94000000D01*
X134450000Y-106000000D02*
X131800000Y-106000000D01*
X125550000Y-94000000D02*
X127700000Y-94000000D01*
X125550000Y-94000000D02*
X125550000Y-95800000D01*
X125550000Y-106000000D02*
X127700000Y-106000000D01*
X125550000Y-106000000D02*
X125550000Y-104200000D01*
M02*
