G04 #@! TF.FileFunction,Copper,L2,Bot,Signal*
%FSLAX46Y46*%
G04 Gerber Fmt 4.6, Leading zero omitted, Abs format (unit mm)*
G04 Created by KiCad (PCBNEW 0.201512311516+6410~40~ubuntu14.04.1-stable) date Sun 03 Jan 2016 04:54:28 GMT*
%MOMM*%
G01*
G04 APERTURE LIST*
%ADD10C,0.100000*%
%ADD11C,0.600000*%
%ADD12C,1.000000*%
%ADD13R,1.900000X2.440000*%
%ADD14R,3.800000X1.800000*%
%ADD15R,3.000000X1.000000*%
%ADD16C,0.300000*%
%ADD17C,0.200000*%
G04 APERTURE END LIST*
D10*
D11*
X119750000Y-102500000D03*
X119750000Y-100000000D03*
X119750000Y-97500000D03*
X117250000Y-102500000D03*
X117250000Y-100000000D03*
X117250000Y-97500000D03*
X114750000Y-102500000D03*
X114750000Y-100000000D03*
X114750000Y-97500000D03*
D12*
X104500000Y-97775000D03*
X104500000Y-102225000D03*
D13*
X101320000Y-103840000D03*
X101320000Y-96160000D03*
D14*
X131250000Y-94650000D03*
X131250000Y-105350000D03*
D15*
X126650000Y-97000000D03*
X126650000Y-99000000D03*
X126650000Y-101000000D03*
X126650000Y-103000000D03*
D11*
X124688224Y-98111776D03*
X122200000Y-97300000D03*
X121800000Y-93439989D03*
X107291735Y-97587978D03*
X110100000Y-104800000D03*
X109119645Y-103473504D03*
X106100000Y-102700000D03*
X132300000Y-99400000D03*
X107594458Y-105604798D03*
X124104985Y-98762235D03*
X128800000Y-93600000D03*
X128700000Y-102500000D03*
X128700000Y-100000000D03*
X124600000Y-103200000D03*
X116199990Y-95103484D03*
X118350000Y-104200000D03*
X118200000Y-94700000D03*
X109100000Y-98200000D03*
X111100000Y-96500000D03*
X111918272Y-103118272D03*
X106200000Y-105000000D03*
X105600000Y-102000000D03*
X105600000Y-100600000D03*
X105600000Y-101300000D03*
X121600000Y-99860002D03*
X109119645Y-104743505D03*
X121149993Y-103333019D03*
X106200000Y-104100000D03*
X127158519Y-94341481D03*
X124649998Y-97225009D03*
X111900000Y-98700000D03*
X111500000Y-101800000D03*
X124646792Y-99350833D03*
X126304272Y-106104272D03*
X121130325Y-106130325D03*
X111161921Y-105647295D03*
X112606133Y-99377001D03*
X126410002Y-101880967D03*
X113100000Y-105700000D03*
X112400000Y-100149990D03*
X132400000Y-97400000D03*
X133700000Y-94000000D03*
D16*
X125800000Y-97000000D02*
X124688224Y-98111776D01*
X121800000Y-93439989D02*
X121800000Y-96900000D01*
X121800000Y-96900000D02*
X122200000Y-97300000D01*
X126650000Y-97000000D02*
X125800000Y-97000000D01*
X109119645Y-103819645D02*
X110100000Y-104800000D01*
X109119645Y-103473504D02*
X109119645Y-103819645D01*
X108346141Y-102700000D02*
X106800000Y-102700000D01*
X106800000Y-102700000D02*
X106100000Y-102700000D01*
X106784999Y-102684999D02*
X106800000Y-102700000D01*
X107291735Y-97587978D02*
X106784999Y-98094714D01*
X106784999Y-98094714D02*
X106784999Y-102684999D01*
X109119645Y-103473504D02*
X108346141Y-102700000D01*
X126650000Y-103000000D02*
X127650000Y-103000000D01*
D17*
X121600000Y-99860002D02*
X121600000Y-102883012D01*
X121600000Y-102883012D02*
X121149993Y-103333019D01*
X108761140Y-104385000D02*
X109119645Y-104743505D01*
X107641415Y-104385000D02*
X108761140Y-104385000D01*
X106485000Y-104385000D02*
X106200000Y-104100000D01*
X107641415Y-104385000D02*
X106485000Y-104385000D01*
X127158519Y-94341481D02*
X125400000Y-96100000D01*
X125400000Y-96100000D02*
X125009998Y-96100000D01*
X124800000Y-96309998D02*
X124800000Y-97075007D01*
X124800000Y-97075007D02*
X124649998Y-97225009D01*
X125009998Y-96100000D02*
X124800000Y-96309998D01*
X111100000Y-99000000D02*
X111400000Y-98700000D01*
X111400000Y-98700000D02*
X111900000Y-98700000D01*
X111100000Y-99200000D02*
X111100000Y-99000000D01*
X111500000Y-101800000D02*
X111100000Y-101400000D01*
X111100000Y-101400000D02*
X111100000Y-99200000D01*
X126650000Y-99000000D02*
X124950000Y-99000000D01*
X124950000Y-99000000D02*
X124646792Y-99303208D01*
X124646792Y-99303208D02*
X124646792Y-99350833D01*
X126650000Y-99000000D02*
X125650000Y-99000000D01*
X121500000Y-106500000D02*
X125908544Y-106500000D01*
X125908544Y-106500000D02*
X126304272Y-106104272D01*
X121130325Y-106130325D02*
X121500000Y-106500000D01*
X112199999Y-105355527D02*
X111453689Y-105355527D01*
X111453689Y-105355527D02*
X111161921Y-105647295D01*
X112600000Y-101339952D02*
X112600000Y-104955526D01*
X112600000Y-104955526D02*
X112199999Y-105355527D01*
X112234312Y-100974264D02*
X112600000Y-101339952D01*
X112606133Y-99377001D02*
X112181869Y-99377001D01*
X111799999Y-99758871D02*
X111799999Y-100539951D01*
X112181869Y-99377001D02*
X111799999Y-99758871D01*
X111799999Y-100539951D02*
X112234312Y-100974264D01*
X126650000Y-101000000D02*
X126650000Y-101640969D01*
X126650000Y-101640969D02*
X126410002Y-101880967D01*
X113100000Y-104900000D02*
X113100000Y-105700000D01*
X113100000Y-100849990D02*
X113100000Y-104900000D01*
X112400000Y-100149990D02*
X113100000Y-100849990D01*
X132700000Y-95900000D02*
X132400000Y-96200000D01*
X132400000Y-96200000D02*
X132400000Y-97400000D01*
X133340002Y-95900000D02*
X132700000Y-95900000D01*
X133500000Y-94624264D02*
X133500000Y-95740002D01*
X133500000Y-95740002D02*
X133340002Y-95900000D01*
X133700000Y-94000000D02*
X133700000Y-94424264D01*
X133700000Y-94424264D02*
X133500000Y-94624264D01*
G36*
X121149888Y-93568715D02*
X121248636Y-93807703D01*
X121300000Y-93859157D01*
X121300000Y-96900000D01*
X121326122Y-97031324D01*
X121338060Y-97091342D01*
X121446447Y-97253553D01*
X121549950Y-97357057D01*
X121549888Y-97428726D01*
X121648636Y-97667714D01*
X121831324Y-97850722D01*
X122070140Y-97949887D01*
X122328726Y-97950112D01*
X122567714Y-97851364D01*
X122750722Y-97668676D01*
X122849887Y-97429860D01*
X122850112Y-97171274D01*
X122751364Y-96932286D01*
X122568676Y-96749278D01*
X122329860Y-96650113D01*
X122300000Y-96650087D01*
X122300000Y-93859298D01*
X122350722Y-93808665D01*
X122449887Y-93569849D01*
X122450013Y-93425000D01*
X129208719Y-93425000D01*
X129101175Y-93494203D01*
X129021259Y-93611163D01*
X128993144Y-93750000D01*
X128993144Y-95550000D01*
X129017549Y-95679702D01*
X129094203Y-95798825D01*
X129211163Y-95878741D01*
X129350000Y-95906856D01*
X132065061Y-95906856D01*
X131984254Y-96027792D01*
X131950000Y-96200000D01*
X131950000Y-96930778D01*
X131849278Y-97031324D01*
X131750113Y-97270140D01*
X131749888Y-97528726D01*
X131848636Y-97767714D01*
X132031324Y-97950722D01*
X132270140Y-98049887D01*
X132528726Y-98050112D01*
X132767714Y-97951364D01*
X132950722Y-97768676D01*
X133049887Y-97529860D01*
X133050112Y-97271274D01*
X132951364Y-97032286D01*
X132850000Y-96930744D01*
X132850000Y-96386396D01*
X132886396Y-96350000D01*
X133340002Y-96350000D01*
X133512210Y-96315746D01*
X133658200Y-96218198D01*
X133818198Y-96058200D01*
X133915746Y-95912210D01*
X133950000Y-95740002D01*
X133950000Y-94810660D01*
X134018198Y-94742462D01*
X134115746Y-94596472D01*
X134138842Y-94480361D01*
X134250722Y-94368676D01*
X134349887Y-94129860D01*
X134350112Y-93871274D01*
X134251364Y-93632286D01*
X134068676Y-93449278D01*
X134010208Y-93425000D01*
X135958140Y-93425000D01*
X136216857Y-93476462D01*
X136400698Y-93599300D01*
X136523538Y-93783144D01*
X136575000Y-94041860D01*
X136575000Y-105958140D01*
X136523538Y-106216856D01*
X136400698Y-106400700D01*
X136216857Y-106523538D01*
X135958140Y-106575000D01*
X133291281Y-106575000D01*
X133398825Y-106505797D01*
X133478741Y-106388837D01*
X133506856Y-106250000D01*
X133506856Y-104450000D01*
X133482451Y-104320298D01*
X133405797Y-104201175D01*
X133288837Y-104121259D01*
X133150000Y-104093144D01*
X129350000Y-104093144D01*
X129220298Y-104117549D01*
X129101175Y-104194203D01*
X129021259Y-104311163D01*
X129009172Y-104370850D01*
X128737353Y-104098556D01*
X128259721Y-103900226D01*
X127742548Y-103899774D01*
X127264571Y-104097271D01*
X126898556Y-104462647D01*
X126700226Y-104940279D01*
X126699774Y-105457452D01*
X126786470Y-105667270D01*
X126672948Y-105553550D01*
X126434132Y-105454385D01*
X126175546Y-105454160D01*
X125936558Y-105552908D01*
X125753550Y-105735596D01*
X125654385Y-105974412D01*
X125654319Y-106050000D01*
X121780395Y-106050000D01*
X121780437Y-106001599D01*
X121681689Y-105762611D01*
X121499001Y-105579603D01*
X121260185Y-105480438D01*
X121001599Y-105480213D01*
X120762611Y-105578961D01*
X120579603Y-105761649D01*
X120480438Y-106000465D01*
X120480213Y-106259051D01*
X120578961Y-106498039D01*
X120655787Y-106575000D01*
X109453024Y-106575000D01*
X109500852Y-106459817D01*
X109501147Y-106121666D01*
X109372015Y-105809143D01*
X109338951Y-105776021D01*
X110511809Y-105776021D01*
X110610557Y-106015009D01*
X110793245Y-106198017D01*
X111032061Y-106297182D01*
X111290647Y-106297407D01*
X111529635Y-106198659D01*
X111712643Y-106015971D01*
X111800027Y-105805527D01*
X112199999Y-105805527D01*
X112372207Y-105771273D01*
X112449983Y-105719304D01*
X112449888Y-105828726D01*
X112548636Y-106067714D01*
X112731324Y-106250722D01*
X112970140Y-106349887D01*
X113228726Y-106350112D01*
X113467714Y-106251364D01*
X113650722Y-106068676D01*
X113749887Y-105829860D01*
X113750112Y-105571274D01*
X113651364Y-105332286D01*
X113550000Y-105230744D01*
X113550000Y-103461745D01*
X120499881Y-103461745D01*
X120598629Y-103700733D01*
X120781317Y-103883741D01*
X121020133Y-103982906D01*
X121278719Y-103983131D01*
X121517707Y-103884383D01*
X121700715Y-103701695D01*
X121799880Y-103462879D01*
X121800005Y-103319403D01*
X121918198Y-103201210D01*
X121977472Y-103112500D01*
X124800000Y-103112500D01*
X124800000Y-103569619D01*
X124853284Y-103698259D01*
X124951741Y-103796715D01*
X125080380Y-103850000D01*
X126537500Y-103850000D01*
X126625000Y-103762500D01*
X126625000Y-103025000D01*
X126675000Y-103025000D01*
X126675000Y-103762500D01*
X126762500Y-103850000D01*
X128219620Y-103850000D01*
X128348259Y-103796715D01*
X128446716Y-103698259D01*
X128500000Y-103569619D01*
X128500000Y-103112500D01*
X128412500Y-103025000D01*
X126675000Y-103025000D01*
X126625000Y-103025000D01*
X124887500Y-103025000D01*
X124800000Y-103112500D01*
X121977472Y-103112500D01*
X122015746Y-103055220D01*
X122050000Y-102883012D01*
X122050000Y-100500000D01*
X124793144Y-100500000D01*
X124793144Y-101500000D01*
X124817549Y-101629702D01*
X124894203Y-101748825D01*
X125011163Y-101828741D01*
X125150000Y-101856856D01*
X125760023Y-101856856D01*
X125759890Y-102009693D01*
X125817864Y-102150000D01*
X125080380Y-102150000D01*
X124951741Y-102203285D01*
X124853284Y-102301741D01*
X124800000Y-102430381D01*
X124800000Y-102887500D01*
X124887500Y-102975000D01*
X126625000Y-102975000D01*
X126625000Y-102955000D01*
X126675000Y-102955000D01*
X126675000Y-102975000D01*
X128412500Y-102975000D01*
X128500000Y-102887500D01*
X128500000Y-102430381D01*
X128446716Y-102301741D01*
X128348259Y-102203285D01*
X128219620Y-102150000D01*
X127002099Y-102150000D01*
X127059889Y-102010827D01*
X127060023Y-101856856D01*
X128150000Y-101856856D01*
X128279702Y-101832451D01*
X128398825Y-101755797D01*
X128478741Y-101638837D01*
X128506856Y-101500000D01*
X128506856Y-100500000D01*
X128482451Y-100370298D01*
X128405797Y-100251175D01*
X128288837Y-100171259D01*
X128150000Y-100143144D01*
X125150000Y-100143144D01*
X125020298Y-100167549D01*
X124901175Y-100244203D01*
X124821259Y-100361163D01*
X124793144Y-100500000D01*
X122050000Y-100500000D01*
X122050000Y-100329224D01*
X122150722Y-100228678D01*
X122249887Y-99989862D01*
X122250112Y-99731276D01*
X122151364Y-99492288D01*
X122138658Y-99479559D01*
X123996680Y-99479559D01*
X124095428Y-99718547D01*
X124278116Y-99901555D01*
X124516932Y-100000720D01*
X124775518Y-100000945D01*
X125014506Y-99902197D01*
X125075117Y-99841692D01*
X125150000Y-99856856D01*
X128150000Y-99856856D01*
X128279702Y-99832451D01*
X128398825Y-99755797D01*
X128478741Y-99638837D01*
X128506856Y-99500000D01*
X128506856Y-98500000D01*
X128482451Y-98370298D01*
X128405797Y-98251175D01*
X128288837Y-98171259D01*
X128150000Y-98143144D01*
X125363962Y-98143144D01*
X125650251Y-97856856D01*
X128150000Y-97856856D01*
X128279702Y-97832451D01*
X128398825Y-97755797D01*
X128478741Y-97638837D01*
X128506856Y-97500000D01*
X128506856Y-96500000D01*
X128482451Y-96370298D01*
X128405797Y-96251175D01*
X128288837Y-96171259D01*
X128150000Y-96143144D01*
X125993252Y-96143144D01*
X127144927Y-94991469D01*
X127213536Y-94991529D01*
X127321397Y-95252572D01*
X127546245Y-95477812D01*
X127840172Y-95599861D01*
X128158432Y-95600139D01*
X128452572Y-95478603D01*
X128677812Y-95253755D01*
X128799861Y-94959828D01*
X128800139Y-94641568D01*
X128678603Y-94347428D01*
X128453755Y-94122188D01*
X128159828Y-94000139D01*
X127841568Y-93999861D01*
X127738296Y-94042532D01*
X127709883Y-93973767D01*
X127527195Y-93790759D01*
X127288379Y-93691594D01*
X127029793Y-93691369D01*
X126790805Y-93790117D01*
X126607797Y-93972805D01*
X126508632Y-94211621D01*
X126508507Y-94355097D01*
X125213604Y-95650000D01*
X125009998Y-95650000D01*
X124837790Y-95684254D01*
X124772630Y-95727793D01*
X124691800Y-95781802D01*
X124481802Y-95991800D01*
X124384254Y-96137790D01*
X124350000Y-96309998D01*
X124350000Y-96645665D01*
X124282284Y-96673645D01*
X124099276Y-96856333D01*
X124000111Y-97095149D01*
X123999886Y-97353735D01*
X124098634Y-97592723D01*
X124193222Y-97687477D01*
X124137502Y-97743100D01*
X124038337Y-97981916D01*
X124038112Y-98240502D01*
X124136860Y-98479490D01*
X124319548Y-98662498D01*
X124464701Y-98722771D01*
X124279078Y-98799469D01*
X124096070Y-98982157D01*
X123996905Y-99220973D01*
X123996680Y-99479559D01*
X122138658Y-99479559D01*
X121968676Y-99309280D01*
X121729860Y-99210115D01*
X121471274Y-99209890D01*
X121232286Y-99308638D01*
X121049278Y-99491326D01*
X120950113Y-99730142D01*
X120949888Y-99988728D01*
X121048636Y-100227716D01*
X121150000Y-100329258D01*
X121150000Y-102683019D01*
X121021267Y-102682907D01*
X120782279Y-102781655D01*
X120599271Y-102964343D01*
X120500106Y-103203159D01*
X120499881Y-103461745D01*
X113550000Y-103461745D01*
X113550000Y-102924045D01*
X114361310Y-102924045D01*
X114380957Y-103050476D01*
X114619707Y-103149800D01*
X114878293Y-103150198D01*
X115117347Y-103051609D01*
X115119043Y-103050476D01*
X115138690Y-102924045D01*
X116861310Y-102924045D01*
X116880957Y-103050476D01*
X117119707Y-103149800D01*
X117378293Y-103150198D01*
X117617347Y-103051609D01*
X117619043Y-103050476D01*
X117638690Y-102924045D01*
X119361310Y-102924045D01*
X119380957Y-103050476D01*
X119619707Y-103149800D01*
X119878293Y-103150198D01*
X120117347Y-103051609D01*
X120119043Y-103050476D01*
X120138690Y-102924045D01*
X119750000Y-102535355D01*
X119361310Y-102924045D01*
X117638690Y-102924045D01*
X117250000Y-102535355D01*
X116861310Y-102924045D01*
X115138690Y-102924045D01*
X114750000Y-102535355D01*
X114361310Y-102924045D01*
X113550000Y-102924045D01*
X113550000Y-102628293D01*
X114099802Y-102628293D01*
X114198391Y-102867347D01*
X114199524Y-102869043D01*
X114325955Y-102888690D01*
X114714645Y-102500000D01*
X114785355Y-102500000D01*
X115174045Y-102888690D01*
X115300476Y-102869043D01*
X115399800Y-102630293D01*
X115399803Y-102628293D01*
X116599802Y-102628293D01*
X116698391Y-102867347D01*
X116699524Y-102869043D01*
X116825955Y-102888690D01*
X117214645Y-102500000D01*
X117285355Y-102500000D01*
X117674045Y-102888690D01*
X117800476Y-102869043D01*
X117899800Y-102630293D01*
X117899803Y-102628293D01*
X119099802Y-102628293D01*
X119198391Y-102867347D01*
X119199524Y-102869043D01*
X119325955Y-102888690D01*
X119714645Y-102500000D01*
X119785355Y-102500000D01*
X120174045Y-102888690D01*
X120300476Y-102869043D01*
X120399800Y-102630293D01*
X120400198Y-102371707D01*
X120301609Y-102132653D01*
X120300476Y-102130957D01*
X120174045Y-102111310D01*
X119785355Y-102500000D01*
X119714645Y-102500000D01*
X119325955Y-102111310D01*
X119199524Y-102130957D01*
X119100200Y-102369707D01*
X119099802Y-102628293D01*
X117899803Y-102628293D01*
X117900198Y-102371707D01*
X117801609Y-102132653D01*
X117800476Y-102130957D01*
X117674045Y-102111310D01*
X117285355Y-102500000D01*
X117214645Y-102500000D01*
X116825955Y-102111310D01*
X116699524Y-102130957D01*
X116600200Y-102369707D01*
X116599802Y-102628293D01*
X115399803Y-102628293D01*
X115400198Y-102371707D01*
X115301609Y-102132653D01*
X115300476Y-102130957D01*
X115174045Y-102111310D01*
X114785355Y-102500000D01*
X114714645Y-102500000D01*
X114325955Y-102111310D01*
X114199524Y-102130957D01*
X114100200Y-102369707D01*
X114099802Y-102628293D01*
X113550000Y-102628293D01*
X113550000Y-102075955D01*
X114361310Y-102075955D01*
X114750000Y-102464645D01*
X115138690Y-102075955D01*
X116861310Y-102075955D01*
X117250000Y-102464645D01*
X117638690Y-102075955D01*
X119361310Y-102075955D01*
X119750000Y-102464645D01*
X120138690Y-102075955D01*
X120119043Y-101949524D01*
X119880293Y-101850200D01*
X119621707Y-101849802D01*
X119382653Y-101948391D01*
X119380957Y-101949524D01*
X119361310Y-102075955D01*
X117638690Y-102075955D01*
X117619043Y-101949524D01*
X117380293Y-101850200D01*
X117121707Y-101849802D01*
X116882653Y-101948391D01*
X116880957Y-101949524D01*
X116861310Y-102075955D01*
X115138690Y-102075955D01*
X115119043Y-101949524D01*
X114880293Y-101850200D01*
X114621707Y-101849802D01*
X114382653Y-101948391D01*
X114380957Y-101949524D01*
X114361310Y-102075955D01*
X113550000Y-102075955D01*
X113550000Y-100849990D01*
X113515746Y-100677782D01*
X113418198Y-100531792D01*
X113310451Y-100424045D01*
X114361310Y-100424045D01*
X114380957Y-100550476D01*
X114619707Y-100649800D01*
X114878293Y-100650198D01*
X115117347Y-100551609D01*
X115119043Y-100550476D01*
X115138690Y-100424045D01*
X116861310Y-100424045D01*
X116880957Y-100550476D01*
X117119707Y-100649800D01*
X117378293Y-100650198D01*
X117617347Y-100551609D01*
X117619043Y-100550476D01*
X117638690Y-100424045D01*
X119361310Y-100424045D01*
X119380957Y-100550476D01*
X119619707Y-100649800D01*
X119878293Y-100650198D01*
X120117347Y-100551609D01*
X120119043Y-100550476D01*
X120138690Y-100424045D01*
X119750000Y-100035355D01*
X119361310Y-100424045D01*
X117638690Y-100424045D01*
X117250000Y-100035355D01*
X116861310Y-100424045D01*
X115138690Y-100424045D01*
X114750000Y-100035355D01*
X114361310Y-100424045D01*
X113310451Y-100424045D01*
X113049988Y-100163582D01*
X113050018Y-100128293D01*
X114099802Y-100128293D01*
X114198391Y-100367347D01*
X114199524Y-100369043D01*
X114325955Y-100388690D01*
X114714645Y-100000000D01*
X114785355Y-100000000D01*
X115174045Y-100388690D01*
X115300476Y-100369043D01*
X115399800Y-100130293D01*
X115399803Y-100128293D01*
X116599802Y-100128293D01*
X116698391Y-100367347D01*
X116699524Y-100369043D01*
X116825955Y-100388690D01*
X117214645Y-100000000D01*
X117285355Y-100000000D01*
X117674045Y-100388690D01*
X117800476Y-100369043D01*
X117899800Y-100130293D01*
X117899803Y-100128293D01*
X119099802Y-100128293D01*
X119198391Y-100367347D01*
X119199524Y-100369043D01*
X119325955Y-100388690D01*
X119714645Y-100000000D01*
X119785355Y-100000000D01*
X120174045Y-100388690D01*
X120300476Y-100369043D01*
X120399800Y-100130293D01*
X120400198Y-99871707D01*
X120301609Y-99632653D01*
X120300476Y-99630957D01*
X120174045Y-99611310D01*
X119785355Y-100000000D01*
X119714645Y-100000000D01*
X119325955Y-99611310D01*
X119199524Y-99630957D01*
X119100200Y-99869707D01*
X119099802Y-100128293D01*
X117899803Y-100128293D01*
X117900198Y-99871707D01*
X117801609Y-99632653D01*
X117800476Y-99630957D01*
X117674045Y-99611310D01*
X117285355Y-100000000D01*
X117214645Y-100000000D01*
X116825955Y-99611310D01*
X116699524Y-99630957D01*
X116600200Y-99869707D01*
X116599802Y-100128293D01*
X115399803Y-100128293D01*
X115400198Y-99871707D01*
X115301609Y-99632653D01*
X115300476Y-99630957D01*
X115174045Y-99611310D01*
X114785355Y-100000000D01*
X114714645Y-100000000D01*
X114325955Y-99611310D01*
X114199524Y-99630957D01*
X114100200Y-99869707D01*
X114099802Y-100128293D01*
X113050018Y-100128293D01*
X113050112Y-100021264D01*
X113000665Y-99901594D01*
X113156855Y-99745677D01*
X113227329Y-99575955D01*
X114361310Y-99575955D01*
X114750000Y-99964645D01*
X115138690Y-99575955D01*
X116861310Y-99575955D01*
X117250000Y-99964645D01*
X117638690Y-99575955D01*
X119361310Y-99575955D01*
X119750000Y-99964645D01*
X120138690Y-99575955D01*
X120119043Y-99449524D01*
X119880293Y-99350200D01*
X119621707Y-99349802D01*
X119382653Y-99448391D01*
X119380957Y-99449524D01*
X119361310Y-99575955D01*
X117638690Y-99575955D01*
X117619043Y-99449524D01*
X117380293Y-99350200D01*
X117121707Y-99349802D01*
X116882653Y-99448391D01*
X116880957Y-99449524D01*
X116861310Y-99575955D01*
X115138690Y-99575955D01*
X115119043Y-99449524D01*
X114880293Y-99350200D01*
X114621707Y-99349802D01*
X114382653Y-99448391D01*
X114380957Y-99449524D01*
X114361310Y-99575955D01*
X113227329Y-99575955D01*
X113256020Y-99506861D01*
X113256245Y-99248275D01*
X113157497Y-99009287D01*
X112974809Y-98826279D01*
X112735993Y-98727114D01*
X112549977Y-98726952D01*
X112550112Y-98571274D01*
X112451364Y-98332286D01*
X112268676Y-98149278D01*
X112029860Y-98050113D01*
X111771274Y-98049888D01*
X111532286Y-98148636D01*
X111430744Y-98250000D01*
X111400000Y-98250000D01*
X111227792Y-98284254D01*
X111112690Y-98361163D01*
X111081802Y-98381802D01*
X110781802Y-98681802D01*
X110684254Y-98827792D01*
X110650000Y-99000000D01*
X110650000Y-101400000D01*
X110684254Y-101572208D01*
X110750448Y-101671274D01*
X110781802Y-101718198D01*
X110850012Y-101786408D01*
X110849888Y-101928726D01*
X110948636Y-102167714D01*
X111131324Y-102350722D01*
X111370140Y-102449887D01*
X111628726Y-102450112D01*
X111867714Y-102351364D01*
X112050722Y-102168676D01*
X112149887Y-101929860D01*
X112150000Y-101799992D01*
X112150000Y-104769130D01*
X112013603Y-104905527D01*
X111453689Y-104905527D01*
X111281481Y-104939781D01*
X111195362Y-104997324D01*
X111033195Y-104997183D01*
X110794207Y-105095931D01*
X110611199Y-105278619D01*
X110512034Y-105517435D01*
X110511809Y-105776021D01*
X109338951Y-105776021D01*
X109133115Y-105569826D01*
X108820817Y-105440148D01*
X108482666Y-105439853D01*
X108170143Y-105568985D01*
X107930826Y-105807885D01*
X107801148Y-106120183D01*
X107800853Y-106458334D01*
X107849058Y-106575000D01*
X107421024Y-106575000D01*
X107468852Y-106459817D01*
X107469147Y-106121666D01*
X107340015Y-105809143D01*
X107101115Y-105569826D01*
X106788817Y-105440148D01*
X106450666Y-105439853D01*
X106138143Y-105568985D01*
X105898826Y-105807885D01*
X105769148Y-106120183D01*
X105768853Y-106458334D01*
X105817058Y-106575000D01*
X101041860Y-106575000D01*
X100783144Y-106523538D01*
X100599300Y-106400698D01*
X100476462Y-106216857D01*
X100425000Y-105958140D01*
X100425000Y-105416856D01*
X102270000Y-105416856D01*
X102399702Y-105392451D01*
X102518825Y-105315797D01*
X102598741Y-105198837D01*
X102626856Y-105060000D01*
X102626856Y-102620000D01*
X102602451Y-102490298D01*
X102540057Y-102393334D01*
X103649853Y-102393334D01*
X103778985Y-102705857D01*
X104017885Y-102945174D01*
X104330183Y-103074852D01*
X104668334Y-103075147D01*
X104980857Y-102946015D01*
X105098350Y-102828726D01*
X105449888Y-102828726D01*
X105548636Y-103067714D01*
X105731324Y-103250722D01*
X105970140Y-103349887D01*
X106228726Y-103350112D01*
X106467714Y-103251364D01*
X106519168Y-103200000D01*
X108139035Y-103200000D01*
X108469595Y-103530560D01*
X108469533Y-103602230D01*
X108568281Y-103841218D01*
X108637786Y-103910844D01*
X108642590Y-103935000D01*
X106835124Y-103935000D01*
X106751364Y-103732286D01*
X106568676Y-103549278D01*
X106329860Y-103450113D01*
X106071274Y-103449888D01*
X105832286Y-103548636D01*
X105649278Y-103731324D01*
X105550113Y-103970140D01*
X105549888Y-104228726D01*
X105648636Y-104467714D01*
X105831324Y-104650722D01*
X106070140Y-104749887D01*
X106236894Y-104750032D01*
X106312792Y-104800746D01*
X106485000Y-104835000D01*
X108469565Y-104835000D01*
X108469533Y-104872231D01*
X108568281Y-105111219D01*
X108750969Y-105294227D01*
X108989785Y-105393392D01*
X109248371Y-105393617D01*
X109487359Y-105294869D01*
X109581629Y-105200764D01*
X109731324Y-105350722D01*
X109970140Y-105449887D01*
X110228726Y-105450112D01*
X110467714Y-105351364D01*
X110650722Y-105168676D01*
X110749887Y-104929860D01*
X110750112Y-104671274D01*
X110651364Y-104432286D01*
X110468676Y-104249278D01*
X110229860Y-104150113D01*
X110157156Y-104150050D01*
X109722863Y-103715756D01*
X109769532Y-103603364D01*
X109769757Y-103344778D01*
X109671009Y-103105790D01*
X109488321Y-102922782D01*
X109249505Y-102823617D01*
X109176801Y-102823554D01*
X108699694Y-102346447D01*
X108537483Y-102238060D01*
X108534668Y-102237500D01*
X108346141Y-102200000D01*
X107284999Y-102200000D01*
X107284999Y-101985033D01*
X107465183Y-102059852D01*
X107803334Y-102060147D01*
X108115857Y-101931015D01*
X108355174Y-101692115D01*
X108484852Y-101379817D01*
X108485147Y-101041666D01*
X108356015Y-100729143D01*
X108117115Y-100489826D01*
X107804817Y-100360148D01*
X107466666Y-100359853D01*
X107284999Y-100434916D01*
X107284999Y-98301820D01*
X107348791Y-98238028D01*
X107420461Y-98238090D01*
X107659449Y-98139342D01*
X107842457Y-97956654D01*
X107855997Y-97924045D01*
X114361310Y-97924045D01*
X114380957Y-98050476D01*
X114619707Y-98149800D01*
X114878293Y-98150198D01*
X115117347Y-98051609D01*
X115119043Y-98050476D01*
X115138690Y-97924045D01*
X116861310Y-97924045D01*
X116880957Y-98050476D01*
X117119707Y-98149800D01*
X117378293Y-98150198D01*
X117617347Y-98051609D01*
X117619043Y-98050476D01*
X117638690Y-97924045D01*
X119361310Y-97924045D01*
X119380957Y-98050476D01*
X119619707Y-98149800D01*
X119878293Y-98150198D01*
X120117347Y-98051609D01*
X120119043Y-98050476D01*
X120138690Y-97924045D01*
X119750000Y-97535355D01*
X119361310Y-97924045D01*
X117638690Y-97924045D01*
X117250000Y-97535355D01*
X116861310Y-97924045D01*
X115138690Y-97924045D01*
X114750000Y-97535355D01*
X114361310Y-97924045D01*
X107855997Y-97924045D01*
X107941622Y-97717838D01*
X107941699Y-97628293D01*
X114099802Y-97628293D01*
X114198391Y-97867347D01*
X114199524Y-97869043D01*
X114325955Y-97888690D01*
X114714645Y-97500000D01*
X114785355Y-97500000D01*
X115174045Y-97888690D01*
X115300476Y-97869043D01*
X115399800Y-97630293D01*
X115399803Y-97628293D01*
X116599802Y-97628293D01*
X116698391Y-97867347D01*
X116699524Y-97869043D01*
X116825955Y-97888690D01*
X117214645Y-97500000D01*
X117285355Y-97500000D01*
X117674045Y-97888690D01*
X117800476Y-97869043D01*
X117899800Y-97630293D01*
X117899803Y-97628293D01*
X119099802Y-97628293D01*
X119198391Y-97867347D01*
X119199524Y-97869043D01*
X119325955Y-97888690D01*
X119714645Y-97500000D01*
X119785355Y-97500000D01*
X120174045Y-97888690D01*
X120300476Y-97869043D01*
X120399800Y-97630293D01*
X120400198Y-97371707D01*
X120301609Y-97132653D01*
X120300476Y-97130957D01*
X120174045Y-97111310D01*
X119785355Y-97500000D01*
X119714645Y-97500000D01*
X119325955Y-97111310D01*
X119199524Y-97130957D01*
X119100200Y-97369707D01*
X119099802Y-97628293D01*
X117899803Y-97628293D01*
X117900198Y-97371707D01*
X117801609Y-97132653D01*
X117800476Y-97130957D01*
X117674045Y-97111310D01*
X117285355Y-97500000D01*
X117214645Y-97500000D01*
X116825955Y-97111310D01*
X116699524Y-97130957D01*
X116600200Y-97369707D01*
X116599802Y-97628293D01*
X115399803Y-97628293D01*
X115400198Y-97371707D01*
X115301609Y-97132653D01*
X115300476Y-97130957D01*
X115174045Y-97111310D01*
X114785355Y-97500000D01*
X114714645Y-97500000D01*
X114325955Y-97111310D01*
X114199524Y-97130957D01*
X114100200Y-97369707D01*
X114099802Y-97628293D01*
X107941699Y-97628293D01*
X107941847Y-97459252D01*
X107843099Y-97220264D01*
X107699043Y-97075955D01*
X114361310Y-97075955D01*
X114750000Y-97464645D01*
X115138690Y-97075955D01*
X116861310Y-97075955D01*
X117250000Y-97464645D01*
X117638690Y-97075955D01*
X119361310Y-97075955D01*
X119750000Y-97464645D01*
X120138690Y-97075955D01*
X120119043Y-96949524D01*
X119880293Y-96850200D01*
X119621707Y-96849802D01*
X119382653Y-96948391D01*
X119380957Y-96949524D01*
X119361310Y-97075955D01*
X117638690Y-97075955D01*
X117619043Y-96949524D01*
X117380293Y-96850200D01*
X117121707Y-96849802D01*
X116882653Y-96948391D01*
X116880957Y-96949524D01*
X116861310Y-97075955D01*
X115138690Y-97075955D01*
X115119043Y-96949524D01*
X114880293Y-96850200D01*
X114621707Y-96849802D01*
X114382653Y-96948391D01*
X114380957Y-96949524D01*
X114361310Y-97075955D01*
X107699043Y-97075955D01*
X107660411Y-97037256D01*
X107421595Y-96938091D01*
X107163009Y-96937866D01*
X106924021Y-97036614D01*
X106741013Y-97219302D01*
X106641848Y-97458118D01*
X106641785Y-97530822D01*
X106431446Y-97741161D01*
X106323059Y-97903372D01*
X106284999Y-98094714D01*
X106284999Y-102073009D01*
X106229860Y-102050113D01*
X105971274Y-102049888D01*
X105732286Y-102148636D01*
X105549278Y-102331324D01*
X105450113Y-102570140D01*
X105449888Y-102828726D01*
X105098350Y-102828726D01*
X105220174Y-102707115D01*
X105349852Y-102394817D01*
X105350147Y-102056666D01*
X105221015Y-101744143D01*
X104982115Y-101504826D01*
X104669817Y-101375148D01*
X104331666Y-101374853D01*
X104019143Y-101503985D01*
X103779826Y-101742885D01*
X103650148Y-102055183D01*
X103649853Y-102393334D01*
X102540057Y-102393334D01*
X102525797Y-102371175D01*
X102408837Y-102291259D01*
X102270000Y-102263144D01*
X100425000Y-102263144D01*
X100425000Y-97943334D01*
X103649853Y-97943334D01*
X103778985Y-98255857D01*
X104017885Y-98495174D01*
X104330183Y-98624852D01*
X104668334Y-98625147D01*
X104980857Y-98496015D01*
X105220174Y-98257115D01*
X105349852Y-97944817D01*
X105350147Y-97606666D01*
X105221015Y-97294143D01*
X104982115Y-97054826D01*
X104669817Y-96925148D01*
X104331666Y-96924853D01*
X104019143Y-97053985D01*
X103779826Y-97292885D01*
X103650148Y-97605183D01*
X103649853Y-97943334D01*
X100425000Y-97943334D01*
X100425000Y-97736856D01*
X102270000Y-97736856D01*
X102399702Y-97712451D01*
X102518825Y-97635797D01*
X102598741Y-97518837D01*
X102626856Y-97380000D01*
X102626856Y-94940000D01*
X102602451Y-94810298D01*
X102525797Y-94691175D01*
X102408837Y-94611259D01*
X102270000Y-94583144D01*
X100425000Y-94583144D01*
X100425000Y-94041860D01*
X100476462Y-93783143D01*
X100599300Y-93599302D01*
X100783144Y-93476462D01*
X101041860Y-93425000D01*
X121150013Y-93425000D01*
X121149888Y-93568715D01*
X121149888Y-93568715D01*
G37*
X121149888Y-93568715D02*
X121248636Y-93807703D01*
X121300000Y-93859157D01*
X121300000Y-96900000D01*
X121326122Y-97031324D01*
X121338060Y-97091342D01*
X121446447Y-97253553D01*
X121549950Y-97357057D01*
X121549888Y-97428726D01*
X121648636Y-97667714D01*
X121831324Y-97850722D01*
X122070140Y-97949887D01*
X122328726Y-97950112D01*
X122567714Y-97851364D01*
X122750722Y-97668676D01*
X122849887Y-97429860D01*
X122850112Y-97171274D01*
X122751364Y-96932286D01*
X122568676Y-96749278D01*
X122329860Y-96650113D01*
X122300000Y-96650087D01*
X122300000Y-93859298D01*
X122350722Y-93808665D01*
X122449887Y-93569849D01*
X122450013Y-93425000D01*
X129208719Y-93425000D01*
X129101175Y-93494203D01*
X129021259Y-93611163D01*
X128993144Y-93750000D01*
X128993144Y-95550000D01*
X129017549Y-95679702D01*
X129094203Y-95798825D01*
X129211163Y-95878741D01*
X129350000Y-95906856D01*
X132065061Y-95906856D01*
X131984254Y-96027792D01*
X131950000Y-96200000D01*
X131950000Y-96930778D01*
X131849278Y-97031324D01*
X131750113Y-97270140D01*
X131749888Y-97528726D01*
X131848636Y-97767714D01*
X132031324Y-97950722D01*
X132270140Y-98049887D01*
X132528726Y-98050112D01*
X132767714Y-97951364D01*
X132950722Y-97768676D01*
X133049887Y-97529860D01*
X133050112Y-97271274D01*
X132951364Y-97032286D01*
X132850000Y-96930744D01*
X132850000Y-96386396D01*
X132886396Y-96350000D01*
X133340002Y-96350000D01*
X133512210Y-96315746D01*
X133658200Y-96218198D01*
X133818198Y-96058200D01*
X133915746Y-95912210D01*
X133950000Y-95740002D01*
X133950000Y-94810660D01*
X134018198Y-94742462D01*
X134115746Y-94596472D01*
X134138842Y-94480361D01*
X134250722Y-94368676D01*
X134349887Y-94129860D01*
X134350112Y-93871274D01*
X134251364Y-93632286D01*
X134068676Y-93449278D01*
X134010208Y-93425000D01*
X135958140Y-93425000D01*
X136216857Y-93476462D01*
X136400698Y-93599300D01*
X136523538Y-93783144D01*
X136575000Y-94041860D01*
X136575000Y-105958140D01*
X136523538Y-106216856D01*
X136400698Y-106400700D01*
X136216857Y-106523538D01*
X135958140Y-106575000D01*
X133291281Y-106575000D01*
X133398825Y-106505797D01*
X133478741Y-106388837D01*
X133506856Y-106250000D01*
X133506856Y-104450000D01*
X133482451Y-104320298D01*
X133405797Y-104201175D01*
X133288837Y-104121259D01*
X133150000Y-104093144D01*
X129350000Y-104093144D01*
X129220298Y-104117549D01*
X129101175Y-104194203D01*
X129021259Y-104311163D01*
X129009172Y-104370850D01*
X128737353Y-104098556D01*
X128259721Y-103900226D01*
X127742548Y-103899774D01*
X127264571Y-104097271D01*
X126898556Y-104462647D01*
X126700226Y-104940279D01*
X126699774Y-105457452D01*
X126786470Y-105667270D01*
X126672948Y-105553550D01*
X126434132Y-105454385D01*
X126175546Y-105454160D01*
X125936558Y-105552908D01*
X125753550Y-105735596D01*
X125654385Y-105974412D01*
X125654319Y-106050000D01*
X121780395Y-106050000D01*
X121780437Y-106001599D01*
X121681689Y-105762611D01*
X121499001Y-105579603D01*
X121260185Y-105480438D01*
X121001599Y-105480213D01*
X120762611Y-105578961D01*
X120579603Y-105761649D01*
X120480438Y-106000465D01*
X120480213Y-106259051D01*
X120578961Y-106498039D01*
X120655787Y-106575000D01*
X109453024Y-106575000D01*
X109500852Y-106459817D01*
X109501147Y-106121666D01*
X109372015Y-105809143D01*
X109338951Y-105776021D01*
X110511809Y-105776021D01*
X110610557Y-106015009D01*
X110793245Y-106198017D01*
X111032061Y-106297182D01*
X111290647Y-106297407D01*
X111529635Y-106198659D01*
X111712643Y-106015971D01*
X111800027Y-105805527D01*
X112199999Y-105805527D01*
X112372207Y-105771273D01*
X112449983Y-105719304D01*
X112449888Y-105828726D01*
X112548636Y-106067714D01*
X112731324Y-106250722D01*
X112970140Y-106349887D01*
X113228726Y-106350112D01*
X113467714Y-106251364D01*
X113650722Y-106068676D01*
X113749887Y-105829860D01*
X113750112Y-105571274D01*
X113651364Y-105332286D01*
X113550000Y-105230744D01*
X113550000Y-103461745D01*
X120499881Y-103461745D01*
X120598629Y-103700733D01*
X120781317Y-103883741D01*
X121020133Y-103982906D01*
X121278719Y-103983131D01*
X121517707Y-103884383D01*
X121700715Y-103701695D01*
X121799880Y-103462879D01*
X121800005Y-103319403D01*
X121918198Y-103201210D01*
X121977472Y-103112500D01*
X124800000Y-103112500D01*
X124800000Y-103569619D01*
X124853284Y-103698259D01*
X124951741Y-103796715D01*
X125080380Y-103850000D01*
X126537500Y-103850000D01*
X126625000Y-103762500D01*
X126625000Y-103025000D01*
X126675000Y-103025000D01*
X126675000Y-103762500D01*
X126762500Y-103850000D01*
X128219620Y-103850000D01*
X128348259Y-103796715D01*
X128446716Y-103698259D01*
X128500000Y-103569619D01*
X128500000Y-103112500D01*
X128412500Y-103025000D01*
X126675000Y-103025000D01*
X126625000Y-103025000D01*
X124887500Y-103025000D01*
X124800000Y-103112500D01*
X121977472Y-103112500D01*
X122015746Y-103055220D01*
X122050000Y-102883012D01*
X122050000Y-100500000D01*
X124793144Y-100500000D01*
X124793144Y-101500000D01*
X124817549Y-101629702D01*
X124894203Y-101748825D01*
X125011163Y-101828741D01*
X125150000Y-101856856D01*
X125760023Y-101856856D01*
X125759890Y-102009693D01*
X125817864Y-102150000D01*
X125080380Y-102150000D01*
X124951741Y-102203285D01*
X124853284Y-102301741D01*
X124800000Y-102430381D01*
X124800000Y-102887500D01*
X124887500Y-102975000D01*
X126625000Y-102975000D01*
X126625000Y-102955000D01*
X126675000Y-102955000D01*
X126675000Y-102975000D01*
X128412500Y-102975000D01*
X128500000Y-102887500D01*
X128500000Y-102430381D01*
X128446716Y-102301741D01*
X128348259Y-102203285D01*
X128219620Y-102150000D01*
X127002099Y-102150000D01*
X127059889Y-102010827D01*
X127060023Y-101856856D01*
X128150000Y-101856856D01*
X128279702Y-101832451D01*
X128398825Y-101755797D01*
X128478741Y-101638837D01*
X128506856Y-101500000D01*
X128506856Y-100500000D01*
X128482451Y-100370298D01*
X128405797Y-100251175D01*
X128288837Y-100171259D01*
X128150000Y-100143144D01*
X125150000Y-100143144D01*
X125020298Y-100167549D01*
X124901175Y-100244203D01*
X124821259Y-100361163D01*
X124793144Y-100500000D01*
X122050000Y-100500000D01*
X122050000Y-100329224D01*
X122150722Y-100228678D01*
X122249887Y-99989862D01*
X122250112Y-99731276D01*
X122151364Y-99492288D01*
X122138658Y-99479559D01*
X123996680Y-99479559D01*
X124095428Y-99718547D01*
X124278116Y-99901555D01*
X124516932Y-100000720D01*
X124775518Y-100000945D01*
X125014506Y-99902197D01*
X125075117Y-99841692D01*
X125150000Y-99856856D01*
X128150000Y-99856856D01*
X128279702Y-99832451D01*
X128398825Y-99755797D01*
X128478741Y-99638837D01*
X128506856Y-99500000D01*
X128506856Y-98500000D01*
X128482451Y-98370298D01*
X128405797Y-98251175D01*
X128288837Y-98171259D01*
X128150000Y-98143144D01*
X125363962Y-98143144D01*
X125650251Y-97856856D01*
X128150000Y-97856856D01*
X128279702Y-97832451D01*
X128398825Y-97755797D01*
X128478741Y-97638837D01*
X128506856Y-97500000D01*
X128506856Y-96500000D01*
X128482451Y-96370298D01*
X128405797Y-96251175D01*
X128288837Y-96171259D01*
X128150000Y-96143144D01*
X125993252Y-96143144D01*
X127144927Y-94991469D01*
X127213536Y-94991529D01*
X127321397Y-95252572D01*
X127546245Y-95477812D01*
X127840172Y-95599861D01*
X128158432Y-95600139D01*
X128452572Y-95478603D01*
X128677812Y-95253755D01*
X128799861Y-94959828D01*
X128800139Y-94641568D01*
X128678603Y-94347428D01*
X128453755Y-94122188D01*
X128159828Y-94000139D01*
X127841568Y-93999861D01*
X127738296Y-94042532D01*
X127709883Y-93973767D01*
X127527195Y-93790759D01*
X127288379Y-93691594D01*
X127029793Y-93691369D01*
X126790805Y-93790117D01*
X126607797Y-93972805D01*
X126508632Y-94211621D01*
X126508507Y-94355097D01*
X125213604Y-95650000D01*
X125009998Y-95650000D01*
X124837790Y-95684254D01*
X124772630Y-95727793D01*
X124691800Y-95781802D01*
X124481802Y-95991800D01*
X124384254Y-96137790D01*
X124350000Y-96309998D01*
X124350000Y-96645665D01*
X124282284Y-96673645D01*
X124099276Y-96856333D01*
X124000111Y-97095149D01*
X123999886Y-97353735D01*
X124098634Y-97592723D01*
X124193222Y-97687477D01*
X124137502Y-97743100D01*
X124038337Y-97981916D01*
X124038112Y-98240502D01*
X124136860Y-98479490D01*
X124319548Y-98662498D01*
X124464701Y-98722771D01*
X124279078Y-98799469D01*
X124096070Y-98982157D01*
X123996905Y-99220973D01*
X123996680Y-99479559D01*
X122138658Y-99479559D01*
X121968676Y-99309280D01*
X121729860Y-99210115D01*
X121471274Y-99209890D01*
X121232286Y-99308638D01*
X121049278Y-99491326D01*
X120950113Y-99730142D01*
X120949888Y-99988728D01*
X121048636Y-100227716D01*
X121150000Y-100329258D01*
X121150000Y-102683019D01*
X121021267Y-102682907D01*
X120782279Y-102781655D01*
X120599271Y-102964343D01*
X120500106Y-103203159D01*
X120499881Y-103461745D01*
X113550000Y-103461745D01*
X113550000Y-102924045D01*
X114361310Y-102924045D01*
X114380957Y-103050476D01*
X114619707Y-103149800D01*
X114878293Y-103150198D01*
X115117347Y-103051609D01*
X115119043Y-103050476D01*
X115138690Y-102924045D01*
X116861310Y-102924045D01*
X116880957Y-103050476D01*
X117119707Y-103149800D01*
X117378293Y-103150198D01*
X117617347Y-103051609D01*
X117619043Y-103050476D01*
X117638690Y-102924045D01*
X119361310Y-102924045D01*
X119380957Y-103050476D01*
X119619707Y-103149800D01*
X119878293Y-103150198D01*
X120117347Y-103051609D01*
X120119043Y-103050476D01*
X120138690Y-102924045D01*
X119750000Y-102535355D01*
X119361310Y-102924045D01*
X117638690Y-102924045D01*
X117250000Y-102535355D01*
X116861310Y-102924045D01*
X115138690Y-102924045D01*
X114750000Y-102535355D01*
X114361310Y-102924045D01*
X113550000Y-102924045D01*
X113550000Y-102628293D01*
X114099802Y-102628293D01*
X114198391Y-102867347D01*
X114199524Y-102869043D01*
X114325955Y-102888690D01*
X114714645Y-102500000D01*
X114785355Y-102500000D01*
X115174045Y-102888690D01*
X115300476Y-102869043D01*
X115399800Y-102630293D01*
X115399803Y-102628293D01*
X116599802Y-102628293D01*
X116698391Y-102867347D01*
X116699524Y-102869043D01*
X116825955Y-102888690D01*
X117214645Y-102500000D01*
X117285355Y-102500000D01*
X117674045Y-102888690D01*
X117800476Y-102869043D01*
X117899800Y-102630293D01*
X117899803Y-102628293D01*
X119099802Y-102628293D01*
X119198391Y-102867347D01*
X119199524Y-102869043D01*
X119325955Y-102888690D01*
X119714645Y-102500000D01*
X119785355Y-102500000D01*
X120174045Y-102888690D01*
X120300476Y-102869043D01*
X120399800Y-102630293D01*
X120400198Y-102371707D01*
X120301609Y-102132653D01*
X120300476Y-102130957D01*
X120174045Y-102111310D01*
X119785355Y-102500000D01*
X119714645Y-102500000D01*
X119325955Y-102111310D01*
X119199524Y-102130957D01*
X119100200Y-102369707D01*
X119099802Y-102628293D01*
X117899803Y-102628293D01*
X117900198Y-102371707D01*
X117801609Y-102132653D01*
X117800476Y-102130957D01*
X117674045Y-102111310D01*
X117285355Y-102500000D01*
X117214645Y-102500000D01*
X116825955Y-102111310D01*
X116699524Y-102130957D01*
X116600200Y-102369707D01*
X116599802Y-102628293D01*
X115399803Y-102628293D01*
X115400198Y-102371707D01*
X115301609Y-102132653D01*
X115300476Y-102130957D01*
X115174045Y-102111310D01*
X114785355Y-102500000D01*
X114714645Y-102500000D01*
X114325955Y-102111310D01*
X114199524Y-102130957D01*
X114100200Y-102369707D01*
X114099802Y-102628293D01*
X113550000Y-102628293D01*
X113550000Y-102075955D01*
X114361310Y-102075955D01*
X114750000Y-102464645D01*
X115138690Y-102075955D01*
X116861310Y-102075955D01*
X117250000Y-102464645D01*
X117638690Y-102075955D01*
X119361310Y-102075955D01*
X119750000Y-102464645D01*
X120138690Y-102075955D01*
X120119043Y-101949524D01*
X119880293Y-101850200D01*
X119621707Y-101849802D01*
X119382653Y-101948391D01*
X119380957Y-101949524D01*
X119361310Y-102075955D01*
X117638690Y-102075955D01*
X117619043Y-101949524D01*
X117380293Y-101850200D01*
X117121707Y-101849802D01*
X116882653Y-101948391D01*
X116880957Y-101949524D01*
X116861310Y-102075955D01*
X115138690Y-102075955D01*
X115119043Y-101949524D01*
X114880293Y-101850200D01*
X114621707Y-101849802D01*
X114382653Y-101948391D01*
X114380957Y-101949524D01*
X114361310Y-102075955D01*
X113550000Y-102075955D01*
X113550000Y-100849990D01*
X113515746Y-100677782D01*
X113418198Y-100531792D01*
X113310451Y-100424045D01*
X114361310Y-100424045D01*
X114380957Y-100550476D01*
X114619707Y-100649800D01*
X114878293Y-100650198D01*
X115117347Y-100551609D01*
X115119043Y-100550476D01*
X115138690Y-100424045D01*
X116861310Y-100424045D01*
X116880957Y-100550476D01*
X117119707Y-100649800D01*
X117378293Y-100650198D01*
X117617347Y-100551609D01*
X117619043Y-100550476D01*
X117638690Y-100424045D01*
X119361310Y-100424045D01*
X119380957Y-100550476D01*
X119619707Y-100649800D01*
X119878293Y-100650198D01*
X120117347Y-100551609D01*
X120119043Y-100550476D01*
X120138690Y-100424045D01*
X119750000Y-100035355D01*
X119361310Y-100424045D01*
X117638690Y-100424045D01*
X117250000Y-100035355D01*
X116861310Y-100424045D01*
X115138690Y-100424045D01*
X114750000Y-100035355D01*
X114361310Y-100424045D01*
X113310451Y-100424045D01*
X113049988Y-100163582D01*
X113050018Y-100128293D01*
X114099802Y-100128293D01*
X114198391Y-100367347D01*
X114199524Y-100369043D01*
X114325955Y-100388690D01*
X114714645Y-100000000D01*
X114785355Y-100000000D01*
X115174045Y-100388690D01*
X115300476Y-100369043D01*
X115399800Y-100130293D01*
X115399803Y-100128293D01*
X116599802Y-100128293D01*
X116698391Y-100367347D01*
X116699524Y-100369043D01*
X116825955Y-100388690D01*
X117214645Y-100000000D01*
X117285355Y-100000000D01*
X117674045Y-100388690D01*
X117800476Y-100369043D01*
X117899800Y-100130293D01*
X117899803Y-100128293D01*
X119099802Y-100128293D01*
X119198391Y-100367347D01*
X119199524Y-100369043D01*
X119325955Y-100388690D01*
X119714645Y-100000000D01*
X119785355Y-100000000D01*
X120174045Y-100388690D01*
X120300476Y-100369043D01*
X120399800Y-100130293D01*
X120400198Y-99871707D01*
X120301609Y-99632653D01*
X120300476Y-99630957D01*
X120174045Y-99611310D01*
X119785355Y-100000000D01*
X119714645Y-100000000D01*
X119325955Y-99611310D01*
X119199524Y-99630957D01*
X119100200Y-99869707D01*
X119099802Y-100128293D01*
X117899803Y-100128293D01*
X117900198Y-99871707D01*
X117801609Y-99632653D01*
X117800476Y-99630957D01*
X117674045Y-99611310D01*
X117285355Y-100000000D01*
X117214645Y-100000000D01*
X116825955Y-99611310D01*
X116699524Y-99630957D01*
X116600200Y-99869707D01*
X116599802Y-100128293D01*
X115399803Y-100128293D01*
X115400198Y-99871707D01*
X115301609Y-99632653D01*
X115300476Y-99630957D01*
X115174045Y-99611310D01*
X114785355Y-100000000D01*
X114714645Y-100000000D01*
X114325955Y-99611310D01*
X114199524Y-99630957D01*
X114100200Y-99869707D01*
X114099802Y-100128293D01*
X113050018Y-100128293D01*
X113050112Y-100021264D01*
X113000665Y-99901594D01*
X113156855Y-99745677D01*
X113227329Y-99575955D01*
X114361310Y-99575955D01*
X114750000Y-99964645D01*
X115138690Y-99575955D01*
X116861310Y-99575955D01*
X117250000Y-99964645D01*
X117638690Y-99575955D01*
X119361310Y-99575955D01*
X119750000Y-99964645D01*
X120138690Y-99575955D01*
X120119043Y-99449524D01*
X119880293Y-99350200D01*
X119621707Y-99349802D01*
X119382653Y-99448391D01*
X119380957Y-99449524D01*
X119361310Y-99575955D01*
X117638690Y-99575955D01*
X117619043Y-99449524D01*
X117380293Y-99350200D01*
X117121707Y-99349802D01*
X116882653Y-99448391D01*
X116880957Y-99449524D01*
X116861310Y-99575955D01*
X115138690Y-99575955D01*
X115119043Y-99449524D01*
X114880293Y-99350200D01*
X114621707Y-99349802D01*
X114382653Y-99448391D01*
X114380957Y-99449524D01*
X114361310Y-99575955D01*
X113227329Y-99575955D01*
X113256020Y-99506861D01*
X113256245Y-99248275D01*
X113157497Y-99009287D01*
X112974809Y-98826279D01*
X112735993Y-98727114D01*
X112549977Y-98726952D01*
X112550112Y-98571274D01*
X112451364Y-98332286D01*
X112268676Y-98149278D01*
X112029860Y-98050113D01*
X111771274Y-98049888D01*
X111532286Y-98148636D01*
X111430744Y-98250000D01*
X111400000Y-98250000D01*
X111227792Y-98284254D01*
X111112690Y-98361163D01*
X111081802Y-98381802D01*
X110781802Y-98681802D01*
X110684254Y-98827792D01*
X110650000Y-99000000D01*
X110650000Y-101400000D01*
X110684254Y-101572208D01*
X110750448Y-101671274D01*
X110781802Y-101718198D01*
X110850012Y-101786408D01*
X110849888Y-101928726D01*
X110948636Y-102167714D01*
X111131324Y-102350722D01*
X111370140Y-102449887D01*
X111628726Y-102450112D01*
X111867714Y-102351364D01*
X112050722Y-102168676D01*
X112149887Y-101929860D01*
X112150000Y-101799992D01*
X112150000Y-104769130D01*
X112013603Y-104905527D01*
X111453689Y-104905527D01*
X111281481Y-104939781D01*
X111195362Y-104997324D01*
X111033195Y-104997183D01*
X110794207Y-105095931D01*
X110611199Y-105278619D01*
X110512034Y-105517435D01*
X110511809Y-105776021D01*
X109338951Y-105776021D01*
X109133115Y-105569826D01*
X108820817Y-105440148D01*
X108482666Y-105439853D01*
X108170143Y-105568985D01*
X107930826Y-105807885D01*
X107801148Y-106120183D01*
X107800853Y-106458334D01*
X107849058Y-106575000D01*
X107421024Y-106575000D01*
X107468852Y-106459817D01*
X107469147Y-106121666D01*
X107340015Y-105809143D01*
X107101115Y-105569826D01*
X106788817Y-105440148D01*
X106450666Y-105439853D01*
X106138143Y-105568985D01*
X105898826Y-105807885D01*
X105769148Y-106120183D01*
X105768853Y-106458334D01*
X105817058Y-106575000D01*
X101041860Y-106575000D01*
X100783144Y-106523538D01*
X100599300Y-106400698D01*
X100476462Y-106216857D01*
X100425000Y-105958140D01*
X100425000Y-105416856D01*
X102270000Y-105416856D01*
X102399702Y-105392451D01*
X102518825Y-105315797D01*
X102598741Y-105198837D01*
X102626856Y-105060000D01*
X102626856Y-102620000D01*
X102602451Y-102490298D01*
X102540057Y-102393334D01*
X103649853Y-102393334D01*
X103778985Y-102705857D01*
X104017885Y-102945174D01*
X104330183Y-103074852D01*
X104668334Y-103075147D01*
X104980857Y-102946015D01*
X105098350Y-102828726D01*
X105449888Y-102828726D01*
X105548636Y-103067714D01*
X105731324Y-103250722D01*
X105970140Y-103349887D01*
X106228726Y-103350112D01*
X106467714Y-103251364D01*
X106519168Y-103200000D01*
X108139035Y-103200000D01*
X108469595Y-103530560D01*
X108469533Y-103602230D01*
X108568281Y-103841218D01*
X108637786Y-103910844D01*
X108642590Y-103935000D01*
X106835124Y-103935000D01*
X106751364Y-103732286D01*
X106568676Y-103549278D01*
X106329860Y-103450113D01*
X106071274Y-103449888D01*
X105832286Y-103548636D01*
X105649278Y-103731324D01*
X105550113Y-103970140D01*
X105549888Y-104228726D01*
X105648636Y-104467714D01*
X105831324Y-104650722D01*
X106070140Y-104749887D01*
X106236894Y-104750032D01*
X106312792Y-104800746D01*
X106485000Y-104835000D01*
X108469565Y-104835000D01*
X108469533Y-104872231D01*
X108568281Y-105111219D01*
X108750969Y-105294227D01*
X108989785Y-105393392D01*
X109248371Y-105393617D01*
X109487359Y-105294869D01*
X109581629Y-105200764D01*
X109731324Y-105350722D01*
X109970140Y-105449887D01*
X110228726Y-105450112D01*
X110467714Y-105351364D01*
X110650722Y-105168676D01*
X110749887Y-104929860D01*
X110750112Y-104671274D01*
X110651364Y-104432286D01*
X110468676Y-104249278D01*
X110229860Y-104150113D01*
X110157156Y-104150050D01*
X109722863Y-103715756D01*
X109769532Y-103603364D01*
X109769757Y-103344778D01*
X109671009Y-103105790D01*
X109488321Y-102922782D01*
X109249505Y-102823617D01*
X109176801Y-102823554D01*
X108699694Y-102346447D01*
X108537483Y-102238060D01*
X108534668Y-102237500D01*
X108346141Y-102200000D01*
X107284999Y-102200000D01*
X107284999Y-101985033D01*
X107465183Y-102059852D01*
X107803334Y-102060147D01*
X108115857Y-101931015D01*
X108355174Y-101692115D01*
X108484852Y-101379817D01*
X108485147Y-101041666D01*
X108356015Y-100729143D01*
X108117115Y-100489826D01*
X107804817Y-100360148D01*
X107466666Y-100359853D01*
X107284999Y-100434916D01*
X107284999Y-98301820D01*
X107348791Y-98238028D01*
X107420461Y-98238090D01*
X107659449Y-98139342D01*
X107842457Y-97956654D01*
X107855997Y-97924045D01*
X114361310Y-97924045D01*
X114380957Y-98050476D01*
X114619707Y-98149800D01*
X114878293Y-98150198D01*
X115117347Y-98051609D01*
X115119043Y-98050476D01*
X115138690Y-97924045D01*
X116861310Y-97924045D01*
X116880957Y-98050476D01*
X117119707Y-98149800D01*
X117378293Y-98150198D01*
X117617347Y-98051609D01*
X117619043Y-98050476D01*
X117638690Y-97924045D01*
X119361310Y-97924045D01*
X119380957Y-98050476D01*
X119619707Y-98149800D01*
X119878293Y-98150198D01*
X120117347Y-98051609D01*
X120119043Y-98050476D01*
X120138690Y-97924045D01*
X119750000Y-97535355D01*
X119361310Y-97924045D01*
X117638690Y-97924045D01*
X117250000Y-97535355D01*
X116861310Y-97924045D01*
X115138690Y-97924045D01*
X114750000Y-97535355D01*
X114361310Y-97924045D01*
X107855997Y-97924045D01*
X107941622Y-97717838D01*
X107941699Y-97628293D01*
X114099802Y-97628293D01*
X114198391Y-97867347D01*
X114199524Y-97869043D01*
X114325955Y-97888690D01*
X114714645Y-97500000D01*
X114785355Y-97500000D01*
X115174045Y-97888690D01*
X115300476Y-97869043D01*
X115399800Y-97630293D01*
X115399803Y-97628293D01*
X116599802Y-97628293D01*
X116698391Y-97867347D01*
X116699524Y-97869043D01*
X116825955Y-97888690D01*
X117214645Y-97500000D01*
X117285355Y-97500000D01*
X117674045Y-97888690D01*
X117800476Y-97869043D01*
X117899800Y-97630293D01*
X117899803Y-97628293D01*
X119099802Y-97628293D01*
X119198391Y-97867347D01*
X119199524Y-97869043D01*
X119325955Y-97888690D01*
X119714645Y-97500000D01*
X119785355Y-97500000D01*
X120174045Y-97888690D01*
X120300476Y-97869043D01*
X120399800Y-97630293D01*
X120400198Y-97371707D01*
X120301609Y-97132653D01*
X120300476Y-97130957D01*
X120174045Y-97111310D01*
X119785355Y-97500000D01*
X119714645Y-97500000D01*
X119325955Y-97111310D01*
X119199524Y-97130957D01*
X119100200Y-97369707D01*
X119099802Y-97628293D01*
X117899803Y-97628293D01*
X117900198Y-97371707D01*
X117801609Y-97132653D01*
X117800476Y-97130957D01*
X117674045Y-97111310D01*
X117285355Y-97500000D01*
X117214645Y-97500000D01*
X116825955Y-97111310D01*
X116699524Y-97130957D01*
X116600200Y-97369707D01*
X116599802Y-97628293D01*
X115399803Y-97628293D01*
X115400198Y-97371707D01*
X115301609Y-97132653D01*
X115300476Y-97130957D01*
X115174045Y-97111310D01*
X114785355Y-97500000D01*
X114714645Y-97500000D01*
X114325955Y-97111310D01*
X114199524Y-97130957D01*
X114100200Y-97369707D01*
X114099802Y-97628293D01*
X107941699Y-97628293D01*
X107941847Y-97459252D01*
X107843099Y-97220264D01*
X107699043Y-97075955D01*
X114361310Y-97075955D01*
X114750000Y-97464645D01*
X115138690Y-97075955D01*
X116861310Y-97075955D01*
X117250000Y-97464645D01*
X117638690Y-97075955D01*
X119361310Y-97075955D01*
X119750000Y-97464645D01*
X120138690Y-97075955D01*
X120119043Y-96949524D01*
X119880293Y-96850200D01*
X119621707Y-96849802D01*
X119382653Y-96948391D01*
X119380957Y-96949524D01*
X119361310Y-97075955D01*
X117638690Y-97075955D01*
X117619043Y-96949524D01*
X117380293Y-96850200D01*
X117121707Y-96849802D01*
X116882653Y-96948391D01*
X116880957Y-96949524D01*
X116861310Y-97075955D01*
X115138690Y-97075955D01*
X115119043Y-96949524D01*
X114880293Y-96850200D01*
X114621707Y-96849802D01*
X114382653Y-96948391D01*
X114380957Y-96949524D01*
X114361310Y-97075955D01*
X107699043Y-97075955D01*
X107660411Y-97037256D01*
X107421595Y-96938091D01*
X107163009Y-96937866D01*
X106924021Y-97036614D01*
X106741013Y-97219302D01*
X106641848Y-97458118D01*
X106641785Y-97530822D01*
X106431446Y-97741161D01*
X106323059Y-97903372D01*
X106284999Y-98094714D01*
X106284999Y-102073009D01*
X106229860Y-102050113D01*
X105971274Y-102049888D01*
X105732286Y-102148636D01*
X105549278Y-102331324D01*
X105450113Y-102570140D01*
X105449888Y-102828726D01*
X105098350Y-102828726D01*
X105220174Y-102707115D01*
X105349852Y-102394817D01*
X105350147Y-102056666D01*
X105221015Y-101744143D01*
X104982115Y-101504826D01*
X104669817Y-101375148D01*
X104331666Y-101374853D01*
X104019143Y-101503985D01*
X103779826Y-101742885D01*
X103650148Y-102055183D01*
X103649853Y-102393334D01*
X102540057Y-102393334D01*
X102525797Y-102371175D01*
X102408837Y-102291259D01*
X102270000Y-102263144D01*
X100425000Y-102263144D01*
X100425000Y-97943334D01*
X103649853Y-97943334D01*
X103778985Y-98255857D01*
X104017885Y-98495174D01*
X104330183Y-98624852D01*
X104668334Y-98625147D01*
X104980857Y-98496015D01*
X105220174Y-98257115D01*
X105349852Y-97944817D01*
X105350147Y-97606666D01*
X105221015Y-97294143D01*
X104982115Y-97054826D01*
X104669817Y-96925148D01*
X104331666Y-96924853D01*
X104019143Y-97053985D01*
X103779826Y-97292885D01*
X103650148Y-97605183D01*
X103649853Y-97943334D01*
X100425000Y-97943334D01*
X100425000Y-97736856D01*
X102270000Y-97736856D01*
X102399702Y-97712451D01*
X102518825Y-97635797D01*
X102598741Y-97518837D01*
X102626856Y-97380000D01*
X102626856Y-94940000D01*
X102602451Y-94810298D01*
X102525797Y-94691175D01*
X102408837Y-94611259D01*
X102270000Y-94583144D01*
X100425000Y-94583144D01*
X100425000Y-94041860D01*
X100476462Y-93783143D01*
X100599300Y-93599302D01*
X100783144Y-93476462D01*
X101041860Y-93425000D01*
X121150013Y-93425000D01*
X121149888Y-93568715D01*
M02*
