G04 #@! TF.FileFunction,Legend,Bot*
%FSLAX46Y46*%
G04 Gerber Fmt 4.6, Leading zero omitted, Abs format (unit mm)*
G04 Created by KiCad (PCBNEW 0.201512311516+6410~40~ubuntu14.04.1-stable) date Sun 03 Jan 2016 04:54:28 GMT*
%MOMM*%
G01*
G04 APERTURE LIST*
%ADD10C,0.100000*%
%ADD11C,0.150000*%
G04 APERTURE END LIST*
D10*
D11*
X123971429Y-102619048D02*
X123971429Y-103380953D01*
X124352381Y-101309524D02*
X123876190Y-100976190D01*
X124352381Y-100738095D02*
X123352381Y-100738095D01*
X123352381Y-101119048D01*
X123400000Y-101214286D01*
X123447619Y-101261905D01*
X123542857Y-101309524D01*
X123685714Y-101309524D01*
X123780952Y-101261905D01*
X123828571Y-101214286D01*
X123876190Y-101119048D01*
X123876190Y-100738095D01*
X123352381Y-98714286D02*
X123352381Y-99285715D01*
X124352381Y-99000000D02*
X123352381Y-99000000D01*
X120147619Y-94298333D02*
X119766667Y-94298333D01*
X120223810Y-94526905D02*
X119957143Y-93726905D01*
X119690476Y-94526905D01*
X119080953Y-94526905D02*
X119080953Y-93726905D01*
X119080953Y-94488810D02*
X119157143Y-94526905D01*
X119309524Y-94526905D01*
X119385715Y-94488810D01*
X119423810Y-94450714D01*
X119461905Y-94374524D01*
X119461905Y-94145952D01*
X119423810Y-94069762D01*
X119385715Y-94031667D01*
X119309524Y-93993571D01*
X119157143Y-93993571D01*
X119080953Y-94031667D01*
X118357143Y-94526905D02*
X118357143Y-94107857D01*
X118395238Y-94031667D01*
X118471428Y-93993571D01*
X118623809Y-93993571D01*
X118700000Y-94031667D01*
X118357143Y-94488810D02*
X118433333Y-94526905D01*
X118623809Y-94526905D01*
X118700000Y-94488810D01*
X118738095Y-94412619D01*
X118738095Y-94336429D01*
X118700000Y-94260238D01*
X118623809Y-94222143D01*
X118433333Y-94222143D01*
X118357143Y-94184048D01*
X117976190Y-94526905D02*
X117976190Y-93993571D01*
X117976190Y-94069762D02*
X117938095Y-94031667D01*
X117861904Y-93993571D01*
X117747618Y-93993571D01*
X117671428Y-94031667D01*
X117633333Y-94107857D01*
X117633333Y-94526905D01*
X117633333Y-94107857D02*
X117595237Y-94031667D01*
X117519047Y-93993571D01*
X117404761Y-93993571D01*
X117328571Y-94031667D01*
X117290476Y-94107857D01*
X117290476Y-94526905D01*
X116299999Y-94526905D02*
X116299999Y-93726905D01*
X116033332Y-94298333D01*
X115766665Y-93726905D01*
X115766665Y-94526905D01*
X115042856Y-94526905D02*
X115042856Y-94107857D01*
X115080951Y-94031667D01*
X115157141Y-93993571D01*
X115309522Y-93993571D01*
X115385713Y-94031667D01*
X115042856Y-94488810D02*
X115119046Y-94526905D01*
X115309522Y-94526905D01*
X115385713Y-94488810D01*
X115423808Y-94412619D01*
X115423808Y-94336429D01*
X115385713Y-94260238D01*
X115309522Y-94222143D01*
X115119046Y-94222143D01*
X115042856Y-94184048D01*
X114319046Y-93993571D02*
X114319046Y-94641190D01*
X114357141Y-94717381D01*
X114395236Y-94755476D01*
X114471427Y-94793571D01*
X114585712Y-94793571D01*
X114661903Y-94755476D01*
X114319046Y-94488810D02*
X114395236Y-94526905D01*
X114547617Y-94526905D01*
X114623808Y-94488810D01*
X114661903Y-94450714D01*
X114699998Y-94374524D01*
X114699998Y-94145952D01*
X114661903Y-94069762D01*
X114623808Y-94031667D01*
X114547617Y-93993571D01*
X114395236Y-93993571D01*
X114319046Y-94031667D01*
X113938093Y-94526905D02*
X113938093Y-93993571D01*
X113938093Y-93726905D02*
X113976188Y-93765000D01*
X113938093Y-93803095D01*
X113899998Y-93765000D01*
X113938093Y-93726905D01*
X113938093Y-93803095D01*
X113214284Y-94488810D02*
X113290474Y-94526905D01*
X113442855Y-94526905D01*
X113519046Y-94488810D01*
X113557141Y-94450714D01*
X113595236Y-94374524D01*
X113595236Y-94145952D01*
X113557141Y-94069762D01*
X113519046Y-94031667D01*
X113442855Y-93993571D01*
X113290474Y-93993571D01*
X113214284Y-94031667D01*
X112261903Y-94526905D02*
X112261903Y-93726905D01*
X111957141Y-93726905D01*
X111880950Y-93765000D01*
X111842855Y-93803095D01*
X111804760Y-93879286D01*
X111804760Y-93993571D01*
X111842855Y-94069762D01*
X111880950Y-94107857D01*
X111957141Y-94145952D01*
X112261903Y-94145952D01*
X111461903Y-94526905D02*
X111461903Y-93993571D01*
X111461903Y-94145952D02*
X111423808Y-94069762D01*
X111385712Y-94031667D01*
X111309522Y-93993571D01*
X111233331Y-93993571D01*
X110852379Y-94526905D02*
X110928570Y-94488810D01*
X110966665Y-94450714D01*
X111004760Y-94374524D01*
X111004760Y-94145952D01*
X110966665Y-94069762D01*
X110928570Y-94031667D01*
X110852379Y-93993571D01*
X110738093Y-93993571D01*
X110661903Y-94031667D01*
X110623808Y-94069762D01*
X110585712Y-94145952D01*
X110585712Y-94374524D01*
X110623808Y-94450714D01*
X110661903Y-94488810D01*
X110738093Y-94526905D01*
X110852379Y-94526905D01*
X110242855Y-94526905D02*
X110242855Y-93726905D01*
X110242855Y-94031667D02*
X110166664Y-93993571D01*
X110014283Y-93993571D01*
X109938093Y-94031667D01*
X109899998Y-94069762D01*
X109861902Y-94145952D01*
X109861902Y-94374524D01*
X109899998Y-94450714D01*
X109938093Y-94488810D01*
X110014283Y-94526905D01*
X110166664Y-94526905D01*
X110242855Y-94488810D01*
X109214283Y-94488810D02*
X109290473Y-94526905D01*
X109442854Y-94526905D01*
X109519045Y-94488810D01*
X109557140Y-94412619D01*
X109557140Y-94107857D01*
X109519045Y-94031667D01*
X109442854Y-93993571D01*
X109290473Y-93993571D01*
X109214283Y-94031667D01*
X109176188Y-94107857D01*
X109176188Y-94184048D01*
X109557140Y-94260238D01*
X108223807Y-94526905D02*
X108223807Y-93993571D01*
X108223807Y-94145952D02*
X108185712Y-94069762D01*
X108147616Y-94031667D01*
X108071426Y-93993571D01*
X107995235Y-93993571D01*
X107309521Y-94526905D02*
X107766664Y-94526905D01*
X107538093Y-94526905D02*
X107538093Y-93726905D01*
X107614283Y-93841190D01*
X107690474Y-93917381D01*
X107766664Y-93955476D01*
X119766667Y-95263571D02*
X119766667Y-95911190D01*
X119804762Y-95987381D01*
X119842857Y-96025476D01*
X119919048Y-96063571D01*
X120033333Y-96063571D01*
X120109524Y-96025476D01*
X119766667Y-95758810D02*
X119842857Y-95796905D01*
X119995238Y-95796905D01*
X120071429Y-95758810D01*
X120109524Y-95720714D01*
X120147619Y-95644524D01*
X120147619Y-95415952D01*
X120109524Y-95339762D01*
X120071429Y-95301667D01*
X119995238Y-95263571D01*
X119842857Y-95263571D01*
X119766667Y-95301667D01*
X119385714Y-95796905D02*
X119385714Y-95263571D01*
X119385714Y-94996905D02*
X119423809Y-95035000D01*
X119385714Y-95073095D01*
X119347619Y-95035000D01*
X119385714Y-94996905D01*
X119385714Y-95073095D01*
X119119048Y-95263571D02*
X118814286Y-95263571D01*
X119004762Y-94996905D02*
X119004762Y-95682619D01*
X118966667Y-95758810D01*
X118890476Y-95796905D01*
X118814286Y-95796905D01*
X118547619Y-95796905D02*
X118547619Y-94996905D01*
X118204762Y-95796905D02*
X118204762Y-95377857D01*
X118242857Y-95301667D01*
X118319047Y-95263571D01*
X118433333Y-95263571D01*
X118509524Y-95301667D01*
X118547619Y-95339762D01*
X117480952Y-95263571D02*
X117480952Y-95796905D01*
X117823809Y-95263571D02*
X117823809Y-95682619D01*
X117785714Y-95758810D01*
X117709523Y-95796905D01*
X117595237Y-95796905D01*
X117519047Y-95758810D01*
X117480952Y-95720714D01*
X117099999Y-95796905D02*
X117099999Y-94996905D01*
X117099999Y-95301667D02*
X117023808Y-95263571D01*
X116871427Y-95263571D01*
X116795237Y-95301667D01*
X116757142Y-95339762D01*
X116719046Y-95415952D01*
X116719046Y-95644524D01*
X116757142Y-95720714D01*
X116795237Y-95758810D01*
X116871427Y-95796905D01*
X117023808Y-95796905D01*
X117099999Y-95758810D01*
X116376189Y-95720714D02*
X116338094Y-95758810D01*
X116376189Y-95796905D01*
X116414284Y-95758810D01*
X116376189Y-95720714D01*
X116376189Y-95796905D01*
X115652380Y-95758810D02*
X115728570Y-95796905D01*
X115880951Y-95796905D01*
X115957142Y-95758810D01*
X115995237Y-95720714D01*
X116033332Y-95644524D01*
X116033332Y-95415952D01*
X115995237Y-95339762D01*
X115957142Y-95301667D01*
X115880951Y-95263571D01*
X115728570Y-95263571D01*
X115652380Y-95301667D01*
X115195237Y-95796905D02*
X115271428Y-95758810D01*
X115309523Y-95720714D01*
X115347618Y-95644524D01*
X115347618Y-95415952D01*
X115309523Y-95339762D01*
X115271428Y-95301667D01*
X115195237Y-95263571D01*
X115080951Y-95263571D01*
X115004761Y-95301667D01*
X114966666Y-95339762D01*
X114928570Y-95415952D01*
X114928570Y-95644524D01*
X114966666Y-95720714D01*
X115004761Y-95758810D01*
X115080951Y-95796905D01*
X115195237Y-95796905D01*
X114585713Y-95796905D02*
X114585713Y-95263571D01*
X114585713Y-95339762D02*
X114547618Y-95301667D01*
X114471427Y-95263571D01*
X114357141Y-95263571D01*
X114280951Y-95301667D01*
X114242856Y-95377857D01*
X114242856Y-95796905D01*
X114242856Y-95377857D02*
X114204760Y-95301667D01*
X114128570Y-95263571D01*
X114014284Y-95263571D01*
X113938094Y-95301667D01*
X113899999Y-95377857D01*
X113899999Y-95796905D01*
X112947617Y-94958810D02*
X113633332Y-95987381D01*
X112338094Y-95796905D02*
X112338094Y-95377857D01*
X112376189Y-95301667D01*
X112452379Y-95263571D01*
X112604760Y-95263571D01*
X112680951Y-95301667D01*
X112338094Y-95758810D02*
X112414284Y-95796905D01*
X112604760Y-95796905D01*
X112680951Y-95758810D01*
X112719046Y-95682619D01*
X112719046Y-95606429D01*
X112680951Y-95530238D01*
X112604760Y-95492143D01*
X112414284Y-95492143D01*
X112338094Y-95454048D01*
X111614284Y-95796905D02*
X111614284Y-94996905D01*
X111614284Y-95758810D02*
X111690474Y-95796905D01*
X111842855Y-95796905D01*
X111919046Y-95758810D01*
X111957141Y-95720714D01*
X111995236Y-95644524D01*
X111995236Y-95415952D01*
X111957141Y-95339762D01*
X111919046Y-95301667D01*
X111842855Y-95263571D01*
X111690474Y-95263571D01*
X111614284Y-95301667D01*
X110890474Y-95796905D02*
X110890474Y-95377857D01*
X110928569Y-95301667D01*
X111004759Y-95263571D01*
X111157140Y-95263571D01*
X111233331Y-95301667D01*
X110890474Y-95758810D02*
X110966664Y-95796905D01*
X111157140Y-95796905D01*
X111233331Y-95758810D01*
X111271426Y-95682619D01*
X111271426Y-95606429D01*
X111233331Y-95530238D01*
X111157140Y-95492143D01*
X110966664Y-95492143D01*
X110890474Y-95454048D01*
X110509521Y-95796905D02*
X110509521Y-95263571D01*
X110509521Y-95339762D02*
X110471426Y-95301667D01*
X110395235Y-95263571D01*
X110280949Y-95263571D01*
X110204759Y-95301667D01*
X110166664Y-95377857D01*
X110166664Y-95796905D01*
X110166664Y-95377857D02*
X110128568Y-95301667D01*
X110052378Y-95263571D01*
X109938092Y-95263571D01*
X109861902Y-95301667D01*
X109823807Y-95377857D01*
X109823807Y-95796905D01*
X109099997Y-95263571D02*
X109099997Y-95911190D01*
X109138092Y-95987381D01*
X109176187Y-96025476D01*
X109252378Y-96063571D01*
X109366663Y-96063571D01*
X109442854Y-96025476D01*
X109099997Y-95758810D02*
X109176187Y-95796905D01*
X109328568Y-95796905D01*
X109404759Y-95758810D01*
X109442854Y-95720714D01*
X109480949Y-95644524D01*
X109480949Y-95415952D01*
X109442854Y-95339762D01*
X109404759Y-95301667D01*
X109328568Y-95263571D01*
X109176187Y-95263571D01*
X109099997Y-95301667D01*
X108719044Y-95796905D02*
X108719044Y-95263571D01*
X108719044Y-95415952D02*
X108680949Y-95339762D01*
X108642853Y-95301667D01*
X108566663Y-95263571D01*
X108490472Y-95263571D01*
X107919044Y-95758810D02*
X107995234Y-95796905D01*
X108147615Y-95796905D01*
X108223806Y-95758810D01*
X108261901Y-95682619D01*
X108261901Y-95377857D01*
X108223806Y-95301667D01*
X108147615Y-95263571D01*
X107995234Y-95263571D01*
X107919044Y-95301667D01*
X107880949Y-95377857D01*
X107880949Y-95454048D01*
X108261901Y-95530238D01*
X107538092Y-95796905D02*
X107538092Y-95263571D01*
X107538092Y-94996905D02*
X107576187Y-95035000D01*
X107538092Y-95073095D01*
X107499997Y-95035000D01*
X107538092Y-94996905D01*
X107538092Y-95073095D01*
X106814283Y-95263571D02*
X106814283Y-95911190D01*
X106852378Y-95987381D01*
X106890473Y-96025476D01*
X106966664Y-96063571D01*
X107080949Y-96063571D01*
X107157140Y-96025476D01*
X106814283Y-95758810D02*
X106890473Y-95796905D01*
X107042854Y-95796905D01*
X107119045Y-95758810D01*
X107157140Y-95720714D01*
X107195235Y-95644524D01*
X107195235Y-95415952D01*
X107157140Y-95339762D01*
X107119045Y-95301667D01*
X107042854Y-95263571D01*
X106890473Y-95263571D01*
X106814283Y-95301667D01*
X105861901Y-94958810D02*
X106547616Y-95987381D01*
X105252378Y-95796905D02*
X105252378Y-95377857D01*
X105290473Y-95301667D01*
X105366663Y-95263571D01*
X105519044Y-95263571D01*
X105595235Y-95301667D01*
X105252378Y-95758810D02*
X105328568Y-95796905D01*
X105519044Y-95796905D01*
X105595235Y-95758810D01*
X105633330Y-95682619D01*
X105633330Y-95606429D01*
X105595235Y-95530238D01*
X105519044Y-95492143D01*
X105328568Y-95492143D01*
X105252378Y-95454048D01*
X104871425Y-95796905D02*
X104871425Y-95263571D01*
X104871425Y-95339762D02*
X104833330Y-95301667D01*
X104757139Y-95263571D01*
X104642853Y-95263571D01*
X104566663Y-95301667D01*
X104528568Y-95377857D01*
X104528568Y-95796905D01*
X104528568Y-95377857D02*
X104490472Y-95301667D01*
X104414282Y-95263571D01*
X104299996Y-95263571D01*
X104223806Y-95301667D01*
X104185711Y-95377857D01*
X104185711Y-95796905D01*
X103804758Y-95263571D02*
X103804758Y-96063571D01*
X103804758Y-95301667D02*
X103728567Y-95263571D01*
X103576186Y-95263571D01*
X103499996Y-95301667D01*
X103461901Y-95339762D01*
X103423805Y-95415952D01*
X103423805Y-95644524D01*
X103461901Y-95720714D01*
X103499996Y-95758810D01*
X103576186Y-95796905D01*
X103728567Y-95796905D01*
X103804758Y-95758810D01*
X123971429Y-96619048D02*
X123971429Y-97380953D01*
X124352381Y-97000001D02*
X123590476Y-97000001D01*
X135950000Y-106000000D02*
X135950000Y-103000000D01*
X135950000Y-103000000D02*
X134550000Y-103000000D01*
X134550000Y-103000000D02*
X134550000Y-97000000D01*
X134550000Y-97000000D02*
X135950000Y-97000000D01*
X135950000Y-97000000D02*
X135950000Y-94000000D01*
X135950000Y-94000000D02*
X133300000Y-94000000D01*
X135950000Y-106000000D02*
X133300000Y-106000000D01*
X127050000Y-94000000D02*
X129200000Y-94000000D01*
X127050000Y-94000000D02*
X127050000Y-95800000D01*
X127050000Y-106000000D02*
X129200000Y-106000000D01*
X127050000Y-106000000D02*
X127050000Y-104200000D01*
M02*
