G04 #@! TF.FileFunction,Paste,Top*
%FSLAX46Y46*%
G04 Gerber Fmt 4.6, Leading zero omitted, Abs format (unit mm)*
G04 Created by KiCad (PCBNEW 0.201512311516+6410~40~ubuntu14.04.1-stable) date Sat 02 Jan 2016 08:24:33 GMT*
%MOMM*%
G01*
G04 APERTURE LIST*
%ADD10C,0.100000*%
%ADD11R,0.950000X1.000000*%
%ADD12R,0.550000X0.300000*%
%ADD13R,0.300000X0.550000*%
%ADD14R,2.002000X2.002000*%
%ADD15R,1.000000X0.950000*%
%ADD16R,0.620000X0.620000*%
%ADD17R,1.000000X0.600000*%
%ADD18R,1.350000X0.400000*%
%ADD19R,1.200000X1.200000*%
%ADD20R,2.400000X1.900000*%
G04 APERTURE END LIST*
D10*
D11*
X114050000Y-94300000D03*
X112450000Y-94300000D03*
D12*
X119125000Y-102750000D03*
X119125000Y-102250000D03*
X119125000Y-101750000D03*
X119125000Y-101250000D03*
X119125000Y-100750000D03*
X119125000Y-100250000D03*
X119125000Y-99750000D03*
X119125000Y-99250000D03*
X119125000Y-98750000D03*
X119125000Y-98250000D03*
X119125000Y-97750000D03*
X119125000Y-97250000D03*
D13*
X118500000Y-96625000D03*
X118000000Y-96625000D03*
X117500000Y-96625000D03*
X117000000Y-96625000D03*
X116500000Y-96625000D03*
X116000000Y-96625000D03*
X115500000Y-96625000D03*
X115000000Y-96625000D03*
X114500000Y-96625000D03*
X114000000Y-96625000D03*
X113500000Y-96625000D03*
X113000000Y-96625000D03*
D12*
X112375000Y-97250000D03*
X112375000Y-97750000D03*
X112375000Y-98250000D03*
X112375000Y-98750000D03*
X112375000Y-99250000D03*
X112375000Y-99750000D03*
X112375000Y-100250000D03*
X112375000Y-100750000D03*
X112375000Y-101250000D03*
X112375000Y-101750000D03*
X112375000Y-102250000D03*
X112375000Y-102750000D03*
D13*
X113000000Y-103375000D03*
X113500000Y-103375000D03*
X114000000Y-103375000D03*
X114500000Y-103375000D03*
X115000000Y-103375000D03*
X115500000Y-103375000D03*
X116000000Y-103375000D03*
X116500000Y-103375000D03*
X117000000Y-103375000D03*
X117500000Y-103375000D03*
X118000000Y-103375000D03*
X118500000Y-103375000D03*
D14*
X117000000Y-101250000D03*
X117000000Y-98750000D03*
X114500000Y-101250000D03*
X114500000Y-98750000D03*
D15*
X121750000Y-99000000D03*
X121750000Y-97400000D03*
D16*
X113700000Y-95500000D03*
X112800000Y-95500000D03*
X117800000Y-104500000D03*
X118700000Y-104500000D03*
X111250000Y-102350000D03*
X111250000Y-103250000D03*
X120300000Y-99050000D03*
X120300000Y-98150000D03*
X124250000Y-103750000D03*
X124250000Y-104650000D03*
X116000000Y-94650000D03*
X116000000Y-95550000D03*
X124250000Y-102650000D03*
X124250000Y-101750000D03*
D11*
X106550000Y-98500000D03*
X104950000Y-98500000D03*
D17*
X107150000Y-96950000D03*
X107150000Y-95050000D03*
X104850000Y-96000000D03*
D18*
X102675000Y-98700000D03*
X102675000Y-99350000D03*
X102675000Y-100000000D03*
X102675000Y-100650000D03*
X102675000Y-101300000D03*
D19*
X100000000Y-98850000D03*
X100000000Y-101150000D03*
D17*
X125350000Y-98050000D03*
X125350000Y-99950000D03*
X127650000Y-99000000D03*
D16*
X109450000Y-99000000D03*
X108550000Y-99000000D03*
X108550000Y-98000000D03*
X109450000Y-98000000D03*
X109450000Y-102000000D03*
X108550000Y-102000000D03*
X109450000Y-100000000D03*
X108550000Y-100000000D03*
X109450000Y-101000000D03*
X108550000Y-101000000D03*
X130050000Y-94000000D03*
X130950000Y-94000000D03*
X128050000Y-94000000D03*
X128950000Y-94000000D03*
D20*
X121750000Y-105250000D03*
X121750000Y-101150000D03*
D15*
X108750000Y-96550000D03*
X108750000Y-94950000D03*
M02*
