G04 #@! TF.FileFunction,Legend,Top*
%FSLAX46Y46*%
G04 Gerber Fmt 4.6, Leading zero omitted, Abs format (unit mm)*
G04 Created by KiCad (PCBNEW 0.201512311516+6410~40~ubuntu14.04.1-stable) date Sun 03 Jan 2016 04:54:28 GMT*
%MOMM*%
G01*
G04 APERTURE LIST*
%ADD10C,0.100000*%
%ADD11C,0.150000*%
G04 APERTURE END LIST*
D10*
D11*
X114875000Y-94625000D02*
X114625000Y-94625000D01*
X114625000Y-94625000D02*
X114625000Y-93975000D01*
X114625000Y-93975000D02*
X114875000Y-93975000D01*
X114875000Y-93975000D02*
X114875000Y-94625000D01*
X120800000Y-103150000D02*
X120400000Y-103550000D01*
X114100000Y-103550000D02*
X113700000Y-103550000D01*
X113700000Y-103550000D02*
X113700000Y-103150000D01*
X114100000Y-96450000D02*
X113700000Y-96450000D01*
X113700000Y-96450000D02*
X113700000Y-96850000D01*
X120400000Y-96450000D02*
X120800000Y-96450000D01*
X120800000Y-96450000D02*
X120800000Y-96850000D01*
X122925000Y-98325000D02*
X122925000Y-98075000D01*
X122925000Y-98075000D02*
X123575000Y-98075000D01*
X123575000Y-98075000D02*
X123575000Y-98325000D01*
X123575000Y-98325000D02*
X122925000Y-98325000D01*
X107375000Y-98825000D02*
X107125000Y-98825000D01*
X107125000Y-98825000D02*
X107125000Y-98175000D01*
X107125000Y-98175000D02*
X107375000Y-98175000D01*
X107375000Y-98175000D02*
X107375000Y-98825000D01*
X107350000Y-96950000D02*
X107350000Y-96950000D01*
X107350000Y-96950000D02*
X107350000Y-95050000D01*
X107350000Y-95050000D02*
X107650000Y-95050000D01*
X107650000Y-95050000D02*
X107650000Y-96650000D01*
X107650000Y-96650000D02*
X107350000Y-96950000D01*
X127150000Y-98050000D02*
X127150000Y-98050000D01*
X127150000Y-98050000D02*
X127150000Y-99950000D01*
X127150000Y-99950000D02*
X126850000Y-99950000D01*
X126850000Y-99950000D02*
X126850000Y-98350000D01*
X126850000Y-98350000D02*
X127150000Y-98050000D01*
X121725000Y-104100000D02*
X121725000Y-102300000D01*
X121725000Y-102300000D02*
X124775000Y-102300000D01*
X124775000Y-102300000D02*
X124775000Y-104100000D01*
X124775000Y-104100000D02*
X121725000Y-104100000D01*
X109925000Y-95875000D02*
X109925000Y-95625000D01*
X109925000Y-95625000D02*
X110575000Y-95625000D01*
X110575000Y-95625000D02*
X110575000Y-95875000D01*
X110575000Y-95875000D02*
X109925000Y-95875000D01*
X133000000Y-96900000D02*
X132100000Y-96900000D01*
X133000000Y-103100000D02*
X132100000Y-103100000D01*
X132100000Y-103100000D02*
X132100000Y-101100000D01*
X132100000Y-96900000D02*
X132100000Y-98900000D01*
X133000000Y-96900000D02*
X133000000Y-103100000D01*
M02*
