G04 #@! TF.FileFunction,Soldermask,Top*
%FSLAX46Y46*%
G04 Gerber Fmt 4.6, Leading zero omitted, Abs format (unit mm)*
G04 Created by KiCad (PCBNEW 0.201512311516+6410~40~ubuntu14.04.1-stable) date Sat 02 Jan 2016 08:24:33 GMT*
%MOMM*%
G01*
G04 APERTURE LIST*
%ADD10C,0.100000*%
%ADD11C,0.150000*%
%ADD12R,0.950000X1.000000*%
%ADD13R,0.550000X0.300000*%
%ADD14R,0.300000X0.550000*%
%ADD15R,5.602000X5.602000*%
%ADD16R,1.000000X0.950000*%
%ADD17R,0.620000X0.620000*%
%ADD18R,1.000000X0.600000*%
%ADD19R,1.350000X0.400000*%
%ADD20C,1.000000*%
%ADD21R,1.800000X1.800000*%
%ADD22R,1.900000X2.440000*%
%ADD23C,0.787000*%
%ADD24C,1.016000*%
%ADD25R,2.400000X1.900000*%
%ADD26C,0.900000*%
%ADD27C,1.900000*%
G04 APERTURE END LIST*
D10*
D11*
X99033333Y-93916667D02*
X99366667Y-93916667D01*
X98966667Y-94116667D02*
X99200000Y-93416667D01*
X99433333Y-94116667D01*
X99666667Y-94116667D02*
X99666667Y-93416667D01*
X99900000Y-93916667D01*
X100133333Y-93416667D01*
X100133333Y-94116667D01*
X100466667Y-94116667D02*
X100466667Y-93416667D01*
X100733333Y-93416667D01*
X100800000Y-93450000D01*
X100833333Y-93483333D01*
X100866667Y-93550000D01*
X100866667Y-93650000D01*
X100833333Y-93716667D01*
X100800000Y-93750000D01*
X100733333Y-93783333D01*
X100466667Y-93783333D01*
X101700000Y-94116667D02*
X101700000Y-93650000D01*
X101700000Y-93783333D02*
X101733333Y-93716667D01*
X101766666Y-93683333D01*
X101833333Y-93650000D01*
X101900000Y-93650000D01*
X102499999Y-94116667D02*
X102099999Y-94116667D01*
X102299999Y-94116667D02*
X102299999Y-93416667D01*
X102233333Y-93516667D01*
X102166666Y-93583333D01*
X102099999Y-93616667D01*
X103299999Y-93483333D02*
X103333333Y-93450000D01*
X103399999Y-93416667D01*
X103566666Y-93416667D01*
X103633333Y-93450000D01*
X103666666Y-93483333D01*
X103699999Y-93550000D01*
X103699999Y-93616667D01*
X103666666Y-93716667D01*
X103266666Y-94116667D01*
X103699999Y-94116667D01*
X104133333Y-93416667D02*
X104200000Y-93416667D01*
X104266666Y-93450000D01*
X104300000Y-93483333D01*
X104333333Y-93550000D01*
X104366666Y-93683333D01*
X104366666Y-93850000D01*
X104333333Y-93983333D01*
X104300000Y-94050000D01*
X104266666Y-94083333D01*
X104200000Y-94116667D01*
X104133333Y-94116667D01*
X104066666Y-94083333D01*
X104033333Y-94050000D01*
X104000000Y-93983333D01*
X103966666Y-93850000D01*
X103966666Y-93683333D01*
X104000000Y-93550000D01*
X104033333Y-93483333D01*
X104066666Y-93450000D01*
X104133333Y-93416667D01*
X105033333Y-94116667D02*
X104633333Y-94116667D01*
X104833333Y-94116667D02*
X104833333Y-93416667D01*
X104766667Y-93516667D01*
X104700000Y-93583333D01*
X104633333Y-93616667D01*
X105633334Y-93416667D02*
X105500000Y-93416667D01*
X105433334Y-93450000D01*
X105400000Y-93483333D01*
X105333334Y-93583333D01*
X105300000Y-93716667D01*
X105300000Y-93983333D01*
X105333334Y-94050000D01*
X105366667Y-94083333D01*
X105433334Y-94116667D01*
X105566667Y-94116667D01*
X105633334Y-94083333D01*
X105666667Y-94050000D01*
X105700000Y-93983333D01*
X105700000Y-93816667D01*
X105666667Y-93750000D01*
X105633334Y-93716667D01*
X105566667Y-93683333D01*
X105433334Y-93683333D01*
X105366667Y-93716667D01*
X105333334Y-93750000D01*
X105300000Y-93816667D01*
X106000001Y-93850000D02*
X106533334Y-93850000D01*
X107000001Y-93416667D02*
X107066668Y-93416667D01*
X107133334Y-93450000D01*
X107166668Y-93483333D01*
X107200001Y-93550000D01*
X107233334Y-93683333D01*
X107233334Y-93850000D01*
X107200001Y-93983333D01*
X107166668Y-94050000D01*
X107133334Y-94083333D01*
X107066668Y-94116667D01*
X107000001Y-94116667D01*
X106933334Y-94083333D01*
X106900001Y-94050000D01*
X106866668Y-93983333D01*
X106833334Y-93850000D01*
X106833334Y-93683333D01*
X106866668Y-93550000D01*
X106900001Y-93483333D01*
X106933334Y-93450000D01*
X107000001Y-93416667D01*
X107900001Y-94116667D02*
X107500001Y-94116667D01*
X107700001Y-94116667D02*
X107700001Y-93416667D01*
X107633335Y-93516667D01*
X107566668Y-93583333D01*
X107500001Y-93616667D01*
X108200002Y-93850000D02*
X108733335Y-93850000D01*
X109200002Y-93416667D02*
X109266669Y-93416667D01*
X109333335Y-93450000D01*
X109366669Y-93483333D01*
X109400002Y-93550000D01*
X109433335Y-93683333D01*
X109433335Y-93850000D01*
X109400002Y-93983333D01*
X109366669Y-94050000D01*
X109333335Y-94083333D01*
X109266669Y-94116667D01*
X109200002Y-94116667D01*
X109133335Y-94083333D01*
X109100002Y-94050000D01*
X109066669Y-93983333D01*
X109033335Y-93850000D01*
X109033335Y-93683333D01*
X109066669Y-93550000D01*
X109100002Y-93483333D01*
X109133335Y-93450000D01*
X109200002Y-93416667D01*
X110100002Y-94116667D02*
X109700002Y-94116667D01*
X109900002Y-94116667D02*
X109900002Y-93416667D01*
X109833336Y-93516667D01*
X109766669Y-93583333D01*
X109700002Y-93616667D01*
D12*
X114050000Y-94300000D03*
X112450000Y-94300000D03*
D13*
X119125000Y-102750000D03*
X119125000Y-102250000D03*
X119125000Y-101750000D03*
X119125000Y-101250000D03*
X119125000Y-100750000D03*
X119125000Y-100250000D03*
X119125000Y-99750000D03*
X119125000Y-99250000D03*
X119125000Y-98750000D03*
X119125000Y-98250000D03*
X119125000Y-97750000D03*
X119125000Y-97250000D03*
D14*
X118500000Y-96625000D03*
X118000000Y-96625000D03*
X117500000Y-96625000D03*
X117000000Y-96625000D03*
X116500000Y-96625000D03*
X116000000Y-96625000D03*
X115500000Y-96625000D03*
X115000000Y-96625000D03*
X114500000Y-96625000D03*
X114000000Y-96625000D03*
X113500000Y-96625000D03*
X113000000Y-96625000D03*
D13*
X112375000Y-97250000D03*
X112375000Y-97750000D03*
X112375000Y-98250000D03*
X112375000Y-98750000D03*
X112375000Y-99250000D03*
X112375000Y-99750000D03*
X112375000Y-100250000D03*
X112375000Y-100750000D03*
X112375000Y-101250000D03*
X112375000Y-101750000D03*
X112375000Y-102250000D03*
X112375000Y-102750000D03*
D14*
X113000000Y-103375000D03*
X113500000Y-103375000D03*
X114000000Y-103375000D03*
X114500000Y-103375000D03*
X115000000Y-103375000D03*
X115500000Y-103375000D03*
X116000000Y-103375000D03*
X116500000Y-103375000D03*
X117000000Y-103375000D03*
X117500000Y-103375000D03*
X118000000Y-103375000D03*
X118500000Y-103375000D03*
D15*
X115750000Y-100000000D03*
D16*
X121750000Y-99000000D03*
X121750000Y-97400000D03*
D17*
X113700000Y-95500000D03*
X112800000Y-95500000D03*
X117800000Y-104500000D03*
X118700000Y-104500000D03*
X111250000Y-102350000D03*
X111250000Y-103250000D03*
X120300000Y-99050000D03*
X120300000Y-98150000D03*
X124250000Y-103750000D03*
X124250000Y-104650000D03*
X116000000Y-94650000D03*
X116000000Y-95550000D03*
X124250000Y-102650000D03*
X124250000Y-101750000D03*
D12*
X106550000Y-98500000D03*
X104950000Y-98500000D03*
D18*
X107150000Y-96950000D03*
X107150000Y-95050000D03*
X104850000Y-96000000D03*
D19*
X102675000Y-98700000D03*
X102675000Y-99350000D03*
X102675000Y-100000000D03*
X102675000Y-100650000D03*
X102675000Y-101300000D03*
D20*
X103000000Y-97775000D03*
X103000000Y-102225000D03*
D21*
X100000000Y-98850000D03*
X100000000Y-101150000D03*
D22*
X99820000Y-103840000D03*
X99820000Y-96160000D03*
D23*
X105500000Y-102480000D03*
X106770000Y-102480000D03*
X105500000Y-103750000D03*
X106770000Y-103750000D03*
X105500000Y-105020000D03*
X106770000Y-105020000D03*
D20*
X106135000Y-101210000D03*
X105119000Y-106290000D03*
X107151000Y-106290000D03*
D24*
X130865000Y-97460000D03*
X132135000Y-97460000D03*
X130865000Y-98730000D03*
X132135000Y-98730000D03*
X130865000Y-100000000D03*
X132135000Y-100000000D03*
X130865000Y-101270000D03*
X132135000Y-101270000D03*
X130865000Y-102540000D03*
X132135000Y-102540000D03*
D18*
X125350000Y-98050000D03*
X125350000Y-99950000D03*
X127650000Y-99000000D03*
D17*
X109450000Y-99000000D03*
X108550000Y-99000000D03*
X108550000Y-98000000D03*
X109450000Y-98000000D03*
X109450000Y-102000000D03*
X108550000Y-102000000D03*
X109450000Y-100000000D03*
X108550000Y-100000000D03*
X109450000Y-101000000D03*
X108550000Y-101000000D03*
X130050000Y-94000000D03*
X130950000Y-94000000D03*
X128050000Y-94000000D03*
X128950000Y-94000000D03*
D25*
X121750000Y-105250000D03*
X121750000Y-101150000D03*
D16*
X108750000Y-96550000D03*
X108750000Y-94950000D03*
D26*
X126500000Y-94800000D03*
D27*
X126500000Y-105200000D03*
M02*
