G04 #@! TF.FileFunction,Copper,L1,Top,Signal*
%FSLAX46Y46*%
G04 Gerber Fmt 4.6, Leading zero omitted, Abs format (unit mm)*
G04 Created by KiCad (PCBNEW 0.201512311516+6410~40~ubuntu14.04.1-stable) date Sun 03 Jan 2016 07:22:07 GMT*
%MOMM*%
G01*
G04 APERTURE LIST*
%ADD10C,0.100000*%
%ADD11C,0.150000*%
%ADD12R,0.950000X1.000000*%
%ADD13R,1.000000X0.950000*%
%ADD14R,0.620000X0.620000*%
%ADD15R,1.000000X0.600000*%
%ADD16C,0.787000*%
%ADD17R,2.400000X1.900000*%
%ADD18R,2.790000X0.740000*%
%ADD19R,1.350000X0.400000*%
%ADD20O,1.250000X1.000000*%
%ADD21R,1.900000X1.800000*%
%ADD22R,1.900000X1.575000*%
%ADD23O,1.900000X1.000000*%
%ADD24R,0.550000X0.300000*%
%ADD25R,0.300000X0.550000*%
%ADD26R,2.000000X2.000000*%
%ADD27C,0.600000*%
%ADD28R,5.600000X5.600000*%
%ADD29C,0.200000*%
%ADD30C,0.300000*%
%ADD31C,0.250000*%
G04 APERTURE END LIST*
D10*
D11*
X101133333Y-93916667D02*
X101466667Y-93916667D01*
X101066667Y-94116667D02*
X101300000Y-93416667D01*
X101533333Y-94116667D01*
X101766667Y-94116667D02*
X101766667Y-93416667D01*
X102000000Y-93916667D01*
X102233333Y-93416667D01*
X102233333Y-94116667D01*
X102566667Y-94116667D02*
X102566667Y-93416667D01*
X102833333Y-93416667D01*
X102900000Y-93450000D01*
X102933333Y-93483333D01*
X102966667Y-93550000D01*
X102966667Y-93650000D01*
X102933333Y-93716667D01*
X102900000Y-93750000D01*
X102833333Y-93783333D01*
X102566667Y-93783333D01*
X103800000Y-94116667D02*
X103800000Y-93650000D01*
X103800000Y-93783333D02*
X103833333Y-93716667D01*
X103866666Y-93683333D01*
X103933333Y-93650000D01*
X104000000Y-93650000D01*
X104599999Y-94116667D02*
X104199999Y-94116667D01*
X104399999Y-94116667D02*
X104399999Y-93416667D01*
X104333333Y-93516667D01*
X104266666Y-93583333D01*
X104199999Y-93616667D01*
X105399999Y-93483333D02*
X105433333Y-93450000D01*
X105499999Y-93416667D01*
X105666666Y-93416667D01*
X105733333Y-93450000D01*
X105766666Y-93483333D01*
X105799999Y-93550000D01*
X105799999Y-93616667D01*
X105766666Y-93716667D01*
X105366666Y-94116667D01*
X105799999Y-94116667D01*
X106233333Y-93416667D02*
X106300000Y-93416667D01*
X106366666Y-93450000D01*
X106400000Y-93483333D01*
X106433333Y-93550000D01*
X106466666Y-93683333D01*
X106466666Y-93850000D01*
X106433333Y-93983333D01*
X106400000Y-94050000D01*
X106366666Y-94083333D01*
X106300000Y-94116667D01*
X106233333Y-94116667D01*
X106166666Y-94083333D01*
X106133333Y-94050000D01*
X106100000Y-93983333D01*
X106066666Y-93850000D01*
X106066666Y-93683333D01*
X106100000Y-93550000D01*
X106133333Y-93483333D01*
X106166666Y-93450000D01*
X106233333Y-93416667D01*
X107133333Y-94116667D02*
X106733333Y-94116667D01*
X106933333Y-94116667D02*
X106933333Y-93416667D01*
X106866667Y-93516667D01*
X106800000Y-93583333D01*
X106733333Y-93616667D01*
X107733334Y-93416667D02*
X107600000Y-93416667D01*
X107533334Y-93450000D01*
X107500000Y-93483333D01*
X107433334Y-93583333D01*
X107400000Y-93716667D01*
X107400000Y-93983333D01*
X107433334Y-94050000D01*
X107466667Y-94083333D01*
X107533334Y-94116667D01*
X107666667Y-94116667D01*
X107733334Y-94083333D01*
X107766667Y-94050000D01*
X107800000Y-93983333D01*
X107800000Y-93816667D01*
X107766667Y-93750000D01*
X107733334Y-93716667D01*
X107666667Y-93683333D01*
X107533334Y-93683333D01*
X107466667Y-93716667D01*
X107433334Y-93750000D01*
X107400000Y-93816667D01*
X108100001Y-93850000D02*
X108633334Y-93850000D01*
X109100001Y-93416667D02*
X109166668Y-93416667D01*
X109233334Y-93450000D01*
X109266668Y-93483333D01*
X109300001Y-93550000D01*
X109333334Y-93683333D01*
X109333334Y-93850000D01*
X109300001Y-93983333D01*
X109266668Y-94050000D01*
X109233334Y-94083333D01*
X109166668Y-94116667D01*
X109100001Y-94116667D01*
X109033334Y-94083333D01*
X109000001Y-94050000D01*
X108966668Y-93983333D01*
X108933334Y-93850000D01*
X108933334Y-93683333D01*
X108966668Y-93550000D01*
X109000001Y-93483333D01*
X109033334Y-93450000D01*
X109100001Y-93416667D01*
X110000001Y-94116667D02*
X109600001Y-94116667D01*
X109800001Y-94116667D02*
X109800001Y-93416667D01*
X109733335Y-93516667D01*
X109666668Y-93583333D01*
X109600001Y-93616667D01*
X110300002Y-93850000D02*
X110833335Y-93850000D01*
X111300002Y-93416667D02*
X111366669Y-93416667D01*
X111433335Y-93450000D01*
X111466669Y-93483333D01*
X111500002Y-93550000D01*
X111533335Y-93683333D01*
X111533335Y-93850000D01*
X111500002Y-93983333D01*
X111466669Y-94050000D01*
X111433335Y-94083333D01*
X111366669Y-94116667D01*
X111300002Y-94116667D01*
X111233335Y-94083333D01*
X111200002Y-94050000D01*
X111166669Y-93983333D01*
X111133335Y-93850000D01*
X111133335Y-93683333D01*
X111166669Y-93550000D01*
X111200002Y-93483333D01*
X111233335Y-93450000D01*
X111300002Y-93416667D01*
X112200002Y-94116667D02*
X111800002Y-94116667D01*
X112000002Y-94116667D02*
X112000002Y-93416667D01*
X111933336Y-93516667D01*
X111866669Y-93583333D01*
X111800002Y-93616667D01*
D12*
X115550000Y-94300000D03*
X113950000Y-94300000D03*
D13*
X123250000Y-99000000D03*
X123250000Y-97400000D03*
D14*
X115200000Y-95500000D03*
X114300000Y-95500000D03*
X119300000Y-104500000D03*
X120200000Y-104500000D03*
X112750000Y-102350000D03*
X112750000Y-103250000D03*
X121800000Y-99050000D03*
X121800000Y-98150000D03*
X125600000Y-103750000D03*
X125600000Y-104650000D03*
X117500000Y-94650000D03*
X117500000Y-95550000D03*
X125600000Y-102650000D03*
X125600000Y-101750000D03*
D12*
X108050000Y-98500000D03*
X106450000Y-98500000D03*
D15*
X108650000Y-96950000D03*
X108650000Y-95050000D03*
X106350000Y-96000000D03*
D16*
X107000000Y-102480000D03*
X108270000Y-102480000D03*
X107000000Y-103750000D03*
X108270000Y-103750000D03*
X107000000Y-105020000D03*
X108270000Y-105020000D03*
D15*
X125850000Y-98050000D03*
X125850000Y-99950000D03*
X128150000Y-99000000D03*
D14*
X110950000Y-99000000D03*
X110050000Y-99000000D03*
X110050000Y-98000000D03*
X110950000Y-98000000D03*
X110950000Y-102000000D03*
X110050000Y-102000000D03*
X110950000Y-100000000D03*
X110050000Y-100000000D03*
X110950000Y-101000000D03*
X110050000Y-101000000D03*
X131550000Y-94000000D03*
X132450000Y-94000000D03*
X129550000Y-94000000D03*
X130450000Y-94000000D03*
D17*
X123250000Y-105250000D03*
X123250000Y-101150000D03*
D13*
X110250000Y-96550000D03*
X110250000Y-94950000D03*
D18*
X130465000Y-97460000D03*
X134535000Y-97460000D03*
X130465000Y-98730000D03*
X134535000Y-98730000D03*
X130465000Y-100000000D03*
X134535000Y-100000000D03*
X130465000Y-101270000D03*
X134535000Y-101270000D03*
X130465000Y-102540000D03*
X134535000Y-102540000D03*
D19*
X104125000Y-99990000D03*
X104125000Y-100640000D03*
X104125000Y-99340000D03*
X104125000Y-98690000D03*
X104125000Y-101290000D03*
D20*
X104450000Y-102215000D03*
X104450000Y-97765000D03*
D21*
X101450000Y-101140000D03*
X101450000Y-98840000D03*
D22*
X101450000Y-103377500D03*
D23*
X101450000Y-104165000D03*
D22*
X101450000Y-96602500D03*
D23*
X101450000Y-95815000D03*
D24*
X120625000Y-102750000D03*
X120625000Y-102250000D03*
X120625000Y-101750000D03*
X120625000Y-101250000D03*
X120625000Y-100750000D03*
X120625000Y-100250000D03*
X120625000Y-99750000D03*
X120625000Y-99250000D03*
X120625000Y-98750000D03*
X120625000Y-98250000D03*
X120625000Y-97750000D03*
X120625000Y-97250000D03*
D25*
X120000000Y-96625000D03*
X119500000Y-96625000D03*
X119000000Y-96625000D03*
X118500000Y-96625000D03*
X118000000Y-96625000D03*
X117500000Y-96625000D03*
X117000000Y-96625000D03*
X116500000Y-96625000D03*
X116000000Y-96625000D03*
X115500000Y-96625000D03*
X115000000Y-96625000D03*
X114500000Y-96625000D03*
D24*
X113875000Y-97250000D03*
X113875000Y-97750000D03*
X113875000Y-98250000D03*
X113875000Y-98750000D03*
X113875000Y-99250000D03*
X113875000Y-99750000D03*
X113875000Y-100250000D03*
X113875000Y-100750000D03*
X113875000Y-101250000D03*
X113875000Y-101750000D03*
X113875000Y-102250000D03*
X113875000Y-102750000D03*
D25*
X114500000Y-103375000D03*
X115000000Y-103375000D03*
X115500000Y-103375000D03*
X116000000Y-103375000D03*
X116500000Y-103375000D03*
X117000000Y-103375000D03*
X117500000Y-103375000D03*
X118000000Y-103375000D03*
X118500000Y-103375000D03*
X119000000Y-103375000D03*
X119500000Y-103375000D03*
X120000000Y-103375000D03*
D26*
X118500000Y-101250000D03*
X118500000Y-98750000D03*
X116000000Y-101250000D03*
X116000000Y-98750000D03*
X118500000Y-101250000D03*
X118500000Y-98750000D03*
X116000000Y-101250000D03*
X116000000Y-98750000D03*
D27*
X119750000Y-102500000D03*
X119750000Y-100000000D03*
X119750000Y-97500000D03*
X117250000Y-102500000D03*
X117250000Y-100000000D03*
X117250000Y-97500000D03*
X114750000Y-102500000D03*
X114750000Y-100000000D03*
X114750000Y-97500000D03*
D28*
X117250000Y-100000000D03*
D27*
X124688224Y-98111776D03*
X122200000Y-97300000D03*
X121800000Y-93439989D03*
X107291735Y-97587978D03*
X110100000Y-104800000D03*
X109119645Y-103473504D03*
X106100000Y-102700000D03*
X105549045Y-101988601D03*
X105500000Y-100600000D03*
X105500000Y-101300000D03*
X132300000Y-99400000D03*
X107594458Y-105604798D03*
X124104985Y-98762235D03*
X128800000Y-93600000D03*
X128700000Y-102500000D03*
X128700000Y-100000000D03*
X124600000Y-103200000D03*
X116199990Y-95103484D03*
X118350000Y-104200000D03*
X118200000Y-94700000D03*
X109100000Y-98200000D03*
X111100000Y-96500000D03*
X111918272Y-103118272D03*
X106200000Y-105000000D03*
X121600000Y-99860002D03*
X109119645Y-104743505D03*
X121149993Y-103333019D03*
X106200000Y-104100000D03*
X127158519Y-94341481D03*
X124649998Y-97225009D03*
X111900000Y-98700000D03*
X111500000Y-101800000D03*
X124646792Y-99350833D03*
X126304272Y-106104272D03*
X121130325Y-106130325D03*
X111161921Y-105647295D03*
X112606133Y-99377001D03*
X126410002Y-101880967D03*
X113100000Y-105700000D03*
X112400000Y-100149990D03*
X132400000Y-97400000D03*
X133700000Y-94000000D03*
D29*
X113875000Y-102750000D02*
X113400000Y-102750000D01*
X113300000Y-103210000D02*
X113260000Y-103250000D01*
X113400000Y-102750000D02*
X113300000Y-102850000D01*
X113300000Y-102850000D02*
X113300000Y-103210000D01*
X113260000Y-103250000D02*
X112750000Y-103250000D01*
D30*
X124900000Y-98400000D02*
X124688224Y-98188224D01*
X125850000Y-99350000D02*
X124900000Y-98400000D01*
X124688224Y-98111776D02*
X124300000Y-98111776D01*
X124300000Y-98111776D02*
X123961776Y-98111776D01*
X124900000Y-98400000D02*
X124662002Y-98400000D01*
X124662002Y-98400000D02*
X124373778Y-98111776D01*
X124373778Y-98111776D02*
X124300000Y-98111776D01*
X125850000Y-99950000D02*
X125850000Y-99350000D01*
X124688224Y-98188224D02*
X124688224Y-98111776D01*
X120049999Y-105160001D02*
X116500000Y-105160001D01*
X116500000Y-105160001D02*
X114084413Y-105160001D01*
D31*
X116500000Y-103375000D02*
X116500000Y-105160001D01*
D30*
X120200000Y-105010000D02*
X120049999Y-105160001D01*
X110524264Y-104800000D02*
X110100000Y-104800000D01*
X114084413Y-105160001D02*
X113517920Y-104593508D01*
X113517920Y-104593508D02*
X110730756Y-104593508D01*
X110730756Y-104593508D02*
X110524264Y-104800000D01*
D29*
X121800000Y-98150000D02*
X121290000Y-98150000D01*
X121200001Y-98239999D02*
X121200001Y-98649999D01*
X121290000Y-98150000D02*
X121200001Y-98239999D01*
X121200001Y-98649999D02*
X121100000Y-98750000D01*
X121100000Y-98750000D02*
X120625000Y-98750000D01*
D30*
X123961776Y-98111776D02*
X123250000Y-97400000D01*
X122200000Y-97300000D02*
X123150000Y-97300000D01*
X123150000Y-97300000D02*
X123250000Y-97400000D01*
X113950000Y-94300000D02*
X113950000Y-94275000D01*
X113950000Y-94275000D02*
X114785011Y-93439989D01*
X114785011Y-93439989D02*
X121800000Y-93439989D01*
X110250000Y-94950000D02*
X113300000Y-94950000D01*
X113300000Y-94950000D02*
X113950000Y-94300000D01*
X114300000Y-95500000D02*
X114300000Y-94650000D01*
X114300000Y-94650000D02*
X113950000Y-94300000D01*
X108650000Y-95050000D02*
X108450000Y-95050000D01*
X108450000Y-95050000D02*
X107291735Y-96208265D01*
X107291735Y-96208265D02*
X107291735Y-97587978D01*
D29*
X120549992Y-103175008D02*
X120549992Y-102825008D01*
X120549992Y-102825008D02*
X120625000Y-102750000D01*
X120000000Y-103375000D02*
X120350000Y-103375000D01*
X120350000Y-103375000D02*
X120549992Y-103175008D01*
D30*
X120200000Y-104500000D02*
X120200000Y-105010000D01*
X120200000Y-105010000D02*
X120099999Y-105110001D01*
D29*
X112281727Y-103718273D02*
X109364414Y-103718273D01*
X109364414Y-103718273D02*
X109119645Y-103473504D01*
X112750000Y-103250000D02*
X112281727Y-103718273D01*
X106100000Y-102700000D02*
X106780000Y-102700000D01*
X106780000Y-102700000D02*
X107000000Y-102480000D01*
D30*
X108650000Y-95050000D02*
X110150000Y-95050000D01*
D29*
X110150000Y-95050000D02*
X110250000Y-94950000D01*
X121750000Y-98250000D02*
X122400000Y-98250000D01*
X122400000Y-98250000D02*
X123250000Y-97400000D01*
X121600000Y-98250000D02*
X121750000Y-98250000D01*
X114500000Y-96625000D02*
X114500000Y-95700000D01*
X114500000Y-95700000D02*
X114300000Y-95500000D01*
X120000000Y-103375000D02*
X120000000Y-104300000D01*
X120000000Y-104300000D02*
X120200000Y-104500000D01*
X105200000Y-100900000D02*
X105500000Y-100600000D01*
X105060444Y-101500000D02*
X105160444Y-101600000D01*
X105100000Y-101000000D02*
X105200000Y-100900000D01*
X105160444Y-101600000D02*
X105549045Y-101988601D01*
X105200000Y-100900000D02*
X105200000Y-101560444D01*
X105200000Y-101560444D02*
X105160444Y-101600000D01*
X104810000Y-101290000D02*
X105100000Y-101000000D01*
X104850444Y-101290000D02*
X105060444Y-101500000D01*
X105100000Y-101460444D02*
X105060444Y-101500000D01*
X105100000Y-101000000D02*
X105100000Y-101460444D01*
X104125000Y-101290000D02*
X104850444Y-101290000D01*
X104125000Y-101290000D02*
X104810000Y-101290000D01*
X104125000Y-101290000D02*
X105490000Y-101290000D01*
X105490000Y-101290000D02*
X105500000Y-101300000D01*
X132300000Y-99400000D02*
X132300000Y-99800000D01*
X132300000Y-98970000D02*
X132300000Y-99400000D01*
X107000000Y-105020000D02*
X107009660Y-105020000D01*
X107009660Y-105020000D02*
X107594458Y-105604798D01*
D30*
X123250000Y-99000000D02*
X123867220Y-99000000D01*
X123867220Y-99000000D02*
X124104985Y-98762235D01*
D29*
X132300000Y-99800000D02*
X132100000Y-100000000D01*
X132100000Y-100000000D02*
X130465000Y-100000000D01*
X130465000Y-98730000D02*
X132060000Y-98730000D01*
X132060000Y-98730000D02*
X132300000Y-98970000D01*
X129550000Y-94000000D02*
X129200000Y-94000000D01*
X129200000Y-94000000D02*
X128800000Y-93600000D01*
X130465000Y-102540000D02*
X128740000Y-102540000D01*
X128740000Y-102540000D02*
X128700000Y-102500000D01*
X130465000Y-100000000D02*
X128700000Y-100000000D01*
X125600000Y-103200000D02*
X125600000Y-103750000D01*
X125600000Y-102650000D02*
X125600000Y-103200000D01*
X125600000Y-103200000D02*
X124600000Y-103200000D01*
X120625000Y-99250000D02*
X121600000Y-99250000D01*
X121600000Y-99250000D02*
X121800000Y-99050000D01*
D30*
X115550000Y-94300000D02*
X115550000Y-94453494D01*
X115550000Y-94453494D02*
X116199990Y-95103484D01*
X115200000Y-95500000D02*
X115200000Y-94650000D01*
X115200000Y-94650000D02*
X115550000Y-94300000D01*
D29*
X118350000Y-104200000D02*
X118650000Y-104500000D01*
X118000000Y-103850000D02*
X118350000Y-104200000D01*
X117500000Y-94650000D02*
X118150000Y-94650000D01*
X118150000Y-94650000D02*
X118200000Y-94700000D01*
D30*
X108050000Y-98500000D02*
X108800000Y-98500000D01*
X108800000Y-98500000D02*
X109100000Y-98200000D01*
X110250000Y-96550000D02*
X111050000Y-96550000D01*
D29*
X111050000Y-96550000D02*
X111100000Y-96500000D01*
X112750000Y-102350000D02*
X112489998Y-102350000D01*
X112489998Y-102350000D02*
X111918272Y-102921726D01*
X111918272Y-102921726D02*
X111918272Y-103118272D01*
X118000000Y-103375000D02*
X118000000Y-103850000D01*
X118650000Y-104500000D02*
X118790000Y-104500000D01*
X118790000Y-104500000D02*
X119300000Y-104500000D01*
X107000000Y-105020000D02*
X106220000Y-105020000D01*
X106220000Y-105020000D02*
X106200000Y-105000000D01*
D30*
X110050000Y-98000000D02*
X110050000Y-96750000D01*
D29*
X110050000Y-96750000D02*
X110250000Y-96550000D01*
D30*
X108650000Y-96950000D02*
X108650000Y-97900000D01*
X108650000Y-97900000D02*
X108050000Y-98500000D01*
X108650000Y-96950000D02*
X109850000Y-96950000D01*
D29*
X109850000Y-96950000D02*
X110250000Y-96550000D01*
X121750000Y-99150000D02*
X123100000Y-99150000D01*
X123100000Y-99150000D02*
X123250000Y-99000000D01*
X121650000Y-99250000D02*
X121750000Y-99150000D01*
X115000000Y-96625000D02*
X115000000Y-95700000D01*
X115000000Y-95700000D02*
X115200000Y-95500000D01*
X113875000Y-102250000D02*
X112850000Y-102250000D01*
X112850000Y-102250000D02*
X112750000Y-102350000D01*
X119500000Y-103375000D02*
X119500000Y-104300000D01*
X119500000Y-104300000D02*
X119300000Y-104500000D01*
X125600000Y-104650000D02*
X123850000Y-104650000D01*
X123850000Y-104650000D02*
X123250000Y-105250000D01*
X120625000Y-100750000D02*
X121036297Y-100750000D01*
X121036297Y-100750000D02*
X121749999Y-101463702D01*
X121749999Y-104049999D02*
X122950000Y-105250000D01*
X121749999Y-101463702D02*
X121749999Y-104049999D01*
X122950000Y-105250000D02*
X123250000Y-105250000D01*
X123250000Y-105250000D02*
X122903701Y-105250000D01*
X123000000Y-105250000D02*
X123250000Y-105250000D01*
X117500000Y-95550000D02*
X118402905Y-95550000D01*
X118402905Y-95550000D02*
X119327955Y-94624949D01*
X119327955Y-94624949D02*
X126593445Y-94624949D01*
X126593445Y-94624949D02*
X127558464Y-95589969D01*
X127558464Y-95589969D02*
X130010031Y-95589969D01*
X130010031Y-95589969D02*
X130450000Y-95150000D01*
X130450000Y-95150000D02*
X130450000Y-94000000D01*
X117500000Y-96625000D02*
X117500000Y-95550000D01*
X130450000Y-94000000D02*
X131550000Y-94000000D01*
X125600000Y-101750000D02*
X123850000Y-101750000D01*
X123850000Y-101750000D02*
X123250000Y-101150000D01*
X120625000Y-100250000D02*
X121101996Y-100250000D01*
X121101996Y-100250000D02*
X121311999Y-100460003D01*
X121311999Y-100460003D02*
X122560003Y-100460003D01*
X122560003Y-100460003D02*
X123250000Y-101150000D01*
X123250000Y-101150000D02*
X122950000Y-101150000D01*
X122550000Y-100450000D02*
X123250000Y-101150000D01*
D30*
X104125000Y-98690000D02*
X106260000Y-98690000D01*
X106260000Y-98690000D02*
X106450000Y-98500000D01*
D29*
X106450000Y-98500000D02*
X106450000Y-99200000D01*
X109239999Y-99300001D02*
X109540000Y-99000000D01*
X106450000Y-99200000D02*
X106550001Y-99300001D01*
X106550001Y-99300001D02*
X109239999Y-99300001D01*
X109540000Y-99000000D02*
X110050000Y-99000000D01*
D30*
X106350000Y-96000000D02*
X106350000Y-98400000D01*
D29*
X106350000Y-98400000D02*
X106450000Y-98500000D01*
X106250000Y-98700000D02*
X106450000Y-98500000D01*
X121149993Y-103333019D02*
X121200000Y-103383026D01*
X121200000Y-103383026D02*
X121200000Y-104646410D01*
X121200000Y-104646410D02*
X120236399Y-105610011D01*
X120236399Y-105610011D02*
X113898013Y-105610011D01*
X113898013Y-105610011D02*
X113335296Y-105047294D01*
X113335296Y-105047294D02*
X110920930Y-105047294D01*
X110920930Y-105047294D02*
X110917155Y-105043519D01*
X109776141Y-105400001D02*
X109119645Y-104743505D01*
X110917155Y-105043519D02*
X110560673Y-105400001D01*
X110560673Y-105400001D02*
X109776141Y-105400001D01*
X120625000Y-99750000D02*
X121489998Y-99750000D01*
X121489998Y-99750000D02*
X121600000Y-99860002D01*
X106200000Y-104100000D02*
X106650000Y-104100000D01*
X106650000Y-104100000D02*
X107000000Y-103750000D01*
X107000000Y-103750000D02*
X107006415Y-103750000D01*
X120625000Y-97250000D02*
X121350000Y-97250000D01*
X127410013Y-101427277D02*
X127410013Y-102989987D01*
X121350000Y-97250000D02*
X121975001Y-96624999D01*
X121975001Y-96624999D02*
X125765001Y-96624999D01*
X125765001Y-96624999D02*
X126650001Y-97509999D01*
X126650001Y-97509999D02*
X126650001Y-100667266D01*
X126650001Y-100667266D02*
X127410013Y-101427277D01*
X127410013Y-102989987D02*
X128320026Y-103900000D01*
X132200000Y-103900000D02*
X133560000Y-102540000D01*
X128320026Y-103900000D02*
X132200000Y-103900000D01*
X133560000Y-102540000D02*
X134535000Y-102540000D01*
X120000000Y-96625000D02*
X120000000Y-96300000D01*
X120000000Y-96300000D02*
X120075011Y-96224989D01*
X120075011Y-96224989D02*
X125930690Y-96224989D01*
X127050011Y-97344310D02*
X127050011Y-100501577D01*
X131810012Y-103499990D02*
X132839999Y-102470003D01*
X133510000Y-101270000D02*
X134535000Y-101270000D01*
X125930690Y-96224989D02*
X127050011Y-97344310D01*
X127050011Y-100501577D02*
X127810023Y-101261588D01*
X127810023Y-101261588D02*
X127810023Y-102824299D01*
X132839999Y-101940001D02*
X133510000Y-101270000D01*
X127810023Y-102824299D02*
X128485714Y-103499990D01*
X128485714Y-103499990D02*
X131810012Y-103499990D01*
X132839999Y-102470003D02*
X132839999Y-101940001D01*
X127061398Y-96789999D02*
X132389999Y-96789999D01*
X132389999Y-96789999D02*
X132399999Y-96799999D01*
X132399999Y-96799999D02*
X132849999Y-96799999D01*
X133510000Y-97460000D02*
X134535000Y-97460000D01*
X132849999Y-96799999D02*
X133510000Y-97460000D01*
X119500000Y-96625000D02*
X119500000Y-96159998D01*
X119835019Y-95824979D02*
X126096378Y-95824979D01*
X119500000Y-96159998D02*
X119835019Y-95824979D01*
X126096378Y-95824979D02*
X127061398Y-96789999D01*
X119000000Y-96625000D02*
X119000000Y-96084302D01*
X135769991Y-96389989D02*
X136230001Y-96849999D01*
X136230001Y-96849999D02*
X136230001Y-98059999D01*
X119000000Y-96084302D02*
X119659331Y-95424971D01*
X119659331Y-95424971D02*
X119669328Y-95424971D01*
X119669328Y-95424971D02*
X119669330Y-95424969D01*
X126262067Y-95424969D02*
X127227087Y-96389989D01*
X136230001Y-98059999D02*
X135560000Y-98730000D01*
X119669330Y-95424969D02*
X126262067Y-95424969D01*
X127227087Y-96389989D02*
X135769991Y-96389989D01*
X135560000Y-98730000D02*
X134535000Y-98730000D01*
X127392776Y-95989979D02*
X135935680Y-95989979D01*
X135935680Y-95989979D02*
X136630011Y-96684310D01*
X136630011Y-98929989D02*
X135560000Y-100000000D01*
X136630011Y-96684310D02*
X136630011Y-98929989D01*
X118500000Y-96625000D02*
X118500000Y-96018603D01*
X118500000Y-96018603D02*
X119493644Y-95024959D01*
X119493644Y-95024959D02*
X126427756Y-95024959D01*
X126427756Y-95024959D02*
X127392776Y-95989979D01*
X135560000Y-100000000D02*
X134535000Y-100000000D01*
X126000000Y-94224939D02*
X127041977Y-94224939D01*
X127041977Y-94224939D02*
X127158519Y-94341481D01*
X117000000Y-96625000D02*
X117000000Y-96150000D01*
X119224939Y-94224939D02*
X126000000Y-94224939D01*
X117000000Y-96150000D02*
X116800000Y-95950000D01*
X119039999Y-94039999D02*
X119224939Y-94224939D01*
X116800000Y-95950000D02*
X116800000Y-94189998D01*
X116800000Y-94189998D02*
X116949999Y-94039999D01*
X116949999Y-94039999D02*
X119039999Y-94039999D01*
X124649998Y-97225009D02*
X125525009Y-97225009D01*
X125525009Y-97225009D02*
X125850000Y-97550000D01*
X125850000Y-97550000D02*
X125850000Y-98050000D01*
X113875000Y-97750000D02*
X111200000Y-97750000D01*
X111200000Y-97750000D02*
X110950000Y-98000000D01*
X110950000Y-99000000D02*
X110950000Y-98000000D01*
X112850000Y-98700000D02*
X111900000Y-98700000D01*
X113875000Y-99250000D02*
X113400000Y-99250000D01*
X113400000Y-99250000D02*
X112850000Y-98700000D01*
X111300000Y-102000000D02*
X111500000Y-101800000D01*
X110950000Y-102000000D02*
X111300000Y-102000000D01*
X124646792Y-99350833D02*
X124646792Y-99775097D01*
X124646792Y-99775097D02*
X124925561Y-100053866D01*
X124925561Y-100053866D02*
X124925561Y-100365563D01*
X126304272Y-106104272D02*
X126610011Y-105798533D01*
X126610011Y-102670921D02*
X127010003Y-102270929D01*
X126610011Y-105798533D02*
X126610011Y-102670921D01*
X127010003Y-102270929D02*
X127010003Y-101592966D01*
X127010003Y-101592966D02*
X126017027Y-100599990D01*
X126017027Y-100599990D02*
X125159988Y-100599990D01*
X125159988Y-100599990D02*
X124925561Y-100365563D01*
X121130325Y-106130325D02*
X120850619Y-106410031D01*
X120850619Y-106410031D02*
X111924657Y-106410031D01*
X111924657Y-106410031D02*
X111814627Y-106300001D01*
X111814627Y-106300001D02*
X111161921Y-105647295D01*
X113875000Y-99750000D02*
X112979132Y-99750000D01*
X112979132Y-99750000D02*
X112606133Y-99377001D01*
X113100000Y-105700000D02*
X113410021Y-106010021D01*
X126210001Y-105200001D02*
X126210001Y-102505232D01*
X113410021Y-106010021D02*
X120402089Y-106010021D01*
X121749999Y-105849999D02*
X121749999Y-106440001D01*
X121809999Y-106500001D02*
X124910001Y-106500001D01*
X120402089Y-106010021D02*
X120912108Y-105500000D01*
X120912108Y-105500000D02*
X121400000Y-105500000D01*
X121400000Y-105500000D02*
X121749999Y-105849999D01*
X121749999Y-106440001D02*
X121809999Y-106500001D01*
X124910001Y-106500001D02*
X126210001Y-105200001D01*
X126210001Y-102505232D02*
X126410002Y-102305231D01*
X126410002Y-102305231D02*
X126410002Y-101880967D01*
X113875000Y-100250000D02*
X112500010Y-100250000D01*
X112500010Y-100250000D02*
X112400000Y-100149990D01*
X113875000Y-101750000D02*
X113396801Y-101750000D01*
X113396801Y-101750000D02*
X113386800Y-101739999D01*
X113386800Y-101739999D02*
X112199999Y-101739999D01*
X112199999Y-101739999D02*
X112100001Y-101839997D01*
X112100001Y-102088001D02*
X111314503Y-102873499D01*
X111314503Y-102873499D02*
X108663499Y-102873499D01*
X108663499Y-102873499D02*
X108270000Y-102480000D01*
X112100001Y-101839997D02*
X112100001Y-102088001D01*
X114500000Y-103375000D02*
X114150000Y-103375000D01*
X114150000Y-103375000D02*
X113381501Y-104143499D01*
X113381501Y-104143499D02*
X108663499Y-104143499D01*
X108663499Y-104143499D02*
X108270000Y-103750000D01*
X104125000Y-99340000D02*
X106024301Y-99340000D01*
X106024301Y-99340000D02*
X106684301Y-100000000D01*
X106684301Y-100000000D02*
X109540000Y-100000000D01*
X109540000Y-100000000D02*
X110050000Y-100000000D01*
X104125000Y-99990000D02*
X106108603Y-99990000D01*
X106108603Y-99990000D02*
X106528602Y-100409999D01*
X106528602Y-100409999D02*
X108949999Y-100409999D01*
X108949999Y-100409999D02*
X109540000Y-101000000D01*
X109540000Y-101000000D02*
X110050000Y-101000000D01*
X110050000Y-101000000D02*
X110050000Y-100850000D01*
X110050000Y-101000000D02*
X110050000Y-102000000D01*
X132400000Y-97400000D02*
X130525000Y-97400000D01*
X130525000Y-97400000D02*
X130465000Y-97460000D01*
X132450000Y-94000000D02*
X133700000Y-94000000D01*
D30*
X130465000Y-97460000D02*
X128870000Y-97460000D01*
X128150000Y-98500000D02*
X128150000Y-99000000D01*
X128150000Y-98180000D02*
X128150000Y-98500000D01*
X128870000Y-97460000D02*
X128150000Y-98180000D01*
D29*
X132450000Y-94000000D02*
X132650002Y-94000000D01*
X113875000Y-100750000D02*
X111903701Y-100750000D01*
X111903701Y-100750000D02*
X111453701Y-100300000D01*
X111453701Y-100300000D02*
X111250000Y-100300000D01*
X111250000Y-100300000D02*
X110950000Y-100000000D01*
X113875000Y-101250000D02*
X111838002Y-101250000D01*
X111838002Y-101250000D02*
X111588002Y-101000000D01*
X111588002Y-101000000D02*
X111460000Y-101000000D01*
X111460000Y-101000000D02*
X110950000Y-101000000D01*
M02*
