G04 #@! TF.FileFunction,Paste,Top*
%FSLAX46Y46*%
G04 Gerber Fmt 4.6, Leading zero omitted, Abs format (unit mm)*
G04 Created by KiCad (PCBNEW 0.201512311516+6410~40~ubuntu14.04.1-stable) date Sun 03 Jan 2016 04:54:28 GMT*
%MOMM*%
G01*
G04 APERTURE LIST*
%ADD10C,0.100000*%
%ADD11R,0.950000X1.000000*%
%ADD12R,0.550000X0.300000*%
%ADD13R,0.300000X0.550000*%
%ADD14R,2.002000X2.002000*%
%ADD15R,1.000000X0.950000*%
%ADD16R,0.620000X0.620000*%
%ADD17R,1.000000X0.600000*%
%ADD18R,1.350000X0.400000*%
%ADD19R,1.200000X1.200000*%
%ADD20R,2.400000X1.900000*%
%ADD21R,2.790000X0.740000*%
G04 APERTURE END LIST*
D10*
D11*
X115550000Y-94300000D03*
X113950000Y-94300000D03*
D12*
X120625000Y-102750000D03*
X120625000Y-102250000D03*
X120625000Y-101750000D03*
X120625000Y-101250000D03*
X120625000Y-100750000D03*
X120625000Y-100250000D03*
X120625000Y-99750000D03*
X120625000Y-99250000D03*
X120625000Y-98750000D03*
X120625000Y-98250000D03*
X120625000Y-97750000D03*
X120625000Y-97250000D03*
D13*
X120000000Y-96625000D03*
X119500000Y-96625000D03*
X119000000Y-96625000D03*
X118500000Y-96625000D03*
X118000000Y-96625000D03*
X117500000Y-96625000D03*
X117000000Y-96625000D03*
X116500000Y-96625000D03*
X116000000Y-96625000D03*
X115500000Y-96625000D03*
X115000000Y-96625000D03*
X114500000Y-96625000D03*
D12*
X113875000Y-97250000D03*
X113875000Y-97750000D03*
X113875000Y-98250000D03*
X113875000Y-98750000D03*
X113875000Y-99250000D03*
X113875000Y-99750000D03*
X113875000Y-100250000D03*
X113875000Y-100750000D03*
X113875000Y-101250000D03*
X113875000Y-101750000D03*
X113875000Y-102250000D03*
X113875000Y-102750000D03*
D13*
X114500000Y-103375000D03*
X115000000Y-103375000D03*
X115500000Y-103375000D03*
X116000000Y-103375000D03*
X116500000Y-103375000D03*
X117000000Y-103375000D03*
X117500000Y-103375000D03*
X118000000Y-103375000D03*
X118500000Y-103375000D03*
X119000000Y-103375000D03*
X119500000Y-103375000D03*
X120000000Y-103375000D03*
D14*
X118500000Y-101250000D03*
X118500000Y-98750000D03*
X116000000Y-101250000D03*
X116000000Y-98750000D03*
D15*
X123250000Y-99000000D03*
X123250000Y-97400000D03*
D16*
X115200000Y-95500000D03*
X114300000Y-95500000D03*
X119300000Y-104500000D03*
X120200000Y-104500000D03*
X112750000Y-102350000D03*
X112750000Y-103250000D03*
X121800000Y-99050000D03*
X121800000Y-98150000D03*
X125600000Y-103750000D03*
X125600000Y-104650000D03*
X117500000Y-94650000D03*
X117500000Y-95550000D03*
X125600000Y-102650000D03*
X125600000Y-101750000D03*
D11*
X108050000Y-98500000D03*
X106450000Y-98500000D03*
D17*
X108650000Y-96950000D03*
X108650000Y-95050000D03*
X106350000Y-96000000D03*
D18*
X104175000Y-98700000D03*
X104175000Y-99350000D03*
X104175000Y-100000000D03*
X104175000Y-100650000D03*
X104175000Y-101300000D03*
D19*
X101500000Y-98850000D03*
X101500000Y-101150000D03*
D17*
X125850000Y-98050000D03*
X125850000Y-99950000D03*
X128150000Y-99000000D03*
D16*
X110950000Y-99000000D03*
X110050000Y-99000000D03*
X110050000Y-98000000D03*
X110950000Y-98000000D03*
X110950000Y-102000000D03*
X110050000Y-102000000D03*
X110950000Y-100000000D03*
X110050000Y-100000000D03*
X110950000Y-101000000D03*
X110050000Y-101000000D03*
X131550000Y-94000000D03*
X132450000Y-94000000D03*
X129550000Y-94000000D03*
X130450000Y-94000000D03*
D20*
X123250000Y-105250000D03*
X123250000Y-101150000D03*
D15*
X110250000Y-96550000D03*
X110250000Y-94950000D03*
D21*
X130465000Y-97460000D03*
X134535000Y-97460000D03*
X130465000Y-98730000D03*
X134535000Y-98730000D03*
X130465000Y-100000000D03*
X134535000Y-100000000D03*
X130465000Y-101270000D03*
X134535000Y-101270000D03*
X130465000Y-102540000D03*
X134535000Y-102540000D03*
M02*
