M48
;DRILL file {KiCad 0.201512311516+6410~40~ubuntu14.04.1-stable} date Sun 03 Jan 2016 07:22:09 GMT
;FORMAT={-:-/ absolute / inch / decimal}
FMAT,2
INCH,TZ
T1C0.016
T2C0.024
T3C0.026
%
G90
G05
M72
T1
X4.1535Y-3.9606
X4.1535Y-3.9882
X4.1555Y-4.0153
X4.1772Y-4.0433
X4.1811Y-4.0984
X4.1811Y-4.1339
X4.2241Y-3.842
X4.236Y-4.1577
X4.2953Y-3.8661
X4.296Y-4.0738
X4.296Y-4.1238
X4.3346Y-4.126
X4.374Y-3.7992
X4.3765Y-4.1593
X4.3898Y-4.0079
X4.4055Y-3.8858
X4.4062Y-4.0598
X4.4252Y-3.9429
X4.4333Y-3.9125
X4.4528Y-4.1614
X4.5177Y-3.8386
X4.5177Y-3.937
X4.5177Y-4.0354
X4.5748Y-3.7442
X4.6161Y-3.8386
X4.6161Y-3.937
X4.6161Y-4.0354
X4.6535Y-3.7283
X4.6594Y-4.1024
X4.7146Y-3.8386
X4.7146Y-3.937
X4.7146Y-4.0354
X4.7689Y-4.1784
X4.7697Y-4.0682
X4.7874Y-3.9315
X4.7953Y-3.6787
X4.811Y-3.8307
X4.886Y-3.8883
X4.9055Y-4.063
X4.9074Y-3.9115
X4.9075Y-3.8278
X4.909Y-3.8627
X4.9726Y-4.1773
X4.9768Y-4.0111
X5.0062Y-3.7142
X5.0669Y-3.937
X5.0669Y-4.0354
X5.0709Y-3.685
X5.2087Y-3.9134
X5.2126Y-3.8346
X5.2638Y-3.7008
T2
X4.0079Y-3.7722G85X3.9803Y-3.7722
G05
X4.0079Y-4.101G85X3.9803Y-4.101
G05
T3
X4.1161Y-3.849G85X4.1083Y-3.849
G05
X4.1161Y-4.0242G85X4.1083Y-4.0242
G05
T0
M30
