M48
;DRILL file {KiCad 0.201512311516+6410~40~ubuntu14.04.1-stable} date Sat 02 Jan 2016 08:24:37 GMT
;FORMAT={-:-/ absolute / inch / decimal}
FMAT,2
INCH,TZ
T1C0.016
T2C0.025
T3C0.026
T4C0.059
%
G90
G05
M72
T1
X4.0984Y-3.9606
X4.0984Y-3.9882
X4.0984Y-4.0157
X4.1181Y-4.0433
X4.122Y-4.0984
X4.122Y-4.1339
X4.165Y-3.842
X4.2362Y-3.8661
X4.237Y-4.0738
X4.237Y-4.1238
X4.2756Y-4.126
X4.315Y-3.7992
X4.3174Y-4.1593
X4.3307Y-4.0079
X4.3465Y-3.8858
X4.3472Y-4.0598
X4.3661Y-3.9429
X4.3743Y-3.9125
X4.3937Y-4.1614
X4.4587Y-3.8386
X4.4587Y-3.937
X4.4587Y-4.0354
X4.5157Y-3.7442
X4.5571Y-3.8386
X4.5571Y-3.937
X4.5571Y-4.0354
X4.5945Y-3.7283
X4.6004Y-4.1024
X4.6555Y-3.8386
X4.6555Y-3.937
X4.6555Y-4.0354
X4.7099Y-4.1784
X4.7106Y-4.0682
X4.7283Y-3.9315
X4.7362Y-3.6787
X4.752Y-3.8307
X4.8346Y-3.8976
X4.8465Y-4.063
X4.8484Y-3.8278
X4.8499Y-3.8627
X4.8583Y-3.9291
X4.9091Y-3.7092
X4.9136Y-4.1773
X5.0039Y-3.9921
X5.0138Y-3.7126
X5.2008Y-4.0945
X5.2028Y-3.7402
T2
X5.1522Y-3.837
X5.1522Y-3.887
X5.1522Y-3.937
X5.1522Y-3.987
X5.1522Y-4.037
X5.2022Y-3.837
X5.2022Y-3.887
X5.2022Y-3.937
X5.2022Y-3.987
X5.2022Y-4.037
T3
X4.0551Y-3.8494
X4.0551Y-4.0246
T4
X3.9299Y-3.7752
X3.9299Y-4.0988
T0
M30
